<?xml version="1.0" encoding="utf-8"?>
<!-- Generator: Adobe Illustrator 21.1.0, SVG Export Plug-In . SVG Version: 6.00 Build 0)  -->
<!DOCTYPE svg PUBLIC "-//W3C//DTD SVG 1.1//EN" "http://www.w3.org/Graphics/SVG/1.1/DTD/svg11.dtd">
<svg version="1.1" id="Layer_1" xmlns="http://www.w3.org/2000/svg" xmlns:xlink="http://www.w3.org/1999/xlink" x="0px" y="0px"
	 viewBox="0 0 175 80" style="enable-background:new 0 0 175 80;" xml:space="preserve">
<style type="text/css">
	.st0{fill:#F8B133;}
	.st1{fill:#F29100;}
	.st2{fill:#E5332A;}
</style>
<path class="st0" d="M161.9,14.5c-3.7-2.7-8.7-4.9-14.2-6.3l0.5-1.8c0.2-0.8-0.2-1.6-1-1.8c-0.8-0.2-1.6,0.2-1.8,1l-0.6,2
	c-2.6-0.5-5.4-0.7-8.3-0.7c-8.4,0-17.9,2.1-19.9,6.2c-0.7,1.3-0.5,2.8,0.6,4.1c4.1,5.2,8.2,6.3,10.9,6.3c1.1,0,2.1-0.2,2.7-0.4
	c2.9,2.3,5.9,3.4,8.6,4l-5.2,18.7c-2-0.1-4.1-0.2-6.4-0.2c-0.7,0-1.4,0-2.1,0c0,0,0,0,0,0c0.2-0.8,0.3-1.7,0.3-2.6
	c0-6.8-5.5-12.3-12.3-12.3c-6.8,0-12.3,5.5-12.3,12.3s5.5,12.3,12.3,12.3c2.9,0,5.6-1,7.7-2.8c-0.3,0.2-0.6,0.4-0.9,0.6
	c2.3,0.1,4.7,0.2,7.3,0.2c4.7,0,9.1-0.3,12.4-0.7c4.6-0.7,6.3-1.5,6.3-3.2c0-1.7-1.7-2.6-6.3-3.2c-0.9-0.1-1.9-0.2-3-0.3l5.1-18.6
	c0.5,0,0.9,0,1.3,0c2.3,0,4.2-0.4,5.1-0.6c3.6,1.8,7,2.6,10.1,2.6h0c5.8,0,8.6-3,8.7-3.2c0.2-0.2,0.3-0.5,0.4-0.7
	C168.7,21.9,166.5,17.9,161.9,14.5z M125.3,47c0,0.1,0,0.1-0.1,0.2C125.3,47.2,125.3,47.1,125.3,47z M114.6,33.8
	c3.4,0.3,6.2,2.5,7.5,5.4c-3.2-1.1-7.3-1.4-9.2-1.5c0,0,0-0.1-0.1-0.1C113.2,36.3,113.7,34.6,114.6,33.8z M106.4,37.3
	c0.3,0.4,0.5,0.8,0.8,1.1c-0.1,0.2-0.1,0.4-0.2,0.6c-0.6,0.1-1.3,0.4-2.1,0.8C105.4,38.9,105.8,38,106.4,37.3z M107.5,49.9
	c-1.8-1.6-2.9-4-3-6.5c0.9-1.2,2.3-1.7,3.2-2c0.2,0.2,0.4,0.4,0.6,0.6C107.8,43.4,107,46.6,107.5,49.9z M108.2,35.5
	c1-0.7,2.1-1.3,3.3-1.5c-0.4,0.8-0.6,1.6-0.8,2.3c-0.1,0-0.3,0-0.4,0c-0.5,0-1,0.1-1.4,0.3C108.6,36.2,108.4,35.8,108.2,35.5z
	 M109.5,39.5c0-0.5,0.4-0.8,0.8-0.8s0.8,0.4,0.8,0.8c0,0.5-0.4,0.8-0.8,0.8S109.5,40,109.5,39.5z M113.7,52.3
	c-1.1,0-2.2-0.2-3.2-0.6c-1.5-3.1-0.5-7.4,0-9c0.2,0,0.4,0,0.5-0.1c1.6,2.2,4.1,6.1,4.9,9.3C115.2,52.2,114.5,52.3,113.7,52.3z
	 M118.2,51.1c-1-3.6-3.5-7.5-5.2-9.8c0.2-0.3,0.4-0.7,0.5-1.1c2.7,0.2,7.2,0.7,9.4,2.1c0,0.3,0,0.5,0,0.8
	C123,46.5,121.1,49.5,118.2,51.1z M122,52c0.1-0.1,0.1-0.1,0.2-0.2C122.2,51.9,122.1,52,122,52z M122.9,51.1
	C122.9,51.1,122.9,51.2,122.9,51.1C122.9,51.2,122.9,51.1,122.9,51.1z M123.6,50.3C123.6,50.3,123.6,50.3,123.6,50.3
	c0.4-0.5,0.8-1.1,1.1-1.7c1,0,2.1,0,3.2,0c2,0,3.9,0.1,5.5,0.1l-0.2,0.7c-0.1,0.3-0.1,0.6,0,0.9c-1.6,0.1-3.4,0.1-5.4,0.1
	C126.3,50.4,124.9,50.4,123.6,50.3z M141.3,49.5c-1.3,0.2-3,0.5-5.2,0.6l0.3-1.2C138.5,49.1,140.1,49.3,141.3,49.5z M146.9,11.1
	c0.2,0,0.3,0.1,0.5,0.1c0,0.1,0,0.1,0,0.2c0.8,3,1.4,6.5,1.7,9c-1.6-0.3-3.1-0.5-4.5-0.8L146.9,11.1z M129.2,20.2
	C129.2,20.2,129.1,20.3,129.2,20.2c-1.7,0.4-5,0.2-8.6-3.8c2,0.7,5,1.8,9.1,2.9C129.4,19.8,129.2,20.1,129.2,20.2z M120.4,13.1
	c2.6-1.7,8.8-3.3,16-3.3c0.4,0,0.8,0,1.3,0c-2.8,2.2-4.9,4.7-6.4,6.8C126,15.2,122.3,13.9,120.4,13.1z M140.2,24.1
	c-2.4-0.5-5.2-1.5-7.8-3.6c0.1-0.1,0.1-0.2,0.2-0.4c2.4,0.6,5.1,1.2,8.1,1.8L140.2,24.1z M141.6,19c-2.6-0.5-5-1.1-7.1-1.6
	c1.8-2.3,4.4-5.2,7.9-7.1c0.1,0,0.1-0.1,0.2-0.1c0.5,0.1,1,0.1,1.4,0.2L141.6,19z M149,23.7C149,23.7,149,23.7,149,23.7
	C149,23.7,149,23.7,149,23.7c-0.2,0-0.3,0-0.5,0.1c0,0-2,0.6-4.8,0.6c-0.2,0-0.3,0-0.5,0l0.5-1.9c1.7,0.3,3.5,0.6,5.4,0.9
	C149.1,23.6,149,23.6,149,23.7z M158.9,26.5c-2.2,0-4.6-0.5-7.1-1.6c0.1-0.3,0.2-0.6,0.3-1c3.7,0.5,7.6,1,11.9,1.4
	C162.8,25.9,161.2,26.5,158.9,26.5z M152.1,20.9c-0.2-2.9-0.9-6.4-1.4-8.7c3.6,1.2,6.9,2.8,9.4,4.7c2.4,1.8,4,3.7,4.6,5.5
	C160.2,22,156,21.5,152.1,20.9z"/>
<g>
	<path class="st1" d="M16.8,26.8c-0.8,0-1.5-0.3-2.1-0.8s-0.9-1.4-0.9-2.5c0-0.2,0-0.5,0-0.7s0.1-0.5,0.1-0.7
		c0.1-0.2,0.1-0.4,0.2-0.5c0.1-0.1,0.2-0.2,0.3-0.2c0.1,0,0.2,0,0.3,0.1c0.1,0.1,0.2,0.1,0.4,0.2c0.2,0.1,0.4,0.2,0.7,0.2
		s0.7,0.1,1.2,0.1c1.2,0,2.4-0.2,3.6-0.6c1.2-0.4,2.4-0.9,3.4-1.6c1-0.7,1.9-1.5,2.5-2.5c0.7-1,1-2.1,1-3.3c0-0.4-0.1-0.9-0.2-1.3
		c-0.1-0.4-0.4-0.8-0.7-1.1c-0.3-0.3-0.7-0.6-1.1-0.8c-0.5-0.2-1-0.3-1.6-0.3c-1.7,0-3.3,0.4-4.7,1.1c-1.4,0.8-2.7,1.8-3.9,3
		s-2.2,2.7-3,4.4c-0.9,1.7-1.6,3.4-2.2,5.3c-0.6,1.9-1,3.7-1.3,5.6s-0.5,3.7-0.5,5.4c0,2.1,0.1,4,0.4,5.7c0.3,1.7,0.7,3.2,1.3,4.5
		s1.3,2.3,2.3,3c1,0.7,2.2,1.1,3.6,1.1c1.3,0,2.4-0.3,3.4-1s1.8-1.5,2.6-2.7c0.7-1.1,1.4-2.4,1.9-3.9c0.5-1.5,1-3.1,1.4-4.8
		c0.4-1.7,0.7-3.4,1-5.2c0.3-1.8,0.5-3.6,0.7-5.3c0.1-0.4,0.4-0.8,0.9-1c0.6-0.2,1.1-0.3,1.8-0.3c0.3,0,0.5,0,0.8,0.1
		s0.5,0.2,0.7,0.3c0.2,0.1,0.4,0.3,0.4,0.5c0.1,0.2,0.1,0.5,0,0.8c-0.2,0.9-0.4,2.2-0.5,4.1c-0.2,1.9-0.3,4.1-0.3,6.7
		c0,2.2,0,4,0,5.6c0,1.6,0.1,2.9,0.1,4c0.1,1.1,0.1,2.1,0.2,2.8c0.1,0.8,0.1,1.4,0.2,1.9c0.1,0.2,0.2,0.3,0.2,0.5
		c0,0.2-0.1,0.4-0.3,0.6c-0.2,0.2-0.5,0.4-0.8,0.5c-0.3,0.1-0.7,0.3-1.1,0.4c-0.4,0.1-0.8,0.1-1.1,0.1c-0.6,0-1-0.1-1.3-0.4
		c-0.3-0.2-0.5-0.6-0.7-1.2c-0.1-0.5-0.2-1.3-0.3-2.2c0-0.9-0.1-2-0.1-3.4c-0.5,1-1.1,2-1.8,2.9c-0.7,0.9-1.5,1.7-2.4,2.4
		s-1.9,1.2-2.9,1.6s-2.2,0.6-3.3,0.6c-1.8,0-3.4-0.3-4.9-1c-1.5-0.7-2.8-1.8-3.8-3.3c-1.1-1.5-1.9-3.5-2.5-6s-0.9-5.4-0.9-9
		c0-2.4,0.2-4.8,0.7-7.3c0.5-2.4,1.1-4.8,2-7C6.7,19,7.8,16.9,9,15s2.7-3.6,4.2-5c1.6-1.4,3.3-2.5,5.1-3.3c1.9-0.8,3.8-1.2,5.9-1.2
		c1.3,0,2.6,0.2,3.6,0.6c1.1,0.4,2,1,2.7,1.8c0.7,0.8,1.3,1.6,1.7,2.7c0.4,1,0.6,2.1,0.6,3.3c0,1.9-0.5,3.7-1.4,5.3
		c-0.9,1.6-2.1,3-3.6,4.1s-3.2,2.1-5.1,2.7C20.8,26.5,18.8,26.8,16.8,26.8z"/>
	<path class="st1" d="M35.9,30.2c0-0.6,0-1.1-0.1-1.3c-0.1-0.3-0.1-0.5-0.1-0.8c0-0.3,0.2-0.6,0.5-0.8c0.3-0.2,0.7-0.3,1.2-0.3
		c1.1,0,2,0.3,2.6,0.9s0.9,1.2,0.9,2v3c0.4-0.9,0.9-1.8,1.5-2.6c0.5-0.8,1.1-1.5,1.7-2.1s1.3-1,2-1.4c0.7-0.3,1.5-0.5,2.3-0.5
		c1.1,0,2,0.2,2.7,0.6c0.7,0.4,1.3,0.9,1.7,1.6c0.4,0.6,0.7,1.4,0.9,2.2c0.2,0.8,0.2,1.6,0.2,2.3v13.6c0,0.2,0,0.4,0,0.7
		c0,0.3,0.1,0.7,0.2,1c0.1,0.3,0.3,0.6,0.5,0.9c0.2,0.3,0.6,0.4,1,0.4c0.7,0,1.2-0.2,1.7-0.7c0.5-0.5,0.9-1.1,1.3-1.8
		c0.4-0.7,0.6-1.5,0.9-2.3c0.2-0.8,0.4-1.6,0.6-2.3c0.1-0.7,0.3-1.2,0.6-1.5c0.3-0.3,0.6-0.5,0.9-0.5c0.3,0,0.5,0.1,0.8,0.2
		c0.3,0.2,0.5,0.4,0.8,0.6c0.2,0.3,0.4,0.5,0.5,0.9s0.2,0.6,0.2,1c0,0,0,0.1,0,0.2s0,0.2-0.1,0.3c-0.3,1.1-0.7,2.2-1.1,3.4
		c-0.5,1.2-1.1,2.3-1.9,3.3c-0.8,1-1.7,1.8-2.7,2.5s-2.3,1-3.7,1c-0.9,0-1.7-0.2-2.3-0.5s-1.3-0.8-1.7-1.3c-0.5-0.6-0.8-1.2-1.1-2
		c-0.2-0.7-0.4-1.5-0.4-2.4V34.4c0-0.5,0-1,0-1.4c0-0.4-0.1-0.8-0.2-1.2c-0.1-0.3-0.2-0.6-0.4-0.8c-0.2-0.2-0.4-0.3-0.8-0.3
		c-0.5,0-1,0.3-1.7,1s-1.4,1.5-2,2.5c-0.7,1-1.2,2.2-1.8,3.5s-0.8,2.6-0.9,3.9v9.6c0,0.3,0,0.6,0,1c0,0.3-0.1,0.6-0.2,0.9
		c-0.1,0.3-0.3,0.5-0.5,0.7c-0.2,0.2-0.6,0.3-1.1,0.3c-0.3,0-0.7,0-1-0.1c-0.4-0.1-0.7-0.2-1-0.4s-0.6-0.5-0.8-0.9
		c-0.2-0.4-0.3-0.9-0.3-1.5V30.2z"/>
	<path class="st1" d="M63.2,20.5c-0.5,0-1-0.1-1.5-0.3c-0.5-0.2-0.9-0.5-1.3-0.9C60,19,59.7,18.5,59.5,18c-0.2-0.5-0.3-1-0.3-1.6
		c0-0.6,0.1-1.1,0.3-1.6c0.2-0.5,0.5-0.9,0.9-1.3c0.4-0.4,0.8-0.6,1.3-0.8c0.5-0.2,1-0.3,1.5-0.3c0.6,0,1.1,0.1,1.6,0.3
		c0.5,0.2,0.9,0.5,1.3,0.8s0.6,0.8,0.8,1.3c0.2,0.5,0.3,1,0.3,1.6c0,0.6-0.1,1.1-0.3,1.6c-0.2,0.5-0.5,0.9-0.8,1.3s-0.8,0.7-1.3,0.9
		C64.3,20.4,63.7,20.5,63.2,20.5z M64.7,46.6c0,0.2,0,0.4,0,0.7c0,0.3,0.1,0.7,0.2,1s0.3,0.6,0.5,0.9c0.2,0.3,0.6,0.4,1,0.4
		c0.6,0,1.2-0.2,1.7-0.7s0.9-1.1,1.3-1.8c0.4-0.7,0.6-1.5,0.9-2.3s0.4-1.6,0.6-2.3c0.1-0.7,0.3-1.1,0.6-1.4s0.6-0.5,0.9-0.5
		s0.6,0,0.9,0.2c0.3,0.2,0.6,0.4,0.8,0.8c0.2,0.3,0.4,0.7,0.5,1c0.1,0.4,0.1,0.7,0,1.1c-0.3,1.1-0.7,2.2-1.2,3.4
		c-0.5,1.2-1.1,2.3-1.8,3.3c-0.8,1-1.6,1.8-2.7,2.5c-1,0.7-2.3,1-3.7,1c-0.9,0-1.7-0.2-2.3-0.5c-0.7-0.3-1.3-0.8-1.7-1.3
		c-0.5-0.6-0.8-1.2-1.1-2c-0.2-0.7-0.4-1.5-0.4-2.4V30.2c0-0.6,0-1.1-0.1-1.3c-0.1-0.3-0.1-0.5-0.1-0.8c0-0.3,0.2-0.6,0.5-0.8
		c0.3-0.2,0.7-0.3,1.2-0.3c1.1,0,2,0.3,2.6,0.9s0.9,1.2,0.9,2V46.6z"/>
	<path class="st1" d="M89.7,49.6c0.7,0,1.2-0.2,1.7-0.7c0.5-0.5,0.9-1.1,1.3-1.8c0.4-0.7,0.6-1.5,0.9-2.3c0.2-0.8,0.4-1.6,0.6-2.3
		c0.1-0.7,0.4-1.2,0.7-1.5c0.3-0.3,0.6-0.5,0.9-0.5c0.3,0,0.5,0.1,0.8,0.2c0.3,0.2,0.5,0.4,0.7,0.6c0.2,0.3,0.4,0.5,0.5,0.9
		c0.1,0.3,0.2,0.6,0.2,1c0,0,0,0.1,0,0.2s0,0.2-0.1,0.3c-0.3,1.1-0.7,2.2-1.1,3.4c-0.5,1.2-1.1,2.3-1.8,3.3s-1.7,1.8-2.7,2.5
		c-1.1,0.7-2.3,1-3.7,1c-1.2,0-2.2-0.2-3-0.7c-0.9-0.5-1.5-1.1-2-2C82.8,52,82,52.7,81,53.2c-0.9,0.5-2,0.8-3.3,0.8
		c-1.3,0-2.4-0.3-3.4-0.8c-1-0.5-1.8-1.2-2.5-2.1s-1.2-1.9-1.5-3.1c-0.3-1.2-0.5-2.5-0.5-3.9c0-2.7,0.4-5.2,1.3-7.4
		c0.9-2.2,2-4,3.5-5.6c1.5-1.5,3.1-2.7,5-3.5c1.9-0.8,3.8-1.2,5.8-1.2c0.9,0,1.6,0.2,2.2,0.7c0.6,0.5,0.8,1.2,0.8,2
		c0,0.6-0.1,0.9-0.2,1.2s-0.3,0.3-0.7,0.3c-0.3,0-0.6,0-0.9-0.1s-0.7-0.1-1-0.1c-1.2,0-2.5,0.3-3.8,0.8c-1.3,0.5-2.4,1.4-3.5,2.5
		c-1,1.1-1.9,2.5-2.6,4.3c-0.7,1.7-1,3.8-1,6.2c0,1.7,0.3,3.1,1,4c0.7,0.9,1.6,1.4,2.7,1.4c0.9,0,1.6-0.3,2.2-1s1.1-1.5,1.4-2.4
		V36.1c0-0.3,0-0.6,0-0.8s-0.1-0.4-0.1-0.5s-0.1-0.3-0.1-0.4c0-0.1,0-0.2,0-0.3c0-0.3,0.2-0.6,0.5-0.8c0.3-0.2,0.7-0.3,1.2-0.3
		c1.1,0,2,0.3,2.6,0.9s1,1.2,1,2v10.9c0,0.4,0,0.7,0.1,1.1c0.1,0.4,0.2,0.7,0.4,1c0.2,0.3,0.4,0.5,0.7,0.7
		C88.9,49.5,89.3,49.6,89.7,49.6z"/>
</g>
<g>
	<path class="st2" d="M8.1,64.1h2.7v12.2H8.1V64.1z"/>
	<path class="st2" d="M20.8,76.6c-0.7,0-1.4-0.1-2-0.4c-0.6-0.2-1.1-0.6-1.5-1s-0.7-0.9-0.9-1.4c-0.2-0.5-0.3-1.1-0.3-1.7
		c0-0.6,0.1-1.2,0.3-1.7c0.2-0.5,0.5-1,0.9-1.4c0.4-0.4,0.9-0.7,1.5-1s1.2-0.4,2-0.4c0.7,0,1.4,0.1,2,0.4s1.1,0.6,1.5,1
		c0.4,0.4,0.7,0.9,0.9,1.4c0.2,0.5,0.3,1.1,0.3,1.7c0,0.6-0.1,1.2-0.3,1.7c-0.2,0.5-0.5,1-0.9,1.4c-0.4,0.4-0.9,0.7-1.5,1
		C22.2,76.4,21.6,76.6,20.8,76.6z M20.8,74.3c0.3,0,0.6-0.1,0.8-0.2c0.3-0.1,0.5-0.3,0.6-0.5c0.2-0.2,0.3-0.4,0.4-0.7
		c0.1-0.3,0.1-0.5,0.1-0.8c0-0.3,0-0.6-0.1-0.8c-0.1-0.3-0.2-0.5-0.4-0.7c-0.2-0.2-0.4-0.3-0.6-0.5C21.4,70,21.1,70,20.8,70
		S20.2,70,20,70.1c-0.2,0.1-0.5,0.3-0.6,0.5S19.1,71,19,71.3c-0.1,0.3-0.1,0.5-0.1,0.8c0,0.3,0,0.6,0.1,0.8c0.1,0.3,0.2,0.5,0.4,0.7
		c0.2,0.2,0.4,0.4,0.6,0.5C20.2,74.2,20.5,74.3,20.8,74.3z"/>
	<path class="st2" d="M32,67.9l2,5.3l2.1-5.3h2.8l-3.8,8.4h-2.1l-3.8-8.4H32z"/>
	<path class="st2" d="M45.3,72.8c0,0.3,0,0.5,0.1,0.7c0.1,0.2,0.2,0.4,0.3,0.6c0.1,0.2,0.3,0.3,0.6,0.4c0.2,0.1,0.5,0.1,0.9,0.1
		c0.5,0,0.8-0.1,1.1-0.3c0.2-0.2,0.4-0.4,0.5-0.7h2.6c-0.1,0.4-0.2,0.8-0.4,1.1s-0.5,0.7-0.9,0.9c-0.4,0.3-0.8,0.5-1.3,0.6
		s-1,0.2-1.6,0.2c-0.7,0-1.4-0.1-2-0.3c-0.6-0.2-1-0.5-1.4-0.9s-0.7-0.9-0.9-1.4c-0.2-0.5-0.3-1.1-0.3-1.8c0-0.6,0.1-1.2,0.3-1.7
		c0.2-0.5,0.5-1,0.9-1.4c0.4-0.4,0.8-0.7,1.4-1c0.6-0.2,1.2-0.3,1.9-0.3c0.7,0,1.3,0.1,1.8,0.3c0.5,0.2,1,0.5,1.4,0.8
		c0.4,0.4,0.7,0.8,0.9,1.2s0.3,1,0.3,1.5c0,0.2,0,0.4,0,0.6c0,0.2,0,0.4-0.1,0.7H45.3z M47.1,69.5c-0.5,0-1,0.2-1.3,0.5
		c-0.3,0.3-0.5,0.7-0.5,1.3h3.5c0-0.5-0.2-1-0.5-1.3C48,69.6,47.6,69.5,47.1,69.5z"/>
	<path class="st2" d="M61.3,71.4c0.4,0.1,0.7,0.2,1,0.3c0.3,0.1,0.6,0.3,0.9,0.5s0.4,0.4,0.6,0.7s0.2,0.6,0.2,1
		c0,0.5-0.1,0.9-0.3,1.3c-0.2,0.3-0.5,0.6-0.8,0.8c-0.3,0.2-0.8,0.4-1.2,0.5c-0.5,0.1-1,0.1-1.5,0.1c-1.2,0-2.2-0.3-2.8-0.8
		c-0.7-0.5-1-1.3-1-2.3H59c0,0.4,0.1,0.8,0.4,1c0.2,0.2,0.6,0.3,1,0.3c0.3,0,0.6-0.1,0.8-0.2c0.2-0.1,0.3-0.3,0.3-0.6
		c0-0.2,0-0.3-0.1-0.4c-0.1-0.1-0.2-0.2-0.4-0.3c-0.2-0.1-0.4-0.2-0.7-0.3c-0.3-0.1-0.6-0.2-1-0.3c-0.3-0.1-0.7-0.2-1-0.3
		c-0.3-0.1-0.6-0.3-0.8-0.4s-0.4-0.4-0.6-0.7c-0.1-0.3-0.2-0.6-0.2-1c0-0.9,0.3-1.5,1-1.9s1.6-0.6,2.7-0.6c0.6,0,1.1,0.1,1.6,0.2
		c0.5,0.1,0.8,0.3,1.1,0.6c0.3,0.3,0.5,0.6,0.7,0.9c0.2,0.3,0.2,0.7,0.2,1.1h-2.6c0-0.4-0.1-0.6-0.3-0.8s-0.5-0.3-0.8-0.3
		c-0.3,0-0.5,0.1-0.7,0.2c-0.2,0.1-0.3,0.3-0.3,0.6c0,0.2,0,0.3,0.1,0.4c0.1,0.1,0.2,0.2,0.4,0.3c0.2,0.1,0.4,0.2,0.7,0.2
		C60.7,71.2,61,71.3,61.3,71.4z"/>
	<path class="st1" d="M76.3,68.2h2.1l2.2,5.4l2.3-5.4h2.1l-3.7,8.2H80L76.3,68.2z"/>
	<path class="st1" d="M88.9,72.3c0-0.6,0.1-1.1,0.3-1.6c0.2-0.5,0.5-1,0.9-1.4s0.8-0.7,1.3-0.9S92.4,68,93,68c0.5,0,1,0.1,1.4,0.3
		c0.5,0.2,0.8,0.6,1.1,1v-1.1h1.9v8.2h-1.9v-1.1c-0.3,0.4-0.6,0.7-1.1,1c-0.5,0.2-0.9,0.4-1.4,0.4c-0.6,0-1.2-0.1-1.7-0.3
		s-0.9-0.5-1.3-0.9c-0.4-0.4-0.7-0.9-0.9-1.4S88.9,72.8,88.9,72.3z M90.8,72.3c0,0.3,0.1,0.7,0.2,1c0.1,0.3,0.3,0.6,0.5,0.8
		c0.2,0.2,0.5,0.4,0.8,0.6s0.6,0.2,1,0.2s0.7-0.1,1-0.2c0.3-0.1,0.6-0.3,0.8-0.6s0.4-0.5,0.5-0.8c0.1-0.3,0.2-0.6,0.2-1
		c0-0.3-0.1-0.7-0.2-1s-0.3-0.6-0.5-0.8c-0.2-0.2-0.5-0.4-0.8-0.6c-0.3-0.1-0.6-0.2-1-0.2s-0.7,0.1-1,0.2c-0.3,0.1-0.5,0.3-0.8,0.6
		c-0.2,0.2-0.4,0.5-0.5,0.8C90.8,71.6,90.8,71.9,90.8,72.3z"/>
	<path class="st1" d="M103.1,72.3c0-0.5,0.1-1.1,0.3-1.6c0.2-0.5,0.4-1,0.8-1.4c0.3-0.4,0.8-0.7,1.3-1s1.1-0.4,1.8-0.4
		c0.7,0,1.2,0.1,1.7,0.3c0.5,0.2,0.9,0.4,1.2,0.7c0.3,0.3,0.5,0.6,0.7,1s0.3,0.8,0.3,1.2h-1.9c-0.1-0.4-0.2-0.8-0.5-1.1
		c-0.3-0.3-0.8-0.4-1.4-0.4c-0.4,0-0.7,0.1-1,0.2c-0.3,0.1-0.5,0.3-0.7,0.6c-0.2,0.2-0.3,0.5-0.4,0.8c-0.1,0.3-0.1,0.6-0.1,1
		c0,0.3,0,0.7,0.1,1c0.1,0.3,0.2,0.6,0.4,0.8c0.2,0.2,0.4,0.4,0.7,0.6c0.3,0.1,0.6,0.2,1,0.2c0.6,0,1-0.1,1.2-0.4
		c0.3-0.2,0.5-0.6,0.6-1h1.9c-0.1,0.4-0.2,0.8-0.4,1.2s-0.4,0.7-0.8,1s-0.7,0.5-1.2,0.6c-0.4,0.2-1,0.2-1.6,0.2
		c-0.7,0-1.3-0.1-1.8-0.4c-0.5-0.2-0.9-0.6-1.3-1c-0.3-0.4-0.6-0.9-0.8-1.4S103.1,72.8,103.1,72.3z"/>
	<path class="st1" d="M116.1,72.3c0-0.6,0.1-1.1,0.3-1.6c0.2-0.5,0.5-1,0.9-1.4s0.8-0.7,1.3-0.9s1.1-0.3,1.7-0.3
		c0.5,0,1,0.1,1.4,0.3c0.5,0.2,0.8,0.6,1.1,1v-1.1h1.9v8.2h-1.9v-1.1c-0.3,0.4-0.6,0.7-1.1,1c-0.5,0.2-0.9,0.4-1.4,0.4
		c-0.6,0-1.2-0.1-1.7-0.3s-0.9-0.5-1.3-0.9c-0.4-0.4-0.7-0.9-0.9-1.4S116.1,72.8,116.1,72.3z M118,72.3c0,0.3,0.1,0.7,0.2,1
		c0.1,0.3,0.3,0.6,0.5,0.8c0.2,0.2,0.5,0.4,0.8,0.6s0.6,0.2,1,0.2s0.7-0.1,1-0.2c0.3-0.1,0.6-0.3,0.8-0.6s0.4-0.5,0.5-0.8
		c0.1-0.3,0.2-0.6,0.2-1c0-0.3-0.1-0.7-0.2-1s-0.3-0.6-0.5-0.8c-0.2-0.2-0.5-0.4-0.8-0.6c-0.3-0.1-0.6-0.2-1-0.2s-0.7,0.1-1,0.2
		c-0.3,0.1-0.5,0.3-0.8,0.6c-0.2,0.2-0.4,0.5-0.5,0.8C118,71.6,118,71.9,118,72.3z"/>
	<path class="st1" d="M130,69.8v-1.6h1.4v-2.5h1.9v2.5h1.9v1.6h-1.9v3.4c0,0.3,0,0.6,0.1,0.8c0.1,0.2,0.1,0.4,0.2,0.5
		s0.2,0.2,0.4,0.2s0.3,0.1,0.5,0.1c0.2,0,0.3,0,0.5,0s0.3,0,0.4-0.1v1.7c-0.2,0-0.4,0-0.6,0.1c-0.3,0-0.5,0-0.8,0
		c-0.2,0-0.5,0-0.8-0.1c-0.3,0-0.6-0.2-0.9-0.3c-0.3-0.2-0.5-0.5-0.7-0.9c-0.2-0.4-0.3-0.9-0.3-1.6v-3.8H130z"/>
	<path class="st1" d="M140.7,65.2c0-0.4,0.1-0.7,0.4-1s0.6-0.4,1-0.4c0.4,0,0.7,0.1,1,0.4s0.4,0.6,0.4,1c0,0.4-0.1,0.7-0.4,1
		s-0.6,0.4-1,0.4c-0.4,0-0.7-0.1-1-0.4S140.7,65.6,140.7,65.2z M141.1,76.3v-8.2h1.9v8.2H141.1z"/>
	<path class="st1" d="M149,72.3c0-0.6,0.1-1.1,0.3-1.6c0.2-0.5,0.5-1,0.9-1.4c0.4-0.4,0.8-0.7,1.3-0.9c0.5-0.2,1.1-0.3,1.8-0.3
		s1.2,0.1,1.8,0.3s1,0.5,1.4,0.9c0.4,0.4,0.7,0.9,0.9,1.4c0.2,0.5,0.3,1.1,0.3,1.6c0,0.6-0.1,1.1-0.3,1.6s-0.5,1-0.9,1.4
		c-0.4,0.4-0.8,0.7-1.4,0.9s-1.1,0.3-1.8,0.3s-1.2-0.1-1.8-0.3c-0.5-0.2-1-0.5-1.3-0.9c-0.4-0.4-0.7-0.9-0.9-1.4S149,72.8,149,72.3z
		 M150.9,72.3c0,0.3,0.1,0.7,0.2,1c0.1,0.3,0.3,0.6,0.5,0.8c0.2,0.2,0.5,0.4,0.8,0.6s0.6,0.2,1,0.2s0.7-0.1,1-0.2
		c0.3-0.1,0.6-0.3,0.8-0.6s0.4-0.5,0.5-0.8c0.1-0.3,0.2-0.6,0.2-1c0-0.3-0.1-0.7-0.2-1s-0.3-0.6-0.5-0.8c-0.2-0.2-0.5-0.4-0.8-0.6
		c-0.3-0.1-0.6-0.2-1-0.2s-0.7,0.1-1,0.2c-0.3,0.1-0.5,0.3-0.8,0.6c-0.2,0.2-0.4,0.5-0.5,0.8C151,71.6,150.9,71.9,150.9,72.3z"/>
	<path class="st1" d="M163.2,76.3v-8.2h1.9v1.1c0.3-0.4,0.6-0.8,1.1-1c0.5-0.2,1-0.3,1.6-0.3c0.6,0,1.1,0.1,1.5,0.3s0.7,0.5,1,0.8
		c0.2,0.3,0.3,0.6,0.4,1c0.1,0.4,0.1,0.8,0.1,1.4v4.8h-1.9v-4.2c0-0.3,0-0.7-0.1-1s-0.2-0.6-0.3-0.8c-0.1-0.2-0.3-0.4-0.5-0.5
		c-0.2-0.1-0.5-0.2-0.8-0.2c-0.7,0-1.2,0.2-1.5,0.7c-0.3,0.5-0.5,1.1-0.5,1.8v4.2H163.2z"/>
</g>
</svg>
