<svg id="Layer_1" xmlns="http://www.w3.org/2000/svg" viewBox="0 0 684 168"><style>.st0{fill:#1d70b7}.st1{fill:#e20613}.st2{fill:#3c3c3b}.st3{fill:#1d1d1b}.st4{fill:#fff}</style><path class="st0" d="M163 70.4c.2.2.4.4.7.6l-.6-1.5c0-.3 0-.7-.1-1-.3-1.4-.7-2.3-1.2-2.9-.4-2-.5-3.9-.4-5.8l-1.3 1.1c-.6-1.5-1.3-2.4-1-1.3.4 1.4-.8 2.8-1.4 3.4l-.3.3-.1.1c-.4.4-2 1.8-1.7 3.4.3 1.6-1.7.1-2.1-.2l-.6.5c2.1 4 2.8 8 2.5 11.8l.8.5.8-.7c.3-1.3 1.4-2.4 2.2-3 0-.2 3.4-2 3.8-5.3z"/><path class="st1" d="M114.6 15.5s0-2.6-3.9-3.8c-1.7-.5-.4-1.3 1.7-2.1-4.9 0-9.1-1.2-12.7-3.3l.5 2c-1.8-.2-3.1.1-1.9.3 1.7.3 2.5 2.2 2.8 3.2l.1.5v.2c.2.6.9 3 2.6 3.4 1.9.5-.8 1.8-1.3 2l.2.9c5.2-.1 9.7 1.1 13.4 3.4l.9-.5-.3-1.2c-1.7-1.4-2.1-5-2.1-5z"/><path class="st0" d="M137.6 29.9s1-2.3-2.2-4.8c-1.3-1.1.1-1.3 2.2-1.3-4.4-1.7-7.8-4.3-10.2-7.4l-.3 1.9c-1.6-.8-2.9-1-1.8-.4 1.4.9 1.4 2.9 1.3 3.8l-.1.5v.2c-.1.6-.3 3 1.1 4 1.5 1.1-1.4 1.4-1.9 1.4l-.1.9c4.7 1.7 8.3 4.5 10.8 7.8l1-.1.2-1.2c-.9-2 0-5.3 0-5.3z"/><path class="st1" d="M153 50.6s1.6-1.8-.3-5c-.8-1.4.6-1.1 2.4-.4-3.3-3-5.5-6.4-6.6-10.1l-.9 1.6c-1.1-1.2-2.2-1.8-1.5-.9 1 1.2.3 3-.1 3.9l-.2.4-.1.1c-.3.5-1.2 2.6-.3 4 1 1.5-1.7.7-2.1.6l-.4.7c3.6 3.1 5.9 6.8 7 10.6l1 .2.6-1c-.4-2.1 1.5-4.7 1.5-4.7z"/><path class="st2" d="M114.2 56c-3.6-3.6-7.7-6.3-12.2-8.1l-1.1 6.9c3.1 1.5 6 3.4 8.5 6 2.5 2.5 4.5 5.4 6 8.4l6.9-1.1c-1.8-4.4-4.5-8.5-8.1-12.1zm-9.5 9.5c-1.5-1.5-3.1-2.7-4.8-3.6l-1.1 7.3c.4.3.8.7 1.2 1.1.4.4.7.8 1 1.2l7.3-1.1c-1-1.9-2.1-3.5-3.6-4.9zm-1.6-24.6c5.7 2.2 11.2 5.6 15.9 10.3 4.7 4.7 8.1 10.1 10.3 15.8l6.7-1c-2.5-7.1-6.5-13.8-12.3-19.5-5.7-5.7-12.5-9.8-19.6-12.3l-1 6.7z"/><path class="st3" d="M61.6 92.6l-1.1-5.4c-5.6 1.8-8.8 2.9-9.7 1.2-1.3-2.3 1.1-3-2.5-8.7-3.5-5.5-11.8-6.3-17.2-2.8-5.6 3.2-9.1 10.7-5.8 16.7 2.9 6.2 11 8.9 17.2 5.9 5.5-2.1 11.3-5.6 19.1-6.9zm-33-2.3c-1.7-5.5 3.8-11 9.1-11.1 7.8-.1 12.3 9.1 7.1 14.4-4.5 5-14.7 3.7-16.2-3.3zM88 92.6l42.8-7.7c5.9-1.5 12.2-5.1 14-12.7l-55 8.9L88 92.6zm-11-9.4l-.3.1c-6.4 1.1-11.5 2.6-15.5 3.8l1 5.5c2.9-.4 6-.5 9.5-.1l5.1.6.2-9.9zm12.1-2.3l8.7-56C90.2 26.7 86.6 33 85.2 39l-7.6 43.8-.2 10.5.6 4.9c.4 3.7.4 7-.1 10l5.4.9c1.2-4 2.8-9.3 3.9-15.9l1.9-12.3zM81 89c-.8-.7-.8-2 0-2.7.7-.8 1.9-.8 2.7 0 .7.7.8 1.9 0 2.7-.7.7-1.9.7-2.7 0zm12.7 49.6c3.5-5.4 2.6-13.7-2.9-17.2-5.7-3.6-6.4-1.2-8.7-2.4-1.6-.9-.7-3.9 1-9.3l-5.3-1c-1.2 7.6-4.7 13.3-6.7 18.7-2.9 6.2-.2 14.3 6 17.2 6 3.2 13.5-.3 16.6-6zm-13.2 2.7c-7-1.5-8.4-11.7-3.4-16.2 5.2-5.2 14.4-.8 14.4 7 0 5.3-5.5 10.9-11 9.2z"/><path transform="rotate(-77.884 82.375 87.612)" class="st3" d="M82.1 86.2h.6V89h-.6z"/><path class="st3" d="M86.8 164.4c-21.4 0-41.5-8.3-56.6-23.4-15.1-15.1-23.5-35.3-23.5-56.7 0-21.4 8.3-41.6 23.4-56.7C45.2 12.4 65.4 4 86.8 4c21.4 0 41.5 8.3 56.6 23.4 31.3 31.2 31.4 82.1.2 113.4-15.1 15.2-35.3 23.6-56.8 23.6zm0-156.3c-20.4 0-39.5 8-53.9 22.4C18.6 44.9 10.7 64 10.7 84.3c0 20.3 8 39.4 22.4 53.8 14.4 14.3 33.5 22.2 53.7 22.2 20.4 0 39.5-8 53.9-22.4 29.6-29.7 29.6-78-.2-107.7-14.3-14.3-33.4-22.1-53.7-22.1zm0 147c-18.9 0-36.7-7.4-50.1-20.7-13.4-13.4-20.8-31.2-20.9-50.1 0-19 7.3-36.8 20.7-50.2C50 20.6 67.8 13.2 86.8 13.2c18.9 0 36.7 7.4 50.1 20.7 27.7 27.6 27.8 72.6.2 100.4-13.4 13.4-31.3 20.8-50.3 20.8zm0-137.8c-17.9 0-34.7 7-47.4 19.7-12.6 12.6-19.5 29.4-19.5 47.3s7 34.7 19.7 47.3c12.6 12.6 29.4 19.5 47.2 19.5 17.9 0 34.7-7 47.4-19.7 26-26.1 26-68.6-.2-94.6-12.6-12.6-29.3-19.5-47.2-19.5z"/><path class="st4" d="M652.6 54c-4 0-7.9 1-11.6 2.8-2.5-1.4-5.5-2.1-9-2.1h-13.5l-.6 2.8c-3.7-2.4-8-3.4-12-3.4s-7.9 1-11.6 2.8c-2.5-1.4-5.5-2.1-9-2.1h-13.5l-.8 3.5c-4.4-2.8-10.2-4.2-17.3-4.2-7.4 0-13.4 1.1-19.4 3.5l-1.4.6c-3.3-2.7-7.6-4.1-12.3-4.1-1 0-1.9 0-2.8.1.1-3.1-.5-6.3-2.7-9.1-3.8-4.8-9.6-4.8-11.5-4.8h-16.4l-3.7 16c-4-1.4-8.5-2.1-13.5-2.1-4 0-7.7.6-11 1.6l-4-.9c-1.2-.3-2.8-.6-4.5-.6-3.7 0-7.3.9-10.6 2.7-2.6-1.6-5.7-2.4-9.4-2.4H417l-.9 3.8c-4.4-2.9-9.8-4.5-16.1-4.5-8.2 0-15.5 2.7-21.2 7.3-4.3-5.1-10.5-7.4-16.6-7.3.1-3.1-.5-6.2-2.8-9-3.8-4.8-9.6-4.8-11.5-4.8h-16.4l-3.3 14.2c-2.9.3-5.8 1.1-8.4 2.6-2.6-1.6-5.7-2.4-9.4-2.4H297l-.8 3.6c-4.4-2.8-10.2-4.2-17.3-4.2-7.4 0-13.4 1.1-19.4 3.5l-3 1.2c-4-3.3-9.1-4.9-14-4.8.1-3.1-.5-6.2-2.8-9-3.8-4.8-9.6-4.8-11.5-4.8h-16.4l-17.7 77.3h17.8c2.4 0 5.4-.4 8.5-2 3.5 1.8 7.5 2.7 12 2.7 6.9 0 13-2.1 18-5.8 3.8 3.6 9 5.7 15.3 5.7 3.7 0 7.3-.8 10.6-2.3 1.9 1 4.1 1.5 6.5 1.7v.1h49.1c2.4 0 5.4-.4 8.5-2 3.5 1.8 7.5 2.7 12 2.7 8.2 0 15.3-3 20.8-8.2l.1.1c5.3 5.4 12.9 8.1 22.6 8.1 2.9 0 5.6-.2 8.2-.7h33.1l1.5-6.5 1.8 1.3c5.5 3.7 13.3 5.8 21.9 5.8 2.6 0 5-.2 7.3-.7v.1H504l.6-2.5c1.8 1.4 4.5 2.5 8.2 2.5h17.9l.3-1.4c2.8 1.3 6.1 2 9.7 2 3.7 0 7.3-.8 10.6-2.3 1.9 1 4.1 1.5 6.5 1.7l-3.1 13.6h34.4l3.3-14.2c1.3.2 2.6.2 4 .2 3 0 5.9-.4 8.6-1.2l-3.5 15.1h34.4l3.3-14.2c1.3.2 2.6.2 4 .2 19 0 32.2-15.4 32.2-37.5-.5-18.7-12.5-25.4-22.8-25.4z"/><path class="st3" d="M637.2 133.1h-38.7l3.3-14.5c-2.7.5-5.5.6-8.1.4l-3.2 14h-38.7l3.2-13.9c-1.4-.3-2.7-.6-4-1.2-3.3 1.4-6.9 2.1-10.5 2.1-2.9 0-5.6-.4-8.2-1.3l-.2.7h-19.6c-2.5 0-4.8-.5-6.8-1.4l-.3 1.4h-36.3c-2.3.4-4.7.6-7 .6-8.7 0-16.6-2-22.4-5.7l-1.2 5.1H404c-2.7.4-5.5.7-8.4.7-9.5 0-17.1-2.5-22.7-7.4-5.8 4.9-12.9 7.4-20.8 7.4-4.4 0-8.4-.8-12-2.5-2.7 1.2-5.5 1.8-8.5 1.8H280l.1-.4c-1.4-.3-2.7-.6-4-1.2-3.3 1.4-6.9 2.1-10.5 2.1-5.9 0-11.3-1.8-15.4-5.2-5.2 3.4-11.3 5.3-17.8 5.3-4.4 0-8.4-.8-12-2.5-2.7 1.2-5.5 1.8-8.5 1.8h-20.4l18.6-81.4h18.1c2.2 0 8.7 0 13.1 5.5 1.9 2.3 2.9 5.1 3.2 8.3 4.5.3 8.8 1.8 12.3 4.4l1.9-.8c6.3-2.6 12.5-3.7 20.2-3.7 6.2 0 11.5 1.1 15.9 3.2l.6-2.5h15.1c3.6 0 6.7.7 9.4 2.1 2.1-1 4.4-1.7 6.7-2.1l3.3-14.5H348c2.2 0 8.7 0 13.1 5.5 1.9 2.3 2.9 5.1 3.2 8.3 5.6.4 10.9 2.7 14.8 6.5 6-4.3 13.2-6.6 21-6.6 5.5 0 10.5 1.1 14.7 3.3l.6-2.6h15.1c3.6 0 6.7.7 9.4 2.1 3.3-1.6 6.9-2.4 10.5-2.4 2 0 3.6.3 5 .6l3.5.8c3.5-1 7.2-1.5 11.1-1.5 4.4 0 8.3.5 12 1.5l3.5-15.5h18.1c2.2 0 8.7 0 13.2 5.6 1.8 2.3 2.9 5 3.1 8.2h.8c4.7 0 9.1 1.3 12.6 3.8l.3-.1c6.3-2.6 12.5-3.7 20.2-3.7 6.2 0 11.5 1.1 15.9 3.2l.6-2.5h15.2c3.4 0 6.4.6 9 1.9 3.7-1.7 7.6-2.6 11.5-2.6 3.7 0 7.4.8 10.6 2.3l.4-1.7h15.2c3.4 0 6.4.6 9 1.9 3.7-1.7 7.6-2.6 11.5-2.6 11.2 0 24.4 7.2 24.4 27.6 0 23.3-14.1 39.6-34.3 39.6-.8 0-1.6 0-2.3-.1l-3.3 14.5zm-33.5-4.1h30.1l3.3-14.4 1.9.2c1.2.1 2.4.2 3.7.2 17.7 0 30.1-14.6 30.1-35.5 0-11.3-5.3-23.4-20.2-23.4-3.6 0-7.2.9-10.6 2.6l-1 .5-1-.5c-2.2-1.2-4.9-1.9-8-1.9h-11.8l-.9 4-2.5-1.6c-4-2.6-8.1-3.1-10.9-3.1-3.6 0-7.2.9-10.6 2.6l-1 .5-1-.5c-2.2-1.2-4.9-1.9-8-1.9h-11.8l-1.1 4.8L570 60c-4.1-2.6-9.6-3.9-16.2-3.9-7.2 0-12.9 1-18.6 3.4l-2.6 1.1-1-.8c-3-2.4-6.8-3.7-11-3.7-.9 0-1.8 0-2.6.1l-2.4.2.1-2.4c.1-3.1-.6-5.6-2.3-7.7-3.2-4-8.1-4-9.9-4h-14.8L485 59l-2.2-.8c-3.8-1.3-8-2-12.8-2-3.7 0-7.2.5-10.4 1.5l-.6.3-4.6-1c-1.1-.3-2.5-.5-4.1-.5-3.4 0-6.6.8-9.6 2.5l-1.1.6-1-.6c-2.2-1.4-5-2.1-8.3-2.1h-11.8l-1.2 5.1-2.5-1.7c-4.1-2.7-9.1-4.1-15-4.1-7.5 0-14.3 2.4-19.9 6.8l-1.6 1.3-1.3-1.5c-3.6-4.2-8.9-6.5-14.5-6.5h-2.6l.1-2.2c.1-3.1-.7-5.6-2.3-7.7-3.2-4-8-4-9.9-4H333l-3 14-1.5.1c-2.7.3-5.3 1-7.6 2.3l-1.1.6-1-.6c-2.2-1.4-5-2.1-8.3-2.1h-11.8l-1.1 4.8-2.5-1.6c-4.1-2.6-9.6-3.9-16.2-3.9-7.2 0-12.9 1-18.6 3.4l-4.2 1.7-1-.8c-3.4-2.8-7.7-4.3-12.3-4.3h-2.6l.1-2.2c.1-3.1-.7-5.6-2.3-7.7-3.2-4-8-4-9.9-4h-14.8l-16.7 73.1h15.2c2.7 0 5.2-.6 7.5-1.8l.9-.5.9.5c3.2 1.6 6.9 2.5 11 2.5 6.3 0 11.9-1.8 16.7-5.4l1.4-1.1 1.3 1.2c3.5 3.4 8.3 5.2 13.8 5.2 3.4 0 6.6-.7 9.7-2.1l.9-.4.9.4c1.7.8 3.6 1.3 5.7 1.5l1.1.1h47.8c2.7 0 5.2-.6 7.5-1.8l.9-.5.9.5c3.2 1.6 6.9 2.5 11 2.5 7.4 0 14.1-2.6 19.4-7.6l1.5-1.4 1.4 1.5c5 5.1 12.1 7.6 21.2 7.6 2.7 0 5.4-.2 7.8-.6h31.8l1.8-7.9 4.4 3c5.1 3.5 12.5 5.4 20.7 5.4 2.3 0 4.6-.2 6.9-.6l3.2-.6-.2.6h30l.9-4.1 2.6 2c1.8 1.4 4.2 2.1 6.9 2.1h16.3l.5-2.3 2.3 1c5.5 2.5 12.6 2.4 18.5-.3l.9-.4.9.4c1.7.8 3.6 1.3 5.7 1.5l2.4.2L557 129h30.1l3.3-14.4 1.9.2c3.7.5 7.8.2 11.7-.9l3.4-.9-3.7 16z"/><path class="st3" d="M219.2 49.6h8.9c4.2 0 5.8 1.2 4.3 7.9l-2.7 11.8c3.2-3.3 7.7-5.8 13.1-5.8 6.7 0 12.4 4.5 12.4 15.7 0 17.5-8.9 29.7-23.1 29.7-6 0-9.9-2.4-12.1-5.3-2 2.7-4.7 4.7-8.4 4.7h-6l13.6-58.7zm8.9 27.3l-4.7 20.4c1 1 2.4 2.1 5.5 2.1 7.5 0 11.3-8.4 11.3-18.5 0-4.5-2.1-6.5-5.3-6.5-2.3 0-4.5 1-6.8 2.5z"/><path class="st3" d="M277.2 103.6c-2.9 3.1-6.9 5.1-11.6 5.1-6.9 0-11.9-4.1-11.9-11.5 0-10.3 7.9-15.3 19.5-15.3 3.4 0 5.5.4 7.4.9l.3-.9c1.3-5.2-.3-7.9-5.5-7.9-4.3 0-7.4.9-10 2.3h-4.7l2.4-10.1c4.1-1.7 8.8-2.8 15.9-2.8 13.3 0 19.9 5.8 17 18.7l-6 26h-5.9c-3.6 0-6-1.7-6.9-4.5zm0-5.9l1.8-7.8c-1.2-.3-2.5-.6-4.3-.6-4.6 0-6.8 2.7-6.8 6.4 0 2.7 1.4 4.2 4 4.2 2.1 0 3.8-.8 5.3-2.2zm27.3-33.6h5.9c5.3 0 7.3 2.6 6.9 7.7 3.7-4.9 7.9-8 13-8 .9 0 1.8.2 2.5.3L330 76.6h-1.6c-5.4 0-9.9 1.6-12.7 3.3l-6.4 28.1h-15l10.2-43.9zM339 49.6h8.9c4.2 0 5.8 1.2 4.3 7.9l-2.7 11.8c3.2-3.3 7.7-5.8 13.1-5.8 6.7 0 12.4 4.5 12.4 15.7 0 17.5-8.9 29.7-23.1 29.7-6 0-9.9-2.4-12.1-5.3-2 2.7-4.7 4.7-8.4 4.7h-6L339 49.6zm8.9 27.3l-4.7 20.4c1 1 2.4 2.1 5.5 2.1 7.5 0 11.3-8.4 11.3-18.5 0-4.5-2.1-6.5-5.3-6.5-2.3 0-4.5 1-6.8 2.5zm27.3 13.7c0-14.8 9.4-27.1 24.8-27.1 10.6 0 17.2 5.7 17.1 16.4-.1 3.1-.5 6.3-1.5 9.6h-25.8v.9c0 6.1 2.6 8.5 8 8.5 4 0 7.4-1.1 10.4-2.8h4.8l-2.1 9.3c-3.5 1.9-8.4 3.4-15.2 3.4-13.2 0-20.6-6.3-20.5-18.2zm15.6-9.1h12.9c.3-1 .3-1.9.3-2.9 0-4-1.8-5.9-5-5.9-4 0-6.7 3.6-8.2 8.8zm33.7-17.4h5.9c5.3 0 7.3 2.6 6.9 7.7 3.7-4.9 7.9-8 13-8 .9 0 1.8.2 2.5.3L450 76.6h-1.6c-5.4 0-9.9 1.6-12.7 3.3l-6.4 28.1h-15l10.2-43.9zm21.1 40.4l2.1-9.2h5.2c1.8 2 5 3.5 9.4 3.5 3.3 0 5.9-.9 5.9-3.4 0-1.9-1.5-2.6-5.9-4-7.3-2.3-11.4-5.3-11.4-12.4 0-10.1 7.7-15.5 19.1-15.5 7.4 0 12 1.8 15.3 3.9l-2 8.7h-5c-1.8-1.6-4.6-3-8.6-3-3.6 0-5.3 1.3-5.3 3.3 0 1.7 1.3 2.5 5.9 3.9 7 2.1 11.9 4.8 11.9 12.1 0 10.3-7.7 16.1-19.9 16.1-7.6.2-13.3-1.6-16.7-4zm49-54.9h8.9c4.2 0 5.8 1.2 4.3 7.9L505 69.7c4.3-3.7 9-6.3 15.6-6.3 6.9 0 11.5 5.1 9.3 15l-6.8 29.7h-10.4c-3.1 0-4.2-1.4-3.1-6.1l4.9-22c.8-3.3-.2-4.8-3.2-4.8-2.4 0-4.9.8-8.1 2.6l-6.8 30.3h-15l13.2-58.5zm57.5 54c-2.9 3.1-6.9 5.1-11.6 5.1-6.9 0-11.9-4.1-11.9-11.5 0-10.3 7.9-15.3 19.5-15.3 3.4 0 5.5.4 7.4.9l.3-.9c1.3-5.2-.3-7.9-5.5-7.9-4.3 0-7.4.9-10 2.3h-4.7l2.4-10.1c4.1-1.7 8.8-2.8 15.9-2.8 13.3 0 19.9 5.8 17 18.7l-6 26H559c-3.7 0-6-1.7-6.9-4.5zm0-5.9l1.8-7.8c-1.2-.3-2.5-.6-4.3-.6-4.6 0-6.8 2.7-6.8 6.4 0 2.7 1.4 4.2 4 4.2 2.1 0 3.8-.8 5.3-2.2zm27.3-33.6h6c4.7 0 6.8 2 7 5.9 3.3-3.7 8-6.6 13.5-6.6 7.1 0 12.9 4.6 12.9 16.1 0 17-9 28.1-22.8 28.1-5.3 0-8.5-1.6-10.7-3.5l-4 17.5h-15.1l13.2-57.5zm12.2 12.6v.2l-4.5 19.5c1.1.8 2.7 1.8 5.5 1.8 7.3 0 11-7.3 11-17.4 0-4.5-2.1-6.5-5.3-6.5-2.2.1-4.4.9-6.7 2.4zm34.5-12.6h6c4.7 0 6.8 2 7 5.9 3.3-3.7 8-6.6 13.5-6.6 7.1 0 12.9 4.6 12.9 16.1 0 17-9 28.1-22.8 28.1-5.3 0-8.5-1.6-10.7-3.5l-4 17.5h-15.1l13.2-57.5zm12.2 12.6v.2l-4.5 19.5c1.1.8 2.7 1.8 5.5 1.8 7.3 0 11-7.3 11-17.4 0-4.5-2.1-6.5-5.3-6.5-2.2.1-4.4.9-6.7 2.4z"/></svg>