<svg xmlns="http://www.w3.org/2000/svg" viewBox="0 0 588.6 222.6"><path d="M90.7 207.6c-.4 0-.4-1.6 0-1.6H106c.8 0 1.2-.2 1.2-.8V136H49.4v69.2c0 .6.4.8 1.4.8h15.3c.4 0 .4 1.6 0 1.6H9.8c-.4 0-.4-1.6 0-1.6h17.1c.8 0 1.2-.2 1.2-.8V71c0-.4-.4-.8-1.2-.8H9.8c-.4 0-.4-1.6 0-1.6h56.3c.4 0 .4 1.6 0 1.6H50.8c-1 0-1.4.4-1.4.8v63.5h57.8V71c0-.4-.4-.8-1.2-.8H90.7c-.4 0-.4-1.6 0-1.6h56.4c.4 0 .4 1.6 0 1.6h-17.2c-.8 0-1.2.4-1.2.8v134.3c0 .6.4.8 1.2.8h17.2c.4 0 .4 1.6 0 1.6l-56.4-.1z"/><path d="M201.2 210.9c-35.1 0-63.7-32.5-63.7-72.7 0-39 26.7-72.9 63.7-72.9 35.3 0 63.7 32.5 63.7 72.9 0 40.2-28.4 72.7-63.7 72.7zm24.7-136.6c-6.7-5.7-14.7-7.4-24.7-7.4s-18 1.8-24.7 7.4c-10.4 9.6-16.1 29.6-16.1 63.9 0 39.2 5.7 54.3 16.1 63.7 6.7 5.7 14.7 7.6 24.7 7.6s18-2 24.7-7.6c10.6-9.4 16.3-24.5 16.3-63.7 0-34.3-5.7-54.3-16.3-63.9z"/><path d="M372.7 70.2c-.8 0-1.2.4-1.2.8v95.5c0 27-14.3 44.5-47 44.5-29.4 0-50.4-14.5-50.4-43.7V71c0-.4-.4-.8-1.2-.8h-17.2c-.4 0-.4-1.6 0-1.6h58.4c.4 0 .4 1.6 0 1.6h-17.2c-.8 0-1.2.4-1.2.8v96.2c0 27.6 11.4 40.6 33.7 40.6 28.2 0 40.6-16.9 40.6-41.4V71c0-.4-.4-.8-1.2-.8h-16.9c-.4 0-.4-1.6 0-1.6h38c.4 0 .4 1.6 0 1.6h-17.2z"/><path d="M425.3 210.9c-14.5 0-23.1-8-31.9-8-5.5 0-10 3.9-10.8 7.6 0 .4-1.2.4-1.2 0v-43.3c0-.6 1.2-.6 1.2 0 0 15.7 17.1 42.3 42.5 42.3 22.5 0 35.9-14.7 35.9-27.4 0-18.8-13.1-25.7-43.1-36.5-18.4-6.9-32.9-16.7-32.9-39.8 0-21.6 16.9-40.6 36.7-40.6 10.8 0 17.1 5.3 24.9 5.3 5.7 0 7.6-2.5 8-4.7 0-.6 1.4-.6 1.4 0v32.5c0 .4-1.4.4-1.4 0 0-18.6-16.9-31.6-32.7-31.6-15.5 0-27.4 12.3-27.4 25.7 0 14.1 12 24.3 36.5 33.1 25.3 9 41.2 18.2 41.2 42.1-.3 17.6-16.2 43.3-46.9 43.3z"/><path d="M574.6 207.6H464.9c-.4 0-.4-1.6 0-1.6h17c.8 0 1.2-.2 1.2-.8V71c0-.4-.4-.8-1.2-.8h-17c-.4 0-.4-1.6 0-1.6h99.6c.4 0 .6.4.6.6v35.5c0 .6-1.6.6-1.6 0 0-18.2-9.2-34.5-33.7-34.5h-23.9c-.8 0-1.2.4-1.2.8v64.5h9.4c15.7 0 24.5-8.8 24.5-22.3 0-.4 1.4-.4 1.4 0v46.3c0 .6-1.4.6-1.4 0 0-13.3-8.8-22.3-24.5-22.3h-9.4v68.2c0 .6.4.8 1.2.8h24.5c32.3 0 43.5-18.2 43.5-38.4 0-.4 1.4-.4 1.4 0V207c-.1.4-.3.6-.7.6zM48.3 60.5c-.1-.8-1.2-2-3.2-2-3.2 0-8.1 2.2-11.9 2.2C19.8 60.7 9.9 49 9.9 35.5s9.6-25.2 23-25.2c3.4 0 7.4 1.8 10.7 1.8 2 0 3.4-.9 3.5-1.6 0-.1.5-.1.5 0v13.8c0 .1-.5.1-.5 0 0-6.7-7.3-13.5-14.2-13.5-3.2 0-6.6.6-8.9 2.6-3.8 3.3-5.9 10.2-5.9 22.1 0 11.8 2 18.8 5.9 22 2.3 2 6.1 2.6 9.3 2.6 8.6 0 15.1-6.4 15.1-15.3 0-.1.6-.1.6 0v15.7c-.2.1-.7.1-.7 0zm25.5.2c-12.6 0-23-11.3-23-25.2 0-13.5 9.6-25.2 23-25.2 12.7 0 23 11.3 23 25.2s-10.2 25.2-23 25.2zm8.9-47.3c-2.4-2-5.3-2.6-8.9-2.6-3.6 0-6.5.6-8.9 2.6-3.7 3.3-5.8 10.2-5.8 22.1 0 13.6 2 18.8 5.8 22 2.4 2 5.3 2.6 8.9 2.6 3.6 0 6.5-.7 8.9-2.6 3.8-3.3 5.9-8.5 5.9-22 0-11.9-2-18.8-5.9-22.1zm53.7-1.4c-.3 0-.4.1-.4.3v33c0 9.4-5.2 15.4-17 15.4-10.6 0-18.2-5-18.2-15.1V12.3c0-.1-.1-.3-.4-.3h-6.2c-.1 0-.1-.5 0-.5h21.1c.1 0 .1.5 0 .5h-6.2c-.3 0-.4.1-.4.3v33.3c0 9.6 4.1 14 12.2 14 10.2 0 14.6-5.8 14.6-14.3v-33c0-.1-.1-.3-.4-.3h-6.2c-.1 0-.1-.5 0-.5h13.7c.1 0 .1.5 0 .5h-6.2z"/><path d="M180.7 12c-.3 0-.4.1-.4.3v48.2c0 .2-.5.3-.7 0l-32.7-47.9v46.2c0 .2.1.3.4.3h6.2c.1 0 .1.5 0 .5h-13.8c-.1 0-.1-.5 0-.5h6.2c.3 0 .4-.1.4-.3V12.3c0-.1-.1-.3-.4-.3h-6.2c-.1 0-.1-.5 0-.5h14.8c.5 0 .9.3 1.6 1.2l23.6 34.7V12.3c0-.1-.1-.3-.4-.3h-6.1c-.2 0-.2-.5 0-.5h13.7c.1 0 .1.5 0 .5h-6.2zm46.9 13.9c0-7.9-4-14-14.2-14h-1.5c-.3 0-.4.1-.4.3v46.5c0 .2.1.3.4.3h6.2c.1 0 .1.5 0 .5h-21c-.1 0-.1-.5 0-.5h6.1c.3 0 .4-.1.4-.3V12.2c0-.1-.1-.3-.4-.3h-1.3c-10.2 0-13.9 6.1-13.9 14 0 .1-.6.1-.6 0V11.6c0-.1.1-.2.2-.2h40.3c.1 0 .1.1.1.2v14.3c.1.2-.4.2-.4 0zm45.2 34.8c-5.8 0-10.3-3.5-10.3-13.2v-4.4c0-6-4.8-8.3-11.2-8.3h-6.9v23.9c0 .2.1.3.5.3h7.9c.1 0 .1.5 0 .5h-22.7c-.1 0-.1-.5 0-.5h6.2c.3 0 .4-.1.4-.3V12.2c0-.1-.1-.3-.4-.3h-6.2c-.1 0-.1-.5 0-.5h21.5c10.5 0 16.9 5.2 16.9 11.8 0 6.3-6.8 11.3-15.2 11.3 11.9 0 17.4 5.3 17.4 13.2v6.1c0 3.5 1.6 6 4.2 6 1.8 0 3.3-.8 4.2-1.8.1-.1.5.3.4.4-1.6 1.3-3.7 2.3-6.7 2.3zM249.7 12h-4.9c-.4 0-.5.1-.5.3v22h6.9c6.9 0 9.3-2.1 9.3-10.7.1-8.6-4.2-11.6-10.8-11.6zm59.1 0c-.4 0-.8.3-2.2 3.1l-11 22.7v21c0 .2.1.3.4.3h6.2c.1 0 .1.5 0 .5h-21.1c-.1 0-.1-.5 0-.5h6.2c.4 0 .5-.1.5-.3V38.7l-13.9-26.5c-.1-.1-.3-.3-.6-.3h-6.4c-.1 0-.1-.5 0-.5h23.3c.1 0 .1.5 0 .5h-7.4c-.3 0-.3.1-.2.3l13 24.6 10.6-22c1.3-2.6 1.3-2.8.8-2.8h-6.9c-.1 0-.1-.5 0-.5h14.1c.1 0 .1.5 0 .5h-5.4zm51.5 21.9c-3.5 0-5.2 1.3-5.5 5.1-.4 5.2-2.3 10.2-4.7 13.8.5.8.4.5.8 1.2 1.6 2.4 5.2 4.2 7.1 4.2.4 0 .8-.1 1.1-.2 1.8-.7 2.8-2 3.3-3.3.1-.1.4.2.4.3-1.6 3.5-6.1 5.5-10.2 5.5-2.7 0-5.2-1.1-7.6-3.3-3.7 2.2-7.7 3.3-11.9 3.3-9 0-15.8-5.8-15.8-14 0-7 4.2-12.4 11.7-17.1-.8-2.4-1.2-4.6-1.2-6.6 0-7.9 4.3-12.8 9.9-12.8 4.5 0 5.9 2.4 5.9 5.6 0 3.3-3.1 7-8.3 9.8 2.7 8.3 9.3 18.9 14.5 26.6 2.3-3.5 4.2-8.5 4.5-13.3.2-3.7-1.5-5.1-5.2-5.1h-2.6c-.1 0-.1-.5 0-.5h16.6c.1 0 .1.5 0 .5h-2.8v.3zm-19.7 17.9c-4.2-6.6-9.1-14.7-11.6-21.8-2.9 2.3-5.6 6.3-5.6 10.8 0 10.2 5.5 17.6 15.2 17.6 2.5 0 4-.5 6-1.5-1.4-1.3-2.6-2.9-4-5.1zm-2-40.7c-2.3 0-4.7 1.8-4.7 6.3 0 2.4.3 5 1.1 7.7 4.5-2.4 7.9-5.9 7.9-9.2.1-2.9-1.2-4.8-4.3-4.8zM410 25.9c0-7.9-4-14-14.2-14h-1.5c-.3 0-.4.1-.4.3v46.5c0 .2.1.3.4.3h6.2c.1 0 .1.5 0 .5h-21c-.1 0-.1-.5 0-.5h6.1c.3 0 .4-.1.4-.3V12.2c0-.1-.1-.3-.4-.3h-1.4c-10.2 0-13.9 6.1-13.9 14 0 .1-.6.1-.6 0V11.6c0-.1.1-.2.2-.2h40.3c.1 0 .1.1.1.2v14.3c.2.2-.3.2-.3 0zm24.4 34.8c-12.6 0-23-11.3-23-25.2 0-13.5 9.6-25.2 23-25.2 12.7 0 23 11.3 23 25.2-.1 13.9-10.3 25.2-23 25.2zm8.9-47.3c-2.4-2-5.3-2.6-8.9-2.6-3.6 0-6.5.6-8.9 2.6-3.7 3.3-5.8 10.2-5.8 22.1 0 13.6 2 18.8 5.8 22 2.4 2 5.3 2.6 8.9 2.6 3.6 0 6.5-.7 8.9-2.6 3.8-3.3 5.9-8.5 5.9-22-.1-11.9-2.1-18.8-5.9-22.1z"/><path d="M521.9 12c-.4 0-.8.3-1.8 2.8L504 60.5c-.1.1-.6.1-.7 0l-13.4-35.4-12.6 35.4c-.1.3-.5.2-.6 0l-19.6-48.3c-.1-.1-.3-.3-.6-.3h-6.4c-.2 0-.2-.5 0-.5h22c.1 0 .1.5 0 .5h-6.2c-.3 0-.4.1-.3.3l15.1 37.6 8.9-25.5-4.6-12.1c0-.1-.5-.3-.6-.3H479c-.1 0-.1-.5 0-.5h21.8c.1 0 .1.5 0 .5h-7.3c-.4 0-.4.1-.4.3l14.1 37.9 12.5-35.7c.8-2.2.8-2.5.3-2.5h-6.5c-.1 0-.1-.5 0-.5h14.2c.1 0 .1.5 0 .5h-5.8v.1z"/><path d="M565 12c-.3 0-.4.1-.4.3v48.2c0 .2-.5.3-.7 0l-32.7-47.9v46.2c0 .2.1.3.4.3h6.2c.1 0 .1.5 0 .5h-13.9c-.1 0-.1-.5 0-.5h6.2c.3 0 .4-.1.4-.3V12.3c0-.1-.1-.3-.4-.3h-6.2c-.1 0-.1-.5 0-.5h14.8c.5 0 .9.3 1.6 1.2l23.6 34.7V12.3c0-.1-.1-.3-.4-.3h-6.1c-.2 0-.2-.5 0-.5h13.8c.1 0 .1.5 0 .5H565z"/></svg>