<?xml version="1.0" encoding="utf-8"?>
<!-- Generator: Adobe Illustrator 21.1.0, SVG Export Plug-In . SVG Version: 6.00 Build 0)  -->
<!DOCTYPE svg PUBLIC "-//W3C//DTD SVG 1.1//EN" "http://www.w3.org/Graphics/SVG/1.1/DTD/svg11.dtd">
<svg version="1.1" id="Layer_1" xmlns="http://www.w3.org/2000/svg" xmlns:xlink="http://www.w3.org/1999/xlink" x="0px" y="0px"
	 viewBox="0 0 459 247" style="enable-background:new 0 0 459 247;" xml:space="preserve">
<style type="text/css">
	.st0{fill:#24343A;}
	.st1{fill:#BD1622;}
	.st2{fill:#F9F9FA;}
	.st3{fill:#6F6F6E;}
</style>
<path class="st0" d="M79.3,25.6L77,43.8c-3.4-0.4-5.9-0.5-7.5-0.4c-3.2,0.2-5.1,2.8-5.7,7.9c0,0.8-0.1,1.8-0.3,2.8l12.1,1.5
	l-2.1,16.6l-12-1.4l-7,56.3L26,123.5l6.8-56.4l-9.6-1.1l2.1-16.7l9.7,1.3c1.9-15.5,7.1-24.3,15.7-26.3c4.2-1,9.6-1.1,16.3-0.3
	L79.3,25.6z"/>
<path class="st0" d="M116,42l-29,1.8L85.8,23l28.8-1.8L116,42z M120.7,124.9l-28.8,1.7l-4.3-73.6l28.8-1.6L120.7,124.9z"/>
<path class="st0" d="M214.1,119.2l-28.5,4.6l-6.1-38.5c-1.3-8.1-4.6-12.1-10-12.1c-3.7-0.1-6.5,0.8-8.5,2.8
	c-1.9,1.9-2.9,4.8-2.9,8.5c0,1.7,0.1,3.5,0.4,5.6l5.8,37.2l-28.5,4.5L124.1,59l26.1-4.2l1.8,11.4c3.6-6.9,7.9-11.6,12.8-14.3
	c2.8-1.4,5.9-2.4,9.3-2.9c12.5-2,21.6,1.3,27.2,10.2c2.8,4.4,4.7,9.9,5.8,16.6L214.1,119.2z"/>
<path class="st0" d="M301.3,118.9l-25.6,4l-1.7-9.7c-4.7,8.8-11.5,13.9-20.2,15.3c-2.1,0.4-4.2,0.6-6.1,0.6
	c-12.8,0-22.2-6.1-28.1-18.2c-2-4.3-3.5-9-4.3-14.2c-2.6-16.1,0.6-28.5,9.5-37.2c4.1-4.1,9-6.5,14.6-7.4c2.2-0.4,4.4-0.6,6.4-0.6
	c6,0,11.6,2.1,16.6,6.4l-5.4-34.5l28.5-4.5L301.3,118.9z M268,87.6c-1.6-10-5.8-15-12.5-15c-4.1,0-7.1,1.3-9.2,3.8
	c-1.5,1.9-2.4,4.3-2.8,7c-0.3,2.7-0.2,5.5,0.3,8.5c1.6,10,5.5,15,11.7,15c5.7,0,9.4-2.2,11.3-6.7c1.1-2.4,1.7-5.1,1.7-8.1
	C268.5,90.7,268.3,89.2,268,87.6z"/>
<path class="st0" d="M450.4,82.6c1.9,12.8-0.7,23.1-7.5,31c-8.3,9.7-20.3,14.6-36,14.6c-12.9,0-22.9-4.3-30.1-12.8
	c-4.4-5.1-7.1-11.7-8.2-19.8c-0.4-2.6-0.6-5.1-0.6-7.5c0-13.2,5-23.1,15-29.9c5.8-4,12.7-6.5,20.9-7.7c2.8-0.4,5.5-0.6,8.2-0.6
	c9.3,0,17.1,2.3,23.5,6.8C443.9,62.6,448.8,71.2,450.4,82.6z M421.7,86.6c-0.7-4.7-2-8.6-4.2-11.7c-2.7-3.9-6.2-5.6-10.4-5
	c-4.5,0.7-7.5,3.2-9.2,7.5c-1.3,3.5-1.6,7.7-1,12.7c1.9,13.2,6.9,19.2,15.2,18.1c6.8-1,10.2-6,10.2-15
	C422.3,91.2,422.1,89.1,421.7,86.6z"/>
<ellipse transform="matrix(0.944 -0.3299 0.3299 0.944 -12.6748 114.743)" class="st1" cx="331.8" cy="94.7" rx="41.6" ry="41.6"/>
<ellipse transform="matrix(0.944 -0.3299 0.3299 0.944 -12.675 114.7393)" class="st2" cx="331.8" cy="94.7" rx="22" ry="22"/>
<path class="st1" d="M296.3,184c-0.3,0.7-1.4,0.8-2.4,0.3l-8.7-4.2c-1-0.5-1.5-1.4-1.2-2.1l27.9-57.9c0.3-0.7,1.4-0.8,2.4-0.3
	l8.7,4.2c1,0.5,1.5,1.4,1.2,2.1L296.3,184z"/>
<path class="st1" d="M292.9,203.9c-0.6,1.3-2,1.9-3.1,1.4l-18.4-8.9c-1.1-0.5-1.4-2-0.8-3.3l21-43.5c0.6-1.3,2-1.9,3.1-1.4l18.4,8.9
	c1.1,0.5,1.4,2,0.8,3.3L292.9,203.9z"/>
<ellipse class="st3" cx="280.7" cy="223.2" rx="19.1" ry="3.5"/>
</svg>
