<?xml version="1.0" encoding="utf-8"?>
<!-- Generator: Adobe Illustrator 21.1.0, SVG Export Plug-In . SVG Version: 6.00 Build 0)  -->
<!DOCTYPE svg PUBLIC "-//W3C//DTD SVG 1.1//EN" "http://www.w3.org/Graphics/SVG/1.1/DTD/svg11.dtd">
<svg version="1.1" id="Layer_1" xmlns="http://www.w3.org/2000/svg" xmlns:xlink="http://www.w3.org/1999/xlink" x="0px" y="0px"
	 viewBox="0 0 280 54" style="enable-background:new 0 0 280 54;" xml:space="preserve">
<style type="text/css">
	.st0{fill:#1D1D1B;}
	.st1{fill:#F8B133;}
	.st2{fill:#4B4745;}
	.st3{fill:#9C9B9B;}
</style>
<path class="st0" d="M39.4,46.3 M39,46.2c-0.2-0.3-0.5-0.5-0.7-0.8c-1.4-2-2.4-4.2-3.2-6.5c-0.8-2.3-1.3-4.7-1.4-7.1
	c-0.1-2-0.1-4-0.1-6c0-0.2,0-0.4,0-0.6c-0.7,0-1.4,0-2,0c-0.1,0-0.1,0-0.3,0c-0.5,5.2,0.1,10.4,0.6,15.6c-1.1-2.5-1.7-5-2-7.7
	c-0.3-2.7-0.4-5.3-0.3-8h-1.4c0,0.3,0,0.6,0,0.8c0,2.5-0.1,4.9-0.1,7.4c0,0.2-0.1,0.4-0.2,0.5c-0.1,0.1-0.4,0-0.6,0
	c-0.1,0-0.2-0.1-0.3-0.1c-1-0.1-2-0.2-3-0.4c-3-0.5-5.9-1.2-8.7-2.6c-3.1-1.5-6.1-3-8.9-5C5,25,3.9,24.2,2.9,23.1
	c0-0.1-0.1-0.1-0.1-0.2c0.1,0,0.2-0.1,0.3,0c0.2,0,0.4,0,0.6,0.1c2.6,0.6,5.2,1.1,7.8,1.7c0.3,0.1,0.6,0.1,0.8,0.2
	c0-0.1-0.1-0.1-0.2-0.2c-2.3-1.1-4.7-1.9-7.2-2.5c-0.9-0.2-1.7-0.4-2.6-0.5c0-0.1,0-0.1,0-0.2c0,0,0,0,0,0c4.5-3.2,9.3-5.7,14.4-7.6
	c2.4-0.9,4.8-1.7,7.3-2.3c1.2-0.3,2.5-0.5,3.8-0.7c1-0.1,1.1,0,1,1c-0.1,2.5-0.3,5.1-0.4,7.6c0,0.8-0.1,1.7-0.2,2.6h1.5
	c0.5-3,1-6,1.8-8.9c0.6-1.9,1.1-3.9,2.1-5.7c0.4-0.7,0.9-1.3,1.4-1.9c0.5-0.6,1.1-0.5,1.5,0.1c0.3,0.3,0.5,0.7,0.6,1.1
	c0.4,1.2,0.4,2.4,0.3,3.7c-0.2,1.8-0.4,3.6-0.6,5.4c-0.1,1.2-0.2,2.4-0.4,3.6c-0.1,1-0.2,2-0.2,3.1H39c0-0.1,0-0.2,0.1-0.3
	c0.3-1.6,0.5-3.1,0.9-4.7c0.4-1.8,0.9-3.6,1.5-5.3c0.6-2,1.2-4.1,2.1-6c0.5-1,0.9-1.9,2-2.4c0.2,0,0.3,0,0.5,0
	c0.6,0.2,1.1,0.7,1.3,1.3c0.2,0.6,0.4,1.1,0.5,1.7c0.2,1.4,0.3,2.9,0.4,4.4c0.2,2.9,0.3,5.8,0.4,8.7c0,1,0.2,1.9,0.2,2.9h3.1
	c0.3-1.9,0.5-3.7,0.8-5.6c0.5-3,1.1-6,2.6-8.7c0.4-0.7,0.8-1.4,1.3-2c0.4-0.6,1.9-0.6,2.1,0.4c0.3,1.3,0.8,2.6,0.9,4
	c0.2,1.8,0.1,3.7,0.1,5.6c0,1.6,0,3.2,0.1,4.9c0,0.6,0.1,1.2,0.2,1.8h3c0.2-0.6,0.3-1.3,0.5-2c0.4-1.2,0.7-2.5,1.2-3.7
	c0.4-1,1-1.8,1.9-2.3c0.9-0.5,1.8-0.4,2.4,0.5c0.2,0.3,0.5,0.7,0.5,1.1c0.4,1.4,0.7,2.9,1,4.3c0.2,0.8,0.3,1.5,0.4,2.3
	c1.5,0,3,0.1,4.4,0.1c0.1,0,0.2-0.1,0.3-0.2c0.5-0.7,0.9-1.4,1.5-2.1c0.9-1.1,2.1-2,3.3-2.8c0.2-0.1,0.5-0.3,0.7-0.4
	c0,0,0,0.1,0.1,0.1c-1.6,1.6-2.8,3.4-3.7,5.4c1.3,0,2.5,0.1,3.7,0.1c0.1,0,0.2-0.1,0.3-0.2c1.7-2.3,3.6-4.4,5.8-6.2
	c2.5-2.1,5.1-4,8-5.3c0.9-0.4,1.8-0.7,2.8-0.8c-0.1,0.1-0.2,0.2-0.3,0.2c-1.7,1.6-3.5,3.1-5.1,4.7c-2.5,2.4-4.4,5.1-5.2,8.5
	c0,0.2-0.1,0.4,0,0.5c0.8,1.4,1.6,2.9,2.5,4.3c2.3,3.3,5.2,6,8.5,8.1c0.5,0.4,1.1,0.6,1.7,1c0,0,0,0,0,0.1c-0.6-0.1-1.2-0.1-1.8-0.2
	c-3-0.5-5.8-1.7-8.4-3.4c-3.6-2.4-6.7-5.4-9-9.1c-0.1-0.1-0.3-0.2-0.4-0.2c-1.2,0-2.3,0-3.5,0c-0.3,0-0.4,0.1-0.4,0.3
	c-0.3,0.7-0.6,1.4-0.8,2.1c-0.3,0.7-0.8,1.2-1.4,1.6c-0.6,0.4-1.3,0.4-1.9,0c-0.4-0.3-0.8-0.6-1.1-1c-0.6-0.8-1-1.7-1.3-2.6
	c-0.1-0.2-0.2-0.3-0.4-0.3c-1.6,0-3.3,0-4.9,0c-0.1,0-0.2,0-0.3,0c0,0.3-0.1,0.6-0.1,1c-0.1,2.8,0.2,5.5,0.6,8.3
	c0.1,0.9,0.1,1.9,0.1,2.9c0,0.5-0.5,1-0.9,1c-1.1,0.2-1.9-0.3-2.6-1.1c-0.8-1-1.4-2.1-1.8-3.3c-0.6-2.2-1.2-4.4-1.8-6.6
	c-0.2-0.7-0.3-1.5-0.4-2.2h-3.4c0,1.5-0.1,3,0,4.5c0.1,1.7,0.3,3.3,0.4,5c0.2,1.9,0.1,3.7-0.2,5.6c-0.1,0.7-0.2,1.4-0.3,2.1
	c-0.1,0.9-1,1.3-1.8,0.9c-0.3-0.2-0.5-0.4-0.7-0.7c-0.6-1.1-1.1-2.1-1.6-3.2c-1.4-3.5-2.4-7.1-3-10.8c-0.2-1.1-0.4-2.3-0.6-3.4H41
	c0,0.2-0.1,0.3-0.1,0.5c-0.4,3.3-0.6,6.6-0.4,9.9c0.1,1.8,0.2,3.7,0.3,5.5c0,1.1,0.1,2.3,0,3.4c0,0.7-0.2,1.3-0.9,1.6 M41.4,22.4
	h4.8c-0.2-4.9-0.5-9.8-0.7-14.7c-0.1,0-0.1,0-0.2,0C43.5,12.4,42.1,17.2,41.4,22.4z M20.1,22.5c1.2,0,1.9-0.4,2.6-1.3
	c0.4-0.5,0.6-1.1,0.7-1.8c0.3-1.7-0.7-3.4-2.3-3.8c-1.6-0.4-2.8,0.3-3.9,1.4c-0.6,0.6-0.8,1.3-0.8,2C16.4,20.9,18.2,22.6,20.1,22.5z
	 M38.5,40.3c-0.1-2.5-0.3-5-0.3-7.5c0-2.5,0.3-5,0.4-7.5h-2.2c0,0.1,0,0.3,0,0.4c0,1.4,0,2.8,0,4.2c0,3,0.3,6,1.5,8.8
	C38,39.2,38.2,39.8,38.5,40.3z M69.5,22.9c0-0.1,0-0.3-0.1-0.4c-0.2-1.2-0.4-2.4-0.7-3.5c-0.2-0.9-0.5-1.7-0.8-2.5
	c-0.1-0.2-0.4-0.4-0.6-0.4c-0.2,0-0.4,0.3-0.5,0.5c-0.7,1.4-1.2,2.9-1.6,4.3c-0.2,0.6-0.3,1.3-0.5,2H69.5z M57,10.6
	c-1.5,3.9-2,7.9-2.5,12h2.8C56.8,18.6,57.2,14.6,57,10.6z M51.7,25.3h-2.5c-0.2,1.8,2.5,12.2,3.5,13.5C52,34.3,51.4,29.8,51.7,25.3z
	 M33.6,22.1c0.4-4,0.8-7.9,1.2-11.9c-0.1,0,0,0-0.1,0c-1.3,3.9-2.4,7.8-3,11.9H33.6z M63.1,34.8c-0.2-1.7-0.4-3.2-0.4-4.8
	c-0.1-1.6,0-3.2,0-4.8h-2.3C61.1,28.5,61.7,31.7,63.1,34.8z M71.7,25.2c0.3,1,0.7,1.8,1.4,2.5c0.3,0.3,0.6,0.3,0.8-0.1
	c0.4-0.8,0.7-1.6,1.1-2.5H71.7z"/>
<g>
	<path class="st0" d="M125.7,5.2c0.3,0.1,0.7,0.2,1.1,0.3c0.4,0.1,0.7,0.3,1.1,0.4c0.1,0.1,0.3,0.2,0.5,0.5c0.2,0.3,0.6,0.6,1,1.1
		c0.4,0.5,0.7,0.9,0.8,1c0.1,0.2,0.2,0.6,0.5,1.3c0.2,0.3,0.4,0.7,0.6,1.4c0.3,0.7,0.4,1.1,0.4,1.4c0,0.5-0.4,1.2-1.2,2
		c-0.8,0.8-1.4,1.2-1.9,1.2c-0.3,0-0.5-0.1-0.7-0.3c-0.1-0.2-0.2-0.5-0.2-0.8c-0.1-0.6-0.2-1.1-0.3-1.5c-0.4-1.6-1-2.8-1.7-3.7
		c-0.7-0.8-1.5-1.2-2.5-1.2c-0.5,0-1,0.1-1.5,0.3c-0.5,0.2-0.9,0.4-1.3,0.8c-0.2,0.2-0.5,0.4-0.8,0.8c-0.3,0.4-0.8,0.9-1.2,1.5
		c-0.1,0.1-0.1,0.2-0.2,0.4c-0.1,0.1-0.2,0.3-0.4,0.5c-0.1,0.3-0.3,0.6-0.5,0.9c-0.2,0.4-0.5,0.7-0.8,1.2c-0.1,0.4-0.3,0.7-0.4,1.1
		c-0.1,0.3-0.3,0.6-0.5,0.9c0,0.1-0.1,0.2-0.1,0.3c0,0.2-0.1,0.4-0.2,0.7c-0.1,0.3-0.2,0.7-0.3,1.1c-0.1,0.4-0.3,0.8-0.4,1.3
		c-0.2,1.6-0.4,2.9-0.5,3.9c-0.1,0.9-0.2,1.6-0.2,1.8c0,0.6,0.1,1.3,0.2,1.9c0.1,0.6,0.3,1.3,0.5,1.9c0.2,0.5,0.4,0.9,0.5,1.2
		c0.2,0.3,0.3,0.6,0.5,0.7c0.2,0.2,0.5,0.4,0.8,0.5c0.3,0.1,0.7,0.2,1.1,0.2c0.6,0,1.2-0.1,1.7-0.3c0.5-0.2,1-0.5,1.5-0.9
		c0.1-0.1,0.4-0.4,0.8-0.8c0.4-0.4,0.9-1,1.6-1.7c0.1-0.1,0.3-0.3,0.5-0.5c0.2-0.2,0.5-0.5,0.7-0.7c0.3-0.4,0.5-0.8,0.8-1.2
		c0.2-0.4,0.5-0.8,0.7-1.1c0.3-0.4,0.7-0.7,1-0.9c0.4-0.2,0.8-0.3,1.2-0.3c0.6,0,1.1,0.1,1.4,0.4c0.3,0.3,0.4,0.7,0.4,1.2
		c0,0.2-0.1,0.4-0.2,0.7c-0.1,0.3-0.2,0.6-0.2,0.7c0,0.3-0.1,0.6-0.1,1c-0.1,0.4-0.1,0.9-0.2,1.4c0,0.7-0.1,1.3-0.2,1.8
		c-0.1,0.5-0.3,1-0.5,1.4c-0.2,0.5-0.4,1.3-0.6,2.4c-0.2,1.1-0.4,1.9-0.6,2.5c-0.1,0.1-0.2,0.4-0.2,0.7c-0.1,0.3-0.2,0.7-0.2,1.2
		c-0.1,0.3-0.1,0.6-0.2,0.8s-0.2,0.4-0.3,0.5c-0.1,0.1-0.3,0.2-0.5,0.3c-0.2,0.1-0.5,0.2-0.9,0.3c-0.1,0.3-0.2,0.6-0.3,0.8
		c-0.1,0.2-0.4,0.3-0.6,0.3c-0.2,0-0.4-0.1-0.5-0.3c-0.1-0.2-0.2-0.5-0.2-0.9c0-0.1,0-0.4,0.1-0.7c0.1-0.3,0.1-0.7,0.3-1.2
		c0.1-0.2,0.1-0.6,0.2-1c0-0.4,0.1-0.9,0.1-1.5c0-0.3,0.1-0.8,0.2-1.4c0.1-0.6,0.3-1.4,0.5-2.4l-0.3-1.5c0.1-0.2,0.1-0.4,0.2-0.6
		c0-0.1,0-0.2-0.1-0.2c-0.1-0.1-0.1-0.1-0.2-0.1c-0.5,0.4-1,0.7-1.3,1c-0.8,0.7-1.4,1.2-1.9,1.6c-0.5,0.4-0.9,0.7-1.2,0.9
		c-0.6,0.4-1.2,0.7-1.8,1c-0.6,0.3-1.2,0.4-1.9,0.5l-1-0.2c-0.3,0-0.6,0.1-0.8,0.1c-0.3,0-0.7-0.1-1.1-0.2c-0.4-0.2-0.8-0.4-1.2-0.7
		c-0.4-0.3-0.7-0.7-1-1.1c-0.3-0.4-0.6-0.9-0.8-1.5c-0.1-0.2-0.2-0.5-0.3-1.1c-0.1-0.5-0.3-1.2-0.5-2.1c0.1-0.4,0.2-0.7,0.2-1.2
		c0-0.4,0-0.9,0-1.3L110,23c0.4-2.8,1.1-5.3,2.1-7.5c1.1-2.2,2.4-4.1,4.1-5.7c0.6-0.6,1-1,1.4-1.4c0.4-0.3,0.6-0.6,0.7-0.7
		c0.3-0.3,0.7-0.5,1.1-0.8c0.4-0.3,0.8-0.5,1.3-0.8c0.2-0.1,0.5-0.3,0.8-0.4c0.3-0.1,0.7-0.3,1.1-0.4l2.1-0.2l0.7,0.2L125.7,5.2z"/>
	<path class="st0" d="M130.7,29.4c0.2-0.3,0.4-0.6,0.7-1c0.3-0.3,0.6-0.7,1.1-1c0-0.3,0.1-0.6,0.1-0.9c0-0.3,0.1-0.6,0.1-0.9
		c0-0.2,0.1-0.5,0.2-0.7c0.1-0.3,0.2-0.6,0.3-0.9c0.1-0.3,0.3-0.7,0.5-1.2c0.2-0.5,0.5-1,0.9-1.7c0.3-0.3,0.6-0.7,1-1.1
		c0.3-0.4,0.7-0.8,1-1.2c0.2-0.1,0.3-0.3,0.5-0.4c0.2-0.1,0.4-0.3,0.6-0.4c0.2-0.1,0.4-0.1,0.6-0.2c0.2,0,0.5-0.1,0.7-0.1
		c0.4,0,0.7,0,0.9,0.1c0.2,0.1,0.4,0.2,0.6,0.4c0.1,0.1,0.2,0.3,0.3,0.5c0.1,0.2,0.2,0.5,0.3,0.9c0,0.3,0.1,0.6,0.2,1
		c0-0.1,0-0.1-0.1,0.1c-0.1,0.2-0.1,0.4-0.2,0.8l-0.2,0.7c-0.2,0.7-0.7,1.5-1.4,2.5c-0.7,0.9-1.7,2-3,3.2c-0.1,0.1-0.2,0.2-0.3,0.4
		c-0.1,0.2-0.1,0.3-0.1,0.5c0,0.3,0.1,0.6,0.2,0.8c0.1,0.2,0.3,0.4,0.5,0.5c0.1,0.1,0.3,0.2,0.6,0.3c0.3,0.1,0.6,0.2,0.9,0.2
		c0.6,0,1.1-0.1,1.6-0.3c0.5-0.1,0.9-0.3,1.3-0.5c0.1,0,0.2-0.1,0.4-0.2c0.2-0.1,0.3-0.2,0.5-0.3c0.2,0.4,0.4,0.8,0.5,1.2
		c0.1,0.3,0.3,0.6,0.4,0.9c-0.8,0.8-1.6,1.5-2.3,1.9c-0.7,0.4-1.3,0.6-1.9,0.6c-0.2,0.1-0.5,0.3-0.8,0.3c-0.3,0.1-0.7,0.1-1.1,0.1
		c-0.6,0-1-0.1-1.5-0.2c-0.4-0.2-0.8-0.4-1.1-0.7c-0.1-0.1-0.3-0.4-0.4-0.7c-0.1-0.3-0.3-0.6-0.5-1c-0.1-0.3-0.3-0.6-0.4-0.7
		c-0.1-0.2-0.3-0.2-0.4-0.2c-0.1,0-0.3,0.1-0.4,0.2c-0.1,0.1-0.3,0.3-0.5,0.5c-0.1-0.2-0.2-0.5-0.3-0.8
		C131.1,30.3,130.9,29.8,130.7,29.4z M137.8,22.1c-0.3,0-0.8,0.4-1.3,1.3c-0.6,0.9-0.8,1.5-0.8,1.9c0,0.1,0,0.2,0.1,0.2
		c0,0,0.1,0.1,0.2,0.1c0.2,0,0.3-0.1,0.4-0.3c0.1-0.2,0.2-0.3,0.3-0.5c0.2-0.1,0.3-0.3,0.5-0.5c0.2-0.2,0.3-0.3,0.5-0.5
		c0.2-0.2,0.3-0.4,0.4-0.6c0.1-0.2,0.1-0.4,0.1-0.6c0-0.1,0-0.2-0.1-0.3C138,22.1,137.9,22.1,137.8,22.1z"/>
	<path class="st0" d="M141.9,29.4c0.2-0.3,0.4-0.6,0.7-1c0.3-0.3,0.6-0.7,1.1-1c0-0.3,0.1-0.6,0.1-0.9c0-0.3,0.1-0.6,0.1-0.9
		c0-0.2,0.1-0.5,0.2-0.7c0.1-0.3,0.2-0.6,0.3-0.9c0.1-0.3,0.3-0.7,0.5-1.2c0.2-0.5,0.5-1,0.9-1.7c0.3-0.3,0.6-0.7,1-1.1
		c0.3-0.4,0.7-0.8,1-1.2c0.2-0.1,0.3-0.3,0.5-0.4c0.2-0.1,0.4-0.3,0.6-0.4c0.2-0.1,0.4-0.1,0.6-0.2c0.2,0,0.5-0.1,0.7-0.1
		c0.4,0,0.7,0,0.9,0.1c0.2,0.1,0.4,0.2,0.6,0.4c0.1,0.1,0.2,0.3,0.3,0.5c0.1,0.2,0.2,0.5,0.3,0.9c0,0.3,0.1,0.6,0.2,1
		c0-0.1,0-0.1-0.1,0.1c-0.1,0.2-0.1,0.4-0.2,0.8l-0.2,0.7c-0.2,0.7-0.7,1.5-1.4,2.5c-0.7,0.9-1.7,2-3,3.2c-0.1,0.1-0.2,0.2-0.3,0.4
		c-0.1,0.2-0.1,0.3-0.1,0.5c0,0.3,0.1,0.6,0.2,0.8c0.1,0.2,0.3,0.4,0.5,0.5c0.1,0.1,0.3,0.2,0.6,0.3c0.3,0.1,0.6,0.2,0.9,0.2
		c0.6,0,1.1-0.1,1.6-0.3c0.5-0.1,0.9-0.3,1.3-0.5c0.1,0,0.2-0.1,0.4-0.2c0.2-0.1,0.3-0.2,0.5-0.3c0.2,0.4,0.4,0.8,0.5,1.2
		c0.1,0.3,0.3,0.6,0.4,0.9c-0.8,0.8-1.6,1.5-2.3,1.9c-0.7,0.4-1.3,0.6-1.9,0.6c-0.2,0.1-0.5,0.3-0.8,0.3c-0.3,0.1-0.7,0.1-1.1,0.1
		c-0.6,0-1-0.1-1.5-0.2c-0.4-0.2-0.8-0.4-1.1-0.7c-0.1-0.1-0.3-0.4-0.4-0.7c-0.1-0.3-0.3-0.6-0.5-1c-0.1-0.3-0.3-0.6-0.4-0.7
		c-0.1-0.2-0.3-0.2-0.4-0.2c-0.1,0-0.3,0.1-0.4,0.2c-0.1,0.1-0.3,0.3-0.5,0.5c-0.1-0.2-0.2-0.5-0.3-0.8
		C142.4,30.3,142.2,29.8,141.9,29.4z M149.1,22.1c-0.3,0-0.8,0.4-1.3,1.3c-0.6,0.9-0.8,1.5-0.8,1.9c0,0.1,0,0.2,0.1,0.2
		c0,0,0.1,0.1,0.2,0.1c0.2,0,0.3-0.1,0.4-0.3c0.1-0.2,0.2-0.3,0.3-0.5c0.2-0.1,0.3-0.3,0.5-0.5c0.2-0.2,0.3-0.3,0.5-0.5
		c0.2-0.2,0.3-0.4,0.4-0.6c0.1-0.2,0.1-0.4,0.1-0.6c0-0.1,0-0.2-0.1-0.3C149.3,22.1,149.2,22.1,149.1,22.1z"/>
	<path class="st0" d="M153.2,29.4l0.2-0.2c0-0.2,0.1-0.4,0.3-0.6c0.2-0.2,0.5-0.5,0.8-0.8c0.2-0.2,0.5-0.3,0.7-0.5
		c0.2-0.1,0.5-0.3,0.7-0.5c0.9-0.8,1.8-1.6,2.7-2.3c0.5-0.4,1-0.8,1.5-1.2c0.5-0.3,1-0.6,1.4-0.8c0.3-0.4,0.9-0.8,1.8-1.2
		c0.9-0.4,1.6-0.6,2.1-0.6c0.2,0,0.4,0.1,0.5,0.2c0.1,0.1,0.2,0.3,0.2,0.4v1.2c0,0.4-0.1,0.8-0.4,1.2c-0.2,0.3-0.6,0.6-1.1,0.9
		c-0.3,0.1-0.7,0.3-1,0.5c-0.3,0.2-0.7,0.3-1,0.5c-0.1,0.1-0.4,0.4-1,0.8c-0.5,0.4-1.2,1-2.1,1.6c-0.4,0.3-0.7,0.6-1,0.8
		c-0.3,0.2-0.5,0.4-0.6,0.6c-0.1,0.3-0.3,0.6-0.3,0.9c-0.1,0.3-0.1,0.7-0.1,1.2c0,0.3,0.1,0.6,0.2,0.9c0.1,0.2,0.3,0.4,0.5,0.6
		c0.1,0.1,0.4,0.2,0.6,0.3c0.3,0.1,0.6,0.2,1,0.3c0.2-0.1,0.5-0.2,0.9-0.3s0.8-0.2,1.2-0.3c0.5-0.3,1-0.6,1.6-0.9
		c0.5-0.3,1.1-0.7,1.6-1c0.1,0,0.2-0.1,0.3-0.1c0.1-0.1,0.2-0.1,0.3-0.2c0.1-0.2,0.4-0.4,0.6-0.7c0.3-0.3,0.6-0.5,1-0.9
		c0.6,1.3,0.9,2,0.9,2.1c-0.6,0.4-1.1,0.9-1.7,1.4c-0.6,0.5-1.2,0.9-1.9,1.2c-0.2,0.2-0.4,0.4-0.6,0.5c-0.7,0.7-1.6,1.3-2.6,1.7
		c-1,0.4-2.1,0.6-3.4,0.6c-0.3,0-0.5,0-0.8-0.1c-0.2,0-0.4-0.1-0.6-0.2c-0.4-0.3-0.8-0.6-1.1-0.8c-0.3-0.2-0.6-0.5-0.8-0.7
		c-0.2-0.2-0.4-0.4-0.5-0.6c-0.1-0.2-0.2-0.5-0.3-0.8c-0.1-0.3-0.1-0.7-0.1-1.1c0-0.1,0-0.3,0.1-0.6c0.1-0.3,0.1-0.5,0.1-0.6
		c-0.1-0.3-0.2-0.7-0.4-1C153.5,30.1,153.4,29.7,153.2,29.4z"/>
	<path class="st0" d="M167.3,29.4c0.3-0.3,0.6-0.5,0.8-0.7c0.2-0.2,0.3-0.3,0.4-0.4c0.2-0.2,0.4-0.4,0.6-0.6
		c0.1-0.2,0.2-0.4,0.2-0.6c0.1-0.5,0.3-1.1,0.5-1.9c0.2-0.8,0.4-1.6,0.7-2.6c0.1-0.3,0.3-0.7,0.4-1.1c0.2-0.5,0.3-1,0.5-1.5
		c0.2-0.7,0.4-1.4,0.7-2s0.6-1.2,0.9-1.7c0.1-0.1,0.2-0.3,0.3-0.5s0.2-0.4,0.3-0.7c0.1-0.2,0.2-0.5,0.4-0.8c0.2-0.3,0.4-0.7,0.6-1.1
		c0.6-0.9,1.1-1.7,1.6-2.3c0.5-0.6,0.8-1.2,1.1-1.5c0.5-0.6,1.1-1.2,1.6-1.8s1.1-1.1,1.6-1.6c0.5-0.4,0.9-0.7,1.3-1
		c0.4-0.2,0.7-0.3,0.9-0.3c0.2,0.2,0.4,0.3,0.4,0.5c0.1,0,0.2,0,0.3,0c0.4,0,0.7,0.2,0.9,0.5c0.2,0.3,0.3,0.8,0.3,1.4
		c0,0.1,0,0.3-0.1,0.5c0,0.2-0.1,0.5-0.2,0.8c-0.1,0.1-0.2,0.2-0.2,0.4s-0.1,0.3-0.1,0.5c0,0.2,0,0.4-0.1,0.5c0,0.1-0.1,0.3-0.1,0.4
		c-0.2,0.4-0.4,0.8-0.6,1.3c-0.2,0.5-0.5,1.1-0.7,1.8c-0.2,0.3-0.3,0.6-0.6,1c-0.2,0.4-0.5,0.9-0.8,1.4c-0.1,0.3-0.3,0.6-0.6,1.1
		c-0.2,0.4-0.5,0.9-0.9,1.5c-0.1,0.2-0.2,0.4-0.5,0.7c-0.2,0.2-0.5,0.5-0.8,0.9c-0.1,0.2-0.3,0.6-0.7,1.2s-1,1.3-1.7,2.3
		c-0.4,0.5-0.8,1-1.4,1.7c-0.6,0.7-1.2,1.5-2,2.4c-0.3,1.1-0.5,2.1-0.6,3c-0.1,0.9-0.2,1.6-0.2,2.3c0,0.3,0,0.4,0.1,0.6
		c0,0.1,0.1,0.2,0.2,0.2c0.1-0.1,0.2-0.2,0.3-0.4c0.1-0.1,0.3-0.3,0.4-0.5c0.3-0.3,0.6-0.7,1-1.4s0.8-1.6,1.3-2.7
		c0.4-1,0.8-1.7,1.2-2.3c0.3-0.5,0.6-0.8,0.8-1l0.8-0.3c0.1-0.1,0.3-0.1,0.4-0.2c0.1,0,0.2-0.1,0.3-0.1c0.2,0,0.4,0.1,0.5,0.4
		c0.2,0.2,0.3,0.6,0.4,1c0.2,0.8,0.3,1.3,0.5,1.8c0.1,0.4,0.2,0.7,0.2,0.7c0.2,0.4,0.4,0.8,0.7,1c0.3,0.2,0.6,0.3,1,0.3
		c0.5-0.1,1-0.2,1.6-0.3c0.1,0.3,0.3,0.6,0.4,1c0.2,0.3,0.3,0.7,0.5,1.1c-0.4,0.2-0.7,0.5-1.1,0.7c-0.4,0.2-0.7,0.4-1.1,0.7
		c-0.2,0.1-0.6,0.2-1,0.3s-1,0.1-1.6,0.1c-0.9,0-1.6-0.4-2.1-1.3c-0.5-0.9-0.8-1.3-0.9-1.3h-0.1c-0.2,0.3-0.5,0.6-0.7,0.9
		c-0.3,0.3-0.5,0.6-0.8,1c-0.2,0.3-0.4,0.7-0.7,1.2c-0.3,0.4-0.7,0.9-1.1,1.5c-0.5,0.6-0.9,1-1.3,1.3c-0.4,0.3-0.7,0.4-1,0.4
		c-0.6,0-1-0.1-1.3-0.2c-0.3-0.1-0.5-0.3-0.6-0.6c-0.2-0.8-0.3-1.6-0.4-2.2c-0.1-0.6-0.1-1.1-0.1-1.6c0-0.1,0-0.3,0-0.4
		c0-0.1,0-0.2,0-0.3c0-0.2,0.1-0.4,0.2-0.6c0-0.1,0-0.1-0.1-0.2c0,0-0.1-0.1-0.2-0.1c0,0.1-0.1,0.1-0.2,0.2
		c-0.1,0.1-0.2,0.2-0.3,0.2c-0.1-0.2-0.2-0.5-0.3-0.8C167.7,30.3,167.5,29.8,167.3,29.4z M181.8,8.7c-0.2,0-0.5,0.3-1,0.9
		c-0.5,0.6-1.1,1.5-1.9,2.6c-0.4,0.6-0.9,1.3-1.3,1.9c-0.4,0.6-0.8,1.3-1.2,1.9c-0.2,0.2-0.3,0.4-0.4,0.5s-0.1,0.4-0.1,0.6
		c-0.3,0.8-0.6,1.6-0.9,2.3c-0.3,0.8-0.5,1.4-0.7,1.8c-0.2,0.4-0.3,0.7-0.3,0.8l0.1,0.1c0.3-0.3,0.6-0.6,0.8-0.9
		c0.3-0.3,0.7-0.8,1.1-1.3c0.4-0.5,0.9-1.2,1.4-1.9c0.5-0.7,1.1-1.6,1.7-2.6c0.6-1.1,1.2-2.3,1.8-3.6c0.4-0.7,0.7-1.3,0.8-1.8
		c0.2-0.4,0.3-0.8,0.3-0.9c0-0.1,0-0.2-0.1-0.3C182,8.7,181.9,8.7,181.8,8.7z"/>
	<path class="st0" d="M183.7,29.4c0.2-0.3,0.4-0.6,0.7-1c0.3-0.3,0.6-0.7,1.1-1c0-0.3,0.1-0.6,0.1-0.9c0-0.3,0.1-0.6,0.1-0.9
		c0-0.2,0.1-0.5,0.2-0.7c0.1-0.3,0.2-0.6,0.3-0.9c0.1-0.3,0.3-0.7,0.5-1.2c0.2-0.5,0.5-1,0.9-1.7c0.3-0.3,0.6-0.7,1-1.1
		c0.3-0.4,0.7-0.8,1-1.2c0.2-0.1,0.3-0.3,0.5-0.4c0.2-0.1,0.4-0.3,0.6-0.4c0.2-0.1,0.4-0.1,0.6-0.2c0.2,0,0.5-0.1,0.7-0.1
		c0.4,0,0.7,0,0.9,0.1c0.2,0.1,0.4,0.2,0.6,0.4c0.1,0.1,0.2,0.3,0.3,0.5c0.1,0.2,0.2,0.5,0.3,0.9c0,0.3,0.1,0.6,0.2,1
		c0-0.1,0-0.1-0.1,0.1c-0.1,0.2-0.1,0.4-0.2,0.8l-0.2,0.7c-0.2,0.7-0.7,1.5-1.4,2.5c-0.7,0.9-1.7,2-3,3.2c-0.1,0.1-0.2,0.2-0.3,0.4
		c-0.1,0.2-0.1,0.3-0.1,0.5c0,0.3,0.1,0.6,0.2,0.8c0.1,0.2,0.3,0.4,0.5,0.5c0.1,0.1,0.3,0.2,0.6,0.3c0.3,0.1,0.6,0.2,0.9,0.2
		c0.6,0,1.1-0.1,1.6-0.3c0.5-0.1,0.9-0.3,1.3-0.5c0.1,0,0.2-0.1,0.4-0.2c0.2-0.1,0.3-0.2,0.5-0.3c0.2,0.4,0.4,0.8,0.5,1.2
		c0.1,0.3,0.3,0.6,0.4,0.9c-0.8,0.8-1.6,1.5-2.3,1.9c-0.7,0.4-1.3,0.6-1.9,0.6c-0.2,0.1-0.5,0.3-0.8,0.3c-0.3,0.1-0.7,0.1-1.1,0.1
		c-0.6,0-1-0.1-1.5-0.2c-0.4-0.2-0.8-0.4-1.1-0.7c-0.1-0.1-0.3-0.4-0.4-0.7c-0.1-0.3-0.3-0.6-0.5-1c-0.1-0.3-0.3-0.6-0.4-0.7
		c-0.1-0.2-0.3-0.2-0.4-0.2c-0.1,0-0.3,0.1-0.4,0.2c-0.1,0.1-0.3,0.3-0.5,0.5c-0.1-0.2-0.2-0.5-0.3-0.8
		C184.1,30.3,183.9,29.8,183.7,29.4z M190.9,22.1c-0.3,0-0.8,0.4-1.3,1.3c-0.6,0.9-0.8,1.5-0.8,1.9c0,0.1,0,0.2,0.1,0.2
		c0,0,0.1,0.1,0.2,0.1c0.2,0,0.3-0.1,0.4-0.3c0.1-0.2,0.2-0.3,0.3-0.5c0.2-0.1,0.3-0.3,0.5-0.5c0.2-0.2,0.3-0.3,0.5-0.5
		c0.2-0.2,0.3-0.4,0.4-0.6c0.1-0.2,0.1-0.4,0.1-0.6c0-0.1,0-0.2-0.1-0.3C191,22.1,191,22.1,190.9,22.1z"/>
	<path class="st0" d="M195,29.4c0.2-0.3,0.4-0.6,0.7-1c0.3-0.3,0.6-0.7,1.1-1c0-0.3,0.1-0.6,0.1-0.9c0-0.3,0.1-0.6,0.1-0.9
		c0-0.2,0.1-0.5,0.2-0.7c0.1-0.3,0.2-0.6,0.3-0.9c0.1-0.3,0.3-0.7,0.5-1.2c0.2-0.5,0.5-1,0.9-1.7c0.3-0.3,0.6-0.7,1-1.1
		c0.3-0.4,0.7-0.8,1-1.2c0.2-0.1,0.3-0.3,0.5-0.4c0.2-0.1,0.4-0.3,0.6-0.4c0.2-0.1,0.4-0.1,0.6-0.2c0.2,0,0.5-0.1,0.7-0.1
		c0.4,0,0.7,0,0.9,0.1c0.2,0.1,0.4,0.2,0.6,0.4c0.1,0.1,0.2,0.3,0.3,0.5c0.1,0.2,0.2,0.5,0.3,0.9c0,0.3,0.1,0.6,0.2,1
		c0-0.1,0-0.1-0.1,0.1c-0.1,0.2-0.1,0.4-0.2,0.8l-0.2,0.7c-0.2,0.7-0.7,1.5-1.4,2.5c-0.7,0.9-1.7,2-3,3.2c-0.1,0.1-0.2,0.2-0.3,0.4
		c-0.1,0.2-0.1,0.3-0.1,0.5c0,0.3,0.1,0.6,0.2,0.8c0.1,0.2,0.3,0.4,0.5,0.5c0.1,0.1,0.3,0.2,0.6,0.3c0.3,0.1,0.6,0.2,0.9,0.2
		c0.6,0,1.1-0.1,1.6-0.3c0.5-0.1,0.9-0.3,1.3-0.5c0.1,0,0.2-0.1,0.4-0.2s0.3-0.2,0.5-0.3c0.2,0.4,0.4,0.8,0.5,1.2
		c0.1,0.3,0.3,0.6,0.4,0.9c-0.8,0.8-1.6,1.5-2.3,1.9c-0.7,0.4-1.3,0.6-1.9,0.6c-0.2,0.1-0.5,0.3-0.8,0.3c-0.3,0.1-0.7,0.1-1.1,0.1
		c-0.6,0-1-0.1-1.5-0.2c-0.4-0.2-0.8-0.4-1.1-0.7c-0.1-0.1-0.3-0.4-0.4-0.7c-0.1-0.3-0.3-0.6-0.5-1c-0.1-0.3-0.3-0.6-0.4-0.7
		c-0.1-0.2-0.3-0.2-0.4-0.2c-0.1,0-0.3,0.1-0.4,0.2c-0.1,0.1-0.3,0.3-0.5,0.5c-0.1-0.2-0.2-0.5-0.3-0.8
		C195.4,30.3,195.2,29.8,195,29.4z M202.1,22.1c-0.3,0-0.8,0.4-1.3,1.3c-0.6,0.9-0.8,1.5-0.8,1.9c0,0.1,0,0.2,0.1,0.2
		c0,0,0.1,0.1,0.2,0.1c0.2,0,0.3-0.1,0.4-0.3c0.1-0.2,0.2-0.3,0.3-0.5c0.2-0.1,0.3-0.3,0.5-0.5c0.2-0.2,0.3-0.3,0.5-0.5
		c0.2-0.2,0.3-0.4,0.4-0.6c0.1-0.2,0.1-0.4,0.1-0.6c0-0.1,0-0.2-0.1-0.3C202.3,22.1,202.2,22.1,202.1,22.1z"/>
	<path class="st0" d="M219.1,35.8c0.1-0.1,0.3-0.3,0.6-0.5c0.2-0.2,0.6-0.4,1-0.7c0.3-0.2,0.5-0.4,0.6-0.6c0.1-0.2,0.2-0.4,0.2-0.6
		c0-0.7,0-1.1,0-1.3c0-0.2,0-0.3,0-0.4c0-1.4,0-2.6,0.1-3.4c0.1-0.8,0.2-1.3,0.3-1.5l0-0.7l-0.1-0.2c0-0.2,0-0.3,0-0.4
		c0-0.1,0-0.2,0-0.3c0-0.8-0.4-1.3-1.1-1.6c-0.7-0.2-1.1-0.7-1.1-1.4c0-0.2,0.2-0.5,0.6-0.8c0.4-0.3,1-0.7,1.8-1.1
		c0.1-0.7,0.2-1.5,0.3-2.4c0.1-0.9,0.3-1.8,0.4-2.9c-0.1-0.2-0.1-0.4-0.1-0.5c0-0.1,0-0.2,0-0.3c0-0.5,0.1-1,0.2-1.4
		s0.3-0.8,0.5-1.2c0.1-0.2,0.3-0.4,0.5-0.7c0.2-0.2,0.5-0.5,0.8-0.8c0.2-0.2,0.4-0.4,0.5-0.6c0.1-0.2,0.2-0.3,0.2-0.4
		c0-0.1,0-0.2-0.1-0.3c-0.1-0.1-0.2-0.1-0.4-0.1c-0.6,0-1.4,0.2-2.4,0.5c-1.1,0.4-1.9,0.5-2.4,0.5c-0.2,0-0.3,0-0.4-0.1
		c-0.1,0-0.1-0.1-0.1-0.2c0-0.3,0-0.6,0-0.8c0-0.2,0.1-0.4,0.1-0.5c0.3-0.2,0.5-0.4,0.6-0.6c0.1-0.2,0.2-0.4,0.2-0.5
		c0-0.1,0.1-0.2,0.2-0.3c0.2-0.1,0.4-0.2,0.7-0.3c1.4-0.4,2.4-0.7,3.1-0.9c0.7-0.2,1.1-0.3,1.2-0.4c0.8-0.2,1.6-0.4,2.4-0.5
		c0.8-0.1,1.5-0.1,2.1-0.1c0.1,0,0.2,0,0.4,0.1c0.2,0,0.4,0,0.4,0c0.3,0,0.6-0.1,0.9-0.2c0.1,0,0.4,0,0.8,0.1c0.4,0.1,1,0.2,1.8,0.3
		c0.2,0,0.3-0.1,0.5-0.1c0.4,0,0.8,0.1,1.1,0.2c0.3,0.1,0.5,0.3,0.7,0.6c0.2,0,0.4,0.1,0.6,0.1c0.4,0,0.7,0.1,1.1,0.3
		s0.6,0.5,0.8,0.9c0.2,0.4,0.4,0.8,0.5,1.2C240,8.6,240,9,240,9.4c0,0.8-0.2,1.5-0.5,2.2c-0.3,0.7-0.8,1.4-1.5,2
		c-0.1,0-0.4,0.3-1.1,0.8c-0.6,0.5-1.6,1.2-2.8,2c-0.1,0.1-0.3,0.2-0.5,0.4c-0.2,0.2-0.4,0.3-0.6,0.5c-1.2,0.7-2.4,1.4-3.5,2.1
		c-1,0.5-1.7,1-2.2,1.3c-0.5,0.4-0.7,0.6-0.7,0.8c0,0.3,0.1,0.6,0.4,0.8c0.3,0.2,0.6,0.4,1.2,0.6c0.8,0.3,1.6,0.6,2.6,0.9
		c1,0.3,2,0.8,3.1,1.2c0.1,0,0.2,0.1,0.4,0.2c0.2,0.1,0.3,0.2,0.5,0.3c1.3,0.5,2.2,1.1,2.9,1.8c0.6,0.7,0.9,1.5,0.9,2.4
		c0,1.3-1.2,2.6-3.6,3.8c-2.4,1.2-6,2.3-10.7,3.4c-0.1,0.2-0.2,0.4-0.3,0.6c-0.1,0.2-0.2,0.4-0.3,0.6c-0.1,0.2-0.3,0.3-0.4,0.4
		c-0.2,0.1-0.4,0.1-0.7,0.1c-0.3,0-0.5-0.1-0.7-0.3c-0.2-0.2-0.3-0.5-0.3-1c-0.1-0.1-0.2-0.1-0.3-0.1l-1.3,0.3
		c-0.2-0.1-0.3-0.2-0.5-0.2c-0.1-0.1-0.3-0.1-0.4-0.2c-0.1-0.1-0.3-0.2-0.4-0.3c-0.1-0.1-0.1-0.3-0.1-0.4c0-0.1,0-0.2,0.1-0.3
		C218.7,36,218.9,35.9,219.1,35.8z M225.9,25.2c-0.2,0-0.4,0.2-0.6,0.6c-0.2,0.4-0.3,1-0.4,1.8c-0.1,0.7-0.1,1.5-0.2,2.3
		c-0.1,0.8-0.1,1.5-0.2,2.2c-0.1,0.4-0.2,0.8-0.2,1.2l0,0.2l0.2,0.1c0.6-0.2,1.3-0.3,2-0.5c0.5,0,0.8,0,0.9-0.1
		c0.1-0.1,1.3-0.7,3.6-1.7c1-0.4,1.7-0.8,2.2-1.2c0.5-0.4,0.7-0.7,0.7-1c0-0.2-0.1-0.3-0.2-0.5c-0.1-0.1-0.3-0.3-0.6-0.5
		c-0.7-0.4-1.5-0.9-2.3-1.2c-0.8-0.4-1.8-0.7-2.8-1c-0.1,0-0.3-0.1-0.5-0.1c-0.2-0.1-0.4-0.1-0.6-0.2c-0.3-0.1-0.6-0.3-0.7-0.4
		C226.1,25.3,226,25.2,225.9,25.2z M230.3,8.4c-0.6,0-1,0-1.4,0.1c-0.3,0.1-0.6,0.2-0.7,0.4c-0.1,0.1-0.2,0.4-0.4,0.7
		c-0.1,0.3-0.3,0.8-0.4,1.4c-0.1,0.3-0.1,0.7-0.1,1.1s0,0.8,0,1.3c-0.2,0.4-0.3,0.7-0.5,1l0.1,0.6c-0.2,0.7-0.3,1.3-0.4,1.8
		c-0.1,0.4-0.1,0.7-0.1,0.9c0,0.2,0,0.4,0.1,0.5c0.1,0.1,0.2,0.1,0.4,0.1c0.1,0,0.5-0.2,1.1-0.5c0.6-0.3,1.3-0.8,2.3-1.5
		c1.1-0.7,1.9-1.3,2.5-1.6c0.6-0.4,0.9-0.6,1-0.6c0.2-0.2,0.4-0.5,0.6-0.7s0.4-0.5,0.5-0.7c0.3-0.3,0.4-0.6,0.6-0.8
		c0.1-0.2,0.2-0.5,0.2-0.7c0-0.4-0.1-0.7-0.3-1c-0.2-0.3-0.6-0.5-1-0.7c-0.1-0.1-0.4-0.1-0.8-0.3S232.6,9,232,8.9
		c-0.5-0.1-0.9-0.2-1.2-0.3C230.5,8.5,230.3,8.4,230.3,8.4z"/>
	<path class="st0" d="M238.6,29.4c0.1-0.1,0.2-0.2,0.3-0.4c0.1-0.2,0.2-0.4,0.4-0.6l1.7-1.2c0.2-0.3,0.5-0.6,1-1
		c0.4-0.4,1-0.9,1.6-1.4c0.1-0.2,0.2-0.4,0.4-0.6c0.2-0.2,0.4-0.4,0.6-0.6c0.2-0.2,0.4-0.4,0.6-0.5c0.2-0.2,0.4-0.3,0.6-0.5
		c0.2-0.2,0.4-0.4,0.6-0.7c0.2-0.2,0.4-0.4,0.6-0.6c0.2-0.2,0.5-0.4,0.7-0.5c0.3-0.1,0.5-0.2,0.8-0.2c0.3,0,0.6,0,0.7,0.1
		c0.2,0.1,0.3,0.2,0.3,0.3c-0.1,0.3-0.3,0.7-0.5,1l0.1,0.2c0.7-0.3,1.2-0.4,1.5-0.6c0.4-0.1,0.6-0.2,0.7-0.2c1.1,0,1.9,0.3,2.4,1
		c0.5,0.7,0.8,1.7,0.8,3c0,0.3,0,0.6-0.1,0.9c-0.1,0.3-0.2,0.7-0.3,1.1c-0.1,0.4-0.3,0.8-0.5,1.1c-0.2,0.3-0.3,0.5-0.5,0.6
		c0.1,0.2,0.1,0.3,0.2,0.4c0.1,0.1,0.2,0.1,0.3,0.1c0.1,0,0.2,0,0.4-0.1c0.1-0.1,0.3-0.2,0.5-0.3c0.1,0.3,0.3,0.7,0.4,1
		c0.1,0.4,0.3,0.7,0.4,1c-0.3,0.2-0.5,0.5-0.8,0.7c-0.3,0.2-0.5,0.4-0.8,0.6c-0.3,0.3-0.7,0.5-1,0.6c-0.3,0.1-0.6,0.2-0.9,0.2
		c-0.3,0-0.6-0.1-0.8-0.2c-0.2-0.2-0.4-0.4-0.5-0.7c-0.4,0.5-0.8,0.9-1.4,1.4c-0.5,0.4-1.1,0.7-1.8,1c-0.4,0.2-0.7,0.3-1,0.4
		c-0.3,0.1-0.6,0.1-0.8,0.1c-0.1,0-0.2,0-0.4,0.1c-0.2,0.1-0.4,0.1-0.5,0.1c-0.8,0-1.6-0.4-2.3-1.1c-0.7-0.7-1-1.5-1-2.4
		c0-0.4,0.1-0.8,0.2-1.4c0.2-0.6,0.2-0.9,0.2-1c0-0.1,0-0.2-0.1-0.3c-0.1-0.1-0.2-0.1-0.3-0.1c-0.1,0-0.3,0.1-0.5,0.3
		c-0.3,0.2-0.7,0.5-1.2,1c0,0.1-0.1,0.1-0.2,0.3c-0.1,0.1-0.2,0.3-0.3,0.4c-0.1-0.3-0.3-0.7-0.4-1C238.9,30,238.8,29.7,238.6,29.4z
		 M249.3,25.3c-0.1,0-0.2,0.1-0.3,0.2c-0.1,0.1-0.3,0.3-0.4,0.5c-0.2,0.3-0.4,0.7-0.7,1.1c-0.2,0.2-0.3,0.3-0.5,0.4
		c-0.2,0.1-0.4,0.2-0.6,0.2c-0.1,0-0.3,0.2-0.5,0.4c-0.2,0.3-0.3,0.7-0.5,1.2c-0.2,0.5-0.3,0.9-0.4,1.2c-0.1,0.3-0.1,0.6-0.1,0.8
		c0,0.4,0.1,0.7,0.3,0.9c0.2,0.2,0.5,0.3,1,0.3c0.7,0,1.3-0.2,1.9-0.6c0.6-0.4,1.1-1,1.6-1.7c0.2-0.3,0.5-0.6,0.7-0.8
		c0.1-0.1,0.2-0.2,0.3-0.4c0.1-0.2,0.1-0.5,0.2-0.7l0.4-1.3c-0.1-0.4-0.3-0.8-0.4-1.1c-0.1-0.3-0.2-0.4-0.4-0.5
		c-0.1,0-0.2-0.1-0.5-0.1C250.2,25.4,249.8,25.3,249.3,25.3z"/>
	<path class="st0" d="M254.8,29.4c0.3-0.4,0.9-0.8,1.6-1.3c0.7-0.5,1.2-0.9,1.6-1.3c0.2-0.3,0.5-0.6,0.9-1c0.4-0.4,0.8-0.8,1.3-1.4
		c0.3-0.3,0.6-0.5,0.9-0.6c0.3-0.1,0.6-0.2,0.9-0.2c0.4,0,0.6,0.1,0.8,0.3c0.2,0.2,0.3,0.5,0.3,0.8c0,0.6-0.2,1.5-0.7,2.8
		c-0.4,1.3-0.7,2.3-0.7,3c0,0.1,0,0.3,0.1,0.3c0.1,0.1,0.1,0.1,0.2,0.1l0.1,0c0.3-0.2,0.6-0.4,1-0.7c0.4-0.3,0.8-0.6,1.3-1
		c0.4-0.4,0.9-0.8,1.4-1.4c0.6-0.6,1.2-1.3,2-2c0.3-0.2,0.6-0.5,1-0.9c0.4-0.4,0.8-0.8,1.3-1.3c0.2-0.3,0.5-0.5,0.8-0.6
		c0.4-0.1,0.8-0.2,1.3-0.2c0.3,0,0.6,0.1,0.8,0.2c0.2,0.1,0.3,0.3,0.3,0.6c0,0.1,0,0.2,0,0.3c0,0.1,0,0.2-0.1,0.3
		c-0.1,0.4-0.3,1-0.5,1.6c-0.2,0.6-0.5,1.4-0.8,2.3c-0.3,0.6-0.5,1.2-0.8,2c-0.3,0.8-0.6,1.6-0.9,2.5l0.2,0.2
		c0.3-0.1,0.8-0.5,1.4-1.1s1.4-1.3,2.3-2.2l0.9,2.1c-0.1,0.1-0.3,0.3-0.4,0.4c-0.2,0.2-0.4,0.4-0.7,0.5c-1.6,1.1-3,2.3-4.1,3.4
		c-1.1,1.1-2,2.2-2.7,3.3c-1,1.6-1.8,3-2.5,4c-0.7,1-1.1,1.8-1.4,2.2c-1,1.4-2,2.4-2.9,3c-0.9,0.7-1.8,1-2.7,1
		c-0.3,0-0.6-0.1-0.7-0.2c-0.2-0.1-0.2-0.3-0.2-0.6c0-0.1,0-0.3,0.1-0.6c0.1-0.2,0.2-0.5,0.4-0.7c0.3-0.4,0.5-0.8,0.8-1.3l0.7-0.6
		c0.1-0.2,0.1-0.3,0.1-0.4c0.1-0.1,0.1-0.2,0.3-0.3c0.1-0.1,0.2-0.2,0.4-0.4c0.1-0.3,0.4-0.7,0.8-1.3c0.5-0.6,1.1-1.4,1.9-2.4
		c0.6-0.7,1.2-1.4,1.7-1.9c0.5-0.6,0.9-1,1.3-1.4c0.1-0.1,0.1-0.3,0.2-0.4c0.1-0.2,0.1-0.3,0.2-0.5c0.2-0.4,0.4-0.9,0.6-1.4
		c0.2-0.6,0.5-1.2,0.8-1.9c0.1-0.4,0.3-0.9,0.4-1.5c0.1-0.6,0.2-1.2,0.3-1.8c0-0.1,0-0.1-0.1-0.2c0-0.1,0-0.2-0.1-0.4
		c-0.3,0.1-0.6,0.3-0.9,0.6c-0.3,0.3-0.7,0.6-1,0.9c-0.5,0.6-1,1.2-1.5,1.6c-0.5,0.4-1,0.7-1.5,1c-0.3,0.6-0.7,1.1-1.3,1.4
		c-0.5,0.3-1.1,0.5-1.8,0.5c-0.5,0-0.9-0.1-1.1-0.3s-0.4-0.6-0.4-1.1c0-0.1,0-0.2,0-0.3c0-0.1,0.1-0.3,0.1-0.5
		c-0.1-0.1-0.1-0.4-0.2-0.6c0.1-0.3,0.1-0.5,0.2-0.8c0-0.4,0-0.8-0.1-1c-0.1-0.2-0.2-0.3-0.3-0.3l-0.1,0c-0.2,0.1-0.4,0.3-0.7,0.5
		c-0.3,0.2-0.7,0.5-1.1,0.9c-0.1-0.2-0.2-0.4-0.3-0.7c-0.1-0.3-0.2-0.6-0.3-0.9c0-0.1-0.1-0.2-0.1-0.2
		C254.9,29.5,254.8,29.4,254.8,29.4z"/>
</g>
<path class="st1" d="M8.1,21.9c0.2,0.6-0.1,1.6-0.1,2.4c0,1.3,0.1,2.4,0,2.4c-0.5,0.5-3.2-3.4-1.5-5.3C7.1,20.8,8,21.3,8.1,21.9z"/>
<path class="st2" d="M6.6,21.5c-0.3,0.3-0.4,0.7-0.5,1c0.7,0.2,1.4,0.4,2.1,0.6c0-0.4,0.1-0.9,0-1.2C8,21.3,7.1,20.8,6.6,21.5z"/>
<path class="st3" d="M129.3,43.8h2.9c0.4,0,0.8,0.1,1.1,0.2c0.3,0.1,0.6,0.3,0.8,0.5c0.2,0.2,0.3,0.4,0.4,0.6
	c0.1,0.2,0.1,0.5,0.1,0.8v0c0,0.3,0,0.5-0.1,0.8c-0.1,0.2-0.2,0.4-0.4,0.6c-0.2,0.2-0.4,0.3-0.6,0.4c-0.2,0.1-0.5,0.2-0.7,0.2
	l2.1,2.8H134l-2-2.7h0h-1.9v2.7h-0.8V43.8z M132.2,47.3c0.3,0,0.5,0,0.7-0.1c0.2-0.1,0.4-0.2,0.6-0.3c0.2-0.1,0.3-0.3,0.4-0.4
	c0.1-0.2,0.1-0.4,0.1-0.6v0c0-0.4-0.2-0.8-0.5-1c-0.3-0.2-0.7-0.4-1.3-0.4h-2.1v2.8H132.2z"/>
<path class="st3" d="M140.7,43.8h5v0.7h-4.2v2.4h3.7v0.7h-3.7v2.4h4.2v0.7h-5V43.8z"/>
<path class="st3" d="M153.9,50.7c-0.5,0-1-0.1-1.5-0.3c-0.5-0.2-0.9-0.5-1.3-0.8l0.5-0.6c0.4,0.3,0.7,0.6,1.1,0.7
	c0.4,0.2,0.8,0.2,1.3,0.2c0.5,0,0.8-0.1,1.1-0.3c0.3-0.2,0.4-0.5,0.4-0.8v0c0-0.2,0-0.3-0.1-0.4c-0.1-0.1-0.1-0.2-0.3-0.3
	c-0.1-0.1-0.3-0.2-0.5-0.3c-0.2-0.1-0.5-0.2-0.9-0.2c-0.4-0.1-0.7-0.2-1-0.3c-0.3-0.1-0.5-0.2-0.7-0.4c-0.2-0.2-0.3-0.3-0.4-0.5
	c-0.1-0.2-0.1-0.5-0.1-0.7v0c0-0.3,0.1-0.5,0.2-0.7c0.1-0.2,0.3-0.4,0.5-0.6c0.2-0.2,0.4-0.3,0.7-0.4c0.3-0.1,0.6-0.1,0.9-0.1
	c0.5,0,0.9,0.1,1.3,0.2c0.4,0.1,0.7,0.4,1.1,0.6l-0.5,0.6c-0.3-0.3-0.6-0.5-1-0.6c-0.3-0.1-0.7-0.2-1-0.2c-0.5,0-0.8,0.1-1.1,0.3
	c-0.3,0.2-0.4,0.5-0.4,0.8v0c0,0.2,0,0.3,0.1,0.4c0.1,0.1,0.1,0.2,0.3,0.4c0.1,0.1,0.3,0.2,0.6,0.3c0.2,0.1,0.6,0.2,0.9,0.2
	c0.8,0.2,1.3,0.4,1.7,0.7c0.4,0.3,0.5,0.7,0.5,1.2v0c0,0.3-0.1,0.6-0.2,0.8c-0.1,0.2-0.3,0.4-0.5,0.6c-0.2,0.2-0.4,0.3-0.7,0.4
	C154.6,50.7,154.3,50.7,153.9,50.7z"/>
<path class="st3" d="M164,44.5h-2.3v-0.7h5.4v0.7h-2.3v6.1H164V44.5z"/>
<path class="st3" d="M175.3,43.7h0.7l3.1,6.9h-0.8l-0.8-1.8h-3.7l-0.8,1.8h-0.8L175.3,43.7z M177.2,48.1l-1.6-3.5l-1.6,3.5H177.2z"
	/>
<path class="st3" d="M187.6,50.7c-0.4,0-0.8-0.1-1.2-0.2c-0.3-0.1-0.6-0.3-0.9-0.6c-0.3-0.3-0.4-0.6-0.6-0.9
	c-0.1-0.4-0.2-0.8-0.2-1.3v-4h0.8v3.9c0,0.7,0.2,1.3,0.6,1.7c0.4,0.4,0.9,0.6,1.5,0.6c0.6,0,1.1-0.2,1.5-0.6
	c0.4-0.4,0.6-0.9,0.6-1.7v-4h0.8v3.9c0,0.5-0.1,0.9-0.2,1.3c-0.1,0.4-0.3,0.7-0.6,0.9c-0.3,0.3-0.6,0.4-0.9,0.6
	C188.4,50.7,188,50.7,187.6,50.7z"/>
<path class="st3" d="M196.6,43.8h2.9c0.4,0,0.8,0.1,1.1,0.2c0.3,0.1,0.6,0.3,0.8,0.5c0.2,0.2,0.3,0.4,0.4,0.6
	c0.1,0.2,0.1,0.5,0.1,0.8v0c0,0.3,0,0.5-0.1,0.8c-0.1,0.2-0.2,0.4-0.4,0.6c-0.2,0.2-0.4,0.3-0.6,0.4c-0.2,0.1-0.5,0.2-0.7,0.2
	l2.1,2.8h-0.9l-2-2.7h0h-1.9v2.7h-0.8V43.8z M199.4,47.3c0.3,0,0.5,0,0.7-0.1c0.2-0.1,0.4-0.2,0.6-0.3c0.2-0.1,0.3-0.3,0.4-0.4
	c0.1-0.2,0.1-0.4,0.1-0.6v0c0-0.4-0.2-0.8-0.5-1c-0.3-0.2-0.7-0.4-1.3-0.4h-2.1v2.8H199.4z"/>
<path class="st3" d="M210.5,43.7h0.7l3.1,6.9h-0.8l-0.8-1.8H209l-0.8,1.8h-0.8L210.5,43.7z M212.4,48.1l-1.6-3.5l-1.6,3.5H212.4z"/>
<path class="st3" d="M220,43.8h0.7l4.3,5.5v-5.5h0.8v6.8h-0.6l-4.4-5.6v5.6H220V43.8z"/>
<path class="st3" d="M233.8,44.5h-2.3v-0.7h5.4v0.7h-2.3v6.1h-0.8V44.5z"/>
<path class="st0" d="M4.1,22c0,0,5.1,1.3,5.7,1.7C9.8,23.7,8.6,18.5,4.1,22z"/>
</svg>
