<svg id="Layer_1" xmlns="http://www.w3.org/2000/svg" viewBox="0 0 171 100"><style>.st0{fill:#0071bc}.st1{fill:#fff}.st2,.st3,.st4{fill:#a1cde5}.st3,.st4{stroke:#0071bc;stroke-width:2.6154;stroke-miterlimit:10}.st4{stroke-width:2}</style><path class="st0" d="M82.1 16.2c11.5 0 20.8 9.3 20.8 20.8s-9.3 20.8-20.8 20.8S61.3 48.5 61.3 37s9.3-20.8 20.8-20.8zm0 5.2c-8.6 0-15.6 7-15.6 15.6s7 15.6 15.6 15.6 15.6-7 15.6-15.6-7-15.6-15.6-15.6z"/><path class="st1" d="M82.1 20.5c9.1 0 16.5 7.4 16.5 16.5s-7.4 16.5-16.5 16.5S65.6 46.1 65.6 37c0-9.2 7.4-16.5 16.5-16.5z"/><path class="st0" d="M82.1 25c-6.6 0-11.9 5.3-11.9 11.9s5.3 11.9 11.9 11.9C88.7 48.9 94 43.6 94 37s-5.3-12-11.9-12zm-7.3 14.1c-.7-.8-1.1-1.9-1.2-3-.5-3.5 2.1-6.8 5.8-7.2 1.6-.2 3.2.2 4.5 1-1.8.7-3.7 2-5.4 3.7-1.7 1.6-3 3.6-3.7 5.5zm4.6-3.5c0 .2-.7-.2-.7-.7 0-.7.6-1.3 1.3-1.3.5 0 .9.7.7.7m1.7 4.9c-1.2.2-2.4-.7-2.6-2s.7-2.4 2-2.6c1.2-.2 2.4.7 2.6 2 .1 1.3-.8 2.5-2 2.6zm6.2 5.2c-.5 0-.9-.4-.9-.9s.4-.9.9-.9.9.4.9.9-.4.9-.9.9z"/><path class="st2" d="M5.3 56.5h3.4v13.4h.1c.4-1 1.2-1.7 2.2-2.3 1.1-.6 2.3-.9 3.7-.9.9 0 1.7.1 2.5.4.8.3 1.5.7 2.1 1.2.6.6 1.1 1.3 1.4 2.1.4.9.5 1.9.5 3.1v11.6h-3.4V74.5c0-.8-.1-1.5-.3-2.1-.2-.6-.5-1.1-.9-1.4-.4-.4-.8-.6-1.3-.8-.5-.2-1-.2-1.5-.2-.7 0-1.4.1-2 .3-.6.2-1.1.6-1.6 1.1-.5.5-.8 1.1-1.1 1.9-.3.8-.4 1.7-.4 2.7v9.2H5.3V56.5zm20 12.9c1-.9 2.1-1.5 3.3-2 1.3-.4 2.5-.7 3.8-.7 1.3 0 2.4.2 3.4.5.9.3 1.7.8 2.3 1.3s1.1 1.2 1.3 1.9.4 1.5.4 2.3v10.9c0 .5.1 1 .1 1.5h-3c-.1-.9-.1-1.8-.1-2.7h-.1c-.8 1.2-1.7 2-2.7 2.5-1 .5-2.2.7-3.6.7-.8 0-1.6-.1-2.4-.3-.8-.2-1.4-.6-2-1s-1-1-1.3-1.7c-.3-.7-.5-1.4-.5-2.3 0-1.2.3-2.1.8-2.9.5-.8 1.2-1.4 2.1-1.9.9-.5 1.9-.8 3.1-1.1 1.2-.2 2.5-.3 3.8-.3h2.5v-.8c0-.5-.1-.9-.3-1.4-.2-.5-.4-.9-.8-1.2-.4-.4-.8-.7-1.3-.9-.5-.2-1.2-.3-1.9-.3s-1.2.1-1.7.2-.9.3-1.3.5-.8.4-1.1.7c-.3.3-.6.5-.9.7l-1.9-2.2zm9.6 7.1c-.8 0-1.6 0-2.5.1-.8.1-1.6.3-2.3.5-.7.3-1.3.6-1.7 1.1-.4.5-.7 1-.7 1.7 0 1 .3 1.8 1 2.2s1.6.7 2.8.7c.9 0 1.7-.2 2.4-.5s1.2-.7 1.6-1.2c.4-.5.7-1.1.9-1.7.2-.6.3-1.2.3-1.8v-1.1h-1.8zm8.3-15.8c0-.7.2-1.3.7-1.8.5-.5 1.1-.7 1.8-.7s1.3.2 1.8.7c.5.5.7 1.1.7 1.8s-.2 1.3-.7 1.8c-.5.5-1.1.7-1.8.7s-1.3-.2-1.8-.7c-.4-.5-.7-1.1-.7-1.8zm.8 6.5h3.4v18H44v-18zm7.7 0h3.4V70h.1c.2-.5.5-.9.9-1.3s.8-.7 1.3-1c.5-.3 1-.5 1.5-.7.6-.2 1.1-.2 1.7-.2s1.1.1 1.5.2l-.2 3.7c-.3-.1-.6-.1-.8-.2-.3-.1-.6-.1-.8-.1-1.7 0-2.9.5-3.8 1.4-.9.9-1.3 2.4-1.3 4.4v9h-3.4v-18z"/><path class="st0" d="M74.5 72.1c-.8-1-1.9-1.6-3.3-1.6-.5 0-.9.1-1.4.3-.5.2-.7.6-.7 1.2 0 .5.2.8.7 1 .5.2 1.1.4 1.8.6.7.2 1.5.3 2.3.5.8.2 1.6.5 2.3.9.7.4 1.3 1 1.8 1.6.5.7.7 1.6.7 2.8 0 1.2-.3 2.2-.8 2.9-.5.8-1.2 1.4-2 1.9s-1.7.8-2.7 1c-1 .2-2 .3-3 .3-1.3 0-2.6-.2-3.9-.5s-2.4-1-3.3-2l3.4-3.8c.5.7 1.1 1.2 1.8 1.5.6.3 1.4.5 2.3.5.7 0 1.2-.1 1.8-.3s.8-.5.8-1-.2-.8-.7-1.1c-.5-.2-1.1-.4-1.8-.6-.7-.2-1.5-.3-2.3-.5-.8-.2-1.6-.5-2.3-.9s-1.3-.9-1.8-1.6c-.5-.7-.7-1.6-.7-2.8 0-1.1.2-2 .7-2.8.4-.8 1-1.4 1.7-1.9s1.5-.9 2.5-1.1c.9-.2 1.9-.4 2.8-.4 1.2 0 2.4.2 3.7.5 1.2.4 2.3 1 3.1 1.9l-3.5 3.5zm5.9-5.4h5.5v2.5h.1c.2-.4.4-.7.8-1.1.3-.4.7-.7 1.2-.9.5-.3 1-.5 1.6-.7.6-.2 1.2-.3 1.9-.3 1.4 0 2.6.2 3.5.7.9.4 1.6 1.1 2.1 1.8.5.8.8 1.7 1 2.8.2 1.1.3 2.2.3 3.4v10.2h-5.7v-9c0-.5 0-1.1-.1-1.6 0-.6-.2-1.1-.3-1.6-.2-.5-.5-.9-.9-1.2s-1-.5-1.7-.5-1.3.1-1.8.4c-.5.3-.8.6-1 1.1-.2.4-.4.9-.5 1.5-.1.6-.1 1.1-.1 1.7v9.2h-5.7V66.7zm32.2 16.1c-.7 1-1.5 1.7-2.6 2.1s-2.2.6-3.3.6c-.9 0-1.7-.1-2.5-.4-.8-.2-1.5-.6-2.1-1.1-.6-.5-1.1-1.1-1.4-1.8-.4-.7-.5-1.5-.5-2.5 0-1.1.2-2 .6-2.7.4-.7.9-1.3 1.6-1.8.7-.5 1.4-.9 2.3-1.1.9-.3 1.7-.5 2.7-.6.9-.1 1.8-.2 2.8-.2h2.6c0-1-.4-1.8-1.1-2.4-.7-.6-1.6-.9-2.6-.9-.9 0-1.8.2-2.6.6-.8.4-1.5.9-2.1 1.6l-3-3.1c1.1-1 2.3-1.7 3.7-2.2 1.4-.5 2.9-.7 4.4-.7 1.7 0 3 .2 4.1.6 1.1.4 1.9 1 2.6 1.8.6.8 1.1 1.8 1.3 3 .3 1.2.4 2.5.4 4.1v9.4h-5.2v-2.3zm-1.4-5.7c-.4 0-1 0-1.6.1-.6 0-1.3.1-1.9.3-.6.2-1.1.4-1.5.8-.4.4-.6.8-.6 1.5s.3 1.2.9 1.5c.6.3 1.2.5 1.8.5.6 0 1.1-.1 1.6-.2.5-.2 1-.4 1.4-.6.4-.3.7-.6 1-1.1.2-.4.4-.9.4-1.5v-1.2h-1.5zm9.6-10.4h5.2v2.4h.1c.2-.3.5-.7.9-1 .4-.3.8-.6 1.3-.9.5-.3 1-.5 1.6-.7.6-.2 1.2-.3 1.9-.3 1.4 0 2.6.2 3.7.7s2.1 1.1 2.9 2c.8.8 1.4 1.9 1.8 3 .4 1.2.6 2.4.6 3.8 0 1.3-.2 2.5-.6 3.7-.4 1.2-.9 2.2-1.7 3.1-.7.9-1.6 1.6-2.6 2.2-1 .5-2.2.8-3.5.8-1.2 0-2.3-.2-3.3-.5s-1.9-1-2.5-1.9h-.1v10.6h-5.7v-27zm5.2 9.2c0 1.4.4 2.5 1.2 3.4.8.9 1.9 1.3 3.4 1.3 1.4 0 2.6-.4 3.4-1.3.8-.9 1.2-2 1.2-3.4s-.4-2.5-1.2-3.4c-.8-.9-1.9-1.3-3.4-1.3-1.4 0-2.6.4-3.4 1.3-.8.9-1.2 2-1.2 3.4zm17.5-9.2h5.2v2.4h.1c.2-.3.5-.7.9-1 .4-.3.8-.6 1.3-.9.5-.3 1-.5 1.6-.7.6-.2 1.2-.3 1.9-.3 1.4 0 2.6.2 3.7.7s2.1 1.1 2.9 2c.8.8 1.4 1.9 1.8 3 .4 1.2.6 2.4.6 3.8 0 1.3-.2 2.5-.6 3.7-.4 1.2-.9 2.2-1.7 3.1-.7.9-1.6 1.6-2.6 2.2-1 .5-2.2.8-3.5.8-1.2 0-2.3-.2-3.3-.5s-1.9-1-2.5-1.9h-.1v10.6h-5.7v-27zm5.2 9.2c0 1.4.4 2.5 1.2 3.4.8.9 1.9 1.3 3.4 1.3 1.4 0 2.6-.4 3.4-1.3.8-.9 1.2-2 1.2-3.4s-.4-2.5-1.2-3.4c-.8-.9-1.9-1.3-3.4-1.3-1.4 0-2.6.4-3.4 1.3-.8.9-1.2 2-1.2 3.4z"/><path class="st3" d="M123.2 17.3h-11.9c-2.5 0-4.5-2-4.5-4.5V8.6c0-1.6 1.3-3 3-3h14.9c1.6 0 3 1.3 3 3v4.2c0 2.5-2 4.5-4.5 4.5z"/><path class="st0" d="M82.2 8.6h41.5c9.2 0 15 5.8 15 14.9V47c0 1.3.2 3-1.6 3.1-1.7 0-1.9-1.5-1.9-2.9V25.7c0-1.3.6-3.1-1.9-3.2-2.8-.1-2.2 1.9-2.2 3.4-.1 3 0 6 0 9 0 1.1-.5 2.1-1.6 2.2-1.5.2-2-.9-2.1-2.2-.1-3 0-6-.1-9 0-1.6.6-3.5-2.2-3.4-2.5.1-1.8 1.9-1.9 3.2-.1 2.7 0 5.3 0 8 0 1.4.4 3.4-1.8 3.4-1.8 0-1.6-1.8-1.6-3.1-.1-2.8-.1-5.7-.1-8.5 0-1.5.1-3-2.2-3-2.4 0-2 1.7-2 3.1v9c0 1.2-.2 2.6-1.7 2.5-1.5-.1-1.6-1.4-1.6-2.6V25c0-1.6-.3-2.5-2.2-2.5-1.9 0-2.1 1.2-2.1 2.6 0 3.2 0 6.3-.1 9.5 0 1.2-.3 2.5-1.8 2.5-1.6 0-1.6-1.3-1.6-2.5 0-2.7.1-5.3-.1-8-.1-1.5 1.2-4-2-4-3.5-.1-2.2 2.6-2.3 4.3-.2 2.7-.1 5.3-.1 8 0 1.1-.3 2.2-1.4 2.3-1.4.2-2-1-2.1-2.2-.1-2.8.1-5.7-.1-8.5-.1-1.5 1.1-4.1-2.2-3.9-3.2.2-1.8 2.6-1.9 4.2-.2 2.5-.1 5-.1 7.5 0 1.4 0 3-1.8 2.9-1.7-.1-1.8-1.6-1.8-3v-9c0-1.4-.1-2.6-2.1-2.6s-2.1 1.1-2.1 2.5v9.5c0 1.3-.2 2.5-1.6 2.6-1.5.1-1.8-1.2-1.8-2.5-.1-2.7 0-5.3-.2-8-.1-1.5 1.2-4-2-4.1-3.2-.1-2.1 2.3-2.2 3.9-.1 2.3 0 4.7-.1 7 0 1.4.5 3.6-1.5 3.6-2.5 0-1.7-2.4-1.7-3.9-.1-2.3.1-4.7-.1-7-.1-1.5.8-3.6-2-3.7-3.2-.1-2.2 2.3-2.3 3.9-.1 2.8 0 5.7-.1 8.5 0 1-.4 2.1-1.6 2.2-1.5.1-1.9-1.1-1.9-2.3v-9.5c0-1.3.3-2.7-1.8-2.8-2.2-.1-2.4 1.2-2.3 2.8v8.5c0 1.5-.1 3.4-2.1 3.3-1.7-.1-1.6-1.8-1.6-3.1v-9c0-1.5-.3-2.5-2.2-2.5-1.9 0-2.2 1-2.1 2.5v8.5c0 1.4.4 3.5-1.6 3.6-2.3 0-2-2.2-2-3.8 0-2.7-.1-5.3 0-8 0-1.7-.2-2.9-2.4-2.8-2.1.1-1.8 1.5-1.8 2.8v9.5c0 1.3-.4 2.4-1.9 2.3-1.2-.1-1.5-1.2-1.5-2.2-.1-3.2-.1-6.3-.1-9.5 0-1.6-.1-3-2.3-2.9-2 .1-2 1.3-2 2.7v8.5c0 1.4.5 3.4-1.8 3.4-1.8-.1-1.5-1.9-1.5-3.2 0-2.5.1-5 0-7.5-.1-1.6.9-4-2.3-3.9-2.8.1-1.9 2.2-2 3.7-.1 2.8 0 18.7-.1 21.5 0 1.2-.3 2.5-1.9 2.4-1.5-.1-1.6-1.4-1.6-2.6 0-4.7-.3-22.4.1-27 .6-6.7 7-11.8 14.5-11.8 13.7-.1 27.5-.1 41.3-.1z"/><path class="st2" d="M122.8 16.5h-11c-2.1 0-3.7-1.7-3.7-3.7v-4c0-1.4 1.1-1.6 2.5-1.6H124c1.4 0 2.5 1.1 2.5 2.5v3c0 2.1-1.7 3.8-3.7 3.8z"/><path class="st4" d="M48.4 10.5h-8.6c-.8 0-1.5-.7-1.5-1.5V6.6c0-.8.7-1.5 1.5-1.5h8.6c.8 0 1.5.7 1.5 1.5V9c0 .8-.7 1.5-1.5 1.5z"/><path class="st2" d="M134.4 19.1h-5.8c-31 0-62 0-92.9-.1-1.5 0-3.8 1.1-4.3-1.1-.4-1.7 1.5-2.8 2.8-3.8 1.6-1.3 3.5-1.8 5.6-1.8h85.4c4.3 0 7 2.2 9.2 6.8z"/><path class="st0" d="M82.1 57.7c-11.5 0-20.8-9.3-20.8-20.8s9.3-20.8 20.8-20.8 20.8 9.3 20.8 20.8c-.1 11.5-9.4 20.8-20.8 20.8"/><circle class="st0" cx="82.1" cy="37" r="15.6"/><path class="st1" d="M82.1 20.5c9.1 0 16.5 7.4 16.5 16.5s-7.4 16.5-16.5 16.5S65.6 46.1 65.6 37c0-9.2 7.4-16.5 16.5-16.5z"/><path class="st0" d="M82.1 25c-6.6 0-11.9 5.3-11.9 11.9s5.3 11.9 11.9 11.9C88.7 48.9 94 43.6 94 37s-5.3-12-11.9-12zm-7.3 14.1c-.7-.8-1.1-1.9-1.2-3-.5-3.5 2.1-6.8 5.8-7.2 1.6-.2 3.2.2 4.5 1-1.8.7-3.7 2-5.4 3.7-1.7 1.6-3 3.6-3.7 5.5zm4.6-3.5c0 .2-.7-.2-.7-.7 0-.7.6-1.3 1.3-1.3.5 0 .9.7.7.7m1.7 4.9c-1.2.2-2.4-.7-2.6-2s.7-2.4 2-2.6c1.2-.2 2.4.7 2.6 2 .1 1.3-.8 2.5-2 2.6zm6.2 5.2c-.5 0-.9-.4-.9-.9s.4-.9.9-.9.9.4.9.9-.4.9-.9.9z"/></svg>