<?xml version="1.0" encoding="utf-8"?>
<!-- Generator: Adobe Illustrator 21.1.0, SVG Export Plug-In . SVG Version: 6.00 Build 0)  -->
<!DOCTYPE svg PUBLIC "-//W3C//DTD SVG 1.1//EN" "http://www.w3.org/Graphics/SVG/1.1/DTD/svg11.dtd">
<svg version="1.1" id="Layer_1" xmlns="http://www.w3.org/2000/svg" xmlns:xlink="http://www.w3.org/1999/xlink" x="0px" y="0px"
	 viewBox="0 0 171 100" style="enable-background:new 0 0 171 100;" xml:space="preserve">
<style type="text/css">
	.st0{fill:#0071BC;}
	.st1{fill:#FFFFFF;}
	.st2{fill:#A1CDE5;}
	.st3{fill:#A1CDE5;stroke:#0071BC;stroke-width:2.6154;stroke-miterlimit:10;}
	.st4{fill:#A1CDE5;stroke:#0071BC;stroke-width:2;stroke-miterlimit:10;}
</style>
<path class="st0" d="M82.1,16.2c11.5,0,20.8,9.3,20.8,20.8c0,11.5-9.3,20.8-20.8,20.8c-11.5,0-20.8-9.3-20.8-20.8
	C61.3,25.5,70.6,16.2,82.1,16.2L82.1,16.2z M82.1,21.4c-8.6,0-15.6,7-15.6,15.6s7,15.6,15.6,15.6c8.6,0,15.6-7,15.6-15.6
	S90.7,21.4,82.1,21.4z"/>
<path class="st1" d="M82.1,20.5c9.1,0,16.5,7.4,16.5,16.5c0,9.1-7.4,16.5-16.5,16.5c-9.1,0-16.5-7.4-16.5-16.5
	C65.6,27.8,73,20.5,82.1,20.5L82.1,20.5z"/>
<path class="st0" d="M82.1,25c-6.6,0-11.9,5.3-11.9,11.9s5.3,11.9,11.9,11.9C88.7,48.9,94,43.6,94,37S88.7,25,82.1,25z M74.8,39.1
	c-0.7-0.8-1.1-1.9-1.2-3c-0.5-3.5,2.1-6.8,5.8-7.2c1.6-0.2,3.2,0.2,4.5,1c-1.8,0.7-3.7,2-5.4,3.7C76.8,35.2,75.5,37.2,74.8,39.1z
	 M79.4,35.6c0,0.2-0.7-0.2-0.7-0.7c0-0.7,0.6-1.3,1.3-1.3c0.5,0,0.9,0.7,0.7,0.7 M82.4,39.2c-1.2,0.2-2.4-0.7-2.6-2s0.7-2.4,2-2.6
	c1.2-0.2,2.4,0.7,2.6,2C84.5,37.9,83.6,39.1,82.4,39.2z M88.6,44.4c-0.5,0-0.9-0.4-0.9-0.9c0-0.5,0.4-0.9,0.9-0.9
	c0.5,0,0.9,0.4,0.9,0.9C89.5,44,89.1,44.4,88.6,44.4z"/>
<g>
	<path class="st2" d="M5.3,56.5h3.4v13.4h0.1c0.4-1,1.2-1.7,2.2-2.3c1.1-0.6,2.3-0.9,3.7-0.9c0.9,0,1.7,0.1,2.5,0.4
		c0.8,0.3,1.5,0.7,2.1,1.2c0.6,0.6,1.1,1.3,1.4,2.1c0.4,0.9,0.5,1.9,0.5,3.1v11.6h-3.4V74.5c0-0.8-0.1-1.5-0.3-2.1
		c-0.2-0.6-0.5-1.1-0.9-1.4c-0.4-0.4-0.8-0.6-1.3-0.8c-0.5-0.2-1-0.2-1.5-0.2c-0.7,0-1.4,0.1-2,0.3c-0.6,0.2-1.1,0.6-1.6,1.1
		c-0.5,0.5-0.8,1.1-1.1,1.9c-0.3,0.8-0.4,1.7-0.4,2.7v9.2H5.3V56.5z"/>
	<path class="st2" d="M25.3,69.4c1-0.9,2.1-1.5,3.3-2c1.3-0.4,2.5-0.7,3.8-0.7c1.3,0,2.4,0.2,3.4,0.5c0.9,0.3,1.7,0.8,2.3,1.3
		s1.1,1.2,1.3,1.9s0.4,1.5,0.4,2.3v9.2c0,0.6,0,1.2,0,1.7c0,0.5,0.1,1,0.1,1.5h-3c-0.1-0.9-0.1-1.8-0.1-2.7h-0.1
		c-0.8,1.2-1.7,2-2.7,2.5c-1,0.5-2.2,0.7-3.6,0.7c-0.8,0-1.6-0.1-2.4-0.3c-0.8-0.2-1.4-0.6-2-1s-1-1-1.3-1.7
		c-0.3-0.7-0.5-1.4-0.5-2.3c0-1.2,0.3-2.1,0.8-2.9c0.5-0.8,1.2-1.4,2.1-1.9c0.9-0.5,1.9-0.8,3.1-1.1c1.2-0.2,2.5-0.3,3.8-0.3h2.5
		v-0.8c0-0.5-0.1-0.9-0.3-1.4c-0.2-0.5-0.4-0.9-0.8-1.2c-0.4-0.4-0.8-0.7-1.3-0.9c-0.5-0.2-1.2-0.3-1.9-0.3c-0.7,0-1.2,0.1-1.7,0.2
		c-0.5,0.1-0.9,0.3-1.3,0.5c-0.4,0.2-0.8,0.4-1.1,0.7c-0.3,0.3-0.6,0.5-0.9,0.7L25.3,69.4z M34.9,76.5c-0.8,0-1.6,0-2.5,0.1
		c-0.8,0.1-1.6,0.3-2.3,0.5c-0.7,0.3-1.3,0.6-1.7,1.1c-0.4,0.5-0.7,1-0.7,1.7c0,1,0.3,1.8,1,2.2s1.6,0.7,2.8,0.7
		c0.9,0,1.7-0.2,2.4-0.5c0.7-0.3,1.2-0.7,1.6-1.2c0.4-0.5,0.7-1.1,0.9-1.7c0.2-0.6,0.3-1.2,0.3-1.8v-1.1H34.9z"/>
	<path class="st2" d="M43.2,60.7c0-0.7,0.2-1.3,0.7-1.8c0.5-0.5,1.1-0.7,1.8-0.7c0.7,0,1.3,0.2,1.8,0.7c0.5,0.5,0.7,1.1,0.7,1.8
		S48,62,47.5,62.5c-0.5,0.5-1.1,0.7-1.8,0.7c-0.7,0-1.3-0.2-1.8-0.7C43.5,62,43.2,61.4,43.2,60.7z M44,67.2h3.4v18H44V67.2z"/>
	<path class="st2" d="M51.7,67.2h3.4v2.8h0.1c0.2-0.5,0.5-0.9,0.9-1.3c0.4-0.4,0.8-0.7,1.3-1c0.5-0.3,1-0.5,1.5-0.7
		c0.6-0.2,1.1-0.2,1.7-0.2s1.1,0.1,1.5,0.2l-0.2,3.7c-0.3-0.1-0.6-0.1-0.8-0.2c-0.3-0.1-0.6-0.1-0.8-0.1c-1.7,0-2.9,0.5-3.8,1.4
		c-0.9,0.9-1.3,2.4-1.3,4.4v9h-3.4V67.2z"/>
	<path class="st0" d="M74.5,72.1c-0.8-1-1.9-1.6-3.3-1.6c-0.5,0-0.9,0.1-1.4,0.3c-0.5,0.2-0.7,0.6-0.7,1.2c0,0.5,0.2,0.8,0.7,1
		c0.5,0.2,1.1,0.4,1.8,0.6c0.7,0.2,1.5,0.3,2.3,0.5c0.8,0.2,1.6,0.5,2.3,0.9c0.7,0.4,1.3,1,1.8,1.6c0.5,0.7,0.7,1.6,0.7,2.8
		c0,1.2-0.3,2.2-0.8,2.9c-0.5,0.8-1.2,1.4-2,1.9c-0.8,0.5-1.7,0.8-2.7,1c-1,0.2-2,0.3-3,0.3c-1.3,0-2.6-0.2-3.9-0.5s-2.4-1-3.3-2
		l3.4-3.8c0.5,0.7,1.1,1.2,1.8,1.5c0.6,0.3,1.4,0.5,2.3,0.5c0.7,0,1.2-0.1,1.8-0.3s0.8-0.5,0.8-1c0-0.5-0.2-0.8-0.7-1.1
		c-0.5-0.2-1.1-0.4-1.8-0.6c-0.7-0.2-1.5-0.3-2.3-0.5c-0.8-0.2-1.6-0.5-2.3-0.9s-1.3-0.9-1.8-1.6c-0.5-0.7-0.7-1.6-0.7-2.8
		c0-1.1,0.2-2,0.7-2.8c0.4-0.8,1-1.4,1.7-1.9c0.7-0.5,1.5-0.9,2.5-1.1c0.9-0.2,1.9-0.4,2.8-0.4c1.2,0,2.4,0.2,3.7,0.5
		c1.2,0.4,2.3,1,3.1,1.9L74.5,72.1z"/>
	<path class="st0" d="M80.4,66.7h5.5v2.5H86c0.2-0.4,0.4-0.7,0.8-1.1c0.3-0.4,0.7-0.7,1.2-0.9c0.5-0.3,1-0.5,1.6-0.7
		c0.6-0.2,1.2-0.3,1.9-0.3c1.4,0,2.6,0.2,3.5,0.7c0.9,0.4,1.6,1.1,2.1,1.8c0.5,0.8,0.8,1.7,1,2.8c0.2,1.1,0.3,2.2,0.3,3.4v10.2h-5.7
		v-9c0-0.5,0-1.1-0.1-1.6c0-0.6-0.2-1.1-0.3-1.6c-0.2-0.5-0.5-0.9-0.9-1.2s-1-0.5-1.7-0.5s-1.3,0.1-1.8,0.4c-0.5,0.3-0.8,0.6-1,1.1
		c-0.2,0.4-0.4,0.9-0.5,1.5c-0.1,0.6-0.1,1.1-0.1,1.7v9.2h-5.7V66.7z"/>
	<path class="st0" d="M112.6,82.8L112.6,82.8c-0.7,1-1.5,1.7-2.6,2.1s-2.2,0.6-3.3,0.6c-0.9,0-1.7-0.1-2.5-0.4
		c-0.8-0.2-1.5-0.6-2.1-1.1c-0.6-0.5-1.1-1.1-1.4-1.8c-0.4-0.7-0.5-1.5-0.5-2.5c0-1.1,0.2-2,0.6-2.7c0.4-0.7,0.9-1.3,1.6-1.8
		c0.7-0.5,1.4-0.9,2.3-1.1c0.9-0.3,1.7-0.5,2.7-0.6c0.9-0.1,1.8-0.2,2.8-0.2c0.9,0,1.8,0,2.6,0c0-1-0.4-1.8-1.1-2.4
		c-0.7-0.6-1.6-0.9-2.6-0.9c-0.9,0-1.8,0.2-2.6,0.6c-0.8,0.4-1.5,0.9-2.1,1.6l-3-3.1c1.1-1,2.3-1.7,3.7-2.2c1.4-0.5,2.9-0.7,4.4-0.7
		c1.7,0,3,0.2,4.1,0.6c1.1,0.4,1.9,1,2.6,1.8c0.6,0.8,1.1,1.8,1.3,3c0.3,1.2,0.4,2.5,0.4,4.1v9.4h-5.2V82.8z M111.2,77.1
		c-0.4,0-1,0-1.6,0.1c-0.6,0-1.3,0.1-1.9,0.3c-0.6,0.2-1.1,0.4-1.5,0.8c-0.4,0.4-0.6,0.8-0.6,1.5c0,0.7,0.3,1.2,0.9,1.5
		c0.6,0.3,1.2,0.5,1.8,0.5c0.6,0,1.1-0.1,1.6-0.2c0.5-0.2,1-0.4,1.4-0.6c0.4-0.3,0.7-0.6,1-1.1c0.2-0.4,0.4-0.9,0.4-1.5v-1.2H111.2z
		"/>
	<path class="st0" d="M120.8,66.7h5.2v2.4h0.1c0.2-0.3,0.5-0.7,0.9-1c0.4-0.3,0.8-0.6,1.3-0.9c0.5-0.3,1-0.5,1.6-0.7
		c0.6-0.2,1.2-0.3,1.9-0.3c1.4,0,2.6,0.2,3.7,0.7s2.1,1.1,2.9,2c0.8,0.8,1.4,1.9,1.8,3c0.4,1.2,0.6,2.4,0.6,3.8
		c0,1.3-0.2,2.5-0.6,3.7c-0.4,1.2-0.9,2.2-1.7,3.1c-0.7,0.9-1.6,1.6-2.6,2.2c-1,0.5-2.2,0.8-3.5,0.8c-1.2,0-2.3-0.2-3.3-0.5
		s-1.9-1-2.5-1.9h-0.1v10.6h-5.7V66.7z M126,75.9c0,1.4,0.4,2.5,1.2,3.4c0.8,0.9,1.9,1.3,3.4,1.3c1.4,0,2.6-0.4,3.4-1.3
		c0.8-0.9,1.2-2,1.2-3.4s-0.4-2.5-1.2-3.4c-0.8-0.9-1.9-1.3-3.4-1.3c-1.4,0-2.6,0.4-3.4,1.3C126.4,73.4,126,74.5,126,75.9z"/>
	<path class="st0" d="M143.5,66.7h5.2v2.4h0.1c0.2-0.3,0.5-0.7,0.9-1c0.4-0.3,0.8-0.6,1.3-0.9c0.5-0.3,1-0.5,1.6-0.7
		c0.6-0.2,1.2-0.3,1.9-0.3c1.4,0,2.6,0.2,3.7,0.7s2.1,1.1,2.9,2c0.8,0.8,1.4,1.9,1.8,3c0.4,1.2,0.6,2.4,0.6,3.8
		c0,1.3-0.2,2.5-0.6,3.7c-0.4,1.2-0.9,2.2-1.7,3.1c-0.7,0.9-1.6,1.6-2.6,2.2c-1,0.5-2.2,0.8-3.5,0.8c-1.2,0-2.3-0.2-3.3-0.5
		s-1.9-1-2.5-1.9h-0.1v10.6h-5.7V66.7z M148.7,75.9c0,1.4,0.4,2.5,1.2,3.4c0.8,0.9,1.9,1.3,3.4,1.3c1.4,0,2.6-0.4,3.4-1.3
		c0.8-0.9,1.2-2,1.2-3.4s-0.4-2.5-1.2-3.4c-0.8-0.9-1.9-1.3-3.4-1.3c-1.4,0-2.6,0.4-3.4,1.3C149.1,73.4,148.7,74.5,148.7,75.9z"/>
</g>
<path class="st3" d="M123.2,17.3h-11.9c-2.5,0-4.5-2-4.5-4.5V8.6c0-1.6,1.3-3,3-3h14.9c1.6,0,3,1.3,3,3v4.2
	C127.7,15.3,125.7,17.3,123.2,17.3z"/>
<path class="st0" d="M82.2,8.6c13.8,0,27.7,0,41.5,0c9.2,0,15,5.8,15,14.9c0,3.5,0,20,0,23.5c0,1.3,0.2,3-1.6,3.1
	c-1.7,0-1.9-1.5-1.9-2.9c0-2.8,0-18.7,0-21.5c0-1.3,0.6-3.1-1.9-3.2c-2.8-0.1-2.2,1.9-2.2,3.4c-0.1,3,0,6,0,9c0,1.1-0.5,2.1-1.6,2.2
	c-1.5,0.2-2-0.9-2.1-2.2c-0.1-3,0-6-0.1-9c0-1.6,0.6-3.5-2.2-3.4c-2.5,0.1-1.8,1.9-1.9,3.2c-0.1,2.7,0,5.3,0,8
	c0,1.4,0.4,3.4-1.8,3.4c-1.8,0-1.6-1.8-1.6-3.1c-0.1-2.8-0.1-5.7-0.1-8.5c0-1.5,0.1-3-2.2-3c-2.4,0-2,1.7-2,3.1c0,3,0,6,0,9
	c0,1.2-0.2,2.6-1.7,2.5c-1.5-0.1-1.6-1.4-1.6-2.6c0-3.2,0-6.3,0-9.5c0-1.6-0.3-2.5-2.2-2.5c-1.9,0-2.1,1.2-2.1,2.6
	c0,3.2,0,6.3-0.1,9.5c0,1.2-0.3,2.5-1.8,2.5c-1.6,0-1.6-1.3-1.6-2.5c0-2.7,0.1-5.3-0.1-8c-0.1-1.5,1.2-4-2-4
	c-3.5-0.1-2.2,2.6-2.3,4.3c-0.2,2.7-0.1,5.3-0.1,8c0,1.1-0.3,2.2-1.4,2.3c-1.4,0.2-2-1-2.1-2.2c-0.1-2.8,0.1-5.7-0.1-8.5
	c-0.1-1.5,1.1-4.1-2.2-3.9c-3.2,0.2-1.8,2.6-1.9,4.2c-0.2,2.5-0.1,5-0.1,7.5c0,1.4,0,3-1.8,2.9c-1.7-0.1-1.8-1.6-1.8-3c0-3,0-6,0-9
	c0-1.4-0.1-2.6-2.1-2.6c-2,0-2.1,1.1-2.1,2.5c0,3.2,0,6.3,0,9.5c0,1.3-0.2,2.5-1.6,2.6c-1.5,0.1-1.8-1.2-1.8-2.5
	c-0.1-2.7,0-5.3-0.2-8c-0.1-1.5,1.2-4-2-4.1c-3.2-0.1-2.1,2.3-2.2,3.9c-0.1,2.3,0,4.7-0.1,7c0,1.4,0.5,3.6-1.5,3.6
	c-2.5,0-1.7-2.4-1.7-3.9c-0.1-2.3,0.1-4.7-0.1-7c-0.1-1.5,0.8-3.6-2-3.7c-3.2-0.1-2.2,2.3-2.3,3.9c-0.1,2.8,0,5.7-0.1,8.5
	c0,1-0.4,2.1-1.6,2.2c-1.5,0.1-1.9-1.1-1.9-2.3c0-3.2,0-6.3,0-9.5c0-1.3,0.3-2.7-1.8-2.8c-2.2-0.1-2.4,1.2-2.3,2.8
	c0,2.8,0,5.7,0,8.5c0,1.5-0.1,3.4-2.1,3.3c-1.7-0.1-1.6-1.8-1.6-3.1c0-3,0-6,0-9c0-1.5-0.3-2.5-2.2-2.5c-1.9,0-2.2,1-2.1,2.5
	c0,2.8,0,5.7,0,8.5c0,1.4,0.4,3.5-1.6,3.6c-2.3,0-2-2.2-2-3.8c0-2.7-0.1-5.3,0-8c0-1.7-0.2-2.9-2.4-2.8c-2.1,0.1-1.8,1.5-1.8,2.8
	c0,3.2,0,6.3,0,9.5c0,1.3-0.4,2.4-1.9,2.3c-1.2-0.1-1.5-1.2-1.5-2.2c-0.1-3.2-0.1-6.3-0.1-9.5c0-1.6-0.1-3-2.3-2.9
	c-2,0.1-2,1.3-2,2.7c0,2.8,0,5.7,0,8.5c0,1.4,0.5,3.4-1.8,3.4c-1.8-0.1-1.5-1.9-1.5-3.2c0-2.5,0.1-5,0-7.5c-0.1-1.6,0.9-4-2.3-3.9
	c-2.8,0.1-1.9,2.2-2,3.7c-0.1,2.8,0,18.7-0.1,21.5c0,1.2-0.3,2.5-1.9,2.4c-1.5-0.1-1.6-1.4-1.6-2.6c0-4.7-0.3-22.4,0.1-27
	c0.6-6.7,7-11.8,14.5-11.8C54.6,8.6,68.4,8.6,82.2,8.6z"/>
<path class="st2" d="M122.8,16.5h-11c-2.1,0-3.7-1.7-3.7-3.7V8.8c0-1.4,1.1-1.6,2.5-1.6H124c1.4,0,2.5,1.1,2.5,2.5v3
	C126.5,14.8,124.8,16.5,122.8,16.5z"/>
<path class="st4" d="M48.4,10.5h-8.6c-0.8,0-1.5-0.7-1.5-1.5V6.6c0-0.8,0.7-1.5,1.5-1.5h8.6c0.8,0,1.5,0.7,1.5,1.5V9
	C49.9,9.8,49.2,10.5,48.4,10.5z"/>
<path class="st2" d="M134.4,19.1c-2.5,0-4.1,0-5.8,0c-31,0-62,0-92.9-0.1c-1.5,0-3.8,1.1-4.3-1.1c-0.4-1.7,1.5-2.8,2.8-3.8
	c1.6-1.3,3.5-1.8,5.6-1.8c28.5,0,57,0,85.4,0C129.5,12.3,132.2,14.5,134.4,19.1z"/>
<path class="st0" d="M82.1,57.7c-11.5,0-20.8-9.3-20.8-20.8c0-11.5,9.3-20.8,20.8-20.8l0,0c11.5,0,20.8,9.3,20.8,20.8
	C102.8,48.4,93.5,57.7,82.1,57.7"/>
<circle class="st0" cx="82.1" cy="37" r="15.6"/>
<path class="st1" d="M82.1,20.5c9.1,0,16.5,7.4,16.5,16.5c0,9.1-7.4,16.5-16.5,16.5c-9.1,0-16.5-7.4-16.5-16.5
	C65.6,27.8,73,20.5,82.1,20.5L82.1,20.5z"/>
<path class="st0" d="M82.1,25c-6.6,0-11.9,5.3-11.9,11.9s5.3,11.9,11.9,11.9C88.7,48.9,94,43.6,94,37S88.7,25,82.1,25z M74.8,39.1
	c-0.7-0.8-1.1-1.9-1.2-3c-0.5-3.5,2.1-6.8,5.8-7.2c1.6-0.2,3.2,0.2,4.5,1c-1.8,0.7-3.7,2-5.4,3.7C76.8,35.2,75.5,37.2,74.8,39.1z
	 M79.4,35.6c0,0.2-0.7-0.2-0.7-0.7c0-0.7,0.6-1.3,1.3-1.3c0.5,0,0.9,0.7,0.7,0.7 M82.4,39.2c-1.2,0.2-2.4-0.7-2.6-2s0.7-2.4,2-2.6
	c1.2-0.2,2.4,0.7,2.6,2C84.5,37.9,83.6,39.1,82.4,39.2z M88.6,44.4c-0.5,0-0.9-0.4-0.9-0.9c0-0.5,0.4-0.9,0.9-0.9
	c0.5,0,0.9,0.4,0.9,0.9C89.5,44,89.1,44.4,88.6,44.4z"/>
</svg>
