<?xml version="1.0" encoding="utf-8"?>
<!-- Generator: Adobe Illustrator 21.1.0, SVG Export Plug-In . SVG Version: 6.00 Build 0)  -->
<!DOCTYPE svg PUBLIC "-//W3C//DTD SVG 1.1//EN" "http://www.w3.org/Graphics/SVG/1.1/DTD/svg11.dtd">
<svg version="1.1" id="Layer_1" xmlns="http://www.w3.org/2000/svg" xmlns:xlink="http://www.w3.org/1999/xlink" x="0px" y="0px"
	 viewBox="0 0 294 179" style="enable-background:new 0 0 294 179;" xml:space="preserve">
<style type="text/css">
	.st0{fill:#FFFFFF;}
	.st1{fill:#1D1D1B;}
</style>
<g id="gXHCXb.tif_7_">
	<g>
		<path d="M130.7,133.6c-3.2-1.3-4.8-4-6.1-6.9c-3.1-6.7-4.1-13.8-4.7-21c-1.6-19.3,0.8-37.9,7.8-56c0.2-0.6,0.4-1.2,0.4-1.8
			c0-3.4,0-6.8,0-10.2c-0.3,0.3-0.6,0.7-0.9,1.1c-7.7,10.1-15.4,20.2-23.2,30.3c-0.7,1-1.6,1.9-2.5,2.7c-0.4,0.4-0.9,0.6-1.5,0.8
			c-0.2,0.1-0.6-0.2-0.7-0.4c-0.1-0.2,0.1-0.6,0.2-0.8c0.8-0.8,1.8-1.4,2.4-2.3c8.6-11.6,17.2-23.2,25.7-34.9
			c0.8-1.1,1.3-2.4,1.5-3.7c1.2-6.6,3.3-12.8,8.1-17.8c1.9-1.9,4.2-3.4,6.3-5.1c0.4-0.3,1-0.6,1.5-0.7c0.7-0.1,1.6-0.1,2,0.3
			c0.4,0.4,0.5,1.4,0.3,1.9c-0.7,1.7-1.5,3.5-2.6,5c-4.3,6.2-8.8,12.4-13.1,18.6c-0.7,1-1.2,2.4-1.4,3.6c-0.3,2.2-0.3,4.5-0.1,6.9
			c0.2-0.4,0.5-0.9,0.7-1.3c2.5-4.8,5.2-9.4,9.1-13.2c1.1-1,2.4-1.9,3.8-2.6c2.3-1.1,4.8-0.2,5.5,2.2c0.8,2.8,1.4,5.8,1.7,8.7
			c0.3,2.9,0.1,5.8,0.4,8.9c0.4-0.7,0.8-1.4,1.1-2.2c2.7-5.7,5.6-11.2,9.7-15.9c0.9-1,1.9-2,3.1-2.7c2.1-1.4,4-0.5,4.2,2.1
			c0.1,1.9,0.1,3.8-0.3,5.6c-1,4-2.1,8-3.5,11.9c-2.3,6.2-5,12.4-7.5,18.5c-0.3,0.6-0.5,1.3-0.8,2.4c0.9-0.5,1.4-0.7,1.9-1
			c5.9-3.4,11.7-6.9,17.7-10.2c2.6-1.5,5.5-2.5,8.6-2.5c2.9,0,4.9,2,4.9,4.9c0.1,4.2-2,7.5-4.2,10.7c-4.5,6.4-10,11.9-15.9,17
			c-7.1,6.2-14.5,12-23.2,16c-2.2,1-4.5,1.6-6.8,2.4c-0.5,0.2-1,0.1-1.5,0.1c-0.2,0-0.5-0.4-0.5-0.6c0-0.2,0.3-0.6,0.5-0.6
			c6.4-1.7,11.8-5.3,17.1-9.1c8.3-6,16.1-12.7,23.1-20.2c3.2-3.4,6.1-7.1,8.1-11.3c0.6-1.2,0.9-2.6,1-4c0.2-2.3-0.9-3.6-3.2-3.2
			c-2.6,0.4-5.4,1.1-7.7,2.3c-6,3.2-11.7,6.7-17.6,10.1c-1.2,0.7-2.5,1.7-3.8,0.6c-1.2-1.1-0.3-2.5,0.2-3.7c2.9-7.2,6-14.4,8.9-21.6
			c1.6-4.2,2.8-8.5,2.8-13c0-0.9-0.5-1.9-0.8-2.8c-0.8,0.4-1.8,0.7-2.5,1.3c-3.5,3.4-6,7.5-8.3,11.7c-1.6,3-3.1,6-4.5,9.1
			c-0.8,1.8-1.4,3.8-1.7,5.7c-1.7,12-4.6,23.6-8.6,35c-0.5,1.5-1.3,3-2.2,4.4c-0.4,0.6-1.3,0.9-2,1.4c-0.4-0.7-1.1-1.5-1.1-2.2
			c0-2.4-0.1-4.9,0.5-7.2c1.4-5.5,3-11.1,4.9-16.5c2.1-5.8,4.6-11.4,7-17.1c0.3-0.8,0.7-1.7,0.7-2.5c0-5.4,0-10.8-0.1-16.3
			c0-1.4-0.6-2.8-1.1-4.1c-0.7-1.8-2.3-2.4-4-1.6c-1.1,0.5-2.3,1.2-3.2,2.1c-5,5-8.6,11-10.9,17.7c-0.9,2.6-0.4,5.8-0.4,8.7
			c0.3,14.7,3.2,29,5.4,43.4c1.2,7.9,2.4,15.8,2,23.9c-0.1,1.3-0.1,2.6-0.3,3.8c-0.4,3.1-1.5,5.7-4.7,7
			C131.9,133.6,131.3,133.6,130.7,133.6z M128.2,53.4c-0.3,0.2-0.4,0.3-0.4,0.4c-0.1,0.4-0.3,0.8-0.4,1.2c-6.3,18.2-7.3,37-5.1,56
			c0.7,6.1,2.1,12,5.3,17.4c0.7,1.1,1.6,2.1,2.7,2.9c1.3,0.9,2.8,0.6,3.6-0.8c0.6-1.1,1.3-2.3,1.4-3.5c0.3-3.1,0.6-6.3,0.4-9.3
			c-0.6-7-1.4-14.1-2.4-21.1C131.1,82.2,128.3,68.1,128.2,53.4z M148.7,55.9c-0.4,0.7-0.6,1.1-0.8,1.6c-2.4,6.3-5.1,12.6-7.2,19.1
			c-1.3,4-1.9,8.3-2.7,12.4c-0.2,1,0,2.2,0,3.5C141.1,89.2,147.9,65.4,148.7,55.9z M131.7,29.1c4.8-7,10.1-13.1,14.2-20.4
			C140,9.7,131.6,21.7,131.7,29.1z"/>
		<path class="st0" d="M128.2,53.4c0.1,14.7,2.9,28.8,5,43.1c1,7,1.8,14,2.4,21.1c0.3,3.1-0.1,6.2-0.4,9.3c-0.1,1.2-0.8,2.4-1.4,3.5
			c-0.8,1.4-2.3,1.7-3.6,0.8c-1-0.8-2-1.8-2.7-2.9c-3.2-5.3-4.6-11.3-5.3-17.4c-2.3-19-1.3-37.7,5.1-56c0.1-0.4,0.3-0.8,0.4-1.2
			C127.8,53.7,127.9,53.6,128.2,53.4z"/>
		<path class="st0" d="M148.7,55.9c-0.8,9.5-7.6,33.3-10.7,36.6c0-1.4-0.2-2.5,0-3.5c0.8-4.2,1.3-8.4,2.7-12.4
			c2.1-6.5,4.8-12.7,7.2-19.1C148.1,57,148.4,56.6,148.7,55.9z"/>
		<path class="st0" d="M131.7,29.1c-0.1-7.4,8.3-19.4,14.2-20.4C141.8,16,136.5,22.2,131.7,29.1z"/>
	</g>
</g>
<g>
	<path class="st1" d="M10.9,162.3c-0.5,0-0.9,0-1.3-0.1c-0.4-0.1-0.7-0.2-1.1-0.4c-0.3-0.2-0.6-0.4-0.9-0.6
		c-0.3-0.2-0.5-0.5-0.7-0.7l2-1.9c0.3,0.3,0.5,0.6,0.8,0.8c0.3,0.2,0.6,0.3,0.9,0.3c0.4,0,0.7-0.1,0.9-0.4c0.2-0.3,0.3-0.6,0.3-1.2
		V151h3.1v7.1c0,0.7-0.1,1.3-0.3,1.8c-0.2,0.5-0.5,0.9-0.8,1.3c-0.4,0.4-0.8,0.7-1.3,0.8C12.1,162.2,11.6,162.3,10.9,162.3z"/>
	<path class="st1" d="M29,162.4c-0.9,0-1.7-0.2-2.4-0.5c-0.7-0.3-1.4-0.7-1.9-1.2c-0.5-0.5-0.9-1.1-1.2-1.8
		c-0.3-0.7-0.5-1.4-0.5-2.2v0c0-0.8,0.2-1.5,0.5-2.3c0.3-0.7,0.7-1.3,1.3-1.8c0.5-0.5,1.2-0.9,1.9-1.2c0.7-0.3,1.5-0.5,2.4-0.5
		s1.7,0.2,2.4,0.5c0.7,0.3,1.4,0.7,1.9,1.2c0.5,0.5,0.9,1.1,1.2,1.8c0.3,0.7,0.5,1.4,0.5,2.2v0c0,0.8-0.2,1.5-0.5,2.3
		c-0.3,0.7-0.7,1.3-1.3,1.8c-0.5,0.5-1.2,0.9-1.9,1.2C30.7,162.2,29.9,162.4,29,162.4z M29.1,159.6c0.4,0,0.8-0.1,1.2-0.2
		c0.4-0.2,0.6-0.4,0.9-0.6c0.2-0.3,0.4-0.6,0.6-0.9c0.1-0.4,0.2-0.7,0.2-1.1v0c0-0.4-0.1-0.8-0.2-1.1c-0.1-0.4-0.3-0.7-0.6-1
		c-0.3-0.3-0.6-0.5-0.9-0.7c-0.4-0.2-0.7-0.2-1.2-0.2s-0.8,0.1-1.2,0.2c-0.3,0.2-0.6,0.4-0.9,0.6c-0.3,0.3-0.4,0.6-0.6,0.9
		c-0.1,0.4-0.2,0.7-0.2,1.1v0c0,0.4,0.1,0.8,0.2,1.1s0.3,0.7,0.6,1c0.3,0.3,0.6,0.5,0.9,0.7C28.2,159.5,28.6,159.6,29.1,159.6z"/>
	<path class="st1" d="M43.2,151h5.3c0.9,0,1.6,0.1,2.2,0.3c0.6,0.2,1.1,0.5,1.4,0.9c0.7,0.6,1,1.5,1,2.6v0c0,0.9-0.2,1.6-0.6,2.1
		c-0.4,0.6-1,1-1.7,1.3l2.7,3.9h-3.6l-2.2-3.4h0h-1.3v3.4h-3.1V151z M48.3,156.3c0.5,0,0.9-0.1,1.2-0.4c0.3-0.2,0.4-0.6,0.4-1v0
		c0-0.4-0.1-0.8-0.4-1c-0.3-0.2-0.7-0.3-1.2-0.3h-2v2.7H48.3z"/>
	<path class="st1" d="M61.2,151h4.3c1,0,1.9,0.1,2.7,0.4s1.4,0.6,2,1.1c0.5,0.5,0.9,1.1,1.2,1.7c0.3,0.7,0.4,1.4,0.4,2.2v0
		c0,0.8-0.1,1.6-0.4,2.2c-0.3,0.7-0.7,1.3-1.2,1.8s-1.2,0.9-2,1.2c-0.8,0.3-1.7,0.4-2.7,0.4h-4.2V151z M65.5,159.4
		c0.9,0,1.7-0.2,2.2-0.7c0.6-0.5,0.8-1.2,0.8-2.1v0c0-0.9-0.3-1.6-0.8-2.1c-0.6-0.5-1.3-0.7-2.2-0.7h-1.3v5.7H65.5z"/>
	<path class="st1" d="M83.7,150.9h3l4.7,11.2h-3.3l-0.8-2H83l-0.8,2H79L83.7,150.9z M86.4,157.8l-1.2-3.2l-1.3,3.2H86.4z"/>
	<path class="st1" d="M99.1,151h2.9l4.6,5.9V151h3v11.1h-2.7l-4.8-6.1v6.1h-3V151z"/>
	<path class="st1" d="M132.3,162.3c-0.8,0-1.5-0.2-2.1-0.6s-1-0.8-1.4-1.4l0.9-0.8c0.3,0.5,0.7,0.9,1.1,1.2c0.4,0.3,0.9,0.4,1.5,0.4
		c0.6,0,1.1-0.2,1.6-0.7c0.4-0.5,0.6-1.1,0.6-2V151h1.3v7.5c0,0.7-0.1,1.2-0.3,1.7c-0.2,0.5-0.4,0.9-0.7,1.2
		C134.1,162,133.3,162.3,132.3,162.3z"/>
	<path class="st1" d="M144.9,160.5h1.5v1.7h-1.5V160.5z"/>
	<path class="st1" d="M167,151h4.7c0.6,0,1.2,0.1,1.7,0.3c0.5,0.2,0.9,0.4,1.2,0.7c0.5,0.5,0.7,1.1,0.7,1.8v0c0,0.4-0.1,0.7-0.2,1
		c-0.1,0.3-0.2,0.5-0.4,0.7c-0.2,0.2-0.4,0.4-0.6,0.5c-0.2,0.1-0.4,0.3-0.6,0.4c0.3,0.1,0.6,0.2,0.9,0.4c0.3,0.2,0.5,0.3,0.8,0.6
		c0.2,0.2,0.4,0.5,0.5,0.8c0.1,0.3,0.2,0.6,0.2,1v0c0,0.5-0.1,0.9-0.3,1.3c-0.2,0.4-0.5,0.7-0.8,1c-0.4,0.3-0.8,0.5-1.3,0.6
		c-0.5,0.1-1.1,0.2-1.7,0.2H167V151z M171.6,155.9c0.8,0,1.4-0.2,1.9-0.5c0.5-0.3,0.7-0.8,0.7-1.5v0c0-0.5-0.2-1-0.6-1.3
		c-0.4-0.3-1-0.5-1.8-0.5h-3.4v3.8H171.6z M172,161c0.8,0,1.5-0.2,2-0.5c0.5-0.3,0.7-0.8,0.7-1.5v0c0-0.6-0.2-1.1-0.7-1.4
		c-0.5-0.3-1.2-0.5-2.2-0.5h-3.5v3.9H172z"/>
	<path class="st1" d="M185.1,151h4.8c0.7,0,1.3,0.1,1.8,0.3c0.5,0.2,1,0.5,1.3,0.8c0.3,0.3,0.5,0.6,0.6,1c0.1,0.4,0.2,0.8,0.2,1.2v0
		c0,0.5-0.1,0.9-0.2,1.2c-0.1,0.4-0.4,0.7-0.6,1c-0.3,0.3-0.6,0.5-1,0.7c-0.4,0.2-0.8,0.3-1.2,0.4l3.4,4.6h-1.5l-3.2-4.3h0h-3.2v4.3
		h-1.3V151z M189.7,156.7c0.4,0,0.8-0.1,1.1-0.2c0.4-0.1,0.7-0.3,0.9-0.5c0.3-0.2,0.5-0.4,0.6-0.7c0.1-0.3,0.2-0.6,0.2-1v0
		c0-0.7-0.3-1.2-0.8-1.6c-0.5-0.4-1.2-0.6-2.1-0.6h-3.4v4.5H189.7z"/>
	<path class="st1" d="M207.5,162.3c-0.7,0-1.3-0.1-1.9-0.3c-0.6-0.2-1.1-0.5-1.5-0.9s-0.7-0.9-0.9-1.5c-0.2-0.6-0.3-1.3-0.3-2.1V151
		h1.3v6.4c0,1.2,0.3,2.1,0.9,2.8c0.6,0.6,1.4,1,2.5,1c1,0,1.8-0.3,2.5-0.9c0.6-0.6,0.9-1.5,0.9-2.8V151h1.3v6.4
		c0,0.8-0.1,1.5-0.3,2.1c-0.2,0.6-0.5,1.1-0.9,1.5c-0.4,0.4-0.9,0.7-1.5,0.9C208.9,162.2,208.2,162.3,207.5,162.3z"/>
	<path class="st1" d="M221.7,151h1.3l4.1,6.1l4.1-6.1h1.3v11.1h-1.3v-9l-4.1,6H227l-4.1-6v9h-1.2V151z"/>
	<path class="st1" d="M246.2,150.9h1.2l5.1,11.2h-1.4l-1.3-2.9h-6.1l-1.3,2.9h-1.3L246.2,150.9z M249.3,158.1l-2.5-5.7l-2.5,5.7
		H249.3z"/>
	<path class="st1" d="M261.2,151h1.2l7,8.9V151h1.2v11.1h-1l-7.2-9.1v9.1h-1.2V151z"/>
	<path class="st1" d="M283.2,152.2h-3.7V151h8.7v1.2h-3.7v10h-1.3V152.2z"/>
</g>
<path class="st1" d="M173.3,58.6c0,0,8.1-6.1,12.7-2.8c4.6,3.4-7.3,19.6-20.1,29.3c0,0,24.1-15.4,24.5-30.3
	C190.4,54.9,183.7,47.8,173.3,58.6z"/>
<path class="st1" d="M169.8,60.7c0,0,14.5-8.2,16.9-4s1.7-1.2,1.7-1.2l-2.8-2.1c0,0-9.7,0.3-16.6,6.6"/>
<path class="st1" d="M121.7,82c0,0-0.2,56.2,13.3,46.2l0.8,1.2c0,0-4,10.5-11.6-3.7C116.5,111.4,121.7,82,121.7,82z"/>
<path class="st1" d="M128.5,127.4c0,0,8.4,6.2,7-11.4h1.4c0,0,0.4,14.6-3.1,14.4"/>
<path d="M166.9,62.3c0,0,15-9.4,17.7-5.3c2.8,4.1-7.3,17.5-7.3,17.5s12.4-8.5,13.1-19.7C190.4,54.9,182.3,48.1,166.9,62.3z"/>
<path class="st1" d="M123.7,112c0,0,2.3,15,8.1,13.8c5.7-1.2,2.9-18.2,2.9-18.2l2.3,1.2c0,0,1.4,19.8-5.2,22.5
	c-6.6,2.8-10.5-19.3-10.5-19.3"/>
<path class="st1" d="M134.9,37.3c0,0,13.2-17.8,14.7,0l1.5-0.4c0,0-0.7-11.2-5.2-11.4C145.9,25.6,138.4,27.3,134.9,37.3z"/>
</svg>
