<?xml version="1.0" encoding="utf-8"?>
<!-- Generator: Adobe Illustrator 21.1.0, SVG Export Plug-In . SVG Version: 6.00 Build 0)  -->
<!DOCTYPE svg PUBLIC "-//W3C//DTD SVG 1.1//EN" "http://www.w3.org/Graphics/SVG/1.1/DTD/svg11.dtd">
<svg version="1.1" id="Layer_1" xmlns="http://www.w3.org/2000/svg" xmlns:xlink="http://www.w3.org/1999/xlink" x="0px" y="0px"
	 viewBox="0 0 196 103" style="enable-background:new 0 0 196 103;" xml:space="preserve">
<style type="text/css">
	.st0{fill:none;stroke:#FFFFFF;stroke-width:2;stroke-miterlimit:10;}
	.st1{stroke:#FFFFFF;stroke-width:2;stroke-miterlimit:10;}
</style>
<path d="M75.2,65.4l1.9,0.4l-6.6,20.8H11.1v-2.1H14c3.2,0,5.6-1.1,7-3.2c0.8-1.2,1.2-4,1.2-8.4V23.5c0-4.8-0.5-7.8-1.6-9
	C19.1,12.9,16.9,12,14,12h-2.9V9.9h34.7V12c-4.1,0-6.9,0.3-8.6,1.1c-1.6,0.8-2.8,1.8-3.4,3c-0.6,1.2-0.9,4.1-0.9,8.7V73
	c0,3.1,0.3,5.3,0.9,6.4c0.5,0.8,1.1,1.4,2.1,1.8c0.9,0.4,3.9,0.6,8.8,0.6h5.6c5.9,0,10-0.4,12.4-1.3c2.4-0.9,4.5-2.4,6.5-4.6
	C71.3,73.7,73.3,70.2,75.2,65.4z"/>
<path class="st0" d="M84.9,73.4h-29l-5.1,11.8c-1.3,2.9-1.9,5.1-1.9,6.5c0,1.1,0.5,2.1,1.6,3c1.1,0.9,3.4,1.4,7,1.7v2H34v-2
	c3.1-0.6,5.2-1.3,6.1-2.2c1.9-1.8,4-5.4,6.2-10.8l26.4-61.7h1.9l26.1,62.4c2.1,5,4,8.3,5.7,9.8c1.7,1.5,4.1,2.3,7.2,2.5v2H84v-2
	c3-0.1,5-0.6,6.1-1.5c1.1-0.8,1.6-1.9,1.6-3.1c0-1.6-0.7-4.2-2.2-7.7L84.9,73.4z M83.4,69.4L70.6,39.1l-13,30.3H83.4z"/>
<path d="M84.9,73.4h-29l-5.1,11.8c-1.3,2.9-1.9,5.1-1.9,6.5c0,1.1,0.5,2.1,1.6,3c1.1,0.9,3.4,1.4,7,1.7v2H34v-2
	c3.1-0.6,5.2-1.3,6.1-2.2c1.9-1.8,4-5.4,6.2-10.8l26.4-61.7h1.9l26.1,62.4c2.1,5,4,8.3,5.7,9.8c1.7,1.5,4.1,2.3,7.2,2.5v2H84v-2
	c3-0.1,5-0.6,6.1-1.5c1.1-0.8,1.6-1.9,1.6-3.1c0-1.6-0.7-4.2-2.2-7.7L84.9,73.4z M83.4,69.4L70.6,39.1l-13,30.3H83.4z"/>
<path d="M168.2,86.2h-20.4l-25.9-35.8c-1.9,0.1-3.5,0.1-4.7,0.1c-0.5,0-1,0-1.6,0c-0.6,0-1.1,0-1.8-0.1v22.2c0,4.8,0.5,7.8,1.6,9
	c1.4,1.7,3.6,2.5,6.4,2.5h3v2.1H92.1v-2.1H95c3.2,0,5.5-1.1,6.9-3.2c0.8-1.2,1.2-3.9,1.2-8.3V23.2c0-4.8-0.5-7.8-1.6-9
	c-1.5-1.7-3.7-2.5-6.5-2.5h-2.9V9.7H120c8.1,0,14.1,0.6,18,1.8c3.9,1.2,7.1,3.4,9.8,6.5c2.7,3.2,4,7,4,11.4c0,4.7-1.5,8.8-4.6,12.2
	c-3.1,3.5-7.8,5.9-14.2,7.3l15.8,21.9c3.6,5,6.7,8.4,9.3,10c2.6,1.7,6,2.7,10.1,3.2V86.2z M113.9,46.9c0.7,0,1.3,0,1.9,0
	c0.5,0,1,0,1.3,0c7.3,0,12.8-1.6,16.5-4.7c3.7-3.2,5.6-7.2,5.6-12.1c0-4.8-1.5-8.7-4.5-11.6c-3-3-6.9-4.5-11.9-4.5
	c-2.2,0-5.1,0.4-8.9,1.1V46.9z"/>
<path class="st1" d="M189.4,22.1l0.8,17.9h-2.1c-0.4-3.2-1-5.4-1.7-6.8c-1.2-2.2-2.7-3.8-4.6-4.8c-1.9-1-4.5-1.5-7.6-1.5h-10.7v58.3
	c0,4.7,0.5,7.6,1.5,8.8c1.4,1.6,3.6,2.4,6.6,2.4h2.6v2.1h-32.3v-2.1h2.7c3.2,0,5.5-1,6.9-2.9c0.8-1.2,1.2-3.9,1.2-8.2V26.9h-9.2
	c-3.6,0-6.1,0.3-7.6,0.8c-2,0.7-3.6,2.1-5,4.1c-1.4,2-2.2,4.8-2.5,8.2h-2.1l0.9-17.9H189.4z"/>
<path d="M189.4,22.1l0.8,17.9h-2.1c-0.4-3.2-1-5.4-1.7-6.8c-1.2-2.2-2.7-3.8-4.6-4.8c-1.9-1-4.5-1.5-7.6-1.5h-10.7v58.3
	c0,4.7,0.5,7.6,1.5,8.8c1.4,1.6,3.6,2.4,6.6,2.4h2.6v2.1h-32.3v-2.1h2.7c3.2,0,5.5-1,6.9-2.9c0.8-1.2,1.2-3.9,1.2-8.2V26.9h-9.2
	c-3.6,0-6.1,0.3-7.6,0.8c-2,0.7-3.6,2.1-5,4.1c-1.4,2-2.2,4.8-2.5,8.2h-2.1l0.9-17.9H189.4z"/>
<path d="M57.2,26.1v-1.5c2.2-1.3,3.7-2.5,4.4-3.6c0.5-0.8,0.8-1.8,0.8-2.9c0-0.7-0.1-1.1-0.4-1.5c-0.3-0.3-0.5-0.5-0.8-0.5
	c-0.2,0-0.5,0.1-0.9,0.2c-0.6,0.2-1,0.3-1.4,0.3c-0.8,0-1.6-0.3-2.3-1c-0.7-0.6-1-1.4-1-2.4c0-1.1,0.3-1.9,1-2.5
	c0.9-0.8,1.9-1.2,3.2-1.2c1.4,0,2.7,0.6,3.8,1.8c1.1,1.2,1.7,2.7,1.7,4.5c0,2.5-0.9,4.8-2.8,6.8C61.4,24.1,59.6,25.2,57.2,26.1z"/>
<path class="st1" d="M75.2,65.4c-2,4.7-3.9,8.2-5.9,10.4c-1.5,1.7-3.2,3-5,3.9c1,2.1,1.6,4.5,1.7,6.8h4.5l6.6-20.8L75.2,65.4z"/>
<path d="M75.2,65.4c-2,4.7-3.9,8.2-5.9,10.4c-1.5,1.7-3.2,3-5,3.9c1,2.1,1.6,4.5,1.7,6.8h4.5l6.6-20.8L75.2,65.4z"/>
<path d="M38.5,81.6c-1.2-0.1-2-0.2-2.4-0.4c-0.9-0.4-1.6-1-2.1-1.8C33.3,78.3,33,76.2,33,73V24.8c0-4.6,0.3-7.4,0.9-8.7
	c0.6-1.2,1.7-2.2,3.4-3c1.6-0.8,4.5-1.2,8.6-1.1V9.9H11.1V12H14c2.9,0,5.1,0.8,6.6,2.5c1.1,1.2,1.6,4.2,1.6,9V73
	c0,4.4-0.4,7.2-1.2,8.4c-1.4,2.1-3.7,3.2-7,3.2h-2.9v2.1h28.3C38.4,85.2,38.1,83.3,38.5,81.6z"/>
<path d="M75.2,65.4c-2,4.7-3.9,8.2-5.9,10.4c-2,2.2-4.1,3.7-6.5,4.6c-1.5,0.5-3.6,0.9-6.4,1.1c0,0.3-0.1,0.7-0.3,1
	c0.3,1.4,0.1,2.8-0.4,4.1h14.8l6.6-20.8L75.2,65.4z"/>
<path class="st1" d="M158.1,80.9c-2.6-1.7-5.7-5-9.3-10l-5.6-7.8c-2.4,2-5.5,3.4-9.2,4l13.8,19.1h20.4v-2.1
	C164,83.6,160.6,82.6,158.1,80.9z"/>
<path d="M158.1,80.9c-2.6-1.7-5.7-5-9.3-10l-5.6-7.8c-2.4,2-5.5,3.4-9.2,4l13.8,19.1h20.4v-2.1C164,83.6,160.6,82.6,158.1,80.9z"/>
<path d="M146.9,68.3L138,55.9c-2.4,2-5.5,3.5-9.2,4l11.9,16.5C142,73.3,144.1,70.4,146.9,68.3z"/>
</svg>
