<svg width="56" height="35" viewBox="0 0 56 35" xmlns="http://www.w3.org/2000/svg" xmlns:xlink="http://www.w3.org/1999/xlink"><title>Page 1</title><defs><path id="a" d="M.646.636h19.887v16.76H.646z"/><path id="c" d="M13.975 18H.335V.08h13.64V18z"/></defs><g fill="none" fill-rule="evenodd"><path d="M14.237 11.607c.045.368.07.743.076 1.124a18.65 18.65 0 0 1-.086 2.114c-.067.693-.098 1.3-.09 1.82.007.403.059.728.156.974a.526.526 0 0 0 .544.36c.315-.006.605-.029.87-.07a4.58 4.58 0 0 0 .69-.153c.226-.061.427-.135.603-.22a4.22 4.22 0 0 1-.716-1.456 6.48 6.48 0 0 1-.2-1.502 7.337 7.337 0 0 1 .051-.963c.04-.33.084-.652.133-.97.05-.32.094-.627.133-.922a5.27 5.27 0 0 0 .055-.788c-.004-.3-.058-.536-.158-.707-.101-.17-.285-.254-.55-.248a2.132 2.132 0 0 0-.574.099c-.206.062-.397.123-.573.185a9.896 9.896 0 0 0-.601.272c.113.333.192.683.237 1.051m1.927-2.747a1.474 1.474 0 0 0 .753-.857 1.687 1.687 0 0 0-.021-1.103 1.4 1.4 0 0 0-.29-.47 1.354 1.354 0 0 0-.477-.32 1.667 1.667 0 0 0-.66-.11c-.224.004-.43.057-.616.157a1.571 1.571 0 0 0-.761.926A1.855 1.855 0 0 0 14 7.68c.007.344.132.653.375.925s.627.403 1.153.395c.238-.005.45-.051.636-.14m34.454 9.891c.132-.392.29-.743.474-1.052a2.66 2.66 0 0 1 .63-.74c.234-.184.492-.277.771-.277.117 0 .216.078.297.231.081.154.122.355.122.601a2.354 2.354 0 0 1-.562 1.491c-.199.24-.464.448-.795.625-.33.178-.739.297-1.224.358.059-.431.155-.844.287-1.237m1.367 2.693c.662 0 1.243-.11 1.743-.335.5-.223.919-.515 1.257-.878a3.62 3.62 0 0 0 .76-1.225 3.967 3.967 0 0 0 .023-2.74 3.135 3.135 0 0 0-.716-1.145 3.756 3.756 0 0 0-1.202-.809c-.479-.208-1.041-.312-1.687-.312-.663 0-1.303.185-1.92.556a6.052 6.052 0 0 0-1.655 1.479 7.621 7.621 0 0 0-1.157 2.092A6.919 6.919 0 0 0 47 20.543c0 1.018.14 1.877.42 2.578.278.702.646 1.264 1.102 1.688a4.1 4.1 0 0 0 1.534.913 5.472 5.472 0 0 0 1.71.278 5.742 5.742 0 0 0 2.701-.671c.36-.2.647-.43.86-.694.214-.261.32-.539.32-.832a1.26 1.26 0 0 0-.397-.925c-.265-.262-.677-.423-1.235-.484-.192.554-.467.981-.828 1.282-.36.3-.73.45-1.113.45a1.49 1.49 0 0 1-.838-.23 1.737 1.737 0 0 1-.575-.636 3.161 3.161 0 0 1-.319-.925c-.066-.346-.1-.72-.1-1.121.31.077.611.135.905.173.294.039.574.057.838.057" fill="#FFF"/><path d="M19.744 27.065c-.211.25-.499.376-.861.376-.872 0-1.612-.176-2.223-.526a4.61 4.61 0 0 1-1.55-1.485c.52-.212 1.022-.384 1.505-.516a5.241 5.241 0 0 1 1.378-.197c.363 0 .678.044.944.131.265.087.48.203.644.347.163.145.284.305.362.48a1.302 1.302 0 0 1-.2 1.39m2.032-2.902c-.417-.308-.946-.555-1.587-.743-.64-.188-1.396-.282-2.267-.282-.69 0-1.327.07-1.914.207-.586.138-1.151.313-1.696.527a13.664 13.664 0 0 1-.725-2.725 33.774 33.774 0 0 1-.372-3.222 59.597 59.597 0 0 1-.136-3.522 343.88 343.88 0 0 1-.018-3.645V8.372c-.025-.125-.121-.257-.29-.395a2.909 2.909 0 0 0-.626-.375 4.373 4.373 0 0 0-.807-.273 3.554 3.554 0 0 0-.817-.103c-.266 0-.496.044-.689.131a.67.67 0 0 0-.38.451c.023.2.038.407.045.62.006.213.014.426.027.64-.242 1.351-.493 2.442-.753 3.268-.26.826-.505 1.478-.734 1.954-.267.55-.527.952-.78 1.203-.134-.226-.272-.64-.418-1.24-.133-.514-.281-1.25-.444-2.208-.163-.958-.335-2.238-.517-3.842a.87.87 0 0 0-.245-.498 1.987 1.987 0 0 0-.516-.376 2.782 2.782 0 0 0-.708-.244A3.943 3.943 0 0 0 3.59 7c-.387 0-.761.063-1.125.188a1.703 1.703 0 0 0-.852.62c.133.213.278.498.436.855.157.357.338.793.544 1.306A231.24 231.24 0 0 1 .78 17.042l-.445 1.625c-.102.376-.177.68-.227.911a4.627 4.627 0 0 0-.09.62c-.012.182-.018.436-.018.761 0 .464.142.83.426 1.1.284.268.629.476 1.034.619a5.36 5.36 0 0 0 1.279.282 12.1 12.1 0 0 0 1.143.066h.508a.73.73 0 0 0 .18-.019 8.559 8.559 0 0 1-.697-2.367c-.127-.852-.19-1.71-.19-2.574 0-.714.03-1.415.09-2.104.06-.689.127-1.334.199-1.936.35 1.14.717 2.387 1.098 3.74.38 1.352.759 2.786 1.133 4.302 0 .063.055.125.164.187.108.063.245.12.407.17.164.05.34.09.527.122.187.031.365.047.535.047.254 0 .423-.045.507-.132.146-1.24.354-2.451.627-3.635a64.76 64.76 0 0 1 .807-3.185c.048.815.124 1.632.226 2.452.102.82.237 1.62.4 2.396.163.776.369 1.528.616 2.254.248.726.548 1.402.898 2.03-.495.175-1.01.321-1.542.44a7.912 7.912 0 0 1-1.723.18c-.52 0-1.073-.05-1.66-.151-.586-.1-1.224-.276-1.913-.526-.06.175-.106.36-.136.554-.03.194-.045.385-.045.573 0 .326.048.648.145.968.097.319.248.6.453.845.205.244.474.442.807.592.332.15.728.225 1.188.225a4.4 4.4 0 0 0 1.197-.187c.435-.126.89-.289 1.361-.49.471-.2.96-.425 1.469-.676.508-.25 1.022-.5 1.542-.75a7.727 7.727 0 0 0 2.675 1.925c1.058.47 2.35.704 3.873.704.545 0 1.027-.072 1.45-.216a3.31 3.31 0 0 0 1.072-.582A2.392 2.392 0 0 0 23 26.37c0-.388-.1-.777-.3-1.164-.2-.39-.507-.737-.925-1.043" fill="#FFF"/><g transform="translate(7)"><mask id="b" fill="#fff"><use xlink:href="#a"/></mask><path d="M19.368 16.864c.377-.333.766-.873 1.165-1.62-.57-.129-1.053-.342-1.448-.64a4.442 4.442 0 0 1-1.002-1.042 6.122 6.122 0 0 1-.68-1.314c-.18-.477-.339-.964-.476-1.459l-.403-1.462c-.132-.48-.28-.923-.447-1.326a4.21 4.21 0 0 0-.608-1.049 2.002 2.002 0 0 0-.908-.638 22.42 22.42 0 0 0 1.844-1.187c.568-.408 1.06-.81 1.478-1.205.418-.396.743-.775.978-1.141s.344-.697.328-.994c-.017-.337-.218-.607-.603-.811-.384-.204-1.011-.316-1.877-.34-.182.646-.396 1.22-.643 1.72s-.52.94-.815 1.319a6.46 6.46 0 0 1-.943.982 6.018 6.018 0 0 1-1.022.696c.042-.688.106-1.34.192-1.957.085-.616.195-1.216.331-1.8a1.377 1.377 0 0 0-.51-.405 1.27 1.27 0 0 0-.581-.104c-.398.022-.841.17-1.327.444l-1.604.906c-.581.33-1.21.636-1.887.92a6.505 6.505 0 0 1-2.193.49 6.53 6.53 0 0 1-1.885-.19c-.655-.159-1.345-.457-2.067-.896-.39.388-.675.789-.859 1.202-.183.412-.265.796-.248 1.154.024.466.227.845.607 1.139.379.292.958.418 1.733.377a5.383 5.383 0 0 0 1.902-.474 26.325 26.325 0 0 0 1.944-.962c.658-.358 1.33-.71 2.02-1.054a8.93 8.93 0 0 1 2.128-.755c.095.352.168.731.218 1.137.05.405.086.82.108 1.247.03.594.036 1.198.02 1.81a48.714 48.714 0 0 1-.085 1.788 33.554 33.554 0 0 1-.149 1.649l-.164 1.38c-.047.4-.09.724-.125.97a3.684 3.684 0 0 0-.05.442c.013.268.103.447.268.538.165.09.364.13.597.117.223-.012.47-.06.744-.144.273-.084.528-.178.766-.28.276-.124.557-.258.841-.402-.196-.408-.345-.94-.446-1.595a21.188 21.188 0 0 1-.212-2.144 68.12 68.12 0 0 1-.084-2.785c.322.013.591.17.806.472.214.301.4.7.557 1.193.157.494.292 1.051.406 1.671l.352 1.898c.121.645.255 1.277.403 1.895.149.62.332 1.164.551 1.634.219.471.488.847.809 1.128.321.281.71.41 1.166.386.349-.019.712-.196 1.09-.529" fill="#FFF" mask="url(#b)"/></g><g transform="translate(24 17)"><mask id="d" fill="#fff"><use xlink:href="#c"/></mask><path d="M12.95 1.429a3.664 3.664 0 0 0-1.377-.991C11.013.2 10.332.08 9.53.08c-.88 0-1.719.15-2.517.454A9.18 9.18 0 0 0 4.797 1.74a10.787 10.787 0 0 0-1.844 1.73c-.55.65-1.019 1.326-1.406 2.026A10.86 10.86 0 0 0 .65 7.58C.44 8.27.335 8.91.335 9.495c0 .367.045.707.136 1.02.09.313.23.58.416.805.186.222.423.397.71.52.286.125.626.187 1.018.187.239 0 .431-.042.574-.127a.94.94 0 0 0 .33-.313c.076-.123.129-.258.157-.402a2.051 2.051 0 0 0 .015-.752.732.732 0 0 1-.015-.134c-.507-.02-.875-.166-1.103-.44-.23-.272-.345-.623-.345-1.05 0-.357.079-.752.236-1.184a5.84 5.84 0 0 1 .69-1.303c.3-.437.663-.859 1.089-1.266a7.93 7.93 0 0 1 1.442-1.088 7.753 7.753 0 0 1 1.757-.76 7.108 7.108 0 0 1 2.03-.282c.343 0 .659.052.946.156.287.104.538.268.753.491.216.224.382.515.502.872.12.358.18.79.18 1.296 0 .616-.117 1.273-.352 1.974a10.5 10.5 0 0 1-.982 2.093 12.32 12.32 0 0 1-1.514 1.995 11.564 11.564 0 0 1-1.943 1.683 2.307 2.307 0 0 1-.473-.625 3.47 3.47 0 0 1-.294-.804 5.755 5.755 0 0 1-.144-.953 14.55 14.55 0 0 1-.036-1.058c0-.18.008-.477.022-.894.014-.418.033-.857.057-1.318.024-.462.043-.891.057-1.289.014-.397.022-.665.022-.804 0-.249-.064-.42-.194-.514a.8.8 0 0 0-.48-.142c-.192 0-.398.036-.617.105-.22.07-.426.144-.617.223-.23.1-.454.203-.674.313.172.417.289.909.352 1.474.061.567.1 1.158.114 1.773.014.616.022 1.224.022 1.825 0 .6.021 1.14.064 1.616.044.477.122.862.237 1.154.115.293.301.44.56.44.296 0 .617-.045.96-.134.345-.09.622-.17.832-.239-.66.427-1.36.768-2.101 1.02a6.964 6.964 0 0 1-2.273.38h-.237a2.26 2.26 0 0 1-.252-.014 1.87 1.87 0 0 0-.056.305c-.01.095-.015.192-.015.29 0 .328.067.638.2.932.134.293.321.545.56.76.24.213.521.381.847.505.324.125.674.187 1.046.187.756 0 1.514-.203 2.274-.611a9.71 9.71 0 0 0 2.188-1.631c.698-.68 1.35-1.47 1.957-2.368a19.268 19.268 0 0 0 1.579-2.816 17.77 17.77 0 0 0 1.046-2.956c.254-.994.38-1.932.38-2.815 0-.676-.081-1.301-.243-1.877a3.93 3.93 0 0 0-.782-1.497" fill="#FFF" mask="url(#d)"/></g><path d="M47.383 24.363a10.007 10.007 0 0 1-.768-1.634c-.217-.588-.43-1.165-.636-1.734a19.72 19.72 0 0 0-.658-1.595 4.102 4.102 0 0 0-.835-1.22 6.05 6.05 0 0 0 1.53-.866 5.94 5.94 0 0 0 1.13-1.16c.306-.418.54-.856.703-1.311.163-.455.244-.892.244-1.312a2.81 2.81 0 0 0-.17-.981 2.151 2.151 0 0 0-.525-.806 2.48 2.48 0 0 0-.902-.544c-.365-.134-.793-.2-1.286-.2-.473 0-.926.09-1.36.268-.433.18-.86.402-1.278.668-.42.266-.833.555-1.242.867-.408.312-.818.6-1.227.866a7.987 7.987 0 0 1-1.25.668 3.31 3.31 0 0 1-1.3.268c-.502 0-1.024-.143-1.566-.43-.543-.286-1.124-.782-1.745-1.488-.394.348-.7.73-.916 1.143-.217.415-.326.817-.326 1.205 0 .236.045.455.133.66.089.204.225.383.407.537.182.153.42.276.71.368.29.092.637.138 1.041.138.562 0 1.119-.074 1.671-.222a11.812 11.812 0 0 0 1.611-.56 19.404 19.404 0 0 0 1.5-.722c.479-.255.927-.496 1.345-.72a16.1 16.1 0 0 1 1.14-.561c.339-.148.627-.223.864-.223.246 0 .434.093.562.277.127.184.191.501.191.951 0 .318-.046.642-.14.974a3.44 3.44 0 0 1-.407.921 3.26 3.26 0 0 1-.628.737c-.241.21-.51.35-.805.421.02-.225.03-.444.03-.66v-.643c0-.277-.07-.466-.208-.568a.848.848 0 0 0-.517-.154 2.06 2.06 0 0 0-.629.108 8.45 8.45 0 0 0-.628.23c-.226.103-.453.21-.68.322.138.328.232.705.281 1.135.05.43.074.88.074 1.351 0 .358-.01.744-.03 1.158-.019.414-.042.829-.066 1.242-.024.415-.046.814-.066 1.197-.02.384-.03.72-.03 1.005 0 .502.047.906.14 1.213.094.306.274.46.54.46.207 0 .465-.029.776-.085.311-.056.609-.125.894-.207.336-.082.685-.18 1.05-.291-.433-.358-.72-.84-.857-1.443a9.023 9.023 0 0 1-.207-2.01c0-.173.002-.376.008-.605.004-.23.011-.469.022-.714a158.426 158.426 0 0 1 .059-1.366c.078.072.17.134.272.184.105.052.21.083.32.093.245 0 .462.13.65.39.186.262.35.605.494 1.03.143.423.279.907.406 1.449.128.542.26 1.094.392 1.656.134.564.277 1.116.43 1.658.152.541.332 1.022.539 1.442.207.42.446.76.716 1.02.271.262.59.392.954.392.345 0 .737-.128 1.176-.384.437-.256.938-.675 1.5-1.258-.611-.113-1.126-.348-1.545-.705a5.078 5.078 0 0 1-1.072-1.29M26.792 7.622c.09-.3.2-.568.333-.806a2.02 2.02 0 0 1 .467-.58.996.996 0 0 1 .6-.238c.091-.005.174.049.243.16.07.113.11.26.119.445.01.173-.015.36-.075.56-.06.198-.162.392-.31.578a2.046 2.046 0 0 1-.603.499 2.897 2.897 0 0 1-.952.318c.03-.325.089-.637.178-.936m-1.708-1.949a5.64 5.64 0 0 0-.833 1.612 4.94 4.94 0 0 0-.244 1.824c.04.76.184 1.397.432 1.911.248.512.56.918.937 1.216.376.299.792.505 1.246.62.454.116.907.161 1.36.138a4.768 4.768 0 0 0 2.107-.612c.276-.164.494-.349.652-.553a.948.948 0 0 0 .22-.636.92.92 0 0 0-.35-.675c-.22-.185-.55-.29-.994-.312-.13.422-.33.754-.603.993-.273.24-.56.366-.861.383a1.242 1.242 0 0 1-.672-.14 1.324 1.324 0 0 1-.477-.452 2.273 2.273 0 0 1-.289-.678 4.217 4.217 0 0 1-.122-.834c.247.045.487.076.72.093.234.017.456.02.665.009.522-.028.976-.134 1.362-.322.385-.188.704-.424.958-.709.252-.284.437-.6.552-.946a2.835 2.835 0 0 0-.09-2.05 2.34 2.34 0 0 0-.61-.826 2.973 2.973 0 0 0-.981-.556c-.386-.137-.834-.191-1.345-.164a3.02 3.02 0 0 0-1.493.493 4.725 4.725 0 0 0-1.247 1.173" fill="#FFF"/></g></svg>