<?xml version="1.0" encoding="utf-8"?>
<!-- Generator: Adobe Illustrator 22.0.1, SVG Export Plug-In . SVG Version: 6.00 Build 0)  -->
<!DOCTYPE svg PUBLIC "-//W3C//DTD SVG 1.1//EN" "http://www.w3.org/Graphics/SVG/1.1/DTD/svg11.dtd">
<svg version="1.1" id="Layer_1" xmlns="http://www.w3.org/2000/svg" xmlns:xlink="http://www.w3.org/1999/xlink" x="0px" y="0px"
	 viewBox="0 0 56 35" style="enable-background:new 0 0 56 35;" xml:space="preserve">
<style type="text/css">
	.st0{fill:#020202;}
	.st1{filter:url(#Adobe_OpacityMaskFilter);}
	.st2{fill:#FFFFFF;}
	.st3{mask:url(#b_1_);fill:#020202;}
	.st4{filter:url(#Adobe_OpacityMaskFilter_1_);}
	.st5{mask:url(#d_1_);fill:#020202;}
</style>
<title>Page 1</title>
<g>
	<path class="st0" d="M14.2,11.6c0,0.4,0.1,0.7,0.1,1.1c0,0.7,0,1.4-0.1,2.1c-0.1,0.7-0.1,1.3-0.1,1.8c0,0.4,0.1,0.7,0.2,1
		c0.1,0.2,0.3,0.4,0.5,0.4c0.3,0,0.6,0,0.9-0.1c0.2,0,0.5-0.1,0.7-0.2c0.2-0.1,0.4-0.1,0.6-0.2c-0.3-0.4-0.6-0.9-0.7-1.5
		c-0.1-0.5-0.2-1-0.2-1.5c0-0.3,0-0.6,0.1-1c0-0.3,0.1-0.7,0.1-1c0-0.3,0.1-0.6,0.1-0.9c0-0.3,0.1-0.5,0.1-0.8
		c0-0.3-0.1-0.5-0.2-0.7C16.2,10.1,16,10,15.7,10c-0.2,0-0.4,0-0.6,0.1c-0.2,0.1-0.4,0.1-0.6,0.2c-0.2,0.1-0.4,0.2-0.6,0.3
		C14.1,10.9,14.2,11.2,14.2,11.6 M16.2,8.9c0.4-0.2,0.6-0.5,0.8-0.9c0.1-0.4,0.1-0.7,0-1.1c-0.1-0.2-0.2-0.3-0.3-0.5
		c-0.1-0.1-0.3-0.2-0.5-0.3C15.9,6,15.7,6,15.5,6c-0.2,0-0.4,0.1-0.6,0.2c-0.4,0.2-0.6,0.5-0.8,0.9C14,7.3,14,7.5,14,7.7
		c0,0.3,0.1,0.7,0.4,0.9S15,9,15.5,9C15.8,9,16,8.9,16.2,8.9 M50.6,18.8c0.1-0.4,0.3-0.7,0.5-1.1c0.2-0.3,0.4-0.5,0.6-0.7
		c0.2-0.2,0.5-0.3,0.8-0.3c0.1,0,0.2,0.1,0.3,0.2c0.1,0.2,0.1,0.4,0.1,0.6c0,0.5-0.2,1.1-0.6,1.5c-0.2,0.2-0.5,0.4-0.8,0.6
		c-0.3,0.2-0.7,0.3-1.2,0.4C50.4,19.6,50.5,19.1,50.6,18.8 M52,21.4c0.7,0,1.2-0.1,1.7-0.3c0.5-0.2,0.9-0.5,1.3-0.9
		c0.3-0.4,0.6-0.8,0.8-1.2c0.3-0.9,0.3-1.9,0-2.7c-0.2-0.4-0.4-0.8-0.7-1.1c-0.3-0.3-0.8-0.6-1.2-0.8c-0.5-0.2-1-0.3-1.7-0.3
		c-0.7,0-1.3,0.2-1.9,0.6c-0.6,0.4-1.2,0.9-1.7,1.5c-0.5,0.6-0.9,1.3-1.2,2.1c-0.3,0.8-0.4,1.6-0.4,2.4c0,1,0.1,1.9,0.4,2.6
		c0.3,0.7,0.6,1.3,1.1,1.7c0.4,0.4,1,0.7,1.5,0.9c0.6,0.2,1.1,0.3,1.7,0.3c0.9,0,1.9-0.2,2.7-0.7c0.4-0.2,0.6-0.4,0.9-0.7
		c0.2-0.3,0.3-0.5,0.3-0.8c0-0.4-0.1-0.7-0.4-0.9c-0.3-0.3-0.7-0.4-1.2-0.5c-0.2,0.6-0.5,1-0.8,1.3c-0.4,0.3-0.7,0.5-1.1,0.5
		c-0.3,0-0.6-0.1-0.8-0.2c-0.2-0.2-0.4-0.4-0.6-0.6c-0.2-0.3-0.3-0.6-0.3-0.9c-0.1-0.3-0.1-0.7-0.1-1.1c0.3,0.1,0.6,0.1,0.9,0.2
		C51.4,21.4,51.7,21.4,52,21.4"/>
	<path class="st0" d="M19.7,27.1c-0.2,0.2-0.5,0.4-0.9,0.4c-0.9,0-1.6-0.2-2.2-0.5c-0.6-0.4-1.2-0.9-1.6-1.5c0.5-0.2,1-0.4,1.5-0.5
		c0.4-0.1,0.9-0.2,1.4-0.2c0.4,0,0.7,0,0.9,0.1c0.3,0.1,0.5,0.2,0.6,0.3c0.2,0.1,0.3,0.3,0.4,0.5C20.2,26.1,20.1,26.7,19.7,27.1
		 M21.8,24.2c-0.4-0.3-0.9-0.6-1.6-0.7c-0.6-0.2-1.4-0.3-2.3-0.3c-0.7,0-1.3,0.1-1.9,0.2c-0.6,0.1-1.2,0.3-1.7,0.5
		c-0.3-0.9-0.6-1.8-0.7-2.7c-0.2-1.1-0.3-2.1-0.4-3.2c-0.1-1.2-0.1-2.3-0.1-3.5c0-1.2,0-2.4,0-3.6V8.4c0-0.1-0.1-0.3-0.3-0.4
		c-0.2-0.2-0.4-0.3-0.6-0.4c-0.3-0.1-0.5-0.2-0.8-0.3c-0.3-0.1-0.5-0.1-0.8-0.1c-0.3,0-0.5,0-0.7,0.1C9.6,7.4,9.5,7.6,9.5,7.8
		c0,0.2,0,0.4,0,0.6c0,0.2,0,0.4,0,0.6c-0.2,1.4-0.5,2.4-0.8,3.3c-0.3,0.8-0.5,1.5-0.7,2c-0.3,0.6-0.5,1-0.8,1.2
		c-0.1-0.2-0.3-0.6-0.4-1.2C6.7,13.7,6.6,13,6.4,12S6.1,9.8,5.9,8.2c0-0.2-0.1-0.4-0.2-0.5C5.5,7.6,5.3,7.4,5.1,7.3
		C4.9,7.2,4.7,7.1,4.4,7.1C4.1,7,3.9,7,3.6,7C3.2,7,2.8,7.1,2.5,7.2C2.1,7.3,1.8,7.5,1.6,7.8C1.7,8,1.9,8.3,2,8.7
		C2.2,9,2.4,9.5,2.6,10C2,12.3,1.4,14.7,0.8,17l-0.4,1.6c-0.1,0.4-0.2,0.7-0.2,0.9C0.1,19.8,0,20,0,20.2c0,0.2,0,0.4,0,0.8
		c0,0.5,0.1,0.8,0.4,1.1c0.3,0.3,0.6,0.5,1,0.6c0.4,0.1,0.8,0.2,1.3,0.3C3.1,23,3.5,23,3.9,23h0.5c0.1,0,0.1,0,0.2,0
		c-0.3-0.8-0.6-1.5-0.7-2.4c-0.1-0.9-0.2-1.7-0.2-2.6c0-0.7,0-1.4,0.1-2.1C3.8,15.3,3.9,14.6,4,14c0.3,1.1,0.7,2.4,1.1,3.7
		c0.4,1.4,0.8,2.8,1.1,4.3c0,0.1,0.1,0.1,0.2,0.2c0.1,0.1,0.2,0.1,0.4,0.2c0.2,0,0.3,0.1,0.5,0.1c0.2,0,0.4,0,0.5,0
		c0.3,0,0.4,0,0.5-0.1C8.5,21.2,8.7,20,9,18.8c0.2-1.1,0.5-2.1,0.8-3.2c0,0.8,0.1,1.6,0.2,2.5s0.2,1.6,0.4,2.4
		c0.2,0.8,0.4,1.5,0.6,2.3c0.2,0.7,0.5,1.4,0.9,2c-0.5,0.2-1,0.3-1.5,0.4c-0.6,0.1-1.1,0.2-1.7,0.2c-0.5,0-1.1,0-1.7-0.2
		c-0.6-0.1-1.2-0.3-1.9-0.5C5,24.9,5,25.1,4.9,25.3s0,0.4,0,0.6c0,0.3,0,0.6,0.1,1c0.1,0.3,0.2,0.6,0.5,0.8c0.2,0.2,0.5,0.4,0.8,0.6
		c0.3,0.1,0.7,0.2,1.2,0.2c0.4,0,0.8-0.1,1.2-0.2c0.4-0.1,0.9-0.3,1.4-0.5c0.5-0.2,1-0.4,1.5-0.7c0.5-0.2,1-0.5,1.5-0.8
		c0.7,0.8,1.7,1.5,2.7,1.9c1.1,0.5,2.3,0.7,3.9,0.7c0.5,0,1-0.1,1.5-0.2c0.4-0.1,0.8-0.3,1.1-0.6c0.5-0.5,0.9-1.1,0.9-1.8
		c0-0.4-0.1-0.8-0.3-1.2C22.5,24.8,22.2,24.5,21.8,24.2"/>
	<g transform="translate(7)">
		<defs>
			<filter id="Adobe_OpacityMaskFilter" filterUnits="userSpaceOnUse" x="0.6" y="0.6" width="19.9" height="16.8">
				<feColorMatrix  type="matrix" values="1 0 0 0 0  0 1 0 0 0  0 0 1 0 0  0 0 0 1 0"/>
			</filter>
		</defs>
		<mask maskUnits="userSpaceOnUse" x="0.6" y="0.6" width="19.9" height="16.8" id="b_1_">
			<g class="st1">
				<path id="a_1_" class="st2" d="M0.6,0.6h19.9v16.8H0.6V0.6z"/>
			</g>
		</mask>
		<path class="st3" d="M19.4,16.9c0.4-0.3,0.8-0.9,1.2-1.6c-0.6-0.1-1.1-0.3-1.4-0.6c-0.4-0.3-0.7-0.6-1-1c-0.3-0.4-0.5-0.9-0.7-1.3
			c-0.2-0.5-0.3-1-0.5-1.5l-0.4-1.5c-0.1-0.5-0.3-0.9-0.4-1.3c-0.2-0.4-0.4-0.7-0.6-1c-0.2-0.3-0.6-0.5-0.9-0.6
			c0.6-0.4,1.2-0.8,1.8-1.2c0.6-0.4,1.1-0.8,1.5-1.2c0.4-0.4,0.7-0.8,1-1.1s0.3-0.7,0.3-1c0-0.3-0.2-0.6-0.6-0.8
			c-0.4-0.2-1-0.3-1.9-0.3c-0.2,0.6-0.4,1.2-0.6,1.7s-0.5,0.9-0.8,1.3c-0.3,0.4-0.6,0.7-0.9,1c-0.3,0.3-0.7,0.5-1,0.7
			c0-0.7,0.1-1.3,0.2-2c0.1-0.6,0.2-1.2,0.3-1.8c-0.1-0.2-0.3-0.3-0.5-0.4c-0.2-0.1-0.4-0.1-0.6-0.1c-0.4,0-0.8,0.2-1.3,0.4L9.8,2.4
			C9.2,2.8,8.6,3.1,7.9,3.4C7.2,3.6,6.5,3.8,5.7,3.8c-0.6,0-1.3,0-1.9-0.2C3.2,3.5,2.5,3.2,1.8,2.8C1.4,3.1,1.1,3.6,0.9,4
			C0.7,4.4,0.6,4.8,0.6,5.1c0,0.5,0.2,0.8,0.6,1.1c0.4,0.3,1,0.4,1.7,0.4c0.7,0,1.3-0.2,1.9-0.5c0.7-0.3,1.3-0.6,1.9-1
			c0.7-0.4,1.3-0.7,2-1.1c0.7-0.3,1.4-0.6,2.1-0.8c0.1,0.4,0.2,0.7,0.2,1.1c0.1,0.4,0.1,0.8,0.1,1.2c0,0.6,0,1.2,0,1.8
			c0,0.6,0,1.2-0.1,1.8c0,0.6-0.1,1.1-0.1,1.6l-0.2,1.4c0,0.4-0.1,0.7-0.1,1c0,0.1,0,0.3-0.1,0.4c0,0.3,0.1,0.4,0.3,0.5
			c0.2,0.1,0.4,0.1,0.6,0.1c0.2,0,0.5-0.1,0.7-0.1c0.3-0.1,0.5-0.2,0.8-0.3c0.3-0.1,0.6-0.3,0.8-0.4c-0.2-0.4-0.3-0.9-0.4-1.6
			c-0.1-0.7-0.2-1.4-0.2-2.1c0-0.9-0.1-1.9-0.1-2.8c0.3,0,0.6,0.2,0.8,0.5c0.2,0.3,0.4,0.7,0.6,1.2c0.2,0.5,0.3,1.1,0.4,1.7l0.4,1.9
			c0.1,0.6,0.3,1.3,0.4,1.9c0.1,0.6,0.3,1.2,0.6,1.6c0.2,0.5,0.5,0.8,0.8,1.1s0.7,0.4,1.2,0.4C18.6,17.4,19,17.2,19.4,16.9"/>
	</g>
	<g transform="translate(24 17)">
		<defs>
			<filter id="Adobe_OpacityMaskFilter_1_" filterUnits="userSpaceOnUse" x="0.3" y="0.1" width="13.6" height="17.9">
				<feColorMatrix  type="matrix" values="1 0 0 0 0  0 1 0 0 0  0 0 1 0 0  0 0 0 1 0"/>
			</filter>
		</defs>
		<mask maskUnits="userSpaceOnUse" x="0.3" y="0.1" width="13.6" height="17.9" id="d_1_">
			<g class="st4">
				<path id="c_1_" class="st2" d="M14,18H0.3V0.1H14V18z"/>
			</g>
		</mask>
		<path class="st5" d="M12.9,1.4c-0.4-0.4-0.8-0.8-1.4-1c-0.6-0.2-1.2-0.4-2-0.4C8.6,0.1,7.8,0.2,7,0.5C6.2,0.8,5.5,1.2,4.8,1.7
			C4.1,2.2,3.5,2.8,3,3.5c-0.5,0.6-1,1.3-1.4,2C1.2,6.2,0.9,6.9,0.6,7.6C0.4,8.3,0.3,8.9,0.3,9.5c0,0.4,0,0.7,0.1,1
			c0.1,0.3,0.2,0.6,0.4,0.8c0.2,0.2,0.4,0.4,0.7,0.5C1.9,12,2.2,12,2.6,12c0.2,0,0.4,0,0.6-0.1c0.1-0.1,0.2-0.2,0.3-0.3
			c0.1-0.1,0.1-0.3,0.2-0.4c0.1-0.2,0.1-0.5,0-0.8c0,0,0-0.1,0-0.1c-0.5,0-0.9-0.2-1.1-0.4C2.3,9.6,2.2,9.2,2.2,8.8
			c0-0.4,0.1-0.8,0.2-1.2c0.2-0.5,0.4-0.9,0.7-1.3c0.3-0.4,0.7-0.9,1.1-1.3C4.7,4.6,5.2,4.3,5.7,4c0.6-0.3,1.1-0.6,1.8-0.8
			c0.7-0.2,1.3-0.3,2-0.3c0.3,0,0.7,0.1,0.9,0.2c0.3,0.1,0.5,0.3,0.8,0.5c0.2,0.2,0.4,0.5,0.5,0.9c0.1,0.4,0.2,0.8,0.2,1.3
			c0,0.6-0.1,1.3-0.4,2c-0.2,0.7-0.6,1.4-1,2.1c-0.4,0.7-0.9,1.4-1.5,2c-0.6,0.6-1.2,1.2-1.9,1.7c-0.2-0.2-0.4-0.4-0.5-0.6
			c-0.1-0.3-0.2-0.5-0.3-0.8c-0.1-0.3-0.1-0.6-0.1-1c0-0.4,0-0.7,0-1.1c0-0.2,0-0.5,0-0.9c0-0.4,0-0.9,0.1-1.3c0-0.5,0-0.9,0.1-1.3
			c0-0.4,0-0.7,0-0.8c0-0.2-0.1-0.4-0.2-0.5C5.9,5.1,5.8,5.1,5.6,5.1c-0.2,0-0.4,0-0.6,0.1C4.8,5.3,4.6,5.3,4.4,5.4
			C4.1,5.5,3.9,5.6,3.7,5.7C3.9,6.1,4,6.6,4,7.2C4.1,7.8,4.1,8.4,4.2,9c0,0.6,0,1.2,0,1.8c0,0.6,0,1.1,0.1,1.6
			c0,0.5,0.1,0.9,0.2,1.2C4.6,13.9,4.8,14,5,14c0.3,0,0.6,0,1-0.1c0.3-0.1,0.6-0.2,0.8-0.2c-0.7,0.4-1.4,0.8-2.1,1
			C4,14.9,3.2,15,2.5,15H2.2c-0.1,0-0.2,0-0.3,0c0,0.1,0,0.2-0.1,0.3c0,0.1,0,0.2,0,0.3c0,0.3,0.1,0.6,0.2,0.9
			c0.1,0.3,0.3,0.5,0.6,0.8c0.2,0.2,0.5,0.4,0.8,0.5c0.3,0.1,0.7,0.2,1,0.2c0.8,0,1.5-0.2,2.3-0.6c0.8-0.4,1.5-1,2.2-1.6
			c0.7-0.7,1.4-1.5,2-2.4c0.6-0.9,1.1-1.8,1.6-2.8c0.4-1,0.8-1.9,1-3c0.3-1,0.4-1.9,0.4-2.8c0-0.7-0.1-1.3-0.2-1.9
			C13.6,2.4,13.3,1.9,12.9,1.4"/>
	</g>
	<path class="st0" d="M47.4,24.4c-0.3-0.5-0.6-1.1-0.8-1.6c-0.2-0.6-0.4-1.2-0.6-1.7c-0.2-0.5-0.4-1.1-0.7-1.6
		c-0.2-0.5-0.5-0.9-0.8-1.2c0.5-0.2,1.1-0.5,1.5-0.9c0.4-0.3,0.8-0.7,1.1-1.2c0.3-0.4,0.5-0.9,0.7-1.3s0.2-0.9,0.2-1.3
		c0-0.3-0.1-0.7-0.2-1c-0.1-0.3-0.3-0.6-0.5-0.8c-0.3-0.2-0.6-0.4-0.9-0.5c-0.4-0.1-0.8-0.2-1.3-0.2c-0.5,0-0.9,0.1-1.4,0.3
		c-0.4,0.2-0.9,0.4-1.3,0.7c-0.4,0.3-0.8,0.6-1.2,0.9c-0.4,0.3-0.8,0.6-1.2,0.9c-0.4,0.3-0.8,0.5-1.2,0.7c-0.4,0.2-0.9,0.3-1.3,0.3
		c-0.5,0-1-0.1-1.6-0.4c-0.5-0.3-1.1-0.8-1.7-1.5c-0.4,0.3-0.7,0.7-0.9,1.1C33.1,14.2,33,14.6,33,15c0,0.2,0,0.5,0.1,0.7
		c0.1,0.2,0.2,0.4,0.4,0.5c0.2,0.2,0.4,0.3,0.7,0.4c0.3,0.1,0.6,0.1,1,0.1c0.6,0,1.1-0.1,1.7-0.2c0.5-0.1,1.1-0.3,1.6-0.6
		c0.5-0.2,1-0.5,1.5-0.7c0.5-0.3,0.9-0.5,1.3-0.7c0.4-0.2,0.8-0.4,1.1-0.6c0.3-0.1,0.6-0.2,0.9-0.2c0.2,0,0.4,0.1,0.6,0.3
		c0.1,0.2,0.2,0.5,0.2,1c0,0.3,0,0.6-0.1,1c-0.1,0.3-0.2,0.6-0.4,0.9c-0.2,0.3-0.4,0.5-0.6,0.7c-0.2,0.2-0.5,0.4-0.8,0.4
		c0-0.2,0-0.4,0-0.7v-0.6c0-0.3-0.1-0.5-0.2-0.6C41.9,16,41.7,16,41.5,16c-0.2,0-0.4,0-0.6,0.1c-0.2,0.1-0.4,0.1-0.6,0.2
		c-0.2,0.1-0.5,0.2-0.7,0.3c0.1,0.3,0.2,0.7,0.3,1.1c0,0.4,0.1,0.9,0.1,1.4c0,0.4,0,0.7,0,1.2c0,0.4,0,0.8-0.1,1.2
		c0,0.4,0,0.8-0.1,1.2c0,0.4,0,0.7,0,1c0,0.5,0,0.9,0.1,1.2c0.1,0.3,0.3,0.5,0.5,0.5c0.2,0,0.5,0,0.8-0.1s0.6-0.1,0.9-0.2
		c0.3-0.1,0.7-0.2,1-0.3c-0.4-0.4-0.7-0.8-0.9-1.4c-0.1-0.7-0.2-1.3-0.2-2c0-0.2,0-0.4,0-0.6c0-0.2,0-0.5,0-0.7c0-0.5,0-0.9,0.1-1.4
		c0.1,0.1,0.2,0.1,0.3,0.2c0.1,0.1,0.2,0.1,0.3,0.1c0.2,0,0.5,0.1,0.7,0.4c0.2,0.3,0.3,0.6,0.5,1c0.1,0.4,0.3,0.9,0.4,1.4
		c0.1,0.5,0.3,1.1,0.4,1.7c0.1,0.6,0.3,1.1,0.4,1.7c0.2,0.5,0.3,1,0.5,1.4s0.4,0.8,0.7,1c0.3,0.3,0.6,0.4,1,0.4
		c0.3,0,0.7-0.1,1.2-0.4c0.4-0.3,0.9-0.7,1.5-1.3c-0.6-0.1-1.1-0.3-1.5-0.7C48,25.3,47.7,24.8,47.4,24.4 M26.8,7.6
		c0.1-0.3,0.2-0.6,0.3-0.8c0.1-0.2,0.3-0.4,0.5-0.6C27.8,6.1,28,6,28.2,6c0.1,0,0.2,0,0.2,0.2c0.1,0.1,0.1,0.3,0.1,0.4
		c0,0.2,0,0.4-0.1,0.6c-0.1,0.2-0.2,0.4-0.3,0.6c-0.2,0.2-0.4,0.4-0.6,0.5c-0.3,0.2-0.6,0.3-1,0.3C26.6,8.2,26.7,7.9,26.8,7.6
		 M25.1,5.7c-0.4,0.5-0.6,1-0.8,1.6C24.1,7.9,24,8.5,24,9.1c0,0.8,0.2,1.4,0.4,1.9c0.2,0.5,0.6,0.9,0.9,1.2c0.4,0.3,0.8,0.5,1.2,0.6
		C27.1,13,27.5,13,28,13c0.7,0,1.5-0.2,2.1-0.6c0.3-0.2,0.5-0.3,0.7-0.6c0.1-0.2,0.2-0.4,0.2-0.6c0-0.3-0.1-0.5-0.4-0.7
		c-0.2-0.2-0.5-0.3-1-0.3c-0.1,0.4-0.3,0.8-0.6,1c-0.3,0.2-0.6,0.4-0.9,0.4c-0.2,0-0.5,0-0.7-0.1c-0.2-0.1-0.4-0.3-0.5-0.5
		c-0.1-0.2-0.2-0.4-0.3-0.7c-0.1-0.3-0.1-0.6-0.1-0.8c0.2,0,0.5,0.1,0.7,0.1c0.2,0,0.5,0,0.7,0c0.5,0,1-0.1,1.4-0.3
		c0.4-0.2,0.7-0.4,1-0.7c0.3-0.3,0.4-0.6,0.6-0.9c0.2-0.7,0.2-1.4-0.1-2.1c-0.1-0.3-0.3-0.6-0.6-0.8c-0.3-0.2-0.6-0.4-1-0.6
		C28.8,4,28.3,4,27.8,4c-0.5,0-1,0.2-1.5,0.5C25.8,4.8,25.4,5.2,25.1,5.7"/>
</g>
</svg>
