<svg id="Layer_1" xmlns="http://www.w3.org/2000/svg" viewBox="0 0 624 235"><style>.st0{fill:none;stroke:#44b6e6;stroke-width:1.4392;stroke-miterlimit:10}.st1{fill:#44b6e6}.st2{fill:#007fab}</style><path class="st0" d="M369.1 24.1c0 2 1.6 3.4 4.2 3.4 3.1 0 5.5-1.5 6.2-4.1v-2.2h-5.7c-3.1-.1-4.7.8-4.7 2.9z"/><path class="st1" d="M333.8 21.4h-7.7l1-7.7h7.7l-1 7.7zm-6.9-.8h6.3l.8-6.2h-6.3l-.8 6.2zm97.9-.9h-13.3v-.4c.4-3.7 3.1-6.2 6.8-6.2 3.7 0 6.3 2.4 6.5 6.2v.4zm-12.5-.8H424c-.3-3.2-2.5-5.1-5.7-5.1s-5.5 2-6 5.1z"/><path class="st0" d="M476.7 24.1c0 2 1.6 3.4 4.2 3.4 3.1 0 5.5-1.5 6.2-4.1v-2.2h-5.7c-3.1-.1-4.7.8-4.7 2.9z"/><path class="st1" d="M572.6 19.7h-13.3v-.4c.4-3.7 3.1-6.2 6.8-6.2 3.7 0 6.3 2.4 6.5 6.2v.4zm-12.4-.8h11.7c-.3-3.2-2.5-5.1-5.7-5.1s-5.5 2-6 5.1z"/><path class="st2" d="M591.9 126.1l24.7-76.7c.3-.7.1-1.2-.5-1.7s-1.3-.7-2-.7h-16.9c-.7 0-1.2.2-1.5.7-.4.5-.7 1.1-1 1.8L582 89.2c2.2 7.1 5.9 19.2 8.5 29.3.7 2.9 1.2 5.4 1.4 7.6zm-567.1-80s1.5-.8 1.8-.9V6.9c0-.7-.3-1.3-.8-1.8s-1.2-.7-1.9-.7H7.3c-.9 0-1.6.2-2.1.7-.6.5-.8 1.1-.8 1.8V73c1.7-6.2 4.7-12 9-17.1 4.9-5.9 10-9 11.4-9.8z"/><path class="st2" d="M15 59.1C8.8 66.8 4.9 75.2 4.4 85v41.1c0 1.7 1.1 1.9 2.2 1.9h15.9c1.4 0 2-.6 2-1.9V85.5c0-2.9.6-5.7 1.9-8.4 1.2-2.6 2.9-4.9 4.9-6.8 2-1.9 4.3-3.4 6.9-4.6 2.6-1.1 5.4-1.7 8.4-1.7 3.1 0 6 .6 8.7 1.7 2.7 1.1 5.1 2.7 7.2 4.8 2.1 2 3.7 4.5 4.9 7.2 1.2 2.7 1.7 5.6 1.7 8.7v40.3c.2.9.8 1.4 2 1.4h16.1c1 0 1.6-.4 2-1.4V86.5c0-5.7-1.1-11.2-3.3-16.3-2.2-5.1-5.3-9.6-9.1-13.4-3.8-3.8-8.4-6.8-13.5-9s-10.7-3.2-16.6-3.2c-7 0-13.7 1.3-19.8 4.4-.1 0-5.4 2-11.9 10.1zm372.6-13.9v-3.1c0-.7-.2-1.3-.7-1.8-.5-.5-1.1-.7-1.8-.7h-15.9c-.9 0-1.5.2-2 .7-.5.5-.7 1.1-.7 1.8v29.5c1.7-6 4.4-11.7 8.8-16.4 6.3-6.9 12.1-9.9 12.3-10zm-224.8.2v-2.8c0-.6.3-1.2.8-1.6.5-.4 1.1-.7 1.9-.7H182c.9 0 1.6.2 2.1.7.5.4.8 1 .8 1.6v26.7c-1.7-5.4-4.5-10.6-9.1-14.9-6.7-6.1-12.8-8.9-13-9z"/><path class="st2" d="M447.6 69.5c-2.2-5.1-5.3-9.6-9.1-13.4-3.8-3.8-8.4-6.8-13.5-9s-10.7-3.2-16.6-3.2c-7.4 0-14.4 1.8-20.8 5.2 0 0-.1 0-.1.1l-.2.1c-1.4.8-6.1 3.7-10.8 9.2l-.3.3c-3.2 3.8-5.7 8-7.4 12.5-1.5 3.9-2.4 8.1-2.7 12.5v41.7c0 1.7 1.1 1.9 2.2 1.9h15.9c1.4 0 2-.6 2-1.9V84.8c0-2.9.6-5.7 1.9-8.4 1.2-2.6 2.9-4.9 4.9-6.8 2-1.9 4.3-3.4 6.9-4.6 2.6-1.1 5.4-1.7 8.4-1.7 3.1 0 6 .6 8.7 1.7 2.7 1.1 5.1 2.7 7.2 4.8 2.1 2 3.7 4.5 4.9 7.2 1.2 2.7 1.7 5.6 1.7 8.7V126c.2.6.6 1.4 2 1.4h16.1c1 0 1.6-.4 2-1.4V85.8c0-5.7-1.1-11.2-3.3-16.3zm-188.9 31.8c-1.3-1-2.4-1-3.5 0-2.1 2.1-4.6 3.8-7.4 5.3-2.8 1.4-5.9 2.1-9.1 2.1-3 0-5.9-.6-8.6-1.7-2.7-1.1-5-2.7-6.9-4.8-1.9-2-3.4-4.4-4.6-7.1-1.1-2.7-1.7-5.6-1.7-8.6s.6-5.9 1.7-8.6c1.1-2.7 2.7-5.1 4.6-7.1 1.9-2 4.2-3.6 6.9-4.8 2.7-1.1 5.6-1.7 8.6-1.7 2.6 0 5.2.5 7.7 1.6 2.5 1 4.8 2.4 6.9 4l1.8 1.8c1 1 2.1 1 3.5 0L270.2 61c.9-1 .9-2.1 0-3.3-4-4.1-8.7-7.4-14.1-9.8-5.4-2.4-11.3-3.6-17.4-3.6-5.9 0-11.5 1.1-16.6 3.3-5.1 2.2-9.6 5.2-13.4 9-3.8 3.8-6.9 8.4-9.1 13.5-2.2 5.1-3.3 10.7-3.3 16.4 0 5.9 1.1 11.5 3.3 16.5 2.2 5.1 5.3 9.6 9.1 13.4 3.8 3.8 8.4 6.9 13.4 9 5.1 2.2 10.7 3.3 16.6 3.3 6.2 0 12.1-1.2 17.4-3.6 5.4-2.3 10.1-5.6 14.1-9.8.9-1.3.9-2.3 0-3.3l-11.5-10.7z"/><path class="st1" d="M370.9 203.3c-1.4-1.1-2.6-1.1-3.7 0-2.1 2.1-4.6 3.8-7.4 5.2-2.8 1.4-5.8 2.1-9 2.1-3 0-5.9-.6-8.5-1.7-2.6-1.1-4.9-2.7-6.8-4.7-1.9-2-3.4-4.4-4.5-7.1-1.1-2.7-1.7-5.6-1.7-8.6s.6-5.9 1.7-8.6c1.1-2.7 2.7-5.1 4.5-7.1 1.9-2 4.2-3.6 6.8-4.7 2.6-1.1 5.5-1.7 8.5-1.7 2.6 0 5.1.5 7.6 1.6 2.5 1 4.8 2.4 6.9 4l1.8 1.8c1.1 1.1 2.3 1.1 3.7 0l11.6-10.7c.9-1 .9-2.2 0-3.5-4-4.2-8.8-7.5-14.1-9.8-5.4-2.4-11.3-3.6-17.5-3.6-5.9 0-11.5 1.1-16.6 3.3-5.1 2.2-9.6 5.2-13.5 9.1-3.8 3.8-6.9 8.4-9.1 13.6-2.2 5.1-3.3 10.7-3.3 16.5 0 5.9 1.1 11.5 3.3 16.6 2.2 5.1 5.3 9.6 9.1 13.4 3.8 3.8 8.4 6.9 13.5 9.1 5.1 2.2 10.7 3.3 16.6 3.3 6.2 0 12.1-1.2 17.5-3.6 5.4-2.4 10.1-5.7 14.1-9.8 1-1.3 1-2.5 0-3.5l-11.5-10.9zm94.1-55.9c-.6-.5-1.3-.7-2-.7h-17c-.7 0-1.1.2-1.4.7-.4.5-.7 1.1-1 1.8L427.2 197 411 149.1c-.3-.7-.6-1.3-1-1.8-.3-.4-.9-.7-1.7-.7H391c-.7 0-1.3.2-2 .7-.6.4-.7.9-.5 1.5l26.9 79.2c.3.7.7 1.2 1.2 1.6.6.4 1.2.7 1.9.8H435c.7 0 1.4-.2 2.1-.7.7-.5 1.2-1.1 1.5-1.7l26.9-79.2c.3-.5.1-1-.5-1.4zm64.2 41.7c-2.4-1.8-5.1-3.3-8-4.4-3-1.2-6-2.2-9-3.1-2.7-.9-5.2-1.6-7.6-2.1-2.4-.5-4.6-1.1-6.5-1.7-2-.6-3.5-1.3-4.7-2-1.2-.8-1.8-1.8-1.8-3.1s.5-2.3 1.5-3.1c.9-.7 2-1.4 3.3-1.8 1.3-.4 2.6-.8 4.1-1 1.4-.2 2.8-.3 4-.3 2.6.2 5.2.8 7.8 2 2.6 1.2 5.5 3 8.5 5.5 1.1 1.1 2.3 1.1 3.6 0l11.7-10.8c.9-1.1.9-2.3 0-3.6-4-4.2-8.8-7.6-14.1-9.9-5.4-2.3-11.3-3.5-17.5-3.5-3.4 0-7.2.4-11.2 1.3-4 .9-7.7 2.3-11 4.1-3.3 1.9-6.1 4.5-8.3 7.7-2.2 3.2-3.3 7.3-3.3 12 0 3.9.7 7.2 2.2 9.9 1.5 2.7 3.4 5.1 5.8 6.9 2.4 1.9 5 3.4 8 4.7 3 1.2 6 2.3 8.9 3.2 2.5.7 5.1 1.4 7.5 1.9 2.5.5 4.7 1.1 6.5 1.7 1.9.6 3.5 1.3 4.7 2 1.3.8 1.9 1.8 1.9 2.9 0 1.3-.5 2.3-1.5 3.1-.9.7-2 1.4-3.3 1.8-1.3.4-2.6.8-4.1 1-1.4.2-2.8.3-4 .3-5.3-.1-10.8-2.7-16.3-7.6-1.1-1.1-2.3-1.1-3.7 0l-11.7 10.8c-.9 1.1-.9 2.3 0 3.6 4 4.2 8.7 7.6 14.1 9.9 5.4 2.3 11.3 3.5 17.5 3.5 3.4 0 7.2-.4 11.2-1.2 4-.8 7.7-2.2 11-4.1 3.3-1.9 6.1-4.5 8.3-7.7 2.2-3.1 3.3-7.2 3.3-12.1 0-3.9-.7-7.2-2.2-9.9-1.3-2.7-3.2-5-5.6-6.8z"/><path class="st2" d="M303.3 72l1.9-2.8V6.3c0-.7-.3-1.3-.8-1.8s-1.1-.7-1.9-.7H286c-.9 0-1.6.2-2.1.7-.5.5-.8 1.1-.8 1.8v97.2c1-2.4 2.4-5 4-7.6 10.6-16.3 16.1-23.8 16.2-23.9zm236.3 4.4v-.1c-.4-2-.9-3.8-1.4-5.3-2.7-7.8-7.3-14.3-13.8-19.3-6.5-5-14.4-7.5-23.5-7.5-5.9 0-11.4 1.1-16.2 3.3-4.9 2.2-9.1 5.2-12.5 9-3.5 3.8-6.2 8.4-8.1 13.5-.7 1.8-1.3 3.9-1.8 6.3v.2c-.1.7-.3 1.3-.4 2-.3 1.6-.5 3.1-.6 4.7-.1 1.1-.1 2.2-.1 3.3 0 3 .3 6.1 1 9.1l.1.2c.6 2.6 1.3 5 2.3 7.2 2.2 5.1 5.3 9.6 9.1 13.4 3.8 3.8 8.4 6.9 13.4 9 5.1 2.2 10.7 3.3 16.6 3.3 6.2 0 12.1-1.2 17.4-3.7 5.4-2.5 10.1-5.8 14.1-10 .9-1.3.9-2.4 0-3.4l-11.6-10.8c-1.3-1-2.4-1-3.5 0l-2.7 2.7c-4.1 3.1-8.7 4.7-13.7 4.7-4.4 0-8.4-1.1-11.8-3.4-3.4-2.2-6.1-5.2-7.9-8.7l-.3-.6h54.6c.6 0 1.1-.2 1.5-.6.4-.4.7-.9.7-1.6.4-5.4.4-9.8-.1-13.3-.3-1.2-.5-2.3-.8-3.6zm-22.2.4h-34.1l.2-.6V76c1.4-3.4 3.5-6.3 6.4-8.4 2.9-2.2 6.5-3.3 10.8-3.3 4 0 7.5 1.1 10.5 3.3 2.9 2.2 5.1 5 6.5 8.4v.1l.3.6-.6.1zm-333 2.5c-.5-4.3-1.3-7.4-2.7-10.7-.5-1.1-2-4.4-5.2-8.2-1.1-1.4-2.4-2.8-4-4.2-6.9-6.4-13.8-9.6-23.4-11.2-.5-.1-1-.2-1.6-.2-.5-.1-1-.1-1.6-.2-1.3-.1-2.3-.2-3.3-.2h-.6c-1 0-2.1.1-3.4.2h-.2c-.4 0-.7.1-1.1.1-1.1.1-2.1.3-3.2.5-.4.1-.7.1-1.1.2l-.3.1c-.9.2-1.6.4-2.4.6l-.3.1c-.3.1-.5.1-.8.2-1.3.4-2.5.8-3.6 1.3-1.4.6-2.9 1.3-4.5 2.3-3.3 1.9-6.3 4.1-8.8 6.7-3.8 3.8-6.8 8.3-9 13.4S100 80.7 100 86.4c0 5.9 1.1 11.4 3.3 16.4 2.2 5 5.2 9.5 9 13.3 3.8 3.8 8.3 6.8 13.3 9 5 2.1 10.6 3.2 16.4 3.2 7.6 0 14.8-1.8 21.3-5.4.1 0 .1-.1.2-.1l1.1-.4v3.6c0 .2 0 .5.1.7v.2c0 .1.1.1.1.2l.2.2h.2c.1.1.2.1.3.2.2.1.5.1.8.1h16.1c.3 0 .5 0 .8-.1.5-.1.8-.5 1.1-1 .1-.2.1-.4.1-.7V86.2c.3-2.6.2-4.9 0-6.9zm-19.6 7.8v.3c-.2 2.8-.9 5.5-2.1 7.9-1.2 2.6-2.9 4.9-5 6.8-2.1 1.9-4.4 3.4-7.1 4.6-2.6 1.1-5.5 1.7-8.4 1.7-6.2 0-11.5-2.2-15.7-6.5-4.2-4.3-6.4-9.6-6.4-15.7 0-3 .6-6 1.7-8.7.8-1.9 1.8-3.7 3-5.3.1-.1.1-.2.2-.2.1-.1.2-.3.3-.4v-.1c.3-.4.7-.8 1.1-1.2 1.9-2.1 4.3-3.7 7-4.8 2.7-1.1 5.6-1.7 8.7-1.7 3.1 0 6 .6 8.7 1.7 2.7 1.1 5.1 2.8 7.2 4.8 2.1 2.1 3.7 4.5 4.9 7.2 1 2.5 1.6 5.2 1.7 8v.8l.2.8zm423.6 33.8c-2.4-9.2-5.8-20.1-8.1-27.4 0-.1 0-.2-.1-.2 0-.1 0-.2-.1-.2-1.4-4.5-2.4-7.5-2.4-7.5l-12.5-37.3c-.3-.7-.6-1.2-.9-1.7-.1-.1-.3-.5-1.3-.5h-17.3c-.6 0-1.1.2-1.7.6-.5.4-.5.7-.3 1l27 79.4-12.9 38.3c-.4 1.1-.3 1.4-.2 1.6.1.2.5.3 1.1.3H576c.6 0 1.2-.2 1.8-.6.6-.4 1-1 1.3-1.7 0 0 4.1-12 8.8-25.9v-.1c.7-1.8 1.3-3.5 1.6-5.2 0-.3.1-.5.1-.8 0-.2.1-.5.1-.7.4-3 0-6.5-1.3-11.4zM358 126.5l-32.6-45.8 24.5-34.2c.1-.1.1-.4-.4-.8-.5-.5-1.2-.7-1.9-.7h-20.2c-.5 0-1 .2-1.4.6-.4.5-.8 1-1.3 1.6l-19.3 27.3-.1.2-.1.2-.8 1.1c-.1.1-5.5 7.6-16.1 23.9-2.9 4.4-4.9 9-5.3 11.9 0 .3-.1.6-.1.9v13.5c0 1.7 1.1 1.9 2.2 1.9H301c1.4 0 2-.6 2-1.9v-13.8l9.9-14.2 19.9 27.4c.4.5.8 1 1.1 1.5l.2.3c.3.4.8.6 1.4.6h20.2c.6 0 1.2-.2 1.8-.7.8-.5.7-.6.5-.8z"/><path class="st1" d="M323.4 29.6h2.1l.8-6.5h7l-.8 6.5h2.1l.8-6.5h5l.2-2.1h-5l.9-7h5.1l.1-2.1h-5l.8-6.7h-2.1l-.8 6.7h-7l.8-6.7h-2.1l-.8 6.7h-5l-.2 2.1h5l-.9 7h-5l-.2 2.1h5l-.8 6.5zm4-15.5h7l-.9 7h-7l.9-7z"/><path class="st1" d="M334.9 30H332l.8-6.5h-6.3l-.8 6.5H323l.8-6.5h-5l.2-2.8h5.1l.8-6.2h-5l.2-2.8h5.1L326 5h2.8l-.8 6.7h6.3l.8-6.7h2.8l-.8 6.7h4.9l-.2 2.8h-5.1l-.8 6.2h5l-.2 2.8h-5.1l-.7 6.5zm-2-.8h1.4l.8-6.5h5l.1-1.4h-5l1-7.7h5.1l.1-1.4h-5l.8-6.7h-1.3l-.8 6.7h-7.7l.8-6.7h-1.4l-.8 6.7h-5l-.1 1.4h5l-1 7.7h-5l-.1 1.4h5l-.8 6.5h1.4l.8-6.5h7.7l-1 6.5zm.9-7.8h-7.7l1-7.7h7.7l-1 7.7zm-6.9-.8h6.3l.8-6.2h-6.3l-.8 6.2zm24.4-1.5h11.4v-2.5h-11.4V7.8H364V5.3h-15.5v24.3h2.8z"/><path class="st1" d="M351.7 30h-3.5V4.9h16.2v3.3h-12.7v8H363v3.3h-11.4V30zm-2.8-.8h2.1V18.7h11.4v-1.8H351V7.5h12.7V5.6H349v23.6zm24.6-10.3c-4.3 0-6.8 2.1-6.8 5.2s2.4 5.5 6.2 5.5c2.9 0 5.2-1 6.7-3v2.9h2.6V17.4c0-3.9-2.5-6.3-7.1-6.3-3.1 0-5.1.9-7.5 2.5l1.1 1.9c1.9-1.4 3.8-2.1 5.8-2.1 3.2 0 4.9 1.6 4.9 4.3v1.1h-5.9zm6 2.2v2.2c-.7 2.6-3.1 4.1-6.2 4.1-2.6 0-4.2-1.4-4.2-3.4 0-2.1 1.6-3 4.7-3h5.7z"/><path class="st1" d="M372.8 30.1c-3.9 0-6.6-2.4-6.6-5.9 0-3.4 2.8-5.6 7.2-5.6h5.7v-.8c0-2.5-1.6-4-4.5-4-1.8 0-3.6.7-5.6 2.1l-.3.2-1.5-2.5.3-.2c2.4-1.6 4.4-2.5 7.7-2.5 4.6 0 7.4 2.5 7.4 6.6V30h-3.4v-2.2c-1.5 1.4-3.7 2.3-6.4 2.3zm.7-10.8c-4.1 0-6.5 1.9-6.5 4.9 0 3 2.4 5.2 5.9 5.2 2.8 0 5.1-1 6.4-2.8l.6-.9v3.6h1.9V17.6c0-3.8-2.5-5.9-6.7-5.9-2.9 0-4.8.8-7 2.2l.8 1.3c2-1.3 3.8-2 5.7-2 3.3 0 5.3 1.7 5.3 4.7v1.5h-6.4zm-.1 8.5c-2.7 0-4.6-1.5-4.6-3.7s1.7-3.3 5-3.3h6.1v2.7c-.8 2.6-3.3 4.3-6.5 4.3zm.4-6.4c-3.9 0-4.3 1.5-4.3 2.6 0 1.8 1.5 3 3.8 3 3 0 5.1-1.4 5.8-3.8v-1.8h-5.3zm15.7-13.5c1 0 1.8-.8 1.8-1.8 0-1.1-.8-1.8-1.8-1.8s-1.8.8-1.8 1.8c.1 1 .8 1.8 1.8 1.8z"/><path class="st1" d="M389.5 8.3c-1.2 0-2.1-1-2.1-2.2 0-1.3.9-2.2 2.1-2.2 1.2 0 2.1.9 2.1 2.2.1 1.2-.9 2.2-2.1 2.2zm0-3.7c-.8 0-1.4.6-1.4 1.5 0 .8.6 1.5 1.4 1.5.8 0 1.4-.6 1.4-1.5.1-.9-.5-1.5-1.4-1.5zm-1.3 6.7h2.7v18.3h-2.7z"/><path class="st1" d="M391.3 30h-3.4V11h3.4v19zm-2.7-.8h2V11.7h-2v17.5zm11.6-9.3c.3-3.7 2.7-6.1 6.6-6v-2.6c-3.1 0-5.4 1.5-6.6 4.2v-4.1h-2.7v18.3h2.7v-9.8z"/><path class="st1" d="M400.6 30h-3.4V11h3.4v3c1.4-2 3.5-3.1 6.2-3.1h.4v3.4h-.4c-3.6 0-5.9 2.1-6.2 5.7v10zm-2.7-.8h2v-9.4c.3-3.9 2.8-6.3 6.6-6.3v-1.9c-2.7.1-4.8 1.5-5.9 3.9l-.7 1.5v-5.4h-2v17.6zm20.4.5c3.1 0 5.6-1.1 7.4-3l-1.5-1.6c-1.4 1.5-3.4 2.3-5.7 2.3-3.6 0-6.2-2.4-6.6-6h14.9c.3-6.2-2.6-10.3-8.6-10.3-5.3 0-9.1 3.8-9.1 9.2.1 5.6 3.8 9.4 9.2 9.4zm0-16.2c3.6 0 5.9 2.3 6.1 5.8h-12.5c.4-3.5 2.9-5.8 6.4-5.8z"/><path class="st1" d="M418.3 30.1c-5.6 0-9.5-4-9.5-9.6s3.9-9.6 9.4-9.6c2.7 0 4.9.8 6.4 2.4 1.8 1.9 2.6 4.7 2.5 8.2v.3h-14.9c.6 3.2 3 5.3 6.2 5.3 2.1 0 4-.8 5.4-2.2l.3-.3 2 2.1-.2.2c-1.8 2-4.5 3.2-7.6 3.2zm0-18.5c-5.1 0-8.7 3.7-8.7 8.9s3.6 8.9 8.7 8.9c2.7 0 5.2-.9 6.9-2.7l-1-1.1c-1.5 1.4-3.5 2.2-5.7 2.2-3.8 0-6.5-2.5-7-6.3l-.1-.4h15c.1-3.1-.7-5.7-2.3-7.3-1.3-1.5-3.3-2.2-5.8-2.2zm6.5 8.1h-13.3v-.4c.4-3.7 3.1-6.2 6.8-6.2 3.7 0 6.3 2.4 6.5 6.2v.4zm-12.5-.8H424c-.3-3.2-2.5-5.1-5.7-5.1s-5.5 2-6 5.1zm21.9 1c.3-3.7 2.7-6.1 6.6-6v-2.6c-3.1 0-5.4 1.5-6.6 4.2v-4.1h-2.7v18.3h2.7v-9.8z"/><path class="st1" d="M434.6 30h-3.4V11h3.4v3c1.4-2 3.5-3.1 6.2-3.1h.4v3.4h-.4c-3.5 0-5.9 2.1-6.2 5.7v10zm-2.7-.8h2v-9.4c.3-3.9 2.8-6.3 6.6-6.3v-1.9c-2.7.1-4.8 1.5-5.9 3.9l-.7 1.5v-5.4h-2v17.6zm19.4-10.4H466v10.8h2.7V5.3H466v11h-14.7v-11h-2.8v24.3h2.8z"/><path class="st1" d="M469.1 30h-3.5V19.2h-13.9V30h-3.5V4.9h3.5v11h13.9v-11h3.5V30zm-2.8-.8h2.1V5.6h-2.1v11h-15.4v-11h-2.1v23.6h2.1V18.5h15.4v10.7zM481 18.9c-4.3 0-6.8 2.1-6.8 5.2s2.4 5.5 6.2 5.5c2.9 0 5.2-1 6.7-3v2.9h2.6V17.4c0-3.9-2.5-6.3-7.1-6.3-3.1 0-5.1.9-7.5 2.5l1.1 1.9c1.9-1.4 3.8-2.1 5.8-2.1 3.2 0 4.9 1.6 4.9 4.3v1.1H481zm6 2.2v2.2c-.7 2.6-3.1 4.1-6.2 4.1-2.6 0-4.2-1.4-4.2-3.4 0-2.1 1.6-3 4.7-3h5.7z"/><path class="st1" d="M480.4 30.1c-3.9 0-6.6-2.4-6.6-5.9 0-3.4 2.8-5.6 7.2-5.6h5.7v-.8c0-2.5-1.6-4-4.5-4-1.8 0-3.6.7-5.6 2.1l-.3.2-1.5-2.5.3-.2c2.4-1.6 4.4-2.5 7.7-2.5 4.6 0 7.4 2.5 7.4 6.6V30h-3.4v-2.2c-1.6 1.4-3.8 2.3-6.4 2.3zm.6-10.8c-4.1 0-6.5 1.9-6.5 4.9 0 3 2.4 5.2 5.9 5.2 2.8 0 5.1-1 6.4-2.8l.6-.9v3.6h1.9V17.6c0-3.8-2.5-5.9-6.7-5.9-2.9 0-4.8.8-7 2.2l.8 1.3c2-1.3 3.8-2 5.7-2 3.3 0 5.3 1.7 5.3 4.7v1.5H481zm-.1 8.5c-2.7 0-4.6-1.5-4.6-3.7s1.7-3.3 5-3.3h6.1v2.7c-.7 2.6-3.2 4.3-6.5 4.3zm.4-6.4c-3.9 0-4.3 1.5-4.3 2.6 0 1.8 1.5 3 3.8 3 3 0 5.1-1.4 5.8-3.8v-1.8h-5.3zm22 8.3c3.2 0 5.7-1.2 7.3-3.2l-1.6-1.6c-1.3 1.5-3.3 2.4-5.7 2.4-3.8 0-6.5-2.8-6.5-6.8s2.7-6.8 6.5-6.8c2.2 0 4.1.8 5.5 2.2l1.5-1.9c-1.7-1.7-4.1-2.7-7.1-2.7-5.3 0-9.1 3.8-9.1 9.2.1 5.4 3.9 9.2 9.2 9.2z"/><path class="st1" d="M503.3 30.1c-5.6 0-9.4-4-9.4-9.6s4-9.6 9.4-9.6c3 0 5.5 1 7.3 2.8l.2.2-1.9 2.4-.3-.3c-1.4-1.3-3.2-2.1-5.2-2.1-3.6 0-6.1 2.7-6.1 6.5s2.5 6.5 6.1 6.5c2.3 0 4.2-.8 5.4-2.2l.3-.3 2.1 2.1-.2.3c-1.8 2.1-4.5 3.3-7.7 3.3zm0-18.5c-5.1 0-8.7 3.7-8.7 8.9s3.6 8.9 8.7 8.9c2.8 0 5.2-1 6.8-2.8l-1.1-1.1c-1.4 1.4-3.4 2.2-5.7 2.2-4 0-6.9-3-6.9-7.2s2.8-7.2 6.9-7.2c2.1 0 3.9.7 5.4 2l1-1.3c-1.5-1.6-3.7-2.4-6.4-2.4zm15.2 12.7l3.8-4 6.3 9.3h3.2l-7.6-11.2 6.9-7.1h-3.2l-9.4 9.5v-17h-2.7v25.8h2.7z"/><path class="st1" d="M532.5 30h-4.1l-6.1-9.1-3.4 3.6V30h-3.4V3.4h3.4v16.5l8.9-9h4.2l-7.2 7.5 7.7 11.6zm-3.7-.8h2.4l-7.4-10.9 6.5-6.7H528l-9.9 10V4.2h-2v25.1h2v-5.1l4.3-4.4 6.4 9.4zm21-10.2v10.6h2.7V18.3c0-4.4-2.6-7.1-7-7.1-3.3 0-5.8 1.4-7.1 4.1v-4h-2.7v18.3h2.7v-9.8c.3-3.5 2.5-5.9 6.2-6 3.3 0 5.2 2 5.2 5.2z"/><path class="st1" d="M552.9 30h-3.4V19c0-3.1-1.8-4.9-4.8-4.9-3.3 0-5.5 2.1-5.8 5.6v10.1h-3.4v-19h3.4v3c1.4-2.1 3.7-3.1 6.7-3.1 4.6 0 7.3 2.8 7.3 7.5V30zm-2.7-.8h2V18.3c0-4.3-2.4-6.8-6.6-6.8-3.3 0-5.6 1.4-6.8 3.9l-.7 1.5v-5.3h-2v17.6h2v-9.4c.3-3.9 2.8-6.3 6.5-6.3 3.4 0 5.5 2.1 5.5 5.6v10.1zm16 .5c3.1 0 5.6-1.1 7.4-3l-1.5-1.6c-1.4 1.5-3.4 2.3-5.7 2.3-3.6 0-6.2-2.4-6.6-6h14.9c.3-6.2-2.6-10.3-8.6-10.3-5.3 0-9.1 3.8-9.1 9.2.1 5.6 3.8 9.4 9.2 9.4zm-.1-16.2c3.6 0 5.9 2.3 6.1 5.8h-12.5c.4-3.5 2.9-5.8 6.4-5.8z"/><path class="st1" d="M566.2 30.1c-5.6 0-9.5-4-9.5-9.6s3.9-9.6 9.4-9.6c2.7 0 4.9.8 6.4 2.4 1.8 1.9 2.6 4.7 2.5 8.2v.3h-14.9c.6 3.2 3 5.3 6.2 5.3 2.1 0 4-.8 5.4-2.2l.3-.3 2 2.1-.2.2c-1.8 2-4.5 3.2-7.6 3.2zm-.1-18.5c-5.1 0-8.7 3.7-8.7 8.9s3.6 8.9 8.7 8.9c2.7 0 5.2-.9 6.9-2.7l-1-1.1c-1.5 1.4-3.5 2.2-5.7 2.2-3.8 0-6.5-2.5-7-6.3l-.1-.4h15c.1-3.1-.7-5.7-2.3-7.3-1.2-1.5-3.2-2.2-5.8-2.2zm6.5 8.1h-13.3v-.4c.4-3.7 3.1-6.2 6.8-6.2 3.7 0 6.3 2.4 6.5 6.2v.4zm-12.4-.8h11.7c-.3-3.2-2.5-5.1-5.7-5.1s-5.5 2-6 5.1zm19.6 14.9c-.9 0-1.7-.3-2.6-.9l-1.1 2.2c1.1.9 2.3 1.3 3.9 1.3 2.4 0 4.3-1.5 5.5-4.2l8.4-20.9H591l-5.8 15.2-6.1-15.2h-2.8l7.6 18.1-.8 1.7c-.7 1.8-1.9 2.7-3.3 2.7z"/><path class="st1" d="M579.9 36.8c-1.6 0-2.9-.4-4.1-1.4l-.2-.2 1.5-2.8.3.2c.8.5 1.5.8 2.4.8 1.3 0 2.3-.8 3-2.4l.7-1.6-7.7-18.5h3.6l.1.2 5.7 14.4 5.6-14.6h3.6l-8.6 21.4c-1.3 3-3.3 4.5-5.9 4.5zm-3.4-1.8c1 .7 2 1.1 3.4 1.1 2.3 0 4.1-1.4 5.2-4l8.2-20.4h-2l-6 15.9-6.3-15.9h-2.1l7.4 17.8-.8 1.9c-.8 1.8-2.1 2.9-3.7 2.9-.9 0-1.7-.2-2.4-.7l-.9 1.4z"/></svg>