<?xml version="1.0" encoding="utf-8"?>
<!-- Generator: Adobe Illustrator 21.1.0, SVG Export Plug-In . SVG Version: 6.00 Build 0)  -->
<!DOCTYPE svg PUBLIC "-//W3C//DTD SVG 1.1//EN" "http://www.w3.org/Graphics/SVG/1.1/DTD/svg11.dtd">
<svg version="1.1" id="Layer_1" xmlns="http://www.w3.org/2000/svg" xmlns:xlink="http://www.w3.org/1999/xlink" x="0px" y="0px"
	 viewBox="0 0 552 459" style="enable-background:new 0 0 552 459;" xml:space="preserve">
<style type="text/css">
	.st0{fill:#534741;}
	.st1{fill:#4D4D4D;}
	.st2{fill:#F94A38;}
	.st3{fill:#016057;}
	.st4{fill:#AF0C04;}
	.st5{opacity:0.6;}
</style>
<path class="st0" d="M294,24.1l0.1,0.3c0,0-2.5,0.3-4.3,1.4c0,0-0.6,0.1-0.6,0.2c0,0.1,0,1.5,0,1.5s1.3,1,1.7,1c0,0-0.4,4.7,2.4,5.9
	c0,0-0.7,3.3-0.1,7.4c0.5,4.1,1.3,7.3,2.1,9.2c0.8,1.9,0.4,2.2,0.9,2.9c0.5,0.7-0.2,1.4-0.2,1.4l-0.1,0.5l-0.1,0.5l0,0.3v0.6v0.5
	l0.4,0.4l0.7,0.2l0.7,0l0.9,0.1l0.8-0.1l0.6-0.1l0.4,0.2l0.5-0.1h0.8h0.9l0.5,0.1l0.1,0.3c0,0-0.1,1.9,0.6,2.7
	c0.7,0.8,0.8,1.5,0.8,1.5s0.2,1.4,0.3,1.7c0.2,0.3-2.7,2.3-3.1,2.9c-0.5,0.6-0.3,0.5-0.5,1.4c-0.2,0.8-0.5,0.1-1,1.4
	c-0.5,1.3-0.3,2.7,0,3.5c0.2,0.8-0.7,3.6,0.1,5c0,0-4.7,5.2-5.9,14.2c-1,8.6,0.7,16.9,2.6,22.8c0.1-0.3,0.1-0.7,0.2-1
	c0.3-1.8,0.7-3.6,1.2-5.4c0.3-1,0.6-2,0.9-2.9l1-2.5c5.1-10.3,15-16.4,26.3-16.4c6,0,11.7,1.8,16.5,5.3c4.4,3.2,7.7,7.4,9.9,12.5
	l0.3,0.7c1.1,3,2,6.1,2.4,9.3c0.1,0,0.3,0,0.4,0c0.4-0.8,0.8-1.6,1.3-2.4c0.1-0.1,0.2-0.2,0.2-0.4c-0.5-8.4-2.2-18.7-3.4-25.4
	c-0.3-1.9-0.7-4.3-1.3-6.7l0,0l0,0c-1.1-4.3-3-8.6-6-10.4c-6.8-4.3-8.2-5.3-8.2-5.3s-2.4-3.8-3.4-4.2l-0.2-0.8c0,0,0.5,0.1,0.2-0.7
	c-0.3-0.7-0.5-0.9-0.5-0.9s-0.3-1.6-0.7-1.9c-0.5-0.3-0.5-0.4-0.5-1.1s0.3-1.8-0.8-2c-1.1-0.2-1.1-0.2-1.5,0
	c-0.4,0.2-1.2,0.1-1.4,0.3c-0.2,0.2-0.8,0.4-0.8,0.4s-0.1-2.9-0.4-4.1c-0.3-1.1-0.4-2.6-0.4-3c0-0.4,0-3.4,0-3.4s2.6-1.8,2.9-4.8
	c0.3-3,1.1-3,0.7-4.9c-0.3-1-0.4-1.1-0.4-1.1l0-0.9c0,0,1-1.3,0.6-3.7c-0.4-2.4-1.1-5.9-1.7-7c-0.6-1.2-1.3-2.9-2.8-4.4
	c-1.5-1.5-1.1-3.6-2.2-4.2c-1.1-0.6-4-2.5-5.8-2.6c-1.8-0.1-4.9-2-6.3-2c-1.4,0-3.4,0-4.3,0.4c0,0-8.1-7.2-18.2-1
	C280.8,13,288.8,21.5,294,24.1z"/>
<g>
	<path class="st0" d="M289.9,102c-1.1-0.4-2.3-0.8-3.8-1.2c-4.2-1.1-5.4-1.1-6.8-2.4c-0.4-0.8-2.1-0.4-2.1-0.4s0.2-2.1-2-2.1
		c0,0,1-2.3-0.3-3.3c-1.3-1-2.2-1.5-2.2-1.5s-0.3-1.3-1-1.4c-0.6-0.1,0-0.5,0-0.5s1.7,0.2,4.1-3.2c1.7-2.2,1.6-4.4,2-6.1
		c0.3-1.7,2.4-4.3,1.6-8.4c-0.3-1.4,1.9-4.4,0-8.6c-1.9-4.2-1.4-6.6-4.8-9.3c-3.4-2.7-8.2-5.4-13.2-4c-5,1.4-8,4.4-9.1,5.1
		c-1.1,0.6-4.9,7.2-5.4,10.5c-0.3,1.6-0.4,2.7-0.4,2.7s-0.4-0.1-0.6,0.1c-0.2,0.2-0.4,3.4,0.6,4.8c0,0-0.6,6-0.1,7.3
		c0.5,1.3,1.6,3,1.2,3.4c-0.4,0.4-2.3,3.1-2.3,5.4c0,0-1.3,1-2.1,1.4c-0.8,0.3-1.9,1.7-1.9,2.2c0,0-3.2-2.2-5.4-2.3
		c-2.2-0.1-3.2-1-4.6-1.2c-1.4-0.1-1.3-0.7-2,0c0,0-0.6-1.5-1.2-1.8c0,0-0.5-1.7-1.5-2.2c0,0,0.2-2.4-0.9-2.5c-1.1,0-2,0.3-2.2,0.9
		c0,0-0.9-1-2,0.2c-1.2,1.3-3.8,4-4.3,5.2c-0.5,1.2-2.5,2-1.8,3.5c0.7,1.4,1.3,3.3,3,5.4c1.6,2.1,2.2,4.7,2.2,5.2
		c0,0-1.1,0.2-1.1,0.5s0.1,2.8,0.1,2.8s-0.8,1-0.8,1.5c0,0.5-0.9,2.2-0.9,3.1c0,0.9-1,2.7-1,3.4c0,0.7-2,11.6-1.6,17.6
		c0.4,5.2-3.3,9.9-2.3,14.3c0.6,0.2,1.1,0.4,1.7,0.6c4.3,1.8,8.1,4.7,11.2,8.4c3.3,2.6,6.1,5.5,8.6,8.6c4.8-6.1,10.9-10.8,18.3-13.8
		c2.5-1,5-1.7,7.5-2.3c1.7-3.5,4.1-6.7,7.1-9.5l1.8-1.5c1.5-1,3-2,4.7-3c0.8-0.5,1.6-0.9,2.3-1.4l1.2-0.7c4.3-2.3,8.8-4.3,13.3-5.9
		c1.7-0.6,3.3-1.1,5-1.6c0.2-1.4,0.4-2.9,0.7-4.3c-0.3-0.2-0.6-0.4-0.9-0.6C295.4,119.1,291.6,111.9,289.9,102z"/>
</g>
<path class="st0" d="M210.3,127c-0.4-6,1.6-16.9,1.6-17.6c0-0.7,1-2.5,1-3.4c0-0.4,0.2-1,0.4-1.5c-0.2-0.1-0.4-0.3-0.6-0.4
	c0,0-9.5-8.6-10.4-8.7c0,0-1.2-10.4-3.5-10.8l0.5-2l1.1-0.8l0.9-0.7L202,80l0.9-0.8l0.7-1.5l1-1.4l0.6-2.5v-0.7c0,0,4.1-0.6,3.6-4.4
	c0,0,10.8-5.4,7.5-11.5s-6.4-7.8-6.4-7.8s-0.6-6.1-1-7.4c-0.4-1.3-1.3-4.6-6.3-6.9c-5-2.3-12.3-4-20-1.3c-7.7,2.7-7.4,6.5-7.4,6.5
	l-1.4,5.4c0,0-6.6,1.9-8.7,6c-2.1,4,2.5,11.7,6.1,13.2c0,0-0.7,1.2,0.1,2.1c0.8,0.9,1.5,2.3,3,2.3c0,0,0.3,3.1,0.4,4l-1.3,1.9
	l-0.2,1c0,0-2.5,2.8-2.5,3.6c-0.1,0.8-0.9,2.2-0.9,2.2l-1.7,0.7c0,0-2.6,0.9-4,1.3c-1.5,0.5-11.3,2.5-14.3,4.6c0,0-6.8,0.5-8.2,1.8
	c0,0-3.5,0.4-4.3,0.4c-0.8,0-6.1,2.9-7.2,4.7c-0.9,1.6-4.4,7.8-5.6,10.8c0.5-0.3,1-0.7,1.5-1c6.8-4.5,14.8-6,22.7-4.4
	c8.4,1.7,15.3,6.8,19.7,14.5c1.6,2.7,2.9,5.5,3.9,8.3c0.8,2.4,1.4,4.9,1.9,7.2l0.1,0.6c0.8,5.2,0.9,10.3,0.4,15.4
	c8.8-3.2,18.1-4.2,27.3-2.6c2.9,0,5.7,0.4,8.4,1.1c-0.5-0.6-1.1-1.3-1.7-2.3C205.9,138.2,210.7,132.9,210.3,127z"/>
<g>
	<path class="st1" d="M173.2,201.9c2.6,2,3.3,4.8,2.2,8.5c-0.3,0.7-0.6,1.3-0.9,1.8c-0.3,0.5-0.6,1.1-0.9,1.6
		c-3.3,5.8-6.8,11.3-10.6,16.6c-3.8,5.3-7.9,10.5-12.2,15.5c-1.3,1.7-2.8,3.1-4.3,4.1c-3.3,2.6-6.7,3.6-10.3,3.1
		c-3.6-0.6-6.6-2.6-9-6c-1.3-1.8-2.3-3.8-2.9-5.8c-0.6-2-1-4.1-1.3-6.2c-0.4-4.6-0.5-9.1-0.2-13.6c0.3-4.5,0.7-8.8,1.4-13
		c0.3-2,0.6-3.8,0.9-5.6c0.3-1.8,0.6-3.6,0.9-5.4l1.8-10.8c0.8-4.5,1.6-8.9,2.5-13.3c0.9-4.4,1.6-8.8,2.3-13.3
		c0.3-0.7,0.4-1.3,0.5-2c0.1-0.7,0.2-1.3,0.5-2c-0.5-0.3-0.9-0.5-1-0.6c-0.4,0.7-0.8,1.3-1.3,1.8c-0.5,0.5-0.9,1.1-1.3,1.8
		c-7.1,9.7-13.1,19.9-18.1,30.4c-5,10.6-9.1,21.6-12.4,33.2c-1.2,3.9-2.4,7.9-3.5,11.7c-1.2,3.9-2.4,7.9-3.5,11.9
		c-0.9,2.6-2,5-3.2,7.1c-1.2,1.7-2.6,3-4.1,3.7c-1.6,0.8-3.2,1.2-4.8,1.2c-1.6,0-3.2-0.4-4.7-1.3c-1.5-0.9-2.8-2.2-3.8-4
		c-0.7-1.2-1.3-2.4-1.9-3.6c-0.6-1.2-1-2.6-1.3-4c-1.2-3.9-2-7.9-2.4-11.9c-0.4-4-0.7-8-1-11.9c-0.3-7.1-0.3-14.1,0-20.9
		c0.3-6.8,0.8-13.7,1.6-20.5c0.7-4.6,1.1-9.2,1.5-13.9c0.3-4.7,0.7-9.3,1.1-13.9c0.3-0.8,0.3-1.6,0.2-2.6c-0.1-0.9-0.2-2-0.2-3.2
		c-1.2,1.2-1.8,2.1-2,2.8c-5.5,8.9-10.3,18.1-14.5,27.6c-4.1,9.5-7,19.4-8.6,29.8c-0.7,3-1,6.1-1.1,9.2c-0.1,3.1-0.1,6.1-0.1,9.2
		c-0.7,10.9-1.1,21.7-1.2,32.5c0,0.7-0.1,1.4-0.2,2.2c-0.1,0.8-0.3,1.5-0.4,2.2c-1.2,3.4-3.5,5.3-7.1,5.7c-1.7,0.1-3.3-0.2-4.6-1.1
		c-1.4-0.9-2.4-2.2-3.1-4c-0.3-0.7-0.5-1.4-0.8-2.2c-0.3-0.8-0.4-1.6-0.4-2.6c-1.4-12.5-2.9-24.9-4.2-37.3
		c-1.4-12.4-2.7-24.9-4-37.3c-0.7-5.9-1.3-11.7-1.8-17.2c-0.5-5.6-1.1-11.2-1.8-16.8c-0.4-2.8-0.4-5.6,0-8.5
		c0.3-2.6,1.1-4.9,2.7-6.7c1.5-1.8,3.4-3,5.6-3.3c2.2-0.5,4.4-0.2,6.5,0.9c2.1,1.1,3.7,2.9,4.9,5.2c1.6,3.3,2.8,6.8,3.5,10.4
		c0.7,2.8,1.1,5.6,1.5,8.5c0.3,2.9,0.8,5.8,1.5,8.7c0,0.4,0.1,0.9,0.2,1.4c0.1,0.5,0.3,1.3,0.4,2.2c0.7-0.9,1.1-1.7,1.5-2.3
		c0.3-0.6,0.6-1.1,0.9-1.7c2.4-4.2,4.7-8.4,7.1-12.5c2.4-4.1,4.9-8.2,7.5-12.3c0.9-1.6,1.9-3.1,3.1-4.4c1.1-1.4,2.3-2.7,3.4-4
		c3-3,6.4-4.4,10-4c3.7,0.3,6.7,2.3,9.1,5.8c2.1,2.9,3.5,6.2,4.1,10c1.2,5,1.6,10,1.2,15c-0.5,12.7-1.3,25.7-2.4,38.8
		c-0.1,3-0.3,6-0.4,9c-0.1,3-0.3,5.9-0.4,9c0,0.5,0,1.1,0.1,1.6c0.1,0.5,0.2,1.1,0.5,1.8c0.3-0.8,0.6-1.5,0.9-2.3
		c0.3-0.7,0.6-1.5,0.9-2.3c3.5-9.2,7.4-18.2,11.6-27c4.2-8.8,9.1-17.3,14.6-25.6c2.6-3.8,5.4-7.6,8.2-11.2c2.8-3.7,5.6-7.4,8.4-11.2
		c0.9-1.1,1.9-2,3-3c1-0.9,2.2-1.7,3.4-2.4c2.6-1.8,5.4-2.5,8.3-1.9c2.9,0.6,5.1,2.3,6.7,5.2c0.9,1.4,1.6,3,2.2,4.5
		c0.5,1.6,0.9,3.1,1.2,4.5c0.7,4.3,0.7,8.6,0.1,12.7c-0.6,4.1-1.2,8.2-1.9,12.1c-0.5,2.6-1,5.2-1.4,7.6c-0.4,2.4-0.9,5-1.4,7.6
		l-2.4,13.8c-0.7,3.8-1.3,7.6-1.9,11.3c-0.6,3.7-1.2,7.5-1.9,11.1c-0.3,0.8-0.4,1.5-0.4,2.3c0,0.7,0,1.5,0,2.3c0.3,0,0.4,0,0.5,0.1
		c0.1,0.1,0.2,0.1,0.5,0.1c1.8-2.1,3.5-4.1,5.1-6c1.6-1.9,3.3-3.9,5.1-6c1-1.2,2-2.4,3-3.7c0.9-1.3,1.9-2.6,3-3.7
		c0.7-0.7,1.3-1.3,1.9-1.9c0.6-0.6,1.3-1.1,2.1-1.7C167.7,200.2,170.6,200,173.2,201.9z"/>
	<path class="st1" d="M309.9,177.4c-0.7,0.2-1.4,0.3-2.2,0.3c-2.5,0.7-5.1,1.3-7.7,1.8c-2.6,0.5-5.3,0.9-7.9,1.2
		c-1.4,0.1-3,0.1-4.6,0c-1.6-0.1-3.2-0.5-4.6-1.2c-1.8-0.7-3.3-1.6-4.3-3c-1-1.3-1.7-2.7-1.9-4.2c-0.2-1.5,0-3.1,0.6-4.7
		c0.6-1.6,1.6-3.1,3.1-4.4c0.9-0.7,1.9-1.3,3-1.9c1.1-0.6,2.1-1.2,3.2-1.9c3.4-1.8,7-3.4,10.6-4.7c3.7-1.3,7.4-2.3,11.2-3
		c0.9-0.3,1.8-0.5,2.6-0.7c0.8-0.2,1.6-0.4,2.6-0.5c0.1-2,0.3-3.8,0.5-5.4s0.4-3.4,0.7-5.2c0.5-4.1,1.1-8,1.8-11.8
		c0.1-0.9,0.3-1.8,0.6-2.7c0.3-0.9,0.5-1.7,0.8-2.5c1.8-3.7,4.7-5.5,8.7-5.5c1.8,0,3.5,0.5,4.9,1.6c1.4,1.1,2.6,2.5,3.4,4.3
		c0.7,1.7,1.1,3.5,1.4,5.3c0.5,4.2,0.9,8.7,1.2,13.6c0.3,0.7,0.4,1.3,0.4,1.9c0,0.6,0.1,1.2,0.2,1.9c1-0.1,2-0.2,3-0.2
		c0.9,0,1.8-0.1,2.8-0.4c1.8,0,3.6-0.1,5.3-0.3c1.7-0.2,3.3-0.2,4.9,0.1c2.4,0.1,4.6,0.7,6.7,1.6c2.1,0.9,3.8,2.4,5.1,4.5
		c2.5,3.5,2.8,7.1,1,10.6c-0.9,1.7-2.1,2.9-3.4,3.5c-1.4,0.7-3,1-4.8,1c-3.4,0.1-6.8,0.6-10,1.3c-3.3,0.7-6.6,1.5-10,2.3
		c0,0.7-0.1,1.2-0.2,1.8c-0.1,0.5-0.2,1.1-0.2,1.8c0.3,10.6,0.4,21.3,0.4,31.9s0.1,21.3,0.2,31.9c0.3,7.5,0.6,15,1,22.5
		c0.4,7.5,1.2,15,2.6,22.5c0.3,0.7,0.4,1.2,0.4,1.8c0,0.5,0,1.1,0,1.8c-0.3,1.3-0.7,2.5-1.3,3.4c-0.6,1-1.5,1.7-2.9,2.1
		c-1.4,0.5-2.7,0.6-3.6,0.2c-1-0.4-1.9-1.1-2.9-2c-1.3-1.4-2.3-3.2-3-5.3c-3.4-10.6-6.5-21.3-9.4-32c-2.8-10.7-4.8-21.7-5.8-33
		c-0.7-6.3-1-12.5-1.2-18.7c-0.1-6.2-0.2-12.4-0.2-18.7v-5.1C311.4,177,310.6,177.2,309.9,177.4z"/>
	<path class="st1" d="M443.1,201.2c1.4,0.8,2.5,1.9,3.2,3.4c0.7,1.4,0.6,3-0.2,4.7c-1.2,2.9-2.3,5.5-3.4,7.7c-1,2.2-2.3,4.9-3.8,7.9
		c-1.5,3-3.1,6.1-4.8,9.3c-0.8,1.3-1.5,2.6-2.3,3.9c-0.7,1.3-1.5,2.6-2.3,3.9c-1.6,3.2-3.4,6.2-5.5,9.2c-2.1,3-4.3,5.8-6.5,8.6
		c-1.4,1.8-3,3.5-4.7,4.9c-1.7,1.4-3.5,2.8-5.3,3.9c-3.3,2.4-6.7,3.6-10.3,3.6c-3.6,0.1-7.2-0.8-10.7-2.7
		c-5.3-2.8-9.5-6.5-12.6-11.2c-2-2.6-3.6-5.4-4.8-8.2c-1.3-2.8-2.4-5.7-3.4-8.8c-3.8-10.8-6-21.7-6.6-32.7c-0.6-11,0-22.2,1.9-33.5
		c0.9-5.6,2.1-11.2,3.4-16.6c1.4-5.4,3.2-10.7,5.4-16c1.3-3.3,2.9-6.4,4.6-9.5c1.8-3,4-5.8,6.6-8.5c1-1.2,2.2-2.3,3.4-3.4
		c1.2-1,2.5-2,3.8-3c2.6-1.6,5.3-2.5,8.2-2.9c2.8-0.3,5.5,0,8,0.9c2.5,0.9,4.7,2.4,6.7,4.4c2,2,3.5,4.5,4.7,7.4
		c1,2.8,1.7,5.7,2.1,8.8c0.3,3.1,0.5,6.1,0.5,9.2c-0.7,10.4-2.5,20.4-5.5,30c-5.8,17.5-13.8,34-24,49.7c-0.3,0.7-0.6,1.3-0.9,2.1
		c-0.3,0.7-0.4,1.4-0.3,2.1c0.3,3,0.8,6.1,1.5,9.3c0.7,3.2,2,6,3.8,8.7c1.2,1.8,2.2,3.2,3,4c0.9,0.9,1.7,1.3,2.7,1.5
		c0.9,0.1,1.9-0.1,2.9-0.8c1-0.7,2.2-1.5,3.6-2.6c2.5-2,4.7-4.2,6.7-6.6c2-2.4,3.7-5,5.3-7.6c2.9-4.6,5.7-9.2,8.4-13.8
		c2.7-4.6,5.4-9.2,8-13.8c0.1-0.3,0.3-0.5,0.4-0.6c0.1-0.1,0.2-0.3,0.2-0.6c0.3-0.4,0.5-0.8,0.6-1.3c0.1-0.5,0.3-0.9,0.6-1.3
		c0.7-1.4,1.7-2.5,3.3-3.3C440,200.5,441.5,200.5,443.1,201.2z M388.5,156.8c-0.7,6.8-1.2,13.6-1.7,20.3c-0.5,6.7-0.9,13.5-1.3,20.3
		l0.6,1.8c0.9-2,1.7-3.8,2.5-5.4c0.7-1.6,1.5-3.3,2.5-5c2.6-5.4,5-10.8,7-16.3c2-5.5,3.6-11.1,4.6-17c0.8-4.5,1.2-8.8,1.2-13
		c0-1.4-0.2-2.9-0.6-4.4c-0.4-1.5-0.8-3-1.2-4.4c-0.7-1.8-1.5-2.8-2.5-3c-1-0.1-2.1,0.7-3.3,2.4c-0.7,0.7-1.2,1.4-1.6,2.3
		c-0.4,0.9-0.9,1.7-1.4,2.7c-1.3,3.2-2.4,6.3-3.2,9.4C389.4,150.4,388.8,153.5,388.5,156.8z"/>
	<path class="st1" d="M540.1,202.7c1.3,1.2,2,2.6,2.1,4.1c0.1,1.6-0.4,3.1-1.5,4.5l-31.1,34.3c0,9.9-0.6,19.6-1.9,29.3
		c-1.3,9.7-2.8,19.4-4.6,29.3c-0.4,2.8-0.9,5.5-1.5,8.2c-0.6,2.7-1.3,5.5-2.1,8.4c-1.4,6-4.4,11.4-8.9,16.2c-2.4,2.6-5,4.7-8,6.3
		c-3,1.6-6.3,2.4-10,2.4c-7.4,0-12.7-3.2-16-9.5c-1.1-2-1.8-3.9-2.3-5.8c-0.5-1.9-0.7-3.9-0.7-6c0.1-8.3,0.9-16.4,2.4-24.2
		c1.4-7.9,4.2-15.6,8.3-23.1c1.8-3.5,3.8-7,6-10.4c2.2-3.4,4.4-6.8,6.6-10.2c0.7-1.1,1.2-2.1,1.6-3.3c0.4-1.1,0.4-2.4,0-3.8
		c-1.1,0.7-1.6,1.3-1.8,1.8c-1.2,1.6-2.4,3.2-3.6,4.8c-1.2,1.6-2.4,3.2-3.5,4.8c-0.5,0.7-1.1,1.2-1.6,1.8c-0.5,0.5-1.1,1.1-1.8,1.8
		c-5.4,5.3-10.8,7.6-16.4,6.9c-5.5-0.7-10.3-4.1-14.4-10.4c-3.2-5.1-4.8-10.6-4.9-16.6c-0.3-6.8-0.1-13.6,0.5-20.2
		c0.6-6.6,1.8-13.3,3.6-20c0.7-2.5,1.5-4.9,2.6-7.3c0.3-0.7,0.6-1.3,0.9-2c0.3-0.7,0.8-1.2,1.5-1.6c1.2-1.4,2.6-2.5,4.1-3.1
		c1.6-0.6,3.1-0.6,4.5,0.1c3.2,1.2,4.9,3.5,5.3,7.1c0,1.1-0.1,2.1-0.2,3.1c-0.1,1-0.2,2-0.2,3.1c-0.7,5.5-1.3,11.1-1.9,16.6
		c-0.6,5.6-1.2,11.2-1.9,16.8c-0.4,2.6-0.4,5.5,0,8.5c0.3,1.4,0.6,2.8,1.1,4.1c0.5,1.3,1.3,2.5,2.7,3.5c0.8-0.7,1.6-1.2,2.4-1.8
		c0.8-0.5,1.5-1.1,2.2-1.8c4.7-4.7,8.8-9.8,12.2-15.2c3.4-5.4,6.2-11.2,8.5-17.5c0.7-2,1.1-4.3,1.4-6.9c0.3-2.6,0.5-5.3,0.8-8.1
		c0.3-2.8,0.5-5.5,0.8-8.1c0.3-2.5,0.9-4.6,1.8-6.3c1.8-3.5,4.5-5.4,8.1-5.5c3.5-0.1,6.4,1.4,8.7,4.7c0.7,0.9,1.2,1.9,1.7,3
		c0.5,1.1,0.8,2.1,1.1,3.2c0.7,3.3,1.3,6.6,2.1,9.9c0.7,3.3,1.4,6.6,2.1,10c0.1,0.4,0.3,0.9,0.4,1.4c0.1,0.5,0.3,1.1,0.4,1.8l1,13
		l23.1-25.6c1.1-1.2,2.4-1.8,4-1.9C537.5,201.2,538.9,201.7,540.1,202.7z M480,326.1c0.3-1.8,0.6-3.6,1-5.3c0.4-1.7,0.6-3.5,0.6-5.3
		c-0.3-5.9-0.5-11.9-0.7-17.9c-0.2-6-0.4-12-0.5-17.9c0-1.1-0.1-2.1-0.2-3.2c-0.1-1.1-0.3-2.2-0.4-3.5c-0.5,0.3-0.9,0.5-1,0.6
		c-0.1,0.1-0.3,0.3-0.6,0.6c-4.9,7.9-8.4,16.1-10.6,24.5c-2.2,8.5-3,17.3-2.4,26.5c0.3,0.9,0.5,1.9,0.8,2.9c0.3,1,0.6,1.8,1,2.5
		c0.9,1.8,2.1,2.9,3.4,3.3c1.4,0.3,2.9,0,4.6-0.9C477.5,331.3,479.2,329.1,480,326.1z"/>
	<path class="st1" d="M294.6,229.7c0.3,0.4,0.6,0.9,0.9,1.4c0.3,0.5,0.6,1.1,0.9,1.6c7.5,13.3,8.2,26.7,2.2,40.2
		c-2,4.2-4.6,7.6-7.9,10.1c-3.3,2.6-7.3,4.1-12,4.6c-4.9,0.7-9.4-0.1-13.5-2.4c-4.1-2.2-7.4-5.5-9.8-9.9c-4.1-7.5-4.7-15-1.8-22.7
		c1-3,2.2-5.8,3.5-8.4s2.9-5.1,4.7-7.6c0.4-0.7,0.8-1.2,1.1-1.8c0.3-0.5,0.8-1.1,1.3-1.8l-2.8-2.8c-1.8-2.1-3.7-4.2-5.7-6.2
		c-2-2-3.9-4.2-5.7-6.4c-1.8-2.6-3.2-5.4-4.2-8.3c-1-2.9-1.5-5.8-1.5-8.9c0-4.7,1.4-9.1,4.3-13.2c2.9-4.1,6.7-7.1,11.4-9.1
		c4.5-1.8,9-2.2,13.7-1.1c4.7,1.1,8.6,3.4,11.9,7c2.4,2.5,4.1,5.2,5.3,8.1c0.9,1.8,1,4,0.4,6.5c-0.5,2.1-1.7,3.4-3.6,3.9
		c-1.9,0.5-3.6,0.1-5-1.4c-0.7-0.7-1.2-1.2-1.6-1.8c-0.4-0.5-0.9-1.1-1.4-1.8c-1.1-1.6-2.4-2.8-3.9-3.7s-3.3-1.5-5.1-1.8
		c-1.7-0.3-3.2-0.2-4.5,0.3c-1.3,0.5-2.6,1.2-3.7,2.3c-1.7,1.8-2.1,3.7-1.2,5.7c0.7,1.2,1.3,2.4,2,3.7c0.7,1.3,1.4,2.3,2.4,3
		c2.9,2.1,5.7,4,8.5,5.8c2.8,1.8,5.6,3.6,8.7,5.4c0.9,0.5,2,0.5,3.3,0c4.2-1.8,8.2-3.8,11.9-6s7.3-4.8,10.7-7.8
		c0.8-0.7,1.5-1.2,2.3-1.8c0.7-0.5,1.5-1,2.5-1.6c1.7-0.7,3.2-0.7,4.6-0.2c1.4,0.5,2.5,1.4,3.4,2.6c2,3.2,1.6,6.1-1.2,8.9
		c-0.5,0.5-1.1,1-1.6,1.3c-0.5,0.3-1.1,0.7-1.8,1.1c-3.7,2.2-7.3,4.5-10.8,6.8c-3.5,2.3-7.2,4.6-11,6.8
		C295.1,229,295,229.3,294.6,229.7z M273.3,241.2c-1.8,2.9-3.4,5.7-4.7,8.5c-1.3,2.8-2.3,5.6-3,8.7c-0.3,1.7-0.2,3.3,0.2,4.7
		c0.4,1.4,1,2.8,2,4.1c1.4,2.5,3.6,3.6,6.5,3.4c2.5-0.5,4.1-2.1,4.7-4.7c0.3-1.8,0.5-3.7,0.8-5.5c0.3-1.8,0.3-3.7,0-5.5
		C279.5,249.9,277.3,245.4,273.3,241.2z"/>
</g>
<path class="st2" d="M380.5,326.5c-3.6,0-6.6-1-8.9-2.9c-2.3-1.9-3.6-4.5-3.8-7.8c-0.1-2.6,0.6-5,2.2-7.1c1.6-2.1,3.6-3.4,6.1-3.7
	c2.6-0.5,4.9,0,6.9,1.4c2,1.4,3.3,3.5,3.9,6.1c0.2,0.8,0.4,1.4,0.6,2.1c0.1,0.6,0.3,1.3,0.6,1.9c1,2.9,0.8,5.3-0.7,7.4
	C385.9,325.8,383.6,326.7,380.5,326.5z"/>
<g>
	<g>
		<path d="M387.9,227.9c0.3-0.7,0.6-1.4,0.9-2.1c1.2-1.9,2.3-3.8,3.5-5.7c-1.5-7.9-2.8-17.2-3.2-27c-0.1,0.3-0.3,0.5-0.4,0.8
			c-0.7,1.6-1.5,3.4-2.5,5.4l-0.6-1.8c0.2-2.8,0.4-5.6,0.5-8.4l-0.1,0.3c0,0-3.1,22.4,1.5,39.7C387.6,228.6,387.7,228.2,387.9,227.9
			z"/>
		<g>
			<path class="st3" d="M221.2,242.2l0.2,0c0.3-0.7,0.6-1.5,0.8-2.2C221.6,241.4,221.2,242.2,221.2,242.2z"/>
		</g>
		<g>
			<path class="st3" d="M508.1,270.3c-0.5,2.9-0.5,4-0.3,3.8c0.2-1.5,0.3-3,0.4-4.4C508.1,269.9,508.1,270.1,508.1,270.3z"/>
			<path d="M508.9,228.6c0.3,4.7,0.6,10.7,0.7,17.1l6-6.6c1.5-7.9,2.8-15.8,3.5-21.8L508.9,228.6z"/>
		</g>
		<path d="M297.4,227.4c-1.3-4.5-2.9-9-4.4-12c-2.2,1.2-4.5,2.3-6.9,3.3c-1.3,0.5-2.4,0.5-3.3,0c0,0,8.8,6.1,14.1,15.1
			c-0.2-0.4-0.3-0.7-0.5-1.1c-0.3-0.5-0.6-1-0.9-1.6c-0.3-0.5-0.6-1-0.9-1.4c0.4-0.4,0.6-0.7,0.6-1
			C295.9,228.3,296.6,227.8,297.4,227.4z"/>
		<g>
			<path class="st3" d="M189.8,239.4c0-0.2-0.1-0.5-0.1-0.7C189.7,238.9,189.7,239.2,189.8,239.4
				C189.7,239.4,189.7,239.4,189.8,239.4z"/>
		</g>
	</g>
	<path class="st3" d="M470.4,333.7c-1.4-0.3-2.5-1.4-3.4-3.3c-0.4-0.7-0.7-1.5-1-2.5c-0.3-1-0.5-1.9-0.8-2.9c-0.1-1-0.1-1.9-0.1-2.8
		l-11.3,2c0,2.1,0.2,4.1,0.7,6c0.5,1.9,1.2,3.8,2.3,5.8c1.7,3.2,3.9,5.6,6.6,7.1c6.9-1.3,9.7-5.5,10.5-10
		C472.6,333.7,471.4,333.9,470.4,333.7z"/>
</g>
<path class="st2" d="M370.3,368.3c1.4,0.8,2.4,1.8,3,3.2c0.6,1.4,0.6,2.9-0.2,4.5c-1.1,2.7-2.2,5.2-3.2,7.3c-1,2.1-2.2,4.6-3.6,7.5
	c-1.4,2.9-3,5.8-4.6,8.8c-0.8,1.2-1.5,2.5-2.2,3.7c-0.7,1.3-1.4,2.5-2.2,3.7c-1.5,3-3.2,5.9-5.2,8.7c-2,2.8-4.1,5.5-6.2,8.1
	c-1.4,1.7-2.9,3.3-4.5,4.7c-1.6,1.4-3.3,2.6-5.1,3.7c-3.1,2.2-6.4,3.4-9.8,3.5c-3.4,0.1-6.8-0.8-10.2-2.5c-5-2.6-9-6.2-12-10.7
	c-1.9-2.5-3.4-5.1-4.6-7.8c-1.2-2.7-2.3-5.5-3.3-8.3c-3.6-10.2-5.7-20.6-6.3-31.1c-0.6-10.5,0-21.1,1.8-31.8
	c0.9-5.4,2-10.6,3.3-15.7c1.3-5.1,3-10.2,5.1-15.2c1.2-3.1,2.7-6.1,4.4-9c1.7-2.9,3.8-5.6,6.3-8.1c1-1.1,2.1-2.2,3.3-3.2
	c1.2-1,2.4-1.9,3.7-2.8c2.5-1.5,5.1-2.4,7.8-2.7c2.7-0.3,5.2,0,7.6,0.8c2.4,0.9,4.5,2.3,6.4,4.2c1.9,1.9,3.4,4.3,4.5,7
	c1,2.6,1.7,5.4,2,8.3c0.3,2.9,0.5,5.8,0.5,8.7c-0.6,9.9-2.4,19.4-5.2,28.5c-5.5,16.6-13.1,32.3-22.9,47.2c-0.3,0.6-0.5,1.3-0.8,2
	c-0.3,0.7-0.4,1.3-0.3,2c0.2,2.9,0.7,5.8,1.4,8.8c0.7,3,1.9,5.7,3.7,8.2c1.1,1.7,2.1,3,2.9,3.8c0.8,0.8,1.7,1.3,2.5,1.4
	c0.9,0.1,1.8-0.1,2.7-0.8c0.9-0.6,2.1-1.4,3.5-2.4c2.4-1.9,4.5-4,6.4-6.3c1.9-2.3,3.6-4.7,5.1-7.2c2.7-4.4,5.4-8.7,8-13.1
	c2.6-4.4,5.1-8.7,7.6-13.1c0.1-0.2,0.3-0.4,0.4-0.6c0.1-0.1,0.2-0.3,0.2-0.6c0.3-0.4,0.4-0.8,0.6-1.2c0.1-0.4,0.3-0.8,0.6-1.2
	c0.6-1.4,1.7-2.4,3.1-3.1C367.4,367.7,368.9,367.7,370.3,368.3z M318.5,326.2c-0.6,6.5-1.2,12.9-1.6,19.3
	c-0.4,6.4-0.8,12.8-1.2,19.3l0.6,1.7c0.9-1.9,1.7-3.6,2.3-5.2c0.7-1.6,1.5-3.2,2.3-4.8c2.5-5.1,4.7-10.3,6.7-15.5
	c1.9-5.2,3.4-10.6,4.4-16.2c0.7-4.2,1.1-8.4,1.1-12.4c0-1.4-0.2-2.8-0.6-4.2c-0.4-1.4-0.7-2.8-1.1-4.2c-0.6-1.7-1.4-2.7-2.3-2.8
	c-0.9-0.1-2,0.6-3.1,2.2c-0.6,0.6-1.1,1.3-1.5,2.2c-0.4,0.8-0.8,1.7-1.3,2.5c-1.2,3-2.3,6-3.1,8.9C319.2,320,318.7,323,318.5,326.2z
	"/>
<g>
	<path class="st4" d="M318.6,391.7c1.4-2.2,2.7-4.4,4-6.6c-0.5-9-0.8-22.2,0.9-34.4c-0.9,1.9-1.7,3.8-2.6,5.7
		c-0.9,1.6-1.7,3.2-2.3,4.8c-0.7,1.6-1.5,3.3-2.3,5.2l-0.6-1.7c0.1-1.1,0.1-2.2,0.2-3.2c-0.1,0.2-0.2,0.3-0.4,0.5
		c-0.3,15.2,0.3,35.2,4.7,46.1c-0.5-1.2-0.9-2.4-1.2-3.7c-0.7-3-1.2-5.9-1.4-8.8c-0.1-0.6,0-1.3,0.3-2
		C318.1,393,318.4,392.4,318.6,391.7z"/>
</g>
<path class="st4" d="M370.3,368.3c-1.5-0.6-3-0.6-4.4,0.1c-1.4,0.7-2.5,1.7-3.1,3.1c-0.3,0.4-0.4,0.8-0.6,1.2
	c-0.1,0.4-0.3,0.8-0.6,1.2c0,0.3-0.1,0.4-0.2,0.6c-0.1,0.1-0.3,0.3-0.4,0.6c-1.7,2.9-3.3,5.8-5,8.7c-0.2,8.5,1.7,14.6,3.9,18.8
	c0.5-1,1.1-2,1.7-2.9c1.6-3,3.2-5.9,4.6-8.8c1.4-2.9,2.7-5.4,3.6-7.5c0.3-0.7,0.7-1.5,1-2.3l1.7-10.5
	C372.1,369.7,371.4,368.9,370.3,368.3z"/>
<g>
	<path class="st2" d="M425.4,368.7c1.4,0.6,2.3,1.7,2.9,3.3c0.6,1.6,0.5,3-0.1,4.4c-0.1,0.1-0.6,1-1.4,2.7c-0.8,1.7-1.9,3.9-3.4,6.6
		c-1.4,2.7-3.1,5.7-5,9.1c-1.9,3.4-3.9,6.8-6,10.3c-1,1.9-2.1,3.4-3.2,4.7c-2.9,4.6-6.1,9.2-9.7,13.9c-1.4,1.7-2.9,3.4-4.6,5
		c-1.7,1.6-3.5,2.9-5.5,4c-7.4,4-13.7,2.9-19.1-3.2c-1.9-2.1-3.4-4.4-4.5-6.7c-1.1-2.4-2-4.8-2.6-7.3c-1.7-7.1-2.7-14.3-3-21.5
		c-0.3-7.2,0.3-14.5,1.7-21.9c0.1-1.1,0.4-2.3,0.8-3.6c0.4-1.2,0.9-2.4,1.5-3.6c2.4-5,5.9-7.3,10.7-6.9c2.1,0.3,4,1.1,5.6,2.6
		c1.6,1.5,2.7,3.6,3.4,6.4c0.7,2.9,1.1,5.7,1.1,8.4c-0.3,4-0.6,7.9-1,11.8c-0.4,3.9-0.8,7.8-1,11.8c-0.1,2.2-0.3,4.5-0.5,6.7
		c-0.2,2.2-0.4,4.3-0.7,6.5c0,0.8,0,1.4,0,2.1c0,0.6,0.1,1.3,0.4,1.9c0.1,0.7,0.5,1.6,1.2,2.5c0.7,0.9,2,0.8,3.8-0.3h0.2l0.2-0.2
		l0.4-0.4c0.2,0,0.4,0,0.4-0.1c0-0.1,0.1-0.1,0.2-0.1l0.9-0.9l1.3-1.3c1.6-1.6,3.4-3.7,5.4-6.3c2-2.6,4.2-5.8,6.7-9.8
		c2.1-3.4,4.1-6.7,5.8-9.9c1.7-3.2,3.3-6.2,4.7-8.8c1.5-3.1,2.9-6.1,4.3-8.8c0.8-1.4,1.9-2.3,3.4-2.9
		C422.6,368,424.1,368.1,425.4,368.7z"/>
</g>
<path class="st4" d="M421,368.7c-1.4,0.6-2.5,1.5-3.2,2.8c-1.4,2.7-2.8,5.7-4.3,8.8c-0.4,0.8-0.9,1.7-1.3,2.5
	c1.4,5.1,3.1,10.2,4.8,14.6c0.5-0.9,1.1-1.8,1.6-2.7c1.2-2.2,2.3-4.2,3.3-6L421,368.7z"/>
<path class="st2" d="M415.1,345.7c-0.6,0.2-1.3,0.3-2.1,0.3c-2.4,0.6-4.8,1.2-7.3,1.7c-2.5,0.5-5,0.9-7.5,1.1
	c-1.4,0.1-2.8,0.1-4.4,0c-1.6-0.1-3-0.5-4.4-1.1c-1.7-0.6-3.1-1.6-4.1-2.8c-1-1.2-1.6-2.6-1.8-4c-0.2-1.4,0-2.9,0.6-4.5
	s1.5-3,2.9-4.2c0.9-0.6,1.8-1.2,2.8-1.8c1-0.6,2-1.2,3-1.8c3.3-1.7,6.6-3.2,10.1-4.5c3.5-1.2,7.1-2.2,10.7-2.8
	c0.9-0.2,1.7-0.5,2.4-0.7c0.7-0.2,1.6-0.3,2.4-0.5c0.1-1.9,0.3-3.6,0.5-5.2s0.4-3.2,0.7-5c0.5-3.9,1.1-7.6,1.7-11.2
	c0.1-0.9,0.3-1.7,0.6-2.5c0.3-0.8,0.5-1.6,0.8-2.3c1.7-3.5,4.5-5.2,8.2-5.2c1.7,0,3.3,0.5,4.7,1.5c1.4,1,2.4,2.4,3.2,4.1
	c0.6,1.6,1.1,3.3,1.3,5.1c0.5,4,0.9,8.3,1.1,12.9c0.3,0.6,0.4,1.2,0.4,1.8c0,0.6,0.1,1.2,0.2,1.8c1-0.1,1.9-0.2,2.8-0.2
	c0.9,0,1.8-0.1,2.6-0.4c1.7,0,3.4-0.1,5.1-0.3c1.6-0.2,3.2-0.2,4.7,0.1c2.2,0.1,4.4,0.6,6.4,1.5c2,0.9,3.6,2.3,4.9,4.3
	c2.4,3.4,2.7,6.7,0.9,10.1c-0.9,1.6-2,2.7-3.3,3.4c-1.3,0.6-2.8,0.9-4.6,0.9c-3.3,0.1-6.4,0.5-9.6,1.2c-3.1,0.7-6.3,1.4-9.6,2.2
	c0,0.6-0.1,1.2-0.2,1.7c-0.1,0.5-0.2,1.1-0.2,1.7c0.2,10.1,0.4,20.2,0.4,30.3s0.1,20.2,0.2,30.3c0.2,7.1,0.6,14.2,0.9,21.4
	c0.4,7.1,1.2,14.2,2.4,21.4c0.3,0.6,0.4,1.2,0.4,1.7c0,0.5,0,1.1,0,1.7c-0.3,1.2-0.7,2.3-1.2,3.3c-0.6,0.9-1.5,1.6-2.7,2
	c-1.4,0.5-2.5,0.6-3.5,0.2c-0.9-0.4-1.8-1-2.7-1.9c-1.2-1.4-2.2-3.1-2.8-5.1c-3.3-10.1-6.2-20.3-8.9-30.4
	c-2.7-10.2-4.5-20.6-5.5-31.4c-0.6-6-1-11.9-1.1-17.8c-0.1-5.9-0.2-11.8-0.2-17.8v-4.9C416.5,345.3,415.7,345.6,415.1,345.7z"/>
<path class="st5" d="M173.6,213.8c0.3-0.5,0.6-1.1,0.9-1.6c0.3-0.5,0.6-1.1,0.9-1.8c1.2-3.7,0.5-6.5-2.2-8.5c-2.6-2-5.5-1.7-8.5,0.8
	c-0.8,0.5-1.5,1.1-2.1,1.7c-0.6,0.6-1.2,1.2-1.9,1.9c-1.1,1.2-2,2.4-3,3.7c-0.3,0.5-0.7,0.9-1,1.4c1.1,6.4,3.6,12.9,9,15
	C168.5,222.3,171.1,218.1,173.6,213.8z"/>
<path class="st1" d="M255.2,202.1c1.3,0.9,2.2,2.2,2.6,3.7c0.4,1.6,0.1,3.1-0.8,4.5c-0.1,0.3-1,1.6-2.8,3.9s-4,5-7,8
	c-3,3-6.4,5.8-10.4,8.6c-4,2.8-8.3,4.6-12.9,5.5c-0.3,0.4-0.6,1-1,1.8c-1.1,3.2-2.3,6.2-3.8,9.1c-1.5,2.9-3.4,5.5-5.6,7.9
	c-1.4,1.6-2.9,3.1-4.4,4.5c-1.5,1.4-3.2,2.8-5,3.9c-7.1,5.1-14.6,5.3-22.5,0.6c-9.3-5.5-14.1-13.9-14.4-25c0-2.1,0.1-4.2,0.4-6.2
	c0.3-2,0.5-4.1,0.8-6.2c0.3-2.4-0.1-4.1-1.2-5.3c-3.6-4.7-5.6-9.5-6.1-14.2c-0.5-4.7,0-9.2,1.6-13.3c1.6-4.1,3.9-7.8,7.1-10.9
	c3.2-3.2,6.6-5.4,10.4-6.9c6.3-2.5,12.6-3.2,18.9-2c0.4,0.1,0.8,0.2,1.3,0.2c0.5,0,0.9,0,1.3,0c2,0,3.7,0.3,5.3,1
	c1.6,0.7,3,1.8,4.1,3.5c0.3,0.5,0.7,0.9,1.2,1.2c5.5,4.2,9.4,9.1,11.5,14.8c2.2,5.6,3.4,11.8,3.8,18.3v7.1c1.1-0.5,1.9-1,2.7-1.3
	c0.7-0.3,1.4-0.7,2.1-1.1c2-1,3.8-2.3,5.4-3.7c1.6-1.4,3.2-2.9,4.6-4.3c0.9-1.2,1.8-2.3,2.6-3.2c0.8-1,1.4-1.9,2-2.7
	c0.9-1.3,2.2-2.2,3.7-2.6C252.2,201,253.7,201.2,255.2,202.1z M196.8,248.1c1-0.1,2.2-0.6,3.4-1.4c1.3-0.8,2.4-1.7,3.4-2.8
	c1-1.1,2-2.2,2.8-3.4c0.8-1.2,1.3-2.4,1.6-3.4c-3-0.3-6-0.6-9-0.9c-3-0.3-5.9-0.6-9-0.9c-0.5,2.2-0.6,4.4-0.2,6.4
	c0.4,2,1.5,3.8,3.3,5.2C194.5,247.8,195.6,248.2,196.8,248.1z M206.1,191.9c-1.6,1.6-3.2,3.5-4.7,5.8c-1.6,2.3-3,4.7-4.2,7.3
	c-1.3,2.6-2.3,5.1-3.3,7.7c-0.9,2.6-1.6,5-2,7.2c1.4,0.7,3.2,1.3,5.3,1.8c2.1,0.5,4.2,0.9,6.4,1.2c2.2,0.3,4.2,0.4,6.2,0.4
	c2,0,3.5-0.2,4.7-0.6c0.9-2.9,1.3-5.9,1.3-9.2c-0.1-3.2-0.5-6.3-1.3-9.2c-0.8-2.9-1.9-5.5-3.3-7.7
	C209.8,194.4,208.1,192.8,206.1,191.9z"/>
<path d="M230.6,218.8c-0.1,0.1-0.2,0.1-0.4,0.2c-0.7,0.3-1.6,0.8-2.7,1.3v-7.1c0-0.4-0.1-0.7-0.1-1.1c0.6,10.6-2.3,20.3-4.4,25.7
	c0.3-0.6,0.6-1,0.8-1.4c2.1-0.4,4.2-1.1,6.2-1.9C231.1,229,231.1,223.4,230.6,218.8z"/>
<path d="M190.1,235.2c1.1,0.1,2.2,0.2,3.3,0.3c1.3-4.7,3-10.1,5.5-13.6c-0.6-0.1-1.2-0.2-1.7-0.3c-2.1-0.5-3.9-1.1-5.3-1.8
	c0.3-1.4,0.6-2.9,1.1-4.5h0c0,0-3.7,12.1-3.3,23.1C189.7,237.4,189.9,236.4,190.1,235.2z"/>
<g>
	<g>
		<path class="st2" d="M466,442c8.2,0,8.2-12.8,0-12.8C457.8,429.2,457.8,442,466,442L466,442z"/>
	</g>
</g>
</svg>
