<svg id="Layer_1" xmlns="http://www.w3.org/2000/svg" viewBox="0 0 552 459"><style>.st0{fill:#534741}.st1{fill:#4d4d4d}.st2{fill:#f94a38}.st3{fill:#016057}.st4{fill:#af0c04}.st5{opacity:.6}</style><path class="st0" d="M294 24.1l.1.3s-2.5.3-4.3 1.4c0 0-.6.1-.6.2v1.5s1.3 1 1.7 1c0 0-.4 4.7 2.4 5.9 0 0-.7 3.3-.1 7.4.5 4.1 1.3 7.3 2.1 9.2.8 1.9.4 2.2.9 2.9.5.7-.2 1.4-.2 1.4l-.1.5-.1.5v1.4l.4.4.7.2h.7l.9.1.8-.1.6-.1.4.2.5-.1h1.7l.5.1.1.3s-.1 1.9.6 2.7c.7.8.8 1.5.8 1.5s.2 1.4.3 1.7c.2.3-2.7 2.3-3.1 2.9-.5.6-.3.5-.5 1.4-.2.8-.5.1-1 1.4-.5 1.3-.3 2.7 0 3.5.2.8-.7 3.6.1 5 0 0-4.7 5.2-5.9 14.2-1 8.6.7 16.9 2.6 22.8.1-.3.1-.7.2-1 .3-1.8.7-3.6 1.2-5.4.3-1 .6-2 .9-2.9l1-2.5c5.1-10.3 15-16.4 26.3-16.4 6 0 11.7 1.8 16.5 5.3 4.4 3.2 7.7 7.4 9.9 12.5l.3.7c1.1 3 2 6.1 2.4 9.3h.4c.4-.8.8-1.6 1.3-2.4.1-.1.2-.2.2-.4-.5-8.4-2.2-18.7-3.4-25.4-.3-1.9-.7-4.3-1.3-6.7-1.1-4.3-3-8.6-6-10.4-6.8-4.3-8.2-5.3-8.2-5.3s-2.4-3.8-3.4-4.2l-.2-.8s.5.1.2-.7c-.3-.7-.5-.9-.5-.9s-.3-1.6-.7-1.9c-.5-.3-.5-.4-.5-1.1s.3-1.8-.8-2c-1.1-.2-1.1-.2-1.5 0-.4.2-1.2.1-1.4.3-.2.2-.8.4-.8.4s-.1-2.9-.4-4.1c-.3-1.1-.4-2.6-.4-3v-3.4s2.6-1.8 2.9-4.8c.3-3 1.1-3 .7-4.9-.3-1-.4-1.1-.4-1.1v-.9s1-1.3.6-3.7c-.4-2.4-1.1-5.9-1.7-7-.6-1.2-1.3-2.9-2.8-4.4-1.5-1.5-1.1-3.6-2.2-4.2-1.1-.6-4-2.5-5.8-2.6-1.8-.1-4.9-2-6.3-2-1.4 0-3.4 0-4.3.4 0 0-8.1-7.2-18.2-1-10 5.8-2 14.3 3.2 16.9zm-4.1 77.9c-1.1-.4-2.3-.8-3.8-1.2-4.2-1.1-5.4-1.1-6.8-2.4-.4-.8-2.1-.4-2.1-.4s.2-2.1-2-2.1c0 0 1-2.3-.3-3.3s-2.2-1.5-2.2-1.5-.3-1.3-1-1.4c-.6-.1 0-.5 0-.5s1.7.2 4.1-3.2c1.7-2.2 1.6-4.4 2-6.1.3-1.7 2.4-4.3 1.6-8.4-.3-1.4 1.9-4.4 0-8.6-1.9-4.2-1.4-6.6-4.8-9.3-3.4-2.7-8.2-5.4-13.2-4-5 1.4-8 4.4-9.1 5.1-1.1.6-4.9 7.2-5.4 10.5-.3 1.6-.4 2.7-.4 2.7s-.4-.1-.6.1c-.2.2-.4 3.4.6 4.8 0 0-.6 6-.1 7.3.5 1.3 1.6 3 1.2 3.4-.4.4-2.3 3.1-2.3 5.4 0 0-1.3 1-2.1 1.4-.8.3-1.9 1.7-1.9 2.2 0 0-3.2-2.2-5.4-2.3-2.2-.1-3.2-1-4.6-1.2-1.4-.1-1.3-.7-2 0 0 0-.6-1.5-1.2-1.8 0 0-.5-1.7-1.5-2.2 0 0 .2-2.4-.9-2.5-1.1 0-2 .3-2.2.9 0 0-.9-1-2 .2-1.2 1.3-3.8 4-4.3 5.2-.5 1.2-2.5 2-1.8 3.5.7 1.4 1.3 3.3 3 5.4 1.6 2.1 2.2 4.7 2.2 5.2 0 0-1.1.2-1.1.5s.1 2.8.1 2.8-.8 1-.8 1.5-.9 2.2-.9 3.1c0 .9-1 2.7-1 3.4 0 .7-2 11.6-1.6 17.6.4 5.2-3.3 9.9-2.3 14.3.6.2 1.1.4 1.7.6 4.3 1.8 8.1 4.7 11.2 8.4 3.3 2.6 6.1 5.5 8.6 8.6 4.8-6.1 10.9-10.8 18.3-13.8 2.5-1 5-1.7 7.5-2.3 1.7-3.5 4.1-6.7 7.1-9.5l1.8-1.5c1.5-1 3-2 4.7-3 .8-.5 1.6-.9 2.3-1.4l1.2-.7c4.3-2.3 8.8-4.3 13.3-5.9 1.7-.6 3.3-1.1 5-1.6.2-1.4.4-2.9.7-4.3l-.9-.6c-.1 0-3.9-7.2-5.6-17.1z"/><path class="st0" d="M210.3 127c-.4-6 1.6-16.9 1.6-17.6 0-.7 1-2.5 1-3.4 0-.4.2-1 .4-1.5-.2-.1-.4-.3-.6-.4 0 0-9.5-8.6-10.4-8.7 0 0-1.2-10.4-3.5-10.8l.5-2 1.1-.8.9-.7.7-1.1.9-.8.7-1.5 1-1.4.6-2.5v-.7s4.1-.6 3.6-4.4c0 0 10.8-5.4 7.5-11.5s-6.4-7.8-6.4-7.8-.6-6.1-1-7.4c-.4-1.3-1.3-4.6-6.3-6.9-5-2.3-12.3-4-20-1.3-7.7 2.7-7.4 6.5-7.4 6.5l-1.4 5.4s-6.6 1.9-8.7 6c-2.1 4 2.5 11.7 6.1 13.2 0 0-.7 1.2.1 2.1.8.9 1.5 2.3 3 2.3 0 0 .3 3.1.4 4l-1.3 1.9-.2 1s-2.5 2.8-2.5 3.6c-.1.8-.9 2.2-.9 2.2l-1.7.7s-2.6.9-4 1.3c-1.5.5-11.3 2.5-14.3 4.6 0 0-6.8.5-8.2 1.8 0 0-3.5.4-4.3.4-.8 0-6.1 2.9-7.2 4.7-.9 1.6-4.4 7.8-5.6 10.8.5-.3 1-.7 1.5-1 6.8-4.5 14.8-6 22.7-4.4 8.4 1.7 15.3 6.8 19.7 14.5 1.6 2.7 2.9 5.5 3.9 8.3.8 2.4 1.4 4.9 1.9 7.2l.1.6c.8 5.2.9 10.3.4 15.4 8.8-3.2 18.1-4.2 27.3-2.6 2.9 0 5.7.4 8.4 1.1-.5-.6-1.1-1.3-1.7-2.3-2.8-4.9 2-10.2 1.6-16.1z"/><path class="st1" d="M173.2 201.9c2.6 2 3.3 4.8 2.2 8.5-.3.7-.6 1.3-.9 1.8-.3.5-.6 1.1-.9 1.6-3.3 5.8-6.8 11.3-10.6 16.6-3.8 5.3-7.9 10.5-12.2 15.5-1.3 1.7-2.8 3.1-4.3 4.1-3.3 2.6-6.7 3.6-10.3 3.1-3.6-.6-6.6-2.6-9-6-1.3-1.8-2.3-3.8-2.9-5.8-.6-2-1-4.1-1.3-6.2-.4-4.6-.5-9.1-.2-13.6s.7-8.8 1.4-13c.3-2 .6-3.8.9-5.6l.9-5.4 1.8-10.8c.8-4.5 1.6-8.9 2.5-13.3.9-4.4 1.6-8.8 2.3-13.3.3-.7.4-1.3.5-2 .1-.7.2-1.3.5-2-.5-.3-.9-.5-1-.6-.4.7-.8 1.3-1.3 1.8s-.9 1.1-1.3 1.8c-7.1 9.7-13.1 19.9-18.1 30.4-5 10.6-9.1 21.6-12.4 33.2-1.2 3.9-2.4 7.9-3.5 11.7-1.2 3.9-2.4 7.9-3.5 11.9-.9 2.6-2 5-3.2 7.1-1.2 1.7-2.6 3-4.1 3.7-1.6.8-3.2 1.2-4.8 1.2-1.6 0-3.2-.4-4.7-1.3s-2.8-2.2-3.8-4c-.7-1.2-1.3-2.4-1.9-3.6-.6-1.2-1-2.6-1.3-4-1.2-3.9-2-7.9-2.4-11.9-.4-4-.7-8-1-11.9-.3-7.1-.3-14.1 0-20.9.3-6.8.8-13.7 1.6-20.5.7-4.6 1.1-9.2 1.5-13.9.3-4.7.7-9.3 1.1-13.9.3-.8.3-1.6.2-2.6-.1-.9-.2-2-.2-3.2-1.2 1.2-1.8 2.1-2 2.8C62 158.3 57.2 167.5 53 177c-4.1 9.5-7 19.4-8.6 29.8-.7 3-1 6.1-1.1 9.2-.1 3.1-.1 6.1-.1 9.2-.7 10.9-1.1 21.7-1.2 32.5 0 .7-.1 1.4-.2 2.2-.1.8-.3 1.5-.4 2.2-1.2 3.4-3.5 5.3-7.1 5.7-1.7.1-3.3-.2-4.6-1.1-1.4-.9-2.4-2.2-3.1-4-.3-.7-.5-1.4-.8-2.2-.3-.8-.4-1.6-.4-2.6-1.4-12.5-2.9-24.9-4.2-37.3-1.4-12.4-2.7-24.9-4-37.3-.7-5.9-1.3-11.7-1.8-17.2-.5-5.6-1.1-11.2-1.8-16.8-.4-2.8-.4-5.6 0-8.5.3-2.6 1.1-4.9 2.7-6.7 1.5-1.8 3.4-3 5.6-3.3 2.2-.5 4.4-.2 6.5.9 2.1 1.1 3.7 2.9 4.9 5.2 1.6 3.3 2.8 6.8 3.5 10.4.7 2.8 1.1 5.6 1.5 8.5.3 2.9.8 5.8 1.5 8.7 0 .4.1.9.2 1.4.1.5.3 1.3.4 2.2.7-.9 1.1-1.7 1.5-2.3.3-.6.6-1.1.9-1.7 2.4-4.2 4.7-8.4 7.1-12.5 2.4-4.1 4.9-8.2 7.5-12.3.9-1.6 1.9-3.1 3.1-4.4 1.1-1.4 2.3-2.7 3.4-4 3-3 6.4-4.4 10-4 3.7.3 6.7 2.3 9.1 5.8 2.1 2.9 3.5 6.2 4.1 10 1.2 5 1.6 10 1.2 15-.5 12.7-1.3 25.7-2.4 38.8-.1 3-.3 6-.4 9-.1 3-.3 5.9-.4 9 0 .5 0 1.1.1 1.6s.2 1.1.5 1.8c.3-.8.6-1.5.9-2.3.3-.7.6-1.5.9-2.3 3.5-9.2 7.4-18.2 11.6-27 4.2-8.8 9.1-17.3 14.6-25.6 2.6-3.8 5.4-7.6 8.2-11.2 2.8-3.7 5.6-7.4 8.4-11.2.9-1.1 1.9-2 3-3 1-.9 2.2-1.7 3.4-2.4 2.6-1.8 5.4-2.5 8.3-1.9 2.9.6 5.1 2.3 6.7 5.2.9 1.4 1.6 3 2.2 4.5.5 1.6.9 3.1 1.2 4.5.7 4.3.7 8.6.1 12.7s-1.2 8.2-1.9 12.1c-.5 2.6-1 5.2-1.4 7.6-.4 2.4-.9 5-1.4 7.6l-2.4 13.8c-.7 3.8-1.3 7.6-1.9 11.3-.6 3.7-1.2 7.5-1.9 11.1-.3.8-.4 1.5-.4 2.3v2.3c.3 0 .4 0 .5.1.1.1.2.1.5.1 1.8-2.1 3.5-4.1 5.1-6 1.6-1.9 3.3-3.9 5.1-6 1-1.2 2-2.4 3-3.7.9-1.3 1.9-2.6 3-3.7l1.9-1.9c.6-.6 1.3-1.1 2.1-1.7 2.6-3 5.5-3.2 8.1-1.3zm136.7-24.5c-.7.2-1.4.3-2.2.3-2.5.7-5.1 1.3-7.7 1.8-2.6.5-5.3.9-7.9 1.2-1.4.1-3 .1-4.6 0-1.6-.1-3.2-.5-4.6-1.2-1.8-.7-3.3-1.6-4.3-3-1-1.3-1.7-2.7-1.9-4.2-.2-1.5 0-3.1.6-4.7s1.6-3.1 3.1-4.4c.9-.7 1.9-1.3 3-1.9 1.1-.6 2.1-1.2 3.2-1.9 3.4-1.8 7-3.4 10.6-4.7 3.7-1.3 7.4-2.3 11.2-3 .9-.3 1.8-.5 2.6-.7.8-.2 1.6-.4 2.6-.5.1-2 .3-3.8.5-5.4s.4-3.4.7-5.2c.5-4.1 1.1-8 1.8-11.8.1-.9.3-1.8.6-2.7.3-.9.5-1.7.8-2.5 1.8-3.7 4.7-5.5 8.7-5.5 1.8 0 3.5.5 4.9 1.6 1.4 1.1 2.6 2.5 3.4 4.3.7 1.7 1.1 3.5 1.4 5.3.5 4.2.9 8.7 1.2 13.6.3.7.4 1.3.4 1.9 0 .6.1 1.2.2 1.9 1-.1 2-.2 3-.2.9 0 1.8-.1 2.8-.4 1.8 0 3.6-.1 5.3-.3 1.7-.2 3.3-.2 4.9.1 2.4.1 4.6.7 6.7 1.6 2.1.9 3.8 2.4 5.1 4.5 2.5 3.5 2.8 7.1 1 10.6-.9 1.7-2.1 2.9-3.4 3.5-1.4.7-3 1-4.8 1-3.4.1-6.8.6-10 1.3-3.3.7-6.6 1.5-10 2.3 0 .7-.1 1.2-.2 1.8-.1.5-.2 1.1-.2 1.8.3 10.6.4 21.3.4 31.9s.1 21.3.2 31.9c.3 7.5.6 15 1 22.5s1.2 15 2.6 22.5c.3.7.4 1.2.4 1.8v1.8c-.3 1.3-.7 2.5-1.3 3.4-.6 1-1.5 1.7-2.9 2.1-1.4.5-2.7.6-3.6.2-1-.4-1.9-1.1-2.9-2-1.3-1.4-2.3-3.2-3-5.3-3.4-10.6-6.5-21.3-9.4-32-2.8-10.7-4.8-21.7-5.8-33-.7-6.3-1-12.5-1.2-18.7-.1-6.2-.2-12.4-.2-18.7v-5.1c-1.3.1-2.1.3-2.8.5z"/><path class="st1" d="M443.1 201.2c1.4.8 2.5 1.9 3.2 3.4.7 1.4.6 3-.2 4.7-1.2 2.9-2.3 5.5-3.4 7.7-1 2.2-2.3 4.9-3.8 7.9s-3.1 6.1-4.8 9.3c-.8 1.3-1.5 2.6-2.3 3.9-.7 1.3-1.5 2.6-2.3 3.9-1.6 3.2-3.4 6.2-5.5 9.2-2.1 3-4.3 5.8-6.5 8.6-1.4 1.8-3 3.5-4.7 4.9-1.7 1.4-3.5 2.8-5.3 3.9-3.3 2.4-6.7 3.6-10.3 3.6-3.6.1-7.2-.8-10.7-2.7-5.3-2.8-9.5-6.5-12.6-11.2-2-2.6-3.6-5.4-4.8-8.2-1.3-2.8-2.4-5.7-3.4-8.8-3.8-10.8-6-21.7-6.6-32.7-.6-11 0-22.2 1.9-33.5.9-5.6 2.1-11.2 3.4-16.6 1.4-5.4 3.2-10.7 5.4-16 1.3-3.3 2.9-6.4 4.6-9.5 1.8-3 4-5.8 6.6-8.5 1-1.2 2.2-2.3 3.4-3.4 1.2-1 2.5-2 3.8-3 2.6-1.6 5.3-2.5 8.2-2.9 2.8-.3 5.5 0 8 .9s4.7 2.4 6.7 4.4c2 2 3.5 4.5 4.7 7.4 1 2.8 1.7 5.7 2.1 8.8.3 3.1.5 6.1.5 9.2-.7 10.4-2.5 20.4-5.5 30-5.8 17.5-13.8 34-24 49.7-.3.7-.6 1.3-.9 2.1-.3.7-.4 1.4-.3 2.1.3 3 .8 6.1 1.5 9.3.7 3.2 2 6 3.8 8.7 1.2 1.8 2.2 3.2 3 4 .9.9 1.7 1.3 2.7 1.5.9.1 1.9-.1 2.9-.8 1-.7 2.2-1.5 3.6-2.6 2.5-2 4.7-4.2 6.7-6.6 2-2.4 3.7-5 5.3-7.6 2.9-4.6 5.7-9.2 8.4-13.8 2.7-4.6 5.4-9.2 8-13.8.1-.3.3-.5.4-.6.1-.1.2-.3.2-.6.3-.4.5-.8.6-1.3.1-.5.3-.9.6-1.3.7-1.4 1.7-2.5 3.3-3.3 1.3-.5 2.8-.5 4.4.2zm-54.6-44.4c-.7 6.8-1.2 13.6-1.7 20.3-.5 6.7-.9 13.5-1.3 20.3l.6 1.8c.9-2 1.7-3.8 2.5-5.4.7-1.6 1.5-3.3 2.5-5 2.6-5.4 5-10.8 7-16.3s3.6-11.1 4.6-17c.8-4.5 1.2-8.8 1.2-13 0-1.4-.2-2.9-.6-4.4-.4-1.5-.8-3-1.2-4.4-.7-1.8-1.5-2.8-2.5-3-1-.1-2.1.7-3.3 2.4-.7.7-1.2 1.4-1.6 2.3-.4.9-.9 1.7-1.4 2.7-1.3 3.2-2.4 6.3-3.2 9.4-.7 2.9-1.3 6-1.6 9.3z"/><path class="st1" d="M540.1 202.7c1.3 1.2 2 2.6 2.1 4.1.1 1.6-.4 3.1-1.5 4.5l-31.1 34.3c0 9.9-.6 19.6-1.9 29.3-1.3 9.7-2.8 19.4-4.6 29.3-.4 2.8-.9 5.5-1.5 8.2-.6 2.7-1.3 5.5-2.1 8.4-1.4 6-4.4 11.4-8.9 16.2-2.4 2.6-5 4.7-8 6.3-3 1.6-6.3 2.4-10 2.4-7.4 0-12.7-3.2-16-9.5-1.1-2-1.8-3.9-2.3-5.8-.5-1.9-.7-3.9-.7-6 .1-8.3.9-16.4 2.4-24.2 1.4-7.9 4.2-15.6 8.3-23.1 1.8-3.5 3.8-7 6-10.4l6.6-10.2c.7-1.1 1.2-2.1 1.6-3.3.4-1.1.4-2.4 0-3.8-1.1.7-1.6 1.3-1.8 1.8l-3.6 4.8c-1.2 1.6-2.4 3.2-3.5 4.8-.5.7-1.1 1.2-1.6 1.8l-1.8 1.8c-5.4 5.3-10.8 7.6-16.4 6.9-5.5-.7-10.3-4.1-14.4-10.4-3.2-5.1-4.8-10.6-4.9-16.6-.3-6.8-.1-13.6.5-20.2s1.8-13.3 3.6-20c.7-2.5 1.5-4.9 2.6-7.3.3-.7.6-1.3.9-2 .3-.7.8-1.2 1.5-1.6 1.2-1.4 2.6-2.5 4.1-3.1 1.6-.6 3.1-.6 4.5.1 3.2 1.2 4.9 3.5 5.3 7.1 0 1.1-.1 2.1-.2 3.1s-.2 2-.2 3.1c-.7 5.5-1.3 11.1-1.9 16.6-.6 5.6-1.2 11.2-1.9 16.8-.4 2.6-.4 5.5 0 8.5.3 1.4.6 2.8 1.1 4.1.5 1.3 1.3 2.5 2.7 3.5.8-.7 1.6-1.2 2.4-1.8.8-.5 1.5-1.1 2.2-1.8 4.7-4.7 8.8-9.8 12.2-15.2 3.4-5.4 6.2-11.2 8.5-17.5.7-2 1.1-4.3 1.4-6.9.3-2.6.5-5.3.8-8.1.3-2.8.5-5.5.8-8.1.3-2.5.9-4.6 1.8-6.3 1.8-3.5 4.5-5.4 8.1-5.5 3.5-.1 6.4 1.4 8.7 4.7.7.9 1.2 1.9 1.7 3s.8 2.1 1.1 3.2c.7 3.3 1.3 6.6 2.1 9.9.7 3.3 1.4 6.6 2.1 10 .1.4.3.9.4 1.4.1.5.3 1.1.4 1.8l1 13 23.1-25.6c1.1-1.2 2.4-1.8 4-1.9 1.6-.1 3 .4 4.2 1.4zM480 326.1c.3-1.8.6-3.6 1-5.3.4-1.7.6-3.5.6-5.3-.3-5.9-.5-11.9-.7-17.9-.2-6-.4-12-.5-17.9 0-1.1-.1-2.1-.2-3.2s-.3-2.2-.4-3.5c-.5.3-.9.5-1 .6l-.6.6c-4.9 7.9-8.4 16.1-10.6 24.5-2.2 8.5-3 17.3-2.4 26.5.3.9.5 1.9.8 2.9.3 1 .6 1.8 1 2.5.9 1.8 2.1 2.9 3.4 3.3 1.4.3 2.9 0 4.6-.9 2.5-1.7 4.2-3.9 5-6.9zm-185.4-96.4c.3.4.6.9.9 1.4.3.5.6 1.1.9 1.6 7.5 13.3 8.2 26.7 2.2 40.2-2 4.2-4.6 7.6-7.9 10.1-3.3 2.6-7.3 4.1-12 4.6-4.9.7-9.4-.1-13.5-2.4-4.1-2.2-7.4-5.5-9.8-9.9-4.1-7.5-4.7-15-1.8-22.7 1-3 2.2-5.8 3.5-8.4s2.9-5.1 4.7-7.6c.4-.7.8-1.2 1.1-1.8.3-.5.8-1.1 1.3-1.8l-2.8-2.8c-1.8-2.1-3.7-4.2-5.7-6.2s-3.9-4.2-5.7-6.4c-1.8-2.6-3.2-5.4-4.2-8.3-1-2.9-1.5-5.8-1.5-8.9 0-4.7 1.4-9.1 4.3-13.2s6.7-7.1 11.4-9.1c4.5-1.8 9-2.2 13.7-1.1 4.7 1.1 8.6 3.4 11.9 7 2.4 2.5 4.1 5.2 5.3 8.1.9 1.8 1 4 .4 6.5-.5 2.1-1.7 3.4-3.6 3.9-1.9.5-3.6.1-5-1.4-.7-.7-1.2-1.2-1.6-1.8-.4-.5-.9-1.1-1.4-1.8-1.1-1.6-2.4-2.8-3.9-3.7s-3.3-1.5-5.1-1.8c-1.7-.3-3.2-.2-4.5.3-1.3.5-2.6 1.2-3.7 2.3-1.7 1.8-2.1 3.7-1.2 5.7.7 1.2 1.3 2.4 2 3.7.7 1.3 1.4 2.3 2.4 3 2.9 2.1 5.7 4 8.5 5.8 2.8 1.8 5.6 3.6 8.7 5.4.9.5 2 .5 3.3 0 4.2-1.8 8.2-3.8 11.9-6s7.3-4.8 10.7-7.8c.8-.7 1.5-1.2 2.3-1.8.7-.5 1.5-1 2.5-1.6 1.7-.7 3.2-.7 4.6-.2 1.4.5 2.5 1.4 3.4 2.6 2 3.2 1.6 6.1-1.2 8.9-.5.5-1.1 1-1.6 1.3-.5.3-1.1.7-1.8 1.1-3.7 2.2-7.3 4.5-10.8 6.8-3.5 2.3-7.2 4.6-11 6.8-.1.7-.2 1-.6 1.4zm-21.3 11.5c-1.8 2.9-3.4 5.7-4.7 8.5-1.3 2.8-2.3 5.6-3 8.7-.3 1.7-.2 3.3.2 4.7.4 1.4 1 2.8 2 4.1 1.4 2.5 3.6 3.6 6.5 3.4 2.5-.5 4.1-2.1 4.7-4.7.3-1.8.5-3.7.8-5.5.3-1.8.3-3.7 0-5.5-.3-5-2.5-9.5-6.5-13.7z"/><path class="st2" d="M380.5 326.5c-3.6 0-6.6-1-8.9-2.9-2.3-1.9-3.6-4.5-3.8-7.8-.1-2.6.6-5 2.2-7.1 1.6-2.1 3.6-3.4 6.1-3.7 2.6-.5 4.9 0 6.9 1.4s3.3 3.5 3.9 6.1c.2.8.4 1.4.6 2.1.1.6.3 1.3.6 1.9 1 2.9.8 5.3-.7 7.4-1.5 1.9-3.8 2.8-6.9 2.6z"/><path d="M387.9 227.9l.9-2.1c1.2-1.9 2.3-3.8 3.5-5.7-1.5-7.9-2.8-17.2-3.2-27-.1.3-.3.5-.4.8-.7 1.6-1.5 3.4-2.5 5.4l-.6-1.8c.2-2.8.4-5.6.5-8.4l-.1.3s-3.1 22.4 1.5 39.7c.1-.5.2-.9.4-1.2z"/><path class="st3" d="M221.2 242.2h.2c.3-.7.6-1.5.8-2.2-.6 1.4-1 2.2-1 2.2zm286.9 28.1c-.5 2.9-.5 4-.3 3.8.2-1.5.3-3 .4-4.4-.1.2-.1.4-.1.6z"/><path d="M508.9 228.6c.3 4.7.6 10.7.7 17.1l6-6.6c1.5-7.9 2.8-15.8 3.5-21.8l-10.2 11.3zm-211.5-1.2c-1.3-4.5-2.9-9-4.4-12-2.2 1.2-4.5 2.3-6.9 3.3-1.3.5-2.4.5-3.3 0 0 0 8.8 6.1 14.1 15.1-.2-.4-.3-.7-.5-1.1-.3-.5-.6-1-.9-1.6-.3-.5-.6-1-.9-1.4.4-.4.6-.7.6-1 .7-.4 1.4-.9 2.2-1.3z"/><path class="st3" d="M189.8 239.4c0-.2-.1-.5-.1-.7 0 .2 0 .5.1.7-.1 0-.1 0 0 0zm280.6 94.3c-1.4-.3-2.5-1.4-3.4-3.3-.4-.7-.7-1.5-1-2.5-.3-1-.5-1.9-.8-2.9-.1-1-.1-1.9-.1-2.8l-11.3 2c0 2.1.2 4.1.7 6 .5 1.9 1.2 3.8 2.3 5.8 1.7 3.2 3.9 5.6 6.6 7.1 6.9-1.3 9.7-5.5 10.5-10-1.3.6-2.5.8-3.5.6z"/><path class="st2" d="M370.3 368.3c1.4.8 2.4 1.8 3 3.2.6 1.4.6 2.9-.2 4.5-1.1 2.7-2.2 5.2-3.2 7.3-1 2.1-2.2 4.6-3.6 7.5-1.4 2.9-3 5.8-4.6 8.8-.8 1.2-1.5 2.5-2.2 3.7-.7 1.3-1.4 2.5-2.2 3.7-1.5 3-3.2 5.9-5.2 8.7-2 2.8-4.1 5.5-6.2 8.1-1.4 1.7-2.9 3.3-4.5 4.7-1.6 1.4-3.3 2.6-5.1 3.7-3.1 2.2-6.4 3.4-9.8 3.5-3.4.1-6.8-.8-10.2-2.5-5-2.6-9-6.2-12-10.7-1.9-2.5-3.4-5.1-4.6-7.8-1.2-2.7-2.3-5.5-3.3-8.3-3.6-10.2-5.7-20.6-6.3-31.1-.6-10.5 0-21.1 1.8-31.8.9-5.4 2-10.6 3.3-15.7 1.3-5.1 3-10.2 5.1-15.2 1.2-3.1 2.7-6.1 4.4-9 1.7-2.9 3.8-5.6 6.3-8.1 1-1.1 2.1-2.2 3.3-3.2 1.2-1 2.4-1.9 3.7-2.8 2.5-1.5 5.1-2.4 7.8-2.7 2.7-.3 5.2 0 7.6.8 2.4.9 4.5 2.3 6.4 4.2 1.9 1.9 3.4 4.3 4.5 7 1 2.6 1.7 5.4 2 8.3.3 2.9.5 5.8.5 8.7-.6 9.9-2.4 19.4-5.2 28.5-5.5 16.6-13.1 32.3-22.9 47.2-.3.6-.5 1.3-.8 2-.3.7-.4 1.3-.3 2 .2 2.9.7 5.8 1.4 8.8.7 3 1.9 5.7 3.7 8.2 1.1 1.7 2.1 3 2.9 3.8.8.8 1.7 1.3 2.5 1.4.9.1 1.8-.1 2.7-.8.9-.6 2.1-1.4 3.5-2.4 2.4-1.9 4.5-4 6.4-6.3 1.9-2.3 3.6-4.7 5.1-7.2 2.7-4.4 5.4-8.7 8-13.1 2.6-4.4 5.1-8.7 7.6-13.1.1-.2.3-.4.4-.6.1-.1.2-.3.2-.6.3-.4.4-.8.6-1.2.1-.4.3-.8.6-1.2.6-1.4 1.7-2.4 3.1-3.1 1.1-.4 2.6-.4 4 .2zm-51.8-42.1c-.6 6.5-1.2 12.9-1.6 19.3-.4 6.4-.8 12.8-1.2 19.3l.6 1.7c.9-1.9 1.7-3.6 2.3-5.2.7-1.6 1.5-3.2 2.3-4.8 2.5-5.1 4.7-10.3 6.7-15.5 1.9-5.2 3.4-10.6 4.4-16.2.7-4.2 1.1-8.4 1.1-12.4 0-1.4-.2-2.8-.6-4.2-.4-1.4-.7-2.8-1.1-4.2-.6-1.7-1.4-2.7-2.3-2.8-.9-.1-2 .6-3.1 2.2-.6.6-1.1 1.3-1.5 2.2-.4.8-.8 1.7-1.3 2.5-1.2 3-2.3 6-3.1 8.9-.9 3-1.4 6-1.6 9.2z"/><path class="st4" d="M318.6 391.7c1.4-2.2 2.7-4.4 4-6.6-.5-9-.8-22.2.9-34.4-.9 1.9-1.7 3.8-2.6 5.7-.9 1.6-1.7 3.2-2.3 4.8-.7 1.6-1.5 3.3-2.3 5.2l-.6-1.7c.1-1.1.1-2.2.2-3.2-.1.2-.2.3-.4.5-.3 15.2.3 35.2 4.7 46.1-.5-1.2-.9-2.4-1.2-3.7-.7-3-1.2-5.9-1.4-8.8-.1-.6 0-1.3.3-2 .2-.6.5-1.2.7-1.9zm51.7-23.4c-1.5-.6-3-.6-4.4.1-1.4.7-2.5 1.7-3.1 3.1-.3.4-.4.8-.6 1.2-.1.4-.3.8-.6 1.2 0 .3-.1.4-.2.6-.1.1-.3.3-.4.6-1.7 2.9-3.3 5.8-5 8.7-.2 8.5 1.7 14.6 3.9 18.8.5-1 1.1-2 1.7-2.9 1.6-3 3.2-5.9 4.6-8.8 1.4-2.9 2.7-5.4 3.6-7.5.3-.7.7-1.5 1-2.3l1.7-10.5c-.4-.9-1.1-1.7-2.2-2.3z"/><path class="st2" d="M425.4 368.7c1.4.6 2.3 1.7 2.9 3.3.6 1.6.5 3-.1 4.4-.1.1-.6 1-1.4 2.7-.8 1.7-1.9 3.9-3.4 6.6-1.4 2.7-3.1 5.7-5 9.1-1.9 3.4-3.9 6.8-6 10.3-1 1.9-2.1 3.4-3.2 4.7-2.9 4.6-6.1 9.2-9.7 13.9-1.4 1.7-2.9 3.4-4.6 5-1.7 1.6-3.5 2.9-5.5 4-7.4 4-13.7 2.9-19.1-3.2-1.9-2.1-3.4-4.4-4.5-6.7-1.1-2.4-2-4.8-2.6-7.3-1.7-7.1-2.7-14.3-3-21.5-.3-7.2.3-14.5 1.7-21.9.1-1.1.4-2.3.8-3.6.4-1.2.9-2.4 1.5-3.6 2.4-5 5.9-7.3 10.7-6.9 2.1.3 4 1.1 5.6 2.6 1.6 1.5 2.7 3.6 3.4 6.4.7 2.9 1.1 5.7 1.1 8.4-.3 4-.6 7.9-1 11.8-.4 3.9-.8 7.8-1 11.8-.1 2.2-.3 4.5-.5 6.7s-.4 4.3-.7 6.5v2.1c0 .6.1 1.3.4 1.9.1.7.5 1.6 1.2 2.5.7.9 2 .8 3.8-.3h.2l.2-.2.4-.4c.2 0 .4 0 .4-.1s.1-.1.2-.1l.9-.9 1.3-1.3c1.6-1.6 3.4-3.7 5.4-6.3 2-2.6 4.2-5.8 6.7-9.8 2.1-3.4 4.1-6.7 5.8-9.9 1.7-3.2 3.3-6.2 4.7-8.8 1.5-3.1 2.9-6.1 4.3-8.8.8-1.4 1.9-2.3 3.4-2.9 1.5-.9 3-.8 4.3-.2z"/><path class="st4" d="M421 368.7c-1.4.6-2.5 1.5-3.2 2.8-1.4 2.7-2.8 5.7-4.3 8.8-.4.8-.9 1.7-1.3 2.5 1.4 5.1 3.1 10.2 4.8 14.6.5-.9 1.1-1.8 1.6-2.7 1.2-2.2 2.3-4.2 3.3-6l-.9-20z"/><path class="st2" d="M415.1 345.7c-.6.2-1.3.3-2.1.3-2.4.6-4.8 1.2-7.3 1.7s-5 .9-7.5 1.1c-1.4.1-2.8.1-4.4 0-1.6-.1-3-.5-4.4-1.1-1.7-.6-3.1-1.6-4.1-2.8-1-1.2-1.6-2.6-1.8-4-.2-1.4 0-2.9.6-4.5s1.5-3 2.9-4.2c.9-.6 1.8-1.2 2.8-1.8l3-1.8c3.3-1.7 6.6-3.2 10.1-4.5 3.5-1.2 7.1-2.2 10.7-2.8.9-.2 1.7-.5 2.4-.7.7-.2 1.6-.3 2.4-.5.1-1.9.3-3.6.5-5.2s.4-3.2.7-5c.5-3.9 1.1-7.6 1.7-11.2.1-.9.3-1.7.6-2.5s.5-1.6.8-2.3c1.7-3.5 4.5-5.2 8.2-5.2 1.7 0 3.3.5 4.7 1.5 1.4 1 2.4 2.4 3.2 4.1.6 1.6 1.1 3.3 1.3 5.1.5 4 .9 8.3 1.1 12.9.3.6.4 1.2.4 1.8 0 .6.1 1.2.2 1.8 1-.1 1.9-.2 2.8-.2.9 0 1.8-.1 2.6-.4 1.7 0 3.4-.1 5.1-.3 1.6-.2 3.2-.2 4.7.1 2.2.1 4.4.6 6.4 1.5s3.6 2.3 4.9 4.3c2.4 3.4 2.7 6.7.9 10.1-.9 1.6-2 2.7-3.3 3.4-1.3.6-2.8.9-4.6.9-3.3.1-6.4.5-9.6 1.2-3.1.7-6.3 1.4-9.6 2.2 0 .6-.1 1.2-.2 1.7s-.2 1.1-.2 1.7c.2 10.1.4 20.2.4 30.3s.1 20.2.2 30.3c.2 7.1.6 14.2.9 21.4.4 7.1 1.2 14.2 2.4 21.4.3.6.4 1.2.4 1.7v1.7c-.3 1.2-.7 2.3-1.2 3.3-.6.9-1.5 1.6-2.7 2-1.4.5-2.5.6-3.5.2-.9-.4-1.8-1-2.7-1.9-1.2-1.4-2.2-3.1-2.8-5.1-3.3-10.1-6.2-20.3-8.9-30.4-2.7-10.2-4.5-20.6-5.5-31.4-.6-6-1-11.9-1.1-17.8-.1-5.9-.2-11.8-.2-17.8v-4.9c-.9.2-1.7.5-2.3.6z"/><path class="st5" d="M173.6 213.8c.3-.5.6-1.1.9-1.6.3-.5.6-1.1.9-1.8 1.2-3.7.5-6.5-2.2-8.5-2.6-2-5.5-1.7-8.5.8-.8.5-1.5 1.1-2.1 1.7l-1.9 1.9c-1.1 1.2-2 2.4-3 3.7-.3.5-.7.9-1 1.4 1.1 6.4 3.6 12.9 9 15 2.8-4.1 5.4-8.3 7.9-12.6z"/><path class="st1" d="M255.2 202.1c1.3.9 2.2 2.2 2.6 3.7.4 1.6.1 3.1-.8 4.5-.1.3-1 1.6-2.8 3.9s-4 5-7 8-6.4 5.8-10.4 8.6-8.3 4.6-12.9 5.5c-.3.4-.6 1-1 1.8-1.1 3.2-2.3 6.2-3.8 9.1-1.5 2.9-3.4 5.5-5.6 7.9-1.4 1.6-2.9 3.1-4.4 4.5-1.5 1.4-3.2 2.8-5 3.9-7.1 5.1-14.6 5.3-22.5.6-9.3-5.5-14.1-13.9-14.4-25 0-2.1.1-4.2.4-6.2.3-2 .5-4.1.8-6.2.3-2.4-.1-4.1-1.2-5.3-3.6-4.7-5.6-9.5-6.1-14.2-.5-4.7 0-9.2 1.6-13.3 1.6-4.1 3.9-7.8 7.1-10.9 3.2-3.2 6.6-5.4 10.4-6.9 6.3-2.5 12.6-3.2 18.9-2 .4.1.8.2 1.3.2h1.3c2 0 3.7.3 5.3 1 1.6.7 3 1.8 4.1 3.5.3.5.7.9 1.2 1.2 5.5 4.2 9.4 9.1 11.5 14.8 2.2 5.6 3.4 11.8 3.8 18.3v7.1c1.1-.5 1.9-1 2.7-1.3.7-.3 1.4-.7 2.1-1.1 2-1 3.8-2.3 5.4-3.7 1.6-1.4 3.2-2.9 4.6-4.3.9-1.2 1.8-2.3 2.6-3.2.8-1 1.4-1.9 2-2.7.9-1.3 2.2-2.2 3.7-2.6 1.5-.3 3-.1 4.5.8zm-58.4 46c1-.1 2.2-.6 3.4-1.4 1.3-.8 2.4-1.7 3.4-2.8 1-1.1 2-2.2 2.8-3.4.8-1.2 1.3-2.4 1.6-3.4l-9-.9c-3-.3-5.9-.6-9-.9-.5 2.2-.6 4.4-.2 6.4.4 2 1.5 3.8 3.3 5.2 1.4.9 2.5 1.3 3.7 1.2zm9.3-56.2c-1.6 1.6-3.2 3.5-4.7 5.8-1.6 2.3-3 4.7-4.2 7.3-1.3 2.6-2.3 5.1-3.3 7.7-.9 2.6-1.6 5-2 7.2 1.4.7 3.2 1.3 5.3 1.8 2.1.5 4.2.9 6.4 1.2 2.2.3 4.2.4 6.2.4s3.5-.2 4.7-.6c.9-2.9 1.3-5.9 1.3-9.2-.1-3.2-.5-6.3-1.3-9.2-.8-2.9-1.9-5.5-3.3-7.7s-3.1-3.8-5.1-4.7z"/><path d="M230.6 218.8c-.1.1-.2.1-.4.2-.7.3-1.6.8-2.7 1.3v-7.1c0-.4-.1-.7-.1-1.1.6 10.6-2.3 20.3-4.4 25.7.3-.6.6-1 .8-1.4 2.1-.4 4.2-1.1 6.2-1.9 1.1-5.5 1.1-11.1.6-15.7zm-40.5 16.4l3.3.3c1.3-4.7 3-10.1 5.5-13.6-.6-.1-1.2-.2-1.7-.3-2.1-.5-3.9-1.1-5.3-1.8.3-1.4.6-2.9 1.1-4.5 0 0-3.7 12.1-3.3 23.1 0-1 .2-2 .4-3.2z"/><path class="st2" d="M466 442c8.2 0 8.2-12.8 0-12.8s-8.2 12.8 0 12.8z"/></svg>