<svg xmlns="http://www.w3.org/2000/svg" height="125" width="220"><path fill="#005EB8" d="M30 32h159v63H30z"/><path fill="#fff" d="M179.644 49.181c-2.669-1.26-6.301-2.374-11.416-2.374-5.482 0-9.927.819-9.927 4.967 0 7.338 20.083 4.595 20.083 20.31 0 14.305-13.266 18.01-25.274 18.01-5.338 0-11.49-1.26-16.011-2.669l3.266-10.521c2.742 1.776 8.223 2.963 12.745 2.963 4.299 0 11.046-.815 11.046-6.152 0-8.303-20.09-5.19-20.09-19.792 0-13.34 11.712-17.344 23.05-17.344 6.379 0 12.382.665 15.863 2.298M99.08 37.47h13.861l-4.077 19.79h16.381l4.075-19.79h13.86l-10.747 51.736h-13.861l4.599-22.162h-16.384l-4.591 22.162H88.332M45.65 37.47h17.268L73.52 73.342h.147l7.26-35.872h13.05l-10.97 51.736H65.809l-10.822-35.8h-.15l-7.187 35.8H34.603"/></svg>