<svg id="Layer_1" xmlns="http://www.w3.org/2000/svg" viewBox="0 0 159 62.5"><style>.st0{fill:#005eb8}.st1{fill:#fff}</style><path class="st0" d="M0-.5h159v63H0z"/><path class="st1" d="M149.6 16.7c-2.7-1.3-6.3-2.4-11.4-2.4-5.5 0-9.9.8-9.9 5 0 7.3 20.1 4.6 20.1 20.3 0 14.3-13.3 18-25.3 18-5.3 0-11.5-1.3-16-2.7l3.3-10.5c2.7 1.8 8.2 3 12.7 3 4.3 0 11-.8 11-6.2 0-8.3-20.1-5.2-20.1-19.8 0-13.3 11.7-17.3 23.1-17.3 6.4 0 12.4.7 15.9 2.3M69.1 5H83l-4.1 19.8h16.4l4-19.8h13.9l-10.7 51.7H88.6l4.6-22.2H76.8l-4.6 22.2H58.3M15.6 5h17.3l10.6 35.9h.1L50.9 5h13L53 56.7H35.8L25 20.9h-.1l-7.2 35.8h-13"/></svg>