<?xml version="1.0" encoding="utf-8"?>
<!-- Generator: Adobe Illustrator 21.1.0, SVG Export Plug-In . SVG Version: 6.00 Build 0)  -->
<!DOCTYPE svg PUBLIC "-//W3C//DTD SVG 1.1//EN" "http://www.w3.org/Graphics/SVG/1.1/DTD/svg11.dtd">
<svg version="1.1" id="Layer_1" xmlns="http://www.w3.org/2000/svg" xmlns:xlink="http://www.w3.org/1999/xlink" x="0px" y="0px"
	 viewBox="0 0 159 62.5" style="enable-background:new 0 0 159 62.5;" xml:space="preserve">
<style type="text/css">
	.st0{fill:#005EB8;}
	.st1{fill:#FFFFFF;}
</style>
<rect y="-0.5" class="st0" width="159" height="63"/>
<path class="st1" d="M149.6,16.7c-2.7-1.3-6.3-2.4-11.4-2.4c-5.5,0-9.9,0.8-9.9,5c0,7.3,20.1,4.6,20.1,20.3c0,14.3-13.3,18-25.3,18
	c-5.3,0-11.5-1.3-16-2.7l3.3-10.5c2.7,1.8,8.2,3,12.7,3c4.3,0,11-0.8,11-6.2c0-8.3-20.1-5.2-20.1-19.8c0-13.3,11.7-17.3,23.1-17.3
	c6.4,0,12.4,0.7,15.9,2.3 M69.1,5h13.9l-4.1,19.8h16.4L99.3,5h13.9l-10.7,51.7H88.6l4.6-22.2H76.8l-4.6,22.2H58.3 M15.6,5h17.3
	l10.6,35.9h0.1L50.9,5h13L53,56.7H35.8L25,20.9h-0.1l-7.2,35.8h-13"/>
</svg>
