<svg xmlns="http://www.w3.org/2000/svg" viewBox="0 0 506 514"><path d="M1.7 256C2 116.7 115.1 5.2 252.7 5.4c139 .2 252.4 113.9 250.7 253.9-1.5 137.4-114.7 249.7-254.5 247.8C113.5 505.2 2 394.7 1.7 256zM252.6 19.6C122.4 19.6 16.8 125 16 254.6c-.8 131.7 105.3 236.5 232.9 238.3 130.9 1.9 238.6-103 240.4-233.3 1.7-132.5-105.5-240-236.7-240z"/><path d="M252.4 386.4c-71.9 0-131.1-59.3-129.7-132.6 1.4-70 59-127.9 131.4-127.2 71 .7 129.1 58.7 128.4 131.1-.6 71.7-59.2 128.8-130.1 128.7zm.1-24.8c58.1 0 105.2-46.9 105.3-105 .1-57.9-47-105.2-104.8-105.3-58.4-.1-104.6 47-105.4 103.6-.9 58.8 46.8 106.8 104.9 106.7zm36.6-281.5c0-13.9 10.8-24.7 24.5-24.7 14.1 0 25.5 11.1 25.5 24.8 0 13.7-10.9 24.6-24.5 24.6-14 0-25.5-11-25.5-24.7zm24.7 14.2c7.7 0 14.1-6.7 14.1-14.8 0-7.6-6.1-13.7-13.6-13.7-7.7 0-14.1 6.7-14.1 14.8.1 7.6 6.1 13.6 13.6 13.7zM189.7 454.4c-14.8-.5-25.6-11.6-25.3-26 .4-13.3 11.8-23.8 25.5-23.4 13.7.4 25.1 11.9 24.7 24.9-.5 14.1-11.5 25-24.9 24.5zm-13.9-24.2c0 7.8 5.9 13.8 13.6 13.8 7.6 0 14-6.7 14-14.7 0-7.7-6-13.8-13.6-13.8-7.7 0-14 6.6-14 14.7zm-86.3-177c-13.6-1.6-27-3.3-40.5-4.9.4-3.4.7-6.6 1.2-9.9.6-4 .9-8.2 1.9-12.1 1.6-5.9 5.3-10 11.7-10.9 6.3-.8 11.9 2.2 14.8 7.9.2.4.4.7.7 1.2 2.5-1.5 4.9-2.9 7.3-4.3 2.4-1.4 4.8-2.8 7.5-4.4-.5 4.1-.9 7.9-1.4 11.7-.1.5-.7 1-1.2 1.2-3.4 2-6.7 3.9-10.2 5.8-1.1.6-1.6 1.3-1.7 2.5-.1 1.4-.3 2.9-.5 4.5 3.9.5 7.7 1 11.7 1.5-.5 3.4-.9 6.7-1.3 10.2zM70 240.5c.2-3.4.7-6.8.6-10.1-.1-2.7-2.1-4.6-4.4-4.9-2.2-.3-4.6 1-5.4 3.6-.9 3.2-1.3 6.6-1.9 10.1 3.9.4 7.3.9 11.1 1.3zm354.5 44.7c-4.9 2.9-9.7 5.7-14.8 8.7.5-4.1 1-7.9 1.5-11.7.1-.5.7-.9 1.2-1.2 3.3-1.9 6.5-3.8 9.9-5.6 1.2-.7 2-1.4 1.9-2.9 0-1.3.3-2.6.5-4.2-3.9-.5-7.7-1-11.7-1.5.4-3.4.8-6.6 1.2-10.1 13.5 1.6 26.9 3.2 40.5 4.9-.5 4.2-.9 8.3-1.5 12.4-.4 3-.6 6.1-1.4 9-2.9 11.2-15 15.3-23.3 7.9-.9-.8-1.6-1.7-2.3-2.6-.6-1-1.1-2-1.7-3.1zm9.4-15.9c-.3 2.5-.7 4.8-.9 7.1-.1 1.4 0 2.8.4 4.1.6 2 2 3.4 4.1 3.6 2.2.3 3.8-.7 4.9-2.5.5-.9.9-1.9 1.1-2.9.4-2.6.7-5.3 1.1-8.2-3.6-.4-7.1-.8-10.7-1.2zM419.1 344c4.8.6 8.2-2.2 8.5-6.9.1-1.7-.6-3-2.1-3.8-1.5-.8-2.8-.3-3.8.8-1.9 2.1-3.6 4.3-5.4 6.4-1.2 1.4-2.4 2.7-3.8 4-7.6 7-17.4.5-18.6-6.3-1.4-7.8 1.6-14.1 6.7-19.6 2.6-2.8 5.9-4.6 9.8-4.6 2.1 0 4.3.4 6.7.7-1.5 3.1-2.8 5.8-4.1 8.5-.2.4-1 .8-1.5.8-4.6 0-9.2 4.6-8.8 9.3.1 1 .9 2.3 1.7 2.7.8.4 2.4.1 3.1-.5 1.8-1.8 3.3-3.9 5-5.8 1.5-1.7 2.9-3.5 4.5-5 7.3-6.7 16.6-.9 18.8 5 3.2 8.8-3.7 22-12.8 24.2-2.6.7-5.6.4-8.5-.8 1.7-3 3.1-6 4.6-9.1zM86.6 194.7c1.5-3.1 2.9-6 4.3-9 5.5.7 8.7-3.2 9.9-8.2.4-1.6 0-2.9-1.5-3.8-1.5-.9-2.8-.3-3.8.8-2 2.2-3.8 4.7-5.7 6.9-1.2 1.4-2.4 2.8-3.8 3.9-3.4 2.9-7.3 3.5-11.5 1.7-4.4-1.9-7.2-5.1-7.6-9.9-.6-8.1 2.7-14.5 9.1-19.3 3.7-2.8 8-3.1 12.7-1.3l-.6 1.5c-.9 1.8-1.8 3.6-2.6 5.4-.6 1.5-1.3 2.2-3.2 2-3.7-.3-7.5 5.3-6.2 8.8.8 2.2 3.4 3 5.2 1.5 1.1-.9 2-2.1 3-3.2 2.2-2.5 4.3-5.2 6.7-7.5 3-2.9 6.7-3.9 10.8-2.4 4.3 1.7 7.1 4.7 7.9 9.3 1.3 7.9-3.8 18.3-10.9 22-3.8 2.3-7.9 2.4-12.2.8zm11.2 110.8c-13.4 3.1-26.5 6.1-39.8 9.2-2.3-10.1-4.6-20-6.9-30.1 2.9-.7 5.7-1.3 8.7-2 1.6 6.7 3.1 13.3 4.7 20.1 2.4-.5 4.6-1.1 7.1-1.6-1.3-5.9-2.7-11.7-4-17.6 2.9-.7 5.6-1.3 8.5-2 1.4 5.9 2.7 11.7 4.1 17.6 2.3-.5 4.4-1 6.7-1.6-1.5-6.8-3.1-13.4-4.6-20.1 3-.7 5.7-1.3 8.7-2 2.2 10.1 4.5 20 6.8 30.1zm325.8-94.8c-2.3.5-4.4 1-6.7 1.6 1.5 6.7 3 13.3 4.6 20.1-2.9.7-5.6 1.3-8.7 2-2.3-10-4.6-20-7-30.1 13.3-3.1 26.4-6.1 39.8-9.2 2.3 10 4.6 20 6.9 30.1-3 .7-5.7 1.3-8.7 2-1.6-6.7-3.1-13.3-4.7-20.1-2.4.5-4.7 1.1-7.1 1.6 1.3 5.9 2.7 11.6 4 17.5-2.8.7-5.5 1.3-8.5 2-1.2-5.9-2.5-11.6-3.9-17.5zM133.4 420.1c-2.7-2.3-5.1-4.4-7.8-6.7.5-.6.9-1.1 1.4-1.7 4.3-4.9 8.6-9.8 12.9-14.8 2.2-2.5 3.8-5.3 3.1-8.8-1.1-5.6-7.2-8.6-12.2-5.9-1.5.8-2.8 1.9-4 3.2-4.4 5-8.8 10-13.1 15-.4.5-.8.9-1.3 1.4-2.6-2.2-5.1-4.4-7.7-6.7 3.9-4.5 7.8-9 11.7-13.4 1.3-1.5 2.6-3.1 4-4.5 8.1-8.2 18-8.4 26.5-.7 7.9 7.2 8.9 16.8 2.2 25.3-5 6.3-10.4 12.1-15.7 18.3zM370.3 89.6c2.7 2.4 5.2 4.5 7.8 6.8-2.9 3.4-5.8 6.7-8.6 9.9-1.9 2.2-3.9 4.4-5.8 6.6-.9 1.2-1.8 2.5-2.4 3.9-1.5 3.5-.7 6.9 2 9.3 2.9 2.7 6.4 3.2 9.8 1.3 1.6-.9 3-2.3 4.3-3.7 4.6-5.2 9.2-10.5 13.9-15.9 2.6 2.2 5.1 4.4 7.6 6.6-.1.3-.1.5-.2.6-5.2 5.9-10.2 12-15.6 17.7-5.1 5.4-11.5 7.9-18.8 5-7.7-3.1-13.2-8.4-14-17.2-.4-4.3.9-8.2 3.5-11.5 5.3-6.5 10.9-12.8 16.5-19.4zm-39.9 352.8c-3.4 1-6.5 2.1-9.7 2.9-.6.2-1.5-.2-2-.6-3.8-3.6-7.6-7.2-11.4-10.9-.7-.6-1.3-1.2-2.2-2.1-.6 2.4-1.1 4.6-1.6 6.7-.9 3.9-1.8 7.7-2.6 11.6-.2 1-.6 1.6-1.7 1.8-3.1.8-6.1 1.8-9.5 2.8 1-4.4 1.9-8.6 2.8-12.7 1.3-5.9 2.7-11.9 3.9-17.9.2-.9.2-1.9-.1-2.8-.9-3.4-2-6.8-3.1-10.3 3.3-1 6.5-2 9.8-3 1 3.2 2 6.3 2.8 9.4.5 1.7 1.4 3 2.7 4.2 6.8 6.4 13.6 12.9 20.4 19.4.5.4.9.9 1.5 1.5zm-157.1-375c3.5-1.1 6.8-2.1 10.1-3 .5-.1 1.3.4 1.8.9 4.1 3.9 8.2 7.9 12.3 11.8.3.3.6.5 1.2 1 .8-3.7 1.6-7.3 2.4-10.8.6-2.6 1.1-5.1 1.7-7.7.1-.5.5-1.2.9-1.4 3.2-1.1 6.5-2 10.1-3.1-.5 2.3-.9 4.4-1.4 6.4-1.8 7.9-3.6 15.8-5.3 23.8-.2 1.1-.2 2.3.1 3.4.9 3.4 2 6.7 3 10.2-3.2 1-6.4 2-9.8 3-1-3.4-2-6.8-3.1-10.1-.3-1-.9-2-1.7-2.7-7.1-6.9-14.3-13.7-21.4-20.5-.2-.4-.4-.7-.9-1.2zM95 369.2c-2.7 1.6-5.2 3.1-7.9 4.7-6.2-10.4-12.3-20.7-18.5-31.1 2.7-1.6 5.2-3.1 7.9-4.7 2.2 3.7 4.4 7.3 6.6 11.1 9.1-5.4 18.1-10.7 27.3-16.1 1.8 3 3.5 5.8 5.2 8.8-9.1 5.4-18.1 10.7-27.2 16.2 2.2 3.6 4.3 7.3 6.6 11.1zm340-202.1c-2.7 1.6-5.2 3.1-7.9 4.7-2.2-3.7-4.3-7.3-6.6-11.1-9.1 5.4-18.1 10.7-27.3 16.1-1.7-2.9-3.4-5.8-5.2-8.8 9.1-5.4 18.1-10.7 27.3-16.1-2.2-3.7-4.3-7.4-6.6-11.2 2.7-1.6 5.2-3.1 7.9-4.7 6.1 10.3 12.2 20.6 18.4 31.1zm-87.7 218c6 8.8 11.9 17.4 17.9 26.1 3.6-2.5 7.1-4.8 10.7-7.3 1.7 2.5 3.4 4.9 5.2 7.6-10 6.8-19.8 13.6-29.9 20.4-1.7-2.5-3.4-4.9-5.2-7.6 3.5-2.4 7-4.8 10.7-7.3-5.9-8.7-11.8-17.4-17.9-26.2 2.8-1.9 5.6-3.8 8.5-5.7zM147 92.8c6 8.8 11.9 17.4 17.9 26.1-2.8 1.9-5.5 3.8-8.4 5.8-5.9-8.7-11.9-17.3-17.9-26.1-3.6 2.4-7.1 4.8-10.7 7.3-1.7-2.5-3.4-5-5.2-7.5 10-6.8 19.9-13.6 29.9-20.4 1.8 2.6 3.4 5 5.2 7.6-3.7 2.3-7.2 4.7-10.8 7.2zm261.2 290.5c-2.3 2.7-4.4 5.1-6.7 7.7-10.3-8.9-20.5-17.7-30.9-26.7 2.2-2.6 4.4-5.1 6.7-7.8 10.3 8.9 20.5 17.8 30.9 26.8zM133.1 145.5c-1.7 1.9-3.2 3.7-4.7 5.4-.6.7-1.3 1.5-2 2.3-10.3-8.9-20.5-17.7-30.9-26.7 2.2-2.6 4.4-5.1 6.7-7.8 10.3 9 20.6 17.8 30.9 26.8zM263.2 444c0 5.9-4.7 10.6-10.6 10.6-5.8 0-10.6-4.8-10.6-10.7 0-5.9 4.7-10.5 10.6-10.6 6 .1 10.6 4.7 10.6 10.7zm0-371.9c0 6-4.6 10.6-10.6 10.5-5.9 0-10.6-4.8-10.5-10.6.1-5.9 4.7-10.5 10.7-10.5 5.8 0 10.4 4.7 10.4 10.6z"/></svg>