<?xml version="1.0" encoding="utf-8"?>
<!-- Generator: Adobe Illustrator 21.1.0, SVG Export Plug-In . SVG Version: 6.00 Build 0)  -->
<!DOCTYPE svg PUBLIC "-//W3C//DTD SVG 1.1//EN" "http://www.w3.org/Graphics/SVG/1.1/DTD/svg11.dtd">
<svg version="1.1" id="Layer_1" xmlns="http://www.w3.org/2000/svg" xmlns:xlink="http://www.w3.org/1999/xlink" x="0px" y="0px"
	 viewBox="0 0 238 75" style="enable-background:new 0 0 238 75;" xml:space="preserve">
<style type="text/css">
	.st0{fill:#231F20;}
	.st1{fill:#231F20;stroke:#231F20;stroke-width:3.1395;stroke-miterlimit:10;}
</style>
<path class="st0" d="M98.4,44.9h3v1.9h-5.2V35.8h2.1V44.9z"/>
<path class="st0" d="M119.4,41.3c0-3.1,2.2-5.7,5.4-5.7c3.2,0,5.4,2.7,5.4,5.7c0,3.1-2.2,5.8-5.4,5.8
	C121.6,47,119.4,44.4,119.4,41.3z M121.6,41.2c0,1.7,1.4,3.8,3.2,3.8c1.8,0,3.2-2.1,3.2-3.8c0-1.8-1.3-3.6-3.2-3.6
	C122.9,37.6,121.6,39.4,121.6,41.2z"/>
<path class="st0" d="M146.1,35.5h1.5l5.8,7.6h0v-7.4h2.1V47H154l-5.8-7.6h0v7.4h-2.1V35.5z"/>
<path class="st0" d="M172.6,35.8h3c3.2,0,5.3,2.4,5.3,5.5c0,3.1-2.2,5.5-5.3,5.5h-3V35.8z M174.8,44.9h0.3c2.6,0,3.6-1.5,3.6-3.6
	c0-2.4-1.2-3.6-3.6-3.6h-0.3V44.9z"/>
<path class="st0" d="M197.4,41.3c0-3.1,2.2-5.7,5.4-5.7c3.2,0,5.4,2.7,5.4,5.7c0,3.1-2.2,5.8-5.4,5.8
	C199.6,47,197.4,44.4,197.4,41.3z M199.6,41.2c0,1.7,1.4,3.8,3.2,3.8c1.8,0,3.2-2.1,3.2-3.8c0-1.8-1.3-3.6-3.2-3.6
	C200.9,37.6,199.6,39.4,199.6,41.2z"/>
<path class="st0" d="M224,35.5h1.5l5.8,7.6h0v-7.4h2.1V47H232l-5.8-7.6h0v7.4H224V35.5z"/>
<g>
	<path class="st1" d="M27.6,32.5c0-3.7-1.4-7.3-4.3-9.7c-3-2.5-6.5-2.8-10.2-2.8H4.7v47.3h3V44.9h5.3c3.7,0,7.7-0.5,10.5-3
		C26.3,39.7,27.6,35.9,27.6,32.5z M13.2,42.1H7.7V22.8h5c2.9,0,5.9,0.1,8.3,1.9c2.4,1.8,3.6,4.7,3.6,7.7c0,2.8-1,5.2-3.1,7.1
		C19,41.7,16.3,42.1,13.2,42.1z"/>
	<path class="st1" d="M26.4,47.3c-5.9,0-10.9,5-10.9,10.8c0,5.9,5,10.8,10.9,10.8c5.9,0,10.9-5,10.9-10.8
		C37.3,52.3,32.3,47.3,26.4,47.3z M26.4,66.3c-4.4,0-8.1-3.7-8.1-8.1s3.7-8.1,8.1-8.1c4.4,0,8.1,3.7,8.1,8.1S30.8,66.3,26.4,66.3z"
		/>
	<path class="st1" d="M68.2,7.5c0.5-0.5,0.9-0.9,1.1-1.1c0.2-0.3,0.3-0.6,0.3-1.1c0-0.5-0.2-0.8-0.6-1.1c-0.4-0.3-0.9-0.4-1.4-0.4
		c-0.8,0-1.4,0.2-1.8,0.7C65.5,4.9,65,5.7,64.4,7l-3,5.6h1.5L68.2,7.5z"/>
	<path class="st1" d="M65.5,20h-3l-14,40.4h-0.1L34.3,20h-3l17,48.9l6-17.1h20.8l6.3,15.6h3.1L65.5,20z M58.4,49h-2.9h-0.1L64,24.3
		L74,49H58.4z"/>
</g>
</svg>
