<svg width="158" height="33" viewBox="0 0 158 33" xmlns="http://www.w3.org/2000/svg"><title>Page 1 Copy 4</title><g fill="#3D3D3D" fill-rule="evenodd"><path d="M0 8.216v24.772h6.215v-18.58h7.769l-6.215 6.194 6.215 6.193v6.193h6.215v-8.825l-3.574-3.561 3.574-3.56V8.216zm28.83 0v6.193h13.984v12.386h-7.77v-3.096h4.662v-6.193H28.83v15.482h20.2V8.216zM57.66 0v32.988h20.198V7.858H66.982v6.194h4.661v12.743h-7.769V0zm28.83 0v32.988h20.198V8.215H95.812v6.193h4.661v12.387h-7.77V0zm28.829 32.988h6.215V8.216h-6.215zm21.834-24.772v24.772h20.199v-6.193h-13.984V14.409h7.77v3.097h-4.662v6.193h10.876V8.216z"/><path d="M120.757 26.797v6.193h4.661l3.456-.002v-6.191z"/></g></svg>