<?xml version="1.0" encoding="UTF-8"?>
<svg width="158px" height="33px" viewBox="0 0 158 33" version="1.1" xmlns="http://www.w3.org/2000/svg" xmlns:xlink="http://www.w3.org/1999/xlink">
    <!-- Generator: Sketch 46.2 (44496) - http://www.bohemiancoding.com/sketch -->
    <title>Page 1 Copy 4</title>
    <desc>Created with Sketch.</desc>
    <defs></defs>
    <g id="Web-Designs" stroke="none" stroke-width="1" fill="none" fill-rule="evenodd">
        <g id="Desktop-HD-Copy" transform="translate(-179.000000, -1084.000000)" fill="#3D3D3D">
            <g id="Group-4" transform="translate(179.000000, 1043.000000)">
                <g id="Page-1-Copy-4" transform="translate(0.000000, 41.000000)">
                    <polygon id="Fill-1" points="0 8.21555625 0 32.9875562 6.21512664 32.9875562 6.21512664 14.4085562 13.9840349 14.4085562 7.7689083 20.6015562 13.9840349 26.7945562 13.9840349 32.9875562 20.1991616 32.9875562 20.1991616 24.1628062 16.6251878 20.6015562 20.1991616 17.0416812 20.1991616 8.21555625"></polygon>
                    <polygon id="Fill-2" points="28.8299633 8.21555625 28.8299633 14.4085562 42.8139983 14.4085562 42.8139983 26.7945562 35.0444 26.7945562 35.0444 23.6987437 39.7064349 23.6987437 39.7064349 17.5057437 28.8299633 17.5057437 28.8299633 32.9875562 49.0291249 32.9875562 49.0291249 8.21555625"></polygon>
                    <polygon id="Fill-3" points="57.6593057 -0.00020625 57.6593057 32.9881062 77.8584672 32.9881062 77.8584672 7.85860625 66.9819956 7.85860625 66.9819956 14.0516062 71.6433406 14.0516062 71.6433406 26.7951062 63.8744323 26.7951062 63.8744323 -0.00020625"></polygon>
                    <polygon id="Fill-4" points="86.489269 -0.00020625 86.489269 32.9881062 106.688431 32.9881062 106.688431 8.21541875 95.811959 8.21541875 95.811959 14.4084187 100.473304 14.4084187 100.473304 26.7951062 92.7037057 26.7951062 92.7037057 -0.00020625"></polygon>
                    <polygon id="Fill-5" points="115.318611 32.987625 121.533738 32.987625 121.533738 8.215625 115.318611 8.215625"></polygon>
                    <polygon id="Fill-6" points="137.152831 8.21555625 137.152831 32.9875562 157.351993 32.9875562 157.351993 26.7945562 143.367958 26.7945562 143.367958 14.4085562 151.137556 14.4085562 151.137556 17.5057437 146.476211 17.5057437 146.476211 23.6987437 157.351993 23.6987437 157.351993 8.21555625"></polygon>
                    <polygon id="Fill-7" points="120.756985 26.7966187 120.756985 32.9896187 125.41833 32.9896187 128.873631 32.9875562 128.873631 26.7966187"></polygon>
                </g>
            </g>
        </g>
    </g>
</svg>