<?xml version="1.0" encoding="utf-8"?>
<!-- Generator: Adobe Illustrator 21.1.0, SVG Export Plug-In . SVG Version: 6.00 Build 0)  -->
<!DOCTYPE svg PUBLIC "-//W3C//DTD SVG 1.1//EN" "http://www.w3.org/Graphics/SVG/1.1/DTD/svg11.dtd">
<svg version="1.1" id="Layer_1" xmlns="http://www.w3.org/2000/svg" xmlns:xlink="http://www.w3.org/1999/xlink" x="0px" y="0px"
	 viewBox="0 0 337 117" style="enable-background:new 0 0 337 117;" xml:space="preserve">
<style type="text/css">
	.st0{fill:none;stroke:#1D1D1B;stroke-width:0.7379;stroke-miterlimit:10;}
	.st1{fill:#1D1D1B;}
	.st2{fill:none;stroke:#1D1D1B;stroke-width:0.5681;stroke-miterlimit:10;}
	.st3{fill:#FFFFFF;stroke:#1D1D1B;stroke-width:0.5681;stroke-miterlimit:10;}
	.st4{fill:#FFFFFF;stroke:#1D1D1B;stroke-width:0.9468;stroke-miterlimit:10;}
	.st5{fill:none;stroke:#1D1D1B;stroke-width:0.3787;stroke-miterlimit:10;}
	.st6{fill:#FFFFFF;}
</style>
<rect x="120.5" y="71.4" class="st0" width="95.9" height="16.6"/>
<path class="st0" d="M140.2,59.1c0,2.7-0.7,5-2.1,7c-1,1.3-2.3,2.2-4,2.8c-0.9,0.3-2,0.4-3.3,0.4c-2.3,0-4.2-0.6-5.7-1.7
	c-1.3-0.9-2.3-2.2-3-3.8c-0.7-1.6-1.2-3.4-1.3-5.5l5.6-0.4c0.2,2.3,0.8,3.9,1.8,4.9c0.7,0.8,1.5,1.1,2.4,1.1c1.3,0,2.3-0.7,3.1-1.9
	c0.4-0.6,0.6-1.5,0.6-2.6c0-1.6-0.7-3.2-2.2-4.8c-1.2-1.1-2.9-2.7-5.2-4.9c-1.9-1.9-3.3-3.6-4.1-5.1c-0.9-1.7-1.3-3.5-1.3-5.5
	c0-3.5,1.2-6.2,3.6-8.1c1.5-1.1,3.3-1.6,5.5-1.6c2.1,0,3.9,0.5,5.4,1.4c1.2,0.7,2.1,1.7,2.8,3c0.7,1.3,1.1,2.8,1.3,4.5l-5.6,1
	c-0.2-1.6-0.6-2.8-1.4-3.7c-0.5-0.6-1.3-1-2.3-1c-1.1,0-1.9,0.5-2.5,1.4c-0.5,0.8-0.7,1.7-0.7,2.9c0,1.8,0.8,3.6,2.3,5.4
	c0.6,0.7,1.5,1.5,2.6,2.5c1.4,1.1,2.3,1.9,2.7,2.4c1.5,1.5,2.6,2.9,3.4,4.3c0.4,0.7,0.7,1.3,0.9,1.8C139.8,56.8,140.1,58,140.2,59.1
	z"/>
<path class="st0" d="M147.4,56.4v12.4h-5.9v-39h5.9v13.9l7.2-13.9h6.3l-8,15.9l9.4,23.1h-6.9L149.2,53L147.4,56.4z"/>
<path class="st0" d="M170.3,59.8l-1.4,9h-6.1l6.6-39h8.1l6.5,39h-6.2l-1.4-9H170.3z M173.4,38.8l-2.2,15.4h4.4L173.4,38.8z"/>
<path class="st0" d="M186.2,35.8H180v-5.9h18.3v5.9h-6.2v33h-5.9V35.8z"/>
<path class="st0" d="M199.5,68.8v-39h16.7v5.9h-10.9v10.6h7.9v5.9h-7.9v10.6h10.9v5.9H199.5z"/>
<path class="st1" d="M131.5,78.9V74h1.3v11.8h-1.3v-5.8h-6v5.8h-1.3V74h1.3v4.8H131.5z"/>
<path class="st1" d="M153.6,82.5l-1.4,3.3h-1.4l5.4-12.4l5.3,12.4H160l-1.4-3.3H153.6z M156.1,76.5l-2,4.7h4L156.1,76.5z"/>
<path class="st1" d="M186.2,85.9h-1.6l-3.6-5.2h-0.3v5.2h-1.3V74h1.9c1.4,0,2.1,0.2,2.8,0.6c0.8,0.6,1.3,1.6,1.3,2.7
	c0,1.8-1.2,3.1-3,3.2L186.2,85.9z M181.5,79.5c1.7,0,2.6-0.8,2.6-2.2c0-0.7-0.3-1.4-0.9-1.7c-0.4-0.3-1-0.4-1.8-0.4h-0.8v4.2H181.5z
	"/>
<path class="st1" d="M204.1,74h2.4c1.9,0,3.2,0.4,4.3,1.4c1.3,1.1,2,2.7,2,4.5c0,1.8-0.7,3.4-2.1,4.5c-1.2,1-2.4,1.4-4.3,1.4h-2.4
	V74z M206.5,84.6c3,0,5-1.9,5-4.7c0-2.8-2-4.7-5-4.7h-1.2v9.4H206.5z"/>
<g>
	<path class="st1" d="M205.6,14.2c0,0,77.4-0.3,83.8,1.3c6.4,1.5,44.7,9.1,44.7,45.1h-1c0,0,1.1-35.7-43.9-43.2
		c-10.8-2.6-65-1.9-83.6-1.9"/>
	<path class="st1" d="M335.9,59.5c0,0,1.3-41.5-50.2-46.2c-5.5-0.6-80.1,0-80.1,0v-0.9c0,0,75.2,0,79.8,0c4.5,0,51.4,4.1,51.4,47.1"
		/>
	<path class="st1" d="M205.6,104.6c0,0,77.4,0.3,83.8-1.3c6.4-1.5,44.7-9.1,44.7-45.1h-1c0,0,1.1,35.7-43.9,43.2
		c-10.8,2.6-65,1.9-83.6,1.9"/>
	<path class="st1" d="M335.9,59.3c0,0,1.3,41.5-50.2,46.2c-5.5,0.6-80.1,0-80.1,0v0.9c0,0,75.2,0,79.8,0c4.5,0,51.4-4.1,51.4-47.1"
		/>
	<path class="st2" d="M232,71.2c-1,0-1.9-0.9-1.9-2V48.7c0-1.1,0.8-2,1.9-2h31.5c1,0,1.9,0.9,1.9,2v20.5c0,1.1-0.8,2-1.9,2H232z"/>
	<path class="st2" d="M232.8,70.2c-1,0-1.8-0.8-1.8-1.9V49.5c0-1,0.8-1.9,1.8-1.9h29.9c1,0,1.8,0.8,1.8,1.9v18.8
		c0,1-0.8,1.9-1.8,1.9H232.8z"/>
	<line class="st2" x1="264.5" y1="66" x2="260" y2="63.1"/>
	<line class="st2" x1="264.5" y1="53.2" x2="260" y2="55.4"/>
	<path class="st1" d="M258.4,58.9c0,0,0.1,2-1.7,3.4c-1.8,1.5-2.3,25.1-2.3,25.5h-0.6c0,0,0.6-24.3,2.7-25.8
		c1.3-0.9,1.5-2.6,1.5-3.1"/>
	<path class="st1" d="M258.4,58.9c0,0,0.1,2-1.7,3.4c-1.8,1.5-2.3,25.1-2.3,25.5h-0.6c0,0,0.6-24.3,2.7-25.8
		c1.3-0.9,1.5-2.6,1.5-3.1"/>
	<path class="st1" d="M258.4,58.9c0,0,0.1,2-1.7,3.4c-1.8,1.5-2.4,27.6-2.4,28h-0.7c0,0,0.7-26.7,2.9-28.3c1.3-0.9,1.5-2.6,1.5-3.1"
		/>
	<path class="st1" d="M258.4,59.2c0,0,0.1-2-1.7-3.4c-1.8-1.5-2.3-26.5-2.3-26.9h-0.7c0,0,0.7,25.6,2.9,27.2
		c1.3,0.9,1.5,2.6,1.5,3.1"/>
	<path class="st1" d="M256.1,54.5c0,0,4.4-0.3,4.4,1.1c0,1.5,0,3.9,0,3.9h-0.3c0,0,0-3.4,0-3.6c0-0.3-0.1-1.5-4-1.2"/>
	<path class="st1" d="M256.1,64c0,0,4.4,0.3,4.4-1.1c0-1.5,0-3.9,0-3.9h-0.3c0,0,0,3.4,0,3.6c0,0.3-0.1,1.5-4,1.2"/>
	<path class="st1" d="M243.1,51c0,0,6.4,0.9,6.4,8.8h-0.9C248.6,59.8,249.2,53.7,243.1,51z"/>
	<path class="st1" d="M243.1,67.6c0,0,6.4-0.9,6.4-8.8h-0.9C248.6,58.7,249.2,64.8,243.1,67.6z"/>
	<path class="st1" d="M239.8,50.2c0,0-6.3,1.9-6.3,9.2h0.5C233.9,59.5,234.6,52.7,239.8,50.2z"/>
	<path class="st1" d="M239.8,68.6c0,0-6.3-1.9-6.3-9.2h0.5C233.9,59.3,234.6,66.1,239.8,68.6z"/>
	<path class="st1" d="M247.2,89.9c0,0-3.3-14.5-6.2-17.8c-2.9-3.3-8.7-6.5-8.7-13.2h-0.3c0,0-1.5,5.6,8.6,13.4
		c1.2,0.9,5.1,11.7,5.7,18"/>
	<polyline class="st3" points="253.2,11.2 252.5,10 249.1,10 	"/>
	<polyline class="st3" points="245.3,11.2 246,10 249.5,10 	"/>
	<path class="st4" d="M237.8,28.6c-1.5,0-2.8-1.8-2.8-4.1v-9.1c0-2.2,1.2-4.1,2.8-4.1h24.3c1.5,0,2.8,1.8,2.8,4.1v9.1
		c0,2.2-1.2,4.1-2.8,4.1H237.8z"/>
	<polyline class="st3" points="253.2,107.8 252.5,109 249.1,109 	"/>
	<polyline class="st3" points="245.3,107.8 246,109 249.5,109 	"/>
	<path class="st4" d="M237.8,90.4c-1.5,0-2.8,1.8-2.8,4.1v9.1c0,2.2,1.2,4.1,2.8,4.1h24.3c1.5,0,2.8-1.8,2.8-4.1v-9.1
		c0-2.2-1.2-4.1-2.8-4.1H237.8z"/>
	<ellipse class="st3" cx="240.9" cy="59.4" rx="5.5" ry="6.8"/>
	<ellipse class="st3" cx="242.1" cy="59.4" rx="4.7" ry="5.9"/>
	<ellipse class="st5" cx="244.9" cy="59.3" rx="1.6" ry="2"/>
	<path class="st5" d="M243.9,57.4"/>
	<path class="st5" d="M243.9,61.1"/>
	<path class="st5" d="M246.5,57.4c-0.1-0.1-0.7-0.6-0.7-0.6l-1.6-0.5l-1.6,1.7v1.2"/>
	<path class="st5" d="M246.5,61.1c-0.1,0.1-0.7,0.6-0.7,0.6l-1.6,0.5l-1.6-1.7v-1.2"/>
	<polyline class="st5" points="244.1,62.2 242.1,62.6 241.6,62.2 240,60.5 240,59.3 	"/>
	<polyline class="st5" points="244.1,56.4 242.1,55.9 241.6,56.4 240,58 240,59.3 	"/>
	<line class="st5" x1="242.6" y1="58.1" x2="240.1" y2="57.9"/>
	<line class="st5" x1="242.6" y1="60.4" x2="240.1" y2="60.5"/>
	<polygon class="st5" points="231.2,48.9 233.1,47.9 234.9,48.9 234.9,51.1 233.1,52.2 231.2,51.1 	"/>
	<polygon class="st5" points="231.2,67 233.1,66 234.9,67 234.9,69.2 233.1,70.2 231.2,69.2 	"/>
	<circle class="st5" cx="232.9" cy="50" r="1"/>
	<circle class="st5" cx="232.9" cy="68.1" r="1"/>
	<polygon class="st5" points="255.5,48.9 257.3,47.9 259.2,48.9 259.2,51.1 257.3,52.2 255.5,51.1 	"/>
	<polygon class="st5" points="255.5,67 257.3,66 259.2,67 259.2,69.2 257.3,70.2 255.5,69.2 	"/>
	<circle class="st5" cx="257.2" cy="50" r="1"/>
	<circle class="st5" cx="257.2" cy="68.1" r="1"/>
	<path class="st1" d="M247.1,29c0,0-3.1,14.2-6,17.5c-2.9,3.3-8.7,6.5-8.7,13.2h-0.3c0,0-1.5-5.6,8.6-13.4c1.2-0.9,5-11,5.7-17.3"/>
</g>
<polyline class="st6" points="253.4,45.7 254.7,45.9 254.9,48.5 252.2,48.9 243.9,49.1 239.4,48.1 241.2,46.4 "/>
<polyline class="st6" points="253.4,72.4 254.7,72.2 254.9,69.5 252.2,69.2 243.9,69 239.4,69.9 241.2,71.7 "/>
<path class="st6" d="M240,69.6l1.7,2.2l-1.1-0.3c0,0-1.5-1.5-1.9-1.8c-0.3-0.3,5,0.1,5,0.1"/>
<g>
	<path class="st1" d="M131.2,104.8c0,0-77.4,0.3-83.8-1.3C40.9,102,2.7,94.4,2.7,58.4h1c0,0-1.1,35.7,43.9,43.2
		c10.8,2.6,65,1.9,83.6,1.9"/>
	<path class="st1" d="M0.9,59.5c0,0-1.3,41.5,50.2,46.2c5.5,0.6,80.1,0,80.1,0v0.9c0,0-75.2,0-79.8,0c-4.5,0-51.4-4.1-51.4-47.1"/>
	<path class="st1" d="M131.2,14.4c0,0-77.4-0.3-83.8,1.3S2.7,24.7,2.7,60.7h1c0,0-1.1-35.7,43.9-43.2c10.8-2.6,65-1.9,83.6-1.9"/>
	<path class="st1" d="M0.9,59.7c0,0-1.3-41.5,50.2-46.2c5.5-0.6,80.1,0,80.1,0v-0.9c0,0-75.2,0-79.8,0C46.9,12.6,0,16.7,0,59.7"/>
	<path class="st2" d="M104.9,47.8c1,0,1.9,0.9,1.9,2v20.5c0,1.1-0.8,2-1.9,2H73.3c-1,0-1.9-0.9-1.9-2V49.8c0-1.1,0.8-2,1.9-2H104.9z
		"/>
	<path class="st2" d="M104,48.8c1,0,1.8,0.8,1.8,1.9v18.8c0,1-0.8,1.9-1.8,1.9H74.1c-1,0-1.8-0.8-1.8-1.9V50.6c0-1,0.8-1.9,1.8-1.9
		H104z"/>
	<line class="st2" x1="72.4" y1="53" x2="76.9" y2="55.9"/>
	<line class="st2" x1="72.4" y1="65.8" x2="76.9" y2="63.6"/>
	<path class="st1" d="M78.4,60.1c0,0-0.1-2,1.7-3.4c1.8-1.5,2.3-25.1,2.3-25.5H83c0,0-0.6,24.3-2.7,25.8c-1.3,0.9-1.5,2.6-1.5,3.1"
		/>
	<path class="st1" d="M78.4,60.1c0,0-0.1-2,1.7-3.4c1.8-1.5,2.3-25.1,2.3-25.5H83c0,0-0.6,24.3-2.7,25.8c-1.3,0.9-1.5,2.6-1.5,3.1"
		/>
	<path class="st1" d="M78.4,60.1c0,0-0.1-2,1.7-3.4c1.8-1.5,2.4-27.6,2.4-28h0.7c0,0-0.7,26.7-2.9,28.3c-1.3,0.9-1.5,2.6-1.5,3.1"/>
	<path class="st1" d="M78.4,59.8c0,0-0.1,2,1.7,3.4c1.8,1.5,2.3,26.5,2.3,26.9h0.7c0,0-0.7-25.6-2.9-27.2c-1.3-0.9-1.5-2.6-1.5-3.1"
		/>
	<path class="st1" d="M80.8,64.5c0,0-4.4,0.3-4.4-1.1s0-3.9,0-3.9h0.3c0,0,0,3.4,0,3.6c0,0.3,0.1,1.5,4,1.2"/>
	<path class="st1" d="M80.8,55c0,0-4.4-0.3-4.4,1.1c0,1.5,0,3.9,0,3.9h0.3c0,0,0-3.4,0-3.6c0-0.3,0.1-1.5,4-1.2"/>
	<path class="st1" d="M93.7,68c0,0-6.4-0.9-6.4-8.8h0.9C88.2,59.2,87.7,65.3,93.7,68z"/>
	<path class="st1" d="M93.7,51.4c0,0-6.4,0.9-6.4,8.8h0.9C88.2,60.3,87.7,54.2,93.7,51.4z"/>
	<path class="st1" d="M97.1,68.8c0,0,6.3-1.9,6.3-9.2h-0.5C102.9,59.5,102.3,66.3,97.1,68.8z"/>
	<path class="st1" d="M97.1,50.4c0,0,6.3,1.9,6.3,9.2h-0.5C102.9,59.7,102.3,52.9,97.1,50.4z"/>
	<path class="st1" d="M89.6,29.1c0,0,3.3,14.5,6.2,17.8c2.9,3.3,8.7,6.5,8.7,13.2h0.3c0,0,1.5-5.6-8.6-13.4
		c-1.2-0.9-5.1-11.7-5.7-18"/>
	<polyline class="st3" points="83.6,107.8 84.3,109 87.8,109 	"/>
	<polyline class="st3" points="91.6,107.8 90.9,109 87.4,109 	"/>
	<path class="st4" d="M99,90.4c1.5,0,2.8,1.8,2.8,4.1v9.1c0,2.2-1.2,4.1-2.8,4.1H74.7c-1.5,0-2.8-1.8-2.8-4.1v-9.1
		c0-2.2,1.2-4.1,2.8-4.1H99z"/>
	<polyline class="st3" points="83.6,11.2 84.3,10 87.8,10 	"/>
	<polyline class="st3" points="91.6,11.2 90.9,10 87.4,10 	"/>
	<path class="st4" d="M99,28.6c1.5,0,2.8-1.8,2.8-4.1v-9.1c0-2.2-1.2-4.1-2.8-4.1H74.7c-1.5,0-2.8,1.8-2.8,4.1v9.1
		c0,2.2,1.2,4.1,2.8,4.1H99z"/>
	<ellipse class="st3" cx="95.9" cy="59.6" rx="5.5" ry="6.8"/>
	<ellipse class="st3" cx="94.8" cy="59.6" rx="4.7" ry="5.9"/>
	<ellipse class="st5" cx="92" cy="59.7" rx="1.6" ry="2"/>
	<path class="st5" d="M93,61.6"/>
	<path class="st5" d="M93,57.9"/>
	<path class="st5" d="M90.3,61.6c0.1,0.1,0.7,0.6,0.7,0.6l1.6,0.5l1.6-1.7v-1.2"/>
	<path class="st5" d="M90.3,57.9c0.1-0.1,0.7-0.6,0.7-0.6l1.6-0.5l1.6,1.7v1.2"/>
	<polyline class="st5" points="92.7,56.8 94.8,56.4 95.3,56.8 96.9,58.5 96.9,59.7 	"/>
	<polyline class="st5" points="92.7,62.6 94.8,63.1 95.3,62.6 96.9,61 96.9,59.7 	"/>
	<line class="st5" x1="94.2" y1="60.9" x2="96.8" y2="61.1"/>
	<line class="st5" x1="94.2" y1="58.6" x2="96.8" y2="58.5"/>
	<polygon class="st5" points="105.6,70.1 103.8,71.1 101.9,70.1 101.9,67.9 103.8,66.8 105.6,67.9 	"/>
	<polygon class="st5" points="105.6,52 103.8,53 101.9,52 101.9,49.8 103.8,48.8 105.6,49.8 	"/>
	<circle class="st5" cx="103.9" cy="69" r="1"/>
	<circle class="st5" cx="103.9" cy="50.9" r="1"/>
	<polygon class="st5" points="81.4,70.1 79.5,71.1 77.7,70.1 77.7,67.9 79.5,66.8 81.4,67.9 	"/>
	<polygon class="st5" points="81.4,52 79.5,53 77.7,52 77.7,49.8 79.5,48.8 81.4,49.8 	"/>
	<circle class="st5" cx="79.7" cy="69" r="1"/>
	<circle class="st5" cx="79.7" cy="50.9" r="1"/>
	<path class="st1" d="M89.7,90c0,0,3.1-14.2,6-17.5c2.9-3.3,8.7-6.5,8.7-13.2h0.3c0,0,1.5,5.6-8.6,13.4c-1.2,0.9-5,11-5.7,17.3"/>
</g>
<polyline class="st6" points="83.4,73.3 82.2,73.1 81.9,70.5 84.7,70.1 93,69.9 97.4,70.9 95.7,72.6 "/>
<polyline class="st6" points="83.4,46.6 82.2,46.8 81.9,49.5 84.7,49.8 93,50 97.4,49.1 95.7,47.3 "/>
<path class="st6" d="M96.9,49.4l-1.7-2.2l1.1,0.3c0,0,1.5,1.5,1.9,1.8c0.3,0.3-5-0.1-5-0.1"/>
</svg>
