<svg id="Layer_1" xmlns="http://www.w3.org/2000/svg" viewBox="0 0 315 140"><style>.st0{fill:#eb008b}.st1{fill:#231f20}</style><path class="st0" d="M46.8 56.3h.6l1.2 1.3h.2c0-.6.2-.8.5-.8l.6.2c-.2 1.4-.3 2.5-.3 3.3v.3l.6-.1v-.1c0-.4.2-.8.7-1.3.3 0 .9.7 1.8 2.1l-1 1.2c0-.1-.1-.2-.2-.2h-.1v.3c.2.3.3.7.3 1.1-.3.2-.6.3-.8.3v.5l1.1.2v.3l-.2.6-.6-.2h-.6v.2c0 .5-.1 1.1-.4 1.8l1.1-.1.1.6c0 .2-.1.3-.3.3l.3.5c-.2 2.3-.9 5.2-2.2 8.7v.1c0 .9-.7 3.8-2.1 8.9l.6-.1v-.1c0-.3.2-.4.5-.5v-.3l-.3-.6.6-.3.6.8c-.1 1.8-.4 2.8-.9 2.8l-.3-.5-.5.3h-.3l.2-.6-.3-.9h-.3v.1c0 .6-.7 3-2.3 7.2l.6-.1.5-.3.1.6.5-.3h.3l.1.6-.3.6-.6-.2-.5.3c-.4-.1-.7-.2-.8-.2l-.2.4v.6l.6-.3c.3.1.5.2.7.2h.1c0-.3.2-.5.5-.6v.6l2-.1 1.3-.4v.6l1.7-.1c.6-.5 1.4-.8 2.4-1l.1.6c-1 .2-1.5.4-1.6.4l.3.5-.2.6h.3l.8-.6h.5l.1.8c-.6 0-.9.5-.9 1.5v.3c.1 0 .2.1.3.2-1.1 1.5-2.3 2.4-3.4 2.7l.1.8c-.3 0-1 .6-2.1 1.8.4 0 .6.2.6.5v.3l-.8.1-.6-.3.1.6-.6-.2c0 .5-.6 1.3-1.8 2.3h-.4c-.3 0-.5-.2-.5-.5l-.5.3H43c-.8 0-1.3-.2-1.5-.7l-.6.3h-.3c-1.1-.6-2.3-1-3.6-1.1-.9-.6-1.4-1.1-1.5-1.3l-.5.3c-.7-.1-1.1-.5-1.2-1l.2-.6c0-.3-.4-.8-1.2-1.6.4-.5 1.1-1.7 1.9-3.7l-.4-.8-.1-.6c1.4-3.3 2-5.6 2-6.8v-.2h-.1c-.1 0-.2-.1-.2-.2l1.5-2.6c-.2-.3-.3-.6-.3-.8.2 0 .8-1 1.7-2.9l-.3-.5-.1-.6c.4 0 .6-.1.6-.3l-.3-.5c1-2.5 2.1-6.3 3.4-11.5h.2c.7-5.9 1.6-10 2.8-12.3l.3-.1c0 .2.1.3.3.3 0-.3.3-.7 1.1-1.1zm26.6 39.4l.3.3.4.1h.1c.1 0 .1 0 .2-.1l.4.3c.1 0 .3-.1.4-.1.1 0 .3 0 .4.1l.1.5c.1 0 .3-.1.6-.1.4 0 .9 0 1.5.1l.1.2.5-.1.8.2c.2.1.3.2.3.4v.1l-.2-.1-.3-.2c-.1.2-.2.3-.4.3h-.2l-2.2-.5-.1.2.7.2-.1.4-.2-.1c-.1 0-.2-.1-.2-.2v-.1h-1.1l-.7-.2.1-.4-.4-.1c-.1.4-.3.6-.5.6h-.1l-.2-.1-.3-.3c-.3.5-.8.7-1.4.7-.2 0-.4 0-.6-.1l-.1-.5.7.2v-.2c0-.2-.1-.3-.3-.4l-.9-.2-.2.7.7.2-.1.2-.7-.2c-.2-.2-.5-.4-.8-.4l-.1.4-1.1-.5.3.8.5-.1 1.5.4-.1.2c-.2.3-.3.5-.3.6l.2.1 1.4.1 1.5.4.1-.4c.3.2.5.4.5.6v.1c.1 0 .2-.1.4-.1.3 0 .7.1 1.2.2l-.1-.4c.1-.2.2-.3.4-.3h.1l2 .5c0 .1-.2.2-.4.2-.1 0-.3 0-.5-.1l.1.3h1.1l.7.2-.1.4-1.5-.4-.1.4-1.7-.4-.4-.3c0 .1-.2.2-.5.2s-.9-.1-1.6-.3l-.1.2 1.5.4-.1.2-2.5-.2-.4-.3-11.3-.9v-.1c0-.1-.1-.2-.2-.2l-.4.8.2.1.5-.1.8.4h.5c.6 0 1.6 0 3-.1v.1c0 .1.1.1.2.2l.3-.3.4.3.8-.2 1.2.5.7.2-.1.4.5-.1.6.2c0-.1.1-.2.2-.2h.1l.7.2.1-.4c.2.1.3.2.3.4v.2c0 .3-.4.4-1.2.4-.4 0-.8 0-1.4-.1 0 .1-.1.2-.2.2h-.1l-.7-.2c-.2-.1-.3-.2-.3-.4v-.2l.4.1.1-.3-.4-.1c-.1.5-.9.7-2.4.7h-1.5l-.1.2.1.4c-.2-.1-.4-.1-.7-.1-.2 0-.4 0-.5.1l-.4-.3-1.3-.1-.4-.1c0 .1-.1.4-.3.6.1 0 .2.1.2.2v.1l-1.3-.3.1-.2-.2-.1c0 .2-.6.5-1.8.7l-.7-.9c-.1.3-.2.4-.3.4H55l.1.5-.1.2h-.1c-.2 0-.5.1-.8.2v-.1c0-.2-.1-.3-.3-.4-.1.4-2.7.8-7.9 1.1 0 .1-.8.4-2.3.9l.1-.2c-.6 0-1 .2-1.1.7l-.1.2.2.1c.1-.3.4-.4.8-.5h.2l.1-.2.4.3.2.1c.3-.3.9-.5 1.9-.5.7 0 1.5.1 2.5.2l-.1-.5c.1-.3.7-.5 1.6-.5h.3c.3.2.5.4.6.4 0-.2.3-.4.8-.5l.2.1-.3.4.4.1.5-.1-.2.8-.3-.3-.2-.1c-.1.3-.3.5-.5.5h-.1c-.4-.2-.6-.4-.6-.5v-.1c-.9.1-1.7.4-2.5 1-.3-.2-.5-.3-.6-.3l.1.4-.5.1-.6-.2c-.1.1-1.3.5-3.7 1.2-.1.2-.2.3-.4.3h-.2l-.4-.1-.4-.3c-.1.5-.3.7-.6.7h-.2l-.4-.3c0 .2-.9.6-2.6 1.2-.1.2-.8.6-2.1 1.1-.2-.1-.7-1.2-1.3-3.3l.1-.2.3-.4c-.6-.1-.9-.6-1-1.4l.2-.7-.4-1.2c.2-.3.3-.5.3-.6-.1 0-.1-.1-.1-.2v-.1h.1c.3 0 .6-.4 1.1-1.1l.4.3.2.1.1-.7-.2-.1-.8.3.1-.2c.7-.6 1-.9 1.1-.9l-.1-.4c.1-.3.9-.7 2.6-1l.1-.2-.6-.1c.1-.6 2.7-1.2 7.6-1.8v.1c0 .1.1.2.2.2.4-.3 1.4-.5 3.1-.6v.1c0 .1.1.2.2.2.1-.4 2.6-.6 7.6-.7v.1c0 .1.1.2.2.2 0-.2 1.1-.3 3.2-.3h3.3l-.1.2c.3 0 .5-.1.8-.1.6 0 1.3.1 2.1.3l-.1.2h2v.1c0 .1.1.2.2.2.1-.2.4-.3 1-.3s1.4.1 2.5.3l-.1.2.5-.1c.1 0 .2.1.2.2v.1c.6-.1.9-.2 1-.3zm-37.8.4h.3l.2-1.1c-.3 0-.5.2-.5.7v.4zm.8-3.6l-.4 2v.3h.3v-.1c0-.4.1-1 .4-1.9v-.3h-.3zm2.7-9.3c-1.6 5.3-2.5 8.1-2.5 8.4l.1.3h.2c0-.4.2-.6.6-.6l-.1-.5v-.5c0-1 .2-1.6.7-1.7l.3-.1.9.5v-.2c0-.4.2-.7.5-.7l-.1-1.1c-.4 0-.7.4-.7 1.2h-.6v-.1c0-.7.4-2.2 1.1-4.3l1.4.2-.1-.3c0-.3-.2-.5-.5-.5h-1.2zm-1.8 9.2v.2c0 .4-.2.7-.5.7l.3.6c-.2.4-.3.7-.3.8.3 0 .7-.4 1.1-1.2-.2-.3-.3-.7-.3-1.1h-.3zm-.4 4.8l.4.1v.2l-.4-.1v-.2zm1.3-8.2v.3h.6V89h-.6zm0 .9l.1.8.3-.1-.1-.8-.3.1zm1.4-8.1v.6h.3v-.6h-.3zm.5 12.4l.3.5.1.3c-.5 0-.8.3-.8.8v.1c.2.3.3.6.3.8-.2 0-.3.1-.3.3h.6c.3-1.6.8-3.3 1.6-5.1l-.6.1c-.4-.1-.8.7-1.2 2.2zm-.3-9.9l.1.3.5-.1v-.3l-.6.1zm1.5 1.5l.3.5v.3l-.6-.2.1.3c.8.8 1.1 1.2 1.2 1.3-.6 0-.8.2-.8.6h-.2c0-.5-.2-.8-.6-.8 0 .7-.3 1.1-.8 1.2l.1.2.3 1.4.3-.1v-.1c0-.3.4-.9 1.2-1.9l.1.3v.1c0 .5-.2 1.2-.7 2.1h.2c.3 0 .6.1.9.2v-.1c0-.9.4-2.2 1.1-4.1l-.6.1.1.6h-.3c0-.5-.3-.8-.7-.8h-.1l.2-.6-.3-.5c.4 0 .6-.2.6-.6l-.3-.3-.7.9zm-1.2-4.6v.3l.6-.1v-.3l-.6.1zm.9-3.3c.3 0 .5-.2.5-.5v-.3c-.3.1-.5.2-.5.5v.3zm8-15.7c-1.1 1.5-1.7 2.6-1.7 3.5v.4l.3-.1v-.6h.5l.1.3-1 1.4v.3h.2c.4 0 .6.2.7.5v.3c-.3 0-.5.2-.5.3l-.6-.1-.3.1.1.8.3.6-.8.1v.3l.6.8c-.6 0-.8.2-.8.6l.1.3c.1.3.2.5.5.5h.1c-.2 1.3-.5 2-.9 2 0-.2-.2-.3-.3-.3v.1c0 .3-.2.5-.5.5l.3.5c0 .4-.2.6-.6.6 0-.3-.2-.5-.6-.5v.3l.9 1.1c-.3.2-.6.3-.8.3v.2l1.1.2v.4c0 .3-.2.4-.5.5l-.1-.5h-.2v.3c.2.3.3.6.3.8h-.1c-.1 0-.2-.1-.2-.2-.3.2-.7.3-1.1.3.1.3.3.5.6.5-.9 3.2-1.4 4.8-1.7 4.8v-.3l.2-1.3h-.5c0 .6-.2.8-.5.8l.3.6c-.1.4-.2.7-.2.8l.6-.1-.1-.6c.3 0 .6.3.9.8l.1.8-.6.1-.1-.6h-.2v.3c.2.3.3.7.3 1.3h.6c1.7-4.7 2.5-7.6 2.5-8.6v-.1h-.3l.2-.6.6.2h.3l-.1-.9c0-.9.3-1.8.9-2.8l-.3-.6c.1-.3.2-.5.2-.7v-.1c-.1-.4-.2-.6-.2-.8l.5-.3c0 .1.1.2.2.2h.1v-.3c0-1.2.4-2.3 1.2-3.3l-.7-.3c.3-.5.7-2.4 1-5.5l-.1-.3H49zm-7.2 42.9l-.1.2.4.1.1-.2-.4-.1zm-.1-30v.6l.3-.1v-.5h-.3zm.6 1.6v.1c0 .2-.1.4-.2.7l.1.3.2-.1c0-.2.1-.5.2-.8v-.3l-.3.1zm.1 18.4l.1.6.3-.1-.1-.5h-.3zm0-20.1c.1.3.3.5.6.5h.1L43 75h-.6zm.1 18.4h.3c.4 0 .7-.5.8-1.4-.3 0-.6.5-1.1 1.4zm.2-1.9l.1.2h.5v-.3l-.6.1zm.2-1.4l.1 1.1c.3 0 .5-.2.5-.5v-.1l-.1-.6-.5.1zm.6-7.7l.6-.1v.4c0 .3-.2.4-.5.5l-.1-.8zm.1 6.3v.6h.3v-.6h-.3zm4-10.7l-.2 1.6-.3.1-.6-.3c-.1 1.1-.4 1.7-1 1.7v.3h.2c.4 0 .7.2.7.5v.2l-.4-.2h-.3c-.6 2.1-.9 3.4-.9 3.9.2 0 .3.1.3.3-.5 0-.9.6-1.3 1.7h.1c.1 0 .2.1.2.2 1-.5 1.5-1.3 1.5-2.4v-.2l-.6.3v-.3c.1-1.1.3-1.7.7-1.7l.1.5-.2.8.1.2h.2l2.3-7v-.3l-.6.1zM45 58.7v.2h.6v-.3l-.6.1zm1.7 31.2l.8.5c-.2.7-.5 1.1-.7 1.1l-.6-.2c0 .2-.1.3-.3.3 0-.2-.1-.3-.3-.3.4-.9.8-1.3 1.1-1.4zm-.3 2.7h.3l.1.6h-.3l-.1-.6zm2.4-21.8l-.4 1.9c.2 1 .4 1.5.4 1.6l-.6.1-.1-.6-.3.1c-.1 1-.2 1.5-.2 1.6l.4 1.3-.6.3c0-.2-.1-.3-.3-.3l.1.6 1.1-.1 1.4-4.5c-.2-.3-.3-.6-.3-.8l-.3.1.1 1.1-.5.1-.1-.3.4-2v-.3l-.2.1zm-1.5 15.7l.1.6.8-.1c0-.3-.2-.5-.5-.5h-.4zm.4 1.9h.6v.1c0 .3-.2.4-.5.5l-.1-.6zm.4 13.2v.5c.3 0 .5-.2.5-.5v-.1l-.5.1zm.6-3v.3h.3c.9-.5 1.5-.7 1.9-.7l-.1-.6-2.1 1zm1.4-16.3c-.5 1.7-.9 2.5-1.2 2.5l-.1-.6.5-1.1-.1-.8h.9zm-.3-17.9l-.2 1.3c.3 0 .5-.2.5-.7v-.2l-.1-.5-.2.1zm-.2 6l.1.8c.3 0 .5-.2.5-.5v-.1l-.6-.2zm.2 10.7h.3v.6h-.3v-.6zm0-11.5l.1.6.3-.1-.1-.5h-.3zm.2 10.7h.3v.6H50v-.6zm.4-1.4h.3l.1.8-.6.3v-.3c.1-.3.2-.6.2-.8zm-.2-11.3l.1 1.1.3-.1v-.2c0-.3.1-.6.2-.9l-.6.1zm.5 28.6c.1.4.3.6.6.6v-.6h-.6zm1.2.8l.1.8.3-.1-.2-.7h-.2zm.4 3l-.1.4c.2 0 .4-.1.6-.1h.2l.1-.2-.8-.1zm-.1 2.1l-.1.4.2.1.1-.4-.2-.1zM53 98h.6v.3H53V98zm.4 6l.7.2-.1.2c-.1.2-.2.3-.4.3h-.2l-.1-.5.1-.2zm1.6-9.2c0 .3-.4.7-1.3 1.2l-.3-.5c.6-.4 1.2-.6 1.6-.7zm.8-1.4l.3.5-1.4.4v-.6l1.1-.3zM57 96l-.1.4.2.1.1-.4-.2-.1zm.6 3.9l-.1.2.4.1.1-.2-.4-.1zm.3-2.9l-.1.4.2.1.1-.4-.2-.1zm.9 3l-.1.2.4.1.1-.2-.4-.1zm.6-6l.3-.1v.6h-.3V94zm.4 1.6l.3-.1.1.6-.3.1-.1-.6zm.2 3.1l-.1.2.4.1.1-.2-.4-.1zm.6-2.5l-.1.2.6.2.1-.2-.6-.2zm.5-.3l-.1.2.4.1.1-.2-.4-.1zm1 1v.1c0 .2.1.4.3.4l.1-.4-.4-.1zm.7-.6l-.1.7c.1 0 .3.2.6.4l.4-.8-.9-.3zm.2 2.2l-.1.4.2.1.1-.4-.2-.1zm.8-1.5l-.1.2.4.1.1-.2-.4-.1zm.7-.9l.1.5c-.2 0-.4.1-.5.1h-.2l-.1.2.4.1c0-.1.1-.2.2-.2v.2c0 .1 0 .2.1.3l.5-.1c.3.2.5.4.6.4l.1-.4c-.3-.1-.4-.2-.4-.3v-.1l.2-.6-1-.1zm1.6.1l-.1.2c.4.1.7.3.7.6v.2l.4.1-.1-.5h.1c.1 0 .2-.1.2-.2-.1 0-.2-.1-.2-.2v-.1l-.5.1-.4-.3-.1.1zm1.4 1l-.1.4h.2c.2 0 .3-.1.4-.3l-.5-.1zm.3-1.1l-.3.9.2.1.2-.8-.1-.2zm.4.3l-.1.2.4.1.1-.2-.4-.1zm.7 2.5l-.1.4.2.1.1-.4-.2-.1zm1.7.7l-.1.2 1.7.4.1-.2c-.2-.1-.3-.1-.3-.2v-.1c-.1 0-.2.1-.3.1-.3 0-.7-.1-1.1-.2zm.3 1.5l.4.1-.1.2-.4-.1.1-.2zm1.2-4.1l-.1.2.4.1.1-.2-.4-.1zm.4 1.4l.4.1-.1.5-.4-.1.1-.5zm.7-1.9l-.1.2.9.3.1-.2-.9-.3zm.7 1.8l.7.2c.2.1.3.2.3.4v.2l-.1.2-.7-.2c-.2-.1-.3-.2-.3-.4v-.1l.1-.3zm.2-.8l.4.1-.1.2c-.1.2-.2.3-.4.3h-.2l.3-.6zm.9-.8l-.1.4.2.1.1-.4-.2-.1z"/><path class="st0" d="M72.2 71.1c.3.9.7 1.5 1.2 1.8 0-.6.2-1 .6-1h.2l-.4 1.1c.3 0 .4.2.5.7l.7-.5h.7v.2l-.7 1.1v.2h.4c0-.7.2-1.1.6-1.2h.2l.1.2-.2.4h.2c.3-.2.6-.2.9-.3 0 .2-.3 1.4-.9 3.4.3.7.5 1.3.5 2h-.2l.3.4-1.2 3.2.4.2v.3c0 .7-.2 1-.6 1.1l.2.4v.5c0 .1-.1.2-.2.2l.2.4v.2c0 .6-.2 1-.6 1l.2.4.1.4c0 .3-.1.4-.4.5 0-.1-.1-.2-.2-.2h-.1c0 .3-.1.6-.4 1.1h.2l.4-.3v.4c-.3 2.3-.5 3.4-.7 3.4l.2.4-.4.7h.4l-.2.4c0 .1.1.2.2.2-.2.5-.3 1-.3 1.4v.2h.2l.1.9.1 2.7h-.2c-.3 0-.5-.5-.5-1.5h-.2l.1 2.2.4-.2.2-.1v.2l.3 2.2-.5-.2.1.2c0 .3.5.8 1.4 1.5.3.7.5 1.3.5 1.6-.3 0-.4.1-.4.3v.1c-1.1 0-1.6-.1-1.6-.3l-.4.2c-1-.7-1.9-1-2.4-1h-.1c0 .3-.1.4-.4.5h-.2c-.6 0-.9-.1-.9-.4-.6.2-.9.3-.9.5-.2 0-.9-.6-2.1-1.7l-.4.2h-.2c0-.3-.5-1.2-1.5-2.6l.2-1.2h-.1c-.4 0-.7-.5-.7-1.5l-.1-.7.2-1.3-.2-.4.2-1.3-.1-1.1h.4v-.4H64l-.1-.7h.4v.4l.2-.1v-.9l-.4.1c.3-.4.5-1.9.9-4.5 2-10.6 3.8-15.9 5.7-16l.4.2 1.1-.9zm-7.4 30v.2h.4v-.2h-.4zm1.7 1.9v.4h.2v-.4h-.2zM71 88.2l.4-.1v-.4c-.2.1-.4.3-.4.5zm1.3-5l.1.4.2-.1-.1-.4-.2.1zm.3-.5h.2l.2-1.1c-.3 0-.4.2-.4.6v.5zm.3-1.8l.1.4h.2l-.1-.4h-.2zm.8-2.5v.1c0 .4-.2 1-.5 1.7v.2h.2l.6-1.9-.1-.2-.2.1zm3.5-30.9l1.3 1.3.1-.3h.3c2.2 1.6 3.4 3.1 3.4 4.4 0 .1 0 .2-.1.3.1 0 .1.2.1.4v.3l-.1.2c-.8 2.4-1.3 3.8-1.3 4.2.1 0 .1 0 .1.1v.1c-.2 0-.3.1-.3.3 0 .1.1.3.1.4v.1c-.3 0-.7 1.2-1.4 3.6-.4.4-.9.9-1.7 1.2V64c0-.1-.1-.2-.3-.2-.1.5-.2.7-.3.7h-.2c-.3 0-.4-.3-.4-.7v-.2l-.3.1v-1.5l-.3-.1.1.3-.2 1c0 .2-.1.3-.2.3h-.1l-.2-.1c-.3 0-.5-.6-.6-1.8l-.3-.2-.1.6h-.2c-.3-.1-.5-.4-.5-1.1 0-.2 0-.5.1-.8l-.3.1-.2-.6c0-.1 0-.1.1-.1h.1l-.1-.4.2-1.7v-1.7l.3.1.1-.8.2.1-.1-.7c.5-2.1.9-3.1 1.2-3.1l-.1-.3V51h.3l.1-1c0-.1.1-.2.2-.2 0-.1-.1-.1-.2-.2.4-1.3.8-2 .9-2l.3.2c.2-.2.3-.3.5-.3zm-3.5 48v.7h.2v-.7h-.2zm.7-19.3l.1.2.4-.1-.1-.7c-.2.1-.4.3-.4.6zm.1 13.6v.7h.2v-.7h-.2zm.2-28.9l-.1.3.3.1.1-.3-.3-.1zm.1-1c.1.2.1.4.1.5l.2.1.1-.5-.4-.1zm.1 15.1v.4h.2V75h-.2zm-.1-15.4v.2l.3.1v-.2l-.3-.1zm.2 13.8l.1.4h.2l-.1-.4H75zm.7 5.6l.4-.1-.1-.4c-.1.1-.3.3-.3.5zm.8-1.8h.2l.1.4h-.2l-.1-.4zm.4-1.2l.2-.1.1.4-.2.1-.1-.4zm20.2-4.8c0 .3.5.5 1.5.8.1 0 .2-.1.2-.2.3 0 .8.2 1.5.6.3-.1.5-.2.7-.2.1.4.9 1.1 2.3 2l.7.1v.2c0 .7.5 1.6 1.4 2.6v-.2l-.4-.7h.2c.8.7 1.3 1 1.5 1.1v.2l-.3.4-.4-.2-.2-.1c.8.7 1.2 1.2 1.2 1.6v.1c0 .2-.1.4-.3.7v.1c0 .5.2 1.1.6 1.7l-.1.7-.7-.5v.2l.1 1.6.4.1-.2-.5.1-.4.2.1c.3 0 .4.2.4.4v.3c-.8.7-1.2 1.3-1.3 1.9.1 0 .2.1.2.3-.3 0-.5.1-.5.4v.4c0 .3.1.5.4.5.3-.6.5-1 .6-1.3.3.1.4.2.4.4v.1l-.1.7c0 .3-.2.4-.4.4h-.1v-.2c-.6.2-1 .3-1.3.3h-.1l.2 1.2-.6.8.4.3c-.5.8-.8 1.3-.8 1.7l.4-.2h.2l-.1.4c-.4.5-.8 1.1-1.1 2h.2c1.5-1.6 2.4-3.3 2.7-5.2h.1c.3 0 .6-.5.9-1.5l.1-1.3.2.1.1-.4h-.1c-.1 0-.2.1-.2.2l-.4-.2-.2-.1-.1.7h-.4l-.1-1.6.4-.2c.3 0 .4.3.4.8v.2c.2-.1.4-.2.6-.2h.1l.1-1.1-.7-.1c0-.3.2-.4.6-.4h.1v-.4l-.4.2-.2-.4.4.1-.1-1.2c.3-.5.5-.8.6-1.1l.4.1-.1.7-.4-.1-.1.7.4-.2.2.4-.2 3.1 1.1.3-.2 2.2c0 .1-.1.2-.2.2l.2.4-1.6 3.5-.1.7c-.2 0-.6.8-1.1 2.4 0 .1-1.5 2.3-4.5 6.4l.2.1c.1 0 .2-.1.2-.2l.4.3.5-.2-.1.7c0 .3-.3.4-.8.4h-.2l.2.4c0 .3-.8.8-2.2 1.4v.4h-.4v-.2c.4-.7.8-1.1 1-1.1l.4.3c.1-.3.2-.4.5-.5l-.2-.4c.3-.6.6-.8.9-.8v-.2h-.4c0 .2-.2.4-.7.6v-.1c0-.1-.1-.2-.2-.2-.1.6-.3.9-.6.9l.1-.2.2-.4-.7-.1c0 .7-.9 1.5-2.6 2.5l-.1.2c.3.1.4.2.5.5 0 .3-.2.4-.4.4h-.1c-.3-.1-.5-.2-.7-.3l-.1.7.2.1 1.2-.6.2.1v.4c-1.3.8-1.9 1.3-1.9 1.4l-.4-.1h-.2c-1.3 0-2.1.3-2.1 1h-.2l.1-.7c-.3.1-.5.2-.7.2l.2.4c-.8.2-1.3.3-1.6.3v-.4l.7.1v-.2l-1.3-.3c0 .1-.1.2-.2.2v-.2c-.1.1-.4.1-.9.1h-.4v.1c0 .1.1.2.2.2l-1 4.4h.2l-.3.4v1.1h.4l-.1.2H89c-.4 0-.6.4-.7 1.1l.4-.2c0 .1.1.2.2.2-.3 1-.9 2.1-1.8 3 .4 0 .6.2.6.6v.1c-.2 1.2-.4 2.2-.4 2.9l-.4-.2-.1.7h.4l-.1.4.1 1.3c-.2.4-.4.7-.5.7l.2.4-.1 1.8c0 .1-.1.2-.2.2l.2.4-.1 1.3-.4-.1.1-.4h-.2l-.1.7.2.4c-.2.3-.3.5-.3.7l-.2-.1.1-1.3-.4-.1c.1.1.1.3.1.7v1.3l.4-.2c.3.1.4.2.5.4h-.2c-.4 0-.7.1-1 .4.1.2.2.4.2.6v.1c0 .1-.1.2-.2.2.1 1 .2 1.7.3 2-.3 0-.5.2-.5.5l-.1 2 .4.1-.1.2c-.2 0-.5.1-.9.4-.3-.5-.5-1.2-.5-2v-.5h-.2l-.1 1.6-.4-.1v-.2c0-.6-.4-1-1.2-1.1 0 .2-.3.4-.7.6 0-.2-.2-.5-.6-.7l.3-1.1-.1-1.6h-.2l-.1.4h-.2c-.2 0-.5-.9-.7-2.6h-.4v-1.3h-.2c0 .3-.1.4-.2.4h-.1l.2.5v.2l-.3.4c.4 0 .6.3.6.8v.1c-.2.3-.3.5-.3.7l.4-.2.2.5-.1.2h-.2c-.2 0-.3.1-.3.2-.3-.2-.5-.3-.7-.3l.1-.9.2-.4-.6-.5-.1.4h-.4v-.1c0-.3-.3-.7-.8-1.1v-.2l.9.1v.4h.2l.3-1.1.1-.2-.2-.1-.1.4h-.4l.3-.4.1-.9-.4.2h-.4v-.4l.4.2.2-.4c-.4 0-.6-.4-.6-1.2v-.2c.2-.1.4-.2.8-.2.2 0 .4 0 .6.1l.1-1.6h-.2c0 .5-.4.9-1.2 1l.1-.9h.2l.1-1.3c0-.3-.1-.6-.2-.9l.1-.7c-.3 0-.4-.2-.4-.4v-1.4h.4l-.2-.4c.3-.4.5-.8.6-1.1l-.4-.3c0 .1-.1.2-.2.2v-1.1c-.3 0-.4-.2-.4-.4v-.1h.1c.2 0 .4-.1.4-.4v-.2l-.2-.5.7-.4c0 .1.1.2.2.3l.1-.9-.4-.1.1-1.3.2.1.4.2.1-.7c-.4 0-.7-.2-.7-.5l.2-1.6.6.1.1-.4c-.4 0-.6-.2-.6-.4v-.1c.1-.3.2-.5.3-.6-.1 0-.2-.1-.2-.3.4-.4.7-.6 1.1-.6h.1l.1-.4c-.5 0-.8-.4-.8-1.2l.3-1.1.1-1.6c0-.1.1-.2.2-.2h.1l-.2-.5c.2-.3.3-.5.3-.6h.2l.5.3v-1.1h-.2v.4h-.4c.1-1 .4-1.5.9-1.5h.1v-.4c.1-1.3.4-2.1.9-2.6-.6-.3-.8-.5-.8-.7h.2l.5.3v-.2c-.1-.3-.2-.5-.2-.7.1 0 .2-.1.3-.2h-.2l1.3-2.8v-.2l.3-2.1.5-.2c0 .3.1.5.4.5l.1-.7-.7-.1v-.4h.4c.5 0 .7-.1.8-.2-.1-.2-.2-.4-.2-.6v-.1l-.4-.1-.1.4h-.4l.3-1.6.1-1.3.4.1.1 1.6c-.1 0-.2.1-.2.2l.7.1v-.2c0-.6.3-1.6.7-2.9l-.5.2v-.4l.4.1.1-.7-.5-.1-.1.7c-.3-.2-.5-.3-.6-.3l.1-.9h.2c.3.2.5.3.7.3-.3-.5-.4-.9-.4-1.1h.2l.7.5c.3-.6.5-1 .6-1.3l.9.1.8.7.2.1.7-.4-.3 1.5.1 1.1h.1c.2 0 .4-.1.4-.4 0-.6-.1-1-.1-1.5v-.6h.2c.3.6.6.9.8.9l-.2.5-.1 1.3h.2c0-.1.1-.4.3-.6-.1-.2-.2-.5-.2-.7v-.2l.4.1-.1.4c.3-.1.5-.2.7-.2 1 .7 1.6 1 1.7 1l-.2.4v.5c1 .5 1.5.9 1.5 1.2v.3c0 .3-.2.4-.5.5 0 .1.1.2.2.2-.4 1.5-.7 2.5-.9 2.9 0 .1.1.2.2.2l-1 4.4 1.1.3h.1c.3 0 .8-.5 1.6-1.6l-.2-.5v-.2c0-.2.5-.5 1.5-.8l-.2-.4c.9-1 1.3-1.5 1.4-1.5v.4l.4.1c.1-1 .4-1.5.9-1.5h.1c.5-.9.8-1.5.8-1.7.1-.3.2-.4.4-.4h.1l-.2-.4v-.2h.4l-.4-.7h.1c.4 0 .6-.2.6-.6l.4.2.3-1.5v-.2l-.2-.5.4.1c0-.1-.1-.2-.2-.2l.3-.4-.4-.7.8-1.2c0-.9-.2-1.4-.4-1.4l.3-.5v-.3c0-.6-.2-1-.6-1.1l.3-.4v-.1c0-.5-.3-1.2-1-2h.1c.1 0 .2-.1.2-.2-.3 0-1-.5-1.9-1.3l-.5.2h-1.1l.1-.4-1.3-.1-1.1.1v-.2h-.1c-.5 0-1.5.4-3.2 1.1v.2l.4.1c.6-.1.9-.4.9-.8.3.1.4.2.5.5 0 .2-.5.7-1.4 1.5h.2l.9-.6h.4v.4h-.1c-.6 0-1.2.3-1.6 1h.2c.1-.3.2-.4.4-.4h.1v.2c-1.2 1.2-2 1.9-2.3 1.9h-.1c0-.2-.2-.5-.6-.7 0 .3-.2.4-.4.4h-.1l-.2-.4c.1 0 .2-.1.2-.2l-1.1.2c-1.6-.7-2.5-1.1-2.6-1.1-.1-.6-.3-1-.8-1l.3-1.1-.4-.1.1-.2c0-.3.2-.4.4-.4h.1l.7.1v-.2l.4.1-.2.4h.2c.4-.4 1.3-.8 2.6-1.1.7-.7 2-1.5 4-2.4 0 .1.1.2.2.2.1-.3.2-.5.3-.7l1.1.3h.2c.4-.6 1.2-.7 2.3-.9zm-19 55.2l-.1.7h.2l.1-.7h-.2zm0-5.8c0 .3.2.4.5.4v-.4h-.5zm.6 6.5l-.1.4.4.1.1-.4-.4-.1zm.1-4.3c0 .2.2.5.6.7l.1-.9c-.3.2-.5.2-.7.2zm.4-2.2v1.1l.2.1v-1.1l-.2-.1zm0-9l-.1.9h.2c0-.3.1-.6.3-.8l-.4-.1zm.2 15.6l-.1.4.4.1.1-.4-.4-.1zm.1 5.8l.4.1v.1c0 .4.2 1 .5 1.5l-.4.2.2.4v.2H80c-.3 0-.5-.5-.5-1.5-.1-.3-.1-.6 0-1zm-.1-23.1l-.1.2.4.1.1-.2-.4-.1zm0 8.5l-.1.2h.4l.1-.2h-.4zm.1-.9l-.1.7h.2c0-.1.1-.4.3-.7h-.4zm0 8.3l-.1.4.4.1.1-.4-.4-.1zm.1-9.8l-.1.4h.2l.1-.4h-.2zm.1 8l-.1.7h.2l.1-.6-.2-.1zm.1-2.2l-.1.9c.4-.2.7-.3.8-.3h.1v-.2c-.3-.1-.5-.2-.8-.4zm0-14.8l-.1.4h.2l.1-.4h-.2zm.1 14.1l-.1.4.4.1.1-.4-.4-.1zm0-15v.2h.4v-.2h-.4zm0 8.3v.4h.2v-.4h-.2zm.4-4.7l.2.5v.2l-.4-.1-.1.4.4.1v.4l-.3.4.2.1.3-.4.1-1.6h-.4zm-.3 9.2l-.1.4.2.1.1-.4-.2-.1zm.1-6.3l-.1.4.2.1.1-.4-.2-.1zm0 5l-.1.4h.2l.1-.4h-.2zm.1-12.8l-.1.7h.2l.1-.7h-.2zm.1 22.2v.4l.2.1v-.4l-.2-.1zm.1 1.8l-.1.4h.2l.1-.4h-.2zm.1-7.4v.4l.2.1v-.4l-.2-.1zm0-12.3l-.1.4c.3 0 .5-.2.5-.5l-.4.1zm.1 8v.4l.2.1v-.4l-.2-.1zm0-8.7v.2h.4v-.2h-.4zm.2 7.2l-.1.2.4.1.1-.2-.4-.1zm0 4.9l-.1.4h.2l.1-.4h-.2zm0-8.5l.4-.2c.1.1.2.4.2.7 0 .2 0 .4-.1.6h.2l.1-1.3c-.1-.3-.2-.6-.2-.7l.4.1.1-.4c-.7 0-1.1.4-1.1 1.2zm.1 7.2l-.1.4h.2l.1-.4h-.2zm.1-1.8l-.1.4h.2l.1-.4H81zm.4-4l-.1.4.4.1.1-.4-.4-.1zm0-4.3l-.1.4h.2l.1-.4h-.2zm.2 10.2l-.1.7c.2-.1.4-.2.7-.2h.2v-.2l-.8-.3zm0-13.3v.4h.2v-.4h-.2zm.1-4.1v1.1l.7.1c0-.3-.2-.5-.5-.5l.3-.4v-.2l-.5-.1zm.1-.4v.2l.4.1v-.2l-.4-.1zm.1 7.7l-.1.4h.2l.1-.4h-.2zm.1 20.2c.1.3.2.6.2.9h.2v-1.1l-.4.2zm0 1.8v.7h.2l.1-.7H82zm-.1-22.9v.4h.2v-.4h-.2zm.7 15.7l-.3 1.1-.1.7.4.1.1-.7.3-1.1-.4-.1zm-.5-24v.2h.4v-.2h-.4zm.3 32.6l.2.4v.2l-.3.4.4.3c0-.1.1-.4.3-.7-.2-.3-.2-.5-.2-.7l-.4.1zm-.1-20.1l-.1.7.4-.2c0 .1.1.2.2.2l.1-.7-.4.2s0-.1-.2-.2zm.1 14.2l-.1.4.2.1.1-.4-.2-.1zm.1-28.7l-.3.9h.4l.3-.8-.4-.1zm0 11.7l-.1.7h.2l.1-.7h-.2zm.3-13.5c0 .4-.1 1-.3 1.6l.9-.6c-.1-.3-.2-.6-.2-.9l-.4-.1zm-.1 22.7l-.1.4.2.1.1-.4-.2-.1zm0 3.8l.4.1v-.4c-.3-.1-.4 0-.4.3zm.1-5.4l.2.1-.2.4-.1.9.2.1c0-.4.2-.7.6-1.1h-.2l.3-.5v-.4c-.2-.1-.5.1-.8.5zm-.1-13.2v.4h.4c.1-.3-.1-.4-.4-.4zm.2 15.5l-.1.4h.2l.1-.4h-.2zm.2 16.2l.7.1-.1.4-.2-.1c-.3 0-.4-.1-.4-.3v-.1zm-.2-40.7l-.1.4.4.1v-.1c.1-.3 0-.4-.3-.4zm.2 36.2v.4h.2v-.4h-.2zm.1-37.1l-.1.7h.2l.1-.7h-.2zm.1 8.3v.4l.2.1v-.4l-.2-.1zm0 3.4l.1 1.2h.2l.1-1.1-.4-.1zm0-12.4v.4c.3 0 .4-.1.4-.4h-.4zm.1 19.4l-.1.2.4.1.1-.2-.4-.1zm.2-8.8l-.1.7h.2l.1-.7h-.2zm.5-12.3c0 .3-.2.6-.6 1.1l.4.3.3-1.1v-.2l-.1-.1zm.2 15.5c0 .2-.2.5-.6.8.4 0 .7.2.7.5l.4.1v-.2l-.1-1.1-.4-.1zm-.3 3.4l-.3.8.4.1c0-.3.1-.6.3-.9H84zm-.2-21.4v.2l.4.1v-.2l-.4-.1zm0 8.5c0 .2.4.6 1.3 1.2v-.7l-1.3-.5zm.1 14v.4h.2v-.4h-.2zm.1-12.4l-.1.4h.2l.1-.4H84zm.1 10.6l-.1.4h.2l.1-.4h-.2zm0-9.5v.4h.1c.2 0 .3-.1.3-.4h-.4zm0-14.5h.4l-.1.7c-.3 0-.4-.1-.4-.3l.1-.4zm.1 10.1l.4.3.3-.4v-.2h-.2c-.3-.1-.5 0-.5.3zm.1-1.8v.4l.2.1v-.4l-.2-.1zm.1 2.5l-.1.4h.2l.1-.4h-.2zm.4-2.3l-.1.5h.2l.1-.4-.2-.1zm.1 10.4v.2c.1.3.2.5.2.7h.2l.1-.9h-.5zm0-12.2v.3c.1.2.2.4.2.6v.1l.2.1.1-.7-.5-.4zm0-.4v.2l.4.1v-.2l-.4-.1zm.2 33.5v.4h.2v-.4h-.2zm.1-1.1v.2l.4.1v-.2l-.4-.1zm.5 6.5c0 .1-.1.4-.3.7l-.1.2h.2c0-.2.1-.4.3-.7l.1-.2h-.2zm-.5-33.7v.5h.2l.1-.4-.3-.1zm.1-.7l-.1.4h.1c.2 0 .4-.1.4-.4h-.4zm.2-6.5l-.1.4h.2l.1-.4h-.2zm.1 2l-.1.4.4.1.1-.4-.4-.1zm0-17l-.1.2.4.1v-.2l-.3-.1zm.5 21.8c0 .1.1.2.2.2l-.3 1.2v.2h.2l.4-.2-.2-.4.3-.4c-.1-.2-.2-.4-.2-.6V97l-.4.1zm.5-.6v.2c.3 0 .5-.2.5-.5V96c-.3.1-.4.2-.5.5zm.2 27.8v.4l.2.1v-.4l-.2-.1zm.1-40.8l-.3.8h.1c.3 0 .4-.2.4-.6v-.2h-.2zm.1 38.9v.4l.7.1v-.2c-.2-.1-.4-.2-.7-.3zm0 5.1v.5h.2l.1-.4-.3-.1zm.1-33.7l-.1.9h.1c.2 0 .3-.1.3-.4l.1-.4-.4-.1zm.1 31.5v.4h.2v-.4h-.2zm0-32.6l-.1.4.2.1.1-.4-.2-.1zm0-1.1v.4l.4.1v-.4l-.4-.1zm.3-15.1l-.1.5h.2l.1-.4-.2-.1zm.1 36.9v.2c.1 0 .4.1.6.3l.1-.7c-.3.1-.5.2-.7.2zm.4-29v.7h.2l.1-.7H88zm.3 26.4l-.1.7h.2l.1-.7h-.2zm.1 1.7c0 .2.2.5.6.7 0-.1.1-.4.3-.7h-.9zm.2 3l-.1.7h.2l.1-.7h-.2zm.1-1.1l-.1.4h.2l.1-.4h-.2zm0-6.1v.4l.2.1v-.4l-.2-.1zm.4 3.6v.4h.2v-.4h-.2zm.1-2v.4l.2.1v-.4l-.2-.1zm.9-36.5v.4h.2v-.4h-.2zm1.1 22.5l.2.5-.1.9-.2.4.2.1c.3 0 .5-.2.5-.7l-.2-1.1-.4-.1zm.2-2.5l-.1.4.2.1.1-.4-.2-.1zm-.1-20.6v.2l1.1.1.1-.4-1.2.1zm.1 22.7h.4l.1-.4c-.3 0-.5.1-.5.4zm.4-1.3l-.1.4h.2l.1-.4h-.2zm-.1-20.7v.4h.2v-.4h-.2zm.5 23.4l-.1.4h.2l.1-.4h-.2zm1.2-18.3c.1.2.2.4.2.6v.1c-.1.3-.2.5-.3.6l-1.1-.3c0-.1.4-.5 1.2-1zm-1.1 14l-.1.4h.2l.1-.4h-.2zm.3 8.8c.4.3.6.6.6.8v.1l.2.1.1-.2c-.2-.3-.2-.5-.2-.7l-.7-.1zm1.4-3.5l-.1.2.4.1.1-.2-.4-.1zm.1-25.6v.2l.2.1c.3-.2.8-.3 1.5-.3.3 0 .6 0 1 .1l.1-.2c-.3 0-.4-.1-.4-.3-.5 0-.7.1-.8.1l-.4-.3c-.8.2-1.2.3-1.2.6zm.1 33.9c0 .4.4.6 1.1.8v-.3c0-.2-.1-.4-.4-.4l-.7-.1zm.1-31.4h.4l-.1.4h-.4l.1-.4zm.5 24.3v.2h.4v-.2h-.4zm.3-25.3v.2h.4v-.2h-.4zm.5 32.3l-.1.4 1.1.1.1-.4-1.1-.1zm.2-9.4v.4h.2v-.4h-.2zm0-23.3l-.1.4h.2l.1-.4h-.2zm.1 1.8h.2v.4h-.2v-.4zm.4 21.3l-.1.2h.4l.1-.2h-.4zm-.1-22.9c0 .3.2.5.5.5h.2v-.4l-.7-.1zm.8 19.2l-.3.4c.2 0 .4.1.7.3v-.3c0-.3-.1-.4-.4-.4zm.1 5.1l-.1.2h.4l.1-.2h-.4zM97 72.5v.2l.4.1v-.2l-.4-.1zm.2 33.3v.4l.2.1v-.4l-.2-.1zm.6-2v.4h.2v-.4h-.2zm.1.7v.2l.4.1v-.2l-.4-.1zm0-31.7l-.1.2 1.1.3v-.1c0-.3-.2-.4-.6-.4h-.4zm.4 23.7c0 .3-.1.6-.3.8h.2l.5-.6-.4-.2zm-.1-1v.4l.2.1v-.4l-.2-.1zm0-21.3l-.1.4.7.1v-.2c-.1 0-.3-.1-.6-.3zm.1 19.1v.7l.2.1.1-.7-.3-.1zm.5 2.9v.2l.4.1v-.2l-.4-.1zm.2 6.8c0 .3.1.4.4.4l.1-.4H99zm.5-4.5v.5l.2.1.1-.4-.3-.2zm.1 1.4l-.1.4c.2-.1.4-.2.6-.2h.1v-.2h-.6zm.6 4.8c.3 0 .4.2.5.4l-.5.2c-.3 0-.4-.2-.4-.4v-.1l.4-.1zm-.4-12.4l-.1.4.2.1.1-.4-.2-.1zm1.8-3.7c0 .4-.6 1.5-1.5 3h.4c.7-1.7 1.3-2.5 1.7-2.5h.1v-.2c-.2 0-.4-.1-.7-.3zm-1.5 13.8l.4.1.1-.4c-.3-.1-.5.1-.5.3zm.1-9.2l-.1.2.7.1.1-.4c-.4.1-.6.1-.7.1zm0-18.6v.2l.4.1v-.2l-.4-.1zm.2 15l-.1.4h.2l.1-.4h-.2zm.1 13.7c.3.1.4.2.4.4v.1l-.4-.1v-.4zm0-2.6v.2h.4v-.2h-.4zm.2-14.4l.2.1-.1.4-.2-.1.1-.4zm0 8.1l-.1.4h.2l.1-.4h-.2zm.3-.9v.4l.2.1v-.4l-.2-.1zm.1-.5v.2l.7.1v-.2l-.7-.1zm.3 4.8l-.1.7c.2 0 .4.2.6.7-.1 0-.2.1-.2.2h.5c.2 0 .4-.2.7-.6v-.2h-.2l-.7.4-.3-1.2h-.3zm1.7-2.4c-.1.7-.6 1.3-1.7 1.9l-.1.2.4.1 1.5-1.7.1-.4-.2-.1zm-1.6-7.9l-.1.4h.2l.1-.4h-.2zm.1 7.8l-.1.4c.3-.1.5-.2.7-.2l.1-.2h-.7zm0-.9v.2l.4.1v-.2l-.4-.1zm.7-9.1l-.1.9h.4l-.8 2 .4.1.4-.2c0-.1-.1-.2-.2-.2l.3-1.1.1-1.3-.5-.2zm-.4 5.1l-.1.4.2.1.1-.4-.2-.1zm0-18l.4.1v.2l-.4-.1v-.2zm.2 27.9l-.1.4h.2l.1-.4h-.2zm.4.7l-.1.4h.2l.1-.4h-.2zm.2-2.9l-.1.2.7.1.1-.2-.7-.1zm0-23.8l-.1.4h.2l.1-.4h-.2zm.2 18.7l-.1.4h.2l.1-.4h-.2zm.2-9.7c0 .6-.1.8-.3.8.2.6.3 1 .6.9 0-.4.1-.6.3-.6-.1-.7-.3-1.1-.6-1.1zm.1 14.4v.2h.4v-.2h-.4zm.2-9.7v.2l.8.3.1-.9c-.4.2-.7.3-.8.3l-.1.1zm.1 5.3l.4.2.3-.4.1-.4h-.1c-.2-.1-.5.1-.7.6zm.1 1.5v.4h.2v-.4h-.2zm2.5 3.1v.2l-.8 1.1v.4h.2l.3-1.1.4.1c0 .4-.5 1.2-1.3 2.4h-.4l.1-.7h-.1c-.3 0-.4.2-.4.6l-.4-.1.1-.9h.1c.3.1 1.1-.6 2.2-2zm-2.4-7.1v.2l.4.1v-.2l-.4-.1zm.1-3.8l-.1.7h.2l.1-.7h-.2zm0 2.4v.4h.2v-.4h-.2zm0-.6v.2l.4.1v-.2l-.4-.1zm.3 5l-.1.4h.2l.1-.4h-.2zm.3-8.8l-.1.2h.4l.1-.2h-.4zm0 11.4v.4l.4.1v-.4l-.4-.1zm.1-22.2l.4.1v.2l-.4-.1v-.2zm.1 13.1v.4h.2v-.4h-.2zm.1-.7v.4h.2v-.4h-.2zm.5-.9l-.1.2h.4l.1-.2h-.4zm.2-.6v.2l.4.1v-.2l-.4-.1zm1.5 2.3l.2.5c-.8 1.8-1.3 2.8-1.6 2.8l.1-.2c.5-2.1 1-3.1 1.3-3.1zm-1.4-3.2l-.1.2c0 .3.2.5.5.5 0-.3.1-.6.3-.9-.2.1-.4.2-.6.2h-.1zm.1-4.5c0 .3.2.5.5.5v-.4l-.5-.1zm.2.9v.2l.4.1v-.2l-.4-.1zm.2-2.2l-.1.4c.2 0 .4.1.7.2v-.3c0-.2-.1-.4-.4-.4l-.2.1zm0-3.2l.2.1c1.1.8 1.9 2.4 2.5 4.7l-.2-.1c-.4-.3-.8-.5-1.1-.5l.5-.7c-.3-1-.9-2.2-1.9-3.5zm.2 6.1v.2l.4.1v-.2l-.4-.1zm.1 16.6l.7.1v.2l-.7-.1v-.2zm.4-5.3c.1 0 .2.1.2.2v.1c-.3 0-.4.1-.4.4h.2c0-.2.2-.3.6-.3h.3l-.2-.5v-.2c.6-.5 1.1-1.6 1.6-3.3h-.2c-.2 0-.7.9-1.3 2.6-.3-.1-.5.3-.8 1zm-.1 4l.4.1-.1.4-.4-.1.1-.4zm.6-1.1h.2l-.1.4h-.2l.1-.4zm-.1-17.5l.2.1-.1.4h-.2l.1-.5zm1.6 15.4l-.1.7-.4-.1v-.2c0-.3.2-.4.5-.4zm-.4-16.2c.3 0 .7.9 1.1 2.6l-.4.2c-.5-1.4-.7-2.3-.7-2.8zm.4 15.3l.4.1v.2l-.4-.1v-.2zm.1-10.3l-.1.2h.4l.1-.2h-.4zm.2 4l.4.7c-.3.5-.5.9-.6 1.3v.2l.4.1c.2-1 .4-1.7.6-2l-.5-.3h-.3zm.1-1.1l-.1.2c0 .3.2.5.5.5v-.3c0-.2-.2-.4-.4-.4zm.7-3.8l.4.1-.1.4-.4-.1.1-.4zm.1 1.6l.2.1v.2c0 .3 0 .5.1.7l-.4-.1.1-.9zm.1 1.4c.3.1.4.2.4.4v.1h-.4v-.5zm.4 3.4l.4.1v.2l-.4-.1v-.2z"/><path class="st0" d="M130.5 71.5l2.7 1.9-.2.6v.2c.4 0 .9.7 1.2 2.2.6 0 .9.6 1 1.7-.3 0-.4.2-.4.5l1 .4-.2.5.5.7v1c-1 .6-2.2 1-3.5 1h-1.7c-.2 0-.3-.1-.3-.2-.7.3-3.1.9-7.3 1.7 5.5 2.9 9.6 5.2 12.3 6.8 3 2.9 4.7 5.1 4.9 6.6.3 0 .8 1.3 1.8 3.9h-.3c.2.3.3.5.3.7-.2.5-.4.7-.5.7l.2 1.2v.4c0 .7-.4 1.5-1.2 2.2h-.8v.2h-.7v-.5h-.4l.2.5v.2c0 .3-.2.5-.5.5h-.5l-.4-.2c0 .7-1.1 1.4-3.2 2 1.8-1.5 2.7-2.6 2.7-3.2l-.9.7h-.5v-.7c.4 0 1.1-.4 2.2-1.2v-.2h-.2l-1.7 1h-.2v-.5h-.3c0 .5-.2.8-.7.8 0-.2-.1-.3-.2-.3l-.2.5c.1 0 .4.1.7.2 0-.1.1-.2.2-.2v.2c0 .7-.7 1-2.2 1v.2h.7v.5c-1.6.8-2.6 1.2-3.2 1.2v-.3h-.5v.5h-.2v-.7c.3 0 .5-.2.5-.5h-.3c0 .3-.3.6-.9 1v-.5h-.3v.2c.3.6.5 1 .5 1.2h-.5l-.4-.2v.5h-.3v-.8c.3 0 .5-.2.5-.5v-.3h-.2c-.8.6-1.2 1-1.2 1.2l-.5-.2c-.1.3-.2.5-.2.7h-.3v-.5h-.4c0 .5-.3.9-1 1.2l-1.5-.2c-.1.6-.3 1-.5 1h-.7c0 .1-.1.2-.2.2l-1.7-.2c-.6.3-.9.5-.9.7h.5v.3l-.8 1-.4-.2-.7.5h-.5v-.2l.5-.7v-.5h-.3l-.9.7-.5-.2c0 .3-.2.5-.5.5l-1-.3c-.5.3-.9.5-1.2.5l.5.7c.5 0 .7-.2.7-.7h.2c.2 0 .3.1.3.2l.4-.2c.2 0 .3.1.3.2l.4-.2.5.2c0-.1.1-.2.2-.2l.3.5c-.2 0-.6.4-1 1.2h-.2v-.5h-1l-1.2.2c-.5-.5-.7-1-.7-1.5h-.3c0 .2-.1.4-.2.7h.5v.3c0 .3-.3.5-1 .5v.3c0 .3.2.4.5.4 0-.3.2-.4.5-.5.3.1.5.2.7.2v.5c-.2 0-.4.1-.7.2l-.5-.2c-.8.2-1.2.4-1.2.7h.2c.3-.2.6-.3.7-.3v.3c1.1-.5 2.4-.7 3.9-.8l-.4.7.4.2c.4-1 .8-1.5 1-1.5l.2.5c-.3 0-.5.2-.5.5h.5l.5-.2c.3.1.5.2.7.2v.5l-1.2.3v-.3l-1.7.7-.3-.4-2.4 1v.2h.4v.5l-1.2.3-1.5-.3c-.1 0-.2.1-.2.3l-1.2-.3h-1.2v-.2l.3-.5c-.8 0-1.2-.2-1.2-.5.1 0 .2-.1.2-.2l.5.2c.3 0 .5-.2.5-.5v-.5l-1-.3-.2.5c-.7-.1-1-.5-1-.9l-.4.2h-.3c0-.3-.3-.5-1-.5 0-.3.2-.4.4-.5 0 .1.1.2.3.2l.2-.5c0-.2-.7-.8-2.2-1.7-.2-.3-.3-.6-.3-.7l.3-.5v-.3h-.3v.5h-.4v-.5l.2-.4c-.2 0-.5-.2-.7-.7l.2-.5c1.5.1 2.4.4 2.7.7h2.2l1.5-.2.5.2 10-3h.7c0-.2 2.6-1.5 7.8-3.7 3.6-2 6.4-4.3 8.2-6.7v-.2c-1.3-.8-2.7-1.5-4.4-2.2l-.5.3c-7.5-2.9-12-5.4-13.5-7.3.1 0 .2-.1.2-.3-.9 0-1.6-.7-2-2.2-.5 0-.8-.9-1-2.7-.7-.7-1-1.4-1-2.2v-.3h.5v-.7c-.5-.4-.9-1.3-1.2-2.7.1-.6.5-1 .9-1-.2-.3-.2-.6-.2-.7l.2-.5c-.2-.3-.2-.6-.2-.7l.5.2c0-.6.9-1 2.7-1v.4h.2c.3 0 .5-.2.5-.5-.5 0-.7-.2-.7-.5.9-.2 1.8-.2 2.5-.2 0 .3.2.4.5.4v-.2l-.2-.5c.4 0 .8-.2 1.2-.5h.2c.1 0 .2.1.2.3l3.7-.7v.2c.3.6 2.1.3 5.3.1zM103.9 114v.2h.5v-.2h-.5zm.9-1.5h.8v-.4h-.3c-.3 0-.5.1-.5.4zm.3 1.5v.2h.5v-.2h-.5zm.7-1.7v.5c.8 0 1.2.2 1.2.5h.4c0-.5.3-.8.8-.8v-.2c-1.2 0-1.7-.1-1.7-.2-.3.1-.5.2-.7.2zm.5.7l-.3 1h.7l-.2-.5c.1 0 .2-.1.2-.2l-.4-.3zm-.2 2.5v.5h.3v-.5h-.3zm.2-.8v.2h.4v-.2h-.4zm.8.8v.5h.4c0-.4-.1-.5-.4-.5zm.4-.8v.5c.7 0 1 .1 1 .4h.5l.4-.2c-.2-.3-.2-.6-.2-.7l-1.2.3-.5-.3zm3.7 1.2h-.7l-3 .2v.2c1 0 1.5.2 1.5.7 1.8-.6 2.7-1 2.7-1.2v-.3l-.5.4zm-3.4-2.6v.2h.7v-.2h-.7zm.5-1.5v.3h.4v-.3h-.4zm.2.5v.5h.2v-.5h-.2zm.3 5.1v.5h.3v-.5h-.3zm.7-5.4c0 .7-.1 1.3-.2 2h.2c.8 0 1.2-.3 1.2-.7h.3v.7c1.3-.6 2-1 2-1.2-.3 0-.5-.1-.5-.3l-.5.3h-1.2v-.3h.5v-.2h-.7c0 .1-.1.2-.2.2l.2.5c0 .3-.2.5-.5.5 0-.1-.1-.6-.2-1.5h-.4zm-.2 5.9v.2c.2 0 .4.1.7.2h.3v-.2c-.2 0-.4-.1-.8-.2h-.2zm.2 2.2h.3v.5h-.3v-.5zm.7-8.4v.3h.4v-.3h-.4zm.3 2.7v.3c.2.3.2.5.2.7h.3v-1h-.5zm.2 5.9h.7v.5h-.2c-.3 0-.5-.2-.5-.5zm.3-8.8v.5h.2v-.5h-.2zm.2 3.4h.5v-.5c-.3.1-.5.3-.5.5zm1.7-4.1c0 .3-.3.5-1 .5v.4c.1 0 .6.1 1.5.3 0-.3-.2-.5-.5-.5l.2-.5v-.2h-.2zm-1 3.9v.5h.2v-.5h-.2zm1.3-1.5v.4h.2v-.4h-.2zm3.1-2.7v.4h-.3c-.1 0-.2-.1-.2-.2-1.2.2-1.7.5-1.7.7v.2l1.5-.5.2.4v.3c-.3 0-.5.1-.5.2-.1 0-.2-.1-.2-.2l-1.5.2.2.5 1-.5.2.5c-.3.2-.7.2-1.5.2v.5l3.6-.7v-.5l-1.2.2v-.4h.7v-.3h-.4c0-.3.1-.7.2-1v-.2l-.1.2zm-2.7.3v.5h.2v-.5h-.2zm.1-32.6v.5h.5v-.5h-.5zm.2 40.6h1.2v.2l-1.2.3v-.5zm.5-1.7v.3h.5v-.3h-.5zm.2-1.9h.5v-.5c-.3 0-.5.2-.5.5zm.3-4.9v.3h.4v-.3h-.4zm.5 4.4v.5c.3-.2.6-.3 1-.3v-.2h-1zm.9-4.9v.3h.4v-.3h-.4zm15.4-4.3l-.5-.2c-.6.6-1.9 1.3-3.9 2.2.2.3.3.6.3.7h-.3l-1.2-.5c-.3.7-.8 1-1.5 1l.3.5-.5.2h-.2v-.5h-.3c0 .7-1.1 1.3-3.4 2-.8 0-1.2-.1-1.2-.4-.3.2-.5.2-.7.2h-.2v-.2c1.1-.4 1.7-.8 1.7-1l-2.7.7v.3l.5.7c-.2 0-.2.1-.2.2l.4.2v-.4h.3c.1 0 .2.1.2.2l.5-.2c.8 0 1.2.2 1.2.4.9 0 2.4-.6 4.4-1.7 0 .1.1.2.3.2 0-.3.6-.6 1.7-1 .3.1.6.2.7.2l-.2-.5c.9-.3 1.6-.7 2.2-1.2 0 .2.1.3.3.3 0-.2 1.4-1.1 4.4-2.7.4-.8.8-1.2 1-1.2 0 .1.1.2.2.2l.2-.4-.5-.3h-.3c-2 .4-3 1.1-3 2zm-14.1 6.9h.4c.3 0 .5-.2.5-.5v-.3c-.6.4-.9.6-.9.8zm.4.5v.3h.5v-.3h-.5zm.5 1.8c.3 0 .5.2.5.5h-.5v-.5zm.1 2.2h.7v.2h-.7v-.2zm.1-7.9v.3h.5v-.3h-.5zm.1 2.7v.5h.3v-.5h-.3zm1.4-2.4v.2h.7l.2-.5h-.2c-.3.2-.5.3-.7.3zm1-1.3v.2h1.2v-.5l-1.2.3zm3.2 3.9v.2c0 .4-.6.6-1.7.7.2-.5.8-.8 1.7-.9zm-1.5-4.1v.8h.2c.3 0 .5-.2.5-.5-.1-.1-.4-.2-.7-.3zm1.7-.3v.5h.3c.3 0 .4-.2.4-.5v-.2c-.3.1-.5.2-.7.2zm.3 4.2h.7c0 .3-.2.5-.5.5h-.2v-.5zm.7-.3h.4v.2h-.4v-.2zm1-5.6c.1.3.2.4.5.4l-.2.5v.2h.4v-1.2l-.7.1zm.5 4.9h.5c0 .3-.2.5-.5.5v-.5zm1.4.5h.2c.8.4 1.2.6 1.2.7l1.5-.7c1.1 0 1.7.1 1.7.4-.1.3-.2.6-.2.7l-.5-.2c0 .1-.1.2-.2.2l-.3-.9c-.4.4-1.2.7-2.4 1v.3h.7c.3-.2.5-.3.7-.3v.5l-1 .3c0-.2-.1-.3-.2-.3 0 1-.2 1.5-.7 1.5v-.2c.1-.3.2-.6.2-1l-.7.5h-.7v.3h-.2l-.5-.3c.1-.3.2-.6.2-1l.7.5c.3-.2.6-.3.7-.3v-.2l-.2-.5c.3 0 .5-.2.5-.5h-.5v-.5zm-.7-5.4l-.2.4.4.3.3-.5-.5-.2zm.7-.3v.7h.2v-.7h-.2zm1.3 5h.2c0 .3-.1.4-.4.5h-.3c0-.4.2-.5.5-.5zm.9-2.8v.3h.8l.2-.5h-.2c-.3.1-.6.2-.8.2zm0 .8v.2h.5v-.2h-.5zm1-.5v.5h.2v-.5h-.2zm.5 2.7h.4v.2h-.4v-.2zm.2-3.2v.5h.2v-.5h-.2zm.3 2.9h.5v.2h-.5v-.2zm.7-4.2v.3h.8v-.3h-.8zm.5 5h.3c0 .3-.2.4-.5.5h-.3c.1-.4.3-.5.5-.5zm.7-3.5h.3c0 .3-.2.5-.5.5h-.2c0-.3.2-.5.4-.5zm-.2 3h.5v.2h-.5v-.2zm.9-7.7v.3h.5v-.3h-.5zm.3-.7v.3h.5v-.3h-.5zm.7.3v.4h.2v-.4h-.2zm1 3.2v.2h.3c.3-.1.6-.5.9-1.2h-.2c-.3 0-.6.3-1 1zm.5 2.1h.5v.5h-.5v-.5zm1.2-3.2v.5h.2v-.5h-.2zm.8 2.5h.2v.4h-.2v-.4zm18.7-53.6h.2v.2l-.5.7-.1.2.7.1c.2-.7.4-1.1.7-1.1h.1v.2l-.3 1.1.4.1c0-.3.1-.6.3-.8.3.1.5.2.6.3 0 .3-.2.4-.4.4h-.1c.2.6.4.9.6.9.1-.6.3-.8.5-.8.3.2.5.3.7.3l-.1.4-.5.6-.1.7.9-.6.4.3.1-.4.7.1.4.3c0-.1.1-.2.2-.2l-.1 1.3h.2c0-.4.2-.6.4-.6h.1l.2.4c-.3 0-.6.4-.8 1.1h.1c.3 0 .4-.3.5-.8h.2l.4.3c-.5.8-.8 1.4-.8 1.7.3.1.4.2.4.4v.1c-.6.2-.9.3-.9.6l.2.4c-1 2.6-1.5 3.9-1.7 3.9v.2c.8.3 1.4.5 1.7.8.1-.3.2-.4.4-.4h.1l.7.5c0-.4.8-.6 2.3-.7 0-.1.1-.2.2-.2 0 .1.1.2.2.2 0-.1.1-.2.2-.2h.1c0 .1.1.2.2.2.1-.3.2-.4.4-.4h.1l.9.1-.1.4h.2l.7-.4v.1c0 .1.1.2.2.2.1-.8.6-1.2 1.7-1.2.2 0 .4 0 .6.1 0-.1.2-.2.5-.2h.2c.4 0 1.5.6 3.2 1.7.6 0 1.6.9 3.2 2.5l.4.1-.1.2-.3 1.1c.6 0 .9.2.9.5-.2.1-.5.1-.7.1h-.2l-.1.9.4.1c0 .2-.4.4-1 .6l.1-.4-.2-.1-1.4 1-.2-.1.3-.4.1-.2c-.8.5-1.2.7-1.4.7h-.1l.1-.4.3-.4-.2-.1c-.1 0-.7.3-1.7 1-.3 0-.4-.2-.4-.6v-.1l-1.1.1v-.2l-.4.2h-.2l-1.1-.8c-.2.1-.4.1-.7.1h-.2c0-.6-.2-.9-.6-.9l.3-.4v-.1c0-.2-.2-.5-.6-.7v.2l.2.5h-.1c-.2 0-.5.2-.9.6-.1 0-.2-.1-.2-.2v-.1c-2.2.4-3.4.8-3.7 1.2v-.1c0-.2-.1-.3-.4-.3 0 .3-.1.4-.2.4h-.1c-.3-.2-.5-.3-.6-.3-.3.5-.6.8-1.1.8h-.1l.2.4c-1.2.2-1.8.7-1.9 1.4-.1 0-.2.2-.3.7l-.2-.1v-.4h-.2c-.3 0-.4.1-.4.4h.2c-.4.9-.7 1.3-1 1.3h-.1v-.1c0-.1-.1-.2-.2-.2l-.7 2.9.8.3c-.3.6-.5 1-.6 1.3l.1 1.1c-.2.9-.4 1.3-.6 1.3v.1c0 .1.1.2.2.2-.1 1-.3 1.5-.7 1.5h-.1l-.1.2c.4.1.6.2.6.5v.1h-.1c-.1 0-.2.1-.2.2l.7.1-.1.9h-.4l.1-.7-.2-.1c-.1.4-.2 1-.4 1.6h.2l-.3.5-.1.4h.8v.2l-1.1.1-.1.4c.1 0 .2-.1.2-.2.6.3.8.5.8.7v.1l-.2-.1-.5-.3-.1.9.2.1.4-.2v.2l-.8.8-.1 1.3.2.1c.1-.7.2-1.1.5-1.1h.1l-.1.4-.3.5c.1 0 .2.1.2.2-.1 0-.2.1-.3.2.1 0 .2.1.2.2-.3 0-.5.2-.5.5v.2h.2l.1-.4c.3.1.4.2.4.4v.1h-.1c-.2 0-.4.3-.7 1l.1 3.6c-.3 0-.5.1-.5.4.1 0 .2.1.2.2h-.1c-.4 0-.7.4-.8 1.3l.4.1-.1.7-.5-.3v.2c0 .3.1.5.4.5l-.3.4v.4c.3 0 .7.4 1 1l-.3.5c0 .2.2.7.7 1.6v.2l-.9.2c0-.2-.1-.2-.2-.3l-.5.6-.4-.2c-.2.1-.4.1-.6.1h-.1l-.2-.4.3-.4-.4-.3v.2c.1 0 .2.1.2.2v.1l-.9.6c-.3-.3-.6-.5-.8-.6l.1-.7.4.1v-.1c0-.3-.5-1.2-1.5-2.6h.1c.2 0 .3-.1.3-.4l.1-.2h-.1c-.3 0-.4.2-.4.6-.2 0-.5-.5-.8-1.5l.1-.6.4.2c-.5-2.4-.7-4.4-.7-6v-1.4l-.4-.1v2.5l-.4-.1-.1.2c.7 1.1 1 2.2 1 3.3 0 .2 0 .4-.1.6v.2h-.2v-.1c0-.4-.5-.9-1.6-1.7l.3-.4-.7-.1v-.2c.1 0 .4 0 .9-.1l.1-.2V96c0-.2-.1-.4-.4-.4 0-.1.1-.2.2-.2 0-.2-.1-.5-.1-.9v-1.3h.1c.1 0 .3-.2.4-.6l-.7-.1.2-1.3c0-.3-.2-.5-.5-.5.2-.6.8-1.3 1.8-1.9h.2l-.1.4.2.1.1-1.3-1.4.8-.4-.7.4-.2c0 .2.1.2.2.2 0-.2.2-.5.6-.8l-.2-.1-.5.2c-.2-.5-.3-.9-.3-1.2l.3-1.1h-.2c.5-1.3.8-2 .9-2l-.1-1.3c.1-.6.3-1.3.6-2-.1 0-.2-.1-.2-.2v-.1h.4c.3.2.5.3.6.3l-.2-.5.5-.2-.2-.4.1-.2.3-.4-.4-.3-.3.4.1 1.1-.9-.1.1-.2c0-.4.2-1 .6-1.7-.1 0-.2-.1-.2-.3l1.2-.3v-.2c-.4 0-.6-.2-.6-.6v-.1c-.9.1-1.4.3-1.4.6v.2l.2.4-.4.2h-.2l.1-.7-.7.4c.1.2.2.4.2.6v.1l.2.1.1-.4c.2.1.6.2 1.1.3v.4h-.2l-.4-.3-.1.7.4.1-.1.2c0 .7-.4 1.2-1 1.2v-.1c0-.1-.1-.2-.2-.2l.2-.4.1-.7h-.4l-.1.9-.7-.1c0-.1.1-.2.2-.2h.1l-.2-.5.1-.8.5-.7h-.4l.5-.7.1-.7-.2-.4c-.3.1-1.2.2-2.7.2l-.2-.4-1.1.1-.4-.1-3-.9c0 .1-.1.2-.2.2h-.1l.1-.2.5-.6c-.6 0-.9-.1-.9-.3l-.4.2h-.2c.2-.6.3-1.2.4-1.6l-.8-1.4c.2-.1.4-.2.6-.2h.1l-.2-.5c1.1-.4 2-.6 2.6-.6h.2v.2l1.4-.5c.3 0 .6.1.9.3.7-.1 1.1-.4 1.2-.8l.4.3.9.1c.6-.4 1.1-.6 1.5-.6h.1c.2.2.5.3.8.3 1.1-.5 1.7-.8 1.7-1 0-.5.1-.9.3-1.1-.1 0-.2-.1-.2-.2h.1c.2 0 .4-.1.4-.4l-.5.2c.1-.3.2-.4.5-.4l.4.3.1-.7-.5.2h-.2l.1-.9h.2c.4 0 .7-.2.7-.6-.1 0-.2-.1-.2-.3.3 0 1.3-2.5 3-7.6.3-.6.6-.8.7-.8l.2.1v.4l.2.1v-.4c-.1 0-.2-.1-.2-.2v-.1h.4l-.2-.4c.1-.3.5-.6 1.3-1.1zm-17.3 19.5v.2l.4.1v-.2l-.4-.1zm1.2 1c0 .3.2.5.4.5l.1-.4-.5-.1zm4.3-4.7l-.1.4h.2l.1-.4h-.2zm.7 24.3h.4l.2 1-.5.2-.2-.4.1-.8zm.5-3.3l.8 1-.1 1.1-.7-.1.3-1.1-.5.2-.3-.7c.1-.3.3-.4.5-.4zm-.3 5.6c.4 0 .6.7.7 2.1l-.4-.1c-.2-1.1-.3-1.8-.3-2zm2.1-14.7v.2c0 .4.1.8.3 1.2l-.7.4v.1c0 .4.2.6.6.6l-.1.2-.4-.1-.1.9c0 .1.1.2.2.3-.5 2-.9 3-1.2 3l-.2-.5c.2-.2.3-.5.3-.8l-.7-.1v-.2l.4.1.1-.4-.7-.1c1-.6 1.4-1.1 1.4-1.4l-1.1-.1c0-.3.2-.4.6-.4h.1l.1-.2c-.4 0-.6-.2-.6-.6v-.1c.2-.3.3-.5.3-.6h.2l-.1 1.1.4.1v-.2l-.1-1.2.5-.2-.2-.4c.3-.4.4-.6.7-.6zm-2 14l.4.1-.1.4c-.3 0-.4-.2-.4-.4l.1-.1zm1.4-.1l-.1.4c-.2.3-.3.5-.3.6-.3 0-.4-.2-.4-.4v-.1l.1-.4h.1c.2 0 .3 0 .6-.1zm-.5-9l-.1.4h.2l.1-.4h-.2zm-.1-4.7h.4v.2h-.4v-.2zm.1 8.2l.4.1v.2l-.4-.1v-.2zm.4 8.7l.7.1c.3 1.3.5 2.2.5 2.6v.1l-.1.4c-.4 0-.7-1.1-1.1-3.2zm.6-1.6v.2h.4v-.2h-.4zm.1-15.9h.4c0 .2.1.4.2.7l-.2-.1c-.3 0-.4-.1-.4-.3v-.3zm.2-1.8l-.1.7h.2l.1-.7h-.2zm.3 17.8l-.1.7h.2l.1-.7h-.2zm.1 2.5c.2 0 .6 1 1.2 3-.1 0-.2.1-.2.2.1 0 .2.1.2.2h-.4l.1-.7-.4-.1-.1.4-.4-.3c.2-.4.4-.6.5-.6-.3-1-.5-1.7-.5-2.1zm.3-8.8l-.1 1.1h.2l.3-1.1h-.4zm0-4.9c0 .3.1.4.4.4l.1-.4h-.5zm.1-1.3v.2h.4v-.2h-.4zm.3-2.7l.4.7c-.3 0-.5.1-.5.4l-.1.2h.3c.3 0 .4-.2.4-.6-.1-.2-.1-.4-.1-.6v-.1h-.4zm.1 5.4c0 .1-.1.4-.3.6v.2l.2.1c0-.2.1-.4.3-.7v-.2h-.2zm-.2 2.6l-.1.4.2.1.1-.4-.2-.1zm.2-14.1v.4h.2v-.4h-.2zm.2 15.3l-.1.4h.2l.1-.4h-.2zm.3-6l-.3.4-.1.7h.2c0-.4.2-.6.6-.6h.1l.1-.2c-.1-.1-.4-.2-.6-.3zm-.2-.5v.2l.4.1v-.2l-.4-.1zm.1 10.8l-.1.4h.2l.1-.4h-.2zm0 .9c.1.3.3 1.5.6 3.4l.4.1v-.2c-.3-.4-.5-1-.5-1.8 0-.3 0-.6.1-1v-.2c0-.3.2-.4.6-.4h.1l.1-.4c-.5.4-.9.6-1.3.6l-.1-.1zm0 4v.4l.2.1v-.4l-.2-.1zm.1-19.5l-.1.7h.2l.1-.7h-.2zm-.1 14.4h.5c.1-.7.2-1.1.3-1.1l-.2-.4c.2-.3.3-.5.3-.7-.3 0-.6.7-.9 2.2zm.6-12.8l-.4 1.5-.1.4.2.1c0-.4.3-.8.8-1.3-.3 0-.4-.2-.4-.6v-.1h-.1zm-.3 7.9l-.1.9.6.1c-.1-.2-.1-.4-.1-.7v-.2l-.4-.1zm.1-.9l-.1.4.4.1.1-.4-.4-.1zm0 2.2l-.1.4.4.1v-.1c.1-.2 0-.4-.3-.4zm.1-13.9v.2l.4.1v-.2l-.4-.1zm.2 2.9l-.1 1.3h.2c0-.7.1-1.1.3-1.3h-.4zm0 7.7l-.1.4.2.1.1-.4-.2-.1zm.1-.7l-.1.4h.2l.1-.4h-.2zm0 9.4v.2l.4.1v-.2l-.4-.1zm0-10.3l-.1.7h.2l.1-.7h-.2zm.4-11.5l-.3.9.4.1c0-.3.1-.6.3-.9l-.4-.1zm.5 6.9l.2.4c-.3 0-.5.2-.5.4v.2l.4-.2.4.1c0 .2-.3.4-.7.6 0-.1-.1-.2-.2-.3-.1 1.2-.2 1.8-.4 1.8.1.3.2.5.2.7l.2.1c0-.3.2-.6.5-.9l.1-.2-.2-.4.4-.2c0 .1.1.2.2.2 0-.1.1-.2.2-.2h.1c0 .1.1.2.2.2v-.4l-.8-.3c.3-.3.5-.6.5-.9-.1-.3-.2-.5-.2-.7h-.6zm-.5 17.7l-.1.7.2.1.1-.7-.2-.1zm-.1-20.9l-.1.6.4.1c-.1-.3-.2-.5-.2-.7h-.1zm0 14.4v.2c0 .3.1.4.4.4v-.3c0-.2-.1-.3-.4-.3zm.2 7.9h.4l.1-.4c-.3 0-.5.1-.5.4zm-.1-23.4v.2h.4v-.2h-.4zm.1 3.6l-.1.4h.2l.1-.4h-.2zm.1-1.6v.4l.2.1v-.4l-.2-.1zm.3 22.3l-.1.4.2.1.1-.4-.2-.1zM154 66c0 .4-.2.6-.6.6h-.1v.4l1.1.3v-.2c-.1-.2-.1-.4-.1-.8v-.4l-.3.1zm-.5 36.8l-.1.4c0 .3.2.5.4.5h.2l.1-.2c0-.2-.2-.4-.6-.7zm-.1-34.6l-.1.4.7.1v-.2c-.1-.1-.4-.2-.6-.3zm.2 24.3l-.1.4.2.1.1-.4-.2-.1zm0 9.2l-.1.2.4.1.1-.2-.4-.1zm.2-21.3c0 .1-.1.4-.3.6.4 0 .6.2.6.6v.1l.2.1c0-.1.1-.6.3-1.3-.1 0-.2.1-.2.2l-.4-.3h-.2zm-.2 4v.2l.4.1v-.2l-.4-.1zm.3 21.2l.4.1c.3.1.5.2.7.3l-.1.7c-.5-.5-.8-.7-1.1-.8l.1-.3zm.2-18.5v.4h.2l.3-1.1h-.1c-.2.1-.4.3-.4.7zm0-9.7v.2l.4-.2c0 .1.1.2.2.2l.1-.7h-.2c-.3.2-.5.3-.5.5zm.1 1.4l-.1.9.2.1.1-.9-.2-.1zm1.3-18.8l.2.4c-.1 1.1-.4 1.7-.8 1.7l.2.5v.2l-.7-.1v.1c0 .3.3.6.8.9.2-1.6.5-2.4 1.1-2.4h.1l.1-.2c-.3 0-.4-.1-.4-.3.2-.3.3-.5.3-.7l-.4-.2-.5.1zm-1.1 4.2l-.1.2c0 .3.2.4.4.4l.3.2.1-.2c0-.3-.2-.5-.5-.5l-.2-.1zm.1 20.7v.2l.4.1V85l-.4-.1zm0-.7v.4l.2.1v-.4l-.2-.1zm.4 8.6l-.1.4c.3 0 .4-.2.4-.5l-.3.1zm.1 1.6l-.1.2.4.1.1-.2-.4-.1zm.1-3.3l-.1.4h.2l.1-.4h-.2zm0-10l-.1.7c.3-.1.5-.2.7-.2l.1-.2c-.2 0-.5-.1-.7-.3zm-.1 2.7v.2l.4.1v-.2l-.4-.1zm.1-17.1v.2l.4.1.1-.7c-.3.1-.5.2-.5.4zm.3-10.5h.4l-.1.7h-.4l.1-.7zm.1 32.6l-.1.4.2.1.1-.4-.2-.1zm0-14.4l-.1.4.2.1.1-.4-.2-.1zm.2 4.8l.4.1.1-.4c-.3-.1-.5 0-.5.3zm.1 18l-.1.4h.2l.1-.4h-.2zm.6-42.3l-.1.2c-.1.3-.2.5-.3.7l-.4-.1.1-.2c0-.2.2-.4.7-.6zm-.4 18.7l-.1.4h.2l.1-.4h-.2zm.2 3.2c0 .3.1.4.4.4l.1-.4h-.5zm.3 13.2v.4l.2.1v-.4l-.2-.1zm0-26.7v.2l.4.1v-.2l-.4-.1zm.2 41.2v.4h.2l.1-.4h-.3zm0-28.8l-.1.4.2.1.1-.4-.2-.1zm.5 7.2h.3c.2 0 .4-.1.4-.4h-.2c-.3 0-.5.2-.5.4zm.3-1.6l.4.1V81c-.2 0-.4.1-.4.3zm.7-2.4l-.1.4.2.1.1-.4-.2-.1zm.2 5l.4.1v.2c-.2.3-.3.5-.3.6h-.2l.1-.9zm0-18.6l-.1.4h.2l.1-.4h-.2zm.7 11.1l.4.1-.4 2.2-.4-.1.1-1.1.3-1.1zm-.2 4.9c.3.1.4.2.4.4v.1h-.4v-.5zm.1-18l-.1.8.2.1c0-.3.2-.7.6-1.3l-.2-.1c-.3.1-.5.2-.5.5zm.2 17.5l.2.1-.1.4-.2-.1.1-.4zm.5-16.1c-.4.9-.6 1.4-.6 1.5v.4h.2c0-.6.2-1.2.6-1.7v-.2h-.2zm-.4-2.1l.4.1.1-.7.3-1.1h-.1c-.3 0-.5.6-.7 1.7zm.4 10.4l-.1.4.2.1v-.4l-.1-.1zm.4-9.2l-.1.2.2.1.3-.9c-.2 0-.4.2-.4.6zm.5 8.6l1.1.3.3-.4-.4-.2c0 .3-.1.4-.3.4h-.1v-.4c-.4-.1-.6.1-.6.3zm.8-13.9c-.4.6-.6 1-.6 1.1v.2h.2c0-.3.2-.6.6-1.1v-.2h-.2zm-.1-3.1v.4h.2v-.4h-.2zm.7 1.8c0 .3-.2.6-.6 1.1h.4l.3-.8v-.2l-.1-.1zm-.4 2.7l.4.1v-.4c-.3-.1-.4.1-.4.3zm.7 6.2l-.1.2h.4l.1-.2h-.4zm.1 1.3h.2c1.4-.2 2.1-.2 2.3-.2V67c-.7-.1-1.1-.2-1.1-.3-.9.2-1.4.4-1.4.7zm.3-9.8c0 .1-.1.4-.3.6l.4.1.1-.7h-.2zm.2 12.6l-.1.4h.2l.1-.4h-.2zm.3-13.5v.4l.2.1v-.4l-.2-.1zm0 11.5v.2l.4.1v-.2l-.4-.1zm2-1.4l-.1.2h.4l.1-.2h-.4zm.1 4l-.1.2.4.1.1-.2-.4-.1zm.5-2.8l-.1.2h.4l.1-.2h-.4zm.8-1.5l-.1.4h.2v-.4h-.1zm.3.9v.2h.2c.3-.1.6-.2.7-.2v-.2h-.2c-.3.1-.5.2-.7.2zm.8-.8c0 .3.2.5.5.5h.2c0-.3-.2-.5-.5-.5h-.2zm0 2.4v.2l.4.1v-.2l-.4-.1zm.1 1.1v.2l.4.1v-.2l-.4-.1zm.7-2.6l-.1.2c.4 0 .7.2 1.1.6l.1-.2c-.1-.3-.2-.6-.2-.9-.3.2-.6.3-.8.3h-.1zm.3-1.1l-.1.4h.2l.1-.4h-.2zm1.5-1.6l.2.1-.1.7-.2-.1.1-.7z"/><path class="st0" d="M175.4 70.5c.3.9.7 1.5 1.2 1.8 0-.6.2-1 .6-1h.2l-.4 1.1c.3 0 .4.2.5.7l.7-.5h.7v.2l-.6 1.1v.2h.4c0-.7.2-1.1.6-1.2h.2l.1.2-.2.4h.2c.3-.2.6-.2.9-.3 0 .2-.3 1.4-.9 3.4.3.7.5 1.3.5 2h-.2l.3.4-1.2 3.2.4.2v.3c0 .7-.2 1-.6 1.1l.2.4v.5c0 .1-.1.2-.2.2l.2.4v.2c0 .6-.2 1-.6 1l.2.4.1.4c0 .3-.1.4-.4.5 0-.1-.1-.2-.2-.2h-.1c0 .3-.1.6-.4 1.1h.2l.4-.3v.4c-.3 2.3-.5 3.4-.7 3.4l.2.4-.4.7h.4l-.2.4c0 .1.1.2.2.2-.2.5-.3 1-.3 1.4v.2h.2l-.2.4.1 2.7h-.2c-.3 0-.5-.5-.5-1.5h-.2l.1 2.2.4-.2.2-.1v.2l.3 2.2-.5-.2.1.2c0 .3.5.8 1.4 1.5.3.7.5 1.3.5 1.6-.3 0-.4.1-.4.3v.1c-1.1 0-1.6-.1-1.6-.3l-.4.2c-1-.7-1.9-1-2.4-1h-.1c0 .3-.1.4-.4.5h-.2c-.6 0-.9-.1-.9-.4-.6.2-.9.3-.9.5-.2 0-.9-.6-2.1-1.7l-.4.2h-.2c0-.3-.5-1.2-1.5-2.6l.2-1.2h-.1c-.4 0-.7-.5-.7-1.5l-.1-.9.2-1.3-.2-.4.2-1.3-.1-1.1h.4v-.4h-.4l-.1-.7h.4v.4l.2-.1v-.9l-.4.1c.3-.4.5-1.9.9-4.5 2-10.6 3.8-15.9 5.7-16l.4.2 1.3-.2zm-7.4 30v.2h.4v-.2h-.4zm1.7 1.9v.4h.2v-.4h-.2zm4.6-14.8l.4-.1v-.4c-.3.1-.4.3-.4.5zm1.3-5l.1.4.2-.1-.1-.4-.2.1zm.2-.5h.2l.2-1.1c-.3 0-.4.2-.4.6v.5zm.3-1.8l.1.4h.2l-.1-.4h-.2zm.8-2.5v.1c0 .4-.2 1-.5 1.7v.2h.2l.6-1.9-.1-.2-.2.1zm3.6-30.9l1.3 1.3.1-.3h.3c2.2 1.6 3.4 3.1 3.4 4.4 0 .1 0 .2-.1.3.1 0 .1.2.1.4v.3l-.1.2c-.8 2.4-1.3 3.8-1.3 4.2.1 0 .1 0 .1.1v.1c-.2 0-.3.1-.3.3 0 .1.1.3.1.4v.1c-.3 0-.7 1.2-1.4 3.6-.4.4-.9.9-1.7 1.2v-.1c0-.1-.1-.2-.3-.2-.1.5-.2.7-.3.7h-.2c-.3 0-.4-.3-.4-.7V63l-.3.1v-1.5l-.3-.1.1.3-.2 1c0 .2-.1.3-.2.3h-.1l-.2-.1c-.3 0-.5-.6-.6-1.8l-.3-.2-.1.6h-.2c-.3-.1-.5-.4-.5-1.1 0-.2 0-.5.1-.8l-.3.1-.2-.6c0-.1 0-.1.1-.1h.1l-.1-.4.2-1.7v-1.7l.3.1.1-.8.2.1-.1-.8c.5-2.1.9-3.1 1.2-3.1l-.1-.3v-.2h.3l.1-1c0-.1.1-.2.2-.2 0-.1-.1-.1-.2-.2.4-1.3.8-2 .9-2l.3.2c.2-.1.3-.2.5-.2zm-3.6 48v.7h.2v-.7h-.2zm.8-19.3l.1.2.4-.1-.1-.7c-.3.1-.4.3-.4.6zm.1 13.6v.7h.2v-.7h-.2zm.1-28.9l-.1.3.3.1.1-.3-.3-.1zm.1-1c.1.2.1.4.1.5l.2.1.1-.5-.4-.1zm.1 15.1v.4h.2v-.4h-.2zm0-15.4v.2l.3.1v-.2l-.3-.1zm.1 13.8l.1.4h.2l-.1-.4h-.2zm.8 5.6l.4-.1-.1-.4c-.2.1-.3.3-.3.5zm.7-1.8h.2l.1.4h-.2l-.1-.4zm.4-1.1l.2-.1.1.4-.2.1-.1-.4zm23-.2h1.1v.3c-.4 0-.6.1-.6.3v.8h-.6v.3h.6v.3h-.6v.5l1.4-.3h.8c-3.8 3.5-6.3 7.2-7.3 11-1.1 1.2-1.6 2.4-1.6 3.6h.5c-.1 1-.4 1.9-.8 2.5l.3.6-.3 1.4.3 1.9h1.3l2.7.3c0-.2.1-.3.3-.3v.6h-.6v.3h.6c.6 0 1.7-.3 3.3-.9l.3.6 4.1-1.1-.8 1.1h.3c.3-.2.7-.3 1.1-.3v.3c1.2-.6 2.6-.9 4.1-1.1 0 .4-.3.6-.8.6v.3l.3.6-.6.2.3.6-.6.8v.3h.6v.6c-1.3.4-2 .8-2 1.1.2 0 .3.1.3.3-.9.8-2.5 1.5-4.6 1.9l-.6-.2-.3 1.3h-.3v-.8h-.8v.8h-.8v-.8h-.6v.8h-1.1c-.4 0-.6-.3-.6-.8h-.6c0 .6-.2.8-.6.8l-.3-.6-.5.3c-.9-.6-1.7-.8-2.2-.8h-.3l-.5.3c-2.2-1.7-3.3-2.7-3.3-3l-.6.3-.6-.3c0 .2-.1.3-.3.3l-.3-.5h1.1v-.3c-.2 0-1.6-.6-4.1-1.9l-.3-1.1h-.3v1.1h-.3c0-.2-.1-.4-.3-.8v-.8c-.6-.1-1.3-1.4-2.2-3.9-.4-2.1-.6-3.5-.6-4.4 0-2.4.4-3.8 1.3-4.4.2 0 .3-.3.3-.8h.6v.3c-.4 1.6-.5 2.6-.5 2.7v.6h.3c0-.3.5-1.9 1.4-4.7h.6v.6c-.3.4-.7 2-1.1 4.7-.4.1-.6.3-.6.6l.6.3c1.2-4.1 2.2-6.3 3-6.6v.6l-.3.6c.3 0 .8-.5 1.6-1.4l.3 1.3c-1.2 1.6-1.9 2.5-2.2 2.5h-.3v-.3l.3-.6v-.2h-.3c0 .3-.2 1-.5 1.9l1.4.3v1.9h.3c.6-3.2 1.4-5.4 2.4-6.6v.6c.4 0 .6-.3.6-.8h.5v.2c-.7 1.2-1.1 2.1-1 2.7h-.3l-.6-.2v.8c.2 0 .5.1.8.3 1-2.2 1.6-3.3 1.9-3.3l-.3-1.3v-.3l.8.6c.2-1.6 1.6-3.1 4.1-4.4 0-.2.1-.3.3-.3v.3c-.2.4-.3.7-.3.8 1.2-.7 1.9-1.4 1.9-1.9.3 0 .7-.3 1.3-.8h.3v.6h.3l.5-1.9zm-17.2 16v.3c.2.4.3.7.3.8h.3v-.3c-.2-.3-.3-.6-.3-.8h-.3zm.6 2.8v.8h.3v-.8h-.3zm1.3-4.7c0 .9-.3 1.4-.8 1.4v.5l.6-.2c0 .1.1.2.3.2 0-.5.2-.8.5-.8-.2-.3-.2-.7-.2-1.1h-.4zm-.8 3.3c.1.4.3.6.6.6v-.6h-.6zm.3.9v.5h.3v-.5h-.3zm1.3-11.6v.8h-.5v-.3c0-.3.2-.5.5-.5zm-.3 7.1v.6h.3v-.6h-.3zm.1 11.3c.3 0 .6.3.8.8h-.3c-.4 0-.6-.2-.6-.6l.1-.2zm.7-19.5c0 .2.1.5.3.8-.2 0-.5.1-.8.3v-.6c0-.3.2-.5.5-.5zm-.2 9.3c0 .8-.1 1.4-.3 1.6.2.2.3.9.3 2h.3l.3-1.1-.3-.6c0-.6.3-.8.8-.8v-.5l-.6.3c-.2-.4-.3-.7-.3-.8l-.2-.1zm0-.8v.6h.6c0-.4-.2-.6-.6-.6zm.9 11.8h.3c.5.4.8.6 1.1.6 0 .3-.2.5-.5.5-.4-.1-.7-.2-.8-.2l-.1-.9zm1.2-23.9v.5c-.3.7-.5 1.1-.8 1.1v-.6c.3-.6.5-1 .8-1zm-.8 4.1h.8v.6c-.2 0-.4.1-.8.3v-.9zm11.7-9.9c.3 0 1.6.5 4.2 1.6 1.5 0 3.1 1.1 4.9 3.3l-.3.6c.4 1.2.6 2 .6 2.5v.3h-.8c0-1.3-.4-2.2-1.1-2.7 0 .2-.1.3-.3.3v-.3l.3-.6c-.7 0-1.4-.3-2-.8v.3c.1.7.4 1.1.8 1.1-.2.3-.3.7-.3 1.1h-.6v-1.1l-.5.3.3 1.3v1.4c0 .9-.3 1.5-.8 1.6 0-1.3-.2-1.9-.6-1.9l.3-.6v-1.7c-.6 0-.8-.3-.8-.8l-.6.3h-.2v-.3l.2-.6h-.5v-.6h.5v-.3h-.5l.3-.6h-.3l-1.4.3c-.3-.2-.6-.3-.8-.3 0 .6-.3.8-.8.8-.2-.3-.3-.6-.3-.8h-.3v.8h-.6l.3-1.3c-1.9.7-3.7 2.1-5.2 4.1-.4 0-.6.5-.6 1.4h-.3l-.6-.3v.3c.4 0 .6.2.6.5-.8 0-1.8.9-3 2.5v-1.7c-.3 0-.5-.2-.5-.6V80c0-.3.3-.5.8-.8h.3l-.3.6v.8h.6c1.4-3.3 2.3-5.1 2.7-5.2l1.6-1.1h.3l-.3.5h1.1c0-.8.9-1.5 2.7-1.9v-.6H199V72c.7-.3 1.7-.5 2.9-.5zm-8.9 3.3v.3c-.4 1.1-1 1.8-1.7 2v-.3c.8-1.3 1.3-2 1.7-2zm.5 1.1v.8h-.6v-.3c.1-.3.3-.5.6-.5zm-.1 25.3v.8h.3v-.8h-.3zm.1-27.5h.5v.6h-.5v-.6zm.2 30.2h.2v.6h-.2v-.6zm0-28.8h.6c0 .4-.2.6-.6.6v-.6zm.9-1.9h.3c0 .4-.2.6-.6.6h-.3c.1-.4.3-.6.6-.6zm.3.8h.6v.3h-.6V74zm1.3-2.2h.5c0 .2-.4.7-1.3 1.4h-.3v-.3c0-.3.4-.7 1.1-1.1zm-.8 4.1v.6h.3v-.6h-.3zm0 .9v.3h.6v-.3h-.6zm.2 27.1v.6h.3v-.6h-.3zm.4-28.3v.3h.8v-.3h-.8zm1-1.6h.6v.3h-.6V74zm.1 6.1v.5c.3 0 .5-.3.8-.8v-.6c-.3 0-.5.3-.8.9zm4.7-2.6c0 .4-.5 1-1.4 1.7l-2.4 4.4c.2.4.3.7.3.8l-.6-.3-.3.6v.3h.6c.3 0 .7-.4 1.1-1.1-.2 0-.3-.1-.3-.3.4-.4.8-.6 1.1-.6v-.5h-.3c-.3.2-.6.3-.8.3.7-.8 1.1-1.4 1.1-2 1.1-1.2 1.7-2 1.7-2.2l.5.3h.3l-.3-.6c.2-.3.3-.6.3-.8h-.6zm-4.2 3.3h.6v-.6c-.4.2-.6.3-.6.6zm.3.6v.6h.3v-.6h-.3zm.6-1.1v.6h.3v-.6h-.3zm.5 0c.4 0 .7-.5.8-1.3-.4-.1-.7.4-.8 1.3zm.5-4.1h.3v.6h-.3v-.6zm2.4 29.3v.3h.5v-.3h-.5zm8.6-23.6l.3.6v.3l-.6-.3c0 .9-.6 1.7-1.9 2.5l-1.9-.3c0-.3.3-.5.8-.8v.6h.8c.4-.1 1.2-1 2.5-2.6zm-2.7-2.2h.3v.8h-.3v-.8zm.5-4.1l.6.3v-.8c-.4 0-.6.2-.6.5zm.9 9.6h.3c0 .3-.2.5-.6.5h-.3c.1-.3.3-.5.6-.5zm2.1-8.3c.4 0 .6.2.6.5v.3h-.6v-.8zm13.3-20.6c.4.1.7.2.7.4-.3.5-.4.9-.4 1.2.4-.2.6-.6.6-1.1v-.3l.4-.1h.1c.3 0 .4.2.5.6-.1.3-.2.5-.2.7h.2c.3-.2.6-.2.9-.3 0 .1.1.2.2.2h.1c.1-.2.2-.5.2-.8v-.3l.8-.1.1.4h-.4l.1.2c0 .1.1.2.2.2l-.2.4c.2.3.2.5.3.7l-.4 1v.2l.2-.1c0-.6.2-.9.6-1l.1.4-.8 1.9h.4l.1.4-.4-.2v.4l-.6.1-.1-.7-.2.1v.2c0 .4-.1.9-.3 1.4.3 0 .4.1.4.2l-.2.4c.3.4.5.8.6 1.1-.4 0-.8.7-1.2 1.9l-.2.1-.1-.4.4-.7-.1-.2-.4.1c0 .4-.1.8-.3 1.3h.4v.4l-.4-.2c-.4.9-.7 2.6-1.1 5h.4l-.3-.4v-.2l.4-.1.3 1.1.1.2-.2.4-1.1-.3-.1 1.1v.2l.4-.2.1.2c-.2 1-.4 1.6-.6 1.6l.3.4.1.4h-.1c-.3 0-.4-.2-.5-.6-.2 0-.6 1.1-1 3.3l.4-.3h.2l.1.2c-.7.9-1.1 2.2-1.4 4.2l.1.7h.2v-.5c0-.6.1-.9.3-.9l.4-.1v.5c0 1-.2 2.4-.5 4.3h-.4c0-.9.2-1.5.5-2.1l-.1-.7-.2.1c-.3 1.2-.4 2.1-.4 2.6v.2h-.4v-.4l-.2.1.1.7c.2.3.2.5.3.6-.6.2-.8.4-.8.7v.3l.2-.1-.1-.4h.4l.1.6c.3 0 .4-.2.4-.7v-.2l.4-.1-.1 1.1.4.2V89c0-.4.2-.9.6-1.5l-.3-.4c.2 0 .4-.3.6-1h-.1c-.2 0-.3-.1-.3-.4l-.1-.2c.6-.1.9-.7.9-2v-.6l1.3-5c-.2-.3-.3-.5-.3-.7l.4-.2.2-.1.1.4h.2l-.1-.4.4-.1c-.1.9-.3 1.4-.6 1.4l.3.4.1.4v.1c0 .4-.4.6-1.1.7l.1.4.4-.2c0 .1.1.2.2.2h.1c-.2.9-.4 1.4-.8 1.5l.1.7c.1.3.2.4.4.4h.1c0-.9.2-1.4.6-1.4l.1.2c-.2 1-.3 1.6-.3 1.9l.4-.3v.2c-.2.4-.4 1.4-.6 3v.2c1.3-.7 2.1-1.6 2.4-2.7l.5.2c.2-.2.5-.2.8-.3l-.2-.4-.1-.2c1.2-.1 2.3-1 3.3-2.8.6-.1 1.7-1.1 3.3-3 .2 0 1.4-1.2 3.7-3.5l.2-.1c.1 0 .2.1.2.2l.8-.6.3.4c-.1 0-.2.1-.2.2l.5.2c0-.3.1-.5.4-.5h.2c.3 0 .4.1.4.4l.1.2-.2.4.4.2c0-.3.1-.5.4-.5v.2c-.1.2-.1.4-.1.6v.1h.2l.8-.7c0 .1.1.2.3.2l-.2.4.1.7.4-.2.4-.1c0 .1-.1.2-.2.2l.8.8c0 .1-.1.2-.2.3.2.6.4 1.1.4 1.5h.2v-.2c0-.3.1-.5.3-.6l-.2-.4-.1-.2.7-.1v.2c0 .7-.4 1.4-1.1 2.1h-.1c-.1 0-.2-.1-.2-.2-.4 0-1.2.6-2.3 1.8h-.2l.3.4c-2.8 1.8-4.1 3-4.2 3.6h.2c.3-.2.5-.3.7-.3v.2c-.9 1-1.4 1.6-1.4 1.7l.4-.1v.4c-.4 0-2.4 1.7-6.1 4.9-.2 0-.8.5-1.7 1.3v-.2c.8-1.1 1.5-1.8 2.3-2l-.1-.2-.6.1c-1.6 1.5-2.7 2.3-3.4 2.4v-.2l-1.1.3v.2l.9-.1.1.4c-.4 0-.6.2-.6.5v.1l.9-.1v.4c-.6 0-1.1.5-1.4 1.5-.5 0-.8.2-1.1.3l-.4-.2c-1.5.7-2.3 1.5-2.5 2.3v.2h.2v-.1c0-.4.6-1 1.8-1.9h.2l.1.4c-1 .4-1.6 1.1-1.6 2.1v.4c0 .4-.1.6-.4.6l-.1-.2.2-.4-.7.1-.5 4.3h-.4v-.7c0-.5.1-1 .3-1.6l-.3-.4c.1-.2.2-.4.2-.7v-.2c-.7.1-1.1 1.1-1.1 3l.3.8c-.3.1-.4.2-.4.5l.2 1.8-.4.1v-.2l.2-.5-.4-.2.1-1.1c0-.1-.1-.4-.3-.7.1-.6.2-.9.4-.9l-.3-.4-.1-.4c0-.7.1-1.1.4-1.2l-.3-.4.2-.5-.4-.2c0 1.3-.1 2-.3 2.1l.3.4c-.1.6-.2 1-.4 1 0 .2.1.2.2.2l-.2 2.7h-.2l-.1-.6v-.1c0-.1.1-.2.2-.2l-.2-.4v-.1c0-.1.1-.2.2-.2l-.2-.4.1-1.2-.1-.4-.2.1.1.9h-.4l.1-1.6h.2l.4.2v-2.9l-.4.1.3.4c-.1.6-.1 1.1-.1 1.5v.3l-.4.1v-2.2c-.2 0-.5.6-.7 1.9l-.4.3c0-.6-.2-.8-.5-.8h-.1l.2-.5v-.2l-.4.1.4-.7-.5-.2h-.2l-.4 2.1c.3 0 .4.2.5.4l-.4.2h-.1c-.2 0-.4-.1-.4-.4V100l-.4.2-.2.1.2-1.1c-.2-.3-.3-.5-.3-.7.1 0 .2-.1.2-.2v-.1h-.1c-.4 0-.6-.3-.7-.8.2-.4.3-.8.3-1.3v-.5l.4-.1.1.2-.2.5.2-.1.6-.5-.2-.4c.7-.7 1-1.8 1-3.1 0-.3 0-.7-.1-1-.2 0-.2-.1-.2-.2h.4l-.1-.7-.5-.7h.2l.4.2c0-.1.1-.2.2-.2l-.3-.4c.4-.7.7-2 .8-3.9l.7-.1.1.4-.4.1c0 .1.1.4.3.6-.2 3-.5 4.6-.9 4.6 0 .1.1.2.2.2l-.3 3.4c.2 0 .4-.5.7-1.4-.1 0-.2-.1-.2-.2.3 0 .6-.5 1-1.4l-.1-.4-.2-.4.4-.2c-.3-.5-.5-1.1-.6-1.8l.4-.2c0 .1.1.2.2.2h.1c.2-1 .3-1.6.3-1.8l.4-.1v.2l-.1 1.1c.3 0 .5-.7.5-1.9l-.2.1-.4.2V86c.1-.3.2-.5.2-.7l-.4.1.1.7h-.4c.4-2.6.7-3.9 1-3.9l.1.7c0 .3-.1.4-.4.5l.3.4-.2.4v.2h.2v-.1c0-.4.1-.6.4-.6l.4.2h.2v-.2h-.1c-.4 0-.6-.1-.6-.4v-.1c0-.4.3-1 .8-1.7l-.1-.2-.4.1v-.3c0-.3.2-.4.6-.5l-.1-1.1-.8 1-.1-1.1h-.2l-1 5.8h-.4c.1-.4.1-.8.1-1.2v-.4h-.2l-.1-.4.4.2.2-.1-.3-1.1c.2-1.2.4-1.9.5-1.9l-.3-.4-.1-1.3.7-.1-.5-.6c.4 0 .8-1 1.1-2.8h.2c-.3-.6-.5-.8-.7-.8h-.1c-.7 4-1.2 6-1.5 6l.3.4c-.4.7-.6 1.2-.6 1.4l-.4.1c0-.3-.1-.4-.3-.4v-.1c0-.4.2-.6.6-.6v-.4l-.4.1c.7-2.7 1.1-4.3 1.1-4.8v-.1l.5.2-.1-.4h-.2c-.2 0-.3-.1-.3-.2l.3-1-.1-.7c.5-.8.7-1.4.7-2v-.1l-.3-.9c.3-.7.6-1.7.8-3h.2l-.3-.4c.4-.5.7-1.3.9-2.6.9-3.6 1.6-5.4 2.2-5.6v-.4c-.4-1.2-.1-1.9.5-2.5zm-8.2 37.3l.4-.1v.2l-.1 1.1-.4.1.1-1.3zm.6-5.1l.4-.1-.4 4.6h-.4l.4-4.5zm.2-.9l.4-.1.1.4-.4.1-.1-.4zm.9-4.1l.1.9h-.3c-.2 0-.4-.1-.4-.4l.6-.5zm-.5 1.4h.2v.4h-.2v-.4zm1-1l.7-.1v.1c0 .2-.1.4-.4.4h-.2l-.1-.4zm.1 15.2v.2h.4v-.2h-.4zm0-4.4l.1.4c.3 0 .4-.2.4-.4v-.1l-.5.1zm.6 11.4l.4-.1v.4l-.4.1v-.4zm.6-3.7l.1.7h-.4v-.2c-.1-.3 0-.5.3-.5zm.3-16l.1.7v.1c0 .2-.1.4-.4.4l-.1-.7c0-.3.2-.4.4-.5zm0 19.6l.4-.1v.4l-.4.1v-.4zm.1-15.8l-.1 1.1c.3 0 .4-.1.4-.3v-.1l-.1-.7h-.2zm.3-16.8l.1.4.2-.1-.1-.4-.2.1zm0 15.3l.1.7.4-.1c-.2-.3-.3-.5-.3-.7l-.2.1zm.2-7.7l.4-.1-.1 1.1-.2.1-.1-1.1zm.4-10.2v.1c0 .3-.1.7-.3 1.3l.1.2h.2l.3-1.4-.1-.2h-.2zm.3 5.8v.1c0 .2-.1.4-.2.6l.4-.1-.1-.7-.1.1zm-.1-6.5l.1.4h.2l-.1-.4h-.2zm.4 11.9l-.1 1.4c.2 0 .4-.5.6-1.4h-.5zm.1 3.6l.1.4h.2l-.1-.4h-.2zm0-17.3l.1.2.4-.1-.1-.2-.4.1zm.8 3.5v.1c0 .4-.2 1.2-.7 2.4h.4l.4-2.3v-.2h-.1zm-.6 13.1l.1.4h.2l-.1-.4h-.2zm.1-.9v.2l.4-.1v-.2l-.4.1zm0-17.1l.1.2h.4l-.1-.2h-.4zm.1 10.3l.1.4h.2l-.1-.4h-.2zm1.9-17.9l-1.8 7.3c.7-1.6 1.4-4 2-7.2v-.2l-.2.1zm-1.5 12.3l.4-.1v-.4c-.3.1-.4.2-.4.5zm.7 28c0 .1-.1.4-.2.7h.4l-.1-.7h-.1zm.1 5.8h.2l.1 1.3-.4.1v-.2l.1-1.2zm.2-37.3v.1c0 .2-.1.5-.3.8h.2c.3 0 .4-.2.4-.6v-.1l-.1-.2h-.2zm-.3 2.5v.2h.1c.2 0 .4.1.4.4h.2l-.1-.4-.4-.2h-.2zm.4-3.6l.1.9h.2l-.1-.9h-.2zm.2 7.1c0 .1-.1.4-.2.7l.7-.1-.1-.2c.1-.2-.1-.4-.4-.4zm.2 2l.4-.1v.3c0 .2-.1.4-.4.4h-.2c.2-.2.2-.4.2-.6zm.3 10.6l.3.4c-.3.1-.4.2-.4.5.1.3.2.4.4.4h.1l.1-1.1v-.2h-.5zm1-3.5l-.9 2.1.1.4h.2l.3-1.4.4.2.2-.5-.1-.9-.2.1zm-.9-15.2l.1.2.4-.1v-.2l-.5.1zm.4-5.4v.4h.2v-.4h-.2zm.9 15.2l.1.4.2-.1-.1-.4-.2.1zm.1 18l.1.2.7-.1-.1-.2-.7.1zm.5-25.9l.1.2c0 .3-.1.5-.4.5l-.2-.4c.1-.1.3-.1.5-.3zm-.6 5.8h.4v.1c0 .2-.1.3-.4.3v-.4zm.2-8.2l.7-.1-.3 1 .1.7-.4.3v-.2l-.1-1.7zm1.6 4.7h.2c.3 0 .5.2.5.4-.3 0-.4.3-.4.8v.2h.2l.1.4h-.2l-.5-.2v.2c0 .5-.2.9-.7 1.2h-.2l-.5-.2c.1-1.2.3-1.8.7-1.9l.1.7.4-.1-.1-1.1c0-.2.1-.4.4-.4zm-1.5 15.5v.2c.1 0 .4.1.7.2l.4-.1v-.2h-.2c-.3 0-.5 0-.7-.1h-.2zm.2-7.5l.4-.1.1.4-.4.1-.1-.4zm.1.9c.3 0 .4.2.4.4l-.4.1v-.5zm.2-5.2h.4c0 .3-.1.4-.4.5v-.5zm0 2.7h.4v.4h-.4v-.4zm0-11.9l.4-.1.1.4-.4.1-.1-.4zm.9 2.8h.2v.4l.7-.5h.2c-.2.5-.3 1-.3 1.4v.2h.2c-.1.5-.4.8-.8 1l-.3-.4.4-.7-.1-.4-.4.1-.4 2.5-.2.1-.1-1.1c.3-1.7.6-2.5.9-2.6zm-.7 23.9v.2l.7-.1v-.1c0-.3.2-.4.6-.5v-.4c-.5.6-.9.9-1.3.9zm0-29.6v.4h.2v-.4h-.2zm.1-.7v.4l.2-.1V63l-.2.1zm.5 24l-.2.4h.2c.3-.2.5-.3.6-.3V87l-.6.1zm.2 8.1l-.1.9h.4l-.1-.9h-.2zm-.2-26.6h.4l.1.4h-.4l-.1-.4zm.4-8.8v.4c.3 0 .4-.2.4-.5l-.4.1zm.4 34.2v.2l.4-.1v-.2l-.4.1zm.1-1.8l.1.4.2-.1-.1-.4-.2.1zm.5-23.7l.3.4-.7.1c0-.3.1-.5.4-.5zm.3-1.6l.1.9v.1c0 .2-.1.3-.4.3l-.3-.4c.2-.5.4-.9.6-.9zm-.5 16.9l.4-.1v.2l-.4.1v-.2zm.1 8.6c.3-.3.6-.5.8-.5v-.4c-.6.3-.8.5-.8.7v.2zm.6 3.8l.2-.1.1.4-.7.1c0-.3.2-.4.4-.4zm-.3-.7l.4-.1v.2l-.4.1v-.2zm7.9-.7l.4-.1c0 .3.7.8 2 1.4.2.3.2.6.3.9h-.1c-.3 0-.4-.3-.5-.8h-.2l.1.4c1 .9 1.5 1.6 1.5 2.1 0 .1-.1.2-.2.2l.6.8c-.1.2-.2.5-.2.7v.2l.4-.3c0 .1.1.2.2.2h.1c0-.1.1-.2.2-.2l.1 1.3-.5-.2.1.4.2-.1.4-.2c.2.2.2.5.3.8l.4-.2c.3.3.5.8.6 1.5h-.2l.1.7.4-.3 1.2 1.7.1.4-.2.4h.1c.7 0 1.6 1.5 2.8 4.5-.3.1-.4.2-.4.4v.1h.1c.9 0 1.7.9 2.4 2.7.7.6 2.2 2.4 4.3 5.6 3.6 3.7 6.5 5.5 8.7 5.5h.3l.4-.1c2.4-2.2 4.3-3.4 5.5-3.7 0 .1.1.2.2.2 0-.3.5-.6 1.5-.8 0 .1.1.2.2.2h.1c0 .1-.1.2-.2.3l.3 1.1v.1c0 .6-.5 1.6-1.5 3v.1c0 .9-2 2.1-5.9 3.6 0-.1-.1-.2-.2-.2h-.1v.1c0 .1-.1.2-.2.2l.2.4-.2.4-.4-.2h-.4l-1.7 1.1-.4-.2v.1c0 .2-.1.3-.4.3 0-.3-.2-.4-.4-.4h-.1v.1c0 .2-.1.4-.4.4-.3-.3-.5-.6-.6-.9l-.6.5c0-.1-.1-.2-.2-.2h-.1v.1c0 .4-.5.7-1.5.7 0-.3-.2-.4-.4-.4h-.1l-1.1.3c-2.1-1-3.2-1.5-3.3-1.7-.3.2-.5.2-.7.3-1.7-.6-3.6-1.9-5.7-4-.6-.5-1.3-1.4-2.1-2.7-.2 0-.7-.6-1.5-1.7-.2 0-.6-.5-1.2-1.4.3 0 .4-.1.4-.3v-.1c-.3-.6-.5-.8-.7-.8h-.1c0 .1-.1.2-.2.2v-.4l.2-.4c-.6-.2-.9-.4-1-.6l.2-.4h-.1c-.4 0-.6-.1-.6-.4l.2-.4v-.2h-.2v.4c-.8-.6-1.2-1.3-1.3-2.3h.2l-.1-.4-.4.2c-1.4-2.2-2.1-3.4-2.1-3.6.1-.2.2-.4.2-.6v-.1c-.6-.3-1.4-1.8-2.7-4.5l.2-.5c-.6-.9-1.4-2.9-2.6-5.8V99c0-.8.3-1.3.8-1.3.6-.5 1.1-.8 1.7-.8l-.1-.7h.2l.4.2v-.1c0-.4.4-.7 1.1-.7v.2c.6-.1.8-.3.8-.7V95l.7.4.4-.3.5.2c.2-.2.5-.2.8-.3 0 .1.1.2.3.2l.2-.4zm-7-30.9l.1.4c-.4 1.7-.7 2.5-.9 2.6l-.1-.2v-.3c0-1.1.3-1.9.9-2.5zm-.2 27.1l.1.4h.2l-.1-.4h-.2zm3.8-2.9l.1.4c.3 0 .4-.1.4-.3v-.1h-.5zm.5 2.4l.7-.1-.1-.4h-.2c-.3.1-.4.3-.4.5zm1.2-2.1v.2l.4-.1v-.2l-.4.1zm.2-1.8v.2h.2c.6-.3.8-.5.8-.7h-.2c-.3.3-.6.5-.8.5zm.8 1.2h.2c1.5-.9 2.3-1.5 2.3-1.8v-.2c-1.5 1-2.4 1.7-2.5 2zm.1.7v.2l.7-.1.2-.4h-.2c-.4.2-.6.3-.7.3zm1.5-.8l.4-.1-.1-.4c-.2.1-.3.2-.3.5zm.7-3.9v.2h.4v-.2h-.4zm.4 1.8v.4h.2l-.1-.4h-.1zm1.8 35.6v.2c.2.3.3.5.3.7l.2-.1-.1-.9-.4.1zm-.1-36.7h.2l.1.5h-.2l-.1-.5zm.7 17.7l.1.7h.4c-.2-.3-.2-.5-.3-.7h-.2zm.6 8.1l.1.7.4-.1c-.2-.3-.3-.5-.3-.6h-.2zm-.1-27l.7-.1v.1c0 .2-.1.4-.4.4h-.2l-.1-.4zm.6 27.8l.1.7c.3.6.5.8.7.8h.1l-.1-.2c-.3-.3-.5-.7-.6-1.3h-.2zm.2 9.5l.1.4.2-.1-.1-.4-.2.1zm0-17.3l.1.4.2-.1-.1-.4-.2.1zm-.1-20.3l.4-.1v.2l-.4.1V83zm.3 22.7l.1.4c.3 0 .4-.1.4-.3v-.1h-.5zm.1-23h.4l.1.2h-.4l-.1-.2zm.2 38.5l.1.4h.2l-.1-.4h-.2zm.2-14.6l.1.4.4-.1-.1-.4-.4.1zm.7 7.5v.2c.2.3.3.5.3.7l.2-.1v-.2c-.2-.3-.3-.5-.3-.6h-.2zm.2-5.9l.1.4c.2.3.2.5.3.7h.2l-.1-.4c-.2-.3-.3-.5-.3-.7h-.2zm.5 1.4v.2l.4-.1v-.2l-.4.1zm.4-32.2l.1.2.4-.1-.1-.2-.4.1zm.4 33l.1.4.2-.1-.1-.4-.2.1zm0 .7c.2.2.3.5.3.8h.2l-.1-.9-.4.1zm.9-.4l.1.4h.2l-.1-.4h-.2zm.7 2.7l.1.7h.2l-.1-.7h-.2zm.5.6l.1.4.2-.1-.1-.4-.2.1zm.6 1.1l-.2.4.7-.1c0-.3-.2-.4-.4-.4l-.1.1zm.6 7.1c.3 0 .4-.1.4-.3v-.3c-.3.1-.4.2-.4.4v.2zm.7-5.2l.1.4.4-.1c0-.3-.2-.4-.4-.4l-.1.1zm.3.9l.1.2h.4l-.1-.2h-.4zm11.4 11.5l.1.4.4-.1c0-.3-.2-.4-.4-.4l-.1.1zm2.4-.5l.1.2.4-.1-.1-.2-.4.1zm-4.1-43.8c.3.5 1.7.4 2.2.3-.5-.3-1-.3-1.4-.7.8-.8 3.6.8 4.9.5.1 0 .9-.3.9-.3.2-.5-.4-.7-.3-1 .2-.7 1.6-.4 2.3-.4.7 0 1.8.1 2.4-.3.6-.5.7-1.1 1.6-1.5 1.5-.8 2.7-1.1 3.9-2.4.7-.7.7-.8 1.8-.7.3.1.3.5.7.4.3-.1.3-.6.6-.7.7-.6 1.3-.2 2.1-.5s1.3-1.3 1.7-2c.8.1 1 1.1 2 1.1.8.1 1.5-.6 2.4-.7 1.1-.1 1.7.2 2.8-.3.8-.4 1.5-1.1 2.4-1.3.5 1.1-.2 3 1.1 3.1.4.1 3.7-1.4 2.4.3.8 0 2.3.3 2.8-.2-.2 1.1.6 1.3 1.6 1.2.9-.1 1.5-.1 2.4 0s1.6.1 2.2-.6c.5-.6.7-1.5 1.6-1.6.1.7-1.1 2.7.7 1.9.8-.3 1.1-1.5 1.5-2.1.2.4.2.8.2 1.3 1.1.3 1.3-1.1 1.2-1.9-.2.2-.4.2-.4.7-.7-.3-.3-1.3-.6-1.9-.2.3.2.6-.2.7-1.2-1.1-1.9-2.5-3.2-3.4-.7-.5-1.6-.9-2.3-1.3-.7-.5-1.3-1.1-2-1.6-1.3-.9-2.8-1.5-4.4-1.9-1.8-.5-2.5-1.5-3.9-2.6-1.3-1-3.2-1.8-4.8-1.8-.9 0-1.6.2-2.4.6-.7.4-1.3 1.2-2 1.6-1.8.8-3.5-.6-5.1-.7-1.9-.1-3.7 1.3-5.2 2.4-2.4 1.8-4.6 4.4-6.4 6.8-.4.6-.7 1.2-1.2 1.8-.5.5-1.3.7-1.8 1.2-.4.5-.7 1.4-.7 1.9-.1.8.2 1 .3 1.6-.6.1-1.4-.3-1.8 0 1.2.9-.9.9-1.4 1.4-.2.3-1.1 1.5-1.2 1.9.5.4-.4 1.2 0 1.7zm43.9-10.3l.1.1c1.4-.2.1 1.6-.3 2-.7-.4-.6-1.9.2-2.1zm-7.4 1.7c.1-1.1 1.2-2 1.4-3.2.3-1.5 1 0 .5 1-.3.7-.9 2.7-1.9 2.2zm-11.8-5.9c.2-.8.8-.5 1.1-.1.2.3.2 1.2.3 1.6.1 1.2.4 2.4.3 3.6-1 .1-2.7-4.9-1.7-5.1zm-.6-3.7c1-1.1 1.6 2.1 1.4 2.4-.8.6-2.1-1.6-1.4-2.4zm-2.1 5.1c.2-.3.6-.5 1-.4-.1.7.4 1.3.3 2-.5.2-1.2-1.1-1.3-1.6zm-2 1.4c.3-1.2 1.1.1 1.2.4.2.5.4 1.1.5 1.6-.9.4-1.9-1.2-1.7-2zm-2.3.7c.1-.2.2-.2.4.1.3.4.9.9 1.2 1.5.2.3.3.7.2 1-.6 1.8-1.8-.2-1.9-1 0-.2-.1-1.2.1-1.6zm-7.7 2.5c-1.1.3-2.5-.7-2.3-1.9.4-.1.7-.1.9.2-.1-.1-.2 0-.3-.1 0 .4 1.5 1.1 1.7 1.8zm-1.9 1.4v-.1.1c.7-.6 2.2.7 2 1.6-.6.1-1.9-1-2-1.6zm-.8 3.3c.4.5 1.5.7 1.4 1.5-.7.2-1.3-.8-1.4-1.5z"/><path class="st0" d="M265.1 91c.6.3 1.1.9 1.6 1.2.7.4 1.4.6 2.2.9.3 1.4 6.7 3.7 6.9 2 .8.2 1.6 1.5 2.3 2 1 .7 2.1.5 3.2.5 2.6 0 4.9-.1 7.4-.6 1.8-.3 3.8.1 5.3-1 .7-.5.8-1.2 1.2-1.9.5-.8 1-1 1.8-1.4.7-.4 1.1-1.1 1.8-1.5.8-.5 1.3-.2 2.1-.9.6-.6 1.1-.8.9-1.6-.2-1-1.6-1.2-1.4-2.4.9.1 1.2 1.9 2 2 .5.1 1.5-1.2 1.8-1.6.5-.7.4-1.8 1-2.4.7-.7 1.4-.6 1.2-1.9-1-.2-.5-1-1-1.5-.7-.6-1.1.3-1.8.3s-.9-.8-1.5-1c-.8-.3-1.2.7-2 .6-.6-.1-.9-.9-1.3-1.2-.7-.6-.7-.3-1.5-.3-.9-.1-3.1-.9-3.6.6-.2.7-1.2.3-1.2 1 .1.6 1 .5.7 1.4-1-.4-1.2-1.4-2.3-.5-.9.8-1.1 1.4-2.6 1.2-1-.1-1.8-.5-1.8.8 0 .7 1.1 2.4-.2 2.5 0-.6-.4-2.8-.8-3.2-.6-.5-2.8 0-3.1.6.2.5.5 1 .6 1.5-.8-.2-.6-1.8-1.9-1.4-.1.6.3 1.4 0 2-.6 1.2-1.1-.2-1.4-.9-.5-1.1-.7-1.1-1.6-1.6-1.7-.9-2.5-2.1-4.4-.7-.9.6-1.4 1-2.3 1.4-.8.4-1.1 1-1.8 1.6-.6.5-1.5.6-2.2.8-1.1.3-1.1.5-1.3 1.6-.2-.4-.5-.6-1-.5-.1.7-.3 1.3-.6 2-.5 1.2-.4 1 .6 1.5zm26.6-3.2c-.4-.1-.7-.3-1-.5-.1.6.2 1.2-.5 1.5-.6-.5-1.3-1.6-1.1-2.4.3-1.4.8.5 1.6.3 0-.2.1-.3.1-.5.1 0 .2-.3.2-.3.3.7.8 1.1.7 1.9zm-2.5 2.5c.1.3.2.7.5.7.8.1.2-.6.5-1 .5-.5 1.4-.6 1.6.2.1-1.2 1.4-.5 1.5-1.6.1 0 .2 0 .3-.1.1-.7-.1-1.9-.3-2.6-.2-.6-1.4-1.6-1-2.3 1-1.5 1.8 2.9 1.9 3.6.1.7-.1 1.2.2 2 .3.7.6 1.4.7 2.1-.6-.5-.6-1.2-1.1-1.6.3 1.2-.7.5-1.2.8-.5.4.1 1.4-.2 1.7-.7.7-.7-1.2-1-1.4-.6-.4-1 .3-.9.9-.1-.1-.3-.1-.4-.2 0 .7.3 1.5.2 2.3-1-.3-.8-3.2-2.1-2 .2-.6-.4-1.9.8-1.5zm-1.5-3.1l.2.3c.4-.1.7 2.3-.2 1.9-.6-.4-.2-1.9 0-2.2zm-3.6-1.2c.6-.1.5.3.5.7.2.6 0 1.4-.1 2-.9-.2-.7-1.4-.8-2-.1-.5 0-.6.4-.7zm-9.9 1.9c.2-.4.5-.7.6-1.1.2-.5-.3-1.2.2-1.2.5-.3.8.3.8.8-1.8.5-.4 4.7-1.8 4.6-.1-1-.3-2.2.2-3.1zm-1.6.7l-.2.2c.6-.1.6 1.5-.1 1.2-.6-.3-.3-1.3.3-1.4zm-3.1-1c.3.5.2 1 .1 1.5.4-.7.1-1.5.5-2.3.3-.6 1.1-.7 1.1-1.4.1.2.3 0 .2.1 0 1.4-.2 2.5-.1 3.8.1.3.3 1.7-.4 1.5-.5-.2-.2-1.2-.5-1.5-.2.7-.9 1-1.6 1 0 .5.2 1.2-.5 1.1-.5-1 .2-3.3 1.2-3.8z"/><path class="st1" d="M6.9 34.4c.1.4.2 1 .4 1.8.2.7.5 1.5.8 2.3.4.8.8 1.7 1.3 2.6.5.9 1.2 1.7 2 2.4.9.9 1.7 1.5 2.5 2 .8.4 1.6.8 2.3 1 .7.2 1.4.3 2.1.3h1.8c2 0 3.6-.3 4.9-.9 1.3-.6 2.3-1.4 3-2.3.7-.9 1.2-1.8 1.5-2.8.3-1 .4-1.9.4-2.6 0-1.4-.3-2.5-1-3.4-.7-.9-1.5-1.6-2.6-2.2-1.1-.6-2.3-1.1-3.7-1.5-1.4-.4-2.8-.8-4.2-1.3-1.5-.4-2.9-.9-4.2-1.5-1.4-.6-2.6-1.3-3.7-2.2-1.1-.9-1.9-2-2.6-3.4-.7-1.3-1-3-1-5 0-1.5.3-2.9 1-4.3s1.6-2.6 2.8-3.7c1.2-1.1 2.6-1.9 4.3-2.6 1.7-.7 3.5-1 5.4-1 1.2 0 2.3.1 3.2.3.9.2 1.7.5 2.5.7.7.2 1.3.5 1.9.7.5.2 1 .3 1.5.3s.9-.1 1-.3c.2-.2.3-.5.5-.9h.9v10.6h-.7c-.4-1.3-.9-2.6-1.4-3.9-.5-1.3-1.1-2.4-1.9-3.4-.8-1-1.8-1.9-3-2.5-1.2-.6-2.7-.9-4.5-.9-1.5 0-2.8.2-3.9.6-1.1.4-2.1.9-2.9 1.6-.8.7-1.4 1.4-1.8 2.2-.5 1-.8 1.8-.8 2.7 0 1.3.3 2.4 1 3.2.7.9 1.6 1.6 2.7 2.2 1.1.6 2.4 1.1 3.8 1.6 1.4.4 2.9.9 4.4 1.4 1.5.5 3 1 4.4 1.6 1.4.6 2.7 1.3 3.8 2.2s2 2 2.7 3.2c.7 1.3 1 2.8 1 4.7 0 1.8-.4 3.6-1.1 5.2-.7 1.6-1.8 3.1-3.2 4.3-1.4 1.2-3 2.2-4.9 2.9-1.9.7-4 1.1-6.3 1.1-1.2 0-2.3-.1-3.4-.3-.9-.2-1.9-.4-2.9-.7-1-.2-1.9-.5-2.6-.7-.8-.2-1.3-.3-1.7-.3-.5 0-.9.1-1.1.3-.2.2-.4.5-.6 1H6V34.4h.9zM53.9 7l9.7 27.8h.1L73.5 7h18.9v.8H82.3V46h9.1v.8H69.2V46h5.1V7.8h-.1l-13.7 39h-.9l-13.8-39h-.1V46h8.1v.8H39.6V46h5.1V7.8h-8.1V7h17.3z"/><path class="st1" d="M112.5 7v.8h-8.1v25.1c0 1.7.1 3.5.3 5.1.2 1.7.6 3.1 1.2 4.4.6 1.3 1.5 2.4 2.7 3.2 1.2.8 2.8 1.2 4.9 1.2 2 0 3.7-.2 5.1-.7 1.4-.5 2.5-1.1 3.4-1.8.9-.8 1.6-1.6 2.1-2.6.5-.9.8-1.9 1.1-2.8.2-.9.4-1.8.4-2.7 0-.8.1-1.5.1-2.1V7.8h-5.1V7h16.1v.8h-10.2V34c0 .6 0 1.3-.1 2.3 0 .9-.2 1.9-.4 2.9-.3 1-.7 2-1.2 3s-1.3 1.9-2.3 2.7c-1 .8-2.3 1.5-3.8 2s-3.4.8-5.6.8c-3.6 0-6.5-.4-8.7-1.2-2.2-.8-3.9-1.8-5.1-3.1-1.2-1.3-1.9-2.7-2.3-4.4-.4-1.6-.6-3.3-.6-5V7.8h-5.2V7h21.3z"/><path class="st1" d="M134.6 7.8V7h5.1c1.9 0 3.8 0 5.7-.1 1.9-.1 3.8-.1 5.7-.1 1.7 0 3.4.1 5.3.3 1.9.2 3.7.6 5.5 1.2 1.8.6 3.6 1.3 5.2 2.3 1.6 1 3.1 2.2 4.4 3.7 1.3 1.5 2.3 3.3 3 5.3.7 2 1.1 4.4 1.1 7.2 0 2.7-.4 5.1-1.1 7.1-.7 2-1.7 3.8-3 5.3-1.2 1.5-2.7 2.7-4.3 3.7-1.6 1-3.3 1.7-5 2.3-1.7.6-3.4 1-5.1 1.2-1.7.2-3.3.3-4.7.3-2.1 0-4.2 0-6.3-.1-2.1 0-4.2-.1-6.3-.1h-9.1V46h9.1V7.8h-5.2zm16.1 38.4c2.4 0 4.5-.3 6.2-.9 1.7-.6 3.2-1.4 4.3-2.3 1.2-1 2.1-2.1 2.8-3.4.7-1.3 1.2-2.6 1.6-4 .4-1.4.6-2.8.7-4.2.1-1.4.2-2.7.2-3.9 0-3-.2-5.7-.6-8.2-.4-2.4-1.1-4.5-2.2-6.3-1.1-1.7-2.6-3.1-4.6-4-2-.9-4.6-1.4-7.8-1.4h-2c-.6 0-1.1.1-1.5.1V46c1.1.1 2.1.2 2.9.2zm61.2-27.8c-1-3.6-2.4-6.5-4.4-8.5-1.9-2-4.5-3-7.8-3-2.6 0-4.6.5-6.2 1.5-1.6 1-2.8 2.3-3.6 3.9-.8 1.6-1.4 3.4-1.6 5.4-.3 2-.4 4.1-.4 6.2v4.9c0 3.4.2 6.2.7 8.5.4 2.3 1.1 4.2 2.1 5.6.9 1.4 2.2 2.4 3.7 3 1.5.6 3.3.9 5.4.9 1.7 0 3.1-.3 4.1-.9 1-.6 1.8-1.5 2.3-2.5.5-1.1.9-2.3 1-3.8.1-1.5.2-3 .2-4.7v-2.1h-5.7V32h20.2v.8h-6.6v12.8h-1c-.1-.4-.3-.8-.6-1-.4-.2-.8-.3-1.2-.3-.9 0-1.7.2-2.5.5-.8.4-1.7.7-2.6 1.1-.9.4-2 .8-3.2 1.1-1.2.4-2.7.5-4.4.5-2.7 0-5.3-.5-7.9-1.6-2.5-1.1-4.8-2.5-6.7-4.4-1.9-1.8-3.5-4-4.6-6.5-1.2-2.5-1.7-5.2-1.7-8.1 0-3.2.6-6 1.9-8.6 1.3-2.6 2.9-4.8 4.9-6.6 2-1.8 4.3-3.2 6.7-4.2 2.5-1 4.9-1.5 7.3-1.5 1.1 0 2.2.1 3.2.3 1 .2 2 .5 2.9.7.9.2 1.7.5 2.4.7.7.2 1.3.3 1.8.3s.9-.1 1.1-.3c.2-.2.4-.5.6-.9h.9v11.4h-.7z"/><path class="st1" d="M255.1 7v9.5h-.7c-.2-.6-.5-1.4-.9-2.4s-1.1-1.9-1.9-2.9c-.8-.9-1.8-1.7-3.1-2.4s-2.8-1-4.6-1H235V25h3.1c1.4 0 2.5-.2 3.5-.6.9-.4 1.7-.9 2.4-1.7.6-.7 1.2-1.6 1.6-2.6.4-1 .7-2.2 1-3.4h.7v17.4h-.7c-.3-1.1-.6-2.1-.9-3.1-.4-1-.8-1.9-1.4-2.7-.6-.8-1.3-1.4-2.2-1.8-.9-.4-2-.7-3.3-.7H235V46h9.2c1.7 0 3.3-.3 4.6-.9 1.4-.6 2.6-1.4 3.7-2.4s1.9-2.3 2.7-3.7c.7-1.4 1.2-2.9 1.6-4.5h.7v12.2h-37.7V46h7.1V7.8h-15.1V7h43.3z"/><path class="st1" d="M247.8 7.8V7h19.1c1.9 0 3.8 0 5.7-.1 1.9-.1 3.8-.1 5.7-.1 1.7 0 3.4.1 5.3.3 1.9.2 3.7.6 5.5 1.2 1.8.6 3.6 1.3 5.2 2.3 1.6 1 3.1 2.2 4.4 3.7 1.3 1.5 2.3 3.3 3 5.3.7 2 1.1 4.4 1.1 7.2 0 2.7-.4 5.1-1.1 7.1-.7 2-1.7 3.8-3 5.3-1.2 1.5-2.7 2.7-4.3 3.7-1.6 1-3.3 1.7-5 2.3-1.7.6-3.4 1-5.1 1.2-1.7.2-3.3.3-4.7.3-2.1 0-4.2 0-6.3-.1-2.1 0-4.2-.1-6.3-.1h-15.1V46H267V7.8h-19.2zm30.1 38.4c2.4 0 4.5-.3 6.2-.9 1.7-.6 3.2-1.4 4.3-2.3 1.2-1 2.1-2.1 2.8-3.4.7-1.3 1.2-2.6 1.6-4 .4-1.4.6-2.8.7-4.2.1-1.4.2-2.7.2-3.9 0-3-.2-5.7-.6-8.2-.4-2.4-1.1-4.5-2.2-6.3-1.1-1.7-2.6-3.1-4.6-4-2-.9-4.6-1.4-7.8-1.4h-2c-.6 0-1.1.1-1.5.1V46c1.1.1 2.1.2 2.9.2z"/></svg>