<?xml version="1.0" encoding="utf-8"?>
<!-- Generator: Adobe Illustrator 21.1.0, SVG Export Plug-In . SVG Version: 6.00 Build 0)  -->
<!DOCTYPE svg PUBLIC "-//W3C//DTD SVG 1.1//EN" "http://www.w3.org/Graphics/SVG/1.1/DTD/svg11.dtd">
<svg version="1.1" id="Layer_1" xmlns="http://www.w3.org/2000/svg" xmlns:xlink="http://www.w3.org/1999/xlink" x="0px" y="0px"
	 viewBox="0 0 315 140" style="enable-background:new 0 0 315 140;" xml:space="preserve">
<style type="text/css">
	.st0{fill:#EB008B;}
	.st1{fill:#231F20;}
</style>
<g>
	<g>
		<path class="st0" d="M46.8,56.3l0.6,0l1.2,1.3l0.2,0c0-0.6,0.2-0.8,0.5-0.8l0.6,0.2c-0.2,1.4-0.3,2.5-0.3,3.3l0,0.3l0.6-0.1l0-0.1
			c0-0.4,0.2-0.8,0.7-1.3c0.3,0,0.9,0.7,1.8,2.1l-1,1.2c0-0.1-0.1-0.2-0.2-0.2l-0.1,0l0,0.3c0.2,0.3,0.3,0.7,0.3,1.1
			c-0.3,0.2-0.6,0.3-0.8,0.3l0,0.5l1.1,0.2l0,0.3l-0.2,0.6l-0.6-0.2l-0.6,0l0,0.2c0,0.5-0.1,1.1-0.4,1.8l1.1-0.1l0.1,0.6
			c0,0.2-0.1,0.3-0.3,0.3l0.3,0.5c-0.2,2.3-0.9,5.2-2.2,8.7l0,0.1c0,0.9-0.7,3.8-2.1,8.9l0.6-0.1l0-0.1c0-0.3,0.2-0.4,0.5-0.5l0-0.3
			l-0.3-0.6l0.6-0.3l0.6,0.8c-0.1,1.8-0.4,2.8-0.9,2.8l-0.3-0.5l-0.5,0.3l-0.3,0l0.2-0.6L47,86.3l-0.3,0l0,0.1c0,0.6-0.7,3-2.3,7.2
			l0.6-0.1l0.5-0.3l0.1,0.6l0.5-0.3l0.3,0l0.1,0.6l-0.3,0.6l-0.6-0.2l-0.5,0.3c-0.4-0.1-0.7-0.2-0.8-0.2L44.1,95l0,0.6l0.6-0.3
			c0.3,0.1,0.5,0.2,0.7,0.2l0.1,0c0-0.3,0.2-0.5,0.5-0.6l0,0.6l2-0.1l1.3-0.4l0,0.6l1.7-0.1c0.6-0.5,1.4-0.8,2.4-1l0.1,0.6
			c-1,0.2-1.5,0.4-1.6,0.4l0.3,0.5l-0.2,0.6l0.3,0l0.8-0.6l0.5,0l0.1,0.8c-0.6,0-0.9,0.5-0.9,1.5l0,0.3c0.1,0,0.2,0.1,0.3,0.2
			c-1.1,1.5-2.3,2.4-3.4,2.7l0.1,0.8c-0.3,0-1,0.6-2.1,1.8c0.4,0,0.6,0.2,0.6,0.5l0,0.3l-0.8,0.1l-0.6-0.3l0.1,0.6l-0.6-0.2
			c0,0.5-0.6,1.3-1.8,2.3l-0.4,0c-0.3,0-0.5-0.2-0.5-0.5l-0.5,0.3l-0.2,0c-0.8,0-1.3-0.2-1.5-0.7l-0.6,0.3l-0.3,0
			c-1.1-0.6-2.3-1-3.6-1.1c-0.9-0.6-1.4-1.1-1.5-1.3l-0.5,0.3c-0.7-0.1-1.1-0.5-1.2-1l0.2-0.6c0-0.3-0.4-0.8-1.2-1.6
			c0.4-0.5,1.1-1.7,1.9-3.7L34.3,97l-0.1-0.6c1.4-3.3,2-5.6,2-6.8l0-0.2l-0.1,0c-0.1,0-0.2-0.1-0.2-0.2l1.5-2.6
			c-0.2-0.3-0.3-0.6-0.3-0.8c0.2,0,0.8-1,1.7-2.9l-0.3-0.5l-0.1-0.6c0.4,0,0.6-0.1,0.6-0.3L38.7,81c1-2.5,2.1-6.3,3.4-11.5l0.2,0
			c0.7-5.9,1.6-10,2.8-12.3l0.3-0.1c0,0.2,0.1,0.3,0.3,0.3C45.7,57.1,46,56.7,46.8,56.3z M73.4,95.7l0.3,0.3l0.4,0.1l0.1,0
			c0.1,0,0.1,0,0.2-0.1l0.4,0.3c0.1,0,0.3-0.1,0.4-0.1c0.1,0,0.3,0,0.4,0.1l0.1,0.5c0.1,0,0.3-0.1,0.6-0.1c0.4,0,0.9,0,1.5,0.1
			L77.9,97l0.5-0.1l0.8,0.2c0.2,0.1,0.3,0.2,0.3,0.4l0,0.1l-0.2-0.1L79,97.3c-0.1,0.2-0.2,0.3-0.4,0.3l-0.2,0l-2.2-0.5l-0.1,0.2
			l0.7,0.2l-0.1,0.4l-0.2-0.1c-0.1,0-0.2-0.1-0.2-0.2l0-0.1l-1.1,0l-0.7-0.2l0.1-0.4l-0.4-0.1c-0.1,0.4-0.3,0.6-0.5,0.6l-0.1,0
			l-0.2-0.1L73.1,97c-0.3,0.5-0.8,0.7-1.4,0.7c-0.2,0-0.4,0-0.6-0.1L71,97.1l0.7,0.2l0-0.2c0-0.2-0.1-0.3-0.3-0.4l-0.9-0.2l-0.2,0.7
			l0.7,0.2l-0.1,0.2l-0.7-0.2c-0.2-0.2-0.5-0.4-0.8-0.4l-0.1,0.4l-1.1-0.5l0.3,0.8l0.5-0.1l1.5,0.4l-0.1,0.2
			c-0.2,0.3-0.3,0.5-0.3,0.6l0.2,0.1l1.4,0.1l1.5,0.4l0.1-0.4c0.3,0.2,0.5,0.4,0.5,0.6l0,0.1c0.1,0,0.2-0.1,0.4-0.1
			c0.3,0,0.7,0.1,1.2,0.2l-0.1-0.4c0.1-0.2,0.2-0.3,0.4-0.3l0.1,0l2,0.5c0,0.1-0.2,0.2-0.4,0.2c-0.1,0-0.3,0-0.5-0.1L77,100l1.1,0
			l0.7,0.2l-0.1,0.4l-1.5-0.4l-0.1,0.4l-1.7-0.4l-0.4-0.3c0,0.1-0.2,0.2-0.5,0.2c-0.3,0-0.9-0.1-1.6-0.3l-0.1,0.2l1.5,0.4l-0.1,0.2
			l-2.5-0.2l-0.4-0.3l-11.3-0.9l0-0.1c0-0.1-0.1-0.2-0.2-0.2l-0.4,0.8l0.2,0.1l0.5-0.1l0.8,0.4l0.5,0c0.6,0,1.6,0,3-0.1l0,0.1
			c0,0.1,0.1,0.1,0.2,0.2l0.3-0.3l0.4,0.3l0.8-0.2l1.2,0.5l0.7,0.2l-0.1,0.4l0.5-0.1l0.6,0.2c0-0.1,0.1-0.2,0.2-0.2l0.1,0l0.7,0.2
			l0.1-0.4c0.2,0.1,0.3,0.2,0.3,0.4l0,0.2c0,0.3-0.4,0.4-1.2,0.4c-0.4,0-0.8,0-1.4-0.1c0,0.1-0.1,0.2-0.2,0.2l-0.1,0l-0.7-0.2
			c-0.2-0.1-0.3-0.2-0.3-0.4l0-0.2l0.4,0.1L67,101l-0.4-0.1c-0.1,0.5-0.9,0.7-2.4,0.7c-0.4,0-0.9,0-1.5,0l-0.1,0.2l0.1,0.4
			c-0.2-0.1-0.4-0.1-0.7-0.1c-0.2,0-0.4,0-0.5,0.1l-0.4-0.3l-1.3-0.1l-0.4-0.1c0,0.1-0.1,0.4-0.3,0.6c0.1,0,0.2,0.1,0.2,0.2l0,0.1
			l-1.3-0.3l0.1-0.2l-0.2-0.1c0,0.2-0.6,0.5-1.8,0.7l-0.7-0.9c-0.1,0.3-0.2,0.4-0.3,0.4l-0.1,0l0.1,0.5l-0.1,0.2l-0.1,0
			c-0.2,0-0.5,0.1-0.8,0.2l0-0.1c0-0.2-0.1-0.3-0.3-0.4c-0.1,0.4-2.7,0.8-7.9,1.1c0,0.1-0.8,0.4-2.3,0.9l0.1-0.2
			c-0.6,0-1,0.2-1.1,0.7l-0.1,0.2l0.2,0.1c0.1-0.3,0.4-0.4,0.8-0.5l0.2,0l0.1-0.2l0.4,0.3l0.2,0.1c0.3-0.3,0.9-0.5,1.9-0.5
			c0.7,0,1.5,0.1,2.5,0.2l-0.1-0.5c0.1-0.3,0.7-0.5,1.6-0.5l0.3,0c0.3,0.2,0.5,0.4,0.6,0.4c0-0.2,0.3-0.4,0.8-0.5l0.2,0.1l-0.3,0.4
			l0.4,0.1l0.5-0.1l-0.2,0.8l-0.3-0.3l-0.2-0.1c-0.1,0.3-0.3,0.5-0.5,0.5l-0.1,0c-0.4-0.2-0.6-0.4-0.6-0.5l0-0.1
			c-0.9,0.1-1.7,0.4-2.5,1c-0.3-0.2-0.5-0.3-0.6-0.3l0.1,0.4l-0.5,0.1l-0.6-0.2c-0.1,0.1-1.3,0.5-3.7,1.2c-0.1,0.2-0.2,0.3-0.4,0.3
			l-0.2,0l-0.4-0.1l-0.4-0.3c-0.1,0.5-0.3,0.7-0.6,0.7l-0.2,0l-0.4-0.3c0,0.2-0.9,0.6-2.6,1.2c-0.1,0.2-0.8,0.6-2.1,1.1
			c-0.2-0.1-0.7-1.2-1.3-3.3l0.1-0.2l0.3-0.4c-0.6-0.1-0.9-0.6-1-1.4l0.2-0.7l-0.4-1.2c0.2-0.3,0.3-0.5,0.3-0.6
			c-0.1,0-0.1-0.1-0.1-0.2l0-0.1l0.1,0c0.3,0,0.6-0.4,1.1-1.1l0.4,0.3l0.2,0.1l0.1-0.7l-0.2-0.1l-0.8,0.3l0.1-0.2
			c0.7-0.6,1-0.9,1.1-0.9l-0.1-0.4c0.1-0.3,0.9-0.7,2.6-1l0.1-0.2L38,97.2c0.1-0.6,2.7-1.2,7.6-1.8l0,0.1c0,0.1,0.1,0.2,0.2,0.2
			c0.4-0.3,1.4-0.5,3.1-0.6l0,0.1c0,0.1,0.1,0.2,0.2,0.2c0.1-0.4,2.6-0.6,7.6-0.7l0,0.1c0,0.1,0.1,0.2,0.2,0.2
			c0-0.2,1.1-0.3,3.2-0.3c0.9,0,2,0,3.3,0l-0.1,0.2c0.3,0,0.5-0.1,0.8-0.1c0.6,0,1.3,0.1,2.1,0.3l-0.1,0.2l2,0l0,0.1
			c0,0.1,0.1,0.2,0.2,0.2c0.1-0.2,0.4-0.3,1-0.3c0.6,0,1.4,0.1,2.5,0.3l-0.1,0.2l0.5-0.1c0.1,0,0.2,0.1,0.2,0.2l0,0.1
			C73,95.9,73.3,95.8,73.4,95.7z M35.6,96.1l0.3,0l0.2-1.1c-0.3,0-0.5,0.2-0.5,0.7L35.6,96.1z M36.4,92.5l-0.4,2l0,0.3l0.3,0l0-0.1
			c0-0.4,0.1-1,0.4-1.9l0-0.3L36.4,92.5z M39.1,83.2c-1.6,5.3-2.5,8.1-2.5,8.4l0.1,0.3l0.2,0c0-0.4,0.2-0.6,0.6-0.6l-0.1-0.5l0-0.5
			c0-1,0.2-1.6,0.7-1.7l0.3-0.1l0.9,0.5l0-0.2c0-0.4,0.2-0.7,0.5-0.7L39.7,87c-0.4,0-0.7,0.4-0.7,1.2l-0.6,0l0-0.1
			c0-0.7,0.4-2.2,1.1-4.3l1.4,0.2l-0.1-0.3c0-0.3-0.2-0.5-0.5-0.5l-0.1,0L39.1,83.2z M37.3,92.4l0,0.2c0,0.4-0.2,0.7-0.5,0.7
			l0.3,0.6c-0.2,0.4-0.3,0.7-0.3,0.8c0.3,0,0.7-0.4,1.1-1.2c-0.2-0.3-0.3-0.7-0.3-1.1L37.3,92.4z M36.9,97.2l0.4,0.1l0,0.2l-0.4-0.1
			L36.9,97.2z M38.2,89l0,0.3l0.6,0l0-0.3L38.2,89z M38.2,89.9l0.1,0.8l0.3-0.1l-0.1-0.8L38.2,89.9z M39.6,81.8l0,0.6l0.3,0l0-0.6
			L39.6,81.8z M40.1,94.2l0.3,0.5l0.1,0.3c-0.5,0-0.8,0.3-0.8,0.8l0,0.1c0.2,0.3,0.3,0.6,0.3,0.8c-0.2,0-0.3,0.1-0.3,0.3l0.6,0
			c0.3-1.6,0.8-3.3,1.6-5.1l-0.6,0.1C40.9,91.9,40.5,92.7,40.1,94.2z M39.8,84.3l0.1,0.3l0.5-0.1l0-0.3L39.8,84.3z M41.3,85.8
			l0.3,0.5l0,0.3L41,86.4l0.1,0.3c0.8,0.8,1.1,1.2,1.2,1.3c-0.6,0-0.8,0.2-0.8,0.6l-0.2,0c0-0.5-0.2-0.8-0.6-0.8
			c0,0.7-0.3,1.1-0.8,1.2l0.1,0.2l0.3,1.4l0.3-0.1l0-0.1c0-0.3,0.4-0.9,1.2-1.9l0.1,0.3l0,0.1c0,0.5-0.2,1.2-0.7,2.1l0.2,0
			c0.3,0,0.6,0.1,0.9,0.2l0-0.1c0-0.9,0.4-2.2,1.1-4.1l-0.6,0.1l0.1,0.6l-0.3,0c0-0.5-0.3-0.8-0.7-0.8l-0.1,0l0.2-0.6l-0.3-0.5
			c0.4,0,0.6-0.2,0.6-0.6L42,84.9L41.3,85.8z M40.1,81.2l0,0.3l0.6-0.1l0-0.3L40.1,81.2z M41,77.9c0.3,0,0.5-0.2,0.5-0.5l0-0.3
			c-0.3,0.1-0.5,0.2-0.5,0.5L41,77.9z M49,62.2c-1.1,1.5-1.7,2.6-1.7,3.5l0,0.4l0.3-0.1l0-0.6l0.5,0l0.1,0.3l-1,1.4l0,0.3l0.2,0
			c0.4,0,0.6,0.2,0.7,0.5l0,0.3c-0.3,0-0.5,0.2-0.5,0.3L47,68.4l-0.3,0.1l0.1,0.8l0.3,0.6l-0.8,0.1l0,0.3l0.6,0.8
			c-0.6,0-0.8,0.2-0.8,0.6l0.1,0.3c0.1,0.3,0.2,0.5,0.5,0.5l0.1,0c-0.2,1.3-0.5,2-0.9,2c0-0.2-0.2-0.3-0.3-0.3l0,0.1
			c0,0.3-0.2,0.5-0.5,0.5l0.3,0.5c0,0.4-0.2,0.6-0.6,0.6c0-0.3-0.2-0.5-0.6-0.5l0,0.3l0.9,1.1c-0.3,0.2-0.6,0.3-0.8,0.3l0,0.2
			l1.1,0.2l0,0.4c0,0.3-0.2,0.4-0.5,0.5l-0.1-0.5l-0.2,0l0,0.3c0.2,0.3,0.3,0.6,0.3,0.8l-0.1,0c-0.1,0-0.2-0.1-0.2-0.2
			c-0.3,0.2-0.7,0.3-1.1,0.3c0.1,0.3,0.3,0.5,0.6,0.5c-0.9,3.2-1.4,4.8-1.7,4.8l0-0.3l0.2-1.3l-0.5,0c0,0.6-0.2,0.8-0.5,0.8l0.3,0.6
			c-0.1,0.4-0.2,0.7-0.2,0.8l0.6-0.1l-0.1-0.6c0.3,0,0.6,0.3,0.9,0.8l0.1,0.8l-0.6,0.1l-0.1-0.6l-0.2,0l0,0.3
			c0.2,0.3,0.3,0.7,0.3,1.3l0.6,0c1.7-4.7,2.5-7.6,2.5-8.6l0-0.1l-0.3,0l0.2-0.6l0.6,0.2l0.3,0L46.4,77c0-0.9,0.3-1.8,0.9-2.8
			L47,73.6c0.1-0.3,0.2-0.5,0.2-0.7l0-0.1C47.1,72.4,47,72.2,47,72l0.5-0.3c0,0.1,0.1,0.2,0.2,0.2l0.1,0l0-0.3
			c0-1.2,0.4-2.3,1.2-3.3L48.3,68c0.3-0.5,0.7-2.4,1-5.5l-0.1-0.3L49,62.2z M41.8,105.1l-0.1,0.2l0.4,0.1l0.1-0.2L41.8,105.1z
			 M41.7,75.1l0,0.6l0.3-0.1l0-0.5L41.7,75.1z M42.3,76.7l0,0.1c0,0.2-0.1,0.4-0.2,0.7l0.1,0.3l0.2-0.1c0-0.2,0.1-0.5,0.2-0.8l0-0.3
			L42.3,76.7z M42.4,95.1l0.1,0.6l0.3-0.1l-0.1-0.5L42.4,95.1z M42.4,75c0.1,0.3,0.3,0.5,0.6,0.5l0.1,0L43,75L42.4,75z M42.5,93.4
			l0.3,0c0.4,0,0.7-0.5,0.8-1.4C43.3,92,43,92.5,42.5,93.4z M42.7,91.5l0.1,0.2l0.5,0l0-0.3L42.7,91.5z M42.9,90.1l0.1,1.1
			c0.3,0,0.5-0.2,0.5-0.5l0-0.1l-0.1-0.6L42.9,90.1z M43.5,82.4l0.6-0.1l0,0.4c0,0.3-0.2,0.4-0.5,0.5L43.5,82.4z M43.6,88.7l0,0.6
			l0.3,0l0-0.6L43.6,88.7z M47.6,78l-0.2,1.6l-0.3,0.1l-0.6-0.3c-0.1,1.1-0.4,1.7-1,1.7l0,0.3l0.2,0c0.4,0,0.7,0.2,0.7,0.5l0,0.2
			L46,81.9l-0.3,0c-0.6,2.1-0.9,3.4-0.9,3.9c0.2,0,0.3,0.1,0.3,0.3c-0.5,0-0.9,0.6-1.3,1.7l0.1,0c0.1,0,0.2,0.1,0.2,0.2
			c1-0.5,1.5-1.3,1.5-2.4l0-0.2l-0.6,0.3l0-0.3c0.1-1.1,0.3-1.7,0.7-1.7l0.1,0.5L45.6,85l0.1,0.2l0.2,0l2.3-7l0-0.3L47.6,78z
			 M45,58.7l0,0.2l0.6,0l0-0.3L45,58.7z M46.7,89.9l0.8,0.5c-0.2,0.7-0.5,1.1-0.7,1.1l-0.6-0.2c0,0.2-0.1,0.3-0.3,0.3
			c0-0.2-0.1-0.3-0.3-0.3C46,90.4,46.4,90,46.7,89.9z M46.4,92.6l0.3,0l0.1,0.6l-0.3,0L46.4,92.6z M48.8,70.8l-0.4,1.9
			c0.2,1,0.4,1.5,0.4,1.6l-0.6,0.1l-0.1-0.6l-0.3,0.1c-0.1,1-0.2,1.5-0.2,1.6l0.4,1.3l-0.6,0.3c0-0.2-0.1-0.3-0.3-0.3l0.1,0.6
			l1.1-0.1l1.4-4.5c-0.2-0.3-0.3-0.6-0.3-0.8l-0.3,0.1l0.1,1.1l-0.5,0.1L48.6,73l0.4-2l0-0.3L48.8,70.8z M47.3,86.5l0.1,0.6l0.8-0.1
			c0-0.3-0.2-0.5-0.5-0.5L47.3,86.5z M47.7,88.4l0.6,0l0,0.1c0,0.3-0.2,0.4-0.5,0.5L47.7,88.4z M48.1,101.6l0,0.5
			c0.3,0,0.5-0.2,0.5-0.5l0-0.1L48.1,101.6z M48.7,98.6l0,0.3l0.3,0c0.9-0.5,1.5-0.7,1.9-0.7l-0.1-0.6L48.7,98.6z M50.1,82.3
			c-0.5,1.7-0.9,2.5-1.2,2.5l-0.1-0.6l0.5-1.1l-0.1-0.8L50.1,82.3z M49.8,64.4l-0.2,1.3c0.3,0,0.5-0.2,0.5-0.7l0-0.2L50,64.3
			L49.8,64.4z M49.6,70.4l0.1,0.8c0.3,0,0.5-0.2,0.5-0.5l0-0.1L49.6,70.4z M49.8,81.1l0.3,0l0,0.6l-0.3,0L49.8,81.1z M49.8,69.6
			l0.1,0.6l0.3-0.1l-0.1-0.5L49.8,69.6z M50,80.3l0.3,0l0,0.6l-0.3,0L50,80.3z M50.4,78.9l0.3,0l0.1,0.8L50.2,80l0-0.3
			C50.3,79.4,50.4,79.1,50.4,78.9z M50.2,67.6l0.1,1.1l0.3-0.1l0-0.2c0-0.3,0.1-0.6,0.2-0.9L50.2,67.6z M50.7,96.2
			c0.1,0.4,0.3,0.6,0.6,0.6l0-0.6L50.7,96.2z M51.9,97l0.1,0.8l0.3-0.1L52.1,97L51.9,97z M52.3,100l-0.1,0.4c0.2,0,0.4-0.1,0.6-0.1
			l0.2,0l0.1-0.2L52.3,100z M52.2,102.1l-0.1,0.4l0.2,0.1l0.1-0.4L52.2,102.1z M53,98l0.6,0l0,0.3l-0.6,0L53,98z M53.4,104l0.7,0.2
			l-0.1,0.2c-0.1,0.2-0.2,0.3-0.4,0.3l-0.2,0l-0.1-0.5L53.4,104z M55,94.8c0,0.3-0.4,0.7-1.3,1.2l-0.3-0.5
			C54,95.1,54.6,94.9,55,94.8z M55.8,93.4l0.3,0.5l-1.4,0.4l0-0.6L55.8,93.4z M57,96l-0.1,0.4l0.2,0.1l0.1-0.4L57,96z M57.6,99.9
			l-0.1,0.2l0.4,0.1L58,100L57.6,99.9z M57.9,97l-0.1,0.4l0.2,0.1l0.1-0.4L57.9,97z M58.8,100l-0.1,0.2l0.4,0.1l0.1-0.2L58.8,100z
			 M59.4,94l0.3-0.1l0,0.6l-0.3,0L59.4,94z M59.8,95.6l0.3-0.1l0.1,0.6l-0.3,0.1L59.8,95.6z M60,98.7l-0.1,0.2l0.4,0.1l0.1-0.2
			L60,98.7z M60.6,96.2l-0.1,0.2l0.6,0.2l0.1-0.2L60.6,96.2z M61.1,95.9L61,96.1l0.4,0.1l0.1-0.2L61.1,95.9z M62.1,96.9l0,0.1
			c0,0.2,0.1,0.4,0.3,0.4l0.1-0.4L62.1,96.9z M62.8,96.3L62.7,97c0.1,0,0.3,0.2,0.6,0.4l0.4-0.8L62.8,96.3z M63,98.5l-0.1,0.4
			l0.2,0.1l0.1-0.4L63,98.5z M63.8,97l-0.1,0.2l0.4,0.1l0.1-0.2L63.8,97z M64.5,96.1l0.1,0.5c-0.2,0-0.4,0.1-0.5,0.1l-0.2,0
			l-0.1,0.2l0.4,0.1c0-0.1,0.1-0.2,0.2-0.2l0,0.2c0,0.1,0,0.2,0.1,0.3l0.5-0.1c0.3,0.2,0.5,0.4,0.6,0.4l0.1-0.4
			c-0.3-0.1-0.4-0.2-0.4-0.3l0-0.1l0.2-0.6L64.5,96.1z M66.1,96.2l-0.1,0.2c0.4,0.1,0.7,0.3,0.7,0.6l0,0.2l0.4,0.1l-0.1-0.5l0.1,0
			c0.1,0,0.2-0.1,0.2-0.2c-0.1,0-0.2-0.1-0.2-0.2l0-0.1l-0.5,0.1l-0.4-0.3L66.1,96.2z M67.5,97.2l-0.1,0.4l0.2,0
			c0.2,0,0.3-0.1,0.4-0.3L67.5,97.2z M67.8,96.1L67.5,97l0.2,0.1l0.2-0.8L67.8,96.1z M68.2,96.4l-0.1,0.2l0.4,0.1l0.1-0.2L68.2,96.4
			z M68.9,98.9l-0.1,0.4l0.2,0.1l0.1-0.4L68.9,98.9z M70.6,99.6l-0.1,0.2l1.7,0.4l0.1-0.2c-0.2-0.1-0.3-0.1-0.3-0.2l0-0.1
			c-0.1,0-0.2,0.1-0.3,0.1C71.4,99.8,71,99.7,70.6,99.6z M70.9,101.1l0.4,0.1l-0.1,0.2l-0.4-0.1L70.9,101.1z M72.1,97l-0.1,0.2
			l0.4,0.1l0.1-0.2L72.1,97z M72.5,98.4l0.4,0.1L72.8,99l-0.4-0.1L72.5,98.4z M73.2,96.5l-0.1,0.2L74,97l0.1-0.2L73.2,96.5z
			 M73.9,98.3l0.7,0.2c0.2,0.1,0.3,0.2,0.3,0.4l0,0.2l-0.1,0.2l-0.7-0.2c-0.2-0.1-0.3-0.2-0.3-0.4l0-0.1L73.9,98.3z M74.1,97.5
			l0.4,0.1l-0.1,0.2c-0.1,0.2-0.2,0.3-0.4,0.3l-0.2,0L74.1,97.5z M75,96.7l-0.1,0.4l0.2,0.1l0.1-0.4L75,96.7z"/>
		<path class="st0" d="M72.2,71.1c0.3,0.9,0.7,1.5,1.2,1.8c0-0.6,0.2-1,0.6-1l0.2,0L73.8,73c0.3,0,0.4,0.2,0.5,0.7l0.7-0.5l0.7,0
			l0,0.2L75,74.5l0,0.2l0.4,0c0-0.7,0.2-1.1,0.6-1.2l0.2,0l0.1,0.2l-0.2,0.4l0.2,0c0.3-0.2,0.6-0.2,0.9-0.3c0,0.2-0.3,1.4-0.9,3.4
			c0.3,0.7,0.5,1.3,0.5,2l-0.2,0l0.3,0.4l-1.2,3.2l0.4,0.2l0,0.3c0,0.7-0.2,1-0.6,1.1l0.2,0.4l0,0.5c0,0.1-0.1,0.2-0.2,0.2l0.2,0.4
			l0,0.2c0,0.6-0.2,1-0.6,1l0.2,0.4l0.1,0.4c0,0.3-0.1,0.4-0.4,0.5c0-0.1-0.1-0.2-0.2-0.2l-0.1,0c0,0.3-0.1,0.6-0.4,1.1l0.2,0
			l0.4-0.3l0,0.4c-0.3,2.3-0.5,3.4-0.7,3.4l0.2,0.4l-0.4,0.7l0.4,0l-0.2,0.4c0,0.1,0.1,0.2,0.2,0.2c-0.2,0.5-0.3,1-0.3,1.4l0,0.2
			l0.2,0L74.4,97l0.1,2.7l-0.2,0c-0.3,0-0.5-0.5-0.5-1.5l-0.2,0l0.1,2.2l0.4-0.2l0.2-0.1l0,0.2l0.3,2.2l-0.5-0.2l0.1,0.2
			c0,0.3,0.5,0.8,1.4,1.5c0.3,0.7,0.5,1.3,0.5,1.6c-0.3,0-0.4,0.1-0.4,0.3l0,0.1c-1.1,0-1.6-0.1-1.6-0.3l-0.4,0.2
			c-1-0.7-1.9-1-2.4-1l-0.1,0c0,0.3-0.1,0.4-0.4,0.5l-0.2,0c-0.6,0-0.9-0.1-0.9-0.4c-0.6,0.2-0.9,0.3-0.9,0.5
			c-0.2,0-0.9-0.6-2.1-1.7l-0.4,0.2l-0.2,0c0-0.3-0.5-1.2-1.5-2.6l0.2-1.2l-0.1,0c-0.4,0-0.7-0.5-0.7-1.5L63.9,98l0.2-1.3l-0.2-0.4
			l0.2-1.3l-0.1-1.1l0.4,0l0-0.4l-0.4,0l-0.1-0.7l0.4,0l0,0.4l0.2-0.1l0-0.9l-0.4,0.1c0.3-0.4,0.5-1.9,0.9-4.5
			c2-10.6,3.8-15.9,5.7-16l0.4,0.2L72.2,71.1z M64.8,101.1l0,0.2l0.4,0l0-0.2L64.8,101.1z M66.5,103l0,0.4l0.2,0l0-0.4L66.5,103z
			 M71,88.2l0.4-0.1l0-0.4C71.2,87.8,71,88,71,88.2z M72.3,83.2l0.1,0.4l0.2-0.1l-0.1-0.4L72.3,83.2z M72.6,82.7l0.2,0l0.2-1.1
			c-0.3,0-0.4,0.2-0.4,0.6L72.6,82.7z M72.9,80.9l0.1,0.4l0.2,0l-0.1-0.4L72.9,80.9z M73.7,78.4l0,0.1c0,0.4-0.2,1-0.5,1.7l0,0.2
			l0.2,0l0.6-1.9l-0.1-0.2L73.7,78.4z M77.2,47.5l1.3,1.3l0.1-0.3l0.3,0c2.2,1.6,3.4,3.1,3.4,4.4c0,0.1,0,0.2-0.1,0.3
			c0.1,0,0.1,0.2,0.1,0.4l0,0.3l-0.1,0.2c-0.8,2.4-1.3,3.8-1.3,4.2c0.1,0,0.1,0,0.1,0.1l0,0.1c-0.2,0-0.3,0.1-0.3,0.3
			c0,0.1,0.1,0.3,0.1,0.4l0,0.1c-0.3,0-0.7,1.2-1.4,3.6c-0.4,0.4-0.9,0.9-1.7,1.2l0-0.1c0-0.1-0.1-0.2-0.3-0.2
			c-0.1,0.5-0.2,0.7-0.3,0.7l-0.2,0c-0.3,0-0.4-0.3-0.4-0.7l0-0.2l-0.3,0.1l0-1.5l-0.3-0.1l0.1,0.3l-0.2,1c0,0.2-0.1,0.3-0.2,0.3
			l-0.1,0l-0.2-0.1c-0.3,0-0.5-0.6-0.6-1.8l-0.3-0.2l-0.1,0.6l-0.2,0c-0.3-0.1-0.5-0.4-0.5-1.1c0-0.2,0-0.5,0.1-0.8l-0.3,0.1
			l-0.2-0.6c0-0.1,0-0.1,0.1-0.1l0.1,0l-0.1-0.4l0.2-1.7l0-1.7l0.3,0.1l0.1-0.8l0.2,0.1L74,54.6c0.5-2.1,0.9-3.1,1.2-3.1l-0.1-0.3
			l0-0.2l0.3,0l0.1-1c0-0.1,0.1-0.2,0.2-0.2c0-0.1-0.1-0.1-0.2-0.2c0.4-1.3,0.8-2,0.9-2l0.3,0.2C76.9,47.6,77,47.5,77.2,47.5
			L77.2,47.5z M73.7,95.5l0,0.7l0.2,0l0-0.7L73.7,95.5z M74.4,76.2l0.1,0.2l0.4-0.1l-0.1-0.7C74.6,75.7,74.4,75.9,74.4,76.2z
			 M74.5,89.8l0,0.7l0.2,0l0-0.7L74.5,89.8z M74.7,60.9l-0.1,0.3l0.3,0.1l0.1-0.3L74.7,60.9z M74.8,59.9c0.1,0.2,0.1,0.4,0.1,0.5
			l0.2,0.1l0.1-0.5L74.8,59.9z M74.9,75l0,0.4l0.2,0l0-0.4L74.9,75z M74.8,59.6l0,0.2l0.3,0.1l0-0.2L74.8,59.6z M75,73.4l0.1,0.4
			l0.2,0l-0.1-0.4L75,73.4z M75.7,79l0.4-0.1l-0.1-0.4C75.9,78.6,75.7,78.8,75.7,79z M76.5,77.2l0.2,0l0.1,0.4l-0.2,0L76.5,77.2z
			 M76.9,76l0.2-0.1l0.1,0.4l-0.2,0.1L76.9,76z"/>
		<path class="st0" d="M97.1,71.2c0,0.3,0.5,0.5,1.5,0.8c0.1,0,0.2-0.1,0.2-0.2c0.3,0,0.8,0.2,1.5,0.6c0.3-0.1,0.5-0.2,0.7-0.2
			c0.1,0.4,0.9,1.1,2.3,2l0.7,0.1l0,0.2c0,0.7,0.5,1.6,1.4,2.6l0-0.2l-0.4-0.7l0.2,0c0.8,0.7,1.3,1,1.5,1.1l0,0.2l-0.3,0.4l-0.4-0.2
			l-0.2-0.1c0.8,0.7,1.2,1.2,1.2,1.6l0,0.1c0,0.2-0.1,0.4-0.3,0.7l0,0.1c0,0.5,0.2,1.1,0.6,1.7l-0.1,0.7l-0.7-0.5l0,0.2l0.1,1.6
			l0.4,0.1l-0.2-0.5l0.1-0.4l0.2,0.1c0.3,0,0.4,0.2,0.4,0.4l0,0.3c-0.8,0.7-1.2,1.3-1.3,1.9c0.1,0,0.2,0.1,0.2,0.3
			c-0.3,0-0.5,0.1-0.5,0.4l0,0.4c0,0.3,0.1,0.5,0.4,0.5c0.3-0.6,0.5-1,0.6-1.3c0.3,0.1,0.4,0.2,0.4,0.4l0,0.1l-0.1,0.7
			c0,0.3-0.2,0.4-0.4,0.4l-0.1,0l0-0.2c-0.6,0.2-1,0.3-1.3,0.3l-0.1,0l0.2,1.2l-0.6,0.8l0.4,0.3c-0.5,0.8-0.8,1.3-0.8,1.7l0.4-0.2
			l0.2,0l-0.1,0.4c-0.4,0.5-0.8,1.1-1.1,2l0.2,0c1.5-1.6,2.4-3.3,2.7-5.2l0.1,0c0.3,0,0.6-0.5,0.9-1.5l0.1-1.3l0.2,0.1l0.1-0.4
			l-0.1,0c-0.1,0-0.2,0.1-0.2,0.2l-0.4-0.2l-0.2-0.1l-0.1,0.7l-0.4,0l-0.1-1.6l0.4-0.2c0.3,0,0.4,0.3,0.4,0.8l0,0.2
			c0.2-0.1,0.4-0.2,0.6-0.2l0.1,0l0.1-1.1l-0.7-0.1c0-0.3,0.2-0.4,0.6-0.4l0.1,0l0-0.4l-0.4,0.2l-0.2-0.4l0.4,0.1l-0.1-1.2
			c0.3-0.5,0.5-0.8,0.6-1.1l0.4,0.1l-0.1,0.7l-0.4-0.1l-0.1,0.7l0.4-0.2l0.2,0.4l-0.2,3.1l1.1,0.3l-0.2,2.2c0,0.1-0.1,0.2-0.2,0.2
			l0.2,0.4l-1.6,3.5l-0.1,0.7c-0.2,0-0.6,0.8-1.1,2.4c0,0.1-1.5,2.3-4.5,6.4l0.2,0.1c0.1,0,0.2-0.1,0.2-0.2l0.4,0.3l0.5-0.2
			l-0.1,0.7c0,0.3-0.3,0.4-0.8,0.4l-0.2,0l0.2,0.4c0,0.3-0.8,0.8-2.2,1.4l0,0.4l-0.4,0l0-0.2c0.4-0.7,0.8-1.1,1-1.1l0.4,0.3
			c0.1-0.3,0.2-0.4,0.5-0.5l-0.2-0.4c0.3-0.6,0.6-0.8,0.9-0.8l0-0.2l-0.4,0c0,0.2-0.2,0.4-0.7,0.6l0-0.1c0-0.1-0.1-0.2-0.2-0.2
			c-0.1,0.6-0.3,0.9-0.6,0.9l0.1-0.2l0.2-0.4l-0.7-0.1c0,0.7-0.9,1.5-2.6,2.5l-0.1,0.2c0.3,0.1,0.4,0.2,0.5,0.5
			c0,0.3-0.2,0.4-0.4,0.4l-0.1,0c-0.3-0.1-0.5-0.2-0.7-0.3l-0.1,0.7l0.2,0.1l1.2-0.6l0.2,0.1l0,0.4c-1.3,0.8-1.9,1.3-1.9,1.4
			l-0.4-0.1l-0.2,0c-1.3,0-2.1,0.3-2.1,1l-0.2,0l0.1-0.7c-0.3,0.1-0.5,0.2-0.7,0.2l0.2,0.4c-0.8,0.2-1.3,0.3-1.6,0.3l0-0.4l0.7,0.1
			l0-0.2l-1.3-0.3c0,0.1-0.1,0.2-0.2,0.2l0-0.2c-0.1,0.1-0.4,0.1-0.9,0.1l-0.4,0l0,0.1c0,0.1,0.1,0.2,0.2,0.2l-1,4.4l0.2,0l-0.3,0.4
			l0,1.1l0.4,0l-0.1,0.2l-0.1,0c-0.4,0-0.6,0.4-0.7,1.1l0.4-0.2c0,0.1,0.1,0.2,0.2,0.2c-0.3,1-0.9,2.1-1.8,3c0.4,0,0.6,0.2,0.6,0.6
			l0,0.1c-0.2,1.2-0.4,2.2-0.4,2.9l-0.4-0.2l-0.1,0.7l0.4,0l-0.1,0.4l0.1,1.3c-0.2,0.4-0.4,0.7-0.5,0.7l0.2,0.4l-0.1,1.8
			c0,0.1-0.1,0.2-0.2,0.2l0.2,0.4l-0.1,1.3l-0.4-0.1l0.1-0.4l-0.2,0l-0.1,0.7l0.2,0.4c-0.2,0.3-0.3,0.5-0.3,0.7l-0.2-0.1l0.1-1.3
			l-0.4-0.1c0.1,0.1,0.1,0.3,0.1,0.7c0,0.3,0,0.8,0,1.3l0.4-0.2c0.3,0.1,0.4,0.2,0.5,0.4l-0.2,0c-0.4,0-0.7,0.1-1,0.4
			c0.1,0.2,0.2,0.4,0.2,0.6l0,0.1c0,0.1-0.1,0.2-0.2,0.2c0.1,1,0.2,1.7,0.3,2c-0.3,0-0.5,0.2-0.5,0.5l-0.1,2l0.4,0.1l-0.1,0.2
			c-0.2,0-0.5,0.1-0.9,0.4c-0.3-0.5-0.5-1.2-0.5-2l0-0.5l-0.2,0l-0.1,1.6l-0.4-0.1l0-0.2c0-0.6-0.4-1-1.2-1.1c0,0.2-0.3,0.4-0.7,0.6
			c0-0.2-0.2-0.5-0.6-0.7l0.3-1.1l-0.1-1.6l-0.2,0l-0.1,0.4l-0.2,0c-0.2,0-0.5-0.9-0.7-2.6l-0.4,0l0-1.3l-0.2,0
			c0,0.3-0.1,0.4-0.2,0.4l-0.1,0l0.2,0.5l0,0.2l-0.3,0.4c0.4,0,0.6,0.3,0.6,0.8l0,0.1c-0.2,0.3-0.3,0.5-0.3,0.7l0.4-0.2l0.2,0.5
			l-0.1,0.2l-0.2,0c-0.2,0-0.3,0.1-0.3,0.2c-0.3-0.2-0.5-0.3-0.7-0.3l0.1-0.9l0.2-0.4l-0.6-0.5l-0.1,0.4l-0.4,0l0-0.1
			c0-0.3-0.3-0.7-0.8-1.1l0-0.2l0.9,0.1l0,0.4l0.2,0l0.3-1.1l0.1-0.2l-0.2-0.1l-0.1,0.4l-0.4,0l0.3-0.4l0.1-0.9l-0.4,0.2l-0.4,0
			l0-0.4l0.4,0.2l0.2-0.4c-0.4,0-0.6-0.4-0.6-1.2l0-0.2c0.2-0.1,0.4-0.2,0.8-0.2c0.2,0,0.4,0,0.6,0.1l0.1-1.6l-0.2,0
			c0,0.5-0.4,0.9-1.2,1l0.1-0.9l0.2,0l0.1-1.3c0-0.3-0.1-0.6-0.2-0.9l0.1-0.7c-0.3,0-0.4-0.2-0.4-0.4l0-0.1l0-1.3l0.4,0l-0.2-0.4
			c0.3-0.4,0.5-0.8,0.6-1.1l-0.4-0.3c0,0.1-0.1,0.2-0.2,0.2l0-1.1c-0.3,0-0.4-0.2-0.4-0.4l0-0.1l0.1,0c0.2,0,0.4-0.1,0.4-0.4l0-0.2
			l-0.2-0.5l0.7-0.4c0,0.1,0.1,0.2,0.2,0.3l0.1-0.9l-0.4-0.1l0.1-1.3l0.2,0.1l0.4,0.2l0.1-0.7c-0.4,0-0.7-0.2-0.7-0.5l0.2-1.6
			l0.6,0.1l0.1-0.4c-0.4,0-0.6-0.2-0.6-0.4l0-0.1c0.1-0.3,0.2-0.5,0.3-0.6c-0.1,0-0.2-0.1-0.2-0.3c0.4-0.4,0.7-0.6,1.1-0.6l0.1,0
			l0.1-0.4c-0.5,0-0.8-0.4-0.8-1.2l0.3-1.1l0.1-1.6c0-0.1,0.1-0.2,0.2-0.2l0.1,0l-0.2-0.5c0.2-0.3,0.3-0.5,0.3-0.6l0.2,0l0.5,0.3
			l0-1.1l-0.2,0l0,0.4l-0.4,0c0.1-1,0.4-1.5,0.9-1.5l0.1,0l0-0.4c0.1-1.3,0.4-2.1,0.9-2.6c-0.6-0.3-0.8-0.5-0.8-0.7l0.2,0l0.5,0.3
			l0-0.2c-0.1-0.3-0.2-0.5-0.2-0.7c0.1,0,0.2-0.1,0.3-0.2l-0.2,0l1.3-2.8l0-0.2L83,91.5l0.5-0.2c0,0.3,0.1,0.5,0.4,0.5l0.1-0.7
			l-0.7-0.1l0-0.4l0.4,0c0.5,0,0.7-0.1,0.8-0.2c-0.1-0.2-0.2-0.4-0.2-0.6l0-0.1l-0.4-0.1l-0.1,0.4l-0.4,0l0.3-1.6l0.1-1.3l0.4,0.1
			l0.1,1.6c-0.1,0-0.2,0.1-0.2,0.2l0.7,0.1l0-0.2c0-0.6,0.3-1.6,0.7-2.9L85,86.2l0-0.4l0.4,0.1l0.1-0.7L85,85.1l-0.1,0.7
			c-0.3-0.2-0.5-0.3-0.6-0.3l0.1-0.9l0.2,0c0.3,0.2,0.5,0.3,0.7,0.3c-0.3-0.5-0.4-0.9-0.4-1.1l0.2,0l0.7,0.5c0.3-0.6,0.5-1,0.6-1.3
			l0.9,0.1l0.8,0.7l0.2,0.1l0.7-0.4l-0.3,1.5l0.1,1.1l0.1,0c0.2,0,0.4-0.1,0.4-0.4c0-0.6-0.1-1-0.1-1.5l0-0.6l0.2,0
			c0.3,0.6,0.6,0.9,0.8,0.9L90,85l-0.1,1.3l0.2,0c0-0.1,0.1-0.4,0.3-0.6c-0.1-0.2-0.2-0.5-0.2-0.7l0-0.2l0.4,0.1l-0.1,0.4
			c0.3-0.1,0.5-0.2,0.7-0.2c1,0.7,1.6,1,1.7,1l-0.2,0.4L92.7,87c1,0.5,1.5,0.9,1.5,1.2l0,0.3c0,0.3-0.2,0.4-0.5,0.5
			c0,0.1,0.1,0.2,0.2,0.2c-0.4,1.5-0.7,2.5-0.9,2.9c0,0.1,0.1,0.2,0.2,0.2l-1,4.4l1.1,0.3l0.1,0c0.3,0,0.8-0.5,1.6-1.6l-0.2-0.5
			l0-0.2c0-0.2,0.5-0.5,1.5-0.8l-0.2-0.4c0.9-1,1.3-1.5,1.4-1.5l0,0.4l0.4,0.1c0.1-1,0.4-1.5,0.9-1.5l0.1,0c0.5-0.9,0.8-1.5,0.8-1.7
			c0.1-0.3,0.2-0.4,0.4-0.4l0.1,0l-0.2-0.4l0-0.2l0.4,0l-0.4-0.7l0.1,0c0.4,0,0.6-0.2,0.6-0.6l0.4,0.2l0.3-1.5l0-0.2l-0.2-0.5
			l0.4,0.1c0-0.1-0.1-0.2-0.2-0.2l0.3-0.4l-0.4-0.7l0.8-1.2c0-0.9-0.2-1.4-0.4-1.4l0.3-0.5l0-0.3c0-0.6-0.2-1-0.6-1.1l0.3-0.4l0-0.1
			c0-0.5-0.3-1.2-1-2l0.1,0c0.1,0,0.2-0.1,0.2-0.2c-0.3,0-1-0.5-1.9-1.3l-0.5,0.2l-1.1,0l0.1-0.4l-1.3-0.1l-1.1,0.1l0-0.2l-0.1,0
			c-0.5,0-1.5,0.4-3.2,1.1l0,0.2l0.4,0.1c0.6-0.1,0.9-0.4,0.9-0.8c0.3,0.1,0.4,0.2,0.5,0.5c0,0.2-0.5,0.7-1.4,1.5l0.2,0l0.9-0.6
			l0.4,0l0,0.4l-0.1,0c-0.6,0-1.2,0.3-1.6,1l0.2,0c0.1-0.3,0.2-0.4,0.4-0.4l0.1,0l0,0.2c-1.2,1.2-2,1.9-2.3,1.9l-0.1,0
			c0-0.2-0.2-0.5-0.6-0.7c0,0.3-0.2,0.4-0.4,0.4l-0.1,0l-0.2-0.4c0.1,0,0.2-0.1,0.2-0.2l-1.1,0.2c-1.6-0.7-2.5-1.1-2.6-1.1
			c-0.1-0.6-0.3-1-0.8-1l0.3-1.1l-0.4-0.1l0.1-0.2c0-0.3,0.2-0.4,0.4-0.4l0.1,0l0.7,0.1l0-0.2l0.4,0.1l-0.2,0.4l0.2,0
			c0.4-0.4,1.3-0.8,2.6-1.1c0.7-0.7,2-1.5,4-2.4c0,0.1,0.1,0.2,0.2,0.2c0.1-0.3,0.2-0.5,0.3-0.7l1.1,0.3l0.2,0
			C95.2,71.5,96,71.4,97.1,71.2z M78.1,126.4l-0.1,0.7l0.2,0l0.1-0.7L78.1,126.4z M78.1,120.6c0,0.3,0.2,0.4,0.5,0.4l0-0.4
			L78.1,120.6z M78.7,127.1l-0.1,0.4l0.4,0.1l0.1-0.4L78.7,127.1z M78.8,122.8c0,0.2,0.2,0.5,0.6,0.7l0.1-0.9
			C79.2,122.8,79,122.8,78.8,122.8z M79.2,120.6l0,1.1l0.2,0.1l0-1.1L79.2,120.6z M79.2,111.6l-0.1,0.9l0.2,0c0-0.3,0.1-0.6,0.3-0.8
			L79.2,111.6z M79.4,127.2l-0.1,0.4l0.4,0.1l0.1-0.4L79.4,127.2z M79.5,133l0.4,0.1l0,0.1c0,0.4,0.2,1,0.5,1.5l-0.4,0.2l0.2,0.4
			l0,0.2l-0.2,0c-0.3,0-0.5-0.5-0.5-1.5C79.4,133.7,79.4,133.4,79.5,133z M79.4,109.9l-0.1,0.2l0.4,0.1l0.1-0.2L79.4,109.9z
			 M79.4,118.4l-0.1,0.2l0.4,0l0.1-0.2L79.4,118.4z M79.5,117.5l-0.1,0.7l0.2,0c0-0.1,0.1-0.4,0.3-0.7L79.5,117.5z M79.5,125.8
			l-0.1,0.4l0.4,0.1l0.1-0.4L79.5,125.8z M79.6,116l-0.1,0.4l0.2,0l0.1-0.4L79.6,116z M79.7,124l-0.1,0.7l0.2,0l0.1-0.6L79.7,124z
			 M79.8,121.8l-0.1,0.9c0.4-0.2,0.7-0.3,0.8-0.3l0.1,0l0-0.2C80.3,122.1,80.1,122,79.8,121.8z M79.8,107l-0.1,0.4l0.2,0L80,107
			L79.8,107z M79.9,121.1l-0.1,0.4l0.4,0.1l0.1-0.4L79.9,121.1z M79.9,106.1l0,0.2l0.4,0l0-0.2L79.9,106.1z M79.9,114.4l0,0.4l0.2,0
			l0-0.4L79.9,114.4z M80.3,109.7l0.2,0.5l0,0.2l-0.4-0.1l-0.1,0.4l0.4,0.1l0,0.4l-0.3,0.4l0.2,0.1l0.3-0.4l0.1-1.6L80.3,109.7z
			 M80,118.9l-0.1,0.4l0.2,0.1l0.1-0.4L80,118.9z M80.1,112.6L80,113l0.2,0.1l0.1-0.4L80.1,112.6z M80.1,117.6l-0.1,0.4l0.2,0
			l0.1-0.4L80.1,117.6z M80.2,104.8l-0.1,0.7l0.2,0l0.1-0.7L80.2,104.8z M80.3,127l0,0.4l0.2,0.1l0-0.4L80.3,127z M80.4,128.8
			l-0.1,0.4l0.2,0l0.1-0.4L80.4,128.8z M80.5,121.4l0,0.4l0.2,0.1l0-0.4L80.5,121.4z M80.5,109.1l-0.1,0.4c0.3,0,0.5-0.2,0.5-0.5
			L80.5,109.1z M80.6,117.1l0,0.4l0.2,0.1l0-0.4L80.6,117.1z M80.6,108.4l0,0.2l0.4,0l0-0.2L80.6,108.4z M80.8,115.6l-0.1,0.2
			l0.4,0.1l0.1-0.2L80.8,115.6z M80.8,120.5l-0.1,0.4l0.2,0l0.1-0.4L80.8,120.5z M80.8,112l0.4-0.2c0.1,0.1,0.2,0.4,0.2,0.7
			c0,0.2,0,0.4-0.1,0.6l0.2,0l0.1-1.3c-0.1-0.3-0.2-0.6-0.2-0.7l0.4,0.1l0.1-0.4C81.2,110.8,80.8,111.2,80.8,112z M80.9,119.2
			l-0.1,0.4l0.2,0l0.1-0.4L80.9,119.2z M81,117.4l-0.1,0.4l0.2,0l0.1-0.4L81,117.4z M81.4,113.4l-0.1,0.4l0.4,0.1l0.1-0.4
			L81.4,113.4z M81.4,109.1l-0.1,0.4l0.2,0l0.1-0.4L81.4,109.1z M81.6,119.3l-0.1,0.7c0.2-0.1,0.4-0.2,0.7-0.2l0.2,0l0-0.2
			L81.6,119.3z M81.6,106l0,0.4l0.2,0l0-0.4L81.6,106z M81.7,101.9l0,1.1l0.7,0.1c0-0.3-0.2-0.5-0.5-0.5l0.3-0.4l0-0.2L81.7,101.9z
			 M81.8,101.5l0,0.2l0.4,0.1l0-0.2L81.8,101.5z M81.9,109.2l-0.1,0.4l0.2,0l0.1-0.4L81.9,109.2z M82,129.4c0.1,0.3,0.2,0.6,0.2,0.9
			l0.2,0l0-1.1L82,129.4z M82,131.2l0,0.7l0.2,0l0.1-0.7L82,131.2z M81.9,108.3l0,0.4l0.2,0l0-0.4L81.9,108.3z M82.6,124l-0.3,1.1
			l-0.1,0.7l0.4,0.1l0.1-0.7l0.3-1.1L82.6,124z M82.1,100l0,0.2l0.4,0l0-0.2L82.1,100z M82.4,132.6l0.2,0.4l0,0.2l-0.3,0.4l0.4,0.3
			c0-0.1,0.1-0.4,0.3-0.7c-0.2-0.3-0.2-0.5-0.2-0.7L82.4,132.6z M82.3,112.5l-0.1,0.7l0.4-0.2c0,0.1,0.1,0.2,0.2,0.2l0.1-0.7
			l-0.4,0.2C82.5,112.7,82.5,112.6,82.3,112.5z M82.4,126.7l-0.1,0.4l0.2,0.1l0.1-0.4L82.4,126.7z M82.5,98l-0.3,0.9l0.4,0l0.3-0.8
			L82.5,98z M82.5,109.7l-0.1,0.7l0.2,0l0.1-0.7L82.5,109.7z M82.8,96.2c0,0.4-0.1,1-0.3,1.6l0.9-0.6c-0.1-0.3-0.2-0.6-0.2-0.9
			L82.8,96.2z M82.7,118.9l-0.1,0.4l0.2,0.1l0.1-0.4L82.7,118.9z M82.7,122.7l0.4,0.1l0-0.4C82.8,122.3,82.7,122.4,82.7,122.7z
			 M82.8,117.3l0.2,0.1l-0.2,0.4l-0.1,0.9l0.2,0.1c0-0.4,0.2-0.7,0.6-1.1l-0.2,0l0.3-0.5l0-0.4C83.4,116.7,83.1,116.9,82.8,117.3z
			 M82.7,104.1l0,0.4l0.4,0C83.2,104.2,83,104.1,82.7,104.1z M82.9,119.6l-0.1,0.4l0.2,0l0.1-0.4L82.9,119.6z M83.1,135.8l0.7,0.1
			l-0.1,0.4l-0.2-0.1c-0.3,0-0.4-0.1-0.4-0.3L83.1,135.8z M82.9,95.1l-0.1,0.4l0.4,0.1l0-0.1C83.3,95.2,83.2,95.1,82.9,95.1z
			 M83.1,131.3l0,0.4l0.2,0l0-0.4L83.1,131.3z M83.2,94.2l-0.1,0.7l0.2,0l0.1-0.7L83.2,94.2z M83.3,102.5l0,0.4l0.2,0.1l0-0.4
			L83.3,102.5z M83.3,105.9l0.1,1.2l0.2,0l0.1-1.1L83.3,105.9z M83.3,93.5l0,0.4c0.3,0,0.4-0.1,0.4-0.4L83.3,93.5z M83.4,112.9
			l-0.1,0.2l0.4,0.1l0.1-0.2L83.4,112.9z M83.6,104.1l-0.1,0.7l0.2,0l0.1-0.7L83.6,104.1z M84.1,91.8c0,0.3-0.2,0.6-0.6,1.1l0.4,0.3
			l0.3-1.1l0-0.2L84.1,91.8z M84.3,107.3c0,0.2-0.2,0.5-0.6,0.8c0.4,0,0.7,0.2,0.7,0.5l0.4,0.1l0-0.2l-0.1-1.1L84.3,107.3z
			 M84,110.7l-0.3,0.8l0.4,0.1c0-0.3,0.1-0.6,0.3-0.9L84,110.7z M83.8,89.3l0,0.2l0.4,0.1l0-0.2L83.8,89.3z M83.8,97.8
			c0,0.2,0.4,0.6,1.3,1.2l0-0.7L83.8,97.8z M83.9,111.8l0,0.4l0.2,0l0-0.4L83.9,111.8z M84,99.4l-0.1,0.4l0.2,0l0.1-0.4L84,99.4z
			 M84.1,110l-0.1,0.4l0.2,0l0.1-0.4L84.1,110z M84.1,100.5l0,0.4l0.1,0c0.2,0,0.3-0.1,0.3-0.4L84.1,100.5z M84.1,86l0.4,0l-0.1,0.7
			c-0.3,0-0.4-0.1-0.4-0.3L84.1,86z M84.2,96.1l0.4,0.3l0.3-0.4l0-0.2l-0.2,0C84.4,95.7,84.2,95.8,84.2,96.1z M84.3,94.3l0,0.4
			l0.2,0.1l0-0.4L84.3,94.3z M84.4,96.8l-0.1,0.4l0.2,0l0.1-0.4L84.4,96.8z M84.8,94.5L84.7,95l0.2,0l0.1-0.4L84.8,94.5z
			 M84.9,104.9l0,0.2c0.1,0.3,0.2,0.5,0.2,0.7l0.2,0l0.1-0.9L84.9,104.9z M84.9,92.7L84.9,93c0.1,0.2,0.2,0.4,0.2,0.6l0,0.1l0.2,0.1
			l0.1-0.7L84.9,92.7z M84.9,92.3l0,0.2l0.4,0.1l0-0.2L84.9,92.3z M85.1,125.8l0,0.4l0.2,0l0-0.4L85.1,125.8z M85.2,124.7l0,0.2
			l0.4,0.1l0-0.2L85.2,124.7z M85.7,131.2c0,0.1-0.1,0.4-0.3,0.7l-0.1,0.2l0.2,0c0-0.2,0.1-0.4,0.3-0.7l0.1-0.2L85.7,131.2z
			 M85.2,97.5L85.2,98l0.2,0l0.1-0.4L85.2,97.5z M85.3,96.8l-0.1,0.4l0.1,0c0.2,0,0.4-0.1,0.4-0.4L85.3,96.8z M85.5,90.3l-0.1,0.4
			l0.2,0l0.1-0.4L85.5,90.3z M85.6,92.3l-0.1,0.4l0.4,0.1l0.1-0.4L85.6,92.3z M85.6,75.3l-0.1,0.2l0.4,0.1l0-0.2L85.6,75.3z
			 M86.1,97.1c0,0.1,0.1,0.2,0.2,0.2L86,98.5l0,0.2l0.2,0l0.4-0.2l-0.2-0.4l0.3-0.4c-0.1-0.2-0.2-0.4-0.2-0.6l0-0.1L86.1,97.1z
			 M86.6,96.5l0,0.2c0.3,0,0.5-0.2,0.5-0.5l0-0.2C86.8,96.1,86.7,96.2,86.6,96.5z M86.8,124.3l0,0.4l0.2,0.1l0-0.4L86.8,124.3z
			 M86.9,83.5l-0.3,0.8l0.1,0c0.3,0,0.4-0.2,0.4-0.6l0-0.2L86.9,83.5z M87,122.4l0,0.4l0.7,0.1l0-0.2
			C87.5,122.6,87.3,122.5,87,122.4z M87,127.5L87,128l0.2,0l0.1-0.4L87,127.5z M87.1,93.8L87,94.7l0.1,0c0.2,0,0.3-0.1,0.3-0.4
			l0.1-0.4L87.1,93.8z M87.2,125.3l0,0.4l0.2,0l0-0.4L87.2,125.3z M87.2,92.7l-0.1,0.4l0.2,0.1l0.1-0.4L87.2,92.7z M87.2,91.6l0,0.4
			l0.4,0.1l0-0.4L87.2,91.6z M87.5,76.5L87.4,77l0.2,0l0.1-0.4L87.5,76.5z M87.6,113.4l0,0.2c0.1,0,0.4,0.1,0.6,0.3l0.1-0.7
			C88,113.3,87.8,113.4,87.6,113.4z M88,84.4L88,85.1l0.2,0l0.1-0.7L88,84.4z M88.3,110.8l-0.1,0.7l0.2,0l0.1-0.7L88.3,110.8z
			 M88.4,112.5c0,0.2,0.2,0.5,0.6,0.7c0-0.1,0.1-0.4,0.3-0.7L88.4,112.5z M88.6,115.5l-0.1,0.7l0.2,0l0.1-0.7L88.6,115.5z
			 M88.7,114.4l-0.1,0.4l0.2,0l0.1-0.4L88.7,114.4z M88.7,108.3l0,0.4l0.2,0.1l0-0.4L88.7,108.3z M89.1,111.9l0,0.4l0.2,0l0-0.4
			L89.1,111.9z M89.2,109.9l0,0.4l0.2,0.1l0-0.4L89.2,109.9z M90.1,73.4l0,0.4l0.2,0l0-0.4L90.1,73.4z M91.2,95.9l0.2,0.5l-0.1,0.9
			l-0.2,0.4l0.2,0.1c0.3,0,0.5-0.2,0.5-0.7L91.6,96L91.2,95.9z M91.4,93.4l-0.1,0.4l0.2,0.1l0.1-0.4L91.4,93.4z M91.3,72.8l0,0.2
			l1.1,0.1l0.1-0.4L91.3,72.8z M91.4,95.5l0.4,0l0.1-0.4C91.6,95.1,91.4,95.2,91.4,95.5z M91.8,94.2l-0.1,0.4l0.2,0l0.1-0.4
			L91.8,94.2z M91.7,73.5l0,0.4l0.2,0l0-0.4L91.7,73.5z M92.2,96.9l-0.1,0.4l0.2,0l0.1-0.4L92.2,96.9z M93.4,78.6
			c0.1,0.2,0.2,0.4,0.2,0.6l0,0.1c-0.1,0.3-0.2,0.5-0.3,0.6l-1.1-0.3C92.2,79.5,92.6,79.1,93.4,78.6z M92.3,92.6l-0.1,0.4l0.2,0
			l0.1-0.4L92.3,92.6z M92.6,101.4c0.4,0.3,0.6,0.6,0.6,0.8l0,0.1l0.2,0.1l0.1-0.2c-0.2-0.3-0.2-0.5-0.2-0.7L92.6,101.4z M94,97.9
			l-0.1,0.2l0.4,0.1l0.1-0.2L94,97.9z M94.1,72.3l0,0.2l0.2,0.1c0.3-0.2,0.8-0.3,1.5-0.3c0.3,0,0.6,0,1,0.1l0.1-0.2
			c-0.3,0-0.4-0.1-0.4-0.3C96,71.9,95.8,72,95.7,72l-0.4-0.3C94.5,71.9,94.1,72,94.1,72.3z M94.2,106.2L94.2,106.2
			c0,0.4,0.4,0.6,1.1,0.8l0-0.3c0-0.2-0.1-0.4-0.4-0.4L94.2,106.2z M94.3,74.8l0.4,0l-0.1,0.4l-0.4,0L94.3,74.8z M94.8,99.1l0,0.2
			l0.4,0l0-0.2L94.8,99.1z M95.1,73.8l0,0.2l0.4,0l0-0.2L95.1,73.8z M95.6,106.1l-0.1,0.4l1.1,0.1l0.1-0.4L95.6,106.1z M95.8,96.7
			l0,0.4l0.2,0l0-0.4L95.8,96.7z M95.8,73.4l-0.1,0.4l0.2,0l0.1-0.4L95.8,73.4z M95.9,75.2l0.2,0l0,0.4l-0.2,0L95.9,75.2z
			 M96.3,96.5l-0.1,0.2l0.4,0l0.1-0.2L96.3,96.5z M96.2,73.6c0,0.3,0.2,0.5,0.5,0.5l0.2,0l0-0.4L96.2,73.6z M97,92.8l-0.3,0.4
			c0.2,0,0.4,0.1,0.7,0.3l0-0.3C97.4,92.9,97.3,92.8,97,92.8z M97.1,97.9l-0.1,0.2l0.4,0l0.1-0.2L97.1,97.9z M97,72.5l0,0.2l0.4,0.1
			l0-0.2L97,72.5z M97.2,105.8l0,0.4l0.2,0.1l0-0.4L97.2,105.8z M97.8,103.8l0,0.4l0.2,0l0-0.4L97.8,103.8z M97.9,104.5l0,0.2
			l0.4,0.1l0-0.2L97.9,104.5z M97.9,72.8l-0.1,0.2l1.1,0.3l0-0.1c0-0.3-0.2-0.4-0.6-0.4L97.9,72.8z M98.3,96.5
			c0,0.3-0.1,0.6-0.3,0.8l0.2,0l0.5-0.6L98.3,96.5z M98.2,95.5l0,0.4l0.2,0.1l0-0.4L98.2,95.5z M98.2,74.2l-0.1,0.4l0.7,0.1l0-0.2
			C98.7,74.5,98.5,74.4,98.2,74.2z M98.3,93.3L98.3,94l0.2,0.1l0.1-0.7L98.3,93.3z M98.8,96.2l0,0.2l0.4,0.1l0-0.2L98.8,96.2z
			 M99,103c0,0.3,0.1,0.4,0.4,0.4l0.1-0.4L99,103z M99.5,98.5L99.5,99l0.2,0.1l0.1-0.4L99.5,98.5z M99.6,99.9l-0.1,0.4
			c0.2-0.1,0.4-0.2,0.6-0.2l0.1,0l0-0.2L99.6,99.9z M100.2,104.7c0.3,0,0.4,0.2,0.5,0.4l-0.5,0.2c-0.3,0-0.4-0.2-0.4-0.4l0-0.1
			L100.2,104.7z M99.8,92.3l-0.1,0.4l0.2,0.1l0.1-0.4L99.8,92.3z M101.6,88.6c0,0.4-0.6,1.5-1.5,3l0.4,0c0.7-1.7,1.3-2.5,1.7-2.5
			l0.1,0l0-0.2C102.1,88.9,101.9,88.8,101.6,88.6z M100.1,102.4l0.4,0.1l0.1-0.4C100.3,102,100.1,102.2,100.1,102.4z M100.2,93.2
			l-0.1,0.2l0.7,0.1l0.1-0.4C100.5,93.2,100.3,93.2,100.2,93.2z M100.2,74.6l0,0.2l0.4,0.1l0-0.2L100.2,74.6z M100.4,89.6l-0.1,0.4
			l0.2,0l0.1-0.4L100.4,89.6z M100.5,103.3c0.3,0.1,0.4,0.2,0.4,0.4l0,0.1l-0.4-0.1L100.5,103.3z M100.5,100.7l0,0.2l0.4,0l0-0.2
			L100.5,100.7z M100.7,86.3l0.2,0.1l-0.1,0.4l-0.2-0.1L100.7,86.3z M100.7,94.4l-0.1,0.4l0.2,0l0.1-0.4L100.7,94.4z M101,93.5
			l0,0.4l0.2,0.1l0-0.4L101,93.5z M101.1,93l0,0.2l0.7,0.1l0-0.2L101.1,93z M101.4,97.8l-0.1,0.7c0.2,0,0.4,0.2,0.6,0.7
			c-0.1,0-0.2,0.1-0.2,0.2l0.5,0c0.2,0,0.4-0.2,0.7-0.6l0-0.2l-0.2,0l-0.7,0.4l-0.3-1.2L101.4,97.8z M103.1,95.4
			c-0.1,0.7-0.6,1.3-1.7,1.9l-0.1,0.2l0.4,0.1l1.5-1.7l0.1-0.4L103.1,95.4z M101.5,87.5l-0.1,0.4l0.2,0l0.1-0.4L101.5,87.5z
			 M101.6,95.3l-0.1,0.4c0.3-0.1,0.5-0.2,0.7-0.2l0.1-0.2L101.6,95.3z M101.6,94.4l0,0.2l0.4,0.1l0-0.2L101.6,94.4z M102.3,85.3
			l-0.1,0.9l0.4,0l-0.8,2l0.4,0.1l0.4-0.2c0-0.1-0.1-0.2-0.2-0.2l0.3-1.1l0.1-1.3L102.3,85.3z M101.9,90.4l-0.1,0.4l0.2,0.1l0.1-0.4
			L101.9,90.4z M101.9,72.4l0.4,0.1l0,0.2l-0.4-0.1L101.9,72.4z M102.1,100.3l-0.1,0.4l0.2,0l0.1-0.4L102.1,100.3z M102.5,101
			l-0.1,0.4l0.2,0l0.1-0.4L102.5,101z M102.7,98.1l-0.1,0.2l0.7,0.1l0.1-0.2L102.7,98.1z M102.7,74.3l-0.1,0.4l0.2,0l0.1-0.4
			L102.7,74.3z M102.9,93l-0.1,0.4l0.2,0l0.1-0.4L102.9,93z M103.1,83.3c0,0.6-0.1,0.8-0.3,0.8c0.2,0.6,0.3,1,0.6,0.9
			c0-0.4,0.1-0.6,0.3-0.6C103.6,83.7,103.4,83.3,103.1,83.3z M103.2,97.7l0,0.2l0.4,0l0-0.2L103.2,97.7z M103.4,88l0,0.2l0.8,0.3
			l0.1-0.9c-0.4,0.2-0.7,0.3-0.8,0.3L103.4,88z M103.5,93.3l0.4,0.2l0.3-0.4l0.1-0.4l-0.1,0C104,92.6,103.7,92.8,103.5,93.3z
			 M103.6,94.8l0,0.4l0.2,0l0-0.4L103.6,94.8z M106.1,97.9l0,0.2l-0.8,1.1l0,0.4l0.2,0l0.3-1.1l0.4,0.1c0,0.4-0.5,1.2-1.3,2.4
			l-0.4,0l0.1-0.7l-0.1,0c-0.3,0-0.4,0.2-0.4,0.6l-0.4-0.1l0.1-0.9l0.1,0C104.2,100,105,99.3,106.1,97.9z M103.7,90.8l0,0.2l0.4,0.1
			l0-0.2L103.7,90.8z M103.8,87l-0.1,0.7l0.2,0L104,87L103.8,87z M103.8,89.4l0,0.4l0.2,0l0-0.4L103.8,89.4z M103.8,88.8l0,0.2
			l0.4,0.1l0-0.2L103.8,88.8z M104.1,93.8l-0.1,0.4l0.2,0l0.1-0.4L104.1,93.8z M104.4,85l-0.1,0.2l0.4,0l0.1-0.2L104.4,85z
			 M104.4,96.4l0,0.4l0.4,0.1l0-0.4L104.4,96.4z M104.5,74.2l0.4,0.1l0,0.2l-0.4-0.1L104.5,74.2z M104.6,87.3l0,0.4l0.2,0l0-0.4
			L104.6,87.3z M104.7,86.6l0,0.4l0.2,0l0-0.4L104.7,86.6z M105.2,85.7l-0.1,0.2l0.4,0l0.1-0.2L105.2,85.7z M105.4,85.1l0,0.2
			l0.4,0.1l0-0.2L105.4,85.1z M106.9,87.4l0.2,0.5c-0.8,1.8-1.3,2.8-1.6,2.8l0.1-0.2C106.1,88.4,106.6,87.4,106.9,87.4z M105.5,84.2
			l-0.1,0.2c0,0.3,0.2,0.5,0.5,0.5c0-0.3,0.1-0.6,0.3-0.9c-0.2,0.1-0.4,0.2-0.6,0.2L105.5,84.2z M105.6,79.7c0,0.3,0.2,0.5,0.5,0.5
			l0-0.4L105.6,79.7z M105.8,80.6l0,0.2l0.4,0.1l0-0.2L105.8,80.6z M106,78.4l-0.1,0.4c0.2,0,0.4,0.1,0.7,0.2l0-0.3
			c0-0.2-0.1-0.4-0.4-0.4L106,78.4z M106,75.2l0.2,0.1c1.1,0.8,1.9,2.4,2.5,4.7l-0.2-0.1c-0.4-0.3-0.8-0.5-1.1-0.5l0.5-0.7
			C107.6,77.7,107,76.5,106,75.2z M106.2,81.3l0,0.2l0.4,0.1l0-0.2L106.2,81.3z M106.3,97.9L107,98l0,0.2l-0.7-0.1L106.3,97.9z
			 M106.7,92.6c0.1,0,0.2,0.1,0.2,0.2l0,0.1c-0.3,0-0.4,0.1-0.4,0.4l0.2,0c0-0.2,0.2-0.3,0.6-0.3l0.3,0l-0.2-0.5l0-0.2
			c0.6-0.5,1.1-1.6,1.6-3.3l-0.2,0c-0.2,0-0.7,0.9-1.3,2.6C107.2,91.5,107,91.9,106.7,92.6z M106.6,96.6l0.4,0.1l-0.1,0.4l-0.4-0.1
			L106.6,96.6z M107.2,95.5l0.2,0l-0.1,0.4l-0.2,0L107.2,95.5z M107.1,78l0.2,0.1l-0.1,0.4l-0.2,0L107.1,78z M108.7,93.4l-0.1,0.7
			l-0.4-0.1l0-0.2C108.2,93.5,108.4,93.4,108.7,93.4z M108.3,77.2c0.3,0,0.7,0.9,1.1,2.6L109,80C108.5,78.6,108.3,77.7,108.3,77.2
			L108.3,77.2z M108.7,92.5l0.4,0.1l0,0.2l-0.4-0.1L108.7,92.5z M108.8,82.2l-0.1,0.2l0.4,0l0.1-0.2L108.8,82.2z M109,86.2l0.4,0.7
			c-0.3,0.5-0.5,0.9-0.6,1.3l0,0.2l0.4,0.1c0.2-1,0.4-1.7,0.6-2l-0.5-0.3L109,86.2z M109.1,85.1l-0.1,0.2c0,0.3,0.2,0.5,0.5,0.5
			l0-0.3C109.5,85.3,109.3,85.1,109.1,85.1z M109.8,81.3l0.4,0.1l-0.1,0.4l-0.4-0.1L109.8,81.3z M109.9,82.9l0.2,0.1l0,0.2
			c0,0.3,0,0.5,0.1,0.7l-0.4-0.1L109.9,82.9z M110,84.3c0.3,0.1,0.4,0.2,0.4,0.4l0,0.1l-0.4,0L110,84.3z M110.4,87.7l0.4,0.1l0,0.2
			l-0.4-0.1L110.4,87.7z"/>
		<path class="st0" d="M130.5,71.5l2.7,1.9L133,74l0,0.2c0.4,0,0.9,0.7,1.2,2.2c0.6,0,0.9,0.6,1,1.7c-0.3,0-0.4,0.2-0.4,0.5l1,0.4
			l-0.2,0.5l0.5,0.7l0,1c-1,0.6-2.2,1-3.5,1l-1.7,0c-0.2,0-0.3-0.1-0.3-0.2c-0.7,0.3-3.1,0.9-7.3,1.7c5.5,2.9,9.6,5.2,12.3,6.8
			c3,2.9,4.7,5.1,4.9,6.6c0.3,0,0.8,1.3,1.8,3.9l-0.3,0c0.2,0.3,0.3,0.5,0.3,0.7c-0.2,0.5-0.4,0.7-0.5,0.7l0.2,1.2l0,0.4
			c0,0.7-0.4,1.5-1.2,2.2l-0.8,0l0,0.2l-0.7,0l0-0.5l-0.4,0l0.2,0.5l0,0.2c0,0.3-0.2,0.5-0.5,0.5l-0.5,0l-0.4-0.2
			c0,0.7-1.1,1.4-3.2,2c1.8-1.5,2.7-2.6,2.7-3.2l-0.9,0.7l-0.5,0l0-0.7c0.4,0,1.1-0.4,2.2-1.2l0-0.2l-0.2,0l-1.7,1l-0.2,0l0-0.5
			l-0.3,0c0,0.5-0.2,0.8-0.7,0.8c0-0.2-0.1-0.3-0.2-0.3l-0.2,0.5c0.1,0,0.4,0.1,0.7,0.2c0-0.1,0.1-0.2,0.2-0.2l0,0.2
			c0,0.7-0.7,1-2.2,1l0,0.2l0.7,0l0,0.5c-1.6,0.8-2.6,1.2-3.2,1.2l0-0.3l-0.5,0l0,0.5l-0.2,0l0-0.7c0.3,0,0.5-0.2,0.5-0.5l-0.3,0
			c0,0.3-0.3,0.6-0.9,1l0-0.5l-0.3,0l0,0.2c0.3,0.6,0.5,1,0.5,1.2l-0.5,0l-0.4-0.2l0,0.5l-0.3,0l0-0.8c0.3,0,0.5-0.2,0.5-0.5l0-0.3
			l-0.2,0c-0.8,0.6-1.2,1-1.2,1.2l-0.5-0.2c-0.1,0.3-0.2,0.5-0.2,0.7l-0.3,0l0-0.5l-0.4,0c0,0.5-0.3,0.9-1,1.2l-1.5-0.2
			c-0.1,0.6-0.3,1-0.5,1l-0.7,0c0,0.1-0.1,0.2-0.2,0.2l-1.7-0.2c-0.6,0.3-0.9,0.5-0.9,0.7l0.5,0l0,0.3l-0.8,1l-0.4-0.2l-0.7,0.5
			l-0.5,0l0-0.2l0.5-0.7l0-0.5l-0.3,0l-0.9,0.7l-0.5-0.2c0,0.3-0.2,0.5-0.5,0.5l-1-0.3c-0.5,0.3-0.9,0.5-1.2,0.5l0.5,0.7
			c0.5,0,0.7-0.2,0.7-0.7l0.2,0c0.2,0,0.3,0.1,0.3,0.2l0.4-0.2c0.2,0,0.3,0.1,0.3,0.2l0.4-0.2l0.5,0.2c0-0.1,0.1-0.2,0.2-0.2
			l0.3,0.5c-0.2,0-0.6,0.4-1,1.2l-0.2,0l0-0.5l-1,0l-1.2,0.2c-0.5-0.5-0.7-1-0.7-1.5l-0.3,0c0,0.2-0.1,0.4-0.2,0.7l0.5,0l0,0.3
			c0,0.3-0.3,0.5-1,0.5l0,0.3c0,0.3,0.2,0.4,0.5,0.4c0-0.3,0.2-0.4,0.5-0.5c0.3,0.1,0.5,0.2,0.7,0.2l0,0.5c-0.2,0-0.4,0.1-0.7,0.2
			l-0.5-0.2c-0.8,0.2-1.2,0.4-1.2,0.7l0.2,0c0.3-0.2,0.6-0.3,0.7-0.3l0,0.3c1.1-0.5,2.4-0.7,3.9-0.8l-0.4,0.7l0.4,0.2
			c0.4-1,0.8-1.5,1-1.5l0.2,0.5c-0.3,0-0.5,0.2-0.5,0.5l0.5,0l0.5-0.2c0.3,0.1,0.5,0.2,0.7,0.2l0,0.5l-1.2,0.3l0-0.3l-1.7,0.7
			l-0.3-0.4l-2.4,1l0,0.2l0.4,0l0,0.5l-1.2,0.3l-1.5-0.3c-0.1,0-0.2,0.1-0.2,0.3l-1.2-0.3l-1.2,0l0-0.2l0.3-0.5
			c-0.8,0-1.2-0.2-1.2-0.5c0.1,0,0.2-0.1,0.2-0.2l0.5,0.2c0.3,0,0.5-0.2,0.5-0.5l0-0.5l-1-0.3l-0.2,0.5c-0.7-0.1-1-0.5-1-0.9
			l-0.4,0.2l-0.3,0c0-0.3-0.3-0.5-1-0.5c0-0.3,0.2-0.4,0.4-0.5c0,0.1,0.1,0.2,0.3,0.2l0.2-0.5c0-0.2-0.7-0.8-2.2-1.7
			c-0.2-0.3-0.3-0.6-0.3-0.7l0.3-0.5l0-0.3l-0.3,0l0,0.5l-0.4,0l0-0.5l0.2-0.4c-0.2,0-0.5-0.2-0.7-0.7l0.2-0.5
			c1.5,0.1,2.4,0.4,2.7,0.7l2.2,0l1.5-0.2l0.5,0.2l10-3l0.7,0c0-0.2,2.6-1.5,7.8-3.7c3.6-2,6.4-4.3,8.2-6.7l0-0.2
			c-1.3-0.8-2.7-1.5-4.4-2.2l-0.5,0.3c-7.5-2.9-12-5.4-13.5-7.3c0.1,0,0.2-0.1,0.2-0.3c-0.9,0-1.6-0.7-2-2.2c-0.5,0-0.8-0.9-1-2.7
			c-0.7-0.7-1-1.4-1-2.2l0-0.3l0.5,0l0-0.7c-0.5-0.4-0.9-1.3-1.2-2.7c0.1-0.6,0.5-1,0.9-1c-0.2-0.3-0.2-0.6-0.2-0.7l0.2-0.5
			c-0.2-0.3-0.2-0.6-0.2-0.7l0.5,0.2c0-0.6,0.9-1,2.7-1l0,0.4l0.2,0c0.3,0,0.5-0.2,0.5-0.5c-0.5,0-0.7-0.2-0.7-0.5
			c0.9-0.2,1.8-0.2,2.5-0.2c0,0.3,0.2,0.4,0.5,0.4l0-0.2l-0.2-0.5c0.4,0,0.8-0.2,1.2-0.5l0.2,0c0.1,0,0.2,0.1,0.2,0.3l3.7-0.7l0,0.2
			C125.5,72,127.3,71.7,130.5,71.5z M103.9,114l0,0.2l0.5,0l0-0.2L103.9,114z M104.8,112.5l0.8,0l0-0.4l-0.3,0
			C105,112.1,104.8,112.2,104.8,112.5z M105.1,114l0,0.2l0.5,0l0-0.2L105.1,114z M105.8,112.3l0,0.5c0.8,0,1.2,0.2,1.2,0.5l0.4,0
			c0-0.5,0.3-0.8,0.8-0.8l0-0.2c-1.2,0-1.7-0.1-1.7-0.2C106.2,112.2,106,112.3,105.8,112.3z M106.3,113l-0.3,1l0.7,0l-0.2-0.5
			c0.1,0,0.2-0.1,0.2-0.2L106.3,113z M106.1,115.5l0,0.5l0.3,0l0-0.5L106.1,115.5z M106.3,114.7l0,0.2l0.4,0l0-0.2L106.3,114.7z
			 M107.1,115.5l0,0.5l0.4,0C107.5,115.6,107.4,115.5,107.1,115.5z M107.5,114.7l0,0.5c0.7,0,1,0.1,1,0.4l0.5,0l0.4-0.2
			c-0.2-0.3-0.2-0.6-0.2-0.7L108,115L107.5,114.7z M111.2,115.9l-0.7,0l-3,0.2l0,0.2c1,0,1.5,0.2,1.5,0.7c1.8-0.6,2.7-1,2.7-1.2
			l0-0.3L111.2,115.9z M107.8,113.3l0,0.2l0.7,0l0-0.2L107.8,113.3z M108.3,111.8l0,0.3l0.4,0l0-0.3L108.3,111.8z M108.5,112.3
			l0,0.5l0.2,0l0-0.5L108.5,112.3z M108.8,117.4l0,0.5l0.3,0l0-0.5L108.8,117.4z M109.5,112c0,0.7-0.1,1.3-0.2,2l0.2,0
			c0.8,0,1.2-0.3,1.2-0.7l0.3,0l0,0.7c1.3-0.6,2-1,2-1.2c-0.3,0-0.5-0.1-0.5-0.3l-0.5,0.3l-1.2,0l0-0.3l0.5,0l0-0.2l-0.7,0
			c0,0.1-0.1,0.2-0.2,0.2l0.2,0.5c0,0.3-0.2,0.5-0.5,0.5c0-0.1-0.1-0.6-0.2-1.5L109.5,112z M109.3,117.9l0,0.2
			c0.2,0,0.4,0.1,0.7,0.2l0.3,0l0-0.2c-0.2,0-0.4-0.1-0.8-0.2L109.3,117.9z M109.5,120.1l0.3,0l0,0.5l-0.3,0L109.5,120.1z
			 M110.2,111.7l0,0.3l0.4,0l0-0.3L110.2,111.7z M110.5,114.4l0,0.3c0.2,0.3,0.2,0.5,0.2,0.7l0.3,0l0-1L110.5,114.4z M110.7,120.3
			l0.7,0l0,0.5l-0.2,0C110.9,120.8,110.7,120.6,110.7,120.3z M111,111.5l0,0.5l0.2,0l0-0.5L111,111.5z M111.2,114.9l0.5,0l0-0.5
			C111.4,114.5,111.2,114.7,111.2,114.9z M112.9,110.8c0,0.3-0.3,0.5-1,0.5l0,0.4c0.1,0,0.6,0.1,1.5,0.3c0-0.3-0.2-0.5-0.5-0.5
			l0.2-0.5l0-0.2L112.9,110.8z M111.9,114.7l0,0.5l0.2,0l0-0.5L111.9,114.7z M113.2,113.2l0,0.4l0.2,0l0-0.4L113.2,113.2z
			 M116.3,110.5l0,0.4l-0.3,0c-0.1,0-0.2-0.1-0.2-0.2c-1.2,0.2-1.7,0.5-1.7,0.7l0,0.2l1.5-0.5l0.2,0.4l0,0.3c-0.3,0-0.5,0.1-0.5,0.2
			c-0.1,0-0.2-0.1-0.2-0.2l-1.5,0.2l0.2,0.5l1-0.5l0.2,0.5c-0.3,0.2-0.7,0.2-1.5,0.2l0,0.5l3.6-0.7l0-0.5l-1.2,0.2l0-0.4l0.7,0
			l0-0.3l-0.4,0c0-0.3,0.1-0.7,0.2-1l0-0.2L116.3,110.5z M113.6,110.8l0,0.5l0.2,0l0-0.5L113.6,110.8z M113.7,78.2l0,0.5l0.5,0
			l0-0.5L113.7,78.2z M113.9,118.8l1.2,0l0,0.2l-1.2,0.3L113.9,118.8z M114.4,117.1l0,0.3l0.5,0l0-0.3L114.4,117.1z M114.6,115.2
			l0.5,0l0-0.5C114.8,114.7,114.6,114.9,114.6,115.2z M114.9,110.3l0,0.3l0.4,0l0-0.3L114.9,110.3z M115.4,114.7l0,0.5
			c0.3-0.2,0.6-0.3,1-0.3l0-0.2L115.4,114.7z M116.3,109.8l0,0.3l0.4,0l0-0.3L116.3,109.8z M131.7,105.5l-0.5-0.2
			c-0.6,0.6-1.9,1.3-3.9,2.2c0.2,0.3,0.3,0.6,0.3,0.7l-0.3,0l-1.2-0.5c-0.3,0.7-0.8,1-1.5,1l0.3,0.5l-0.5,0.2l-0.2,0l0-0.5l-0.3,0
			c0,0.7-1.1,1.3-3.4,2c-0.8,0-1.2-0.1-1.2-0.4c-0.3,0.2-0.5,0.2-0.7,0.2l-0.2,0l0-0.2c1.1-0.4,1.7-0.8,1.7-1l-2.7,0.7l0,0.3
			l0.5,0.7c-0.2,0-0.2,0.1-0.2,0.2l0.4,0.2l0-0.4l0.3,0c0.1,0,0.2,0.1,0.2,0.2l0.5-0.2c0.8,0,1.2,0.2,1.2,0.4c0.9,0,2.4-0.6,4.4-1.7
			c0,0.1,0.1,0.2,0.3,0.2c0-0.3,0.6-0.6,1.7-1c0.3,0.1,0.6,0.2,0.7,0.2l-0.2-0.5c0.9-0.3,1.6-0.7,2.2-1.2c0,0.2,0.1,0.3,0.3,0.3
			c0-0.2,1.4-1.1,4.4-2.7c0.4-0.8,0.8-1.2,1-1.2c0,0.1,0.1,0.2,0.2,0.2l0.2-0.4l-0.5-0.3l-0.3,0
			C132.7,103.9,131.7,104.6,131.7,105.5z M117.6,112.4l0.4,0c0.3,0,0.5-0.2,0.5-0.5l0-0.3C117.9,112,117.6,112.2,117.6,112.4z
			 M118,112.9l0,0.3l0.5,0l0-0.3L118,112.9z M118.5,114.7c0.3,0,0.5,0.2,0.5,0.5l-0.5,0L118.5,114.7z M118.6,116.9l0.7,0l0,0.2
			l-0.7,0L118.6,116.9z M118.7,109l0,0.3l0.5,0l0-0.3L118.7,109z M118.8,111.7l0,0.5l0.3,0l0-0.5L118.8,111.7z M120.2,109.3l0,0.2
			l0.7,0l0.2-0.5l-0.2,0C120.6,109.2,120.4,109.3,120.2,109.3z M121.2,108l0,0.2l1.2,0l0-0.5L121.2,108z M124.4,111.9l0,0.2
			c0,0.4-0.6,0.6-1.7,0.7C122.9,112.3,123.5,112,124.4,111.9z M122.9,107.8l0,0.8l0.2,0c0.3,0,0.5-0.2,0.5-0.5
			C123.5,108,123.2,107.9,122.9,107.8z M124.6,107.5l0,0.5l0.3,0c0.3,0,0.4-0.2,0.4-0.5l0-0.2C125,107.4,124.8,107.5,124.6,107.5z
			 M124.9,111.7l0.7,0c0,0.3-0.2,0.5-0.5,0.5l-0.2,0L124.9,111.7z M125.6,111.4l0.4,0l0,0.2l-0.4,0L125.6,111.4z M126.6,105.8
			c0.1,0.3,0.2,0.4,0.5,0.4l-0.2,0.5l0,0.2l0.4,0l0-1.2L126.6,105.8z M127.1,110.7l0.5,0c0,0.3-0.2,0.5-0.5,0.5L127.1,110.7z
			 M128.5,111.2l0.2,0c0.8,0.4,1.2,0.6,1.2,0.7l1.5-0.7c1.1,0,1.7,0.1,1.7,0.4c-0.1,0.3-0.2,0.6-0.2,0.7l-0.5-0.2
			c0,0.1-0.1,0.2-0.2,0.2l-0.3-0.9c-0.4,0.4-1.2,0.7-2.4,1l0,0.3l0.7,0c0.3-0.2,0.5-0.3,0.7-0.3l0,0.5l-1,0.3c0-0.2-0.1-0.3-0.2-0.3
			c0,1-0.2,1.5-0.7,1.5l0-0.2c0.1-0.3,0.2-0.6,0.2-1l-0.7,0.5l-0.7,0l0,0.3l-0.2,0l-0.5-0.3c0.1-0.3,0.2-0.6,0.2-1l0.7,0.5
			c0.3-0.2,0.6-0.3,0.7-0.3l0-0.2l-0.2-0.5c0.3,0,0.5-0.2,0.5-0.5l-0.5,0L128.5,111.2z M127.8,105.8l-0.2,0.4l0.4,0.3l0.3-0.5
			L127.8,105.8z M128.5,105.5l0,0.7l0.2,0l0-0.7L128.5,105.5z M129.8,110.5l0.2,0c0,0.3-0.1,0.4-0.4,0.5l-0.3,0
			C129.3,110.6,129.5,110.5,129.8,110.5z M130.7,107.7l0,0.3l0.8,0l0.2-0.5l-0.2,0C131.2,107.6,130.9,107.7,130.7,107.7z
			 M130.7,108.5l0,0.2l0.5,0l0-0.2L130.7,108.5z M131.7,108l0,0.5l0.2,0l0-0.5L131.7,108z M132.2,110.7l0.4,0l0,0.2l-0.4,0
			L132.2,110.7z M132.4,107.5l0,0.5l0.2,0l0-0.5L132.4,107.5z M132.7,110.4l0.5,0l0,0.2l-0.5,0L132.7,110.4z M133.4,106.2l0,0.3
			l0.8,0l0-0.3L133.4,106.2z M133.9,111.2l0.3,0c0,0.3-0.2,0.4-0.5,0.5l-0.3,0C133.5,111.3,133.7,111.2,133.9,111.2z M134.6,107.7
			l0.3,0c0,0.3-0.2,0.5-0.5,0.5l-0.2,0C134.2,107.9,134.4,107.7,134.6,107.7z M134.4,110.7l0.5,0l0,0.2l-0.5,0L134.4,110.7z
			 M135.3,103l0,0.3l0.5,0l0-0.3L135.3,103z M135.6,102.3l0,0.3l0.5,0l0-0.3L135.6,102.3z M136.3,102.6l0,0.4l0.2,0l0-0.4
			L136.3,102.6z M137.3,105.8l0,0.2l0.3,0c0.3-0.1,0.6-0.5,0.9-1.2l-0.2,0C138,104.8,137.7,105.1,137.3,105.8z M137.8,107.9l0.5,0
			l0,0.5l-0.5,0L137.8,107.9z M139,104.7l0,0.5l0.2,0l0-0.5L139,104.7z M139.8,107.2l0.2,0l0,0.4l-0.2,0L139.8,107.2z"/>
		<path class="st0" d="M158.5,53.6l0.2,0l0,0.2l-0.5,0.7l-0.1,0.2l0.7,0.1c0.2-0.7,0.4-1.1,0.7-1.1l0.1,0l0,0.2l-0.3,1.1l0.4,0.1
			c0-0.3,0.1-0.6,0.3-0.8c0.3,0.1,0.5,0.2,0.6,0.3c0,0.3-0.2,0.4-0.4,0.4l-0.1,0c0.2,0.6,0.4,0.9,0.6,0.9c0.1-0.6,0.3-0.8,0.5-0.8
			c0.3,0.2,0.5,0.3,0.7,0.3l-0.1,0.4l-0.5,0.6l-0.1,0.7l0.9-0.6l0.4,0.3l0.1-0.4l0.7,0.1l0.4,0.3c0-0.1,0.1-0.2,0.2-0.2l-0.1,1.3
			l0.2,0c0-0.4,0.2-0.6,0.4-0.6l0.1,0l0.2,0.4c-0.3,0-0.6,0.4-0.8,1.1l0.1,0c0.3,0,0.4-0.3,0.5-0.8l0.2,0l0.4,0.3
			c-0.5,0.8-0.8,1.4-0.8,1.7c0.3,0.1,0.4,0.2,0.4,0.4l0,0.1c-0.6,0.2-0.9,0.3-0.9,0.6l0.2,0.4c-1,2.6-1.5,3.9-1.7,3.9l0,0.2
			c0.8,0.3,1.4,0.5,1.7,0.8c0.1-0.3,0.2-0.4,0.4-0.4l0.1,0l0.7,0.5c0-0.4,0.8-0.6,2.3-0.7c0-0.1,0.1-0.2,0.2-0.2
			c0,0.1,0.1,0.2,0.2,0.2c0-0.1,0.1-0.2,0.2-0.2l0.1,0c0,0.1,0.1,0.2,0.2,0.2c0.1-0.3,0.2-0.4,0.4-0.4l0.1,0l0.9,0.1l-0.1,0.4l0.2,0
			l0.7-0.4l0,0.1c0,0.1,0.1,0.2,0.2,0.2c0.1-0.8,0.6-1.2,1.7-1.2c0.2,0,0.4,0,0.6,0.1c0-0.1,0.2-0.2,0.5-0.2l0.2,0
			c0.4,0,1.5,0.6,3.2,1.7c0.6,0,1.6,0.9,3.2,2.5l0.4,0.1l-0.1,0.2l-0.3,1.1c0.6,0,0.9,0.2,0.9,0.5c-0.2,0.1-0.5,0.1-0.7,0.1l-0.2,0
			l-0.1,0.9l0.4,0.1c0,0.2-0.4,0.4-1,0.6l0.1-0.4l-0.2-0.1l-1.4,1l-0.2-0.1l0.3-0.4l0.1-0.2c-0.8,0.5-1.2,0.7-1.4,0.7l-0.1,0
			l0.1-0.4l0.3-0.4l-0.2-0.1c-0.1,0-0.7,0.3-1.7,1c-0.3,0-0.4-0.2-0.4-0.6l0-0.1l-1.1,0.1l0-0.2l-0.4,0.2l-0.2,0l-1.1-0.8
			c-0.2,0.1-0.4,0.1-0.7,0.1l-0.2,0c0-0.6-0.2-0.9-0.6-0.9l0.3-0.4l0-0.1c0-0.2-0.2-0.5-0.6-0.7l0,0.2l0.2,0.5l-0.1,0
			c-0.2,0-0.5,0.2-0.9,0.6c-0.1,0-0.2-0.1-0.2-0.2l0-0.1c-2.2,0.4-3.4,0.8-3.7,1.2l0-0.1c0-0.2-0.1-0.3-0.4-0.3
			c0,0.3-0.1,0.4-0.2,0.4l-0.1,0c-0.3-0.2-0.5-0.3-0.6-0.3c-0.3,0.5-0.6,0.8-1.1,0.8l-0.1,0l0.2,0.4c-1.2,0.2-1.8,0.7-1.9,1.4
			c-0.1,0-0.2,0.2-0.3,0.7l-0.2-0.1l0-0.4l-0.2,0c-0.3,0-0.4,0.1-0.4,0.4l0.2,0c-0.4,0.9-0.7,1.3-1,1.3l-0.1,0l0-0.1
			c0-0.1-0.1-0.2-0.2-0.2l-0.7,2.9l0.8,0.3c-0.3,0.6-0.5,1-0.6,1.3l0.1,1.1c-0.2,0.9-0.4,1.3-0.6,1.3l0,0.1c0,0.1,0.1,0.2,0.2,0.2
			c-0.1,1-0.3,1.5-0.7,1.5l-0.1,0l-0.1,0.2c0.4,0.1,0.6,0.2,0.6,0.5l0,0.1l-0.1,0c-0.1,0-0.2,0.1-0.2,0.2l0.7,0.1l-0.1,0.9l-0.4,0
			l0.1-0.7l-0.2-0.1c-0.1,0.4-0.2,1-0.4,1.6l0.2,0l-0.3,0.5l-0.1,0.4L158,88l0,0.2l-1.1,0.1l-0.1,0.4c0.1,0,0.2-0.1,0.2-0.2
			c0.6,0.3,0.8,0.5,0.8,0.7l0,0.1l-0.2-0.1l-0.5-0.3l-0.1,0.9l0.2,0.1l0.4-0.2l0,0.2l-0.8,0.8l-0.1,1.3l0.2,0.1
			c0.1-0.7,0.2-1.1,0.5-1.1l0.1,0l-0.1,0.4l-0.3,0.5c0.1,0,0.2,0.1,0.2,0.2c-0.1,0-0.2,0.1-0.3,0.2c0.1,0,0.2,0.1,0.2,0.2
			c-0.3,0-0.5,0.2-0.5,0.5l0,0.2l0.2,0l0.1-0.4c0.3,0.1,0.4,0.2,0.4,0.4l0,0.1l-0.1,0c-0.2,0-0.4,0.3-0.7,1l0.1,3.6
			c-0.3,0-0.5,0.1-0.5,0.4c0.1,0,0.2,0.1,0.2,0.2l-0.1,0c-0.4,0-0.7,0.4-0.8,1.3l0.4,0.1l-0.1,0.7l-0.5-0.3l0,0.2
			c0,0.3,0.1,0.5,0.4,0.5l-0.3,0.4l0,0.4c0.3,0,0.7,0.4,1,1l-0.3,0.5c0,0.2,0.2,0.7,0.7,1.6l0,0.2l-0.9,0.2c0-0.2-0.1-0.2-0.2-0.3
			l-0.5,0.6l-0.4-0.2c-0.2,0.1-0.4,0.1-0.6,0.1l-0.1,0l-0.2-0.4l0.3-0.4l-0.4-0.3l0,0.2c0.1,0,0.2,0.1,0.2,0.2l0,0.1l-0.9,0.6
			c-0.3-0.3-0.6-0.5-0.8-0.6l0.1-0.7l0.4,0.1l0-0.1c0-0.3-0.5-1.2-1.5-2.6l0.1,0c0.2,0,0.3-0.1,0.3-0.4l0.1-0.2l-0.1,0
			c-0.3,0-0.4,0.2-0.4,0.6c-0.2,0-0.5-0.5-0.8-1.5l0.1-0.6l0.4,0.2c-0.5-2.4-0.7-4.4-0.7-6c0-0.5,0-1,0-1.4l-0.4-0.1l0,2.5l-0.4-0.1
			l-0.1,0.2c0.7,1.1,1,2.2,1,3.3c0,0.2,0,0.4-0.1,0.6l0,0.2l-0.2,0l0-0.1c0-0.4-0.5-0.9-1.6-1.7l0.3-0.4l-0.7-0.1l0-0.2
			c0.1,0,0.4,0,0.9-0.1l0.1-0.2l0-0.1c0-0.2-0.1-0.4-0.4-0.4c0-0.1,0.1-0.2,0.2-0.2c0-0.2-0.1-0.5-0.1-0.9c0-0.4,0-0.8,0-1.3l0.1,0
			c0.1,0,0.3-0.2,0.4-0.6l-0.7-0.1l0.2-1.3c0-0.3-0.2-0.5-0.5-0.5c0.2-0.6,0.8-1.3,1.8-1.9l0.2,0l-0.1,0.4l0.2,0.1l0.1-1.3l-1.4,0.8
			l-0.4-0.7l0.4-0.2c0,0.2,0.1,0.2,0.2,0.2c0-0.2,0.2-0.5,0.6-0.8l-0.2-0.1l-0.5,0.2c-0.2-0.5-0.3-0.9-0.3-1.2l0.3-1.1l-0.2,0
			c0.5-1.3,0.8-2,0.9-2l-0.1-1.3c0.1-0.6,0.3-1.3,0.6-2c-0.1,0-0.2-0.1-0.2-0.2l0-0.1l0.4,0c0.3,0.2,0.5,0.3,0.6,0.3l-0.2-0.5
			l0.5-0.2l-0.2-0.4l0.1-0.2l0.3-0.4l-0.4-0.3l-0.3,0.4l0.1,1.1l-0.9-0.1l0.1-0.2c0-0.4,0.2-1,0.6-1.7c-0.1,0-0.2-0.1-0.2-0.3
			l1.2-0.3l0-0.2c-0.4,0-0.6-0.2-0.6-0.6l0-0.1c-0.9,0.1-1.4,0.3-1.4,0.6l0,0.2l0.2,0.4l-0.4,0.2l-0.2,0l0.1-0.7l-0.7,0.4
			c0.1,0.2,0.2,0.4,0.2,0.6l0,0.1l0.2,0.1l0.1-0.4c0.2,0.1,0.6,0.2,1.1,0.3l0,0.4l-0.2,0l-0.4-0.3l-0.1,0.7l0.4,0.1l-0.1,0.2
			c0,0.7-0.4,1.2-1,1.2l0-0.1c0-0.1-0.1-0.2-0.2-0.2l0.2-0.4l0.1-0.7l-0.4,0l-0.1,0.9l-0.7-0.1c0-0.1,0.1-0.2,0.2-0.2l0.1,0
			l-0.2-0.5l0.1-0.8l0.5-0.7l-0.4,0l0.5-0.7l0.1-0.7l-0.2-0.4c-0.3,0.1-1.2,0.2-2.7,0.2l-0.2-0.4l-1.1,0.1l-0.4-0.1l-3-0.9
			c0,0.1-0.1,0.2-0.2,0.2l-0.1,0l0.1-0.2l0.5-0.6c-0.6,0-0.9-0.1-0.9-0.3l-0.4,0.2l-0.2,0c0.2-0.6,0.3-1.2,0.4-1.6l-0.8-1.4
			c0.2-0.1,0.4-0.2,0.6-0.2l0.1,0l-0.2-0.5c1.1-0.4,2-0.6,2.6-0.6l0.2,0l0,0.2l1.4-0.5c0.3,0,0.6,0.1,0.9,0.3
			c0.7-0.1,1.1-0.4,1.2-0.8l0.4,0.3l0.9,0.1c0.6-0.4,1.1-0.6,1.5-0.6l0.1,0c0.2,0.2,0.5,0.3,0.8,0.3c1.1-0.5,1.7-0.8,1.7-1
			c0-0.5,0.1-0.9,0.3-1.1c-0.1,0-0.2-0.1-0.2-0.2l0.1,0c0.2,0,0.4-0.1,0.4-0.4L152,66c0.1-0.3,0.2-0.4,0.5-0.4l0.4,0.3l0.1-0.7
			l-0.5,0.2l-0.2,0l0.1-0.9l0.2,0c0.4,0,0.7-0.2,0.7-0.6c-0.1,0-0.2-0.1-0.2-0.3c0.3,0,1.3-2.5,3-7.6c0.3-0.6,0.6-0.8,0.7-0.8
			l0.2,0.1l0,0.4l0.2,0.1l0-0.4c-0.1,0-0.2-0.1-0.2-0.2l0-0.1l0.4,0l-0.2-0.4C157.3,54.4,157.7,54.1,158.5,53.6z M141.2,73.1l0,0.2
			l0.4,0.1l0-0.2L141.2,73.1z M142.4,74.1c0,0.3,0.2,0.5,0.4,0.5l0.1-0.4L142.4,74.1z M146.7,69.4l-0.1,0.4l0.2,0l0.1-0.4
			L146.7,69.4z M147.4,93.7l0.4,0l0.2,1l-0.5,0.2l-0.2-0.4L147.4,93.7z M147.9,90.4l0.8,1l-0.1,1.1l-0.7-0.1l0.3-1.1l-0.5,0.2
			l-0.3-0.7C147.5,90.5,147.7,90.4,147.9,90.4z M147.6,96c0.4,0,0.6,0.7,0.7,2.1l-0.4-0.1C147.7,96.9,147.6,96.2,147.6,96z
			 M149.7,81.3l0,0.2c0,0.4,0.1,0.8,0.3,1.2l-0.7,0.4l0,0.1c0,0.4,0.2,0.6,0.6,0.6l-0.1,0.2l-0.4-0.1l-0.1,0.9
			c0,0.1,0.1,0.2,0.2,0.3c-0.5,2-0.9,3-1.2,3l-0.2-0.5c0.2-0.2,0.3-0.5,0.3-0.8l-0.7-0.1l0-0.2l0.4,0.1l0.1-0.4l-0.7-0.1
			c1-0.6,1.4-1.1,1.4-1.4l-1.1-0.1c0-0.3,0.2-0.4,0.6-0.4l0.1,0l0.1-0.2c-0.4,0-0.6-0.2-0.6-0.6l0-0.1c0.2-0.3,0.3-0.5,0.3-0.6
			l0.2,0l-0.1,1.1l0.4,0.1l0-0.2l-0.1-1.2l0.5-0.2l-0.2-0.4C149.3,81.5,149.4,81.3,149.7,81.3L149.7,81.3z M147.7,95.3l0.4,0.1
			l-0.1,0.4c-0.3,0-0.4-0.2-0.4-0.4L147.7,95.3z M149.1,95.2l-0.1,0.4c-0.2,0.3-0.3,0.5-0.3,0.6c-0.3,0-0.4-0.2-0.4-0.4l0-0.1
			l0.1-0.4l0.1,0C148.7,95.3,148.8,95.3,149.1,95.2z M148.6,86.2l-0.1,0.4l0.2,0l0.1-0.4L148.6,86.2z M148.5,81.5l0.4,0l0,0.2
			l-0.4,0L148.5,81.5z M148.6,89.7l0.4,0.1l0,0.2l-0.4-0.1L148.6,89.7z M149,98.4l0.7,0.1c0.3,1.3,0.5,2.2,0.5,2.6l0,0.1l-0.1,0.4
			C149.7,101.6,149.4,100.5,149,98.4z M149.6,96.8l0,0.2l0.4,0l0-0.2L149.6,96.8z M149.7,80.9l0.4,0c0,0.2,0.1,0.4,0.2,0.7l-0.2-0.1
			c-0.3,0-0.4-0.1-0.4-0.3L149.7,80.9z M149.9,79.1l-0.1,0.7l0.2,0l0.1-0.7L149.9,79.1z M150.2,96.9l-0.1,0.7l0.2,0l0.1-0.7
			L150.2,96.9z M150.3,99.4c0.2,0,0.6,1,1.2,3c-0.1,0-0.2,0.1-0.2,0.2c0.1,0,0.2,0.1,0.2,0.2l-0.4,0l0.1-0.7l-0.4-0.1l-0.1,0.4
			l-0.4-0.3c0.2-0.4,0.4-0.6,0.5-0.6c-0.3-1-0.5-1.7-0.5-2.1L150.3,99.4z M150.6,90.6l-0.1,1.1l0.2,0l0.3-1.1L150.6,90.6z
			 M150.6,85.7c0,0.3,0.1,0.4,0.4,0.4l0.1-0.4L150.6,85.7z M150.7,84.4l0,0.2l0.4,0l0-0.2L150.7,84.4z M151,81.7l0.4,0.7
			c-0.3,0-0.5,0.1-0.5,0.4l-0.1,0.2l0.3,0c0.3,0,0.4-0.2,0.4-0.6c-0.1-0.2-0.1-0.4-0.1-0.6l0-0.1L151,81.7z M151.1,87.1
			c0,0.1-0.1,0.4-0.3,0.6l0,0.2l0.2,0.1c0-0.2,0.1-0.4,0.3-0.7l0-0.2L151.1,87.1z M150.9,89.7l-0.1,0.4l0.2,0.1l0.1-0.4L150.9,89.7z
			 M151.1,75.6l0,0.4l0.2,0l0-0.4L151.1,75.6z M151.3,90.9l-0.1,0.4l0.2,0l0.1-0.4L151.3,90.9z M151.6,84.9l-0.3,0.4l-0.1,0.7l0.2,0
			c0-0.4,0.2-0.6,0.6-0.6l0.1,0l0.1-0.2C152.1,85.1,151.8,85,151.6,84.9z M151.4,84.4l0,0.2l0.4,0.1l0-0.2L151.4,84.4z M151.5,95.2
			l-0.1,0.4l0.2,0l0.1-0.4L151.5,95.2z M151.5,96.1c0.1,0.3,0.3,1.5,0.6,3.4l0.4,0.1l0-0.2c-0.3-0.4-0.5-1-0.5-1.8
			c0-0.3,0-0.6,0.1-1l0-0.2c0-0.3,0.2-0.4,0.6-0.4l0.1,0l0.1-0.4c-0.5,0.4-0.9,0.6-1.3,0.6L151.5,96.1z M151.5,100.1l0,0.4l0.2,0.1
			l0-0.4L151.5,100.1z M151.6,80.6l-0.1,0.7l0.2,0l0.1-0.7L151.6,80.6z M151.5,95L152,95c0.1-0.7,0.2-1.1,0.3-1.1l-0.2-0.4
			c0.2-0.3,0.3-0.5,0.3-0.7C152.1,92.8,151.8,93.5,151.5,95z M152.1,82.2l-0.4,1.5l-0.1,0.4l0.2,0.1c0-0.4,0.3-0.8,0.8-1.3
			c-0.3,0-0.4-0.2-0.4-0.6l0-0.1L152.1,82.2z M151.8,90.1l-0.1,0.9l0.6,0.1c-0.1-0.2-0.1-0.4-0.1-0.7l0-0.2L151.8,90.1z M151.9,89.2
			l-0.1,0.4l0.4,0.1l0.1-0.4L151.9,89.2z M151.9,91.4l-0.1,0.4l0.4,0.1l0-0.1C152.3,91.6,152.2,91.4,151.9,91.4z M152,77.5l0,0.2
			l0.4,0.1l0-0.2L152,77.5z M152.2,80.4l-0.1,1.3l0.2,0c0-0.7,0.1-1.1,0.3-1.3L152.2,80.4z M152.2,88.1l-0.1,0.4l0.2,0.1l0.1-0.4
			L152.2,88.1z M152.3,87.4l-0.1,0.4l0.2,0l0.1-0.4L152.3,87.4z M152.3,96.8l0,0.2l0.4,0.1l0-0.2L152.3,96.8z M152.3,86.5l-0.1,0.7
			l0.2,0l0.1-0.7L152.3,86.5z M152.7,75l-0.3,0.9l0.4,0.1c0-0.3,0.1-0.6,0.3-0.9L152.7,75z M153.2,81.9l0.2,0.4
			c-0.3,0-0.5,0.2-0.5,0.4l0,0.2l0.4-0.2l0.4,0.1c0,0.2-0.3,0.4-0.7,0.6c0-0.1-0.1-0.2-0.2-0.3c-0.1,1.2-0.2,1.8-0.4,1.8
			c0.1,0.3,0.2,0.5,0.2,0.7l0.2,0.1c0-0.3,0.2-0.6,0.5-0.9l0.1-0.2l-0.2-0.4l0.4-0.2c0,0.1,0.1,0.2,0.2,0.2c0-0.1,0.1-0.2,0.2-0.2
			l0.1,0c0,0.1,0.1,0.2,0.2,0.2l0-0.4l-0.8-0.3c0.3-0.3,0.5-0.6,0.5-0.9c-0.1-0.3-0.2-0.5-0.2-0.7L153.2,81.9z M152.7,99.6l-0.1,0.7
			l0.2,0.1l0.1-0.7L152.7,99.6z M152.6,78.7l-0.1,0.6l0.4,0.1c-0.1-0.3-0.2-0.5-0.2-0.7L152.6,78.7z M152.6,93.1l0,0.2
			c0,0.3,0.1,0.4,0.4,0.4l0-0.3C153,93.2,152.9,93.1,152.6,93.1z M152.8,101l0.4,0l0.1-0.4C153,100.6,152.8,100.7,152.8,101z
			 M152.7,77.6l0,0.2l0.4,0l0-0.2L152.7,77.6z M152.8,81.2l-0.1,0.4l0.2,0l0.1-0.4L152.8,81.2z M152.9,79.6l0,0.4l0.2,0.1l0-0.4
			L152.9,79.6z M153.2,101.9l-0.1,0.4l0.2,0.1l0.1-0.4L153.2,101.9z M154,66c0,0.4-0.2,0.6-0.6,0.6l-0.1,0l0,0.4l1.1,0.3l0-0.2
			c-0.1-0.2-0.1-0.4-0.1-0.8l0-0.4L154,66z M153.5,102.8l-0.1,0.4c0,0.3,0.2,0.5,0.4,0.5l0.2,0l0.1-0.2
			C154.1,103.3,153.9,103.1,153.5,102.8z M153.4,68.2l-0.1,0.4l0.7,0.1l0-0.2C153.9,68.4,153.6,68.3,153.4,68.2z M153.6,92.5
			l-0.1,0.4l0.2,0.1l0.1-0.4L153.6,92.5z M153.6,101.7l-0.1,0.2l0.4,0.1l0.1-0.2L153.6,101.7z M153.8,80.4c0,0.1-0.1,0.4-0.3,0.6
			c0.4,0,0.6,0.2,0.6,0.6l0,0.1l0.2,0.1c0-0.1,0.1-0.6,0.3-1.3c-0.1,0-0.2,0.1-0.2,0.2l-0.4-0.3L153.8,80.4z M153.6,84.4l0,0.2
			l0.4,0.1l0-0.2L153.6,84.4z M153.9,105.6l0.4,0.1c0.3,0.1,0.5,0.2,0.7,0.3l-0.1,0.7c-0.5-0.5-0.8-0.7-1.1-0.8L153.9,105.6z
			 M154.1,87.1l0,0.4l0.2,0l0.3-1.1l-0.1,0C154.3,86.5,154.1,86.7,154.1,87.1z M154.1,77.4l0,0.2l0.4-0.2c0,0.1,0.1,0.2,0.2,0.2
			l0.1-0.7l-0.2,0C154.3,77.1,154.1,77.2,154.1,77.4z M154.2,78.8l-0.1,0.9l0.2,0.1l0.1-0.9L154.2,78.8z M155.5,60l0.2,0.4
			c-0.1,1.1-0.4,1.7-0.8,1.7l0.2,0.5l0,0.2l-0.7-0.1l0,0.1c0,0.3,0.3,0.6,0.8,0.9c0.2-1.6,0.5-2.4,1.1-2.4l0.1,0l0.1-0.2
			c-0.3,0-0.4-0.1-0.4-0.3c0.2-0.3,0.3-0.5,0.3-0.7l-0.4-0.2L155.5,60z M154.4,64.2l-0.1,0.2c0,0.3,0.2,0.4,0.4,0.4L155,65l0.1-0.2
			c0-0.3-0.2-0.5-0.5-0.5L154.4,64.2z M154.5,84.9l0,0.2l0.4,0.1l0-0.2L154.5,84.9z M154.5,84.2l0,0.4l0.2,0.1l0-0.4L154.5,84.2z
			 M154.9,92.8l-0.1,0.4c0.3,0,0.4-0.2,0.4-0.5L154.9,92.8z M155,94.4l-0.1,0.2l0.4,0.1l0.1-0.2L155,94.4z M155.1,91.1l-0.1,0.4
			l0.2,0l0.1-0.4L155.1,91.1z M155.1,81.1l-0.1,0.7c0.3-0.1,0.5-0.2,0.7-0.2l0.1-0.2C155.6,81.4,155.3,81.3,155.1,81.1z M155,83.8
			l0,0.2l0.4,0.1l0-0.2L155,83.8z M155.1,66.7l0,0.2l0.4,0.1l0.1-0.7C155.3,66.4,155.1,66.5,155.1,66.7z M155.4,56.2l0.4,0l-0.1,0.7
			l-0.4,0L155.4,56.2z M155.5,88.8l-0.1,0.4l0.2,0.1l0.1-0.4L155.5,88.8z M155.5,74.4l-0.1,0.4l0.2,0.1l0.1-0.4L155.5,74.4z
			 M155.7,79.2l0.4,0.1l0.1-0.4C155.9,78.8,155.7,78.9,155.7,79.2z M155.8,97.2l-0.1,0.4l0.2,0l0.1-0.4L155.8,97.2z M156.4,54.9
			l-0.1,0.2c-0.1,0.3-0.2,0.5-0.3,0.7l-0.4-0.1l0.1-0.2C155.7,55.3,155.9,55.1,156.4,54.9z M156,73.6l-0.1,0.4l0.2,0l0.1-0.4
			L156,73.6z M156.2,76.8c0,0.3,0.1,0.4,0.4,0.4l0.1-0.4L156.2,76.8z M156.5,90l0,0.4l0.2,0.1l0-0.4L156.5,90z M156.5,63.3l0,0.2
			l0.4,0.1l0-0.2L156.5,63.3z M156.7,104.5l0,0.4l0.2,0l0.1-0.4L156.7,104.5z M156.7,75.7l-0.1,0.4l0.2,0.1l0.1-0.4L156.7,75.7z
			 M157.2,82.9l0.3,0c0.2,0,0.4-0.1,0.4-0.4l-0.2,0C157.4,82.5,157.2,82.7,157.2,82.9z M157.5,81.3l0.4,0.1l0-0.4
			C157.7,81,157.5,81.1,157.5,81.3z M158.2,78.9l-0.1,0.4l0.2,0.1l0.1-0.4L158.2,78.9z M158.4,83.9l0.4,0.1l0,0.2
			c-0.2,0.3-0.3,0.5-0.3,0.6l-0.2,0L158.4,83.9z M158.4,65.3l-0.1,0.4l0.2,0l0.1-0.4L158.4,65.3z M159.1,76.4l0.4,0.1l-0.4,2.2
			l-0.4-0.1l0.1-1.1L159.1,76.4z M158.9,81.3c0.3,0.1,0.4,0.2,0.4,0.4l0,0.1l-0.4,0L158.9,81.3z M159,63.3l-0.1,0.8l0.2,0.1
			c0-0.3,0.2-0.7,0.6-1.3l-0.2-0.1C159.2,62.9,159,63,159,63.3z M159.2,80.8l0.2,0.1l-0.1,0.4l-0.2-0.1L159.2,80.8z M159.7,64.7
			c-0.4,0.9-0.6,1.4-0.6,1.5l0,0.4l0.2,0c0-0.6,0.2-1.2,0.6-1.7l0-0.2L159.7,64.7z M159.3,62.6l0.4,0.1l0.1-0.7l0.3-1.1l-0.1,0
			C159.7,60.9,159.5,61.5,159.3,62.6z M159.7,73l-0.1,0.4l0.2,0.1l0-0.4L159.7,73z M160.1,63.8L160,64l0.2,0.1l0.3-0.9
			C160.3,63.2,160.1,63.4,160.1,63.8z M160.6,72.4l1.1,0.3l0.3-0.4l-0.4-0.2c0,0.3-0.1,0.4-0.3,0.4l-0.1,0l0-0.4
			C160.8,72,160.6,72.2,160.6,72.4z M161.4,58.5c-0.4,0.6-0.6,1-0.6,1.1l0,0.2l0.2,0c0-0.3,0.2-0.6,0.6-1.1l0-0.2L161.4,58.5z
			 M161.3,55.4l0,0.4l0.2,0l0-0.4L161.3,55.4z M162,57.2c0,0.3-0.2,0.6-0.6,1.1l0.4,0l0.3-0.8l0-0.2L162,57.2z M161.6,59.9L162,60
			l0-0.4C161.7,59.5,161.6,59.7,161.6,59.9z M162.3,66.1l-0.1,0.2l0.4,0l0.1-0.2L162.3,66.1z M162.4,67.4l0.2,0
			c1.4-0.2,2.1-0.2,2.3-0.2l0-0.2c-0.7-0.1-1.1-0.2-1.1-0.3C162.9,66.9,162.4,67.1,162.4,67.4z M162.7,57.6c0,0.1-0.1,0.4-0.3,0.6
			l0.4,0.1l0.1-0.7L162.7,57.6z M162.9,70.2l-0.1,0.4l0.2,0l0.1-0.4L162.9,70.2z M163.2,56.7l0,0.4l0.2,0.1l0-0.4L163.2,56.7z
			 M163.2,68.2l0,0.2l0.4,0.1l0-0.2L163.2,68.2z M165.2,66.8l-0.1,0.2l0.4,0l0.1-0.2L165.2,66.8z M165.3,70.8l-0.1,0.2l0.4,0.1
			l0.1-0.2L165.3,70.8z M165.8,68l-0.1,0.2l0.4,0l0.1-0.2L165.8,68z M166.6,66.5l-0.1,0.4l0.2,0l0-0.4L166.6,66.5z M166.9,67.4
			l0,0.2l0.2,0c0.3-0.1,0.6-0.2,0.7-0.2l0-0.2l-0.2,0C167.3,67.3,167.1,67.4,166.9,67.4z M167.7,66.6c0,0.3,0.2,0.5,0.5,0.5l0.2,0
			c0-0.3-0.2-0.5-0.5-0.5L167.7,66.6z M167.7,69l0,0.2l0.4,0.1l0-0.2L167.7,69z M167.8,70.1l0,0.2l0.4,0.1l0-0.2L167.8,70.1z
			 M168.5,67.5l-0.1,0.2c0.4,0,0.7,0.2,1.1,0.6l0.1-0.2c-0.1-0.3-0.2-0.6-0.2-0.9c-0.3,0.2-0.6,0.3-0.8,0.3L168.5,67.5z M168.8,66.4
			l-0.1,0.4l0.2,0l0.1-0.4L168.8,66.4z M170.3,64.8l0.2,0.1l-0.1,0.7l-0.2-0.1L170.3,64.8z"/>
		<path class="st0" d="M175.4,70.5c0.3,0.9,0.7,1.5,1.2,1.8c0-0.6,0.2-1,0.6-1l0.2,0l-0.4,1.1c0.3,0,0.4,0.2,0.5,0.7l0.7-0.5l0.7,0
			l0,0.2l-0.6,1.1l0,0.2l0.4,0c0-0.7,0.2-1.1,0.6-1.2l0.2,0l0.1,0.2l-0.2,0.4l0.2,0c0.3-0.2,0.6-0.2,0.9-0.3c0,0.2-0.3,1.4-0.9,3.4
			c0.3,0.7,0.5,1.3,0.5,2l-0.2,0l0.3,0.4l-1.2,3.2l0.4,0.2l0,0.3c0,0.7-0.2,1-0.6,1.1l0.2,0.4l0,0.5c0,0.1-0.1,0.2-0.2,0.2l0.2,0.4
			l0,0.2c0,0.6-0.2,1-0.6,1l0.2,0.4l0.1,0.4c0,0.3-0.1,0.4-0.4,0.5c0-0.1-0.1-0.2-0.2-0.2l-0.1,0c0,0.3-0.1,0.6-0.4,1.1l0.2,0
			l0.4-0.3l0,0.4c-0.3,2.3-0.5,3.4-0.7,3.4l0.2,0.4l-0.4,0.7l0.4,0l-0.2,0.4c0,0.1,0.1,0.2,0.2,0.2c-0.2,0.5-0.3,1-0.3,1.4l0,0.2
			l0.2,0l-0.2,0.4l0.1,2.7l-0.2,0c-0.3,0-0.5-0.5-0.5-1.5l-0.2,0l0.1,2.2l0.4-0.2l0.2-0.1l0,0.2l0.3,2.2l-0.5-0.2l0.1,0.2
			c0,0.3,0.5,0.8,1.4,1.5c0.3,0.7,0.5,1.3,0.5,1.6c-0.3,0-0.4,0.1-0.4,0.3l0,0.1c-1.1,0-1.6-0.1-1.6-0.3l-0.4,0.2
			c-1-0.7-1.9-1-2.4-1l-0.1,0c0,0.3-0.1,0.4-0.4,0.5l-0.2,0c-0.6,0-0.9-0.1-0.9-0.4c-0.6,0.2-0.9,0.3-0.9,0.5
			c-0.2,0-0.9-0.6-2.1-1.7l-0.4,0.2l-0.2,0c0-0.3-0.5-1.2-1.5-2.6l0.2-1.2l-0.1,0c-0.4,0-0.7-0.5-0.7-1.5l-0.1-0.9l0.2-1.3l-0.2-0.4
			l0.2-1.3l-0.1-1.1l0.4,0l0-0.4l-0.4,0l-0.1-0.7l0.4,0l0,0.4l0.2-0.1l0-0.9l-0.4,0.1c0.3-0.4,0.5-1.9,0.9-4.5
			c2-10.6,3.8-15.9,5.7-16l0.4,0.2L175.4,70.5z M168,100.5l0,0.2l0.4,0l0-0.2L168,100.5z M169.7,102.4l0,0.4l0.2,0l0-0.4
			L169.7,102.4z M174.3,87.6l0.4-0.1l0-0.4C174.4,87.2,174.3,87.4,174.3,87.6z M175.6,82.6l0.1,0.4l0.2-0.1l-0.1-0.4L175.6,82.6z
			 M175.8,82.1l0.2,0l0.2-1.1c-0.3,0-0.4,0.2-0.4,0.6L175.8,82.1z M176.1,80.3l0.1,0.4l0.2,0l-0.1-0.4L176.1,80.3z M176.9,77.8
			l0,0.1c0,0.4-0.2,1-0.5,1.7l0,0.2l0.2,0l0.6-1.9l-0.1-0.2L176.9,77.8z M180.5,46.9l1.3,1.3l0.1-0.3l0.3,0c2.2,1.6,3.4,3.1,3.4,4.4
			c0,0.1,0,0.2-0.1,0.3c0.1,0,0.1,0.2,0.1,0.4l0,0.3l-0.1,0.2c-0.8,2.4-1.3,3.8-1.3,4.2c0.1,0,0.1,0,0.1,0.1l0,0.1
			c-0.2,0-0.3,0.1-0.3,0.3c0,0.1,0.1,0.3,0.1,0.4l0,0.1c-0.3,0-0.7,1.2-1.4,3.6c-0.4,0.4-0.9,0.9-1.7,1.2l0-0.1
			c0-0.1-0.1-0.2-0.3-0.2c-0.1,0.5-0.2,0.7-0.3,0.7l-0.2,0c-0.3,0-0.4-0.3-0.4-0.7l0-0.2l-0.3,0.1l0-1.5l-0.3-0.1l0.1,0.3l-0.2,1
			c0,0.2-0.1,0.3-0.2,0.3l-0.1,0l-0.2-0.1c-0.3,0-0.5-0.6-0.6-1.8l-0.3-0.2l-0.1,0.6l-0.2,0c-0.3-0.1-0.5-0.4-0.5-1.1
			c0-0.2,0-0.5,0.1-0.8l-0.3,0.1l-0.2-0.6c0-0.1,0-0.1,0.1-0.1l0.1,0l-0.1-0.4l0.2-1.7l0-1.7l0.3,0.1l0.1-0.8l0.2,0.1l-0.1-0.8
			c0.5-2.1,0.9-3.1,1.2-3.1l-0.1-0.3l0-0.2l0.3,0l0.1-1c0-0.1,0.1-0.2,0.2-0.2c0-0.1-0.1-0.1-0.2-0.2c0.4-1.3,0.8-2,0.9-2l0.3,0.2
			C180.2,47,180.3,46.9,180.5,46.9L180.5,46.9z M176.9,94.9l0,0.7l0.2,0l0-0.7L176.9,94.9z M177.7,75.6l0.1,0.2l0.4-0.1l-0.1-0.7
			C177.8,75.1,177.7,75.3,177.7,75.6z M177.8,89.2l0,0.7l0.2,0l0-0.7L177.8,89.2z M177.9,60.3l-0.1,0.3l0.3,0.1l0.1-0.3L177.9,60.3z
			 M178,59.3c0.1,0.2,0.1,0.4,0.1,0.5l0.2,0.1l0.1-0.5L178,59.3z M178.1,74.4l0,0.4l0.2,0l0-0.4L178.1,74.4z M178.1,59l0,0.2
			l0.3,0.1l0-0.2L178.1,59z M178.2,72.8l0.1,0.4l0.2,0l-0.1-0.4L178.2,72.8z M179,78.4l0.4-0.1l-0.1-0.4C179.1,78,179,78.2,179,78.4
			z M179.7,76.6l0.2,0L180,77l-0.2,0L179.7,76.6z M180.1,75.5l0.2-0.1l0.1,0.4l-0.2,0.1L180.1,75.5z"/>
		<path class="st0" d="M203.1,75.3l1.1,0l0,0.3c-0.4,0-0.6,0.1-0.6,0.3l0,0.8l-0.6,0l0,0.3l0.6,0l0,0.3l-0.6,0l0,0.5l1.4-0.3l0.8,0
			c-3.8,3.5-6.3,7.2-7.3,11c-1.1,1.2-1.6,2.4-1.6,3.6l0.5,0c-0.1,1-0.4,1.9-0.8,2.5l0.3,0.6l-0.3,1.4l0.3,1.9l1.3,0l2.7,0.3
			c0-0.2,0.1-0.3,0.3-0.3l0,0.6l-0.6,0l0,0.3l0.6,0c0.6,0,1.7-0.3,3.3-0.9l0.3,0.6l4.1-1.1l-0.8,1.1l0.3,0c0.3-0.2,0.7-0.3,1.1-0.3
			l0,0.3c1.2-0.6,2.6-0.9,4.1-1.1c0,0.4-0.3,0.6-0.8,0.6l0,0.3l0.3,0.6l-0.6,0.2l0.3,0.6l-0.6,0.8l0,0.3l0.6,0l0,0.6
			c-1.3,0.4-2,0.8-2,1.1c0.2,0,0.3,0.1,0.3,0.3c-0.9,0.8-2.5,1.5-4.6,1.9l-0.6-0.2l-0.3,1.3l-0.3,0l0-0.8l-0.8,0l0,0.8l-0.8,0l0-0.8
			l-0.6,0l0,0.8l-1.1,0c-0.4,0-0.6-0.3-0.6-0.8l-0.6,0c0,0.6-0.2,0.8-0.6,0.8l-0.3-0.6l-0.5,0.3c-0.9-0.6-1.7-0.8-2.2-0.8l-0.3,0
			l-0.5,0.3c-2.2-1.7-3.3-2.7-3.3-3l-0.6,0.3l-0.6-0.3c0,0.2-0.1,0.3-0.3,0.3l-0.3-0.5l1.1,0l0-0.3c-0.2,0-1.6-0.6-4.1-1.9l-0.3-1.1
			l-0.3,0l0,1.1l-0.3,0c0-0.2-0.1-0.4-0.3-0.8l0-0.8c-0.6-0.1-1.3-1.4-2.2-3.9c-0.4-2.1-0.6-3.5-0.6-4.4c0-2.4,0.4-3.8,1.3-4.4
			c0.2,0,0.3-0.3,0.3-0.8l0.6,0l0,0.3c-0.4,1.6-0.5,2.6-0.5,2.7l0,0.6l0.3,0c0-0.3,0.5-1.9,1.4-4.7l0.6,0l0,0.6
			c-0.3,0.4-0.7,2-1.1,4.7c-0.4,0.1-0.6,0.3-0.6,0.6l0.6,0.3c1.2-4.1,2.2-6.3,3-6.6l0,0.6l-0.3,0.6c0.3,0,0.8-0.5,1.6-1.4l0.3,1.3
			c-1.2,1.6-1.9,2.5-2.2,2.5l-0.3,0l0-0.3l0.3-0.6l0-0.2l-0.3,0c0,0.3-0.2,1-0.5,1.9l1.4,0.3l0,1.9l0.3,0c0.6-3.2,1.4-5.4,2.4-6.6
			l0,0.6c0.4,0,0.6-0.3,0.6-0.8l0.5,0l0,0.2c-0.7,1.2-1.1,2.1-1,2.7l-0.3,0l-0.6-0.2l0,0.8c0.2,0,0.5,0.1,0.8,0.3
			c1-2.2,1.6-3.3,1.9-3.3l-0.3-1.3l0-0.3l0.8,0.6c0.2-1.6,1.6-3.1,4.1-4.4c0-0.2,0.1-0.3,0.3-0.3l0,0.3c-0.2,0.4-0.3,0.7-0.3,0.8
			c1.2-0.7,1.9-1.4,1.9-1.9c0.3,0,0.7-0.3,1.3-0.8l0.3,0l0,0.6l0.3,0L203.1,75.3z M185.9,91.3l0,0.3c0.2,0.4,0.3,0.7,0.3,0.8l0.3,0
			l0-0.3c-0.2-0.3-0.3-0.6-0.3-0.8L185.9,91.3z M186.5,94.1l0,0.8l0.3,0l0-0.8L186.5,94.1z M187.8,89.4c0,0.9-0.3,1.4-0.8,1.4l0,0.5
			l0.6-0.2c0,0.1,0.1,0.2,0.3,0.2c0-0.5,0.2-0.8,0.5-0.8c-0.2-0.3-0.2-0.7-0.2-1.1L187.8,89.4z M187,92.7c0.1,0.4,0.3,0.6,0.6,0.6
			l0-0.6L187,92.7z M187.3,93.6l0,0.5l0.3,0l0-0.5L187.3,93.6z M188.6,82l0,0.8l-0.5,0l0-0.3C188.1,82.2,188.3,82,188.6,82z
			 M188.3,89.1l0,0.6l0.3,0l0-0.6L188.3,89.1z M188.4,100.4c0.3,0,0.6,0.3,0.8,0.8l-0.3,0c-0.4,0-0.6-0.2-0.6-0.6L188.4,100.4z
			 M189.1,80.9c0,0.2,0.1,0.5,0.3,0.8c-0.2,0-0.5,0.1-0.8,0.3l0-0.6C188.6,81.1,188.8,80.9,189.1,80.9z M188.9,90.2
			c0,0.8-0.1,1.4-0.3,1.6c0.2,0.2,0.3,0.9,0.3,2l0.3,0l0.3-1.1l-0.3-0.6c0-0.6,0.3-0.8,0.8-0.8l0-0.5l-0.6,0.3
			c-0.2-0.4-0.3-0.7-0.3-0.8L188.9,90.2z M188.9,89.4l0,0.6l0.6,0C189.5,89.6,189.3,89.4,188.9,89.4z M189.8,101.2l0.3,0
			c0.5,0.4,0.8,0.6,1.1,0.6c0,0.3-0.2,0.5-0.5,0.5c-0.4-0.1-0.7-0.2-0.8-0.2L189.8,101.2z M191,77.3l0,0.5c-0.3,0.7-0.5,1.1-0.8,1.1
			l0-0.6C190.5,77.7,190.7,77.3,191,77.3z M190.2,81.4l0.8,0l0,0.6c-0.2,0-0.4,0.1-0.8,0.3L190.2,81.4z M201.9,71.5
			c0.3,0,1.6,0.5,4.2,1.6c1.5,0,3.1,1.1,4.9,3.3l-0.3,0.6c0.4,1.2,0.6,2,0.6,2.5l0,0.3l-0.8,0c0-1.3-0.4-2.2-1.1-2.7
			c0,0.2-0.1,0.3-0.3,0.3l0-0.3l0.3-0.6c-0.7,0-1.4-0.3-2-0.8l0,0.3c0.1,0.7,0.4,1.1,0.8,1.1c-0.2,0.3-0.3,0.7-0.3,1.1l-0.6,0l0-1.1
			l-0.5,0.3l0.3,1.3l0,1.4c0,0.9-0.3,1.5-0.8,1.6c0-1.3-0.2-1.9-0.6-1.9l0.3-0.6l0-1.7c-0.6,0-0.8-0.3-0.8-0.8l-0.6,0.3l-0.2,0
			l0-0.3l0.2-0.6l-0.5,0l0-0.6l0.5,0l0-0.3l-0.5,0l0.3-0.6l-0.3,0l-1.4,0.3c-0.3-0.2-0.6-0.3-0.8-0.3c0,0.6-0.3,0.8-0.8,0.8
			c-0.2-0.3-0.3-0.6-0.3-0.8l-0.3,0l0,0.8l-0.6,0l0.3-1.3c-1.9,0.7-3.7,2.1-5.2,4.1c-0.4,0-0.6,0.5-0.6,1.4l-0.3,0l-0.6-0.3l0,0.3
			c0.4,0,0.6,0.2,0.6,0.5c-0.8,0-1.8,0.9-3,2.5l0-1.7c-0.3,0-0.5-0.2-0.5-0.6l0-0.3c0-0.3,0.3-0.5,0.8-0.8l0.3,0l-0.3,0.6l0,0.8
			l0.6,0c1.4-3.3,2.3-5.1,2.7-5.2l1.6-1.1l0.3,0l-0.3,0.5l1.1,0c0-0.8,0.9-1.5,2.7-1.9l0-0.6l-1.1,0L199,72
			C199.7,71.7,200.7,71.5,201.9,71.5z M193,74.8l0,0.3c-0.4,1.1-1,1.8-1.7,2l0-0.3C192.1,75.5,192.6,74.8,193,74.8z M193.5,75.9
			l0,0.8l-0.6,0l0-0.3C193,76.1,193.2,75.9,193.5,75.9z M193.4,101.2l0,0.8l0.3,0l0-0.8L193.4,101.2z M193.5,73.7l0.5,0l0,0.6
			l-0.5,0L193.5,73.7z M193.7,103.9l0.2,0l0,0.6l-0.2,0L193.7,103.9z M193.7,75.1l0.6,0c0,0.4-0.2,0.6-0.6,0.6L193.7,75.1z
			 M194.6,73.2l0.3,0c0,0.4-0.2,0.6-0.6,0.6l-0.3,0C194.1,73.4,194.3,73.2,194.6,73.2z M194.9,74l0.6,0l0,0.3l-0.6,0L194.9,74z
			 M196.2,71.8l0.5,0c0,0.2-0.4,0.7-1.3,1.4l-0.3,0l0-0.3C195.1,72.6,195.5,72.2,196.2,71.8z M195.4,75.9l0,0.6l0.3,0l0-0.6
			L195.4,75.9z M195.4,76.8l0,0.3l0.6,0l0-0.3L195.4,76.8z M195.6,103.9l0,0.6l0.3,0l0-0.6L195.6,103.9z M196,75.6l0,0.3l0.8,0
			l0-0.3L196,75.6z M197,74l0.6,0l0,0.3l-0.6,0L197,74z M197.1,80.1l0,0.5c0.3,0,0.5-0.3,0.8-0.8l0-0.6
			C197.6,79.2,197.4,79.5,197.1,80.1z M201.8,77.5c0,0.4-0.5,1-1.4,1.7l-2.4,4.4c0.2,0.4,0.3,0.7,0.3,0.8l-0.6-0.3l-0.3,0.6l0,0.3
			l0.6,0c0.3,0,0.7-0.4,1.1-1.1c-0.2,0-0.3-0.1-0.3-0.3c0.4-0.4,0.8-0.6,1.1-0.6l0-0.5l-0.3,0c-0.3,0.2-0.6,0.3-0.8,0.3
			c0.7-0.8,1.1-1.4,1.1-2c1.1-1.2,1.7-2,1.7-2.2l0.5,0.3l0.3,0l-0.3-0.6c0.2-0.3,0.3-0.6,0.3-0.8L201.8,77.5z M197.6,80.8l0.6,0
			l0-0.6C197.8,80.4,197.6,80.5,197.6,80.8z M197.9,81.4l0,0.6l0.3,0l0-0.6L197.9,81.4z M198.5,80.3l0,0.6l0.3,0l0-0.6L198.5,80.3z
			 M199,80.3c0.4,0,0.7-0.5,0.8-1.3C199.4,78.9,199.1,79.4,199,80.3z M199.5,76.2l0.3,0l0,0.6l-0.3,0L199.5,76.2z M201.9,105.5
			l0,0.3l0.5,0l0-0.3L201.9,105.5z M210.5,81.9l0.3,0.6l0,0.3l-0.6-0.3c0,0.9-0.6,1.7-1.9,2.5l-1.9-0.3c0-0.3,0.3-0.5,0.8-0.8l0,0.6
			l0.8,0C208.4,84.4,209.2,83.5,210.5,81.9z M207.8,79.7l0.3,0l0,0.8l-0.3,0L207.8,79.7z M208.3,75.6l0.6,0.3l0-0.8
			C208.5,75.1,208.3,75.3,208.3,75.6z M209.2,85.2l0.3,0c0,0.3-0.2,0.5-0.6,0.5l-0.3,0C208.7,85.4,208.9,85.2,209.2,85.2z
			 M211.3,76.9c0.4,0,0.6,0.2,0.6,0.5l0,0.3l-0.6,0L211.3,76.9z"/>
		<path class="st0" d="M224.6,56.3c0.4,0.1,0.7,0.2,0.7,0.4c-0.3,0.5-0.4,0.9-0.4,1.2c0.4-0.2,0.6-0.6,0.6-1.1l0-0.3l0.4-0.1l0.1,0
			c0.3,0,0.4,0.2,0.5,0.6c-0.1,0.3-0.2,0.5-0.2,0.7l0.2,0c0.3-0.2,0.6-0.2,0.9-0.3c0,0.1,0.1,0.2,0.2,0.2l0.1,0
			c0.1-0.2,0.2-0.5,0.2-0.8l0-0.3l0.8-0.1l0.1,0.4l-0.4,0l0.1,0.2c0,0.1,0.1,0.2,0.2,0.2l-0.2,0.4c0.2,0.3,0.2,0.5,0.3,0.7l-0.4,1
			l0,0.2l0.2-0.1c0-0.6,0.2-0.9,0.6-1l0.1,0.4l-0.8,1.9l0.4,0l0.1,0.4l-0.4-0.2l0,0.4l-0.6,0.1l-0.1-0.7l-0.2,0.1l0,0.2
			c0,0.4-0.1,0.9-0.3,1.4c0.3,0,0.4,0.1,0.4,0.2l-0.2,0.4c0.3,0.4,0.5,0.8,0.6,1.1c-0.4,0-0.8,0.7-1.2,1.9l-0.2,0.1l-0.1-0.4
			l0.4-0.7l-0.1-0.2l-0.4,0.1c0,0.4-0.1,0.8-0.3,1.3l0.4,0l0,0.4l-0.4-0.2c-0.4,0.9-0.7,2.6-1.1,5l0.4,0l-0.3-0.4l0-0.2l0.4-0.1
			l0.3,1.1l0.1,0.2l-0.2,0.4l-1.1-0.3l-0.1,1.1l0,0.2l0.4-0.2l0.1,0.2c-0.2,1-0.4,1.6-0.6,1.6l0.3,0.4l0.1,0.4l-0.1,0
			c-0.3,0-0.4-0.2-0.5-0.6c-0.2,0-0.6,1.1-1,3.3l0.4-0.3l0.2,0l0.1,0.2c-0.7,0.9-1.1,2.2-1.4,4.2l0.1,0.7l0.2,0l0-0.5
			c0-0.6,0.1-0.9,0.3-0.9l0.4-0.1l0,0.5c0,1-0.2,2.4-0.5,4.3l-0.4,0c0-0.9,0.2-1.5,0.5-2.1l-0.1-0.7l-0.2,0.1
			c-0.3,1.2-0.4,2.1-0.4,2.6l0,0.2l-0.4,0l0-0.4l-0.2,0.1l0.1,0.7c0.2,0.3,0.2,0.5,0.3,0.6c-0.6,0.2-0.8,0.4-0.8,0.7l0,0.3l0.2-0.1
			l-0.1-0.4l0.4,0l0.1,0.6c0.3,0,0.4-0.2,0.4-0.7l0-0.2l0.4-0.1l-0.1,1.1l0.4,0.2l0-0.1c0-0.4,0.2-0.9,0.6-1.5l-0.3-0.4
			c0.2,0,0.4-0.3,0.6-1l-0.1,0c-0.2,0-0.3-0.1-0.3-0.4l-0.1-0.2c0.6-0.1,0.9-0.7,0.9-2l0-0.6l1.3-5c-0.2-0.3-0.3-0.5-0.3-0.7
			l0.4-0.2l0.2-0.1l0.1,0.4l0.2,0l-0.1-0.4l0.4-0.1c-0.1,0.9-0.3,1.4-0.6,1.4l0.3,0.4l0.1,0.4l0,0.1c0,0.4-0.4,0.6-1.1,0.7l0.1,0.4
			l0.4-0.2c0,0.1,0.1,0.2,0.2,0.2l0.1,0c-0.2,0.9-0.4,1.4-0.8,1.5l0.1,0.7c0.1,0.3,0.2,0.4,0.4,0.4l0.1,0c0-0.9,0.2-1.4,0.6-1.4
			l0.1,0.2c-0.2,1-0.3,1.6-0.3,1.9l0.4-0.3l0,0.2c-0.2,0.4-0.4,1.4-0.6,3l0,0.2c1.3-0.7,2.1-1.6,2.4-2.7l0.5,0.2
			c0.2-0.2,0.5-0.2,0.8-0.3l-0.2-0.4l-0.1-0.2c1.2-0.1,2.3-1,3.3-2.8c0.6-0.1,1.7-1.1,3.3-3c0.2,0,1.4-1.2,3.7-3.5l0.2-0.1
			c0.1,0,0.2,0.1,0.2,0.2l0.8-0.6l0.3,0.4c-0.1,0-0.2,0.1-0.2,0.2l0.5,0.2c0-0.3,0.1-0.5,0.4-0.5l0.2,0c0.3,0,0.4,0.1,0.4,0.4
			l0.1,0.2l-0.2,0.4l0.4,0.2c0-0.3,0.1-0.5,0.4-0.5l0,0.2c-0.1,0.2-0.1,0.4-0.1,0.6l0,0.1l0.2,0l0.8-0.7c0,0.1,0.1,0.2,0.3,0.2
			l-0.2,0.4l0.1,0.7l0.4-0.2l0.4-0.1c0,0.1-0.1,0.2-0.2,0.2l0.8,0.8c0,0.1-0.1,0.2-0.2,0.3c0.2,0.6,0.4,1.1,0.4,1.5l0.2,0l0-0.2
			c0-0.3,0.1-0.5,0.3-0.6l-0.2-0.4l-0.1-0.2l0.7-0.1l0,0.2c0,0.7-0.4,1.4-1.1,2.1l-0.1,0c-0.1,0-0.2-0.1-0.2-0.2
			c-0.4,0-1.2,0.6-2.3,1.8l-0.2,0l0.3,0.4c-2.8,1.8-4.1,3-4.2,3.6l0.2,0c0.3-0.2,0.5-0.3,0.7-0.3l0,0.2c-0.9,1-1.4,1.6-1.4,1.7
			l0.4-0.1l0,0.4c-0.4,0-2.4,1.7-6.1,4.9c-0.2,0-0.8,0.5-1.7,1.3l0-0.2c0.8-1.1,1.5-1.8,2.3-2l-0.1-0.2l-0.6,0.1
			c-1.6,1.5-2.7,2.3-3.4,2.4l0-0.2l-1.1,0.3l0,0.2l0.9-0.1l0.1,0.4c-0.4,0-0.6,0.2-0.6,0.5l0,0.1l0.9-0.1l0,0.4
			c-0.6,0-1.1,0.5-1.4,1.5c-0.5,0-0.8,0.2-1.1,0.3l-0.4-0.2c-1.5,0.7-2.3,1.5-2.5,2.3l0,0.2l0.2,0l0-0.1c0-0.4,0.6-1,1.8-1.9l0.2,0
			l0.1,0.4c-1,0.4-1.6,1.1-1.6,2.1l0,0.4c0,0.4-0.1,0.6-0.4,0.6l-0.1-0.2l0.2-0.4l-0.7,0.1l-0.5,4.3l-0.4,0l0-0.7
			c0-0.5,0.1-1,0.3-1.6l-0.3-0.4c0.1-0.2,0.2-0.4,0.2-0.7l0-0.2c-0.7,0.1-1.1,1.1-1.1,3l0.3,0.8c-0.3,0.1-0.4,0.2-0.4,0.5l0.2,1.8
			l-0.4,0.1l0-0.2l0.2-0.5l-0.4-0.2l0.1-1.1c0-0.1-0.1-0.4-0.3-0.7c0.1-0.6,0.2-0.9,0.4-0.9l-0.3-0.4l-0.1-0.4
			c0-0.7,0.1-1.1,0.4-1.2l-0.3-0.4l0.2-0.5l-0.4-0.2c0,1.3-0.1,2-0.3,2.1l0.3,0.4c-0.1,0.6-0.2,1-0.4,1c0,0.2,0.1,0.2,0.2,0.2
			l-0.2,2.7l-0.2,0l-0.1-0.6l0-0.1c0-0.1,0.1-0.2,0.2-0.2l-0.2-0.4l0-0.1c0-0.1,0.1-0.2,0.2-0.2l-0.2-0.4l0.1-1.2l-0.1-0.4l-0.2,0.1
			l0.1,0.9l-0.4,0l0.1-1.6l0.2,0l0.4,0.2l0-2.9l-0.4,0.1l0.3,0.4c-0.1,0.6-0.1,1.1-0.1,1.5l0,0.3l-0.4,0.1l0-0.2l0-2
			c-0.2,0-0.5,0.6-0.7,1.9l-0.4,0.3c0-0.6-0.2-0.8-0.5-0.8l-0.1,0l0.2-0.5l0-0.2l-0.4,0.1l0.4-0.7l-0.5-0.2l-0.2,0l-0.4,2.1
			c0.3,0,0.4,0.2,0.5,0.4l-0.4,0.2l-0.1,0c-0.2,0-0.4-0.1-0.4-0.4c0-0.6,0-1,0-1.3l0-0.4l-0.4,0.2l-0.2,0.1l0.2-1.1
			c-0.2-0.3-0.3-0.5-0.3-0.7c0.1,0,0.2-0.1,0.2-0.2l0-0.1l-0.1,0c-0.4,0-0.6-0.3-0.7-0.8c0.2-0.4,0.3-0.8,0.3-1.3l0-0.5l0.4-0.1
			l0.1,0.2l-0.2,0.5l0.2-0.1l0.6-0.5l-0.2-0.4c0.7-0.7,1-1.8,1-3.1c0-0.3,0-0.7-0.1-1c-0.2,0-0.2-0.1-0.2-0.2l0.4,0l-0.1-0.7
			l-0.5-0.7l0.2,0l0.4,0.2c0-0.1,0.1-0.2,0.2-0.2l-0.3-0.4c0.4-0.7,0.7-2,0.8-3.9l0.7-0.1l0.1,0.4l-0.4,0.1c0,0.1,0.1,0.4,0.3,0.6
			c-0.2,3-0.5,4.6-0.9,4.6c0,0.1,0.1,0.2,0.2,0.2l-0.3,3.4c0.2,0,0.4-0.5,0.7-1.4c-0.1,0-0.2-0.1-0.2-0.2c0.3,0,0.6-0.5,1-1.4
			l-0.1-0.4l-0.2-0.4l0.4-0.2c-0.3-0.5-0.5-1.1-0.6-1.8l0.4-0.2c0,0.1,0.1,0.2,0.2,0.2l0.1,0c0.2-1,0.3-1.6,0.3-1.8l0.4-0.1l0,0.2
			l-0.1,1.1c0.3,0,0.5-0.7,0.5-1.9l-0.2,0.1l-0.4,0.2l0-0.4c0.1-0.3,0.2-0.5,0.2-0.7l-0.4,0.1l0.1,0.7l-0.4,0c0.4-2.6,0.7-3.9,1-3.9
			l0.1,0.7c0,0.3-0.1,0.4-0.4,0.5l0.3,0.4l-0.2,0.4l0,0.2l0.2,0l0-0.1c0-0.4,0.1-0.6,0.4-0.6l0.4,0.2l0.2,0l0-0.2l-0.1,0
			c-0.4,0-0.6-0.1-0.6-0.4l0-0.1c0-0.4,0.3-1,0.8-1.7l-0.1-0.2l-0.4,0.1l0-0.3c0-0.3,0.2-0.4,0.6-0.5l-0.1-1.1l-0.8,1l-0.1-1.1
			l-0.2,0l-1,5.8l-0.4,0c0.1-0.4,0.1-0.8,0.1-1.2l0-0.4l-0.2,0l-0.1-0.4l0.4,0.2l0.2-0.1l-0.3-1.1c0.2-1.2,0.4-1.9,0.5-1.9l-0.3-0.4
			l-0.1-1.3l0.7-0.1l-0.5-0.6c0.4,0,0.8-1,1.1-2.8l0.2,0c-0.3-0.6-0.5-0.8-0.7-0.8l-0.1,0c-0.7,4-1.2,6-1.5,6l0.3,0.4
			c-0.4,0.7-0.6,1.2-0.6,1.4l-0.4,0.1c0-0.3-0.1-0.4-0.3-0.4l0-0.1c0-0.4,0.2-0.6,0.6-0.6l0-0.4l-0.4,0.1c0.7-2.7,1.1-4.3,1.1-4.8
			l0-0.1l0.5,0.2l-0.1-0.4l-0.2,0c-0.2,0-0.3-0.1-0.3-0.2l0.3-1l-0.1-0.7c0.5-0.8,0.7-1.4,0.7-2l0-0.1l-0.3-0.9
			c0.3-0.7,0.6-1.7,0.8-3l0.2,0l-0.3-0.4c0.4-0.5,0.7-1.3,0.9-2.6c0.9-3.6,1.6-5.4,2.2-5.6l0-0.4C223.7,57.6,224,56.9,224.6,56.3z
			 M216.4,93.6l0.4-0.1l0,0.2l-0.1,1.1l-0.4,0.1L216.4,93.6z M217,88.5l0.4-0.1L217,93l-0.4,0L217,88.5z M217.2,87.6l0.4-0.1
			l0.1,0.4l-0.4,0.1L217.2,87.6z M218.1,83.5l0.1,0.9l-0.3,0c-0.2,0-0.4-0.1-0.4-0.4L218.1,83.5z M217.6,84.9l0.2,0l0,0.4l-0.2,0
			L217.6,84.9z M218.6,83.9l0.7-0.1l0,0.1c0,0.2-0.1,0.4-0.4,0.4l-0.2,0L218.6,83.9z M218.7,99.1l0,0.2l0.4,0l0-0.2L218.7,99.1z
			 M218.7,94.7l0.1,0.4c0.3,0,0.4-0.2,0.4-0.4l0-0.1L218.7,94.7z M219.3,106.1l0.4-0.1l0,0.4l-0.4,0.1L219.3,106.1z M219.9,102.4
			l0.1,0.7l-0.4,0l0-0.2C219.5,102.6,219.6,102.4,219.9,102.4z M220.2,86.4l0.1,0.7l0,0.1c0,0.2-0.1,0.4-0.4,0.4l-0.1-0.7
			C219.8,86.6,220,86.5,220.2,86.4z M220.2,106l0.4-0.1l0,0.4l-0.4,0.1L220.2,106z M220.3,90.2l-0.1,1.1c0.3,0,0.4-0.1,0.4-0.3
			l0-0.1l-0.1-0.7L220.3,90.2z M220.6,73.4l0.1,0.4l0.2-0.1l-0.1-0.4L220.6,73.4z M220.6,88.7l0.1,0.7l0.4-0.1
			c-0.2-0.3-0.3-0.5-0.3-0.7L220.6,88.7z M220.8,81l0.4-0.1l-0.1,1.1l-0.2,0.1L220.8,81z M221.2,70.8l0,0.1c0,0.3-0.1,0.7-0.3,1.3
			l0.1,0.2l0.2,0l0.3-1.4l-0.1-0.2L221.2,70.8z M221.5,76.6l0,0.1c0,0.2-0.1,0.4-0.2,0.6l0.4-0.1l-0.1-0.7L221.5,76.6z M221.4,70.1
			l0.1,0.4l0.2,0l-0.1-0.4L221.4,70.1z M221.8,82l-0.1,1.4c0.2,0,0.4-0.5,0.6-1.4L221.8,82z M221.9,85.6L222,86l0.2,0l-0.1-0.4
			L221.9,85.6z M221.9,68.3l0.1,0.2l0.4-0.1l-0.1-0.2L221.9,68.3z M222.7,71.8l0,0.1c0,0.4-0.2,1.2-0.7,2.4l0.4,0l0.4-2.3l0-0.2
			L222.7,71.8z M222.1,84.9l0.1,0.4l0.2,0l-0.1-0.4L222.1,84.9z M222.2,84l0,0.2l0.4-0.1l0-0.2L222.2,84z M222.2,66.9l0.1,0.2l0.4,0
			l-0.1-0.2L222.2,66.9z M222.3,77.2l0.1,0.4l0.2,0l-0.1-0.4L222.3,77.2z M224.2,59.3l-1.8,7.3c0.7-1.6,1.4-4,2-7.2l0-0.2
			L224.2,59.3z M222.7,71.6l0.4-0.1l0-0.4C222.8,71.2,222.7,71.3,222.7,71.6L222.7,71.6z M223.4,99.6c0,0.1-0.1,0.4-0.2,0.7l0.4,0
			l-0.1-0.7L223.4,99.6z M223.5,105.4l0.2,0l0.1,1.3l-0.4,0.1l0-0.2L223.5,105.4z M223.7,68.1l0,0.1c0,0.2-0.1,0.5-0.3,0.8l0.2,0
			c0.3,0,0.4-0.2,0.4-0.6l0-0.1l-0.1-0.2L223.7,68.1z M223.4,70.6l0,0.2l0.1,0c0.2,0,0.4,0.1,0.4,0.4l0.2,0l-0.1-0.4l-0.4-0.2
			L223.4,70.6z M223.8,67l0.1,0.9l0.2,0L224,67L223.8,67z M224,74.1c0,0.1-0.1,0.4-0.2,0.7l0.7-0.1l-0.1-0.2
			C224.5,74.3,224.3,74.1,224,74.1z M224.2,76.1l0.4-0.1l0,0.3c0,0.2-0.1,0.4-0.4,0.4l-0.2,0C224.2,76.5,224.2,76.3,224.2,76.1z
			 M224.5,86.7l0.3,0.4c-0.3,0.1-0.4,0.2-0.4,0.5c0.1,0.3,0.2,0.4,0.4,0.4l0.1,0l0.1-1.1l0-0.2L224.5,86.7z M225.5,83.2l-0.9,2.1
			l0.1,0.4l0.2,0l0.3-1.4l0.4,0.2l0.2-0.5l-0.1-0.9L225.5,83.2z M224.6,68l0.1,0.2l0.4-0.1l0-0.2L224.6,68z M225,62.6l0,0.4l0.2,0
			l0-0.4L225,62.6z M225.9,77.8l0.1,0.4l0.2-0.1l-0.1-0.4L225.9,77.8z M226,95.8l0.1,0.2l0.7-0.1l-0.1-0.2L226,95.8z M226.5,69.9
			l0.1,0.2c0,0.3-0.1,0.5-0.4,0.5l-0.2-0.4C226.1,70.1,226.3,70.1,226.5,69.9z M225.9,75.7l0.4,0l0,0.1c0,0.2-0.1,0.3-0.4,0.3
			L225.9,75.7z M226.1,67.5l0.7-0.1l-0.3,1l0.1,0.7l-0.4,0.3l0-0.2L226.1,67.5z M227.7,72.2l0.2,0c0.3,0,0.5,0.2,0.5,0.4
			c-0.3,0-0.4,0.3-0.4,0.8l0,0.2l0.2,0l0.1,0.4l-0.2,0l-0.5-0.2l0,0.2c0,0.5-0.2,0.9-0.7,1.2l-0.2,0l-0.5-0.2
			c0.1-1.2,0.3-1.8,0.7-1.9l0.1,0.7l0.4-0.1l-0.1-1.1C227.3,72.4,227.4,72.2,227.7,72.2z M226.2,87.7l0,0.2c0.1,0,0.4,0.1,0.7,0.2
			l0.4-0.1l0-0.2l-0.2,0c-0.3,0-0.5,0-0.7-0.1L226.2,87.7z M226.4,80.2l0.4-0.1l0.1,0.4l-0.4,0.1L226.4,80.2z M226.5,81.1
			c0.3,0,0.4,0.2,0.4,0.4l-0.4,0.1L226.5,81.1z M226.7,75.9l0.4,0c0,0.3-0.1,0.4-0.4,0.5L226.7,75.9z M226.7,78.6l0.4,0l0,0.4
			l-0.4,0L226.7,78.6z M226.7,66.7l0.4-0.1l0.1,0.4l-0.4,0.1L226.7,66.7z M227.6,69.5l0.2,0l0,0.4l0.7-0.5l0.2,0
			c-0.2,0.5-0.3,1-0.3,1.4l0,0.2l0.2,0c-0.1,0.5-0.4,0.8-0.8,1l-0.3-0.4l0.4-0.7l-0.1-0.4l-0.4,0.1l-0.4,2.5l-0.2,0.1l-0.1-1.1
			C227,70.4,227.3,69.6,227.6,69.5z M226.9,93.4l0,0.2l0.7-0.1l0-0.1c0-0.3,0.2-0.4,0.6-0.5l0-0.4C227.7,93.1,227.3,93.4,226.9,93.4
			z M226.9,63.8l0,0.4l0.2,0l0-0.4L226.9,63.8z M227,63.1l0,0.4l0.2-0.1l0-0.4L227,63.1z M227.5,87.1l-0.2,0.4l0.2,0
			c0.3-0.2,0.5-0.3,0.6-0.3l0-0.2L227.5,87.1z M227.7,95.2l-0.1,0.9l0.4,0l-0.1-0.9L227.7,95.2z M227.5,68.6l0.4,0l0.1,0.4l-0.4,0
			L227.5,68.6z M227.9,59.8l0,0.4c0.3,0,0.4-0.2,0.4-0.5L227.9,59.8z M228.3,94l0,0.2l0.4-0.1l0-0.2L228.3,94z M228.4,92.2l0.1,0.4
			l0.2-0.1l-0.1-0.4L228.4,92.2z M228.9,68.5l0.3,0.4l-0.7,0.1C228.5,68.7,228.6,68.5,228.9,68.5z M229.2,66.9l0.1,0.9l0,0.1
			c0,0.2-0.1,0.3-0.4,0.3l-0.3-0.4C228.8,67.3,229,66.9,229.2,66.9z M228.7,83.8l0.4-0.1l0,0.2l-0.4,0.1L228.7,83.8z M228.8,92.4
			c0.3-0.3,0.6-0.5,0.8-0.5l0-0.4c-0.6,0.3-0.8,0.5-0.8,0.7L228.8,92.4z M229.4,96.2l0.2-0.1l0.1,0.4l-0.7,0.1
			C229,96.3,229.2,96.2,229.4,96.2z M229.1,95.5l0.4-0.1l0,0.2l-0.4,0.1L229.1,95.5z M237,94.8l0.4-0.1c0,0.3,0.7,0.8,2,1.4
			c0.2,0.3,0.2,0.6,0.3,0.9l-0.1,0c-0.3,0-0.4-0.3-0.5-0.8l-0.2,0l0.1,0.4c1,0.9,1.5,1.6,1.5,2.1c0,0.1-0.1,0.2-0.2,0.2l0.6,0.8
			c-0.1,0.2-0.2,0.5-0.2,0.7l0,0.2l0.4-0.3c0,0.1,0.1,0.2,0.2,0.2l0.1,0c0-0.1,0.1-0.2,0.2-0.2l0.1,1.3l-0.5-0.2l0.1,0.4l0.2-0.1
			l0.4-0.2c0.2,0.2,0.2,0.5,0.3,0.8l0.4-0.2c0.3,0.3,0.5,0.8,0.6,1.5l-0.2,0l0.1,0.7l0.4-0.3l1.2,1.7l0.1,0.4l-0.2,0.4l0.1,0
			c0.7,0,1.6,1.5,2.8,4.5c-0.3,0.1-0.4,0.2-0.4,0.4l0,0.1l0.1,0c0.9,0,1.7,0.9,2.4,2.7c0.7,0.6,2.2,2.4,4.3,5.6
			c3.6,3.7,6.5,5.5,8.7,5.5l0.3,0l0.4-0.1c2.4-2.2,4.3-3.4,5.5-3.7c0,0.1,0.1,0.2,0.2,0.2c0-0.3,0.5-0.6,1.5-0.8
			c0,0.1,0.1,0.2,0.2,0.2l0.1,0c0,0.1-0.1,0.2-0.2,0.3l0.3,1.1l0,0.1c0,0.6-0.5,1.6-1.5,3l0,0.1c0,0.9-2,2.1-5.9,3.6
			c0-0.1-0.1-0.2-0.2-0.2l-0.1,0l0,0.1c0,0.1-0.1,0.2-0.2,0.2l0.2,0.4l-0.2,0.4l-0.4-0.2l-0.4,0l-1.7,1.1l-0.4-0.2l0,0.1
			c0,0.2-0.1,0.3-0.4,0.3c0-0.3-0.2-0.4-0.4-0.4l-0.1,0l0,0.1c0,0.2-0.1,0.4-0.4,0.4c-0.3-0.3-0.5-0.6-0.6-0.9l-0.6,0.5
			c0-0.1-0.1-0.2-0.2-0.2l-0.1,0l0,0.1c0,0.4-0.5,0.7-1.5,0.7c0-0.3-0.2-0.4-0.4-0.4l-0.1,0l-1.1,0.3c-2.1-1-3.2-1.5-3.3-1.7
			c-0.3,0.2-0.5,0.2-0.7,0.3c-1.7-0.6-3.6-1.9-5.7-4c-0.6-0.5-1.3-1.4-2.1-2.7c-0.2,0-0.7-0.6-1.5-1.7c-0.2,0-0.6-0.5-1.2-1.4
			c0.3,0,0.4-0.1,0.4-0.3l0-0.1c-0.3-0.6-0.5-0.8-0.7-0.8l-0.1,0c0,0.1-0.1,0.2-0.2,0.2l0-0.4l0.2-0.4c-0.6-0.2-0.9-0.4-1-0.6
			l0.2-0.4l-0.1,0c-0.4,0-0.6-0.1-0.6-0.4l0.2-0.4l0-0.2l-0.2,0l0,0.4c-0.8-0.6-1.2-1.3-1.3-2.3l0.2,0l-0.1-0.4l-0.4,0.2
			c-1.4-2.2-2.1-3.4-2.1-3.6c0.1-0.2,0.2-0.4,0.2-0.6l0-0.1c-0.6-0.3-1.4-1.8-2.7-4.5l0.2-0.5c-0.6-0.9-1.4-2.9-2.6-5.8l0-0.3
			c0-0.8,0.3-1.3,0.8-1.3c0.6-0.5,1.1-0.8,1.7-0.8l-0.1-0.7l0.2,0l0.4,0.2l0-0.1c0-0.4,0.4-0.7,1.1-0.7l0,0.2
			c0.6-0.1,0.8-0.3,0.8-0.7l0-0.1l0.7,0.4l0.4-0.3l0.5,0.2c0.2-0.2,0.5-0.2,0.8-0.3c0,0.1,0.1,0.2,0.3,0.2L237,94.8z M230,63.9
			l0.1,0.4c-0.4,1.7-0.7,2.5-0.9,2.6l-0.1-0.2l0-0.3C229.1,65.3,229.4,64.5,230,63.9z M229.8,91l0.1,0.4l0.2,0l-0.1-0.4L229.8,91z
			 M233.6,88.1l0.1,0.4c0.3,0,0.4-0.1,0.4-0.3l0-0.1L233.6,88.1z M234.1,90.5l0.7-0.1l-0.1-0.4l-0.2,0
			C234.2,90.1,234.1,90.3,234.1,90.5L234.1,90.5z M235.3,88.4l0,0.2l0.4-0.1l0-0.2L235.3,88.4z M235.5,86.6l0,0.2l0.2,0
			c0.6-0.3,0.8-0.5,0.8-0.7l-0.2,0C236,86.4,235.7,86.6,235.5,86.6z M236.3,87.8l0.2,0c1.5-0.9,2.3-1.5,2.3-1.8l0-0.2
			C237.3,86.8,236.4,87.5,236.3,87.8z M236.4,88.5l0,0.2l0.7-0.1l0.2-0.4l-0.2,0C236.7,88.4,236.5,88.5,236.4,88.5z M237.9,87.7
			l0.4-0.1l-0.1-0.4C238,87.3,237.9,87.4,237.9,87.7L237.9,87.7z M238.6,83.8l0,0.2l0.4,0l0-0.2L238.6,83.8z M239,85.6L239,86l0.2,0
			l-0.1-0.4L239,85.6z M240.8,121.2l0,0.2c0.2,0.3,0.3,0.5,0.3,0.7l0.2-0.1l-0.1-0.9L240.8,121.2z M240.7,84.5l0.2,0L241,85l-0.2,0
			L240.7,84.5z M241.4,102.2l0.1,0.7l0.4,0c-0.2-0.3-0.2-0.5-0.3-0.7L241.4,102.2z M242,110.3l0.1,0.7l0.4-0.1
			c-0.2-0.3-0.3-0.5-0.3-0.6L242,110.3z M241.9,83.3l0.7-0.1l0,0.1c0,0.2-0.1,0.4-0.4,0.4l-0.2,0L241.9,83.3z M242.5,111.1l0.1,0.7
			c0.3,0.6,0.5,0.8,0.7,0.8l0.1,0l-0.1-0.2c-0.3-0.3-0.5-0.7-0.6-1.3L242.5,111.1z M242.7,120.6l0.1,0.4l0.2-0.1l-0.1-0.4
			L242.7,120.6z M242.7,103.3l0.1,0.4l0.2-0.1l-0.1-0.4L242.7,103.3z M242.6,83l0.4-0.1l0,0.2l-0.4,0.1L242.6,83z M242.9,105.7
			l0.1,0.4c0.3,0,0.4-0.1,0.4-0.3l0-0.1L242.9,105.7z M243,82.7l0.4,0l0.1,0.2l-0.4,0L243,82.7z M243.2,121.2l0.1,0.4l0.2,0
			l-0.1-0.4L243.2,121.2z M243.4,106.6l0.1,0.4l0.4-0.1l-0.1-0.4L243.4,106.6z M244.1,114.1l0,0.2c0.2,0.3,0.3,0.5,0.3,0.7l0.2-0.1
			l0-0.2c-0.2-0.3-0.3-0.5-0.3-0.6L244.1,114.1z M244.3,108.2l0.1,0.4c0.2,0.3,0.2,0.5,0.3,0.7l0.2,0l-0.1-0.4
			c-0.2-0.3-0.3-0.5-0.3-0.7L244.3,108.2z M244.8,109.6l0,0.2l0.4-0.1l0-0.2L244.8,109.6z M245.2,77.4l0.1,0.2l0.4-0.1l-0.1-0.2
			L245.2,77.4z M245.6,110.4l0.1,0.4l0.2-0.1l-0.1-0.4L245.6,110.4z M245.6,111.1c0.2,0.2,0.3,0.5,0.3,0.8l0.2,0l-0.1-0.9
			L245.6,111.1z M246.5,110.7l0.1,0.4l0.2,0l-0.1-0.4L246.5,110.7z M247.2,113.4l0.1,0.7l0.2,0l-0.1-0.7L247.2,113.4z M247.7,114
			l0.1,0.4l0.2-0.1l-0.1-0.4L247.7,114z M248.3,115.1l-0.2,0.4l0.7-0.1c0-0.3-0.2-0.4-0.4-0.4L248.3,115.1z M248.9,122.2
			c0.3,0,0.4-0.1,0.4-0.3l0-0.3c-0.3,0.1-0.4,0.2-0.4,0.4L248.9,122.2z M249.6,117l0.1,0.4l0.4-0.1c0-0.3-0.2-0.4-0.4-0.4L249.6,117
			z M249.9,117.9l0.1,0.2l0.4,0l-0.1-0.2L249.9,117.9z M261.3,129.4l0.1,0.4l0.4-0.1c0-0.3-0.2-0.4-0.4-0.4L261.3,129.4z
			 M263.7,128.9l0.1,0.2l0.4-0.1l-0.1-0.2L263.7,128.9z"/>
	</g>
	<g>
		<g>
			<path class="st0" d="M259.6,85.1c0.3,0.5,1.7,0.4,2.2,0.3c-0.5-0.3-1-0.3-1.4-0.7c0.8-0.8,3.6,0.8,4.9,0.5c0.1,0,0.9-0.3,0.9-0.3
				c0.2-0.5-0.4-0.7-0.3-1c0.2-0.7,1.6-0.4,2.3-0.4c0.7,0,1.8,0.1,2.4-0.3c0.6-0.5,0.7-1.1,1.6-1.5c1.5-0.8,2.7-1.1,3.9-2.4
				c0.7-0.7,0.7-0.8,1.8-0.7c0.3,0.1,0.3,0.5,0.7,0.4c0.3-0.1,0.3-0.6,0.6-0.7c0.7-0.6,1.3-0.2,2.1-0.5c0.8-0.3,1.3-1.3,1.7-2
				c0.8,0.1,1,1.1,2,1.1c0.8,0.1,1.5-0.6,2.4-0.7c1.1-0.1,1.7,0.2,2.8-0.3c0.8-0.4,1.5-1.1,2.4-1.3c0.5,1.1-0.2,3,1.1,3.1
				c0.4,0.1,3.7-1.4,2.4,0.3c0.8,0,2.3,0.3,2.8-0.2c-0.2,1.1,0.6,1.3,1.6,1.2c0.9-0.1,1.5-0.1,2.4,0s1.6,0.1,2.2-0.6
				c0.5-0.6,0.7-1.5,1.6-1.6c0.1,0.7-1.1,2.7,0.7,1.9c0.8-0.3,1.1-1.5,1.5-2.1c0.2,0.4,0.2,0.8,0.2,1.3c1.1,0.3,1.3-1.1,1.2-1.9
				c-0.2,0.2-0.4,0.2-0.4,0.7c-0.7-0.3-0.3-1.3-0.6-1.9c-0.2,0.3,0.2,0.6-0.2,0.7c-1.2-1.1-1.9-2.5-3.2-3.4
				c-0.7-0.5-1.6-0.9-2.3-1.3c-0.7-0.5-1.3-1.1-2-1.6c-1.3-0.9-2.8-1.5-4.4-1.9c-1.8-0.5-2.5-1.5-3.9-2.6c-1.3-1-3.2-1.8-4.8-1.8
				c-0.9,0-1.6,0.2-2.4,0.6c-0.7,0.4-1.3,1.2-2,1.6c-1.8,0.8-3.5-0.6-5.1-0.7c-1.9-0.1-3.7,1.3-5.2,2.4c-2.4,1.8-4.6,4.4-6.4,6.8
				c-0.4,0.6-0.7,1.2-1.2,1.8c-0.5,0.5-1.3,0.7-1.8,1.2c-0.4,0.5-0.7,1.4-0.7,1.9c-0.1,0.8,0.2,1,0.3,1.6c-0.6,0.1-1.4-0.3-1.8,0
				c1.2,0.9-0.9,0.9-1.4,1.4c-0.2,0.3-1.1,1.5-1.2,1.9C260.1,83.8,259.2,84.6,259.6,85.1z M303.5,74.8l0.1,0.1
				c1.4-0.2,0.1,1.6-0.3,2C302.6,76.5,302.7,75,303.5,74.8z M296.1,76.5c0.1-1.1,1.2-2,1.4-3.2c0.3-1.5,1,0,0.5,1
				C297.7,75,297.1,77,296.1,76.5z M284.3,70.6c0.2-0.8,0.8-0.5,1.1-0.1c0.2,0.3,0.2,1.2,0.3,1.6c0.1,1.2,0.4,2.4,0.3,3.6
				C285,75.8,283.3,70.8,284.3,70.6z M283.7,66.9c1-1.1,1.6,2.1,1.4,2.4C284.3,69.9,283,67.7,283.7,66.9z M281.6,72
				c0.2-0.3,0.6-0.5,1-0.4c-0.1,0.7,0.4,1.3,0.3,2C282.4,73.8,281.7,72.5,281.6,72z M279.6,73.4c0.3-1.2,1.1,0.1,1.2,0.4
				c0.2,0.5,0.4,1.1,0.5,1.6C280.4,75.8,279.4,74.2,279.6,73.4z M277.3,74.1c0.1-0.2,0.2-0.2,0.4,0.1c0.3,0.4,0.9,0.9,1.2,1.5
				c0.2,0.3,0.3,0.7,0.2,1c-0.6,1.8-1.8-0.2-1.9-1C277.2,75.5,277.1,74.5,277.3,74.1z M269.6,76.6c-1.1,0.3-2.5-0.7-2.3-1.9
				c0.4-0.1,0.7-0.1,0.9,0.2c-0.1-0.1-0.2,0-0.3-0.1C267.9,75.2,269.4,75.9,269.6,76.6z M267.7,78C267.7,78,267.7,78,267.7,78l0-0.1
				C267.7,77.9,267.7,77.9,267.7,78c0.7-0.6,2.2,0.7,2,1.6C269.1,79.7,267.8,78.6,267.7,78z M266.9,81.3c0.4,0.5,1.5,0.7,1.4,1.5
				C267.6,83,267,82,266.9,81.3z"/>
		</g>
		<g>
			<path class="st0" d="M265.1,91c0.6,0.3,1.1,0.9,1.6,1.2c0.7,0.4,1.4,0.6,2.2,0.9c0.3,1.4,6.7,3.7,6.9,2c0.8,0.2,1.6,1.5,2.3,2
				c1,0.7,2.1,0.5,3.2,0.5c2.6,0,4.9-0.1,7.4-0.6c1.8-0.3,3.8,0.1,5.3-1c0.7-0.5,0.8-1.2,1.2-1.9c0.5-0.8,1-1,1.8-1.4
				c0.7-0.4,1.1-1.1,1.8-1.5c0.8-0.5,1.3-0.2,2.1-0.9c0.6-0.6,1.1-0.8,0.9-1.6c-0.2-1-1.6-1.2-1.4-2.4c0.9,0.1,1.2,1.9,2,2
				c0.5,0.1,1.5-1.2,1.8-1.6c0.5-0.7,0.4-1.8,1-2.4c0.7-0.7,1.4-0.6,1.2-1.9c-1-0.2-0.5-1-1-1.5c-0.7-0.6-1.1,0.3-1.8,0.3
				c-0.7,0-0.9-0.8-1.5-1c-0.8-0.3-1.2,0.7-2,0.6c-0.6-0.1-0.9-0.9-1.3-1.2c-0.7-0.6-0.7-0.3-1.5-0.3c-0.9-0.1-3.1-0.9-3.6,0.6
				c-0.2,0.7-1.2,0.3-1.2,1c0.1,0.6,1,0.5,0.7,1.4c-1-0.4-1.2-1.4-2.3-0.5c-0.9,0.8-1.1,1.4-2.6,1.2c-1-0.1-1.8-0.5-1.8,0.8
				c0,0.7,1.1,2.4-0.2,2.5c0-0.6-0.4-2.8-0.8-3.2c-0.6-0.5-2.8,0-3.1,0.6c0.2,0.5,0.5,1,0.6,1.5c-0.8-0.2-0.6-1.8-1.9-1.4
				c-0.1,0.6,0.3,1.4,0,2c-0.6,1.2-1.1-0.2-1.4-0.9c-0.5-1.1-0.7-1.1-1.6-1.6c-1.7-0.9-2.5-2.1-4.4-0.7c-0.9,0.6-1.4,1-2.3,1.4
				c-0.8,0.4-1.1,1-1.8,1.6c-0.6,0.5-1.5,0.6-2.2,0.8c-1.1,0.3-1.1,0.5-1.3,1.6c-0.2-0.4-0.5-0.6-1-0.5c-0.1,0.7-0.3,1.3-0.6,2
				C264,90.7,264.1,90.5,265.1,91z M291.7,87.8c-0.4-0.1-0.7-0.3-1-0.5c-0.1,0.6,0.2,1.2-0.5,1.5c-0.6-0.5-1.3-1.6-1.1-2.4
				c0.3-1.4,0.8,0.5,1.6,0.3c0-0.2,0.1-0.3,0.1-0.5c0.1,0,0.2-0.3,0.2-0.3C291.3,86.6,291.8,87,291.7,87.8z M289.2,90.3
				c0.1,0.3,0.2,0.7,0.5,0.7c0.8,0.1,0.2-0.6,0.5-1c0.5-0.5,1.4-0.6,1.6,0.2c0.1-1.2,1.4-0.5,1.5-1.6c0.1,0,0.2,0,0.3-0.1
				c0.1-0.7-0.1-1.9-0.3-2.6c-0.2-0.6-1.4-1.6-1-2.3c1-1.5,1.8,2.9,1.9,3.6c0.1,0.7-0.1,1.2,0.2,2c0.3,0.7,0.6,1.4,0.7,2.1
				c-0.6-0.5-0.6-1.2-1.1-1.6c0.3,1.2-0.7,0.5-1.2,0.8c-0.5,0.4,0.1,1.4-0.2,1.7c-0.7,0.7-0.7-1.2-1-1.4c-0.6-0.4-1,0.3-0.9,0.9
				c-0.1-0.1-0.3-0.1-0.4-0.2c0,0.7,0.3,1.5,0.2,2.3c-1-0.3-0.8-3.2-2.1-2C288.6,91.2,288,89.9,289.2,90.3z M287.7,87.2l0.2,0.3
				c0.4-0.1,0.7,2.3-0.2,1.9C287.1,89,287.5,87.5,287.7,87.2z M284.1,86c0.6-0.1,0.5,0.3,0.5,0.7c0.2,0.6,0,1.4-0.1,2
				c-0.9-0.2-0.7-1.4-0.8-2C283.6,86.2,283.7,86.1,284.1,86z M274.2,87.9c0.2-0.4,0.5-0.7,0.6-1.1c0.2-0.5-0.3-1.2,0.2-1.2
				c0.5-0.3,0.8,0.3,0.8,0.8c-1.8,0.5-0.4,4.7-1.8,4.6C273.9,90,273.7,88.8,274.2,87.9z M272.6,88.6l-0.2,0.2
				c0.6-0.1,0.6,1.5-0.1,1.2C271.7,89.7,272,88.7,272.6,88.6z M269.5,87.6c0.3,0.5,0.2,1,0.1,1.5c0.4-0.7,0.1-1.5,0.5-2.3
				c0.3-0.6,1.1-0.7,1.1-1.4c0.1,0.2,0.3,0,0.2,0.1c0,1.4-0.2,2.5-0.1,3.8c0.1,0.3,0.3,1.7-0.4,1.5c-0.5-0.2-0.2-1.2-0.5-1.5
				c-0.2,0.7-0.9,1-1.6,1c0,0.5,0.2,1.2-0.5,1.1C267.8,90.4,268.5,88.1,269.5,87.6z"/>
		</g>
	</g>
</g>
<path class="st1" d="M6.9,34.4c0.1,0.4,0.2,1,0.4,1.8c0.2,0.7,0.5,1.5,0.8,2.3c0.4,0.8,0.8,1.7,1.3,2.6c0.5,0.9,1.2,1.7,2,2.4
	c0.9,0.9,1.7,1.5,2.5,2c0.8,0.4,1.6,0.8,2.3,1c0.7,0.2,1.4,0.3,2.1,0.3c0.7,0,1.3,0,1.8,0c2,0,3.6-0.3,4.9-0.9
	c1.3-0.6,2.3-1.4,3-2.3c0.7-0.9,1.2-1.8,1.5-2.8c0.3-1,0.4-1.9,0.4-2.6c0-1.4-0.3-2.5-1-3.4c-0.7-0.9-1.5-1.6-2.6-2.2
	c-1.1-0.6-2.3-1.1-3.7-1.5c-1.4-0.4-2.8-0.8-4.2-1.3c-1.5-0.4-2.9-0.9-4.2-1.5c-1.4-0.6-2.6-1.3-3.7-2.2c-1.1-0.9-1.9-2-2.6-3.4
	c-0.7-1.3-1-3-1-5c0-1.5,0.3-2.9,1-4.3c0.7-1.4,1.6-2.6,2.8-3.7c1.2-1.1,2.6-1.9,4.3-2.6c1.7-0.7,3.5-1,5.4-1c1.2,0,2.3,0.1,3.2,0.3
	c0.9,0.2,1.7,0.5,2.5,0.7c0.7,0.2,1.3,0.5,1.9,0.7c0.5,0.2,1,0.3,1.5,0.3c0.5,0,0.9-0.1,1-0.3c0.2-0.2,0.3-0.5,0.5-0.9h0.9v10.6
	h-0.7c-0.4-1.3-0.9-2.6-1.4-3.9c-0.5-1.3-1.1-2.4-1.9-3.4c-0.8-1-1.8-1.9-3-2.5c-1.2-0.6-2.7-0.9-4.5-0.9c-1.5,0-2.8,0.2-3.9,0.6
	c-1.1,0.4-2.1,0.9-2.9,1.6c-0.8,0.7-1.4,1.4-1.8,2.2C11.3,12.2,11,13,11,13.9c0,1.3,0.3,2.4,1,3.2c0.7,0.9,1.6,1.6,2.7,2.2
	c1.1,0.6,2.4,1.1,3.8,1.6c1.4,0.4,2.9,0.9,4.4,1.4c1.5,0.5,3,1,4.4,1.6c1.4,0.6,2.7,1.3,3.8,2.2s2,2,2.7,3.2c0.7,1.3,1,2.8,1,4.7
	c0,1.8-0.4,3.6-1.1,5.2c-0.7,1.6-1.8,3.1-3.2,4.3c-1.4,1.2-3,2.2-4.9,2.9c-1.9,0.7-4,1.1-6.3,1.1c-1.2,0-2.3-0.1-3.4-0.3
	C15,47,14,46.8,13,46.5c-1-0.2-1.9-0.5-2.6-0.7c-0.8-0.2-1.3-0.3-1.7-0.3c-0.5,0-0.9,0.1-1.1,0.3c-0.2,0.2-0.4,0.5-0.6,1H6V34.4H6.9
	z"/>
<path class="st1" d="M53.9,7l9.7,27.8h0.1L73.5,7h18.9v0.8H82.3V46h9.1v0.8H69.2V46h5.1V7.8h-0.1l-13.7,39h-0.9l-13.8-39h-0.1V46
	h8.1v0.8H39.6V46h5.1V7.8h-8.1V7H53.9z"/>
<path class="st1" d="M112.5,7v0.8h-8.1v25.1c0,1.7,0.1,3.5,0.3,5.1c0.2,1.7,0.6,3.1,1.2,4.4c0.6,1.3,1.5,2.4,2.7,3.2
	c1.2,0.8,2.8,1.2,4.9,1.2c2,0,3.7-0.2,5.1-0.7c1.4-0.5,2.5-1.1,3.4-1.8c0.9-0.8,1.6-1.6,2.1-2.6c0.5-0.9,0.8-1.9,1.1-2.8
	c0.2-0.9,0.4-1.8,0.4-2.7c0-0.8,0.1-1.5,0.1-2.1V7.8h-5.1V7h16.1v0.8h-10.2V34c0,0.6,0,1.3-0.1,2.3c0,0.9-0.2,1.9-0.4,2.9
	c-0.3,1-0.7,2-1.2,3c-0.5,1-1.3,1.9-2.3,2.7c-1,0.8-2.3,1.5-3.8,2c-1.5,0.5-3.4,0.8-5.6,0.8c-3.6,0-6.5-0.4-8.7-1.2
	c-2.2-0.8-3.9-1.8-5.1-3.1c-1.2-1.3-1.9-2.7-2.3-4.4c-0.4-1.6-0.6-3.3-0.6-5V7.8h-5.2V7H112.5z"/>
<path class="st1" d="M134.6,7.8V7h5.1c1.9,0,3.8,0,5.7-0.1c1.9-0.1,3.8-0.1,5.7-0.1c1.7,0,3.4,0.1,5.3,0.3c1.9,0.2,3.7,0.6,5.5,1.2
	c1.8,0.6,3.6,1.3,5.2,2.3c1.6,1,3.1,2.2,4.4,3.7c1.3,1.5,2.3,3.3,3,5.3c0.7,2,1.1,4.4,1.1,7.2c0,2.7-0.4,5.1-1.1,7.1
	c-0.7,2-1.7,3.8-3,5.3c-1.2,1.5-2.7,2.7-4.3,3.7c-1.6,1-3.3,1.7-5,2.3c-1.7,0.6-3.4,1-5.1,1.2c-1.7,0.2-3.3,0.3-4.7,0.3
	c-2.1,0-4.2,0-6.3-0.1c-2.1,0-4.2-0.1-6.3-0.1h-9.1V46h9.1V7.8H134.6z M150.7,46.2c2.4,0,4.5-0.3,6.2-0.9c1.7-0.6,3.2-1.4,4.3-2.3
	c1.2-1,2.1-2.1,2.8-3.4c0.7-1.3,1.2-2.6,1.6-4c0.4-1.4,0.6-2.8,0.7-4.2c0.1-1.4,0.2-2.7,0.2-3.9c0-3-0.2-5.7-0.6-8.2
	c-0.4-2.4-1.1-4.5-2.2-6.3c-1.1-1.7-2.6-3.1-4.6-4c-2-0.9-4.6-1.4-7.8-1.4c-0.7,0-1.4,0-2,0c-0.6,0-1.1,0.1-1.5,0.1V46
	C148.9,46.1,149.9,46.2,150.7,46.2z"/>
<path class="st1" d="M211.9,18.4c-1-3.6-2.4-6.5-4.4-8.5c-1.9-2-4.5-3-7.8-3c-2.6,0-4.6,0.5-6.2,1.5c-1.6,1-2.8,2.3-3.6,3.9
	c-0.8,1.6-1.4,3.4-1.6,5.4c-0.3,2-0.4,4.1-0.4,6.2v4.9c0,3.4,0.2,6.2,0.7,8.5c0.4,2.3,1.1,4.2,2.1,5.6c0.9,1.4,2.2,2.4,3.7,3
	c1.5,0.6,3.3,0.9,5.4,0.9c1.7,0,3.1-0.3,4.1-0.9c1-0.6,1.8-1.5,2.3-2.5c0.5-1.1,0.9-2.3,1-3.8c0.1-1.5,0.2-3,0.2-4.7v-2.1h-5.7v-0.8
	h20.2v0.8h-6.6v12.8h-1c-0.1-0.4-0.3-0.8-0.6-1c-0.4-0.2-0.8-0.3-1.2-0.3c-0.9,0-1.7,0.2-2.5,0.5c-0.8,0.4-1.7,0.7-2.6,1.1
	c-0.9,0.4-2,0.8-3.2,1.1c-1.2,0.4-2.7,0.5-4.4,0.5c-2.7,0-5.3-0.5-7.9-1.6c-2.5-1.1-4.8-2.5-6.7-4.4c-1.9-1.8-3.5-4-4.6-6.5
	c-1.2-2.5-1.7-5.2-1.7-8.1c0-3.2,0.6-6,1.9-8.6c1.3-2.6,2.9-4.8,4.9-6.6c2-1.8,4.3-3.2,6.7-4.2c2.5-1,4.9-1.5,7.3-1.5
	c1.1,0,2.2,0.1,3.2,0.3c1,0.2,2,0.5,2.9,0.7c0.9,0.2,1.7,0.5,2.4,0.7c0.7,0.2,1.3,0.3,1.8,0.3c0.5,0,0.9-0.1,1.1-0.3
	c0.2-0.2,0.4-0.5,0.6-0.9h0.9v11.4H211.9z"/>
<path class="st1" d="M255.1,7v9.5h-0.7c-0.2-0.6-0.5-1.4-0.9-2.4c-0.4-1-1.1-1.9-1.9-2.9c-0.8-0.9-1.8-1.7-3.1-2.4
	c-1.3-0.7-2.8-1-4.6-1H235v17.2h3.1c1.4,0,2.5-0.2,3.5-0.6c0.9-0.4,1.7-0.9,2.4-1.7c0.6-0.7,1.2-1.6,1.6-2.6c0.4-1,0.7-2.2,1-3.4
	h0.7v17.4h-0.7c-0.3-1.1-0.6-2.1-0.9-3.1c-0.4-1-0.8-1.9-1.4-2.7c-0.6-0.8-1.3-1.4-2.2-1.8c-0.9-0.4-2-0.7-3.3-0.7H235V46h9.2
	c1.7,0,3.3-0.3,4.6-0.9c1.4-0.6,2.6-1.4,3.7-2.4c1.1-1,1.9-2.3,2.7-3.7c0.7-1.4,1.2-2.9,1.6-4.5h0.7v12.2h-37.7V46h7.1V7.8h-15.1V7
	H255.1z"/>
<path class="st1" d="M247.8,7.8V7h19.1c1.9,0,3.8,0,5.7-0.1c1.9-0.1,3.8-0.1,5.7-0.1c1.7,0,3.4,0.1,5.3,0.3c1.9,0.2,3.7,0.6,5.5,1.2
	c1.8,0.6,3.6,1.3,5.2,2.3c1.6,1,3.1,2.2,4.4,3.7c1.3,1.5,2.3,3.3,3,5.3c0.7,2,1.1,4.4,1.1,7.2c0,2.7-0.4,5.1-1.1,7.1
	c-0.7,2-1.7,3.8-3,5.3c-1.2,1.5-2.7,2.7-4.3,3.7c-1.6,1-3.3,1.7-5,2.3c-1.7,0.6-3.4,1-5.1,1.2c-1.7,0.2-3.3,0.3-4.7,0.3
	c-2.1,0-4.2,0-6.3-0.1c-2.1,0-4.2-0.1-6.3-0.1h-15.1V46h15.1V7.8H247.8z M277.9,46.2c2.4,0,4.5-0.3,6.2-0.9c1.7-0.6,3.2-1.4,4.3-2.3
	c1.2-1,2.1-2.1,2.8-3.4c0.7-1.3,1.2-2.6,1.6-4c0.4-1.4,0.6-2.8,0.7-4.2c0.1-1.4,0.2-2.7,0.2-3.9c0-3-0.2-5.7-0.6-8.2
	c-0.4-2.4-1.1-4.5-2.2-6.3c-1.1-1.7-2.6-3.1-4.6-4c-2-0.9-4.6-1.4-7.8-1.4c-0.7,0-1.4,0-2,0c-0.6,0-1.1,0.1-1.5,0.1V46
	C276.1,46.1,277.1,46.2,277.9,46.2z"/>
</svg>
