<?xml version="1.0" encoding="utf-8"?>
<!-- Generator: Adobe Illustrator 21.1.0, SVG Export Plug-In . SVG Version: 6.00 Build 0)  -->
<!DOCTYPE svg PUBLIC "-//W3C//DTD SVG 1.1//EN" "http://www.w3.org/Graphics/SVG/1.1/DTD/svg11.dtd">
<svg version="1.1" id="Layer_1" xmlns="http://www.w3.org/2000/svg" xmlns:xlink="http://www.w3.org/1999/xlink" x="0px" y="0px"
	 viewBox="0 0 201 140" style="enable-background:new 0 0 201 140;" xml:space="preserve">
<style type="text/css">
	.st0{fill:#FFFFFF;stroke:#FFFFFF;stroke-width:8;stroke-miterlimit:10;}
	.st1{fill:#231F20;}
</style>
<g id="Your_Icon_4_">
	<g>
		<path d="M95.1,4.9c-27.3,0-49.5,22.2-49.5,49.5s22.2,49.5,49.5,49.5c27.3,0,49.5-22.2,49.5-49.5S122.5,4.9,95.1,4.9z M69.4,68.4
			c0.1,0.5,0.1,1.4,0.4,2.3c0.1,0.5,0.3,0.9,0.5,1.4c0.1,0.5,0.5,1,0.8,1.5c0.3,0.5,0.5,1.1,1,1.5l1.2,1.4l1.4,1.2
			c0.4,0.4,1,0.7,1.5,1c0.5,0.3,1,0.6,1.5,0.8c0.5,0.2,1,0.3,1.5,0.5c0.9,0.3,1.7,0.3,2.3,0.4c0.6,0.1,0.9,0.1,0.9,0.1
			s-0.3,0-0.9-0.1c-0.5-0.1-1.4,0-2.3-0.3c-0.5-0.1-1-0.3-1.5-0.4c-0.6-0.1-1-0.5-1.6-0.7c-0.5-0.3-1.1-0.5-1.6-1l-1.5-1.2l-1.2-1.5
			c-0.4-0.5-0.7-1.1-1-1.6c-0.3-0.6-0.6-1-0.7-1.6c-0.2-0.5-0.3-1-0.4-1.5C69.3,69.8,69.4,68.9,69.4,68.4c-0.1-0.6-0.1-0.9-0.1-0.9
			S69.3,67.8,69.4,68.4z M61.6,64.2c0.2,1.1,0.2,2.7,0.9,4.5c0.3,0.9,0.6,1.9,1,2.9c0.2,1.1,1,2,1.5,3c0.6,1,1.1,2.2,1.9,3.1
			c0.8,0.9,1.6,1.9,2.4,2.9c1,0.8,1.9,1.6,2.9,2.4c0.9,0.9,2,1.3,3.1,1.9c1.1,0.5,2,1.3,3,1.5c1,0.3,2,0.7,2.9,1
			c1.8,0.7,3.4,0.6,4.5,0.9c1.1,0.2,1.7,0.3,1.7,0.3s-0.6,0-1.8-0.1c-0.6,0-1.2-0.1-2-0.1c-0.8,0-1.7-0.1-2.6-0.4
			c-0.9-0.3-1.9-0.6-3-0.9c-1.1-0.2-2.1-0.9-3.2-1.4c-1.1-0.6-2.3-1.1-3.2-2c-1-0.8-2-1.6-3-2.4c-0.8-1-1.6-2-2.4-3
			c-0.9-0.9-1.4-2.1-2-3.2c-0.5-1.1-1.2-2.1-1.4-3.2c-0.3-1.1-0.6-2.1-0.9-3c-0.3-0.9-0.4-1.8-0.4-2.6c0-0.8-0.1-1.5-0.1-2
			c-0.1-1.1-0.1-1.8-0.1-1.8S61.4,63.1,61.6,64.2z M88.8,96c-0.8,0-1.9,0-3-0.2c-1.2-0.1-2.5-0.2-3.9-0.6c-0.7-0.2-1.5-0.3-2.2-0.5
			c-0.8-0.2-1.5-0.5-2.3-0.8c-1.6-0.4-3.2-1.3-4.9-2.1c-1.6-1-3.3-1.8-4.8-3c-1.6-1.1-3-2.4-4.5-3.7c-1.3-1.5-2.7-2.9-3.7-4.5
			c-1.2-1.5-2.1-3.2-3-4.8c-0.8-1.7-1.6-3.2-2.1-4.9c-0.6-1.6-1-3.1-1.3-4.5c-0.4-1.4-0.5-2.8-0.6-3.9c-0.2-1.2-0.2-2.2-0.2-3
			c0-1.7,0-2.6,0-2.6s0.1,1,0.3,2.6c0.1,0.8,0.2,1.9,0.5,3c0.2,1.1,0.5,2.4,0.9,3.8c0.4,1.4,0.9,2.8,1.5,4.3c0.5,1.5,1.5,3,2.2,4.6
			c1,1.5,1.8,3.1,3,4.5c1.1,1.5,2.4,2.8,3.7,4.2c1.4,1.3,2.7,2.6,4.2,3.7c1.4,1.2,3,2,4.5,3c1.6,0.7,3.1,1.7,4.6,2.2
			c0.8,0.3,1.5,0.6,2.2,0.9c0.7,0.2,1.4,0.4,2.1,0.6c1.4,0.4,2.6,0.7,3.8,0.9c1.1,0.3,2.1,0.4,3,0.5c1.7,0.2,2.6,0.3,2.6,0.3
			S90.5,96,88.8,96z M95.1,74c-10.8,0-19.5-8.7-19.5-19.5s8.8-19.5,19.5-19.5c10.8,0,19.5,8.7,19.5,19.5
			C114.7,65.2,105.9,74,95.1,74z M119.5,39c-0.1-0.5-0.1-1.4-0.4-2.3c-0.1-0.5-0.3-0.9-0.5-1.5c-0.1-0.5-0.5-1-0.7-1.5
			c-0.3-0.5-0.5-1.1-1-1.5l-1.2-1.4l-1.4-1.2c-0.4-0.5-1-0.7-1.5-1c-0.5-0.3-1-0.6-1.5-0.8c-0.5-0.2-1-0.3-1.5-0.5
			c-0.9-0.3-1.7-0.3-2.3-0.4c-0.6-0.1-0.9-0.1-0.9-0.1s0.3,0,0.9,0.1c0.5,0.1,1.4,0,2.3,0.3c0.5,0.1,1,0.3,1.5,0.5
			c0.6,0.1,1,0.5,1.6,0.7c0.5,0.3,1.1,0.5,1.6,1l1.5,1.2l1.2,1.5c0.4,0.5,0.7,1.1,1,1.6c0.2,0.6,0.6,1,0.7,1.6
			c0.2,0.5,0.3,1,0.4,1.5C119.6,37.6,119.5,38.4,119.5,39c0.1,0.6,0.1,0.9,0.1,0.9S119.6,39.5,119.5,39z M127.3,43.3
			c-0.2-1.1-0.2-2.8-0.8-4.5c-0.3-0.9-0.6-1.9-0.9-2.9c-0.2-1.1-1-2-1.5-3c-0.6-1-1-2.2-1.9-3.1c-0.8-1-1.6-1.9-2.4-2.9
			c-1-0.8-1.9-1.6-2.9-2.4c-0.9-0.9-2-1.4-3-2c-1.1-0.5-2-1.3-3-1.5c-1-0.4-2-0.7-2.9-1c-1.8-0.7-3.4-0.6-4.5-0.9
			c-1.1-0.2-1.7-0.3-1.7-0.3s0.6,0,1.8,0.1c0.6,0,1.2,0.1,2,0.1c0.8,0,1.7,0.1,2.6,0.4c0.9,0.3,1.9,0.6,3,0.9
			c1.1,0.2,2.1,0.9,3.2,1.5c1,0.6,2.2,1.1,3.2,2c1,0.8,2,1.6,3,2.5c0.8,1,1.6,2,2.4,3c0.9,0.9,1.3,2.1,1.9,3.2
			c0.5,1.1,1.2,2.1,1.4,3.2c0.3,1.1,0.6,2.1,0.8,3c0.3,0.9,0.3,1.8,0.4,2.6c0,0.8,0.1,1.5,0.1,2c0.1,1.1,0.1,1.8,0.1,1.8
			S127.5,44.4,127.3,43.3z M136.4,50.7c0,0-0.1-1-0.3-2.6c0-0.8-0.2-1.9-0.4-3c-0.2-1.1-0.4-2.4-0.9-3.8c-0.3-1.4-0.8-2.8-1.5-4.3
			c-0.5-1.5-1.4-3-2.2-4.6c-0.9-1.5-1.8-3.1-3-4.5c-1-1.5-2.4-2.9-3.6-4.3c-1.4-1.3-2.7-2.6-4.2-3.7c-1.4-1.2-3-2.1-4.5-3.1
			c-1.6-0.7-3-1.7-4.6-2.2c-0.8-0.3-1.5-0.6-2.2-0.9c-0.7-0.2-1.4-0.4-2.1-0.6c-1.4-0.5-2.6-0.7-3.8-1c-1.1-0.3-2.1-0.4-3-0.5
			c-1.7-0.2-2.6-0.3-2.6-0.3s1,0,2.6,0c0.8,0,1.9,0,3,0.2c1.2,0.1,2.5,0.2,3.9,0.6c0.7,0.2,1.4,0.3,2.2,0.5c0.8,0.3,1.5,0.5,2.3,0.8
			c1.6,0.5,3.2,1.3,4.8,2.1c1.6,1,3.2,1.9,4.7,3.1c1.6,1.1,3,2.5,4.5,3.8c1.3,1.5,2.6,2.9,3.7,4.5c1.2,1.5,2,3.2,3,4.8
			c0.7,1.7,1.6,3.3,2,4.9c0.6,1.6,1,3.1,1.2,4.6c0.4,1.4,0.5,2.8,0.5,3.9c0.1,1.2,0.2,2.2,0.1,3C136.5,49.7,136.4,50.7,136.4,50.7z"
			/>
		<circle cx="95.1" cy="54.4" r="2.6"/>
	</g>
</g>
<path class="st0" d="M40.7,92.5L40.7,92.5c-1.3-1.5-1.1-3.7,0.4-4.9l36.6-31.8c1.4-1.2,3.6-1.1,4.9,0.3l16.8,18.1
	c1.3,1.4,3.5,1.5,4.9,0.2l41.3-38.2c1.4-1.3,7.7-5,9-3.6l0,0c1.3,1.4,1.2,3.6-0.2,4.9l-50.5,46.7c-1.4,1.3-3.6,1.2-4.9-0.2L82,65.7
	c-1.3-1.4-3.4-1.5-4.9-0.3L45.6,92.8C44.2,94.1,42,93.9,40.7,92.5z"/>
<path d="M99.4,74.1L82.5,56c-1.3-1.4-3.4-1.5-4.8-0.3L54.3,76.1c-1.3,1.1-1.6,3-0.7,4.4c0,0,0,0,0,0.1c1.1,1.8,3.6,2.2,5.2,0.8
	l18.4-15.9c1.4-1.2,3.5-1.1,4.8,0.3L99,84c1.3,1.4,3.5,1.5,4.9,0.2l50.6-46.7c1.4-1.3,1.5-3.5,0.2-4.9l0-0.1
	c-1.3-1.4-3.5-1.5-4.9-0.2l-45.4,42C102.9,75.6,100.7,75.5,99.4,74.1z"/>
<path d="M161.5,43.6c-0.1,1.6-2,2.3-3.1,1.1l-7.9-8.5l-7.9-8.5c-1.1-1.2-0.2-3.1,1.4-3l16.4,0.6c1,0,1.8,0.9,1.7,1.9L161.5,43.6z"/>
<g>
	<path class="st1" d="M15,132.4c-0.3,0.5-0.6,1-1.1,1.3c-0.5,0.4-1,0.7-1.6,0.9s-1.3,0.3-2,0.3c-1.1,0-2.1-0.2-3.2-0.6
		c-1.1-0.4-2-0.9-2.8-1.5l0.8-1.1c0.8,0.6,1.6,1.1,2.5,1.4c0.9,0.3,1.8,0.5,2.7,0.5c1,0,1.8-0.2,2.5-0.7s1-1.2,1-2v-0.1
		c0-0.4-0.1-0.8-0.3-1.1c-0.2-0.3-0.5-0.6-0.9-0.8s-0.8-0.4-1.2-0.6c-0.5-0.2-0.9-0.3-1.5-0.5c-0.6-0.2-1.2-0.4-1.8-0.5
		c-0.6-0.2-1.1-0.4-1.6-0.7c-0.5-0.3-0.9-0.7-1.2-1.1c-0.3-0.4-0.4-1-0.4-1.6v-0.1c0-0.6,0.1-1.1,0.4-1.6c0.2-0.5,0.6-0.9,1-1.3
		c0.4-0.4,0.9-0.6,1.5-0.8c0.6-0.2,1.2-0.3,1.9-0.3c0.9,0,1.8,0.1,2.7,0.4c0.9,0.3,1.7,0.7,2.5,1.2l-0.7,1.2
		c-0.7-0.4-1.4-0.8-2.2-1.1c-0.8-0.3-1.5-0.4-2.3-0.4c-1,0-1.8,0.2-2.4,0.7s-0.9,1.1-0.9,1.8v0.1c0,0.4,0.1,0.7,0.3,1
		s0.5,0.5,0.9,0.8c0.4,0.2,0.8,0.4,1.3,0.6s1,0.3,1.5,0.5c0.6,0.2,1.2,0.4,1.7,0.6c0.6,0.2,1.1,0.5,1.5,0.8s0.8,0.7,1.1,1.1
		c0.3,0.4,0.4,1,0.4,1.6v0.1C15.4,131.3,15.3,131.8,15,132.4z"/>
	<path class="st1" d="M31.2,130.2c-0.4,0.9-0.9,1.7-1.6,2.4c-0.7,0.7-1.5,1.3-2.4,1.7s-1.9,0.6-3,0.6s-2.1-0.2-3-0.6
		c-0.9-0.4-1.7-1-2.4-1.6c-0.7-0.7-1.2-1.5-1.6-2.4c-0.4-0.9-0.6-1.9-0.6-2.9v-0.1c0-1,0.2-2,0.6-2.9c0.4-0.9,0.9-1.7,1.6-2.4
		c0.7-0.7,1.5-1.3,2.4-1.7c0.9-0.4,1.9-0.6,3-0.6s2.1,0.2,3,0.6c0.9,0.4,1.7,1,2.4,1.6c0.7,0.7,1.2,1.5,1.6,2.4s0.6,1.9,0.6,2.9v0.1
		C31.8,128.3,31.6,129.3,31.2,130.2z M30.3,127.3c0-0.9-0.2-1.7-0.5-2.5c-0.3-0.8-0.7-1.4-1.3-2c-0.5-0.6-1.2-1-1.9-1.3
		c-0.7-0.3-1.5-0.5-2.4-0.5c-0.9,0-1.7,0.2-2.4,0.5c-0.7,0.3-1.4,0.8-1.9,1.3c-0.5,0.6-0.9,1.2-1.2,2c-0.3,0.8-0.4,1.6-0.4,2.4v0.1
		c0,0.9,0.2,1.7,0.5,2.5s0.7,1.4,1.3,2c0.5,0.6,1.2,1,1.9,1.3c0.7,0.3,1.5,0.5,2.4,0.5c0.9,0,1.7-0.2,2.4-0.5
		c0.7-0.3,1.4-0.8,1.9-1.3c0.5-0.6,0.9-1.2,1.2-2C30.2,129,30.3,128.2,30.3,127.3L30.3,127.3z"/>
	<path class="st1" d="M44.9,134.6v-2.7c-0.5,0.9-1.2,1.6-2,2.2c-0.8,0.6-1.9,0.9-3.2,0.9c-0.9,0-1.7-0.1-2.5-0.4
		c-0.7-0.3-1.3-0.7-1.8-1.2c-0.5-0.5-0.9-1.2-1.1-1.9c-0.3-0.7-0.4-1.5-0.4-2.4V120h1.4v8.6c0,1.5,0.4,2.7,1.2,3.6s1.9,1.4,3.4,1.4
		c0.7,0,1.4-0.1,2-0.4c0.6-0.3,1.2-0.6,1.6-1.1c0.5-0.5,0.8-1,1.1-1.6c0.3-0.6,0.4-1.3,0.4-2.1V120h1.4v14.5H44.9z"/>
	<path class="st1" d="M49.8,134.6v-20.8h1.4v20.8H49.8z"/>
	<path class="st1" d="M67.8,134.9c-1.1,0-2.2-0.2-3.2-0.6c-1-0.4-1.8-0.9-2.5-1.6s-1.3-1.5-1.7-2.5c-0.4-1-0.6-2-0.6-3.2V127
		c0-1.1,0.2-2.1,0.6-3.1c0.4-1,0.9-1.8,1.6-2.5c0.7-0.7,1.5-1.3,2.4-1.7s1.9-0.6,3.1-0.6c1.3,0,2.4,0.2,3.3,0.7
		c0.9,0.5,1.7,1.1,2.3,1.8c0.6,0.8,1.1,1.7,1.4,2.7c0.3,1,0.4,2,0.4,3.1c0,0.2,0,0.4,0,0.5c0,0.2,0,0.4,0,0.6H64.1
		c0.2,1,0.6,1.7,1.3,2.2c0.7,0.5,1.5,0.8,2.4,0.8c0.7,0,1.4-0.1,1.9-0.4c0.6-0.2,1.2-0.6,1.8-1.2l2.5,2.2c-0.7,0.9-1.6,1.6-2.6,2.1
		S69.1,134.9,67.8,134.9z M70.6,125.7c-0.1-1-0.5-1.8-1-2.4c-0.6-0.6-1.3-0.9-2.2-0.9s-1.6,0.3-2.2,0.9s-0.9,1.4-1.1,2.4H70.6z"/>
	<path class="st1" d="M83.2,134.9c-1.1,0-2.2-0.2-3.2-0.6s-1.8-1-2.5-1.7c-0.7-0.7-1.3-1.5-1.7-2.5c-0.4-1-0.6-2-0.6-3.1V127
		c0-1.1,0.2-2.1,0.6-3.1s0.9-1.8,1.7-2.5c0.7-0.7,1.5-1.3,2.5-1.7s2.1-0.6,3.2-0.6c1.4,0,2.6,0.2,3.6,0.7s1.8,1.1,2.5,1.9l-2.7,2.8
		c-0.5-0.5-1-0.9-1.5-1.2c-0.5-0.3-1.2-0.5-2-0.5c-0.6,0-1,0.1-1.5,0.3c-0.4,0.2-0.8,0.5-1.2,0.9c-0.3,0.4-0.6,0.8-0.8,1.3
		c-0.2,0.5-0.3,1-0.3,1.6v0.1c0,0.6,0.1,1.1,0.3,1.7c0.2,0.5,0.4,1,0.8,1.3c0.3,0.4,0.8,0.7,1.2,0.9c0.5,0.2,1,0.3,1.6,0.3
		c0.7,0,1.4-0.1,1.9-0.4s1.1-0.7,1.6-1.2l2.5,2.6c-0.7,0.8-1.6,1.5-2.5,2C86,134.6,84.7,134.9,83.2,134.9z"/>
	<path class="st1" d="M97.8,134.9c-1.2,0-2.3-0.2-3.3-0.6c-1-0.4-1.9-1-2.6-1.7c-0.7-0.7-1.3-1.5-1.7-2.5c-0.4-1-0.6-2-0.6-3.1V127
		c0-1.1,0.2-2.1,0.6-3.1c0.4-1,1-1.8,1.7-2.5c0.7-0.7,1.6-1.3,2.6-1.7c1-0.4,2.1-0.6,3.3-0.6c1.2,0,2.3,0.2,3.3,0.6
		c1,0.4,1.9,1,2.6,1.7c0.7,0.7,1.3,1.5,1.7,2.5c0.4,1,0.6,2,0.6,3.1v0.1c0,1.1-0.2,2.1-0.6,3.1c-0.4,1-1,1.8-1.7,2.5
		c-0.7,0.7-1.6,1.3-2.6,1.7C100.1,134.7,99,134.9,97.8,134.9z M97.8,131.2c0.6,0,1.2-0.1,1.7-0.3c0.5-0.2,0.9-0.5,1.2-0.9
		c0.3-0.4,0.6-0.8,0.8-1.3c0.2-0.5,0.3-1,0.3-1.6V127c0-0.6-0.1-1.1-0.3-1.6c-0.2-0.5-0.5-1-0.8-1.3c-0.4-0.4-0.8-0.7-1.3-0.9
		c-0.5-0.2-1-0.3-1.6-0.3c-0.6,0-1.2,0.1-1.7,0.3c-0.5,0.2-0.9,0.5-1.2,0.9c-0.3,0.4-0.6,0.8-0.8,1.3c-0.2,0.5-0.3,1-0.3,1.6v0.1
		c0,0.6,0.1,1.1,0.3,1.6s0.5,1,0.8,1.3c0.4,0.4,0.8,0.7,1.3,0.9C96.7,131.1,97.2,131.2,97.8,131.2z"/>
	<path class="st1" d="M107.2,119.3h4.3v2.2c0.2-0.3,0.5-0.6,0.8-0.9c0.3-0.3,0.6-0.6,1-0.8c0.4-0.2,0.8-0.4,1.2-0.5
		c0.4-0.1,0.9-0.2,1.5-0.2c1.7,0,2.9,0.5,3.8,1.5c0.9,1,1.4,2.4,1.4,4.2v9.9h-4.3v-8.5c0-1-0.2-1.8-0.7-2.3
		c-0.5-0.5-1.1-0.8-1.9-0.8c-0.8,0-1.5,0.3-2,0.8c-0.5,0.5-0.7,1.3-0.7,2.3v8.5h-4.3V119.3z"/>
	<path class="st1" d="M130.5,134.9c-1.2,0-2.3-0.2-3.3-0.6c-1-0.4-1.9-1-2.6-1.7c-0.7-0.7-1.3-1.5-1.7-2.5c-0.4-1-0.6-2-0.6-3.1V127
		c0-1.1,0.2-2.1,0.6-3.1c0.4-1,1-1.8,1.7-2.5c0.7-0.7,1.6-1.3,2.6-1.7c1-0.4,2.1-0.6,3.3-0.6c1.2,0,2.3,0.2,3.3,0.6
		c1,0.4,1.9,1,2.6,1.7c0.7,0.7,1.3,1.5,1.7,2.5c0.4,1,0.6,2,0.6,3.1v0.1c0,1.1-0.2,2.1-0.6,3.1c-0.4,1-1,1.8-1.7,2.5
		c-0.7,0.7-1.6,1.3-2.6,1.7C132.8,134.7,131.7,134.9,130.5,134.9z M130.5,131.2c0.6,0,1.2-0.1,1.7-0.3c0.5-0.2,0.9-0.5,1.2-0.9
		c0.3-0.4,0.6-0.8,0.8-1.3c0.2-0.5,0.3-1,0.3-1.6V127c0-0.6-0.1-1.1-0.3-1.6c-0.2-0.5-0.5-1-0.8-1.3c-0.4-0.4-0.8-0.7-1.3-0.9
		c-0.5-0.2-1-0.3-1.6-0.3c-0.6,0-1.2,0.1-1.7,0.3c-0.5,0.2-0.9,0.5-1.2,0.9c-0.3,0.4-0.6,0.8-0.8,1.3c-0.2,0.5-0.3,1-0.3,1.6v0.1
		c0,0.6,0.1,1.1,0.3,1.6s0.5,1,0.8,1.3c0.4,0.4,0.8,0.7,1.3,0.9C129.4,131.1,129.9,131.2,130.5,131.2z"/>
	<path class="st1" d="M139.9,119.3h4.3v2.2c0.2-0.3,0.5-0.6,0.8-0.9c0.3-0.3,0.6-0.6,1-0.8c0.4-0.2,0.8-0.4,1.2-0.5
		c0.4-0.1,0.9-0.2,1.5-0.2c1,0,1.9,0.2,2.6,0.6c0.7,0.4,1.3,1,1.7,1.8c0.7-0.8,1.4-1.4,2.2-1.8c0.8-0.4,1.7-0.6,2.8-0.6
		c1.6,0,2.9,0.5,3.8,1.4s1.4,2.3,1.4,4.2v9.9h-4.3v-8.5c0-1-0.2-1.8-0.7-2.3c-0.4-0.5-1.1-0.8-1.9-0.8c-0.8,0-1.5,0.3-1.9,0.8
		c-0.5,0.5-0.7,1.3-0.7,2.3v8.5h-4.3v-8.5c0-1-0.2-1.8-0.7-2.3c-0.4-0.5-1.1-0.8-1.9-0.8c-0.8,0-1.5,0.3-1.9,0.8
		c-0.5,0.5-0.7,1.3-0.7,2.3v8.5h-4.3V119.3z"/>
	<path class="st1" d="M165.1,113.8h4.6v3.8h-4.6V113.8z M165.2,119.3h4.3v15.3h-4.3V119.3z"/>
	<path class="st1" d="M178.8,134.9c-1.1,0-2.2-0.2-3.2-0.6s-1.8-1-2.5-1.7c-0.7-0.7-1.3-1.5-1.7-2.5c-0.4-1-0.6-2-0.6-3.1V127
		c0-1.1,0.2-2.1,0.6-3.1c0.4-1,0.9-1.8,1.7-2.5c0.7-0.7,1.5-1.3,2.5-1.7s2.1-0.6,3.2-0.6c1.4,0,2.6,0.2,3.6,0.7
		c0.9,0.5,1.8,1.1,2.5,1.9l-2.7,2.8c-0.5-0.5-1-0.9-1.5-1.2s-1.2-0.5-2-0.5c-0.6,0-1,0.1-1.5,0.3c-0.4,0.2-0.8,0.5-1.2,0.9
		c-0.3,0.4-0.6,0.8-0.8,1.3c-0.2,0.5-0.3,1-0.3,1.6v0.1c0,0.6,0.1,1.1,0.3,1.7c0.2,0.5,0.4,1,0.8,1.3c0.3,0.4,0.8,0.7,1.2,0.9
		c0.5,0.2,1,0.3,1.6,0.3c0.7,0,1.4-0.1,1.9-0.4c0.5-0.3,1.1-0.7,1.6-1.2l2.5,2.6c-0.7,0.8-1.6,1.5-2.5,2S180.3,134.9,178.8,134.9z"
		/>
	<path class="st1" d="M191.2,134.9c-1.1,0-2.2-0.2-3.3-0.6c-1.1-0.4-2.2-1-3.2-1.8l1.9-2.8c0.8,0.6,1.7,1.1,2.5,1.4
		c0.8,0.3,1.6,0.5,2.3,0.5c0.6,0,1.1-0.1,1.4-0.3c0.3-0.2,0.4-0.5,0.4-0.8v-0.1c0-0.2-0.1-0.4-0.3-0.6s-0.4-0.3-0.7-0.4
		c-0.3-0.1-0.6-0.2-1-0.4c-0.4-0.1-0.8-0.2-1.2-0.4c-0.5-0.2-1.1-0.3-1.6-0.6c-0.5-0.2-1-0.5-1.5-0.9c-0.4-0.4-0.8-0.8-1.1-1.3
		c-0.3-0.5-0.4-1.1-0.4-1.9v-0.1c0-0.8,0.1-1.5,0.4-2.1s0.7-1.1,1.2-1.5c0.5-0.4,1.1-0.7,1.8-0.9s1.4-0.3,2.2-0.3c1,0,2,0.2,2.9,0.5
		c1,0.3,1.9,0.7,2.8,1.3l-1.7,3c-0.8-0.4-1.5-0.8-2.2-1c-0.7-0.3-1.4-0.4-1.9-0.4c-0.5,0-0.9,0.1-1.2,0.3c-0.3,0.2-0.4,0.5-0.4,0.8
		v0.1c0,0.2,0.1,0.4,0.3,0.6s0.4,0.3,0.7,0.5s0.6,0.3,1,0.4c0.4,0.1,0.8,0.3,1.2,0.4c0.5,0.2,1.1,0.4,1.6,0.6c0.6,0.2,1,0.5,1.5,0.9
		c0.4,0.3,0.8,0.8,1.1,1.3s0.4,1.1,0.4,1.8v0.1c0,0.9-0.1,1.6-0.4,2.2c-0.3,0.6-0.7,1.1-1.2,1.5c-0.5,0.4-1.2,0.7-1.9,0.9
		C192.8,134.8,192,134.9,191.2,134.9z"/>
</g>
</svg>
