<?xml version="1.0" encoding="utf-8"?>
<!-- Generator: Adobe Illustrator 21.1.0, SVG Export Plug-In . SVG Version: 6.00 Build 0)  -->
<!DOCTYPE svg PUBLIC "-//W3C//DTD SVG 1.1//EN" "http://www.w3.org/Graphics/SVG/1.1/DTD/svg11.dtd">
<svg version="1.1" id="Layer_1" xmlns="http://www.w3.org/2000/svg" xmlns:xlink="http://www.w3.org/1999/xlink" x="0px" y="0px"
	 viewBox="0 0 249 88" style="enable-background:new 0 0 249 88;" xml:space="preserve">
<style type="text/css">
	.st0{fill:#35A8CD;}
	.st1{fill:#231F20;}
</style>
<path class="st0" d="M79.4,60.7c0.1-6.4-2.5-12.3-6.6-16.7c2.2-2.1,3.9-4.7,5.1-7.6c0.4-0.8,0.5-1.3,0.5-1.3l0,0
	c0.3-0.8,0.5-1.6,0.7-2.4c2.3-9.9-2-19.9-10.1-25.4l0,0C68.9,7.1,68.8,7,68.7,7c-0.1-0.1-0.2-0.2-0.4-0.2l0,0
	C59.8,1.9,49,2.4,41.1,8.8c-0.6,0.5-1.3,1.1-1.8,1.7l0,0c0,0-0.4,0.4-1,1c-2.1,2.4-3.6,5.1-4.6,7.9c-5.8-1.8-12.2-1.5-17.9,1.4
	C3.9,26.8-0.8,41.2,5.3,53c5.1,10,16.3,15,26.7,12.7C34.6,76.1,44,83.9,55.2,84.1C68.4,84.4,79.3,73.8,79.4,60.7z M42.8,60.3
	c0.1,6.8,5.7,12.3,12.5,12.4c7,0.1,12.7-5.4,12.7-12.3c0-4.3-2.1-8.1-5.4-10.5c0.9-0.3,1.7-0.6,2.6-0.9c0.1,0.1,0.1,0.1,0.1,0.1l0,0
	c3.1,2.8,5.1,6.9,5.1,11.3c-0.1,8.2-6.8,14.8-15.1,14.6c-7.5-0.1-13.7-5.8-14.7-13.1C41.3,61.5,42.1,60.9,42.8,60.3z M55.4,50.9
	c5.1,0.1,9.3,4.3,9.3,9.5c0,5.1-4.3,9.2-9.4,9.1C50.1,69.4,46,65.1,46,60C46.1,54.9,50.3,50.8,55.4,50.9z M43.1,11.4
	c6.9-5.6,16.5-6,23.8-1.7c7.1,4.7,11,13.4,9,22.1c-1.4,6-5.3,10.7-10.3,13.3c0,0,0,0,0,0c-0.8,0.4-1.6,0.8-2.5,1.1
	c-0.3,0.1-3,0.9-4.9,1.2c-0.3,0-0.5,0.1-0.8,0.1c-2,0.1-4.1-0.1-6.6,0.8c0,0-0.1,0-0.1,0c-0.3,0.1-0.6,0.2-0.9,0.4
	c0.2-0.9,0.4-1.8,0.6-2.8c1.4-0.5,2.8-0.7,4.4-0.8l0.3,0c0.1,0,0.2,0,0.3,0c0,0,0.1,0,0.1,0l0,0c0.4,0,0.8,0,1.2,0l0,0l0,0
	c9.6-0.5,17.2-8.2,17.3-17.9c0.1-6.3-3.1-12-8-15.4l0,0c-0.1-0.1-0.3-0.2-0.4-0.2c-0.1-0.1-0.2-0.2-0.4-0.2l0,0
	C60.1,8.6,53.6,8.2,48,11c-8.7,4.3-12.3,14.6-8.5,23.4l0,0l0,0c0.2,0.4,0.3,0.7,0.5,1.1h0c0,0,0,0.1,0.1,0.1c0,0.1,0.1,0.2,0.1,0.2
	l0.2,0.4c3.3,7.2,0.3,15.7-6.8,19.3c-7.3,3.7-16.4,0.7-20.1-6.7c-3.8-7.3-0.9-16.3,6.5-20c4-2,8.5-2,12.4-0.4l0,0c0,0,0.1,0,0.1,0.1
	c0,0.9,0.2,1.8,0.3,2.7c-3.5-1.9-7.9-2.2-11.8-0.3c-6.2,3.1-8.6,10.6-5.5,16.8c3.2,6.2,10.8,8.7,17,5.6c4.7-2.4,7.3-7.3,6.8-12.3
	c0,0,0-0.1,0-0.1c0-0.1,0-0.1,0-0.2c0,0,0,0,0-0.1c-0.3-2.5-1.3-4.2-2.1-6c-0.1-0.2-0.2-0.5-0.3-0.7c-0.6-1.9-1-4.6-1.1-5
	c-0.1-0.9-0.1-1.8-0.1-2.7c0,0,0,0,0,0C35.9,20.8,38.4,15.2,43.1,11.4z M35,38.2c2.3,4.6,0.5,10.2-4.1,12.5S20.7,51,18.4,46.4
	c-2.3-4.6-0.5-10.2,4-12.5C27,31.7,32.7,33.6,35,38.2z M8.2,51.5C3,41.3,7,28.9,17.2,23.8c5-2.5,10.6-2.8,15.6-1.2
	c-0.2,0.8-0.3,1.6-0.4,2.5c-4.5-1.5-9.5-1.3-14,0.9c-9,4.5-12.5,15.4-7.9,24.3c4.6,9,15.6,12.6,24.6,8.1s12.5-15.4,7.9-24.3
	c-0.2-0.4-0.4-0.7-0.6-1.1c-3-7.2,0-15.6,7.1-19.2c4.8-2.4,10.2-2,14.5,0.5c4.2,2.8,6.9,7.5,6.9,12.8c-0.1,7.9-6.3,14.3-14.1,14.8
	c-0.4,0-0.8-0.1-1.2-0.1c-1.6,0-3.2,0.2-4.8,0.5c0-0.9,0-1.7-0.1-2.6c1.4-0.3,2.9-0.5,4.4-0.5c0.2,0,0.3,0,0.5,0
	c6.9,0.1,12.6-5.4,12.7-12.3c0-4.2-2-8-5.3-10.3l0,0c-0.1-0.1-0.3-0.2-0.4-0.2c-0.1-0.1-0.2-0.2-0.4-0.2l0,0
	c-3.5-1.9-7.8-2.1-11.6-0.2c-6.2,3.1-8.6,10.6-5.5,16.8c0.1,0.2,0.2,0.3,0.3,0.5c4.8,10.1,0.8,22.2-9.3,27.2
	C26,65.9,13.4,61.7,8.2,51.5z M60.9,19.4c2.5,1.7,4.1,4.6,4.1,7.8c0,4.9-4,8.9-8.9,9.1c-0.2,0-0.3,0-0.5,0c-0.2,0-0.3,0-0.5,0
	c-0.1,0-0.2,0-0.3,0c-0.3,0-0.6,0-0.9,0.1c-1.3,0.1-2.6,0.2-3.9,0.5c-0.3-1.3-0.7-2.5-1.3-3.8c-0.1-0.2-0.2-0.5-0.3-0.7
	c0-0.1-0.1-0.2-0.1-0.2c-0.1-0.2-0.2-0.3-0.2-0.5c-0.1-0.1-0.2-0.3-0.2-0.4c-2-4.5-0.2-9.8,4.3-12C55,17.8,58.3,18,60.9,19.4z
	 M55.2,80.9c-9.7-0.2-17.9-7-20-16.1c0.8-0.3,1.6-0.6,2.4-1c1.7,8.2,9,14.4,17.7,14.6c10.1,0.2,18.3-7.8,18.4-17.8c0-5-2-9.6-5.3-13
	c0.7-0.5,1.4-1,2.1-1.5c3.6,3.8,5.8,8.9,5.8,14.5C76,72,66.6,81.1,55.2,80.9z"/>
<path class="st1" d="M113.8,52.7c-0.6,1.1-1.3,2-2.3,2.7c-1,0.7-2,1.2-3.2,1.5c-1.2,0.3-2.4,0.5-3.7,0.5c-1.9,0-3.6-0.2-5-0.7
	c-1.4-0.4-2.7-0.9-3.9-1.5c-0.2,0-0.4-0.2-0.6-0.5c-0.2-0.3-0.3-0.5-0.3-0.7v-3.5c0-0.3,0.1-0.6,0.4-0.9c0.2-0.2,0.5-0.4,0.9-0.4
	c0.1,0,0.3,0.1,0.6,0.2c0.1,0.1,0.2,0.1,0.3,0.2c1,0.6,2.1,1.1,3.3,1.6c1.2,0.4,2.5,0.6,3.9,0.6c1.1,0,2.1-0.2,2.8-0.6
	c0.8-0.4,1.2-1.1,1.2-1.9c0-0.8-0.3-1.3-1-1.7c-0.7-0.4-1.7-0.8-3.2-1.2v0.1c-1.5-0.4-2.7-0.8-3.7-1.1c-1-0.3-1.9-0.8-2.7-1.4
	c-0.8-0.6-1.4-1.3-1.9-2.2c-0.5-0.9-0.7-2-0.7-3.2c0-2.6,1-4.6,2.9-6s4.3-2.1,7.1-2.1c1.2,0,2.6,0.2,3.9,0.5
	c1.4,0.3,2.7,0.9,4.1,1.6l-0.1-0.1c0.2,0.1,0.4,0.3,0.5,0.5c0.1,0.2,0.2,0.4,0.2,0.6c0,0.3-0.1,0.6-0.2,0.7l-1,2.3
	c-0.2,0.5-0.6,0.7-1.1,0.7c-0.4,0-0.7-0.1-0.8-0.2c-0.1,0-0.2-0.1-0.3-0.2c-0.8-0.3-1.6-0.6-2.4-0.8c-0.8-0.2-1.7-0.3-2.7-0.3
	c-2.5,0-3.8,0.8-3.8,2.3c0,0.6,0.4,1,1.2,1.5c0.8,0.4,2,0.8,3.6,1.1c2.8,0.7,5,1.6,6.3,2.8c1.4,1.2,2.1,3,2.1,5.4
	C114.6,50.3,114.4,51.6,113.8,52.7z"/>
<path class="st1" d="M130.6,55.7c-0.7,0.4-1.6,0.7-2.7,1.1c-1.1,0.3-2.1,0.5-3,0.5c-2.5,0-4.3-0.6-5.6-1.8c-1.2-1.2-1.8-3.2-1.8-5.9
	V36.1h-3.1c-0.8,0-1.2-0.4-1.2-1.3V32c0-0.8,0.4-1.2,1.2-1.2h3.1v-5.5c0-0.3,0.1-0.6,0.4-0.9c0.2-0.2,0.6-0.4,0.9-0.4h3.8
	c0.8,0,1.2,0.4,1.2,1.2v5.5h5c0.9,0,1.3,0.4,1.3,1.2v2.8c0,0.9-0.4,1.3-1.3,1.3h-5V49c0,1,0.1,1.7,0.4,2.1c0.2,0.4,0.7,0.6,1.4,0.6
	c0.6,0,1.2-0.1,1.9-0.3c0.7-0.2,1.1-0.4,1.5-0.6c0.4-0.2,0.7-0.3,0.9-0.3c0.3,0,0.6,0.1,0.9,0.4c0.2,0.2,0.4,0.6,0.4,0.9v3
	L130.6,55.7z"/>
<path class="st1" d="M160,54.6c-0.9,0.7-1.8,1.2-2.8,1.7c-1,0.4-2,0.6-2.9,0.6c-2,0-3.3-0.7-4.1-2.1c-0.9,0.8-1.9,1.5-3.1,2
	c-1.2,0.5-2.5,0.8-3.9,0.8c-3.4,0-5.9-0.8-7.5-2.5c-1.6-1.7-2.4-4.1-2.4-7.1V36.7c0-0.3,0-0.5-0.1-0.5c-0.3,0-0.8,0.2-1.2,0.5
	l0.1-0.1c-0.2,0.2-0.5,0.3-0.8,0.3c-0.4,0-0.8-0.2-1.1-0.6l-0.9-1.6c-0.2-0.2-0.3-0.4-0.3-0.8c0-0.5,0.2-0.8,0.6-1h-0.1
	c0.8-0.6,1.7-1.1,2.7-1.5c1-0.4,1.9-0.5,2.7-0.5c1.7,0,3,0.5,3.8,1.4c0.8,1,1.2,2.2,1.2,3.6v10.8c0,1.5,0.3,2.7,0.9,3.6
	c0.6,0.9,1.5,1.3,2.8,1.3c2,0,3.4-0.8,4.4-2.3c1-1.5,1.4-3.5,1.4-5.8V32.2c0-0.8,0.4-1.2,1.3-1.2h3.8c0.9,0,1.3,0.4,1.3,1.2v19.2
	c0.2,0,0.5-0.1,1-0.4c0,0,0.1-0.1,0.1-0.1c0,0,0.1,0,0.2-0.1l0.1-0.1c0.3-0.1,0.5-0.2,0.7-0.2c0.4,0,0.8,0.2,1.1,0.6l1.3,2L160,54.6
	z"/>
<path class="st1" d="M188.3,54.5c-0.9,0.7-1.8,1.3-2.8,1.7c-1,0.4-1.9,0.6-2.8,0.6c-2.1,0-3.5-0.7-4.3-2.1c-1,0.9-2.2,1.5-3.5,2
	c-1.3,0.5-2.7,0.7-4,0.7c-3.9,0-6.9-1.3-9-3.8c-2.1-2.5-3.1-5.9-3.1-10c0-2,0.3-3.8,0.8-5.5c0.6-1.7,1.3-3.1,2.4-4.4
	c1-1.2,2.3-2.2,3.7-2.9c1.5-0.7,3.1-1,4.9-1c2.9,0,5.3,0.7,7.2,2.2V21.5c0-0.5-0.1-0.7-0.2-0.7c-0.3,0-0.7,0.2-1.2,0.5l0.1-0.1
	c-0.2,0.2-0.5,0.3-0.9,0.3c-0.5,0-0.8-0.1-1-0.4l-1.2-2.1l0.1,0.2c-0.2-0.2-0.3-0.4-0.3-0.8c0-0.4,0.2-0.8,0.6-1h-0.1
	c0.8-0.6,1.7-1.1,2.7-1.5c1-0.4,1.9-0.6,2.7-0.6c1.7,0,3,0.5,3.8,1.5c0.8,1,1.2,2.2,1.2,3.8v30.1c0,0.4,0,0.6,0.1,0.6
	c0.1,0,0.3,0,0.4-0.1c0.2-0.1,0.4-0.2,0.8-0.4h0.1c0.2-0.2,0.4-0.3,0.7-0.3c0.4,0,0.8,0.2,1.1,0.6l1.3,2.1L188.3,54.5z M175.9,38
	c-1.2-1.6-2.8-2.3-4.7-2.3c-1.9,0-3.3,0.8-4.3,2.3c-1,1.5-1.5,3.4-1.5,5.8c0,2.3,0.5,4.2,1.4,5.8c0.9,1.5,2.4,2.3,4.3,2.3
	c2,0,3.6-0.8,4.8-2.3c1.2-1.6,1.8-3.5,1.8-5.7C177.7,41.5,177.1,39.6,175.9,38z"/>
<path class="st1" d="M193.7,46.6c0.3,1.5,1,2.7,2.1,3.8c1.1,1,2.5,1.5,4.4,1.5c1.4,0,2.6-0.2,3.7-0.5c1.1-0.3,2.1-0.7,3.1-1.2
	c0.2-0.1,0.4-0.2,0.6-0.2c0.3,0,0.6,0.1,0.9,0.4c0.2,0.2,0.4,0.6,0.4,0.9v3.2c0,0.5-0.2,0.9-0.7,1.1c-1.1,0.6-2.3,1-3.6,1.3
	c-1.3,0.3-2.9,0.5-4.9,0.5c-4.1,0-7.3-1.3-9.5-3.8c-2.2-2.5-3.3-5.8-3.3-9.7c0-4.1,1.1-7.3,3.4-9.8c2.2-2.5,5.2-3.7,9-3.7
	c3.7,0,6.5,1.1,8.5,3.4c2,2.3,3,5.5,3,9.8v1.7c0,0.9-0.4,1.3-1.3,1.3H193.7z M195.6,37.1c-0.9,0.9-1.5,2.3-1.8,4h10.1
	c-0.2-1.7-0.7-3.1-1.5-4c-0.8-0.9-1.9-1.4-3.4-1.4C197.6,35.8,196.4,36.2,195.6,37.1z"/>
<path class="st1" d="M217.7,46.6c0.3,1.5,1,2.7,2.1,3.8c1.1,1,2.5,1.5,4.4,1.5c1.4,0,2.6-0.2,3.7-0.5c1.1-0.3,2.1-0.7,3.1-1.2
	c0.2-0.1,0.4-0.2,0.6-0.2c0.3,0,0.6,0.1,0.9,0.4c0.2,0.2,0.4,0.6,0.4,0.9v3.2c0,0.5-0.2,0.9-0.7,1.1c-1.1,0.6-2.3,1-3.6,1.3
	c-1.3,0.3-2.9,0.5-4.9,0.5c-4.1,0-7.3-1.3-9.5-3.8c-2.2-2.5-3.3-5.8-3.3-9.7c0-4.1,1.1-7.3,3.4-9.8c2.2-2.5,5.2-3.7,9-3.7
	c3.7,0,6.5,1.1,8.5,3.4c2,2.3,3,5.5,3,9.8v1.7c0,0.9-0.4,1.3-1.3,1.3H217.7z M219.5,37.1c-0.9,0.9-1.5,2.3-1.8,4h10.1
	c-0.2-1.7-0.7-3.1-1.5-4c-0.8-0.9-1.9-1.4-3.4-1.4C221.6,35.8,220.4,36.2,219.5,37.1z"/>
<path class="st1" d="M243.6,56.2c-0.8,0.8-1.7,1.1-2.7,1.1c-1,0-1.9-0.4-2.7-1.1c-0.8-0.8-1.2-1.7-1.2-2.8c0-1,0.4-1.9,1.1-2.7
	c0.8-0.8,1.7-1.2,2.8-1.2c1.1,0,2,0.4,2.8,1.2c0.8,0.8,1.1,1.7,1.1,2.7C244.8,54.5,244.4,55.5,243.6,56.2z"/>
</svg>
