<svg width="91" height="93" viewBox="0 0 91 93" xmlns="http://www.w3.org/2000/svg" xmlns:xlink="http://www.w3.org/1999/xlink"><title>Page 1 Copy 3</title><defs><path id="a" d="M91 92.123H0V.876h91v91.247z"/><path id="c" d="M0 92.124h91V.877H0z"/></defs><g fill="none" fill-rule="evenodd"><path d="M14.74 34.422c.12-.335.232-.67.357-.994l.393-.953c.25-.634.561-1.216.822-1.801.299-.566.572-1.12.866-1.637a41.29 41.29 0 0 1 1.725-2.752l.792-1.105.717-.902c.427-.551.805-.95 1.044-1.24l.376-.434-.415.398-.498.478-.316.306c-.104.115-.217.237-.335.365-.236.259-.5.545-.786.857-.268.326-.562.678-.874 1.056-.314.374-.61.804-.945 1.24-.334.438-.63.938-.971 1.438-.325.508-.633 1.06-.965 1.622-.152.29-.304.583-.457.882-.157.299-.314.605-.451.923-.602 1.253-1.118 2.63-1.582 4.075-.427 1.456-.805 2.986-1.043 4.566a36.587 36.587 0 0 0-.369 4.824 36.76 36.76 0 0 0 .37 4.825c.238 1.58.616 3.108 1.043 4.565.463 1.446.98 2.822 1.581 4.076.14.317.295.622.452.921l.458.884c.333.562.64 1.114.967 1.621.339.501.634 1 .97 1.437.332.438.63.867.945 1.243.311.378.604.73.875 1.057.286.31.548.597.786.858.118.128.23.252.336.365l.314.305c.196.188.363.347.498.48l.413.396-.374-.435c-.239-.287-.621-.688-1.046-1.24l-.717-.9c-.243-.342-.51-.71-.792-1.104a41.889 41.889 0 0 1-1.725-2.752c-.294-.515-.57-1.069-.867-1.636-.26-.587-.572-1.168-.821-1.801-.132-.312-.262-.632-.394-.955-.127-.322-.238-.658-.36-.994-.25-.666-.442-1.37-.667-2.072a38.348 38.348 0 0 1-.933-4.457 35.885 35.885 0 0 1-.326-4.687 36.05 36.05 0 0 1 .326-4.685c.23-1.534.541-3.03.934-4.458.224-.7.418-1.403.669-2.07zm55.34-9.215a149.049 149.049 0 0 0-.91-.877l.373.435c.239.287.621.688 1.046 1.24.217.27.457.572.719.9l.79 1.103c.549.799 1.132 1.72 1.725 2.75.295.517.57 1.071.868 1.637.26.586.573 1.169.822 1.802l.392.955c.127.324.239.658.36.993.253.666.442 1.37.668 2.073.392 1.426.705 2.924.933 4.458.208 1.537.32 3.111.325 4.684a36.203 36.203 0 0 1-.326 4.687 38.114 38.114 0 0 1-.934 4.456c-.224.704-.416 1.407-.669 2.073-.119.335-.232.67-.357.994-.134.322-.263.64-.394.953-.25.634-.56 1.216-.821 1.801-.299.566-.573 1.12-.868 1.637a41.161 41.161 0 0 1-1.725 2.751c-.28.395-.546.763-.791 1.106l-.718.9c-.427.553-.804.95-1.045 1.24a65.39 65.39 0 0 1-.375.435s.146-.138.415-.399l.498-.477.315-.307.336-.365.786-.856c.268-.326.562-.68.876-1.057.313-.375.609-.804.944-1.242.333-.438.63-.936.97-1.438.327-.508.634-1.059.966-1.622.152-.29.305-.584.457-.882.158-.298.314-.604.45-.922.603-1.255 1.119-2.632 1.584-4.077.426-1.457.804-2.985 1.043-4.564.224-1.582.354-3.202.369-4.826a36.91 36.91 0 0 0-.37-4.824c-.238-1.58-.617-3.108-1.045-4.564-.463-1.446-.978-2.823-1.581-4.076a13.82 13.82 0 0 0-.451-.922l-.458-.883c-.332-.562-.641-1.113-.967-1.622-.339-.5-.635-1-.969-1.437-.335-.437-.633-.866-.947-1.242-.31-.378-.603-.73-.873-1.056-.288-.31-.55-.599-.787-.857a75.481 75.481 0 0 0-.336-.365c-.11-.11-.215-.21-.313-.304" fill="#3D3D3D"/><mask id="b" fill="#fff"><use xlink:href="#a"/></mask><path d="M84.697 17.508a3.597 3.597 0 0 1 0 5.073l-3.377 3.387a41.229 41.229 0 0 0-6.645-8.72 41.156 41.156 0 0 0-8.698-6.663L69.355 7.2a3.575 3.575 0 0 1 5.058 0l10.284 10.31zM71.653 72.721c-14.42 14.46-37.883 14.46-52.302 0-14.42-14.46-14.42-37.986 0-52.444 14.42-14.458 37.882-14.458 52.302 0 14.42 14.46 14.42 37.985 0 52.444zM21.648 85.802a3.575 3.575 0 0 1-5.06 0L6.305 75.49a3.597 3.597 0 0 1 0-5.072l3.377-3.386a41.3 41.3 0 0 0 6.646 8.719 41.155 41.155 0 0 0 8.697 6.664l-3.377 3.387zM65.636 3.468l-4.668 4.68c-14.888-6.012-32.593-2.98-44.64 9.1C4.28 29.329 1.256 47.08 7.253 62.01l-4.669 4.68c-3.445 3.456-3.446 9.077 0 12.532l10.283 10.31c3.446 3.456 9.053 3.456 12.498 0l4.668-4.68c14.888 6.012 32.592 2.979 44.64-9.1 12.046-12.08 15.072-29.832 9.075-44.761l4.668-4.68c3.445-3.456 3.445-9.078 0-12.532L78.134 3.468c-3.446-3.456-9.052-3.455-12.498 0z" fill="#505050" mask="url(#b)"/><path d="M31.69 41.386l-.676-7.234h-1.178v7.838l1.854-.604zm2.804 6.767H31.82l-1.985-3.72v3.72h-2.29V31.878h5.54l1.026 11.09-2.021.683 2.403 4.502z" fill="#3D3D3D"/><mask id="d" fill="#fff"><use xlink:href="#c"/></mask><path d="M35.486 48.152h2.291V37.018h-2.29v11.134zm0-13.32h2.291v-2.954h-2.29v2.953zm8.574 7.293v-7.972h-1.62l-.67 7.247 2.29.725zm2.29 6.027h-7.002v-2.275h4.712v-1.455l-4.712-1.454 1.047-11.09h5.956v16.274zm8.727-11.09v11.09h-2.182v-9.496l-2.508-.749V48.13l-2.291.022V31.878h2.29v3.74zm8.377 11.068l-6.566.022V31.878h2.29v3.806l4.276-1.312v2.264l-4.276 1.335v7.884h1.985V42.44l2.29-.85zM33.763 65.884l-6.218-.021v-4.987l2.291-.766v3.5h1.636v-4.025l-3.927-2.166v-7.765l6.218.022v4.9l-2.29.743V51.95h-1.637v4.062l3.927 2.29zm5.716-6.759l-.669-7.24h-1.185v7.83l1.854-.59zm2.42 1.575l-4.274 1.444v3.74h-2.291V49.61h5.52L41.9 60.7zm1.223 5.184h2.29V54.751h-2.29v11.133zm0-13.32h2.29V49.61h-2.29v2.953zm10.275 13.32l-6.566-.021V49.654h6.566v6.562h-2.29v-4.287H49.12v11.68h4.276zm5.976-6.774l-.691-7.225h-1.599v7.95l2.29-.726zm2.423 1.59l-4.713 1.444v1.465h4.713v2.275h-7.003V49.61h5.956l1.047 11.09zM41.02 27.454v2.865h-.227v-2.865h-1.067v-.206h2.362v.206z" fill="#3D3D3D" mask="url(#d)"/><path stroke="#FEFEFE" stroke-width=".3" mask="url(#d)" d="M41.02 27.454v2.865h-.227v-2.865h-1.067v-.206h2.362v.206z"/><path fill="#3D3D3D" mask="url(#d)" d="M46.28 30.319v-1.44h-1.96v1.44h-.228v-3.071h.228v1.426h1.96v-1.426h.228v3.07z"/><path stroke="#FEFEFE" stroke-width=".3" mask="url(#d)" d="M46.28 30.319v-1.44h-1.96v1.44h-.228v-3.071h.228v1.426h1.96v-1.426h.228v3.07z"/><path fill="#3D3D3D" mask="url(#d)" d="M48.73 30.319v-3.071h2.178v.206h-1.95v1.215h1.754v.206h-1.754v1.238h1.973v.206z"/><path stroke="#FEFEFE" stroke-width=".3" mask="url(#d)" d="M48.73 30.319v-3.071h2.178v.206h-1.95v1.215h1.754v.206h-1.754v1.238h1.973v.206z"/></g></svg>