<?xml version="1.0" encoding="UTF-8"?>
<svg width="91px" height="93px" viewBox="0 0 91 93" version="1.1" xmlns="http://www.w3.org/2000/svg" xmlns:xlink="http://www.w3.org/1999/xlink">
    <!-- Generator: Sketch 46.2 (44496) - http://www.bohemiancoding.com/sketch -->
    <title>Page 1 Copy 3</title>
    <desc>Created with Sketch.</desc>
    <defs>
        <polygon id="path-1" points="90.9994312 92.1226415 0 92.1226415 0 0.876481132 90.9994312 0.876481132 90.9994312 92.1226415"></polygon>
        <polygon id="path-3" points="0 92.1235189 91 92.1235189 91 0.877358491 0 0.877358491"></polygon>
    </defs>
    <g id="Web-Designs" stroke="none" stroke-width="1" fill="none" fill-rule="evenodd">
        <g id="Desktop-HD-Copy" transform="translate(-658.000000, -1043.000000)">
            <g id="Group-4" transform="translate(179.000000, 1043.000000)">
                <g id="Page-1-Copy-3" transform="translate(479.000000, 0.000000)">
                    <path d="M14.7398125,34.4215811 C14.8605625,34.0873075 14.9716875,33.7521566 15.0968125,33.4284113 C15.2298125,33.1055434 15.3610625,32.7870623 15.4896875,32.4747226 C15.7408125,31.8412698 16.0514375,31.2587038 16.3121875,30.6735057 C16.6105625,30.1076094 16.8835625,29.5539962 17.1784375,29.0372321 C17.7708125,28.0080906 18.3544375,27.0842321 18.9030625,26.2849585 C19.1848125,25.8910245 19.4490625,25.522534 19.6949375,25.1803642 C19.9548125,24.8522321 20.1954375,24.5512981 20.4124375,24.2784396 C20.8394375,23.7265811 21.2165625,23.3282604 21.4563125,23.0387321 C21.7004375,22.7562226 21.8316875,22.6044396 21.8316875,22.6044396 C21.8316875,22.6044396 21.6873125,22.7421849 21.4169375,23.001883 C21.2813125,23.1326094 21.1150625,23.290534 20.9190625,23.4800434 C20.8210625,23.5747981 20.7160625,23.6765717 20.6031875,23.7862415 C20.4990625,23.9011755 20.3861875,24.0231283 20.2680625,24.1512226 C20.0318125,24.4100434 19.7684375,24.6960623 19.4823125,25.0075245 C19.2136875,25.3339019 18.9196875,25.6857226 18.6081875,26.0638642 C18.2940625,26.4384962 17.9974375,26.8675245 17.6631875,27.3044491 C17.3289375,27.7422509 17.0331875,28.2423453 16.6919375,28.7415623 C16.3673125,29.2504302 16.0593125,29.8014113 15.7268125,30.3637981 C15.5754375,30.6533264 15.4231875,30.9472415 15.2700625,31.2464208 C15.1125625,31.5447226 14.9559375,31.8509208 14.8185625,32.1694019 C14.2165625,33.4222698 13.7011875,34.7988453 13.2374375,36.2438547 C12.8104375,37.7002698 12.4315625,39.230383 12.1944375,40.8096283 C11.9686875,42.3906283 11.8400625,44.0102321 11.8251875,45.6342226 C11.8418125,47.2573358 11.9686875,48.8769396 12.1953125,50.458817 C12.4333125,52.0389396 12.8113125,53.5672981 13.2383125,55.0237132 C13.7011875,56.4696 14.2174375,57.8461755 14.8194375,59.0999208 C14.9585625,59.4166472 15.1143125,59.7219679 15.2709375,60.0211472 C15.4258125,60.3212038 15.5789375,60.6159962 15.7294375,60.9046472 C16.0619375,61.467034 16.3699375,62.0188925 16.6963125,62.5260057 C17.0349375,63.0269774 17.3298125,63.5261943 17.6658125,63.9631189 C17.9983125,64.4009208 18.2966875,64.8299491 18.6108125,65.2063358 C18.9223125,65.5836 19.2145625,65.9362981 19.4858125,66.2626755 C19.7719375,66.5732604 20.0335625,66.8601566 20.2715625,67.1207321 C20.3896875,67.2488264 20.5025625,67.372534 20.6084375,67.4857132 C20.7204375,67.5945057 20.8245625,67.6962792 20.9216875,67.791034 C21.1176875,67.9787887 21.2848125,68.1384679 21.4195625,68.2700717 C21.6899375,68.5288925 21.8334375,68.6666377 21.8334375,68.6666377 C21.8334375,68.6666377 21.7021875,68.5148547 21.4589375,68.2323453 C21.2200625,67.9445717 20.8376875,67.5436189 20.4133125,66.9917604 C20.1963125,66.7197792 19.9565625,66.4188453 19.6958125,66.0915906 C19.4525625,65.7502981 19.1865625,65.3818075 18.9039375,64.9878736 C18.3570625,64.1894774 17.7725625,63.2664962 17.1793125,62.2364774 C16.8853125,61.7205906 16.6096875,61.1669774 16.3121875,60.6002038 C16.0523125,60.0132509 15.7399375,59.4315623 15.4905625,58.7989868 C15.3593125,58.4866472 15.2289375,58.1672887 15.0968125,57.8444208 C14.9699375,57.5215528 14.8588125,57.1864019 14.7371875,56.8503736 C14.4860625,56.1844585 14.2953125,55.480817 14.0695625,54.7780528 C13.6784375,53.3514679 13.3660625,51.8546943 13.1368125,50.3210717 C12.9276875,48.784817 12.8174375,47.2099585 12.8113125,45.6342226 C12.8174375,44.0593642 12.9285625,42.4862604 13.1368125,40.9491283 C13.3669375,39.4146283 13.6784375,37.9187321 14.0713125,36.4912698 C14.2953125,35.7911377 14.4886875,35.0883736 14.7398125,34.4215811 L14.7398125,34.4215811 Z" id="Fill-1" fill="#3D3D3D"></path>
                    <path d="M70.08015,25.2069481 C69.88415,25.0174387 69.718775,24.8577594 69.58315,24.7279104 C69.31365,24.4690896 69.169275,24.3295896 69.169275,24.3295896 C69.169275,24.3295896 69.29965,24.4813726 69.5429,24.7647594 C69.781775,25.0516557 70.16415,25.4534858 70.5894,26.004467 C70.805525,26.2755708 71.04615,26.5765047 71.307775,26.9055142 C71.551025,27.2459292 71.817025,27.6144198 72.0979,28.0083538 C72.646525,28.80675 73.23015,29.7288538 73.8234,30.7588726 C74.118275,31.2747594 74.3939,31.82925 74.690525,32.3951462 C74.951275,32.9812217 75.26365,33.5637877 75.513025,34.1972406 C75.64165,34.5104575 75.7729,34.8289387 75.905025,35.1518066 C76.0319,35.4755519 76.1439,35.8098255 76.26465,36.1449764 C76.517525,36.8108915 76.7074,37.514533 76.93315,38.2181745 C77.32515,39.6438821 77.637525,41.141533 77.8659,42.676033 C78.07415,44.2131651 78.18615,45.7871462 78.1914,47.36025 C78.1844,48.9359858 78.073275,50.509967 77.865025,52.0470991 C77.635775,53.5807217 77.3234,55.0774953 76.9314,56.5032028 C76.7074,57.2068443 76.5149,57.9104858 76.262025,58.5764009 C76.143025,58.9106745 76.03015,59.2458255 75.905025,59.5695708 C75.77115,59.8924387 75.64165,60.2109198 75.511275,60.5232594 C75.26015,61.1567123 74.951275,61.7392783 74.68965,62.3244764 C74.391275,62.8903726 74.1174,63.4439858 73.82165,63.96075 C73.2284,64.9898915 72.64565,65.9146274 72.097025,66.7121462 C71.81615,67.1069575 71.551025,67.4754481 71.306025,67.8176179 C71.0444,68.1448726 70.805525,68.4458066 70.58765,68.7186651 C70.16065,69.2705236 69.783525,69.667967 69.5429,69.9583726 C69.29965,70.2417594 69.167525,70.3926651 69.167525,70.3926651 C69.167525,70.3926651 69.31365,70.2549198 69.58315,69.9943443 C69.718775,69.8644953 69.88415,69.7056934 70.081025,69.5170613 C70.179025,69.4205519 70.284025,69.3196557 70.396025,69.2099858 C70.5019,69.0950519 70.6139,68.9722217 70.732025,68.8450047 C70.970025,68.586184 71.23165,68.2992877 71.517775,67.9887028 C71.7864,67.6632028 72.079525,67.30875 72.39365,66.9323632 C72.7069,66.5568538 73.00265,66.1278255 73.337775,65.6900236 C73.67115,65.2522217 73.967775,64.7538821 74.30815,64.252033 C74.634525,63.7440425 74.94165,63.1930613 75.27415,62.6297972 C75.425525,62.3402689 75.57865,62.0463538 75.7309,61.7480519 C75.889275,61.44975 76.045025,61.1435519 76.181525,60.8259481 C76.7844,59.5713255 77.299775,58.1938726 77.765275,56.7488632 C78.1914,55.2924481 78.5694,53.7640896 78.808275,52.1848443 C79.032275,50.602967 79.161775,48.9833632 79.17665,47.3593726 C79.160025,45.7362594 79.03315,44.1166557 78.8074,42.5347783 C78.568525,40.9546557 78.18965,39.4271745 77.761775,37.9707594 C77.2989,36.5248726 76.783525,35.1482972 76.18065,33.8945519 C76.043275,33.5760708 75.885775,33.2716274 75.730025,32.9733255 C75.57515,32.6732689 75.422025,32.3784764 75.271525,32.0898255 C74.9399,31.528316 74.631025,30.9773349 74.30465,30.468467 C73.966025,29.9683726 73.670275,29.4682783 73.336025,29.0313538 C73.0009,28.5944292 72.7034,28.1654009 72.389275,27.7890142 C72.07865,27.4108726 71.7864,27.0590519 71.516025,26.7326745 C71.22815,26.422967 70.966525,26.134316 70.7294,25.8763726 C70.611275,25.7474009 70.4984,25.6245708 70.392525,25.5105142 C70.282275,25.4017217 70.17815,25.3008255 70.08015,25.2069481" id="Fill-3" fill="#3D3D3D"></path>
                    <g id="Group-7" transform="translate(0.000000, 0.000877)">
                        <mask id="mask-2" fill="white">
                            <use xlink:href="#path-1"></use>
                        </mask>
                        <g id="Clip-6"></g>
                        <path d="M84.697025,17.5084783 C86.09265,18.9078651 86.09265,21.183733 84.697025,22.5813651 L81.319525,25.9679689 C79.541525,22.8472047 77.32865,19.9089311 74.674775,17.2487802 C72.0209,14.5877519 69.090525,12.3680349 65.977275,10.5852425 L69.354775,7.19863868 C70.74865,5.8010066 73.019275,5.8010066 74.41315,7.19863868 L84.697025,17.5084783 Z M71.652525,72.7206481 C57.232525,87.1812708 33.770275,87.1812708 19.35115,72.7206481 C4.930275,58.2617802 4.93115,34.7354123 19.35115,20.2774217 C33.770275,5.81855377 57.2334,5.81855377 71.652525,20.2774217 C86.0734,34.7362896 86.0734,58.2617802 71.652525,72.7206481 L71.652525,72.7206481 Z M21.648025,85.8020632 C20.2524,87.20145 17.98265,87.2005726 16.5879,85.8020632 L6.3049,75.4904689 C4.911025,74.0910821 4.909275,71.8160915 6.3049,70.4184594 L9.6824,67.0318557 C11.4604,70.1508651 13.67415,73.090016 16.328025,75.7510443 C18.9819,78.41295 21.9114,80.6317896 25.02465,82.4154594 L21.648025,85.8020632 Z M65.636025,3.46811038 L60.9679,8.14881792 C46.079775,2.13628019 28.375025,5.16843113 16.328025,17.2487802 C4.28015,29.3273745 1.25615,47.0798462 7.252525,62.0089783 L2.5844,66.6896858 C-0.86135,70.1447236 -0.862225,75.7659594 2.5844,79.2209972 L12.8674,89.5317142 C16.31315,92.9867519 21.92015,92.9867519 25.365025,89.5317142 L30.03315,84.8510066 C44.921275,90.862667 62.62515,87.8296387 74.67215,75.750167 C86.71915,63.6715726 89.7449,45.9191009 83.74765,30.9899689 L88.415775,26.3092613 C91.86065,22.8542236 91.86065,17.2321104 88.415775,13.77795 L78.13365,3.46723302 C74.6879,0.012195283 69.081775,0.0130726415 65.636025,3.46811038 L65.636025,3.46811038 Z" id="Fill-5" fill="#505050" mask="url(#mask-2)"></path>
                    </g>
                    <path d="M31.690225,41.386316 L31.01385,34.1524953 L29.8361,34.1524953 L29.8361,41.9899387 L31.690225,41.386316 Z M34.493725,48.1525047 L31.821475,48.1525047 L29.8361,44.4333821 L29.8361,48.1525047 L27.546225,48.1525047 L27.546225,31.8775047 L33.086725,31.8775047 L34.112225,42.9681934 L32.090975,43.6507783 L34.493725,48.1525047 Z" id="Fill-8" fill="#3D3D3D"></path>
                    <mask id="mask-4" fill="white">
                        <use xlink:href="#path-3"></use>
                    </mask>
                    <g id="Clip-11"></g>
                    <path d="M35.4865,48.152066 L37.77725,48.152066 L37.77725,37.0183868 L35.4865,37.0183868 L35.4865,48.152066 Z M35.4865,34.8311321 L37.77725,34.8311321 L37.77725,31.8779434 L35.4865,31.8779434 L35.4865,34.8311321 Z" id="Fill-10" fill="#3D3D3D" mask="url(#mask-4)"></path>
                    <path d="M44.0600125,42.1245255 L44.0600125,34.1528462 L42.4395125,34.1528462 L41.7692625,41.3998274 L44.0600125,42.1245255 Z M46.3507625,48.1519783 L39.3481375,48.1519783 L39.3481375,45.8769877 L44.0600125,45.8769877 L44.0600125,44.4223274 L39.3481375,42.967667 L40.3946375,31.8778557 L46.3507625,31.8778557 L46.3507625,48.1519783 Z" id="Fill-12" fill="#3D3D3D" mask="url(#mask-4)"></path>
                    <polygon id="Fill-13" fill="#3D3D3D" mask="url(#mask-4)" points="55.0767 37.0620792 55.0767 48.1518906 52.895325 48.1518906 52.895325 38.6562396 50.3867 37.9069755 50.3867 48.1299566 48.09595 48.1518906 48.09595 31.8777679 50.3867 31.8777679 50.3867 35.6188245"></polygon>
                    <polygon id="Fill-14" fill="#3D3D3D" mask="url(#mask-4)" points="63.453775 48.1303953 56.887775 48.1523292 56.887775 31.8782066 59.17765 31.8782066 59.17765 35.6841877 63.453775 34.3716594 63.453775 36.6361217 59.17765 37.9714613 59.17765 45.8554047 61.163025 45.8554047 61.163025 42.4389708 63.453775 41.5896877"></polygon>
                    <polygon id="Fill-15" fill="#3D3D3D" mask="url(#mask-4)" points="33.7631875 65.8844462 27.5454375 65.8625123 27.5454375 60.8756066 29.8361875 60.1096726 29.8361875 63.6094557 31.4724375 63.6094557 31.4724375 59.5850123 27.5454375 57.4188142 27.5454375 49.6541915 33.7631875 49.6761255 33.7631875 54.5752953 31.4724375 55.3192953 31.4724375 51.9502387 29.8361875 51.9502387 29.8361875 56.0115311 33.7631875 58.3023142"></polygon>
                    <path d="M39.478775,59.1253642 L38.810275,51.8854019 L37.62465,51.8854019 L37.62465,59.7158264 L39.478775,59.1253642 Z M41.8999,60.7002226 L37.62465,62.1443547 L37.62465,65.884534 L35.3339,65.884534 L35.3339,49.6104113 L40.8534,49.6104113 L41.8999,60.7002226 Z" id="Fill-16" fill="#3D3D3D" mask="url(#mask-4)"></path>
                    <path d="M43.12175,65.8843585 L45.4125,65.8843585 L45.4125,54.7506792 L43.12175,54.7506792 L43.12175,65.8843585 Z M43.12175,52.5634245 L45.4125,52.5634245 L45.4125,49.6102358 L43.12175,49.6102358 L43.12175,52.5634245 Z" id="Fill-17" fill="#3D3D3D" mask="url(#mask-4)"></path>
                    <polygon id="Fill-18" fill="#3D3D3D" mask="url(#mask-4)" points="53.396875 65.8844462 46.830875 65.8625123 46.830875 49.6541915 53.396875 49.6541915 53.396875 56.2159557 51.106125 56.2159557 51.106125 51.9291821 49.12075 51.9291821 49.12075 63.6094557 53.396875 63.6094557"></polygon>
                    <path d="M59.3732125,59.109484 L58.6819625,51.8853142 L57.0833375,51.8853142 L57.0833375,59.8341821 L59.3732125,59.109484 Z M61.7960875,60.7001349 L57.0833375,62.144267 L57.0833375,63.6094557 L61.7960875,63.6094557 L61.7960875,65.8844462 L54.7934625,65.8844462 L54.7934625,49.6103236 L60.7487125,49.6103236 L61.7960875,60.7001349 Z" id="Fill-19" fill="#3D3D3D" mask="url(#mask-4)"></path>
                    <polygon id="Fill-20" fill="#3D3D3D" mask="url(#mask-4)" points="41.020875 27.4539509 41.020875 30.3185264 40.793375 30.3185264 40.793375 27.4539509 39.725875 27.4539509 39.725875 27.2477717 42.088375 27.2477717 42.088375 27.4539509"></polygon>
                    <polygon id="Stroke-21" stroke="#FEFEFE" stroke-width="0.3" mask="url(#mask-4)" points="41.020875 27.4539509 41.020875 30.3185264 40.793375 30.3185264 40.793375 27.4539509 39.725875 27.4539509 39.725875 27.2477717 42.088375 27.2477717 42.088375 27.4539509"></polygon>
                    <polygon id="Fill-22" fill="#3D3D3D" mask="url(#mask-4)" points="46.27945 30.3187019 46.27945 28.879834 44.320325 28.879834 44.320325 30.3187019 44.09195 30.3187019 44.09195 27.2479472 44.320325 27.2479472 44.320325 28.6736547 46.27945 28.6736547 46.27945 27.2479472 46.507825 27.2479472 46.507825 30.3187019"></polygon>
                    <polygon id="Stroke-23" stroke="#FEFEFE" stroke-width="0.3" mask="url(#mask-4)" points="46.27945 30.3187019 46.27945 28.879834 44.320325 28.879834 44.320325 30.3187019 44.09195 30.3187019 44.09195 27.2479472 44.320325 27.2479472 44.320325 28.6736547 46.27945 28.6736547 46.27945 27.2479472 46.507825 27.2479472 46.507825 30.3187019"></polygon>
                    <polygon id="Fill-24" fill="#3D3D3D" mask="url(#mask-4)" points="48.729275 30.3187019 48.729275 27.2479472 50.908025 27.2479472 50.908025 27.4541264 48.95765 27.4541264 48.95765 28.6692679 50.712025 28.6692679 50.712025 28.8754472 48.95765 28.8754472 48.95765 30.1125226 50.930775 30.1125226 50.930775 30.3187019"></polygon>
                    <polygon id="Stroke-25" stroke="#FEFEFE" stroke-width="0.3" mask="url(#mask-4)" points="48.729275 30.3187019 48.729275 27.2479472 50.908025 27.2479472 50.908025 27.4541264 48.95765 27.4541264 48.95765 28.6692679 50.712025 28.6692679 50.712025 28.8754472 48.95765 28.8754472 48.95765 30.1125226 50.930775 30.1125226 50.930775 30.3187019"></polygon>
                </g>
            </g>
        </g>
    </g>
</svg>