<?xml version="1.0" encoding="utf-8"?>
<!-- Generator: Adobe Illustrator 21.1.0, SVG Export Plug-In . SVG Version: 6.00 Build 0)  -->
<!DOCTYPE svg PUBLIC "-//W3C//DTD SVG 1.1//EN" "http://www.w3.org/Graphics/SVG/1.1/DTD/svg11.dtd">
<svg version="1.1" id="Layer_1" xmlns="http://www.w3.org/2000/svg" xmlns:xlink="http://www.w3.org/1999/xlink" x="0px" y="0px"
	 viewBox="0 0 263 102" style="enable-background:new 0 0 263 102;" xml:space="preserve">
<style type="text/css">
	.st0{fill:#EE4036;}
	.st1{fill:#231F20;}
	.st2{fill:#FFFFFF;}
</style>
<g>
	<path class="st0" d="M100.6,62.8V37.7h5.8v9.2c1.5-1.8,3.6-2.7,6.3-2.7c2,0,3.5,0.5,4.5,1.5c1,1,1.5,2.4,1.5,4.2v13h-5.8V52.3
		c0-2-1-2.9-3-2.9c-1.4,0-2.6,0.6-3.5,1.8v11.7H100.6z"/>
	<path class="st0" d="M119.8,57.3c0-2,0.6-3.5,1.9-4.5c1.3-1,2.7-1.4,4.4-1.4c2.6,0,4.5,0.7,5.6,2.1v-1.7c0-0.8-0.3-1.4-1-1.8
		c-0.6-0.5-1.5-0.7-2.7-0.7c-1.9,0-3.6,0.6-5.1,1.7l-2.2-3.9c2.2-2,5-3,8.3-3c1.1,0,2.2,0.1,3.2,0.4c1,0.2,1.9,0.6,2.7,1.1
		c0.8,0.5,1.5,1.3,1.9,2.3c0.5,1,0.7,2.1,0.7,3.5v11.4h-5.8V61c-0.6,0.7-1.4,1.2-2.4,1.6c-1,0.4-2.1,0.6-3.2,0.6
		c-1.6,0-3-0.5-4.3-1.6C120.5,60.7,119.8,59.2,119.8,57.3z M126.5,55.8c-0.6,0.4-0.8,0.9-0.8,1.6c0,0.7,0.3,1.2,0.8,1.6
		c0.6,0.4,1.2,0.6,2,0.6c1.6,0,2.6-0.4,3.2-1.3v-1.6c-0.6-0.9-1.7-1.3-3.2-1.3C127.7,55.3,127,55.4,126.5,55.8z"/>
	<path class="st0" d="M139.9,69.8V44.7h5.8v2.1c1.4-1.7,3.2-2.6,5.3-2.6c2.3,0,4.3,0.8,5.7,2.5c1.5,1.7,2.2,4,2.2,7
		c0,3-0.7,5.4-2.2,7.1c-1.5,1.7-3.4,2.5-5.7,2.5c-2.1,0-3.9-0.9-5.4-2.6v9.1H139.9z M145.7,56.5c0.4,0.5,0.9,0.9,1.5,1.2
		c0.7,0.3,1.3,0.5,1.9,0.5c1.2,0,2.1-0.4,2.9-1.2c0.8-0.8,1.1-1.9,1.1-3.2c0-1.3-0.4-2.4-1.1-3.1c-0.8-0.8-1.7-1.2-2.9-1.2
		c-0.6,0-1.3,0.2-1.9,0.5c-0.7,0.3-1.2,0.7-1.5,1.2V56.5z"/>
	<path class="st0" d="M160.2,69.8V44.7h5.8v2.1c1.4-1.7,3.2-2.6,5.3-2.6c2.3,0,4.3,0.8,5.7,2.5c1.5,1.7,2.2,4,2.2,7
		c0,3-0.7,5.4-2.2,7.1c-1.5,1.7-3.4,2.5-5.7,2.5c-2.1,0-3.9-0.9-5.4-2.6v9.1H160.2z M166,56.5c0.4,0.5,0.9,0.9,1.5,1.2
		c0.7,0.3,1.3,0.5,1.9,0.5c1.2,0,2.1-0.4,2.9-1.2c0.8-0.8,1.1-1.9,1.1-3.2c0-1.3-0.4-2.4-1.1-3.1c-0.8-0.8-1.7-1.2-2.9-1.2
		c-0.6,0-1.3,0.2-1.9,0.5s-1.2,0.7-1.5,1.2V56.5z"/>
	<path class="st0" d="M178,44.7h6.1l4.2,11.5l4.1-11.5h6.1l-8.2,20.8c-0.7,1.8-1.6,3-2.9,3.7c-1.3,0.7-2.9,1-4.8,1.1
		c-1,0-1.8-0.1-2.5-0.3l0.8-5.3c0.4,0.2,0.9,0.3,1.4,0.3c1.4,0,2.2-0.3,2.5-1l0.4-1L178,44.7z"/>
	<path class="st0" d="M100.5,94V75.8h5.8V78c1.5-1.8,3.6-2.7,6.3-2.7c2,0,3.5,0.5,4.5,1.6c1,1,1.5,2.4,1.5,4.2V94h-5.8V83.5
		c0-2-1-3-3-3c-1.4,0-2.6,0.6-3.5,1.8V94H100.5z"/>
	<path class="st0" d="M119.5,84.8c0-2.7,0.9-4.9,2.7-6.8c1.8-1.8,4.1-2.7,6.9-2.7c2.7,0,5,0.9,6.7,2.8c1.7,1.8,2.6,4.3,2.6,7.4v1.3
		h-12.9c0.2,0.9,0.7,1.6,1.5,2.2c0.8,0.6,1.8,0.8,3.1,0.8c0.7,0,1.5-0.1,2.4-0.4c0.9-0.3,1.6-0.7,2.1-1.1L137,92
		c-0.9,0.8-2,1.4-3.4,1.8c-1.4,0.4-2.8,0.6-4.2,0.6c-2.9,0-5.2-0.9-7.1-2.6C120.4,90.1,119.5,87.7,119.5,84.8z M125.4,82.8h7.5
		c-0.1-0.7-0.4-1.4-1-2c-0.6-0.6-1.5-0.9-2.7-0.9c-1.2,0-2,0.3-2.6,0.8C125.9,81.4,125.5,82,125.4,82.8z"/>
	<path class="st0" d="M136.7,81v-5.2h3v-3.1h5.8v3.1h3.7l1.6,5.2h-5.3v6.5c0,0.5,0.1,0.9,0.4,1.3c0.3,0.3,0.7,0.5,1.1,0.5
		c0.7,0,1.2-0.1,1.5-0.4l1.1,4.4c-0.9,0.8-2.3,1.2-4.3,1.2c-1.9,0-3.3-0.4-4.2-1.3c-1-0.9-1.4-2.2-1.4-3.9V81H136.7z"/>
	<path class="st0" d="M147.9,75.8h6l2.9,11.1l3.6-11.1h5.1l3.6,11.1l2.9-11.1h6L172.7,94h-6.3L163,82.7L159.7,94h-6.3L147.9,75.8z"
		/>
	<path class="st0" d="M179.5,91.6c-1.8-1.9-2.7-4.1-2.7-6.8c0-2.6,0.9-4.9,2.7-6.7c1.8-1.9,4.2-2.8,7.2-2.8c3,0,5.5,0.9,7.3,2.8
		c1.8,1.9,2.7,4.1,2.7,6.7c0,2.6-0.9,4.9-2.7,6.8c-1.8,1.9-4.2,2.8-7.3,2.8C183.8,94.4,181.4,93.5,179.5,91.6z M182.9,84.8
		c0,1.3,0.3,2.3,1,3.1c0.7,0.8,1.7,1.2,2.9,1.2c1.2,0,2.2-0.4,2.9-1.2c0.7-0.8,1.1-1.9,1.1-3.1c0-1.2-0.4-2.3-1.1-3.1
		c-0.7-0.8-1.7-1.2-2.9-1.2c-1.2,0-2.1,0.4-2.9,1.2C183.2,82.6,182.9,83.6,182.9,84.8z"/>
	<path class="st0" d="M197.8,94V75.8h5.8v2.3c0.6-0.8,1.5-1.4,2.5-2c1.1-0.6,2.1-0.8,3.2-0.8v5.8c-0.3-0.1-0.8-0.1-1.4-0.1
		c-0.8,0-1.6,0.2-2.5,0.5c-0.8,0.3-1.4,0.7-1.8,1.2V94H197.8z"/>
	<path class="st0" d="M210,94V68.8h5.8V83l5.5-7.3h7l-6.7,8.3l7,9.9h-7.2l-4-6.4l-1.7,2.1V94H210z"/>
	<path class="st0" d="M226.1,84.8c0-2.7,0.9-4.9,2.7-6.8c1.8-1.8,4.1-2.7,6.9-2.7c2.7,0,5,0.9,6.7,2.8c1.7,1.8,2.6,4.3,2.6,7.4v1.3
		h-12.9c0.2,0.9,0.7,1.6,1.5,2.2c0.8,0.6,1.8,0.8,3.1,0.8c0.7,0,1.5-0.1,2.4-0.4c0.9-0.3,1.6-0.7,2.1-1.1l2.5,3.8
		c-0.9,0.8-2,1.4-3.4,1.8c-1.4,0.4-2.8,0.6-4.2,0.6c-2.9,0-5.2-0.9-7.1-2.6C227.1,90.1,226.1,87.7,226.1,84.8z M232.1,82.8h7.5
		c-0.1-0.7-0.4-1.4-1-2c-0.6-0.6-1.5-0.9-2.7-0.9c-1.2,0-2,0.3-2.6,0.8C232.5,81.4,232.2,82,232.1,82.8z"/>
	<path class="st0" d="M246.1,94V75.8h5.8v2.3c0.6-0.8,1.5-1.4,2.5-2c1.1-0.6,2.1-0.8,3.2-0.8v5.8c-0.3-0.1-0.8-0.1-1.4-0.1
		c-0.8,0-1.6,0.2-2.5,0.5c-0.8,0.3-1.4,0.7-1.8,1.2V94H246.1z"/>
	<path class="st1" d="M98.7,19.1v-5.2h3V9.2h5.8v4.8h3.7v5.2h-3.7v6.5c0,0.5,0.1,0.9,0.4,1.3c0.3,0.3,0.7,0.5,1.1,0.5
		c0.7,0,1.2-0.1,1.5-0.4l1.1,4.4c-0.9,0.8-2.3,1.2-4.3,1.2c-1.9,0-3.3-0.4-4.2-1.3c-1-0.9-1.4-2.2-1.4-3.9v-8.2H98.7z"/>
	<path class="st1" d="M112.2,32.1V7h5.8v9.2c1.5-1.8,3.6-2.7,6.3-2.7c2,0,3.5,0.5,4.5,1.5c1,1,1.5,2.4,1.5,4.2v13h-5.8V21.6
		c0-2-1-2.9-3-2.9c-1.4,0-2.6,0.6-3.5,1.8v11.7H112.2z"/>
	<path class="st1" d="M131.5,23c0-2.7,0.9-4.9,2.7-6.8c1.8-1.8,4.1-2.7,6.9-2.7c2.7,0,5,0.9,6.7,2.8c1.7,1.8,2.6,4.3,2.6,7.4v1.3
		h-12.9c0.2,0.9,0.7,1.6,1.5,2.2c0.8,0.6,1.8,0.8,3.1,0.8c0.7,0,1.5-0.1,2.4-0.4c0.9-0.3,1.6-0.7,2.1-1.1l2.5,3.8
		c-0.9,0.8-2,1.4-3.4,1.8c-1.4,0.4-2.8,0.6-4.2,0.6c-2.9,0-5.2-0.9-7.1-2.6C132.4,28.2,131.5,25.9,131.5,23z M137.4,21h7.5
		c-0.1-0.7-0.4-1.4-1-2c-0.6-0.6-1.5-0.9-2.7-0.9c-1.2,0-2,0.3-2.6,0.8C137.9,19.5,137.5,20.2,137.4,21z"/>
</g>
<g>
	<path class="st1" d="M48.8,8.9C25.7,8.9,7,27.6,7,50.7c0,23.1,18.7,41.8,41.8,41.8c23.1,0,41.8-18.7,41.8-41.8
		C90.6,27.6,71.9,8.9,48.8,8.9z M48.8,86.6c-19.8,0-35.9-16.1-35.9-35.9c0-19.8,16.1-35.9,35.9-35.9s35.8,16.1,35.8,35.9
		C84.7,70.5,68.6,86.6,48.8,86.6z"/>
	<path class="st0" d="M48.9,73.8c-0.7,0-1.4,0-2.1-0.2c-0.6,0-1-0.5-1-1.1c0.1-0.7,0.7-1.1,1.2-1.1c0.7,0,1.3,0,2,0
		c0.8,0,1.8,0,2.6,0c0.5,0,1.1,0.4,1.2,0.9v0.2c0,0.7-0.5,1.1-1.1,1.1C50.9,73.8,49.8,73.8,48.9,73.8z M41.9,72.6
		c-1.5-0.5-3-1.3-4.5-2.1c-0.6-0.4-0.7-1-0.5-1.7c0.4-0.5,1.1-0.7,1.7-0.3c1.3,0.7,2.6,1.4,4,1.9c0.6,0.1,0.8,0.6,0.8,1
		c0,0.2,0,0.2,0,0.3C43.2,72.6,42.6,72.8,41.9,72.6z M56.5,72.5c-0.6,0.2-1.3,0-1.4-0.7c-0.2-0.5,0-1.2,0.7-1.3
		c1.4-0.7,2.6-1.2,3.9-2.1c0.5-0.4,1.2-0.1,1.6,0.4c0.1,0.2,0.2,0.5,0.2,0.6c0,0.5-0.2,0.8-0.6,1.1C59.6,71.2,58.1,72,56.5,72.5z
		 M33.5,67.7c-1.2-1.2-2.2-2.5-3.2-3.8c-0.4-0.6-0.2-1.3,0.2-1.6c0.6-0.4,1.3-0.3,1.7,0.2c0.9,1.2,1.9,2.4,2.9,3.4
		c0.3,0.2,0.4,0.6,0.4,0.7c0,0.5-0.1,0.7-0.4,0.9C34.8,68,34,68,33.5,67.7z M64.8,67.3c-0.4,0.4-1.1,0.4-1.6,0
		c-0.5-0.5-0.5-1.3,0-1.7c1-1,2.1-2.2,2.8-3.5c0.4-0.5,1-0.6,1.7-0.2c0.4,0.1,0.5,0.6,0.5,0.9c0,0.3,0,0.5-0.1,0.6
		C67,64.9,66,66.1,64.8,67.3z M27.9,59.6c-0.5-1.6-1.1-3.1-1.3-4.8c-0.2-0.7,0.2-1.3,0.9-1.4c0.6,0,1.1,0.5,1.3,0.9
		c0.4,1.6,0.8,3,1.3,4.2c0,0.2,0,0.5,0,0.6c0,0.5-0.2,0.9-0.7,1C28.9,60.3,28.2,60.2,27.9,59.6z M70.3,59.1
		c-0.4,0.6-0.9,0.9-1.6,0.7c-0.6-0.2-0.8-0.9-0.6-1.5c0.5-1.4,0.9-2.8,1.2-4.4c0.1-0.5,0.6-0.9,1.2-0.8c0.6,0,1.1,0.5,1.1,1.1
		c0,0.1-0.1,0.1-0.1,0.2C71.2,56,70.7,57.5,70.3,59.1z"/>
	<g>
		<circle class="st2" cx="32.6" cy="64.8" r="3.5"/>
		<path class="st1" d="M32.6,69.1c-2.4,0-4.3-1.9-4.3-4.3c0-2.4,1.9-4.3,4.3-4.3c2.4,0,4.3,1.9,4.3,4.3C36.9,67.1,35,69.1,32.6,69.1
			z M32.6,62.1c-1.5,0-2.7,1.2-2.7,2.7c0,1.5,1.2,2.7,2.7,2.7c1.5,0,2.7-1.2,2.7-2.7C35.4,63.3,34.1,62.1,32.6,62.1z"/>
	</g>
	<g>
		<circle class="st2" cx="32.6" cy="64.8" r="3.5"/>
		<path class="st1" d="M32.6,69.1c-2.4,0-4.3-1.9-4.3-4.3c0-2.4,1.9-4.3,4.3-4.3c2.4,0,4.3,1.9,4.3,4.3C36.9,67.1,35,69.1,32.6,69.1
			z M32.6,62.1c-1.5,0-2.7,1.2-2.7,2.7c0,1.5,1.2,2.7,2.7,2.7c1.5,0,2.7-1.2,2.7-2.7C35.4,63.3,34.1,62.1,32.6,62.1z"/>
	</g>
	<g>
		<circle class="st2" cx="65.5" cy="64.8" r="3.5"/>
		<path class="st1" d="M65.5,69.1c-2.4,0-4.3-1.9-4.3-4.3c0-2.4,1.9-4.3,4.3-4.3c2.4,0,4.3,1.9,4.3,4.3
			C69.8,67.1,67.9,69.1,65.5,69.1z M65.5,62.1c-1.5,0-2.7,1.2-2.7,2.7c0,1.5,1.2,2.7,2.7,2.7c1.5,0,2.7-1.2,2.7-2.7
			C68.2,63.3,67,62.1,65.5,62.1z"/>
	</g>
	<g>
		<circle class="st2" cx="49.2" cy="71.5" r="3.5"/>
		<path class="st1" d="M49.2,75.8c-2.4,0-4.3-1.9-4.3-4.3c0-2.4,1.9-4.3,4.3-4.3c2.4,0,4.3,1.9,4.3,4.3
			C53.5,73.9,51.6,75.8,49.2,75.8z M49.2,68.8c-1.5,0-2.7,1.2-2.7,2.7c0,1.5,1.2,2.7,2.7,2.7S52,73,52,71.5
			C52,70,50.7,68.8,49.2,68.8z"/>
	</g>
	<g>
		<circle class="st2" cx="32.6" cy="64.8" r="3.5"/>
		<path class="st1" d="M32.6,69.1c-2.4,0-4.3-1.9-4.3-4.3c0-2.4,1.9-4.3,4.3-4.3c2.4,0,4.3,1.9,4.3,4.3C36.9,67.1,35,69.1,32.6,69.1
			z M32.6,62.1c-1.5,0-2.7,1.2-2.7,2.7c0,1.5,1.2,2.7,2.7,2.7c1.5,0,2.7-1.2,2.7-2.7C35.4,63.3,34.1,62.1,32.6,62.1z"/>
	</g>
	<path class="st1" d="M73.9,52.1c-1.5-0.8-3.1-1.6-4.8-2.1c-0.7-0.1-1.2-1-1-1.7c0.2-0.6,1-1.1,1.7-1c1.9,0.4,3.7,1.2,5.4,2.2
		c0.6,0.3,1,1.2,0.6,1.9C75.4,52,74.6,52.4,73.9,52.1z"/>
	<path class="st1" d="M23.9,52.2c-0.9,0.3-1.9,0-2.2-0.8c-0.3-0.9,0.3-1.8,1-2.1c2.3-0.8,4.5-1.5,6.8-2c0.8,0,1.9,0.7,1.9,1.5
		c0.2,0.8-0.4,1.6-1,1.8c-0.1,0-0.1,0-0.4,0.1C28,51,26.1,51.6,23.9,52.2z"/>
</g>
</svg>
