<?xml version="1.0" encoding="utf-8"?>
<!-- Generator: Adobe Illustrator 21.1.0, SVG Export Plug-In . SVG Version: 6.00 Build 0)  -->
<!DOCTYPE svg PUBLIC "-//W3C//DTD SVG 1.1//EN" "http://www.w3.org/Graphics/SVG/1.1/DTD/svg11.dtd">
<svg version="1.1" id="Layer_1" xmlns="http://www.w3.org/2000/svg" xmlns:xlink="http://www.w3.org/1999/xlink" x="0px" y="0px"
	 viewBox="0 0 254 146" style="enable-background:new 0 0 254 146;" xml:space="preserve">
<style type="text/css">
	.st0{fill:url(#SVGID_1_);}
	.st1{fill:url(#SVGID_2_);}
	.st2{fill:url(#SVGID_3_);}
	.st3{fill:url(#SVGID_4_);}
	.st4{fill:url(#SVGID_5_);}
	.st5{fill:url(#SVGID_6_);}
	.st6{fill:url(#SVGID_7_);}
	.st7{fill:url(#SVGID_8_);}
	.st8{fill:url(#SVGID_9_);}
	.st9{fill:url(#SVGID_10_);}
	.st10{fill:url(#SVGID_11_);}
	.st11{fill:url(#SVGID_12_);}
</style>
<g>
	<linearGradient id="SVGID_1_" gradientUnits="userSpaceOnUse" x1="24.7332" y1="91.8435" x2="24.7332" y2="0.9594">
		<stop  offset="8.465514e-02" style="stop-color:#DB5967"/>
		<stop  offset="0.3605" style="stop-color:#D91C5C"/>
		<stop  offset="0.9221" style="stop-color:#9E1F63"/>
	</linearGradient>
	<path class="st0" d="M24.5,17.6c-7.8,0-12.4,4.2-12.4,11.1v26.4h5c-2.2,1.7-5,4.5-5,8.1v27.3c0,2.7,1,5.2,2.8,7.2
		c1.9,2.1,4.4,3.2,7.3,3.2c0.8,0,1.6-0.1,2.4-0.3h12.7V28.8C37.3,21.8,32.5,17.6,24.5,17.6z M33.3,94.4v2.2H27
		c0-0.6-0.1-1.6-0.2-2.8c-1.1,2.1-2.6,3.2-4.6,3.2c-1.7,0-3.1-0.6-4.3-1.9c-1.1-1.3-1.7-2.7-1.7-4.4V63.3c0-1.9,1.8-4,5.3-6.2
		c3.5-2.2,5.3-4.6,5.3-7.2V28.1c0-1.3-0.7-2-2.2-2c-1.4,0-2.2,0.7-2.2,2v22.9h-6.2V28.8c0-4.7,2.8-7,8.3-7c5.8,0,8.7,2.4,8.7,7V94.4
		z"/>
	<linearGradient id="SVGID_2_" gradientUnits="userSpaceOnUse" x1="24.5753" y1="91.8697" x2="24.5753" y2="0.9856">
		<stop  offset="8.465514e-02" style="stop-color:#DB5967"/>
		<stop  offset="0.3605" style="stop-color:#D91C5C"/>
		<stop  offset="0.9221" style="stop-color:#9E1F63"/>
	</linearGradient>
	<path class="st1" d="M22.4,63v26.8c0,1.3,0.7,2,2.2,2c1.4,0,2.2-0.7,2.2-2V58.1c-1.6,1.1-2.6,1.7-2.9,1.9
		C22.9,60.9,22.4,61.9,22.4,63z"/>
	<linearGradient id="SVGID_3_" gradientUnits="userSpaceOnUse" x1="61.9691" y1="91.8435" x2="61.9691" y2="0.9594">
		<stop  offset="8.465514e-02" style="stop-color:#DB5967"/>
		<stop  offset="0.3605" style="stop-color:#D91C5C"/>
		<stop  offset="0.9221" style="stop-color:#9E1F63"/>
	</linearGradient>
	<path class="st2" d="M70.8,16.8c-2.3,0-4.1,0.5-5.5,1.3c-1.4-0.8-3-1.3-4.9-1.3c-1.3,0-2.4,0.2-3.4,0.4H44.3v83.6h35.3V27
		C79.6,22,77.3,16.8,70.8,16.8z M75.5,96.7h-6.4V28c0-1.4-0.7-2.1-2.2-2.1c-1.2,0-1.8,0.7-1.8,2.1v68.7h-6.4V28
		c0-1.4-0.7-2.1-2.2-2.1c-1.1,0-1.7,0.7-1.7,2.1v68.7h-6.4V21.3h6.3v2.8c0.8-2.2,2.7-3.3,5.7-3.3c2.5,0,4,1.1,4.7,3.3
		c0.8-2.2,2.7-3.3,5.7-3.3c3.2,0,4.7,2,4.7,6.1V96.7z"/>
	<linearGradient id="SVGID_4_" gradientUnits="userSpaceOnUse" x1="98.9425" y1="91.8697" x2="98.9425" y2="0.9856">
		<stop  offset="8.465514e-02" style="stop-color:#DB5967"/>
		<stop  offset="0.3605" style="stop-color:#D91C5C"/>
		<stop  offset="0.9221" style="stop-color:#9E1F63"/>
	</linearGradient>
	<path class="st3" d="M98.8,26.8c-1.3,0-1.9,0.8-1.9,2.5v60.1c0,1.7,0.6,2.5,1.9,2.5c1.4,0,2.2-0.9,2.2-2.6v-60
		C101,27.6,100.3,26.8,98.8,26.8z"/>
	<linearGradient id="SVGID_5_" gradientUnits="userSpaceOnUse" x1="98.9424" y1="91.8435" x2="98.9424" y2="0.9594">
		<stop  offset="8.465514e-02" style="stop-color:#DB5967"/>
		<stop  offset="0.3605" style="stop-color:#D91C5C"/>
		<stop  offset="0.9221" style="stop-color:#9E1F63"/>
	</linearGradient>
	<path class="st4" d="M98.9,17.3c-8,0-12.8,4.8-12.8,12.8v58.8c0,8,4.8,12.8,12.8,12.8c8.1,0,12.9-4.8,12.9-12.8V30.1
		C111.8,22.1,107,17.3,98.9,17.3z M107.7,88.9c0,5.8-2.9,8.7-8.8,8.7c-5.8,0-8.7-2.9-8.7-8.7V30.1c0-5.8,2.9-8.7,8.7-8.7
		c5.9,0,8.8,2.9,8.8,8.7V88.9z"/>
	<linearGradient id="SVGID_6_" gradientUnits="userSpaceOnUse" x1="133.2858" y1="91.8435" x2="133.2858" y2="0.9594">
		<stop  offset="8.465514e-02" style="stop-color:#DB5967"/>
		<stop  offset="0.3605" style="stop-color:#D91C5C"/>
		<stop  offset="0.9221" style="stop-color:#9E1F63"/>
	</linearGradient>
	<path class="st5" d="M144.3,88.3V63.8c0-2.9-0.8-5.2-2.2-7c1.5-1.9,2.2-4.4,2.2-7.3V29.4c0-7.9-5-12.4-13.6-12.4h-12.1v83.7H148
		l-3-5.9C144.9,94.5,144.3,93.1,144.3,88.3z M134.3,96.6c-0.6-1.3-0.8-4.1-0.8-8.4V62.9c0-1.9-1.4-2.8-4.1-2.8v36.5h-6.7V21.1h8
		c6.4,0,9.6,2.8,9.6,8.3v20.1c0,4.3-2.2,6.9-6.6,7.7l0,0.3c4.4,0,6.6,2.1,6.6,6.3v24.5c0,4,0.4,6.8,1.2,8.3H134.3z"/>
	<linearGradient id="SVGID_7_" gradientUnits="userSpaceOnUse" x1="131.4451" y1="91.8435" x2="131.4451" y2="0.9594">
		<stop  offset="8.465514e-02" style="stop-color:#DB5967"/>
		<stop  offset="0.3605" style="stop-color:#D91C5C"/>
		<stop  offset="0.9221" style="stop-color:#9E1F63"/>
	</linearGradient>
	<path class="st6" d="M130.9,26.3h-1.5v28.2h1.5c1.7,0,2.6-1,2.6-3.1V29.3C133.5,27.3,132.6,26.3,130.9,26.3z"/>
	<linearGradient id="SVGID_8_" gradientUnits="userSpaceOnUse" x1="164.7892" y1="91.8435" x2="164.7892" y2="0.9594">
		<stop  offset="8.465514e-02" style="stop-color:#DB5967"/>
		<stop  offset="0.3605" style="stop-color:#D91C5C"/>
		<stop  offset="0.9221" style="stop-color:#9E1F63"/>
	</linearGradient>
	<path class="st7" d="M164.7,17.3c-8,0-12.8,4.8-12.8,12.8v58.8c0,8,4.8,12.8,12.8,12.8c8.1,0,12.9-4.8,12.9-12.8V30.1
		C177.6,22.1,172.8,17.3,164.7,17.3z M173.6,88.9c0,5.8-2.9,8.7-8.8,8.7c-5.8,0-8.7-2.9-8.7-8.7V30.1c0-5.8,2.9-8.7,8.7-8.7
		c5.9,0,8.8,2.9,8.8,8.7V88.9z"/>
	<linearGradient id="SVGID_9_" gradientUnits="userSpaceOnUse" x1="164.7892" y1="91.8697" x2="164.7892" y2="0.9856">
		<stop  offset="8.465514e-02" style="stop-color:#DB5967"/>
		<stop  offset="0.3605" style="stop-color:#D91C5C"/>
		<stop  offset="0.9221" style="stop-color:#9E1F63"/>
	</linearGradient>
	<path class="st8" d="M164.7,26.8c-1.3,0-1.9,0.8-1.9,2.5v60.1c0,1.7,0.6,2.5,1.9,2.5c1.4,0,2.2-0.9,2.2-2.6v-60
		C166.8,27.6,166.1,26.8,164.7,26.8z"/>
	<linearGradient id="SVGID_10_" gradientUnits="userSpaceOnUse" x1="197.0816" y1="91.8435" x2="197.0816" y2="0.9594">
		<stop  offset="8.465514e-02" style="stop-color:#DB5967"/>
		<stop  offset="0.3605" style="stop-color:#D91C5C"/>
		<stop  offset="0.9221" style="stop-color:#9E1F63"/>
	</linearGradient>
	<path class="st9" d="M184.2,88.9c0,8,4.8,12.8,12.8,12.8c8.1,0,12.9-4.8,12.9-12.8V17.2h-25.7V88.9z M188.3,21.3h6.7v67.8
		c0,1.8,0.6,2.7,1.9,2.7c1.4,0,2.2-0.9,2.2-2.7V21.3h6.7v67.6c0,5.8-2.9,8.7-8.8,8.7c-5.8,0-8.7-2.9-8.7-8.7V21.3z"/>
	<linearGradient id="SVGID_11_" gradientUnits="userSpaceOnUse" x1="228.6909" y1="91.8435" x2="228.6909" y2="0.9594">
		<stop  offset="8.465514e-02" style="stop-color:#DB5967"/>
		<stop  offset="0.3605" style="stop-color:#D91C5C"/>
		<stop  offset="0.9221" style="stop-color:#9E1F63"/>
	</linearGradient>
	<path class="st10" d="M241.5,30.1c0-8-4.8-12.8-12.8-12.8c-8,0-12.8,4.8-12.8,12.8V35c0,0.7,0,1.7,2.3,11.7
		c1.9,7.6,3.3,13.3,4.3,17.2c0.5,1.9,0.9,3.6,1.3,5.1h-7.9v20c0,8,4.8,12.8,12.8,12.8c8,0,12.8-4.8,12.8-12.8v-6
		c0-1.5-0.2-3-0.7-4.5c-1.2-4.9-2.1-8.6-2.7-11.2l-4.3-18.4h7.6V30.1z M237.4,44.7h-6.7V29.5c0-1.8-0.7-2.7-2-2.7
		c-1.2,0-1.9,0.8-2,2.3c0,0.2,0,1.5,0,3.7c0,2,0.9,7.1,2.8,15.4l4.6,20c0.6,2.7,1.5,6.5,2.7,11.5c0.4,1.1,0.5,2.2,0.5,3.4v6
		c0,5.8-2.9,8.7-8.7,8.7c-5.8,0-8.7-2.9-8.7-8.7V73h6.7v16.1c0,1.8,0.7,2.7,2,2.7c1.3,0,2-0.9,2-2.7c0-3.6-0.1-5.7-0.2-6.4
		c-0.4-2.5-0.9-6.1-1.8-11c-0.5-2-1.2-5-2.2-8.8c-1-3.9-2.4-9.6-4.3-17.1c-1.5-6.3-2.2-9.9-2.2-10.7v-4.8c0-5.8,2.9-8.7,8.7-8.7
		c5.8,0,8.7,2.9,8.7,8.7V44.7z"/>
	<linearGradient id="SVGID_12_" gradientUnits="userSpaceOnUse" x1="225.0639" y1="91.8435" x2="225.0639" y2="0.9594">
		<stop  offset="8.465514e-02" style="stop-color:#DB5967"/>
		<stop  offset="0.3605" style="stop-color:#D91C5C"/>
		<stop  offset="0.9221" style="stop-color:#9E1F63"/>
	</linearGradient>
	<path class="st11" d="M224.1,29h2l-2-0.2C224.1,28.9,224.1,29,224.1,29z"/>
</g>
<g>
	<path d="M37.5,123.1h2.7l2.9,4.7l2.9-4.7h2.7v11.2h-2.4V127l-3.2,4.8h-0.1L40,127v7.3h-2.4V123.1z"/>
	<path d="M62.5,123h2.3l4.8,11.3H67l-1-2.5h-4.7l-1,2.5h-2.5L62.5,123z M65.1,129.6l-1.5-3.6l-1.5,3.6H65.1z"/>
	<path d="M82.5,134.5c-0.9,0-1.7-0.1-2.5-0.4s-1.6-0.7-2.2-1.4l1.5-1.7c0.5,0.4,1,0.7,1.6,1c0.5,0.2,1.1,0.4,1.8,0.4
		c0.5,0,0.9-0.1,1.2-0.3s0.4-0.4,0.4-0.8v0c0-0.2,0-0.3-0.1-0.4c-0.1-0.1-0.2-0.2-0.3-0.3c-0.2-0.1-0.4-0.2-0.7-0.3
		c-0.3-0.1-0.7-0.2-1.1-0.3c-0.6-0.1-1.1-0.3-1.5-0.5s-0.9-0.4-1.2-0.6c-0.3-0.2-0.6-0.6-0.7-0.9c-0.2-0.4-0.3-0.8-0.3-1.4v0
		c0-0.5,0.1-1,0.3-1.4c0.2-0.4,0.5-0.8,0.8-1.1c0.3-0.3,0.8-0.5,1.2-0.7s1-0.2,1.6-0.2c0.8,0,1.6,0.1,2.3,0.4s1.3,0.6,1.9,1.1
		l-1.3,1.9c-0.5-0.3-1-0.6-1.5-0.8s-1-0.3-1.4-0.3s-0.8,0.1-1.1,0.3c-0.2,0.2-0.4,0.4-0.4,0.7v0c0,0.2,0,0.3,0.1,0.5
		c0.1,0.1,0.2,0.3,0.4,0.4c0.2,0.1,0.4,0.2,0.7,0.3s0.7,0.2,1.2,0.3c0.6,0.1,1.1,0.3,1.5,0.5c0.4,0.2,0.8,0.4,1.1,0.7
		c0.3,0.3,0.5,0.6,0.7,0.9c0.2,0.4,0.2,0.8,0.2,1.3v0c0,0.6-0.1,1-0.3,1.5c-0.2,0.4-0.5,0.8-0.8,1.1c-0.4,0.3-0.8,0.5-1.3,0.7
		C83.6,134.4,83.1,134.5,82.5,134.5z"/>
	<path d="M107.9,123.1h2.5v9h5.6v2.2h-8V123.1z"/>
	<path d="M130.4,134.5c-0.9,0-1.7-0.2-2.4-0.5c-0.7-0.3-1.4-0.7-1.9-1.2c-0.5-0.5-0.9-1.1-1.2-1.8c-0.3-0.7-0.4-1.4-0.4-2.2v0
		c0-0.8,0.1-1.5,0.4-2.2c0.3-0.7,0.7-1.3,1.2-1.8c0.5-0.5,1.2-0.9,1.9-1.2c0.7-0.3,1.5-0.5,2.4-0.5c0.9,0,1.7,0.2,2.4,0.5
		c0.7,0.3,1.4,0.7,1.9,1.2c0.5,0.5,0.9,1.1,1.2,1.8s0.4,1.4,0.4,2.2v0c0,0.8-0.1,1.6-0.4,2.2c-0.3,0.7-0.7,1.3-1.2,1.8
		c-0.5,0.5-1.2,0.9-1.9,1.2C132.1,134.3,131.3,134.5,130.4,134.5z M130.5,132.2c0.5,0,0.9-0.1,1.4-0.3c0.4-0.2,0.8-0.4,1.1-0.8
		c0.3-0.3,0.5-0.7,0.7-1.1c0.2-0.4,0.2-0.9,0.2-1.4v0c0-0.5-0.1-0.9-0.2-1.4c-0.2-0.4-0.4-0.8-0.7-1.1c-0.3-0.3-0.7-0.6-1.1-0.8
		s-0.9-0.3-1.4-0.3c-0.5,0-1,0.1-1.4,0.3c-0.4,0.2-0.8,0.4-1.1,0.8c-0.3,0.3-0.5,0.7-0.7,1.1c-0.2,0.4-0.2,0.9-0.2,1.4v0
		c0,0.5,0.1,0.9,0.2,1.4s0.4,0.8,0.7,1.1s0.7,0.6,1.1,0.8C129.5,132.1,130,132.2,130.5,132.2z"/>
	<path d="M145.8,123.1h2.3l5.2,6.9v-6.9h2.4v11.2h-2.1l-5.4-7.1v7.1h-2.4V123.1z"/>
	<path d="M165.6,123.1h4.4c0.9,0,1.7,0.1,2.4,0.4c0.7,0.3,1.4,0.7,1.9,1.2c0.5,0.5,0.9,1.1,1.2,1.8c0.3,0.7,0.4,1.4,0.4,2.2v0
		c0,0.8-0.1,1.5-0.4,2.2c-0.3,0.7-0.7,1.3-1.2,1.8c-0.5,0.5-1.2,0.9-1.9,1.2c-0.7,0.3-1.5,0.4-2.4,0.4h-4.4V123.1z M170,132.1
		c0.5,0,1-0.1,1.4-0.2s0.8-0.4,1.1-0.7s0.5-0.7,0.7-1.1s0.2-0.9,0.2-1.4v0c0-0.5-0.1-0.9-0.2-1.4s-0.4-0.8-0.7-1.1s-0.6-0.5-1.1-0.7
		c-0.4-0.2-0.9-0.2-1.4-0.2h-1.9v6.8H170z"/>
	<path d="M190.8,134.5c-0.9,0-1.7-0.2-2.4-0.5c-0.7-0.3-1.4-0.7-1.9-1.2c-0.5-0.5-0.9-1.1-1.2-1.8c-0.3-0.7-0.4-1.4-0.4-2.2v0
		c0-0.8,0.1-1.5,0.4-2.2c0.3-0.7,0.7-1.3,1.2-1.8c0.5-0.5,1.2-0.9,1.9-1.2c0.7-0.3,1.5-0.5,2.4-0.5c0.9,0,1.7,0.2,2.4,0.5
		c0.7,0.3,1.4,0.7,1.9,1.2c0.5,0.5,0.9,1.1,1.2,1.8s0.4,1.4,0.4,2.2v0c0,0.8-0.1,1.6-0.4,2.2c-0.3,0.7-0.7,1.3-1.2,1.8
		c-0.5,0.5-1.2,0.9-1.9,1.2C192.5,134.3,191.7,134.5,190.8,134.5z M190.8,132.2c0.5,0,0.9-0.1,1.4-0.3c0.4-0.2,0.8-0.4,1.1-0.8
		c0.3-0.3,0.5-0.7,0.7-1.1c0.2-0.4,0.2-0.9,0.2-1.4v0c0-0.5-0.1-0.9-0.2-1.4c-0.2-0.4-0.4-0.8-0.7-1.1c-0.3-0.3-0.7-0.6-1.1-0.8
		s-0.9-0.3-1.4-0.3c-0.5,0-1,0.1-1.4,0.3c-0.4,0.2-0.8,0.4-1.1,0.8c-0.3,0.3-0.5,0.7-0.7,1.1c-0.2,0.4-0.2,0.9-0.2,1.4v0
		c0,0.5,0.1,0.9,0.2,1.4s0.4,0.8,0.7,1.1s0.7,0.6,1.1,0.8C189.9,132.1,190.3,132.2,190.8,132.2z"/>
	<path d="M206.2,123.1h2.3l5.2,6.9v-6.9h2.4v11.2H214l-5.4-7.1v7.1h-2.4V123.1z"/>
</g>
</svg>
