<?xml version="1.0" encoding="utf-8"?>
<!-- Generator: Adobe Illustrator 21.1.0, SVG Export Plug-In . SVG Version: 6.00 Build 0)  -->
<!DOCTYPE svg PUBLIC "-//W3C//DTD SVG 1.1//EN" "http://www.w3.org/Graphics/SVG/1.1/DTD/svg11.dtd">
<svg version="1.1" id="Layer_1" xmlns="http://www.w3.org/2000/svg" xmlns:xlink="http://www.w3.org/1999/xlink" x="0px" y="0px"
	 viewBox="0 0 684 168" style="enable-background:new 0 0 684 168;" xml:space="preserve">
<style type="text/css">
	.st0{fill:#1D70B7;}
	.st1{fill:#E20613;}
	.st2{fill:#3C3C3B;}
	.st3{fill:#1D1D1B;}
	.st4{fill:#FFFFFF;}
</style>
<g>
	<path class="st0" d="M163,70.4c0.2,0.2,0.4,0.4,0.7,0.6c-0.2-0.5-0.4-1-0.6-1.5c0-0.3,0-0.7-0.1-1c-0.3-1.4-0.7-2.3-1.2-2.9
		c-0.4-2-0.5-3.9-0.4-5.8l-1.3,1.1c-0.6-1.5-1.3-2.4-1-1.3c0.4,1.4-0.8,2.8-1.4,3.4l-0.3,0.3l0,0l0,0l-0.1,0.1
		c-0.4,0.4-2,1.8-1.7,3.4c0.3,1.6-1.7,0.1-2.1-0.2l-0.6,0.5c2.1,4,2.8,8,2.5,11.8l0.8,0.5l0.8-0.7c0.3-1.3,1.4-2.4,2.2-3
		C159.2,75.5,162.6,73.7,163,70.4z"/>
	<g>
		<path class="st1" d="M114.6,15.5c0,0,0-2.6-3.9-3.8c-1.7-0.5-0.4-1.3,1.7-2.1c-4.9,0-9.1-1.2-12.7-3.3l0.5,2
			c-1.8-0.2-3.1,0.1-1.9,0.3c1.7,0.3,2.5,2.2,2.8,3.2l0.1,0.5l0,0l0,0l0,0.2c0.2,0.6,0.9,3,2.6,3.4c1.9,0.5-0.8,1.8-1.3,2l0.2,0.9
			c5.2-0.1,9.7,1.1,13.4,3.4l0.9-0.5l-0.3-1.2C115,19.1,114.6,15.5,114.6,15.5z"/>
		<path class="st0" d="M137.6,29.9c0,0,1-2.3-2.2-4.8c-1.3-1.1,0.1-1.3,2.2-1.3c-4.4-1.7-7.8-4.3-10.2-7.4l-0.3,1.9
			c-1.6-0.8-2.9-1-1.8-0.4c1.4,0.9,1.4,2.9,1.3,3.8l-0.1,0.5l0,0l0,0l0,0.2c-0.1,0.6-0.3,3,1.1,4c1.5,1.1-1.4,1.4-1.9,1.4l-0.1,0.9
			c4.7,1.7,8.3,4.5,10.8,7.8l1-0.1l0.2-1.2C136.7,33.2,137.6,29.9,137.6,29.9z"/>
		<path class="st1" d="M153,50.6c0,0,1.6-1.8-0.3-5c-0.8-1.4,0.6-1.1,2.4-0.4c-3.3-3-5.5-6.4-6.6-10.1l-0.9,1.6
			c-1.1-1.2-2.2-1.8-1.5-0.9c1,1.2,0.3,3-0.1,3.9l-0.2,0.4l0,0l0,0l-0.1,0.1c-0.3,0.5-1.2,2.6-0.3,4c1,1.5-1.7,0.7-2.1,0.6l-0.4,0.7
			c3.6,3.1,5.9,6.8,7,10.6l1,0.2l0.6-1C151.1,53.2,153,50.6,153,50.6z"/>
		<g>
			<path class="st2" d="M114.2,56c-3.6-3.6-7.7-6.3-12.2-8.1l-1.1,6.9c3.1,1.5,6,3.4,8.5,6c2.5,2.5,4.5,5.4,6,8.4l6.9-1.1
				C120.5,63.7,117.8,59.6,114.2,56L114.2,56z"/>
			<path class="st2" d="M104.7,65.5c-1.5-1.5-3.1-2.7-4.8-3.6l-1.1,7.3c0.4,0.3,0.8,0.7,1.2,1.1c0.4,0.4,0.7,0.8,1,1.2l7.3-1.1
				C107.3,68.5,106.2,66.9,104.7,65.5z"/>
			<path class="st2" d="M103.1,40.9c5.7,2.2,11.2,5.6,15.9,10.3c4.7,4.7,8.1,10.1,10.3,15.8l6.7-1c-2.5-7.1-6.5-13.8-12.3-19.5l0,0
				c-5.7-5.7-12.5-9.8-19.6-12.3L103.1,40.9z"/>
		</g>
		<g>
			<path class="st3" d="M61.6,92.6l-1.1-5.4c-5.6,1.8-8.8,2.9-9.7,1.2c-1.3-2.3,1.1-3-2.5-8.7c-3.5-5.5-11.8-6.3-17.2-2.8
				c-5.6,3.2-9.1,10.7-5.8,16.7c2.9,6.2,11,8.9,17.2,5.9C48,97.4,53.8,93.9,61.6,92.6z M28.6,90.3c-1.7-5.5,3.8-11,9.1-11.1
				c7.8-0.1,12.3,9.1,7.1,14.4C40.3,98.6,30.1,97.3,28.6,90.3z"/>
			<path class="st3" d="M88,92.6l42.8-7.7c5.9-1.5,12.2-5.1,14-12.7l-55,8.9L88,92.6z"/>
			<path class="st3" d="M77,83.2l-0.3,0.1c-6.4,1.1-11.5,2.6-15.5,3.8l1,5.5c2.9-0.4,6-0.5,9.5-0.1l5.1,0.6L77,83.2z"/>
			<path class="st3" d="M89.1,80.9l8.7-56c-7.6,1.8-11.2,8.1-12.6,14.1l-7.6,43.8l-0.2,10.5l0.6,4.9c0.4,3.7,0.4,7-0.1,10l5.4,0.9
				c1.2-4,2.8-9.3,3.9-15.9L89.1,80.9z M81,89c-0.8-0.7-0.8-2,0-2.7c0.7-0.8,1.9-0.8,2.7,0c0.7,0.7,0.8,1.9,0,2.7
				C83,89.7,81.8,89.7,81,89z"/>
			<path class="st3" d="M93.7,138.6c3.5-5.4,2.6-13.7-2.9-17.2c-5.7-3.6-6.4-1.2-8.7-2.4c-1.6-0.9-0.7-3.9,1-9.3l-5.3-1
				c-1.2,7.6-4.7,13.3-6.7,18.7c-2.9,6.2-0.2,14.3,6,17.2C83.1,147.8,90.6,144.3,93.7,138.6z M80.5,141.3c-7-1.5-8.4-11.7-3.4-16.2
				c5.2-5.2,14.4-0.8,14.4,7C91.5,137.4,86,143,80.5,141.3z"/>
			
				<rect x="82.1" y="86.2" transform="matrix(0.2099 -0.9777 0.9777 0.2099 -20.5742 149.7606)" class="st3" width="0.6" height="2.8"/>
		</g>
		<path class="st3" d="M86.8,164.4c-21.4,0-41.5-8.3-56.6-23.4C15.1,125.9,6.7,105.7,6.7,84.3c0-21.4,8.3-41.6,23.4-56.7
			C45.2,12.4,65.4,4,86.8,4c21.4,0,41.5,8.3,56.6,23.4c31.3,31.2,31.4,82.1,0.2,113.4C128.5,156,108.3,164.4,86.8,164.4z M86.8,8.1
			c-20.4,0-39.5,8-53.9,22.4C18.6,44.9,10.7,64,10.7,84.3c0,20.3,8,39.4,22.4,53.8c14.4,14.3,33.5,22.2,53.7,22.2
			c20.4,0,39.5-8,53.9-22.4c29.6-29.7,29.6-78-0.2-107.7C126.2,15.9,107.1,8.1,86.8,8.1z M86.8,155.1c-18.9,0-36.7-7.4-50.1-20.7
			c-13.4-13.4-20.8-31.2-20.9-50.1c0-19,7.3-36.8,20.7-50.2C50,20.6,67.8,13.2,86.8,13.2c18.9,0,36.7,7.4,50.1,20.7
			c27.7,27.6,27.8,72.6,0.2,100.4C123.7,147.7,105.8,155.1,86.8,155.1z M86.8,17.3c-17.9,0-34.7,7-47.4,19.7
			C26.8,49.6,19.9,66.4,19.9,84.3c0,17.9,7,34.7,19.7,47.3c12.6,12.6,29.4,19.5,47.2,19.5c17.9,0,34.7-7,47.4-19.7
			c26-26.1,26-68.6-0.2-94.6C121.4,24.2,104.7,17.3,86.8,17.3z"/>
	</g>
</g>
<g>
	<path class="st4" d="M652.6,54c-4,0-7.9,1-11.6,2.8c-2.5-1.4-5.5-2.1-9-2.1h-13.5l-0.6,2.8c-3.7-2.4-8-3.4-12-3.4
		c-4,0-7.9,1-11.6,2.8c-2.5-1.4-5.5-2.1-9-2.1h-13.5l-0.8,3.5c-4.4-2.8-10.2-4.2-17.3-4.2c-7.4,0-13.4,1.1-19.4,3.5l-1.4,0.6
		c-3.3-2.7-7.6-4.1-12.3-4.1c-1,0-1.9,0-2.8,0.1c0.1-3.1-0.5-6.3-2.7-9.1c-3.8-4.8-9.6-4.8-11.5-4.8h-16.4l-3.7,16
		c-4-1.4-8.5-2.1-13.5-2.1c-4,0-7.7,0.6-11,1.6l-4-0.9c-1.2-0.3-2.8-0.6-4.5-0.6c-3.7,0-7.3,0.9-10.6,2.7c-2.6-1.6-5.7-2.4-9.4-2.4
		H417l-0.9,3.8c-4.4-2.9-9.8-4.5-16.1-4.5c-8.2,0-15.5,2.7-21.2,7.3c-4.3-5.1-10.5-7.4-16.6-7.3c0.1-3.1-0.5-6.2-2.8-9
		c-3.8-4.8-9.6-4.8-11.5-4.8h-16.4l-3.3,14.2c-2.9,0.3-5.8,1.1-8.4,2.6c-2.6-1.6-5.7-2.4-9.4-2.4h-13.4l-0.8,3.6
		c-4.4-2.8-10.2-4.2-17.3-4.2c-7.4,0-13.4,1.1-19.4,3.5l-3,1.2c-4-3.3-9.1-4.9-14-4.8c0.1-3.1-0.5-6.2-2.8-9
		c-3.8-4.8-9.6-4.8-11.5-4.8h-16.4l-17.7,77.3h17.8c2.4,0,5.4-0.4,8.5-2c3.5,1.8,7.5,2.7,12,2.7c6.9,0,13-2.1,18-5.8
		c3.8,3.6,9,5.7,15.3,5.7c3.7,0,7.3-0.8,10.6-2.3c1.9,1,4.1,1.5,6.5,1.7l0,0.1h1.3h13.4h16.6h3.1h14.7c2.4,0,5.4-0.4,8.5-2
		c3.5,1.8,7.5,2.7,12,2.7c8.2,0,15.3-3,20.8-8.2c0,0,0.1,0.1,0.1,0.1c5.3,5.4,12.9,8.1,22.6,8.1c2.9,0,5.6-0.2,8.2-0.7h33.1l1.5-6.5
		l1.8,1.3c5.5,3.7,13.3,5.8,21.9,5.8c2.6,0,5-0.2,7.3-0.7l0,0.1h34.3l0.6-2.5c1.8,1.4,4.5,2.5,8.2,2.5h17.9l0.3-1.4
		c2.8,1.3,6.1,2,9.7,2c3.7,0,7.3-0.8,10.6-2.3c1.9,1,4.1,1.5,6.5,1.7l-3.1,13.6h34.4l3.3-14.2c1.3,0.2,2.6,0.2,4,0.2
		c3,0,5.9-0.4,8.6-1.2l-3.5,15.1h34.4l3.3-14.2c1.3,0.2,2.6,0.2,4,0.2c19,0,32.2-15.4,32.2-37.5C674.9,60.7,662.9,54,652.6,54z"/>
	<path class="st3" d="M637.2,133.1h-38.7l3.3-14.5c-2.7,0.5-5.5,0.6-8.1,0.4l-3.2,14h-38.7l3.2-13.9c-1.4-0.3-2.7-0.6-4-1.2
		c-3.3,1.4-6.9,2.1-10.5,2.1c-2.9,0-5.6-0.4-8.2-1.3l-0.2,0.7h-19.6c-2.5,0-4.8-0.5-6.8-1.4l-0.3,1.4h-36.3c-2.3,0.4-4.7,0.6-7,0.6
		c-8.7,0-16.6-2-22.4-5.7l-1.2,5.1H404c-2.7,0.4-5.5,0.7-8.4,0.7c-9.5,0-17.1-2.5-22.7-7.4c-5.8,4.9-12.9,7.4-20.8,7.4
		c-4.4,0-8.4-0.8-12-2.5c-2.7,1.2-5.5,1.8-8.5,1.8H280l0.1-0.4c-1.4-0.3-2.7-0.6-4-1.2c-3.3,1.4-6.9,2.1-10.5,2.1
		c-5.9,0-11.3-1.8-15.4-5.2c-5.2,3.4-11.3,5.3-17.8,5.3c-4.4,0-8.4-0.8-12-2.5c-2.7,1.2-5.5,1.8-8.5,1.8h-20.4l18.6-81.4h18.1
		c2.2,0,8.7,0,13.1,5.5c1.9,2.3,2.9,5.1,3.2,8.3c4.5,0.3,8.8,1.8,12.3,4.4l1.9-0.8c6.3-2.6,12.5-3.7,20.2-3.7
		c6.2,0,11.5,1.1,15.9,3.2l0.6-2.5h15.1c3.6,0,6.7,0.7,9.4,2.1c2.1-1,4.4-1.7,6.7-2.1l3.3-14.5H348c2.2,0,8.7,0,13.1,5.5
		c1.9,2.3,2.9,5.1,3.2,8.3c5.6,0.4,10.9,2.7,14.8,6.5c6-4.3,13.2-6.6,21-6.6c5.5,0,10.5,1.1,14.7,3.3l0.6-2.6h15.1
		c3.6,0,6.7,0.7,9.4,2.1c3.3-1.6,6.9-2.4,10.5-2.4c2,0,3.6,0.3,5,0.6l3.5,0.8c3.5-1,7.2-1.5,11.1-1.5c4.4,0,8.3,0.5,12,1.5l3.5-15.5
		h18.1c2.2,0,8.7,0,13.2,5.6c1.8,2.3,2.9,5,3.1,8.2c0.3,0,0.5,0,0.8,0c4.7,0,9.1,1.3,12.6,3.8l0.3-0.1c6.3-2.6,12.5-3.7,20.2-3.7
		c6.2,0,11.5,1.1,15.9,3.2l0.6-2.5h15.2c3.4,0,6.4,0.6,9,1.9c3.7-1.7,7.6-2.6,11.5-2.6c3.7,0,7.4,0.8,10.6,2.3l0.4-1.7h15.2
		c3.4,0,6.4,0.6,9,1.9c3.7-1.7,7.6-2.6,11.5-2.6c11.2,0,24.4,7.2,24.4,27.6c0,23.3-14.1,39.6-34.3,39.6c-0.8,0-1.6,0-2.3-0.1
		L637.2,133.1z M603.7,129h30.1l3.3-14.4l1.9,0.2c1.2,0.1,2.4,0.2,3.7,0.2c17.7,0,30.1-14.6,30.1-35.5c0-11.3-5.3-23.4-20.2-23.4
		c-3.6,0-7.2,0.9-10.6,2.6l-1,0.5l-1-0.5c-2.2-1.2-4.9-1.9-8-1.9h-11.8l-0.9,4l-2.5-1.6c-4-2.6-8.1-3.1-10.9-3.1
		c-3.6,0-7.2,0.9-10.6,2.6l-1,0.5l-1-0.5c-2.2-1.2-4.9-1.9-8-1.9h-11.8l-1.1,4.8L570,60c-4.1-2.6-9.6-3.9-16.2-3.9
		c-7.2,0-12.9,1-18.6,3.4l-2.6,1.1l-1-0.8c-3-2.4-6.8-3.7-11-3.7c-0.9,0-1.8,0-2.6,0.1l-2.4,0.2l0.1-2.4c0.1-3.1-0.6-5.6-2.3-7.7
		c-3.2-4-8.1-4-9.9-4h-14.8L485,59l-2.2-0.8c-3.8-1.3-8-2-12.8-2c-3.7,0-7.2,0.5-10.4,1.5L459,58l-4.6-1c-1.1-0.3-2.5-0.5-4.1-0.5
		c-3.4,0-6.6,0.8-9.6,2.5l-1.1,0.6l-1-0.6c-2.2-1.4-5-2.1-8.3-2.1h-11.8l-1.2,5.1l-2.5-1.7c-4.1-2.7-9.1-4.1-15-4.1
		c-7.5,0-14.3,2.4-19.9,6.8l-1.6,1.3l-1.3-1.5c-3.6-4.2-8.9-6.5-14.5-6.5l-2.6,0l0.1-2.2c0.1-3.1-0.7-5.6-2.3-7.7c-3.2-4-8-4-9.9-4
		h-14.8L330,56.4l-1.5,0.1c-2.7,0.3-5.3,1-7.6,2.3l-1.1,0.6l-1-0.6c-2.2-1.4-5-2.1-8.3-2.1h-11.8l-1.1,4.8l-2.5-1.6
		c-4.1-2.6-9.6-3.9-16.2-3.9c-7.2,0-12.9,1-18.6,3.4l-4.2,1.7l-1-0.8c-3.4-2.8-7.7-4.3-12.3-4.3l-2.6,0l0.1-2.2
		c0.1-3.1-0.7-5.6-2.3-7.7c-3.2-4-8-4-9.9-4h-14.8l-16.7,73.1h15.2c2.7,0,5.2-0.6,7.5-1.8l0.9-0.5l0.9,0.5c3.2,1.6,6.9,2.5,11,2.5
		c6.3,0,11.9-1.8,16.7-5.4l1.4-1.1l1.3,1.2c3.5,3.4,8.3,5.2,13.8,5.2c3.4,0,6.6-0.7,9.7-2.1l0.9-0.4l0.9,0.4
		c1.7,0.8,3.6,1.3,5.7,1.5l1.1,0.1h47.8c2.7,0,5.2-0.6,7.5-1.8l0.9-0.5l0.9,0.5c3.2,1.6,6.9,2.5,11,2.5c7.4,0,14.1-2.6,19.4-7.6
		l1.5-1.4l1.4,1.5c5,5.1,12.1,7.6,21.2,7.6c2.7,0,5.4-0.2,7.8-0.6l0.4,0h31.4l1.8-7.9l4.4,3c5.1,3.5,12.5,5.4,20.7,5.4
		c2.3,0,4.6-0.2,6.9-0.6l3.2-0.6l-0.2,0.6h30l0.9-4.1l2.6,2c1.8,1.4,4.2,2.1,6.9,2.1h16.3l0.5-2.3l2.3,1c5.5,2.5,12.6,2.4,18.5-0.3
		l0.9-0.4l0.9,0.4c1.7,0.8,3.6,1.3,5.7,1.5l2.4,0.2L557,129h30.1l3.3-14.4l1.9,0.2c3.7,0.5,7.8,0.2,11.7-0.9l3.4-0.9L603.7,129z"/>
	<g>
		<path class="st3" d="M219.2,49.6h8.9c4.2,0,5.8,1.2,4.3,7.9l-2.7,11.8c3.2-3.3,7.7-5.8,13.1-5.8c6.7,0,12.4,4.5,12.4,15.7
			c0,17.5-8.9,29.7-23.1,29.7c-6,0-9.9-2.4-12.1-5.3c-2,2.7-4.7,4.7-8.4,4.7h-6L219.2,49.6z M228.1,76.9l-4.7,20.4
			c1,1,2.4,2.1,5.5,2.1c7.5,0,11.3-8.4,11.3-18.5c0-4.5-2.1-6.5-5.3-6.5C232.6,74.4,230.4,75.4,228.1,76.9z"/>
		<path class="st3" d="M277.2,103.6c-2.9,3.1-6.9,5.1-11.6,5.1c-6.9,0-11.9-4.1-11.9-11.5c0-10.3,7.9-15.3,19.5-15.3
			c3.4,0,5.5,0.4,7.4,0.9l0.3-0.9c1.3-5.2-0.3-7.9-5.5-7.9c-4.3,0-7.4,0.9-10,2.3h-4.7l2.4-10.1c4.1-1.7,8.8-2.8,15.9-2.8
			c13.3,0,19.9,5.8,17,18.7l-6,26h-5.9C280.5,108.1,278.1,106.4,277.2,103.6z M277.2,97.7l1.8-7.8c-1.2-0.3-2.5-0.6-4.3-0.6
			c-4.6,0-6.8,2.7-6.8,6.4c0,2.7,1.4,4.2,4,4.2C274,99.9,275.7,99.1,277.2,97.7z"/>
		<path class="st3" d="M304.5,64.1h5.9c5.3,0,7.3,2.6,6.9,7.7c3.7-4.9,7.9-8,13-8c0.9,0,1.8,0.2,2.5,0.3l-2.8,12.5h-1.6
			c-5.4,0-9.9,1.6-12.7,3.3l-6.4,28.1h-15L304.5,64.1z"/>
		<path class="st3" d="M339,49.6h8.9c4.2,0,5.8,1.2,4.3,7.9l-2.7,11.8c3.2-3.3,7.7-5.8,13.1-5.8c6.7,0,12.4,4.5,12.4,15.7
			c0,17.5-8.9,29.7-23.1,29.7c-6,0-9.9-2.4-12.1-5.3c-2,2.7-4.7,4.7-8.4,4.7h-6L339,49.6z M347.9,76.9l-4.7,20.4
			c1,1,2.4,2.1,5.5,2.1c7.5,0,11.3-8.4,11.3-18.5c0-4.5-2.1-6.5-5.3-6.5C352.4,74.4,350.2,75.4,347.9,76.9z"/>
		<path class="st3" d="M375.2,90.6c0-14.8,9.4-27.1,24.8-27.1c10.6,0,17.2,5.7,17.1,16.4c-0.1,3.1-0.5,6.3-1.5,9.6h-25.8v0.9
			c0,6.1,2.6,8.5,8,8.5c4,0,7.4-1.1,10.4-2.8h4.8l-2.1,9.3c-3.5,1.9-8.4,3.4-15.2,3.4C382.5,108.8,375.1,102.5,375.2,90.6z
			 M390.8,81.5h12.9c0.3-1,0.3-1.9,0.3-2.9c0-4-1.8-5.9-5-5.9C395,72.7,392.3,76.3,390.8,81.5z"/>
		<path class="st3" d="M424.5,64.1h5.9c5.3,0,7.3,2.6,6.9,7.7c3.7-4.9,7.9-8,13-8c0.9,0,1.8,0.2,2.5,0.3l-2.8,12.5h-1.6
			c-5.4,0-9.9,1.6-12.7,3.3l-6.4,28.1h-15L424.5,64.1z"/>
		<path class="st3" d="M445.6,104.5l2.1-9.2h5.2c1.8,2,5,3.5,9.4,3.5c3.3,0,5.9-0.9,5.9-3.4c0-1.9-1.5-2.6-5.9-4
			c-7.3-2.3-11.4-5.3-11.4-12.4c0-10.1,7.7-15.5,19.1-15.5c7.4,0,12,1.8,15.3,3.9l-2,8.7h-5c-1.8-1.6-4.6-3-8.6-3
			c-3.6,0-5.3,1.3-5.3,3.3c0,1.7,1.3,2.5,5.9,3.9c7,2.1,11.9,4.8,11.9,12.1c0,10.3-7.7,16.1-19.9,16.1
			C454.7,108.7,449,106.9,445.6,104.5z"/>
		<path class="st3" d="M494.6,49.6h8.9c4.2,0,5.8,1.2,4.3,7.9l-2.8,12.2c4.3-3.7,9-6.3,15.6-6.3c6.9,0,11.5,5.1,9.3,15l-6.8,29.7
			h-10.4c-3.1,0-4.2-1.4-3.1-6.1l4.9-22c0.8-3.3-0.2-4.8-3.2-4.8c-2.4,0-4.9,0.8-8.1,2.6l-6.8,30.3h-15L494.6,49.6z"/>
		<path class="st3" d="M552.1,103.6c-2.9,3.1-6.9,5.1-11.6,5.1c-6.9,0-11.9-4.1-11.9-11.5c0-10.3,7.9-15.3,19.5-15.3
			c3.4,0,5.5,0.4,7.4,0.9l0.3-0.9c1.3-5.2-0.3-7.9-5.5-7.9c-4.3,0-7.4,0.9-10,2.3h-4.7l2.4-10.1c4.1-1.7,8.8-2.8,15.9-2.8
			c13.3,0,19.9,5.8,17,18.7l-6,26h-5.9C555.3,108.1,553,106.4,552.1,103.6z M552.1,97.7l1.8-7.8c-1.2-0.3-2.5-0.6-4.3-0.6
			c-4.6,0-6.8,2.7-6.8,6.4c0,2.7,1.4,4.2,4,4.2C548.9,99.9,550.6,99.1,552.1,97.7z"/>
		<path class="st3" d="M579.4,64.1h6c4.7,0,6.8,2,7,5.9c3.3-3.7,8-6.6,13.5-6.6c7.1,0,12.9,4.6,12.9,16.1c0,17-9,28.1-22.8,28.1
			c-5.3,0-8.5-1.6-10.7-3.5l-4,17.5h-15.1L579.4,64.1z M591.6,76.7v0.2l-4.5,19.5c1.1,0.8,2.7,1.8,5.5,1.8c7.3,0,11-7.3,11-17.4
			c0-4.5-2.1-6.5-5.3-6.5C596.1,74.4,593.9,75.2,591.6,76.7z"/>
		<path class="st3" d="M626.1,64.1h6c4.7,0,6.8,2,7,5.9c3.3-3.7,8-6.6,13.5-6.6c7.1,0,12.9,4.6,12.9,16.1c0,17-9,28.1-22.8,28.1
			c-5.3,0-8.5-1.6-10.7-3.5l-4,17.5h-15.1L626.1,64.1z M638.3,76.7v0.2l-4.5,19.5c1.1,0.8,2.7,1.8,5.5,1.8c7.3,0,11-7.3,11-17.4
			c0-4.5-2.1-6.5-5.3-6.5C642.8,74.4,640.6,75.2,638.3,76.7z"/>
	</g>
</g>
</svg>
