<?xml version="1.0" encoding="utf-8"?>
<!-- Generator: Adobe Illustrator 21.1.0, SVG Export Plug-In . SVG Version: 6.00 Build 0)  -->
<!DOCTYPE svg PUBLIC "-//W3C//DTD SVG 1.1//EN" "http://www.w3.org/Graphics/SVG/1.1/DTD/svg11.dtd">
<svg version="1.1" id="Layer_1" xmlns="http://www.w3.org/2000/svg" xmlns:xlink="http://www.w3.org/1999/xlink" x="0px" y="0px"
	 viewBox="0 0 448 81" style="enable-background:new 0 0 448 81;" xml:space="preserve">
<style type="text/css">
	.st0{fill:#0E313A;}
	.st1{fill:#00A89C;}
</style>
<g>
	<path class="st0" d="M71.3,34.6c-1,0-1.9,0.2-2.8,0.5c-0.9,0.3-1.6,0.9-2.3,1.5c-0.7,0.7-1.2,1.5-1.6,2.5c-0.4,1-0.6,2.1-0.6,3.4
		s0.2,2.4,0.6,3.4c0.4,1,0.9,1.9,1.6,2.6c0.7,0.7,1.5,1.2,2.3,1.6s1.8,0.5,2.8,0.5c1,0,1.8-0.1,2.6-0.4c0.8-0.3,1.4-0.7,1.9-1.1
		c0.5-0.5,1-1,1.3-1.6c0.3-0.6,0.6-1.1,0.7-1.7l6.8,2.3c-0.3,1.2-0.8,2.4-1.5,3.5c-0.7,1.1-1.6,2.2-2.8,3.1
		c-1.1,0.9-2.4,1.6-3.9,2.2c-1.5,0.6-3.2,0.8-5.1,0.8c-2.1,0-4.1-0.4-5.9-1.1c-1.8-0.8-3.4-1.8-4.8-3.2c-1.4-1.4-2.4-3-3.2-4.8
		c-0.8-1.8-1.2-3.9-1.2-6.1s0.4-4.2,1.1-6.1c0.8-1.9,1.8-3.5,3.1-4.8c1.3-1.3,2.9-2.4,4.7-3.1c1.8-0.8,3.7-1.1,5.8-1.1
		c1.9,0,3.7,0.3,5.2,0.8c1.5,0.6,2.9,1.3,4,2.2c1.1,0.9,2,1.9,2.7,3.1c0.7,1.2,1.2,2.3,1.5,3.5l-6.9,2.3c-0.3-1.2-1-2.3-2-3.3
		C74.7,35.2,73.2,34.6,71.3,34.6z"/>
	<path class="st0" d="M87.5,57V14.9h7.7V57H87.5z"/>
	<path class="st0" d="M113.4,27.5c2.1,0,4.1,0.4,6,1.1c1.8,0.8,3.4,1.8,4.8,3.1c1.3,1.3,2.4,2.9,3.1,4.8c0.8,1.9,1.1,3.9,1.1,6.1
		s-0.4,4.2-1.1,6.1c-0.8,1.8-1.8,3.4-3.1,4.8c-1.3,1.4-2.9,2.4-4.8,3.2c-1.8,0.8-3.8,1.1-6,1.1s-4.1-0.4-6-1.1
		c-1.8-0.8-3.4-1.8-4.8-3.2c-1.3-1.4-2.4-3-3.1-4.8c-0.8-1.8-1.1-3.9-1.1-6.1s0.4-4.2,1.1-6.1c0.8-1.9,1.8-3.5,3.1-4.8
		c1.3-1.3,2.9-2.4,4.8-3.1C109.3,27.9,111.3,27.5,113.4,27.5z M113.4,50.8c0.9,0,1.8-0.2,2.7-0.5c0.9-0.3,1.7-0.9,2.3-1.5
		c0.7-0.7,1.2-1.5,1.6-2.5c0.4-1,0.6-2.2,0.6-3.5c0-1.4-0.2-2.5-0.6-3.5c-0.4-1-0.9-1.8-1.6-2.5c-0.7-0.7-1.4-1.2-2.3-1.5
		c-0.9-0.3-1.8-0.5-2.7-0.5s-1.8,0.2-2.7,0.5c-0.9,0.3-1.7,0.9-2.3,1.5c-0.7,0.7-1.2,1.5-1.6,2.5c-0.4,1-0.6,2.2-0.6,3.5
		c0,1.4,0.2,2.5,0.6,3.5c0.4,1,0.9,1.8,1.6,2.5c0.7,0.7,1.4,1.2,2.3,1.5C111.6,50.6,112.5,50.8,113.4,50.8z"/>
	<path class="st0" d="M135.8,47.5c0.1,1.1,0.5,2.1,1.4,3c0.9,0.9,2.1,1.3,3.8,1.3c1.3,0,2.2-0.3,2.8-0.8c0.6-0.6,0.9-1.2,0.9-2
		c0-0.7-0.2-1.2-0.7-1.7c-0.5-0.5-1.3-0.8-2.4-1.1l-3.8-0.9c-2.8-0.6-4.8-1.7-6.1-3.2c-1.3-1.5-1.9-3.3-1.9-5.3
		c0-1.3,0.3-2.5,0.8-3.6c0.5-1.1,1.3-2.1,2.2-3c0.9-0.8,2.1-1.5,3.4-2c1.3-0.5,2.7-0.8,4.3-0.8c2,0,3.7,0.3,5.1,0.8
		c1.4,0.6,2.5,1.3,3.4,2.1c0.9,0.9,1.5,1.8,1.9,2.7c0.4,0.9,0.7,1.8,0.8,2.6l-6.4,1.5c-0.1-0.4-0.2-0.9-0.4-1.3
		c-0.2-0.4-0.5-0.9-0.8-1.2c-0.4-0.4-0.9-0.7-1.4-0.9c-0.6-0.2-1.2-0.3-2.1-0.3c-1,0-1.9,0.3-2.6,0.8c-0.7,0.5-1.1,1.2-1.1,2
		c0,0.7,0.2,1.3,0.7,1.7c0.5,0.4,1.1,0.7,1.9,0.9l4.1,0.9c2.8,0.6,4.9,1.7,6.4,3.3c1.4,1.6,2.1,3.4,2.1,5.5c0,1.2-0.2,2.3-0.7,3.4
		c-0.4,1.1-1.1,2.1-2.1,3c-0.9,0.9-2.1,1.6-3.5,2.1c-1.4,0.5-3,0.8-4.9,0.8c-2.2,0-4-0.3-5.5-0.9c-1.5-0.6-2.7-1.4-3.6-2.3
		c-0.9-0.9-1.6-1.8-2.1-2.9c-0.4-1-0.7-1.9-0.8-2.8L135.8,47.5z"/>
	<path class="st0" d="M181,48.8c-0.3,1.2-0.9,2.4-1.7,3.5s-1.7,2.1-2.8,2.9c-1.1,0.8-2.4,1.5-3.8,1.9c-1.5,0.5-3,0.7-4.8,0.7
		c-2,0-3.9-0.3-5.6-1c-1.8-0.7-3.4-1.7-4.7-3c-1.4-1.3-2.4-2.9-3.2-4.8c-0.8-1.9-1.2-4-1.2-6.4c0-2.3,0.4-4.4,1.2-6.2
		c0.8-1.9,1.8-3.4,3.1-4.7c1.3-1.3,2.8-2.3,4.5-3c1.7-0.7,3.5-1.1,5.3-1.1c4.5,0,7.9,1.3,10.4,3.9c2.5,2.6,3.7,6.3,3.7,10.9
		c0,0.5,0,1.1-0.1,1.5c0,0.5-0.1,0.8-0.1,0.8h-20.4c0,0.9,0.3,1.8,0.7,2.6c0.4,0.8,0.9,1.5,1.6,2.1c0.6,0.6,1.4,1,2.2,1.4
		c0.9,0.3,1.8,0.5,2.7,0.5c1.8,0,3.2-0.4,4.3-1.2c1-0.8,1.8-1.9,2.2-3.1L181,48.8z M173.8,39.4c0-0.7-0.2-1.4-0.4-2.1
		c-0.3-0.7-0.6-1.3-1.2-1.8c-0.5-0.5-1.2-0.9-2-1.3c-0.8-0.3-1.7-0.5-2.8-0.5c-1,0-1.9,0.2-2.7,0.5c-0.8,0.3-1.4,0.8-2,1.3
		c-0.5,0.5-1,1.1-1.2,1.8c-0.3,0.7-0.5,1.3-0.5,2H173.8z"/>
	<path class="st0" d="M211.8,51.8c0,1,0,1.9,0.1,2.9c0,0.9,0.1,1.7,0.2,2.3h-7.4c-0.1-0.3-0.1-0.8-0.2-1.4c-0.1-0.6-0.1-1.3-0.1-1.9
		c-0.7,1.1-1.7,2.1-3,2.8c-1.4,0.8-3,1.2-5,1.2c-2.1,0-3.9-0.4-5.6-1.1c-1.7-0.8-3.2-1.8-4.4-3.1c-1.2-1.3-2.2-2.9-2.9-4.8
		c-0.7-1.8-1-3.8-1-6c0-2.1,0.3-4,1-5.9c0.7-1.8,1.6-3.4,2.8-4.7c1.2-1.3,2.6-2.4,4.3-3.2c1.7-0.8,3.5-1.2,5.5-1.2
		c1.2,0,2.3,0.1,3.2,0.3c0.9,0.2,1.7,0.5,2.4,0.9c0.7,0.3,1.2,0.7,1.6,1.1c0.4,0.4,0.7,0.8,0.9,1.2V14.9h7.6V51.8z M190.2,42.6
		c0,2.6,0.7,4.6,2,6c1.3,1.4,3,2.1,5.1,2.1c2,0,3.6-0.7,5-2.1c1.4-1.4,2-3.4,2-6c0-2.6-0.7-4.5-2-5.9c-1.4-1.4-3-2.1-5-2.1
		c-2,0-3.7,0.7-5,2.1C190.9,38.1,190.2,40,190.2,42.6z"/>
</g>
<path class="st0" d="M54.6,7.2c-1.3,0-2.5,0.8-3,2.1L28,72.8c-0.6,1.6,0.2,3.4,1.9,4.1C30.3,77,30.6,77,31,77c1.3,0,2.5-0.8,3-2.1
	l23.6-63.6c0.6-1.6-0.2-3.4-1.9-4.1C55.3,7.2,55,7.2,54.6,7.2L54.6,7.2z"/>
<path class="st1" d="M424.3,24.4c-0.8,0-1.6,0.3-2.2,0.9c-1.2,1.2-1.2,3.2,0,4.5l12.3,12.3L422,54.4c-1.2,1.2-1.2,3.2,0,4.5
	c0.6,0.6,1.4,0.9,2.2,0.9c0.8,0,1.6-0.3,2.2-0.9L441,44.3c1.2-1.2,1.2-3.2,0-4.5l-14.5-14.5C425.9,24.8,425.1,24.4,424.3,24.4
	L424.3,24.4z"/>
<path class="st0" d="M24.8,24.4c-0.8,0-1.6,0.3-2.2,0.9L8.1,39.9c-1.2,1.2-1.2,3.2,0,4.5l14.5,14.5c0.6,0.6,1.4,0.9,2.2,0.9
	c0.8,0,1.6-0.3,2.2-0.9c1.2-1.2,1.2-3.2,0-4.5L14.8,42.1l12.3-12.3c1.2-1.2,1.2-3.2,0-4.5C26.5,24.8,25.7,24.4,24.8,24.4L24.8,24.4z
	"/>
<path class="st1" d="M228.7,57V28.4h7.4v3.5c0.4-0.7,0.9-1.3,1.5-1.9c0.6-0.5,1.3-1,2.1-1.3s1.5-0.6,2.4-0.8
	c0.8-0.2,1.6-0.3,2.4-0.3c2,0,3.7,0.4,5.2,1.2c1.5,0.8,2.6,2,3.3,3.5c1.1-1.7,2.4-3,3.9-3.7c1.5-0.7,3.2-1.1,5.1-1.1
	c1.3,0,2.6,0.2,3.8,0.6c1.2,0.4,2.3,1.1,3.3,1.9c1,0.9,1.7,2,2.3,3.4c0.6,1.4,0.9,3,0.9,4.9V57h-7.5V40c0-1.5-0.4-2.8-1.2-3.9
	c-0.8-1-2.1-1.5-3.9-1.5c-1.7,0-3,0.6-3.9,1.7c-0.9,1.1-1.4,2.4-1.4,4V57h-7.7V40c0-1.5-0.4-2.8-1.2-3.9c-0.8-1-2.1-1.5-3.8-1.5
	c-1.7,0-3,0.5-3.9,1.6c-0.9,1.1-1.4,2.4-1.4,4V57H228.7z"/>
<path class="st1" d="M275.5,49.2c0-1.3,0.2-2.4,0.7-3.4c0.4-1,1.1-1.8,1.8-2.6c0.8-0.7,1.7-1.3,2.7-1.7c1-0.4,2.1-0.7,3.3-0.9l7-1
	c0.8-0.1,1.4-0.4,1.7-0.7c0.3-0.4,0.5-0.8,0.5-1.3c0-1-0.4-1.9-1.2-2.6c-0.8-0.7-2-1.1-3.6-1.1c-1.7,0-3,0.5-3.9,1.4
	c-0.9,0.9-1.4,2-1.5,3.3l-6.9-1.5c0.1-1.1,0.5-2.2,1-3.4c0.6-1.1,1.4-2.1,2.4-3c1-0.9,2.2-1.6,3.7-2.2c1.5-0.6,3.2-0.8,5.1-0.8
	c2.2,0,4.2,0.3,5.8,0.9c1.6,0.6,2.9,1.4,3.9,2.4c1,1,1.7,2.1,2.1,3.5c0.4,1.3,0.7,2.7,0.7,4.1v14.1c0,0.8,0,1.6,0.1,2.5
	c0.1,0.9,0.2,1.6,0.2,2.1h-7.1c-0.1-0.4-0.1-0.9-0.2-1.6c-0.1-0.7-0.1-1.3-0.1-1.8c-0.7,1.1-1.8,2.1-3.2,3c-1.4,0.9-3.1,1.3-5.3,1.3
	c-1.5,0-2.9-0.2-4.1-0.7c-1.2-0.5-2.3-1.1-3.1-1.9c-0.9-0.8-1.5-1.7-1.9-2.7C275.8,51.4,275.5,50.3,275.5,49.2z M287,52
	c0.8,0,1.6-0.1,2.4-0.3c0.8-0.2,1.4-0.6,2-1.1c0.6-0.5,1-1.2,1.4-2c0.3-0.8,0.5-1.9,0.5-3.2v-1.3l-6.4,1c-1,0.2-1.8,0.5-2.5,1.1
	c-0.7,0.6-1,1.4-1,2.5c0,0.9,0.3,1.6,0.9,2.3C284.8,51.7,285.8,52,287,52z"/>
<path class="st1" d="M315,28.4h6.2v6.9H315v12c0,1.2,0.3,2.1,0.8,2.6c0.6,0.5,1.4,0.7,2.5,0.7c0.5,0,0.9,0,1.4-0.1
	c0.5,0,0.8-0.1,1-0.2v6.4c-0.3,0.2-0.9,0.3-1.6,0.5c-0.7,0.2-1.6,0.2-2.8,0.2c-2.8,0-5-0.8-6.6-2.3c-1.6-1.5-2.4-3.7-2.4-6.5V35.2
	h-5.2v-6.9h1.5c1.5,0,2.6-0.4,3.3-1.3c0.7-0.9,1.1-1.9,1.1-3.2v-4h7V28.4z"/>
<path class="st1" d="M333.8,28.4h5.7v6.9h-5.7v12c0,1.2,0.3,2.1,0.8,2.6c0.6,0.5,1.4,0.7,2.5,0.7c0.5,0,0.9,0,1.4-0.1
	c0.5,0,0.8-0.1,1-0.2v6.4c-0.3,0.2-0.9,0.3-1.6,0.5c-0.7,0.2-1.6,0.2-2.8,0.2c-2.8,0-5-0.8-6.6-2.3c-1.6-1.5-2.4-3.7-2.4-6.5V35.2
	H321v-6.9h1.5c1.5,0,2.6-0.4,3.3-1.3c0.7-0.9,1.1-1.9,1.1-3.2v-4h7V28.4z"/>
<path class="st1" d="M368.5,48.8c-0.3,1.2-0.9,2.4-1.7,3.5c-0.8,1.1-1.7,2.1-2.8,2.9c-1.1,0.8-2.4,1.5-3.8,1.9
	c-1.5,0.5-3,0.7-4.8,0.7c-2,0-3.9-0.3-5.6-1c-1.8-0.7-3.3-1.7-4.7-3c-1.4-1.3-2.4-2.9-3.2-4.8c-0.8-1.9-1.2-4-1.2-6.4
	c0-2.3,0.4-4.4,1.2-6.2c0.8-1.9,1.8-3.4,3.1-4.7c1.3-1.3,2.8-2.3,4.5-3c1.7-0.7,3.5-1.1,5.3-1.1c4.5,0,7.9,1.3,10.4,3.9
	c2.5,2.6,3.7,6.3,3.7,10.9c0,0.5,0,1.1-0.1,1.5c0,0.5-0.1,0.8-0.1,0.8h-20.4c0,0.9,0.3,1.8,0.7,2.6c0.4,0.8,0.9,1.5,1.6,2.1
	c0.6,0.6,1.4,1,2.2,1.4c0.9,0.3,1.8,0.5,2.7,0.5c1.8,0,3.2-0.4,4.3-1.2c1-0.8,1.8-1.9,2.2-3.1L368.5,48.8z M361.3,39.4
	c0-0.7-0.2-1.4-0.4-2.1c-0.3-0.7-0.6-1.3-1.2-1.8c-0.5-0.5-1.2-0.9-2-1.3c-0.8-0.3-1.7-0.5-2.8-0.5c-1,0-1.9,0.2-2.7,0.5
	c-0.8,0.3-1.4,0.8-2,1.3c-0.5,0.5-1,1.1-1.2,1.8c-0.3,0.7-0.5,1.3-0.5,2H361.3z"/>
<path class="st1" d="M389.6,36c-0.8-0.2-1.5-0.2-2.3-0.2c-1,0-2,0.1-2.8,0.4c-0.9,0.3-1.7,0.7-2.3,1.3c-0.7,0.6-1.2,1.4-1.6,2.5
	c-0.4,1-0.6,2.3-0.6,3.9V57h-7.7V28.4h7.5v4.2c0.4-0.9,1-1.7,1.7-2.3c0.7-0.6,1.4-1.1,2.1-1.4c0.8-0.3,1.5-0.5,2.3-0.6
	c0.8-0.1,1.4-0.2,2.1-0.2c0.3,0,0.6,0,0.9,0c0.3,0,0.6,0,0.9,0.1V36z"/>
<path class="st1" d="M396.5,47.5c0.1,1.1,0.5,2.1,1.4,3c0.9,0.9,2.1,1.3,3.8,1.3c1.3,0,2.2-0.3,2.8-0.8c0.6-0.6,0.9-1.2,0.9-2
	c0-0.7-0.2-1.2-0.7-1.7c-0.5-0.5-1.3-0.8-2.4-1.1l-3.8-0.9c-2.8-0.6-4.8-1.7-6.1-3.2c-1.3-1.5-1.9-3.3-1.9-5.3
	c0-1.3,0.3-2.5,0.8-3.6c0.5-1.1,1.3-2.1,2.2-3c0.9-0.8,2.1-1.5,3.4-2c1.3-0.5,2.7-0.8,4.3-0.8c2,0,3.7,0.3,5.1,0.8
	c1.4,0.6,2.5,1.3,3.4,2.1c0.9,0.9,1.5,1.8,1.9,2.7c0.4,0.9,0.7,1.8,0.8,2.6l-6.4,1.5c-0.1-0.4-0.2-0.9-0.4-1.3
	c-0.2-0.4-0.5-0.9-0.8-1.2c-0.4-0.4-0.9-0.7-1.4-0.9c-0.6-0.2-1.2-0.3-2.1-0.3c-1,0-1.9,0.3-2.6,0.8c-0.7,0.5-1.1,1.2-1.1,2
	c0,0.7,0.2,1.3,0.7,1.7c0.5,0.4,1.1,0.7,1.9,0.9l4.1,0.9c2.8,0.6,4.9,1.7,6.4,3.3c1.4,1.6,2.1,3.4,2.1,5.5c0,1.2-0.2,2.3-0.7,3.4
	c-0.4,1.1-1.1,2.1-2.1,3c-0.9,0.9-2.1,1.6-3.5,2.1c-1.4,0.5-3,0.8-4.9,0.8c-2.2,0-4-0.3-5.5-0.9c-1.5-0.6-2.7-1.4-3.6-2.3
	c-0.9-0.9-1.6-1.8-2.1-2.9c-0.4-1-0.7-1.9-0.8-2.8L396.5,47.5z"/>
</svg>
