<?xml version="1.0" encoding="utf-8"?>
<!-- Generator: Adobe Illustrator 21.1.0, SVG Export Plug-In . SVG Version: 6.00 Build 0)  -->
<!DOCTYPE svg PUBLIC "-//W3C//DTD SVG 1.1//EN" "http://www.w3.org/Graphics/SVG/1.1/DTD/svg11.dtd">
<svg version="1.1" id="Layer_1" xmlns="http://www.w3.org/2000/svg" xmlns:xlink="http://www.w3.org/1999/xlink" x="0px" y="0px"
	 viewBox="0 0 588.6 222.6" style="enable-background:new 0 0 588.6 222.6;" xml:space="preserve">
<g id="Layer_1_1_">
	<g>
		<path d="M90.7,207.6c-0.4,0-0.4-1.6,0-1.6H106c0.8,0,1.2-0.2,1.2-0.8V136H49.4v69.2c0,0.6,0.4,0.8,1.4,0.8h15.3
			c0.4,0,0.4,1.6,0,1.6H9.8c-0.4,0-0.4-1.6,0-1.6h17.1c0.8,0,1.2-0.2,1.2-0.8V71c0-0.4-0.4-0.8-1.2-0.8H9.8c-0.4,0-0.4-1.6,0-1.6
			h56.3c0.4,0,0.4,1.6,0,1.6H50.8c-1,0-1.4,0.4-1.4,0.8v63.5h57.8V71c0-0.4-0.4-0.8-1.2-0.8H90.7c-0.4,0-0.4-1.6,0-1.6h56.4
			c0.4,0,0.4,1.6,0,1.6h-17.2c-0.8,0-1.2,0.4-1.2,0.8v134.3c0,0.6,0.4,0.8,1.2,0.8h17.2c0.4,0,0.4,1.6,0,1.6L90.7,207.6L90.7,207.6z
			"/>
		<path d="M201.2,210.9c-35.1,0-63.7-32.5-63.7-72.7c0-39,26.7-72.9,63.7-72.9c35.3,0,63.7,32.5,63.7,72.9
			C264.9,178.4,236.5,210.9,201.2,210.9z M225.9,74.3c-6.7-5.7-14.7-7.4-24.7-7.4s-18,1.8-24.7,7.4c-10.4,9.6-16.1,29.6-16.1,63.9
			c0,39.2,5.7,54.3,16.1,63.7c6.7,5.7,14.7,7.6,24.7,7.6s18-2,24.7-7.6c10.6-9.4,16.3-24.5,16.3-63.7
			C242.2,103.9,236.5,83.9,225.9,74.3z"/>
		<path d="M372.7,70.2c-0.8,0-1.2,0.4-1.2,0.8v95.5c0,27-14.3,44.5-47,44.5c-29.4,0-50.4-14.5-50.4-43.7V71c0-0.4-0.4-0.8-1.2-0.8
			h-17.2c-0.4,0-0.4-1.6,0-1.6h58.4c0.4,0,0.4,1.6,0,1.6h-17.2c-0.8,0-1.2,0.4-1.2,0.8v96.2c0,27.6,11.4,40.6,33.7,40.6
			c28.2,0,40.6-16.9,40.6-41.4V71c0-0.4-0.4-0.8-1.2-0.8h-16.9c-0.4,0-0.4-1.6,0-1.6h38c0.4,0,0.4,1.6,0,1.6H372.7z"/>
		<path d="M425.3,210.9c-14.5,0-23.1-8-31.9-8c-5.5,0-10,3.9-10.8,7.6c0,0.4-1.2,0.4-1.2,0v-43.3c0-0.6,1.2-0.6,1.2,0
			c0,15.7,17.1,42.3,42.5,42.3c22.5,0,35.9-14.7,35.9-27.4c0-18.8-13.1-25.7-43.1-36.5c-18.4-6.9-32.9-16.7-32.9-39.8
			c0-21.6,16.9-40.6,36.7-40.6c10.8,0,17.1,5.3,24.9,5.3c5.7,0,7.6-2.5,8-4.7c0-0.6,1.4-0.6,1.4,0v32.5c0,0.4-1.4,0.4-1.4,0
			c0-18.6-16.9-31.6-32.7-31.6c-15.5,0-27.4,12.3-27.4,25.7c0,14.1,12,24.3,36.5,33.1c25.3,9,41.2,18.2,41.2,42.1
			C471.9,185.2,456,210.9,425.3,210.9z"/>
		<path d="M574.6,207.6H464.9c-0.4,0-0.4-1.6,0-1.6h17c0.8,0,1.2-0.2,1.2-0.8V71c0-0.4-0.4-0.8-1.2-0.8h-17c-0.4,0-0.4-1.6,0-1.6
			h99.6c0.4,0,0.6,0.4,0.6,0.6v35.5c0,0.6-1.6,0.6-1.6,0c0-18.2-9.2-34.5-33.7-34.5h-23.9c-0.8,0-1.2,0.4-1.2,0.8v64.5h9.4
			c15.7,0,24.5-8.8,24.5-22.3c0-0.4,1.4-0.4,1.4,0v46.3c0,0.6-1.4,0.6-1.4,0c0-13.3-8.8-22.3-24.5-22.3h-9.4v68.2
			c0,0.6,0.4,0.8,1.2,0.8h24.5c32.3,0,43.5-18.2,43.5-38.4c0-0.4,1.4-0.4,1.4,0V207C575.2,207.4,575,207.6,574.6,207.6z"/>
		<g>
			<path d="M48.3,60.5c-0.1-0.8-1.2-2-3.2-2c-3.2,0-8.1,2.2-11.9,2.2C19.8,60.7,9.9,49,9.9,35.5s9.6-25.2,23-25.2
				c3.4,0,7.4,1.8,10.7,1.8c2,0,3.4-0.9,3.5-1.6c0-0.1,0.5-0.1,0.5,0v13.8c0,0.1-0.5,0.1-0.5,0c0-6.7-7.3-13.5-14.2-13.5
				c-3.2,0-6.6,0.6-8.9,2.6c-3.8,3.3-5.9,10.2-5.9,22.1c0,11.8,2,18.8,5.9,22c2.3,2,6.1,2.6,9.3,2.6c8.6,0,15.1-6.4,15.1-15.3
				c0-0.1,0.6-0.1,0.6,0v15.7C48.8,60.6,48.3,60.6,48.3,60.5z"/>
			<path d="M73.8,60.7c-12.6,0-23-11.3-23-25.2c0-13.5,9.6-25.2,23-25.2c12.7,0,23,11.3,23,25.2S86.6,60.7,73.8,60.7z M82.7,13.4
				c-2.4-2-5.3-2.6-8.9-2.6c-3.6,0-6.5,0.6-8.9,2.6c-3.7,3.3-5.8,10.2-5.8,22.1c0,13.6,2,18.8,5.8,22c2.4,2,5.3,2.6,8.9,2.6
				c3.6,0,6.5-0.7,8.9-2.6c3.8-3.3,5.9-8.5,5.9-22C88.6,23.6,86.6,16.7,82.7,13.4z"/>
			<path d="M136.4,12c-0.3,0-0.4,0.1-0.4,0.3v33c0,9.4-5.2,15.4-17,15.4c-10.6,0-18.2-5-18.2-15.1V12.3c0-0.1-0.1-0.3-0.4-0.3h-6.2
				c-0.1,0-0.1-0.5,0-0.5h21.1c0.1,0,0.1,0.5,0,0.5h-6.2c-0.3,0-0.4,0.1-0.4,0.3v33.3c0,9.6,4.1,14,12.2,14
				c10.2,0,14.6-5.8,14.6-14.3v-33c0-0.1-0.1-0.3-0.4-0.3h-6.2c-0.1,0-0.1-0.5,0-0.5h13.7c0.1,0,0.1,0.5,0,0.5L136.4,12L136.4,12z"
				/>
			<path d="M180.7,12c-0.3,0-0.4,0.1-0.4,0.3v48.2c0,0.2-0.5,0.3-0.7,0l-32.7-47.9v46.2c0,0.2,0.1,0.3,0.4,0.3h6.2
				c0.1,0,0.1,0.5,0,0.5h-13.8c-0.1,0-0.1-0.5,0-0.5h6.2c0.3,0,0.4-0.1,0.4-0.3V12.3c0-0.1-0.1-0.3-0.4-0.3h-6.2
				c-0.1,0-0.1-0.5,0-0.5h14.8c0.5,0,0.9,0.3,1.6,1.2l23.6,34.7V12.3c0-0.1-0.1-0.3-0.4-0.3h-6.1c-0.2,0-0.2-0.5,0-0.5h13.7
				c0.1,0,0.1,0.5,0,0.5L180.7,12L180.7,12z"/>
			<path d="M227.6,25.9c0-7.9-4-14-14.2-14h-1.5c-0.3,0-0.4,0.1-0.4,0.3v46.5c0,0.2,0.1,0.3,0.4,0.3h6.2c0.1,0,0.1,0.5,0,0.5h-21
				c-0.1,0-0.1-0.5,0-0.5h6.1c0.3,0,0.4-0.1,0.4-0.3V12.2c0-0.1-0.1-0.3-0.4-0.3h-1.3c-10.2,0-13.9,6.1-13.9,14c0,0.1-0.6,0.1-0.6,0
				V11.6c0-0.1,0.1-0.2,0.2-0.2h40.3c0.1,0,0.1,0.1,0.1,0.2v14.3C228.1,26.1,227.6,26.1,227.6,25.9z"/>
			<path d="M272.8,60.7c-5.8,0-10.3-3.5-10.3-13.2v-4.4c0-6-4.8-8.3-11.2-8.3h-6.9v23.9c0,0.2,0.1,0.3,0.5,0.3h7.9
				c0.1,0,0.1,0.5,0,0.5h-22.7c-0.1,0-0.1-0.5,0-0.5h6.2c0.3,0,0.4-0.1,0.4-0.3V12.2c0-0.1-0.1-0.3-0.4-0.3h-6.2
				c-0.1,0-0.1-0.5,0-0.5h21.5c10.5,0,16.9,5.2,16.9,11.8c0,6.3-6.8,11.3-15.2,11.3c11.9,0,17.4,5.3,17.4,13.2v6.1
				c0,3.5,1.6,6,4.2,6c1.8,0,3.3-0.8,4.2-1.8c0.1-0.1,0.5,0.3,0.4,0.4C277.9,59.7,275.8,60.7,272.8,60.7z M249.7,12h-4.9
				c-0.4,0-0.5,0.1-0.5,0.3v22h6.9c6.9,0,9.3-2.1,9.3-10.7C260.6,15,256.3,12,249.7,12z"/>
			<path d="M308.8,12c-0.4,0-0.8,0.3-2.2,3.1l-11,22.7v21c0,0.2,0.1,0.3,0.4,0.3h6.2c0.1,0,0.1,0.5,0,0.5h-21.1
				c-0.1,0-0.1-0.5,0-0.5h6.2c0.4,0,0.5-0.1,0.5-0.3V38.7l-13.9-26.5c-0.1-0.1-0.3-0.3-0.6-0.3h-6.4c-0.1,0-0.1-0.5,0-0.5h23.3
				c0.1,0,0.1,0.5,0,0.5h-7.4c-0.3,0-0.3,0.1-0.2,0.3l13,24.6l10.6-22c1.3-2.6,1.3-2.8,0.8-2.8h-6.9c-0.1,0-0.1-0.5,0-0.5h14.1
				c0.1,0,0.1,0.5,0,0.5H308.8z"/>
			<path d="M360.3,33.9c-3.5,0-5.2,1.3-5.5,5.1c-0.4,5.2-2.3,10.2-4.7,13.8c0.5,0.8,0.4,0.5,0.8,1.2c1.6,2.4,5.2,4.2,7.1,4.2
				c0.4,0,0.8-0.1,1.1-0.2c1.8-0.7,2.8-2,3.3-3.3c0.1-0.1,0.4,0.2,0.4,0.3c-1.6,3.5-6.1,5.5-10.2,5.5c-2.7,0-5.2-1.1-7.6-3.3
				c-3.7,2.2-7.7,3.3-11.9,3.3c-9,0-15.8-5.8-15.8-14c0-7,4.2-12.4,11.7-17.1c-0.8-2.4-1.2-4.6-1.2-6.6c0-7.9,4.3-12.8,9.9-12.8
				c4.5,0,5.9,2.4,5.9,5.6c0,3.3-3.1,7-8.3,9.8c2.7,8.3,9.3,18.9,14.5,26.6c2.3-3.5,4.2-8.5,4.5-13.3c0.2-3.7-1.5-5.1-5.2-5.1h-2.6
				c-0.1,0-0.1-0.5,0-0.5h16.6c0.1,0,0.1,0.5,0,0.5h-2.8V33.9z M340.6,51.8c-4.2-6.6-9.1-14.7-11.6-21.8c-2.9,2.3-5.6,6.3-5.6,10.8
				c0,10.2,5.5,17.6,15.2,17.6c2.5,0,4-0.5,6-1.5C343.2,55.6,342,54,340.6,51.8z M338.6,11.1c-2.3,0-4.7,1.8-4.7,6.3
				c0,2.4,0.3,5,1.1,7.7c4.5-2.4,7.9-5.9,7.9-9.2C343,13,341.7,11.1,338.6,11.1z"/>
			<path d="M410,25.9c0-7.9-4-14-14.2-14h-1.5c-0.3,0-0.4,0.1-0.4,0.3v46.5c0,0.2,0.1,0.3,0.4,0.3h6.2c0.1,0,0.1,0.5,0,0.5h-21
				c-0.1,0-0.1-0.5,0-0.5h6.1c0.3,0,0.4-0.1,0.4-0.3V12.2c0-0.1-0.1-0.3-0.4-0.3h-1.4c-10.2,0-13.9,6.1-13.9,14c0,0.1-0.6,0.1-0.6,0
				V11.6c0-0.1,0.1-0.2,0.2-0.2h40.3c0.1,0,0.1,0.1,0.1,0.2v14.3C410.5,26.1,410,26.1,410,25.9z"/>
			<path d="M434.4,60.7c-12.6,0-23-11.3-23-25.2c0-13.5,9.6-25.2,23-25.2c12.7,0,23,11.3,23,25.2C457.3,49.4,447.1,60.7,434.4,60.7z
				 M443.3,13.4c-2.4-2-5.3-2.6-8.9-2.6c-3.6,0-6.5,0.6-8.9,2.6c-3.7,3.3-5.8,10.2-5.8,22.1c0,13.6,2,18.8,5.8,22
				c2.4,2,5.3,2.6,8.9,2.6c3.6,0,6.5-0.7,8.9-2.6c3.8-3.3,5.9-8.5,5.9-22C449.1,23.6,447.1,16.7,443.3,13.4z"/>
			<path d="M521.9,12c-0.4,0-0.8,0.3-1.8,2.8L504,60.5c-0.1,0.1-0.6,0.1-0.7,0l-13.4-35.4l-12.6,35.4c-0.1,0.3-0.5,0.2-0.6,0
				l-19.6-48.3c-0.1-0.1-0.3-0.3-0.6-0.3h-6.4c-0.2,0-0.2-0.5,0-0.5h22c0.1,0,0.1,0.5,0,0.5h-6.2c-0.3,0-0.4,0.1-0.3,0.3l15.1,37.6
				l8.9-25.5L485,12.2c0-0.1-0.5-0.3-0.6-0.3H479c-0.1,0-0.1-0.5,0-0.5h21.8c0.1,0,0.1,0.5,0,0.5h-7.3c-0.4,0-0.4,0.1-0.4,0.3
				l14.1,37.9l12.5-35.7c0.8-2.2,0.8-2.5,0.3-2.5h-6.5c-0.1,0-0.1-0.5,0-0.5h14.2c0.1,0,0.1,0.5,0,0.5h-5.8V12z"/>
			<path d="M565,12c-0.3,0-0.4,0.1-0.4,0.3v48.2c0,0.2-0.5,0.3-0.7,0l-32.7-47.9v46.2c0,0.2,0.1,0.3,0.4,0.3h6.2
				c0.1,0,0.1,0.5,0,0.5h-13.9c-0.1,0-0.1-0.5,0-0.5h6.2c0.3,0,0.4-0.1,0.4-0.3V12.3c0-0.1-0.1-0.3-0.4-0.3h-6.2
				c-0.1,0-0.1-0.5,0-0.5h14.8c0.5,0,0.9,0.3,1.6,1.2l23.6,34.7V12.3c0-0.1-0.1-0.3-0.4-0.3h-6.1c-0.2,0-0.2-0.5,0-0.5h13.8
				c0.1,0,0.1,0.5,0,0.5L565,12L565,12z"/>
		</g>
	</g>
</g>
<g id="Layer_2">
</g>
</svg>
