<?xml version="1.0" encoding="utf-8"?>
<!-- Generator: Adobe Illustrator 21.1.0, SVG Export Plug-In . SVG Version: 6.00 Build 0)  -->
<!DOCTYPE svg PUBLIC "-//W3C//DTD SVG 1.1//EN" "http://www.w3.org/Graphics/SVG/1.1/DTD/svg11.dtd">
<svg version="1.1" id="Layer_1" xmlns="http://www.w3.org/2000/svg" xmlns:xlink="http://www.w3.org/1999/xlink" x="0px" y="0px"
	 viewBox="0 0 296 108" style="enable-background:new 0 0 296 108;" xml:space="preserve">
<style type="text/css">
	.st0{fill:#231F20;}
	.st1{fill:#231F20;stroke:#FFFFFF;stroke-width:1.3854;stroke-miterlimit:10;}
	.st2{fill:#231F20;stroke:#FFFFFF;stroke-width:1.8472;stroke-miterlimit:10;}
</style>
<path class="st0" d="M92.3,4.3C90.8,4.6,88.1,5,83,4.9c-11.4-0.2-9.1,10.7-9.1,10.7l0.8,0.8l0.3,1c8,4.4,12.3-0.8,13.9-5.3
	c1.1-3.2,3.2-5.4,4.4-6.8C92.8,5,92.5,4.7,92.3,4.3z"/>
<path class="st0" d="M26.6,58.3v28.3c0,2.3,0.1,4.1,0.2,5.4c0.2,1.3,0.4,2.2,0.7,2.9c0.3,0.6,0.7,1,1.2,1.2c0.5,0.2,1.1,0.3,1.7,0.3
	c0.9,0.2,1.8,0.3,2.7,0.4c0.9,0.1,1.9,0.5,3,1.1c0.6,0.2,0.8,0.6,0.6,1.1c-0.2,0.5-0.7,0.8-1.3,0.8c-4.7,0-9.3,0.1-14,0.3
	c-4.7,0.2-9.3,0.2-14,0.1c-0.8,0-1.2-0.3-1.2-0.9c0-0.6,0.3-1,1.1-1.2c1.6-0.3,2.9-0.7,3.9-1.1c0.9-0.4,1.6-1,2.1-1.7
	s0.8-1.7,0.9-2.9c0.1-1.2,0.2-2.7,0.2-4.6V13.5c0-1.3-0.1-2.4-0.4-3.1c-0.3-0.7-0.6-1.3-1.1-1.7c-0.5-0.4-1-0.6-1.6-0.8
	c-0.6-0.1-1.1-0.2-1.7-0.3C8.7,7.5,7.8,7.4,7.1,7.2C6.3,7,5.7,6.5,5.3,5.7C5,5.3,4.9,5,5.2,4.7c0.2-0.3,0.7-0.4,1.3-0.4
	c4.5,0,9-0.1,13.5-0.2c4.5-0.1,9,0,13.5,0.3c0.8,0.1,1.2,0.4,1.2,1.1c0,0.6-0.4,1-1.2,1.1c-1.9,0.2-3.5,1-4.8,2.5
	c-1.3,1.5-2,3.2-2,5c-0.1,4.2-0.1,17.9,0,22.6c0.1,4.7,0.2,9.3,0.2,13.8"/>
<path class="st0" d="M96.5,97.1c-3,0.1-6.3-1-10-3.3c-3.7-2.3-7.6-5.1-11.4-8.5c-3.9-3.4-7.8-7.2-11.6-11.2
	c-3.9-4-7.4-7.9-10.7-11.4c-1.9-2-3.8-4-5.4-6c-1.1-1.2-2.1-2.3-3-3.3c-0.5,0.6-1.1,1.2-1.8,1.8c-0.5,0.4-1,0.9-1.4,1.4
	c-1.5,1.8-4.2,2.7-6.5,2.7c0,0,0,0-0.1,0c1.4,1.3,2.7,2.8,4.1,4.4c1.7,2,3.6,4.1,5.6,6.4c3.2,3.6,6.5,7.3,10,11
	c3.5,3.8,7.1,7.2,10.7,10.3c3.6,3.1,7.3,5.7,11,7.7c3.7,2,7.4,3,11,3c3.7,0,7.1-1,10.3-2.9L96.5,97.1z"/>
<path class="st1" d="M62.2,26.3c0,0,1.8-13.7,17.5-10.7C79.8,15.6,79.4,26.4,62.2,26.3z"/>
<path class="st0" d="M66.5,22.7c0,0,2.6,14.5-15.6,14.5"/>
<path class="st0" d="M57.6,34.1c0,0,2.6,14.5-15.6,14.5"/>
<path class="st2" d="M41.9,48.6c0,0,1.7-14,17.6-13.2C59.6,35.4,60.2,48.6,41.9,48.6z"/>
<path class="st1" d="M50.9,37.1c0,0,5.6-13.9,21.6-13.1C72.4,24,69.1,37.1,50.9,37.1z"/>
<path class="st1" d="M41.9,49.4c0,0,2.1-14.9,18.1-14C60,35.4,59.6,46.4,41.9,49.4z"/>
<path class="st1" d="M34.2,60.9c0,0,2.2-13.8,18.1-15.1C52.3,45.8,52.2,58.4,34.2,60.9z"/>
<path class="st0" d="M81.4,7.2c0,0,1.9-2.4,2.8-2.3c0.9,0,6.5-0.2,8.3-0.6c1.8-0.4,1.4,0.2,0.5,1.1c-0.8,1-1.9,2.3-1.9,2.3"/>
<path class="st0" d="M94.2,59.6c-0.2,0-0.4,0-0.6,0c-0.3,0-0.6,0-0.9,0c-0.3,0-0.6,0-0.9,0c0,0-0.1,0-0.1-0.1c0,0,0-0.1,0-0.1
	c0.3-0.1,0.5-0.3,0.6-0.5c0.1-0.2,0.2-0.5,0.2-0.7v-6.9c0-0.3-0.1-0.4-0.3-0.5c-0.2-0.1-0.4-0.2-0.6-0.2c0,0,0,0,0-0.1
	c0,0,0-0.1,0.1-0.1c0.2,0,0.5,0,0.7,0c0.2,0,0.5,0,0.7,0c0.2,0,0.5,0,0.7,0c0.2,0,0.5,0,0.7-0.1c0,0,0.1,0,0.1,0c0,0,0,0.1,0,0.1
	c-0.2,0.1-0.4,0.1-0.6,0.2c-0.1,0.1-0.2,0.3-0.2,0.5v6.8c0,0.4,0.1,0.7,0.2,0.9c0.2,0.2,0.4,0.3,0.8,0.3v0.1
	C94.6,59.7,94.4,59.7,94.2,59.6z"/>
<path class="st0" d="M111.7,52.1C111.7,52.1,111.7,52.1,111.7,52.1c-0.1,0-0.1,0-0.1,0c0-0.4-0.1-0.6-0.3-0.8s-0.5-0.2-0.8-0.2
	c-0.2,0-0.3,0-0.4,0c-0.1,0-0.3,0-0.4,0.1c-0.1,0-0.2,0-0.4,0.1c-0.1,0-0.3,0-0.4,0v3.3h2.2c0.1,0,0.2,0,0.3-0.1
	c0.1-0.1,0.2-0.1,0.2-0.2c0,0,0,0,0.1,0c0,0,0,0,0,0.1c0,0.3-0.1,0.6-0.1,0.9c0,0.3-0.1,0.6-0.1,0.9c0,0,0,0-0.1,0
	c0,0-0.1,0-0.1-0.1c0-0.4-0.1-0.6-0.3-0.8c-0.2-0.1-0.5-0.2-0.8-0.2h-1.4v3.3c0,0.1,0,0.3,0.1,0.4c0.1,0.1,0.1,0.3,0.2,0.4
	c0.1,0.1,0.2,0.2,0.3,0.3c0.1,0.1,0.3,0.1,0.4,0.1v0.1h-0.1c-0.1,0-0.2,0-0.3,0c-0.1,0-0.2,0-0.3,0c-0.1,0-0.2,0-0.3,0
	c-0.1,0-0.2,0-0.3,0c-0.1,0-0.2,0-0.3,0c-0.1,0-0.2,0-0.3,0c-0.1,0-0.3,0-0.4,0c-0.1,0-0.3,0-0.4,0h-0.1c0,0-0.1,0-0.1-0.1
	s0-0.1,0-0.1c0.2,0,0.4-0.1,0.5-0.1c0.1,0,0.2-0.1,0.2-0.2c0.1-0.1,0.1-0.2,0.1-0.3c0-0.1,0-0.3,0-0.5v-6.9c0-0.3,0-0.4-0.1-0.5
	c-0.1-0.1-0.2-0.1-0.3-0.1c-0.1,0-0.1,0-0.2-0.1c-0.1,0-0.2-0.1-0.3-0.1c0,0,0,0,0-0.1c0,0,0,0,0.1,0c0.7,0,1.4,0.1,2.1,0.1h1.2
	c0.1,0,0.1,0,0.2,0c0.1,0,0.1,0,0.2,0c0.3,0,0.5,0,0.8,0c0.3,0,0.5-0.1,0.7-0.2c0,0,0,0,0.1,0c0,0,0,0.1,0,0.1L111.7,52.1z"/>
<path class="st0" d="M129.2,58.8c0,0.2-0.1,0.5-0.1,0.7c0,0,0,0-0.1,0l0,0c-0.1,0-0.2,0-0.2,0c-0.3,0-0.5,0-0.8,0
	c-0.3,0-0.5,0-0.8,0c-0.2,0-0.4,0-0.6,0c-0.2,0-0.4,0-0.6,0c-0.3,0-0.6,0-0.9,0c-0.3,0-0.6,0-0.9,0v-0.1c0.2,0,0.3,0,0.4-0.1
	c0.1-0.1,0.2-0.2,0.2-0.3c0.1-0.1,0.1-0.2,0.1-0.4c0-0.1,0-0.3,0-0.4v-6.9c0-0.2-0.1-0.4-0.2-0.4c-0.1-0.1-0.2-0.1-0.3-0.2
	c-0.1,0-0.1,0-0.2-0.1c-0.1,0-0.2-0.1-0.3-0.1c0,0,0,0,0-0.1c0,0,0,0,0.1,0h4.7c0,0,0.1,0,0.1-0.1c0,0,0.1,0,0.1-0.1
	c0.1,0,0.1,0,0.1,0.1c0,0.3-0.1,0.6-0.1,0.8c-0.1,0.2-0.1,0.5-0.2,0.8c0,0,0,0-0.1,0c0,0-0.1,0-0.1-0.1c0-0.4-0.2-0.6-0.4-0.8
	c-0.2-0.1-0.5-0.2-0.9-0.2H126v3.4h1.9c0.1,0,0.1,0,0.2,0c0.1,0,0.2-0.1,0.3-0.1c0.1-0.1,0.2-0.1,0.4-0.1c0.1,0,0.1,0,0.1,0.1
	c0,0.1,0,0.3,0,0.4c0,0.2,0,0.3-0.1,0.4c0,0.1,0,0.3,0,0.4c0,0.1,0,0.3-0.1,0.4c0,0,0,0.1,0,0.1c0,0-0.1,0-0.1,0
	c-0.1-0.1-0.1-0.1-0.1-0.2c0-0.1,0-0.1-0.1-0.2c0-0.1,0-0.1-0.1-0.2c0-0.1-0.1-0.1-0.1-0.2c-0.1-0.1-0.2-0.1-0.3-0.1
	c-0.1,0-0.3,0-0.5-0.1c-0.2,0-0.3,0-0.5,0c-0.2,0-0.3,0-0.4,0H126v3.4c0.2,0.2,0.4,0.4,0.7,0.6c0.3,0.1,0.6,0.2,0.9,0.2
	c0.4,0,0.7-0.1,1-0.3c0.3-0.2,0.5-0.5,0.5-0.9l0.1,0C129.2,58.3,129.2,58.5,129.2,58.8z"/>
<path class="st0" d="M164.7,59.8c-0.2,0.1-0.4,0.1-0.5,0.1c-0.4,0-0.7-0.1-1.1-0.3c-0.4-0.2-0.8-0.5-1.2-0.8
	c-0.4-0.3-0.8-0.7-1.1-1.1c-0.4-0.4-0.7-0.8-1-1.2c-0.3-0.3-0.5-0.5-0.7-0.8c-0.2-0.2-0.4-0.4-0.6-0.6c0,0.5,0,1.1,0,1.6
	c0,0.5,0,1,0,1.6c0,0.2,0,0.3,0,0.5c0,0.1,0.1,0.2,0.1,0.3c0,0.1,0.1,0.1,0.2,0.2c0.1,0,0.1,0.1,0.2,0.1c0.1,0,0.2,0,0.3,0.1
	c0.1,0,0.2,0.1,0.3,0.1c0,0,0,0.1,0,0.1c0,0,0,0.1-0.1,0c-0.1,0-0.1,0-0.2,0c-0.1,0-0.1,0-0.2,0c-0.4,0-0.8,0-1.1,0
	c-0.2,0-0.5,0-0.7,0c-0.2,0-0.5,0-0.7,0.1c0,0-0.1,0-0.1-0.1c0,0,0-0.1,0-0.1c0.2,0,0.4-0.1,0.5-0.1c0.1-0.1,0.2-0.1,0.2-0.2
	c0-0.1,0.1-0.2,0.1-0.3c0-0.1,0-0.3,0-0.5v-6.8c0-0.2-0.1-0.4-0.3-0.5c-0.2-0.1-0.4-0.2-0.6-0.3c0,0,0,0,0-0.1c0,0,0-0.1,0.1-0.1
	c0.1,0,0.2,0,0.4,0c0.1,0,0.2,0,0.4,0c0.1,0,0.3,0,0.4,0c0.1,0,0.3,0,0.4,0c0.2,0,0.4,0,0.6,0c0.2,0,0.4,0,0.6,0c0,0,0,0,0.1,0
	c0,0,0.1,0,0.1,0c0,0,0,0,0,0.1c0,0,0,0.1,0,0.1c-0.2,0-0.4,0.1-0.6,0.3c-0.2,0.2-0.2,0.4-0.2,0.6c0,0.6,0,1.1,0,1.5
	c0,0.5,0,1,0,1.5c0.1-0.2,0.3-0.3,0.5-0.5c0.2-0.2,0.4-0.4,0.6-0.5c0.2-0.2,0.5-0.5,0.7-0.7c0.2-0.2,0.5-0.5,0.7-0.7
	c0.2-0.2,0.4-0.5,0.5-0.7c0.1-0.2,0.2-0.4,0.2-0.6c0-0.1,0-0.2-0.1-0.3c0-0.1,0-0.1,0-0.1c0.2,0,0.4,0,0.6,0c0.2,0,0.4,0,0.6,0
	c0.2,0,0.4,0,0.5,0c0.2,0,0.4,0,0.5,0c0,0,0.1,0,0.1,0.1c0,0,0,0.1,0,0.1c-0.3,0-0.5,0.1-0.8,0.3c-0.3,0.2-0.6,0.4-0.9,0.7
	c-0.3,0.3-0.6,0.6-0.9,0.9c-0.3,0.3-0.6,0.6-0.8,0.9c-0.2,0.2-0.4,0.4-0.6,0.6c-0.2,0.2-0.4,0.4-0.5,0.5c0.2,0.2,0.3,0.3,0.5,0.5
	c0.2,0.2,0.4,0.4,0.6,0.7c0.4,0.4,0.7,0.8,1.1,1.2c0.4,0.4,0.8,0.8,1.2,1.2c0.4,0.4,0.8,0.7,1.2,0.9c0.4,0.2,0.8,0.3,1.1,0.3l0,0.1
	C165.1,59.7,164.9,59.8,164.7,59.8z"/>
<path class="st0" d="M179.6,59.6c-0.2,0-0.4,0-0.6,0c-0.3,0-0.6,0-0.9,0c-0.3,0-0.6,0-0.9,0c0,0-0.1,0-0.1-0.1c0,0,0-0.1,0-0.1
	c0.3-0.1,0.5-0.3,0.6-0.5c0.1-0.2,0.2-0.5,0.2-0.7v-6.9c0-0.3-0.1-0.4-0.3-0.5c-0.2-0.1-0.4-0.2-0.6-0.2c0,0,0,0,0-0.1
	c0,0,0-0.1,0.1-0.1c0.2,0,0.5,0,0.7,0s0.5,0,0.7,0c0.2,0,0.5,0,0.7,0c0.2,0,0.5,0,0.7-0.1c0,0,0.1,0,0.1,0c0,0,0,0.1,0,0.1
	c-0.2,0.1-0.4,0.1-0.6,0.2c-0.1,0.1-0.2,0.3-0.2,0.5v6.8c0,0.4,0.1,0.7,0.2,0.9c0.2,0.2,0.4,0.3,0.8,0.3v0.1
	C180,59.7,179.8,59.7,179.6,59.6z"/>
<path class="st0" d="M201.8,50.7C201.8,50.7,201.8,50.7,201.8,50.7c-0.2,0.1-0.4,0.1-0.5,0.2c-0.2,0.1-0.3,0.2-0.3,0.3l0,4v0.7
	c0,0.6,0,1.3,0,1.9c0,0.6-0.1,1.3-0.1,1.9c0,0,0,0,0,0.1c0,0-0.1,0-0.1,0c-0.5-0.5-1.1-0.9-1.6-1.5c-0.5-0.5-1.1-1.1-1.6-1.6
	c-0.5-0.5-1-1.1-1.5-1.7c-0.5-0.6-1-1.1-1.4-1.6c-0.2-0.2-0.3-0.3-0.4-0.5s-0.3-0.3-0.4-0.5c0,0.3,0,0.6,0,0.9c0,0.4,0,0.8,0,1.3
	c0,0.4,0,0.8,0,1.3c0,0.4,0,0.8,0,1.3s0,0.8,0,1.3c0,0.2,0,0.3,0,0.5c0,0.1,0.1,0.2,0.1,0.3s0.1,0.1,0.2,0.1c0.1,0,0.1,0,0.2,0.1
	c0.1,0,0.2,0,0.3,0.1c0.1,0,0.2,0.1,0.3,0.2c0,0,0,0,0,0.1c0,0,0,0-0.1,0c-0.1,0-0.2,0-0.3,0c-0.1,0-0.2,0-0.3,0
	c-0.2,0-0.3,0-0.5-0.1c-0.2,0-0.3,0-0.5,0c-0.2,0-0.4,0-0.6,0c-0.2,0-0.4,0.1-0.6,0.1c0,0-0.1,0-0.1,0c0,0,0-0.1,0-0.1
	c0.1-0.1,0.2-0.1,0.2-0.2c0.1,0,0.1-0.1,0.2-0.1c0.1-0.1,0.3-0.2,0.4-0.3c0.1-0.1,0.2-0.3,0.2-0.6v-7.8l0.1-0.3c0,0,0,0,0,0
	c0,0,0,0,0,0c1.2,1.3,2.4,2.5,3.5,3.7c1.1,1.2,2.3,2.5,3.4,3.8v0c0-0.5,0-1,0-1.5c0-0.5,0-1,0-1.5c0-0.5,0-1,0-1.5c0-0.5,0-1,0-1.5
	c0-0.2,0-0.3-0.1-0.5c0-0.1-0.1-0.2-0.2-0.3c-0.1-0.1-0.1-0.1-0.2-0.1c-0.1,0-0.2,0-0.2-0.1c-0.1,0-0.2,0-0.2,0
	c-0.1,0-0.1-0.1-0.2-0.1c0,0,0,0,0-0.1c0,0,0,0,0.1,0c0.3,0,0.5,0.1,0.7,0.1c0.2,0,0.5,0,0.7,0c0.1,0,0.3,0,0.4,0c0.1,0,0.3,0,0.5,0
	c0.1,0,0.1,0,0.2,0c0.1,0,0.1,0,0.2,0L201.8,50.7C201.8,50.7,201.8,50.7,201.8,50.7z"/>
<path class="st0" d="M222.1,55.5c-0.2,0.1-0.2,0.3-0.2,0.5V59c0,0,0,0,0,0.1c-0.4,0.3-0.9,0.5-1.4,0.6c-0.5,0.1-1,0.1-1.5,0.1
	c-0.8,0-1.5-0.1-2.1-0.3c-0.6-0.2-1.2-0.5-1.7-0.9c-0.5-0.4-0.8-0.9-1.1-1.5c-0.3-0.6-0.4-1.3-0.4-2.2c0-0.7,0.1-1.4,0.4-1.9
	c0.3-0.6,0.6-1,1.1-1.4c0.5-0.4,1-0.7,1.6-0.9c0.6-0.2,1.3-0.3,1.9-0.3c0.4,0,0.8,0,1.2,0.1c0.4,0,0.8,0.1,1.1,0.2
	c0.2,0,0.3,0,0.4,0.1c0.1,0,0.3,0,0.4,0.1c0,0,0.1,0,0.1,0.1c0,0.3,0,0.6-0.1,0.9c0,0.3-0.1,0.6-0.1,0.8c0,0.1,0,0.1,0,0.2
	c0,0.1,0,0.1,0,0.2c0,0,0,0-0.1,0s-0.1,0-0.1,0c-0.1-0.4-0.2-0.7-0.3-0.9c-0.2-0.3-0.4-0.5-0.6-0.6c-0.2-0.2-0.5-0.3-0.8-0.4
	c-0.3-0.1-0.6-0.1-1-0.1c-0.6,0-1.1,0.1-1.6,0.3c-0.5,0.2-0.9,0.5-1.3,0.8c-0.4,0.3-0.6,0.7-0.8,1.2c-0.2,0.5-0.3,1-0.3,1.6
	c0,0.6,0.1,1.2,0.3,1.8c0.2,0.6,0.5,1,0.9,1.4c0.4,0.4,0.9,0.7,1.4,1c0.5,0.2,1.1,0.4,1.7,0.4c0.3,0,0.5,0,0.8-0.1
	c0.3-0.1,0.5-0.2,0.7-0.4v-2.8c0-0.2-0.1-0.3-0.2-0.4c-0.1-0.1-0.2-0.1-0.4-0.2c-0.1,0-0.1,0-0.2-0.1c-0.1,0-0.1-0.1-0.2-0.1
	c0,0,0,0,0-0.1c0,0,0,0,0.1,0c1,0,1.9,0,2.9,0l0,0.1C222.4,55.3,222.3,55.4,222.1,55.5z"/>
<path class="st0" d="M243.3,57.1c-0.3,0.6-0.6,1.1-1.1,1.5c-0.5,0.4-1,0.7-1.6,0.9c-0.6,0.2-1.4,0.3-2.1,0.3c-0.3,0-0.6,0-0.9,0
	c-0.3,0-0.6,0-0.9-0.1c-0.3,0-0.6,0-1-0.1c-0.3,0-0.7,0-1,0c0,0-0.1,0-0.1-0.1c0,0,0-0.1,0-0.1c0.4-0.1,0.6-0.2,0.7-0.4
	c0.1-0.2,0.1-0.4,0.1-0.8v-6.9c0-0.3-0.1-0.4-0.2-0.5c-0.1-0.1-0.3-0.1-0.4-0.1c-0.1,0-0.1,0-0.2-0.1c-0.1,0-0.1-0.1-0.1-0.1
	c0-0.1,0-0.1,0-0.1c0.1,0,0.3,0,0.4,0c0.1,0,0.3,0,0.4,0c0.2,0,0.3,0,0.5,0c0.2,0,0.4,0,0.6,0c0.2,0,0.4,0,0.7,0
	c0.2,0,0.4,0,0.7-0.1c0.2,0,0.4,0,0.7,0c0.2,0,0.4,0,0.7,0c0.6,0,1.2,0.1,1.8,0.3c0.5,0.2,1,0.6,1.4,1c0.4,0.4,0.7,0.9,0.9,1.4
	s0.3,1.1,0.3,1.8C243.6,55.8,243.5,56.5,243.3,57.1z M242.2,53.6c-0.2-0.5-0.5-1-0.9-1.4c-0.4-0.4-0.9-0.7-1.4-0.9
	c-0.6-0.2-1.2-0.3-1.8-0.3c-0.2,0-0.4,0-0.7,0c-0.2,0-0.4,0.1-0.6,0.1v6.6c0,0.3,0,0.6,0.1,0.8c0.1,0.2,0.2,0.3,0.3,0.4
	c0.1,0.1,0.3,0.2,0.5,0.2c0.2,0,0.5,0,0.8,0c0.6,0,1.2-0.1,1.7-0.2c0.5-0.2,0.9-0.4,1.3-0.7c0.4-0.3,0.6-0.7,0.8-1.2
	c0.2-0.5,0.3-1,0.3-1.7C242.5,54.8,242.4,54.1,242.2,53.6z"/>
<path class="st0" d="M264.6,57.2c-0.3,0.5-0.6,1-1,1.4c-0.4,0.4-0.9,0.7-1.5,0.9c-0.6,0.2-1.2,0.3-1.8,0.3c-0.5,0-1.1-0.1-1.6-0.4
	c-0.6-0.3-1.1-0.6-1.5-1c-0.5-0.4-0.9-0.9-1.2-1.4c-0.3-0.5-0.5-1-0.5-1.6c0-0.8,0.1-1.5,0.2-2.1c0.1-0.6,0.4-1.1,0.7-1.5
	c0.3-0.4,0.8-0.7,1.3-1c0.5-0.3,1.2-0.5,2-0.6l0.2,0c0.7-0.1,1.4,0,2,0.3c0.6,0.3,1.1,0.6,1.6,1.1c0.5,0.5,0.8,1,1.1,1.7
	c0.3,0.6,0.4,1.3,0.4,2C265,56,264.9,56.6,264.6,57.2z M263.6,53.7c-0.2-0.5-0.4-1-0.7-1.5c-0.3-0.4-0.7-0.8-1.2-1
	c-0.5-0.3-1-0.4-1.6-0.4c-0.6,0-1.1,0.1-1.5,0.3c-0.4,0.2-0.8,0.5-1.1,0.8c-0.3,0.4-0.5,0.8-0.7,1.2c-0.2,0.5-0.2,1-0.2,1.5
	c0,0.6,0.1,1.1,0.2,1.6c0.2,0.5,0.4,1,0.7,1.5c0.3,0.4,0.7,0.8,1.2,1.1c0.5,0.3,1,0.4,1.6,0.4c0.6,0,1.1-0.1,1.5-0.3
	s0.8-0.5,1.1-0.9c0.3-0.4,0.5-0.8,0.7-1.3c0.1-0.5,0.2-1,0.2-1.5C263.9,54.8,263.8,54.3,263.6,53.7z"/>
<path class="st0" d="M288.8,59.6c-0.4,0-0.9,0-1.3,0c-0.4,0-0.9,0-1.3,0c-0.1,0-0.1,0-0.1-0.1c0,0,0,0,0-0.1s0,0,0-0.1
	c0-0.1,0.1-0.2,0.1-0.3c0-0.1,0-0.2,0-0.3c0-0.6,0-1.3-0.1-1.9c-0.1-0.6-0.1-1.2-0.2-1.9c0-0.4-0.1-0.7-0.1-1c0-0.3-0.1-0.6-0.1-1
	c-0.4,0.8-0.8,1.6-1.2,2.4c-0.4,0.8-0.8,1.6-1.2,2.5c-0.1,0.3-0.3,0.6-0.4,0.8c-0.1,0.3-0.3,0.5-0.4,0.8c0,0,0,0,0,0c0,0,0,0-0.1,0
	c-0.5-0.7-0.9-1.4-1.3-2.2s-0.7-1.5-1.1-2.2c-0.2-0.4-0.3-0.7-0.5-1.1c-0.1-0.3-0.3-0.7-0.5-1c0,0.3-0.1,0.5-0.1,0.8
	c0,0.3-0.1,0.5-0.1,0.8c-0.1,0.7-0.2,1.4-0.2,2c-0.1,0.7-0.1,1.4-0.1,2.1c0,0.2,0,0.3,0.1,0.4c0.1,0.1,0.2,0.1,0.4,0.2
	c0,0,0.1,0,0.2,0.1c0.1,0,0.1,0,0.1,0.1c0,0,0,0,0,0.1c0,0,0,0-0.1,0c-0.2,0-0.3,0-0.5,0c-0.1,0-0.3,0-0.5,0c-0.2,0-0.3,0-0.5,0
	c-0.2,0-0.3,0-0.5,0c-0.1,0-0.2,0-0.3,0c-0.1,0-0.2,0-0.3,0c0,0-0.1,0-0.1,0c0,0,0-0.1,0-0.1c0.1,0,0.2,0,0.2,0c0.1,0,0.2,0,0.3-0.1
	c0.1,0,0.2-0.1,0.2-0.2c0,0,0.1-0.2,0.1-0.4s0.1-0.6,0.1-1c0-0.4,0.1-0.8,0.2-1.3c0.1-0.5,0.1-1,0.2-1.5c0.1-0.5,0.1-1,0.2-1.5
	c0.1-0.5,0.1-1,0.1-1.4c0-0.4,0.1-0.7,0.1-1c0-0.3,0-0.5,0.1-0.6c0,0,0-0.1,0-0.1c0,0,0.1,0,0.1,0c0.1,0.1,0.3,0.4,0.6,0.9
	c0.2,0.4,0.5,0.9,0.8,1.5s0.6,1.2,0.9,1.8c0.3,0.6,0.6,1.2,0.8,1.8c0.2,0.4,0.3,0.7,0.5,1c0.1,0.3,0.2,0.5,0.3,0.7
	c0.2-0.4,0.4-0.7,0.5-1.2c0.2-0.4,0.4-0.8,0.5-1.2c0.4-0.9,0.8-1.8,1.2-2.7c0.4-0.9,0.9-1.7,1.4-2.5c0,0,0,0,0.1,0c0,0,0,0,0,0.1
	c0,0.1,0,0.3,0.1,0.6c0,0.2,0,0.5,0.1,0.8c0,0.4,0.1,0.9,0.1,1.3c0,0.5,0.1,1,0.2,1.5c0.1,0.5,0.1,1,0.2,1.5
	c0.1,0.5,0.1,0.9,0.2,1.3c0.1,0.4,0.1,0.7,0.2,1c0.1,0.3,0.1,0.4,0.2,0.5c0.1,0.2,0.2,0.3,0.3,0.3c0.1,0.1,0.2,0.1,0.4,0.1
	c0.1,0,0.2,0,0.2,0c0.1,0,0.2,0,0.3,0.1L288.8,59.6z"/>
</svg>
