<?xml version="1.0" encoding="utf-8"?>
<!-- Generator: Adobe Illustrator 21.1.0, SVG Export Plug-In . SVG Version: 6.00 Build 0)  -->
<!DOCTYPE svg PUBLIC "-//W3C//DTD SVG 1.1//EN" "http://www.w3.org/Graphics/SVG/1.1/DTD/svg11.dtd">
<svg version="1.1" id="Layer_1" xmlns="http://www.w3.org/2000/svg" xmlns:xlink="http://www.w3.org/1999/xlink" x="0px" y="0px"
	 viewBox="0 0 405 117" style="enable-background:new 0 0 405 117;" xml:space="preserve">
<style type="text/css">
	.st0{fill:#231F20;}
	.st1{fill-rule:evenodd;clip-rule:evenodd;}
</style>
<path class="st0" d="M19.4,22.2h11.1v44.3H19.4V22.2z"/>
<path class="st0" d="M81.3,33.2H48v33.3H36.9V22.2h55.5v44.3H81.3V33.2z"/>
<path class="st0" d="M99.4,22.2h55.5v11.1h-44.4v5.5h44.4v11.1H99.4V22.2z M99.4,55.5h55.5v11.1H99.4V55.5z"/>
<path class="st0" d="M154.8,66.6H99.4V55.5h44.4V50H99.4V38.9h55.5V66.6z M154.8,33.3H99.4V22.2h55.5V33.3z"/>
<path class="st0" d="M161.9,22.2H173v44.3h-11.1V22.2z"/>
<path class="st0" d="M223.8,33.2h-33.3v33.3h-11.1V22.2H235v44.3h-11.1V33.2z"/>
<path class="st0" d="M253,55.4h44.4v11.1h-55.5V22.2h55.5v11.1H253V55.4z"/>
<g id="I3tosL.tif_8_">
	<g>
		<path class="st1" d="M375.4,28.2c0,7.3,0,14.5,0,21.8c-0.2,0.1-0.3-0.2-0.4-0.3c-8.7-8.7-17.5-17.5-26.2-26.2
			c-0.1-0.1-0.3-0.3-0.4-0.5c-0.1-0.1-0.4-0.2-0.3-0.4c1.5-0.2,2.9-0.3,4.5-0.4C362.1,21.8,369.6,24.6,375.4,28.2z"/>
		<path class="st1" d="M360.5,38.7c-12.8,0-25.7,0-38.5,0c0-0.1,0.2-0.4,0.4-0.7c4.5-6,10.9-11,18.9-13.6c1.2-0.4,2.5-1,3.7-1.1
			c0.1,0,0.1-0.1,0.2-0.1c0.6,0.2,1.5,1.4,2,1.9c4.4,4.4,8.8,8.7,13.1,13.1C360.3,38.3,360.5,38.5,360.5,38.7z"/>
		<path class="st1" d="M377.8,68.4c0-12.8,0-25.7,0-38.5c0-0.1,0-0.1,0,0c6.8,5.1,12.2,11.9,14.9,21.2c0.2,0.6,0.5,1.5,0.5,1.9
			c0,0.5-1.5,1.7-1.9,2.1c-4.4,4.4-8.7,8.7-13.1,13.1C378.2,68.2,378,68.4,377.8,68.4z"/>
		<path class="st1" d="M314.2,63.6c0-0.9,0-1.9,0-2.8c0.4-8.2,2.7-14.5,6.1-19.7c7.3,0,14.5,0,21.8,0c-8.9,8.8-17.9,18.2-26.9,27
			c-0.1,0.1-0.3,0.4-0.5,0.2C314.5,66.8,314.3,65.2,314.2,63.6z"/>
		<path class="st1" d="M330.7,94.5c-0.2,0.1-0.4-0.2-0.7-0.4c-6.5-5-11.7-11.7-14.3-20.7c-0.2-0.6-0.5-1.5-0.5-1.9
			c0-0.5,1.4-1.5,1.9-2c4.5-4.5,9.2-9.2,13.5-13.6C330.8,68.6,330.7,81.6,330.7,94.5z"/>
		<path class="st1" d="M388.3,83.3c-7.2,0-14.5,0-21.7,0c-0.1-0.2,0.2-0.3,0.3-0.4c4.3-4.4,8.8-8.8,13.2-13.2
			c4.6-4.6,9.2-9.2,13.8-13.7c0,0,0,0,0.1,0.1C395.5,66.9,392.5,76.8,388.3,83.3z"/>
		<path class="st1" d="M333.2,74.4c8.9,9.1,18.2,17.8,27,27c0.1,0.1,0.4,0.2,0.3,0.4c-10.9,1.6-20.8-1.4-27.3-5.6
			C333.2,88.9,333.2,81.7,333.2,74.4z"/>
		<path class="st1" d="M386.6,85.7c0,0.3-0.3,0.5-0.4,0.7c-5,6.5-11.7,11.7-20.7,14.3c-0.6,0.2-1.5,0.5-1.9,0.5
			c-0.5,0-1.5-1.3-2-1.9c-4.5-4.5-9.2-9.2-13.6-13.5C360.7,85.7,373.7,85.8,386.6,85.7z"/>
	</g>
</g>
<path class="st0" d="M32.9,84h2.3v17h-2.4V87.8l-5.2,6.6h-0.4l-5.3-6.6V101h-2.4V84h2.3l5.6,7L32.9,84z"/>
<path class="st0" d="M90.6,84h9.6v2.2h-7.2v5.2h7v2.2h-7v5.3h7.4v2.2h-9.9V84z"/>
<path class="st0" d="M154.9,101V84h5.7c2.3,0,4.1,0.3,5.5,1c1.3,0.7,2.4,1.7,3.2,3.1c0.8,1.3,1.2,2.8,1.2,4.4c0,1.1-0.2,2.2-0.7,3.3
	c-0.4,1-1.1,2-1.9,2.7c-0.8,0.8-1.8,1.4-2.9,1.8c-0.6,0.3-1.2,0.4-1.8,0.5c-0.5,0.1-1.6,0.1-3.1,0.1H154.9z M160.4,86.2h-3v12.6h3.1
	c1.2,0,2.2-0.1,2.8-0.2c0.7-0.2,1.2-0.4,1.7-0.6c0.5-0.3,0.9-0.6,1.2-0.9c1.2-1.2,1.8-2.8,1.8-4.6c0-1.8-0.6-3.3-1.8-4.5
	c-0.5-0.4-1-0.8-1.6-1.1c-0.6-0.3-1.1-0.5-1.7-0.5C162.4,86.2,161.6,86.2,160.4,86.2z"/>
<path class="st0" d="M225.4,84h2.4v17h-2.4V84z"/>
<path class="st0" d="M288.8,83.9h1.7l7.6,17.1h-2.5l-2.3-5h-7.2l-2.1,5h-2.5L288.8,83.9z M292.4,93.8l-2.7-6.2l-2.5,6.2H292.4z"/>
</svg>
