<?xml version="1.0" encoding="utf-8"?>
<!-- Generator: Adobe Illustrator 21.1.0, SVG Export Plug-In . SVG Version: 6.00 Build 0)  -->
<!DOCTYPE svg PUBLIC "-//W3C//DTD SVG 1.1//EN" "http://www.w3.org/Graphics/SVG/1.1/DTD/svg11.dtd">
<svg version="1.1" id="Layer_1" xmlns="http://www.w3.org/2000/svg" xmlns:xlink="http://www.w3.org/1999/xlink" x="0px" y="0px"
	 viewBox="0 0 182 155" style="enable-background:new 0 0 182 155;" xml:space="preserve">
<style type="text/css">
	.st0{fill:#232323;}
	.st1{fill:#DA7B77;}
	.st2{fill:#F1D271;}
	.st3{fill:#EADA85;}
	.st4{fill:#BF5E5E;}
	.st5{fill:#A04748;}
	.st6{fill:#231F20;}
	.st7{fill:#833435;}
	.st8{fill:#FBEBAB;}
	.st9{fill:#DF9C8D;}
	.st10{fill:#5B2020;}
	.st11{fill:#C87363;}
	.st12{fill:#D78077;}
	.st13{opacity:9.000000e-02;fill:#FFFFFF;}
	.st14{fill:#FFFFFF;}
</style>
<g>
	<g>
		<g>
			<path class="st0" d="M45.4,114.7c-1.3,0-2.2,1-2.2,2.2v10c0,2.4-2,4.3-4.4,4.3c-2.4,0-4.3-1.9-4.3-4.3v-10c0-1.2-1-2.2-2.2-2.2
				c-1.2,0-2.2,1-2.2,2.2v10c0,4.8,3.9,8.7,8.7,8.7c4.8,0,8.8-3.9,8.8-8.7v-10C47.6,115.7,46.5,114.7,45.4,114.7z"/>
			<path class="st0" d="M69.2,114.5c-0.9-0.9-2.4-0.9-3.3,0l-8.5,8.5v-14.4c0-1.3-1-2.3-2.3-2.3c-1.3,0-2.3,1-2.3,2.3v24.6
				c0,1.3,1,2.3,2.3,2.3c1.3,0,2.3-1,2.3-2.3v-3.7l2.3-2.3l6.1,7.4c0.4,0.5,1.1,0.8,1.8,0.8c0.5,0,1-0.2,1.5-0.5
				c1-0.8,1.1-2.3,0.3-3.3l-6.4-7.7l6.3-6.3C70.1,116.9,70.1,115.4,69.2,114.5z"/>
			<path class="st0" d="M80.4,114.7c-5.7,0-10.1,4.8-10.2,10.4c0,5.7,4.5,10.4,10.2,10.4c3,0,5.4-0.9,7.5-2.8c1-0.9,0.5-2.1,0-2.7
				c-0.5-0.7-2.3-0.8-3.1,0.1c-1,0.8-2.8,1.2-4.3,1c-1.5-0.1-3.1-0.9-4-1.9c-0.8-0.7-1.2-1.8-1.4-2.8h13.3c1.2,0,2-0.7,2.2-1.7
				c0-0.1,0-0.3,0-0.4c0-0.1,0-0.2,0-0.2C90.1,118.7,85.9,114.7,80.4,114.7z M74.8,123c0.3-1.7,2.1-4.3,5.6-4.4
				c3.6,0.3,5.8,2.8,6.2,4.4H74.8z"/>
			<path class="st0" d="M103.9,114.7c-2,0-4,0.7-5.6,1.7v-7.8c0-1.2-1-2.3-2.3-2.3c-1.3,0-2.3,1-2.3,2.3v16.5c0,0,0,0,0,0v8.1
				c0,1.2,1,2.3,2.3,2.3c1.1,0,2-0.8,2.2-1.8c1.6,1.1,3.6,1.8,5.7,1.8c5.6,0,10.1-4.8,10.1-10.4C114,119.4,109.5,114.7,103.9,114.7z
				 M107.8,129.2c-1,1.1-2.4,1.7-3.9,1.7c-1.5,0-2.9-0.6-3.9-1.7c-1-1-1.7-2.5-1.7-4.1c0-1.7,0.6-3.2,1.7-4.2c1-1.1,2.4-1.7,3.9-1.7
				c1.5,0,2.9,0.6,3.9,1.7c1,1,1.7,2.5,1.7,4.2C109.5,126.7,108.9,128.2,107.8,129.2z"/>
			<path class="st0" d="M127,114.7c-2.9,0-5.3,1.2-7.2,3.2c-1.8,2-2.9,4.5-2.9,7.3c0,2.9,1.1,5.5,2.9,7.3c1.9,2,4.3,3.2,7.2,3.2
				c2.8,0,5.3-1.2,7-3.2c1.9-1.8,2.9-4.4,2.9-7.3c0-2.8-1-5.3-2.9-7.3C132.3,115.9,129.8,114.7,127,114.7z M130.9,129.5
				c-1,1-2.4,1.5-3.8,1.5c-1.6,0-3-0.5-4-1.5c-1-1.2-1.5-2.6-1.5-4.4c0-1.7,0.5-3.2,1.5-4.3c1-0.9,2.4-1.6,4-1.6
				c1.5,0,2.8,0.7,3.8,1.6c1,1.1,1.6,2.6,1.6,4.3C132.5,126.9,131.9,128.4,130.9,129.5z"/>
			<path class="st0" d="M153.8,115.4c-1-0.7-2.4-0.5-3.2,0.5l-4.2,5.6l-4.2-5.6c-0.7-1-2-1.2-3-0.5c-1,0.7-1.2,2.1-0.5,3l5,6.8
				l-5,6.9c-0.7,0.9-0.5,2.4,0.5,3c0.4,0.3,0.9,0.5,1.3,0.5c0.7,0,1.3-0.4,1.7-0.9l4.2-5.7l4.2,5.7c0.5,0.5,1.2,0.9,1.8,0.9
				c0.5,0,0.9-0.2,1.3-0.5c0.9-0.6,1.1-2.1,0.4-3l-5-6.9l5-6.8C154.9,117.4,154.7,116,153.8,115.4z"/>
			<path class="st1" d="M169.7,125.2l5-6.8c0.7-0.9,0.5-2.3-0.4-3c-1-0.7-2.4-0.5-3.2,0.5l-4.2,5.6l-4.2-5.6c-0.8-1-2-1.2-3-0.5
				c-1,0.7-1.2,2.1-0.5,3l5,6.8l-5,6.9c-0.7,0.9-0.5,2.4,0.5,3c0.4,0.3,0.9,0.5,1.3,0.5c0.7,0,1.3-0.4,1.7-0.9l4.2-5.7l4.2,5.7
				c0.5,0.5,1.2,0.9,1.8,0.9c0.5,0,0.9-0.2,1.3-0.5c0.9-0.6,1.1-2.1,0.4-3L169.7,125.2z"/>
		</g>
		<g>
			<path class="st0" d="M43.2,126.8c0,2.4-2,4.3-4.4,4.3c-2.4,0-4.3-1.9-4.3-4.3v-5.1c-1.5-0.2-3-0.4-4.4-0.6v5.6
				c0,4.8,3.9,8.7,8.7,8.7c4.8,0,8.8-3.9,8.8-8.7v-3.7c-1.5-0.1-3-0.3-4.4-0.4V126.8z"/>
			<path class="st0" d="M52.8,133.2c0,1.3,1,2.3,2.3,2.3c1.3,0,2.3-1,2.3-2.3v-3.7l2.3-2.3l6.1,7.4c0.4,0.5,1.1,0.8,1.8,0.8
				c0.5,0,1-0.2,1.5-0.5c1-0.8,1.1-2.3,0.3-3.3l-6.2-7.5c-3.5-0.2-7-0.4-10.4-0.7V133.2z"/>
			<path class="st0" d="M70.3,125.1c0,5.7,4.5,10.4,10.2,10.4c3,0,5.4-0.9,7.5-2.8c1-0.9,0.5-2.1,0-2.7c-0.5-0.7-2.3-0.8-3.1,0.1
				c-1,0.8-2.8,1.2-4.3,1c-1.5-0.1-3.1-0.9-4-1.9c-0.8-0.7-1.2-1.8-1.4-2.8h13.3c1.1,0,1.9-0.6,2.1-1.4c-6.8-0.1-13.6-0.2-20.1-0.5
				C70.3,124.8,70.3,124.9,70.3,125.1z"/>
			<path class="st0" d="M109.5,125.1c0,1.6-0.6,3.1-1.7,4.1c-1,1.1-2.4,1.7-3.9,1.7c-1.5,0-2.9-0.6-3.9-1.7c-1-1-1.6-2.5-1.7-4.1
				c-0.8,0-1.5,0-2.3,0c-0.8,0-1.5,0-2.3,0v8.1c0,1.2,1,2.3,2.3,2.3c1.1,0,2-0.8,2.2-1.8c1.6,1.1,3.6,1.8,5.7,1.8
				c5.6,0,10.1-4.8,10.1-10.4c0-0.1,0-0.1,0-0.2C112.5,124.9,111,125,109.5,125.1C109.5,125.1,109.5,125.1,109.5,125.1z"/>
			<path class="st0" d="M132.5,125.1c0,1.8-0.6,3.3-1.6,4.4c-1,1-2.4,1.5-3.8,1.5c-1.6,0-3-0.5-4-1.5c-1-1.2-1.5-2.6-1.5-4.4
				c0-0.2,0-0.3,0-0.5c-1.5,0.1-3,0.1-4.5,0.2c0,0.1,0,0.2,0,0.3c0,2.9,1.1,5.5,2.9,7.3c1.9,2,4.3,3.2,7.2,3.2c2.8,0,5.3-1.2,7-3.2
				c1.9-1.8,2.9-4.4,2.9-7.3c0-0.5,0-0.9-0.1-1.4c-1.5,0.1-2.9,0.2-4.4,0.3C132.4,124.4,132.5,124.7,132.5,125.1z"/>
			<path class="st0" d="M143.8,125.2l-5,6.9c-0.7,0.9-0.5,2.4,0.5,3c0.4,0.3,0.9,0.5,1.3,0.5c0.7,0,1.3-0.4,1.7-0.9l4.2-5.7l4.2,5.7
				c0.5,0.5,1.2,0.9,1.8,0.9c0.5,0,0.9-0.2,1.3-0.5c0.9-0.6,1.1-2.1,0.4-3l-5-6.9l2-2.7c-2.9,0.3-5.8,0.6-8.8,0.8L143.8,125.2z"/>
			<path class="st1" d="M167.7,120.4l-0.8,1l-0.6-0.8c-1.6,0.2-3.2,0.5-4.9,0.7l2.9,3.9l-5,6.9c-0.7,0.9-0.5,2.4,0.5,3
				c0.4,0.3,0.9,0.5,1.3,0.5c0.7,0,1.3-0.4,1.7-0.9l4.2-5.7l4.2,5.7c0.5,0.5,1.2,0.9,1.8,0.9c0.5,0,0.9-0.2,1.3-0.5
				c0.9-0.6,1.1-2.1,0.4-3l-5-6.9l4.2-5.7C171.8,119.7,169.8,120.1,167.7,120.4z"/>
		</g>
	</g>
	<path class="st2" d="M22.2,111.5c0.5,0.4,1,0.6,1.6,0.6c0.2,0,0.5,0,0.7-0.1l12.1-3.3c1.2-0.3,2-1.3,2-2.6v-3.9
		c0-0.8-0.4-1.6-1-2.1c-0.6-0.5-1.5-0.7-2.3-0.5L23.2,103c-1.2,0.3-2,1.3-2,2.6v3.9C21.2,110.3,21.6,111,22.2,111.5z M24.2,105.8
		l11.4-3.1v3.2L24.2,109V105.8z"/>
	<path class="st0" d="M24,114.7c-1.2,0-2.3,1-2.3,2.3V131c-1.2-0.6-2.5-1-4-1c-4.6,0-8.4,3.8-8.4,8.4c0,4.6,3.8,8.4,8.4,8.4
		c4.6,0,8.4-3.8,8.4-8.4v-5.1c0,0,0,0,0,0v-16.4C26.2,115.7,25.3,114.7,24,114.7z M17.8,142.7c-2.3,0-4.2-1.9-4.2-4.2
		c0-2.3,1.9-4.2,4.2-4.2c2.3,0,4.2,1.9,4.2,4.2C22,140.8,20.1,142.7,17.8,142.7z"/>
	<path class="st0" d="M21.7,131c-1.2-0.6-2.5-1-4-1c-4.6,0-8.4,3.8-8.4,8.4c0,4.6,3.8,8.4,8.4,8.4c4.6,0,8.4-3.8,8.4-8.4v-5.1
		c0,0,0,0,0,0v-12.7c-1.5-0.2-3-0.4-4.5-0.7V131z M17.8,142.7c-2.3,0-4.2-1.9-4.2-4.2c0-2.3,1.9-4.2,4.2-4.2c2.3,0,4.2,1.9,4.2,4.2
		C22,140.8,20.1,142.7,17.8,142.7z"/>
</g>
<g>
	<g>
		<g>
			<g>
				<path class="st3" d="M116,32.2c-0.7-12.5-11.1-22.4-23.8-22.4c-12.7,0-23,9.9-23.8,22.4h4.2C73.3,22.1,81.8,14,92.2,14
					c10.4,0,18.8,8.1,19.6,18.2H116z"/>
				<rect x="68.3" y="35.1" class="st1" width="47.7" height="7"/>
				<polygon class="st1" points="111.8,59.8 111.8,88.4 113.2,88.4 116,88.4 116,59.8 111.8,59.8 				"/>
				<polygon class="st1" points="116,54.1 111.8,54.1 111.8,54.1 111.8,57 111.8,57 116,57 				"/>
				<path class="st3" d="M85.3,32.2h2.9c0.6-1.6,2.1-2.8,3.9-2.8c1.8,0,3.4,1.2,3.9,2.8h2.9c-0.6-3.2-3.5-5.6-6.9-5.6
					C88.8,26.6,86,29.1,85.3,32.2z"/>
				<polygon class="st4" points="68.3,88.4 71.1,88.4 72.6,88.4 72.6,59.8 68.7,59.8 68.3,59.8 				"/>
				<polygon class="st1" points="116,44.9 111.8,44.9 111.8,51.3 111.8,51.3 116,51.3 				"/>
				<polygon class="st5" points="68.3,57 68.7,57 72.6,57 72.6,54.1 68.7,54.1 68.3,54.1 				"/>
				<polygon class="st1" points="76.8,88.4 107.6,88.4 109,88.4 109,44.9 75.4,44.9 75.4,88.4 				"/>
				<polygon class="st6" points="76.1,84.8 91.5,84.8 92.2,84.8 92.2,41 75.4,41 75.4,84.8 				"/>
				<polygon class="st7" points="68.3,51.3 68.7,51.3 72.6,51.3 72.6,44.9 68.3,44.9 				"/>
				<path class="st6" d="M101.9,32.2h7.1c-0.7-8.6-8-15.4-16.8-15.4c-8.8,0-16,6.8-16.8,15.4h7.1"/>
				<path class="st6" d="M101.9,32.2h7.1c-0.7-8.6-8-15.4-16.8-15.4c-8.8,0-16,6.8-16.8,15.4h7.1"/>
			</g>
			<polygon class="st8" points="92.2,7 102.1,9.8 111.8,16.8 117.5,29.4 118.8,35.1 92.2,35 			"/>
			<path class="st9" d="M117.5,44.1H92.2v45.6l26.7,0.1L117.5,44.1C117.6,44.1,117.6,44.1,117.5,44.1z"/>
			<path class="st6" d="M109.9,53.3H89.2v31.5l21.8,0.1L109.9,53.3C110,53.3,110,53.3,109.9,53.3z"/>
			<g>
				<path class="st10" d="M92.2,7C77.5,7,65.5,19,65.5,33.7v56.1c0,0.8,0.6,1.4,1.4,1.4h2.8v1.4c0,2.3,1.9,4.2,4.2,4.2
					c2.3,0,4.2-1.9,4.2-4.2v-1.4h28.1v1.4c0,2.3,1.9,4.2,4.2,4.2c2.3,0,4.2-1.9,4.2-4.2v-1.4h2.8c0.8,0,1.4-0.6,1.4-1.4V33.7
					C118.8,19,106.9,7,92.2,7z M92.2,9.8c12.7,0,23,9.9,23.8,22.4h-4.2C111,22.1,102.5,14,92.2,14c-10.4,0-18.8,8.1-19.6,18.2h-4.2
					C69.1,19.8,79.5,9.8,92.2,9.8z M92.2,16.8 M68.3,35.1H116v7H68.3V35.1z M111.8,57 M111.8,54.1 M111.8,51.3 M72.6,57h-3.9h-0.3
					v-2.9h0.3h3.9V57z M72.6,44.9v6.4h-3.9h-0.3v-6.4H72.6z M68.3,88.4V59.8h0.3h3.9v28.5h-1.4H68.3z M76.8,88.4h-1.4V44.9H109v43.5
					h-1.4H76.8z M111.8,92.6 M113.2,88.4h-1.4V59.8l0,0h4.2v28.5H113.2z"/>
				<path class="st10" d="M108.9,83.5H79.5h-3.2h-0.5c-1,0-1.8,0.6-1.8,1.4s0.8,1.4,1.8,1.4h0.5h3.2h29.4c1,0,1.8-0.6,1.8-1.4
					S109.9,83.5,108.9,83.5z"/>
			</g>
			<polygon class="st11" points="111.8,51.3 112.1,51.3 116,51.3 116,44.9 111.8,44.9 			"/>
			<polyline class="st12" points="111.8,57 111.8,54.1 111.8,54.1 			"/>
			<polyline class="st12" points="111.8,54.1 116,54.1 116,57 111.8,57 111.8,57 			"/>
			<path class="st7" d="M75.4,92.6c0,0.8-0.6,1.4-1.4,1.4c-0.8,0-1.4-0.6-1.4-1.4v-1.4h2.8V92.6z"/>
			<path class="st11" d="M111.8,92.6c0,0.8-0.6,1.4-1.4,1.4c-0.8,0-1.4-0.6-1.4-1.4v-1.4h2.8V92.6"/>
		</g>
		<rect x="72.6" y="35.1" class="st10" width="39.3" height="9"/>
		<path class="st6" d="M109,31.6c-0.9-8.4-8-15-16.6-15c-8.8,0-16.2,6.8-16.9,15.4l0,21.5H109L109,31.6L109,31.6z"/>
		<path class="st13" d="M92.3,16.6c-1,0-2,0.1-3,0.3l17.8,66.6h1.9l0-51.9l-0.1,0C108,23.2,101,16.6,92.3,16.6z"/>
	</g>
	<g>
		<path class="st2" d="M93.7,43.9c0.3,0.2,0.6,0.3,0.9,0.3c0.1,0,0.2,0,0.4,0l6.6-1.8c0.6-0.2,1.1-0.7,1.1-1.4v-2.1
			c0-0.4-0.2-0.9-0.6-1.1c-0.4-0.3-0.8-0.4-1.3-0.3l-6.6,1.8c-0.6,0.2-1.1,0.7-1.1,1.4v2.1C93.1,43.3,93.3,43.7,93.7,43.9z
			 M94.7,40.8l6.3-1.7v1.8l-6.3,1.7V40.8z"/>
		<path class="st14" d="M94.6,45.7c-0.7,0-1.2,0.5-1.2,1.3v7.7c-0.6-0.3-1.4-0.6-2.2-0.6c-2.6,0-4.6,2.1-4.6,4.6s2.1,4.6,4.6,4.6
			c2.6,0,4.6-2.1,4.6-4.6v-2.8c0,0,0,0,0,0v-9C95.8,46.2,95.3,45.7,94.6,45.7z M91.2,61c-1.3,0-2.3-1-2.3-2.3c0-1.3,1-2.3,2.3-2.3
			c1.3,0,2.3,1,2.3,2.3C93.5,60,92.5,61,91.2,61z"/>
	</g>
</g>
</svg>
