<?xml version="1.0" encoding="UTF-8"?>
<svg width="56px" height="35px" viewBox="0 0 56 35" version="1.1" xmlns="http://www.w3.org/2000/svg" xmlns:xlink="http://www.w3.org/1999/xlink">
    <!-- Generator: Sketch 46.2 (44496) - http://www.bohemiancoding.com/sketch -->
    <title>Page 1</title>
    <desc>Created with Sketch.</desc>
    <defs>
        <polygon id="path-1" points="0.646023063 0.636230769 20.5333258 0.636230769 20.5333258 17.3955861 0.646023063 17.3955861"></polygon>
        <polygon id="path-3" points="13.9753333 18 0.334666667 18 0.334666667 0.0805846154 13.9753333 0.0805846154 13.9753333 18"></polygon>
    </defs>
    <g id="Web-Designs" stroke="none" stroke-width="1" fill="none" fill-rule="evenodd">
        <g id="Desktop-HD-Copy" transform="translate(-50.000000, -34.000000)">
            <g id="Page-1" transform="translate(50.000000, 34.000000)">
                <path d="M14.2370538,11.6073108 C14.2822364,11.9753152 14.307613,12.3498522 14.3131834,12.7309219 C14.3243243,13.446607 14.2952342,14.1506785 14.2271508,14.8445882 C14.1596864,15.5384979 14.1293584,16.1453059 14.1374046,16.6642865 C14.143594,17.0678574 14.1955849,17.3930369 14.2927584,17.639099 C14.3899319,17.8851611 14.5712812,18.0049259 14.8368063,17.9998449 C15.1518465,17.9933123 15.4415102,17.9700852 15.7064163,17.9294378 C15.9719414,17.8895162 16.2021869,17.8379811 16.3977718,17.7762841 C16.6230658,17.7145871 16.8242212,17.6405507 17,17.5563524 C16.6484423,17.0787451 16.4095317,16.5931535 16.2838869,16.0995776 C16.1582422,15.6060017 16.0913967,15.1058931 16.0833505,14.5978002 C16.0790179,14.2864119 16.0963483,13.9655875 16.1353414,13.6353272 C16.1749536,13.3057927 16.2188983,12.9827908 16.2684135,12.6641439 C16.3173097,12.3454971 16.3624923,12.0384639 16.4014855,11.7430442 C16.4417165,11.4476244 16.4596658,11.1855937 16.4559521,10.9547744 C16.4516196,10.6549996 16.3983908,10.4190993 16.2981226,10.2477994 C16.1966165,10.0772254 16.0134104,9.99447883 15.7478853,10.0002856 C15.5708686,10.0039148 15.3796163,10.036578 15.1741283,10.0990008 C14.9680215,10.1606978 14.7767691,10.2223948 14.6009903,10.2840918 C14.3955024,10.3690159 14.1955849,10.4597467 14,10.5562844 C14.1132659,10.8887223 14.1918713,11.2393064 14.2370538,11.6073108" id="Fill-1" fill="#FFFFFF"></path>
                <path d="M16.164392,8.85935313 C16.3493884,8.77043526 16.5076193,8.64970939 16.6351487,8.49862132 C16.7642525,8.34753325 16.8579315,8.18198698 16.9177601,8.00198254 C16.9760142,7.82342391 17.0035669,7.63619036 16.9996308,7.44100481 C16.9956947,7.25738582 16.9618443,7.07665846 16.895718,6.89954565 C16.8288044,6.72243284 16.7327637,6.5662844 16.6052344,6.43037742 C16.4761305,6.29447045 16.3178996,6.18747985 16.1289672,6.11012854 C15.9400348,6.03277724 15.7204008,5.99663176 15.4692782,6.00024631 C15.2449209,6.00386086 15.0386697,6.05663325 14.8528861,6.15711766 C14.6671026,6.25832498 14.5104461,6.38700286 14.3821295,6.54387421 C14.2538129,6.70146846 14.156985,6.88147291 14.0916459,7.08316464 C14.0278812,7.28557929 13.9963925,7.48437938 14.0003285,7.67956493 C14.0074135,8.02439273 14.131794,8.33307506 14.3750445,8.604889 C14.618295,8.87670295 15.0024576,9.00827247 15.5275323,8.99959756 C15.7660595,8.9952601 15.9778213,8.9489939 16.164392,8.85935313" id="Fill-3" fill="#FFFFFF"></path>
                <path d="M50.6179877,18.7512944 C50.7501703,18.3585074 50.9082444,18.0078557 51.0915285,17.6993394 C51.275494,17.3915372 51.4853509,17.1444385 51.7210993,16.9594715 C51.9561663,16.7745046 52.2137179,16.6823781 52.4930729,16.6823781 C52.6102657,16.6823781 52.709062,16.7595072 52.7901431,16.9130512 C52.8712242,17.0673094 52.9121054,17.2679879 52.9121054,17.5143724 C52.9121054,17.7457597 52.8678174,17.9928584 52.7799228,18.2542403 C52.6913468,18.5163364 52.5482625,18.7670059 52.3499886,19.0055347 C52.1510334,19.2447777 51.8859868,19.4525978 51.554849,19.629709 C51.2243925,19.8075344 50.8162616,19.9267988 50.3311379,19.9882164 C50.3897343,19.5568648 50.4858051,19.1440814 50.6179877,18.7512944 M51.9854645,21.4443849 C52.6470588,21.4443849 53.2275721,21.3336904 53.728367,21.1094447 C54.2277992,20.8859132 54.6468317,20.5938225 54.9854645,20.2310302 C55.3240972,19.868952 55.5768794,19.4611676 55.7458551,19.0055347 C55.9155122,18.5513301 56,18.0849848 56,17.6064988 C56,17.1444385 55.923007,16.6973755 55.7683398,16.2660239 C55.6143538,15.8346724 55.3745174,15.4525978 55.0515558,15.1212284 C54.7279128,14.789859 54.3272769,14.5206213 53.849648,14.3120871 C53.3713377,14.1042671 52.8085396,14 52.1626164,14 C51.4996593,14 50.8598683,14.184967 50.2425619,14.5556151 C49.6252555,14.9248349 49.0733591,15.4183182 48.5882353,16.0346367 C48.1037929,16.6516693 47.716784,17.3486877 47.4306155,18.1271202 C47.1430843,18.9055526 47,19.711123 47,20.5431173 C47,21.5607927 47.1396775,22.419925 47.4197138,23.1212284 C47.6983875,23.8225317 48.0663184,24.3852883 48.522144,24.8087841 C48.9779696,25.2329941 49.4889848,25.5372255 50.055871,25.7221925 C50.6213945,25.9071594 51.1916875,26 51.7653872,26 C52.2648194,26 52.7499432,25.9378682 53.2207586,25.815033 C53.6915739,25.6907695 54.1065183,25.5293698 54.4669543,25.3286913 C54.8267091,25.128727 55.1135589,24.8980539 55.327504,24.6352437 C55.5407677,24.3738618 55.6470588,24.0960543 55.6470588,23.8032494 C55.6470588,23.449027 55.5148762,23.1405106 55.2498297,22.8784146 C54.9854645,22.6163185 54.5732455,22.4549188 54.0145355,22.3935012 C53.8230752,22.9476879 53.5478083,23.3754687 53.1873722,23.6761293 C52.8276175,23.9767899 52.4562798,24.1267631 52.0740404,24.1267631 C51.7503975,24.1267631 51.4703611,24.0503482 51.2359755,23.89609 C51.0002271,23.7418318 50.8080854,23.5297268 50.660913,23.259775 C50.514422,22.9905374 50.4081308,22.6820211 50.3420395,22.3349402 C50.2759482,21.9885735 50.2425619,21.6150687 50.2425619,21.2137118 C50.5512151,21.2908409 50.8530547,21.3486877 51.1467181,21.3872523 C51.4410629,21.4258168 51.7210993,21.4443849 51.9854645,21.4443849" id="Fill-5" fill="#FFFFFF"></path>
                <path d="M19.7440106,27.0652861 C19.5325475,27.3151983 19.2451746,27.4408564 18.8825696,27.4408564 C18.0109621,27.4408564 17.2708413,27.2653563 16.6601739,26.9150579 C16.0495064,26.5640576 15.5323707,26.0691471 15.1094445,25.4303264 C15.6292913,25.2176202 16.1315161,25.04563 16.6147635,24.9143559 C17.0986887,24.7823798 17.5582142,24.7170937 17.9933402,24.7170937 C18.3559452,24.7170937 18.6711065,24.7606178 18.9367909,24.8483678 C19.2024753,24.9354159 19.4173272,25.0512461 19.5806689,25.1951562 C19.7440106,25.3397683 19.864653,25.4998245 19.9432739,25.6753247 C20.0218948,25.8501229 20.0612052,26.025623 20.0612052,26.2011232 C20.0612052,26.5261495 19.9554737,26.8146718 19.7440106,27.0652861 M21.7752763,24.1625132 C21.35845,23.8550369 20.8291145,23.6079326 20.1879475,23.4204984 C19.5474584,23.2323622 18.7917489,23.1382941 17.921497,23.1382941 C17.2315309,23.1382941 16.5944305,23.2070902 16.0074849,23.3453843 C15.4205393,23.4829765 14.8559599,23.6577747 14.3110358,23.8718849 C13.99723,23.0694981 13.7552674,22.1618112 13.5858258,21.1474201 C13.4163843,20.1323271 13.292353,19.0589681 13.2137321,17.9252369 C13.1351112,16.7915058 13.0903787,15.6177606 13.0781789,14.4025974 C13.0653013,13.1874342 13.0598792,11.972973 13.0598792,10.7578098 L13.0598792,8.37170937 C13.0354796,8.24675325 12.938559,8.11547912 12.7697952,7.97718498 C12.6003536,7.83959284 12.3909238,7.71463671 12.1435391,7.6016146 C11.8961544,7.48859249 11.6264034,7.3980344 11.3369972,7.32923833 C11.0462355,7.26044226 10.7744512,7.22604423 10.5202888,7.22604423 C10.2539266,7.22604423 10.0241638,7.26956827 9.83100044,7.35731836 C9.63715928,7.44506845 9.51041697,7.5952966 9.45009577,7.80800281 C9.47449536,8.00877501 9.48940622,8.21516322 9.49550611,8.42786943 C9.50160601,8.64127764 9.51041697,8.85398385 9.52261677,9.06739207 C9.28065419,10.4194454 9.02988065,11.5096525 8.77029615,12.3359073 C8.51003389,13.1621622 8.26468248,13.8143208 8.03559747,14.2895753 C7.7692353,14.8406458 7.50897304,15.2421902 7.25548843,15.4928045 C7.12196847,15.2667603 6.98370414,14.8532819 6.83798438,14.2523693 C6.70514218,13.7392067 6.55671136,13.00351 6.39404744,12.045279 C6.23070576,11.0870481 6.05855312,9.80659881 5.87691174,8.2025272 C5.85251216,8.01509302 5.77050243,7.84942085 5.6322381,7.7048087 C5.49329601,7.56089856 5.3204656,7.43594244 5.11578017,7.32923833 C4.90973921,7.22253422 4.67387653,7.14110214 4.40751437,7.08494208 C4.1411522,7.02878203 3.86936791,7 3.59148372,7 C3.20447915,7 2.82967438,7.06318006 2.46639163,7.18813619 C2.10446442,7.31379431 1.81980256,7.52018252 1.6137616,7.80800281 C1.74728157,8.02141102 1.89232356,8.30642331 2.04956535,8.66303966 C2.20680713,9.01965602 2.38777074,9.45559846 2.5938117,9.96876097 C2.17020775,11.7230607 1.8109916,13.1621622 1.51480772,14.2895753 C1.21862384,15.4169884 0.973272433,16.3345033 0.780109032,17.04212 C0.586267865,17.7497367 0.438514808,18.2909793 0.335494327,18.6672517 C0.233151613,19.042822 0.157919552,19.3467883 0.108442611,19.5784486 C0.0603212023,19.8108108 0.0304994843,20.017199 0.0182996906,20.1983152 C0.00609989686,20.3801334 0,20.6335556 0,20.959284 C0,21.4226044 0.142330927,21.7890488 0.426315014,22.0586171 C0.710299101,22.3274833 1.05460439,22.5345735 1.45990865,22.6777817 C1.86521291,22.8223938 2.29152792,22.9157599 2.73885369,22.959986 C3.18550169,23.00351 3.56708413,23.025974 3.8815677,23.025974 L4.38989244,23.025974 C4.46173567,23.025974 4.52273464,23.019656 4.57085605,23.00702 C4.23197289,22.2804493 4.00017681,21.4921025 3.87275674,20.6398736 C3.74601444,19.7883468 3.68230441,18.9305019 3.68230441,18.0663391 C3.68230441,17.3524044 3.71212612,16.6511057 3.77312509,15.961741 C3.83344629,15.2730783 3.89986739,14.6279396 3.97171062,14.026325 C4.32279358,15.1663742 4.68878739,16.4131274 5.06969206,17.7651808 C5.45059673,19.1179361 5.82879033,20.5521236 6.20291734,22.0677431 C6.20291734,22.1309231 6.25781641,22.1934012 6.36693679,22.2551773 C6.4753794,22.3183573 6.61161043,22.3745174 6.77427435,22.4250614 C6.93761603,22.4742015 7.11315751,22.5156195 7.30089878,22.5465075 C7.48796228,22.5780976 7.66621482,22.5935416 7.8356564,22.5935416 C8.08981877,22.5935416 8.25858258,22.5493155 8.34330337,22.4622675 C8.48902313,21.2225342 8.69709739,20.010881 8.97023722,18.8266058 C9.24134375,17.6430326 9.51041697,16.5816076 9.77677914,15.6423306 C9.82490055,16.4566515 9.90081037,17.2737803 10.0031531,18.0944191 C10.1054958,18.9143559 10.2396935,19.7132327 10.4023574,20.4896455 C10.5656991,21.2660583 10.7717401,22.017901 11.0191248,22.7444717 C11.2671873,23.4703405 11.56676,24.1463671 11.9171652,24.7732538 C11.421718,24.9487539 10.9072934,25.0954721 10.3752468,25.2148122 C9.84320024,25.3334503 9.2684544,25.3931204 8.65236482,25.3931204 C8.13184028,25.3931204 7.57878297,25.3432783 6.9925151,25.2428922 C6.40624724,25.1425061 5.76779137,24.967006 5.07850302,24.7170937 C5.01818182,24.8918919 4.97277147,25.0765181 4.94294976,25.2709723 C4.91245027,25.4647245 4.89753941,25.6556687 4.89753941,25.8438048 C4.89753941,26.1695332 4.94566082,26.4924535 5.04258141,26.8118638 C5.13950199,27.1305721 5.29064388,27.4127764 5.49600707,27.6570727 C5.70137027,27.9013689 5.97044349,28.0986311 6.30322676,28.2488592 C6.63533225,28.3983854 7.03114778,28.4742015 7.49067335,28.4742015 C7.85395609,28.4742015 8.25316045,28.4110214 8.68828643,28.2867673 C9.12341241,28.1611092 9.57751584,27.998245 10.0492412,27.7974728 C10.5202888,27.5974026 11.0096361,27.3720604 11.5179608,27.1214461 C12.0256078,26.8708319 12.5400324,26.6202176 13.0598792,26.3703054 C13.7850891,27.1839242 14.6763518,27.8262548 15.7350228,28.2958933 C16.7930161,28.7655318 18.0841609,29 19.6077796,29 C20.1527037,29 20.6352733,28.9283959 21.0588773,28.7844858 C21.4818034,28.6398736 21.8389863,28.4461214 22.129748,28.2018252 C22.4191543,27.957529 22.637395,27.6760267 22.7817592,27.3566164 C22.9268012,27.036504 23,26.7079677 23,26.3703054 C23,25.982099 22.8996906,25.5931906 22.7004273,25.2056862 C22.5004862,24.8167778 22.1927803,24.4692875 21.7752763,24.1625132" id="Fill-7" fill="#FFFFFF"></path>
                <g id="Group-11" transform="translate(7.000000, 0.000000)">
                    <mask id="mask-2" fill="white">
                        <use xlink:href="#path-1"></use>
                    </mask>
                    <g id="Clip-10"></g>
                    <path d="M19.3681645,16.8644769 C19.7454871,16.5314769 20.1336484,15.9907846 20.5333258,15.2437846 C19.9622613,15.1150154 19.4799387,14.9017846 19.0850032,14.6047846 C18.6900677,14.3077846 18.3561,13.9602462 18.0831,13.5621692 C17.8094226,13.1640923 17.5831645,12.7258615 17.402971,12.2481692 C17.2227774,11.7711692 17.0642613,11.2844769 16.9267452,10.7894769 C16.7899065,10.2951692 16.6557774,9.80709231 16.5243581,9.32663077 C16.3922613,8.84686154 16.2439065,8.40447692 16.0772613,8.00086154 C15.9106161,7.59724615 15.7080677,7.24763077 15.4689387,6.95201538 C15.2298097,6.6564 14.9270032,6.44386154 14.5605194,6.3144 C15.2223581,5.93086154 15.8367774,5.53555385 16.4051323,5.12709231 C16.9728097,4.71932308 17.4652935,4.31709231 17.8825839,3.92178462 C18.3005516,3.52647692 18.6263903,3.14709231 18.8607774,2.78086154 C19.0958419,2.41532308 19.2049065,2.0844 19.1893258,1.78670769 C19.1723903,1.44955385 18.9711968,1.17955385 18.5864226,0.976015385 C18.2016484,0.772476923 17.5750355,0.659630769 16.7086161,0.636092308 C16.5270677,1.28201538 16.3130032,1.85524615 16.0664226,2.35578462 C15.8191645,2.85632308 15.5468419,3.29593846 15.2508097,3.67463077 C14.9534226,4.05332308 14.6397774,4.38078462 14.3078419,4.65701538 C13.9765839,4.93393846 13.6365194,5.16516923 13.2856161,5.35278462 C13.3282935,4.66463077 13.391971,4.01247692 13.4780032,3.39632308 C13.5633581,2.78016923 13.6731,2.17993846 13.8092613,1.59632308 C13.6527774,1.40593846 13.4834226,1.27024615 13.2991645,1.19063077 C13.1155839,1.11101538 12.9211645,1.0764 12.7179387,1.08747692 C12.3202935,1.10893846 11.8765839,1.25709231 11.3908742,1.53124615 C10.9031323,1.80609231 10.3686484,2.10793846 9.78742258,2.43678462 C9.20551935,2.76632308 8.57687419,3.07301538 7.90013226,3.35755385 C7.22474516,3.64209231 6.49313226,3.80547692 5.70732581,3.84770769 C5.1051,3.87955385 4.47713226,3.81586154 3.82206774,3.65732308 C3.16700323,3.49809231 2.47739032,3.19970769 1.75458387,2.76078462 C1.36574516,3.14916923 1.07987419,3.55001538 0.896293548,3.96263077 C0.712712903,4.37455385 0.630745161,4.75947692 0.648358065,5.11670769 C0.672067742,5.58332308 0.874616129,5.96201538 1.25464839,6.25555385 C1.63400323,6.5484 2.21251935,6.6744 2.98816452,6.63286154 C3.61951935,6.59893846 4.25358387,6.44109231 4.89035806,6.15863077 C5.5284871,5.87616923 6.1761,5.55563077 6.83387419,5.19701538 C7.49232581,4.83909231 8.16432581,4.4874 8.85326129,4.14263077 C9.54016452,3.79786154 10.2501,3.54586154 10.9817129,3.38801538 C11.077229,3.7404 11.1497129,4.11909231 11.1998419,4.52478462 C11.249971,4.92978462 11.2858742,5.34516923 11.3075516,5.77163077 C11.3380355,6.36632308 11.3441323,6.97001538 11.3271968,7.58270769 C11.3095839,8.1954 11.2811323,8.79078462 11.2431968,9.36955385 C11.2045839,9.94901538 11.1544548,10.4987077 11.0941645,11.0186308 C11.0325194,11.5392462 10.9783258,11.9996308 10.930229,12.3990923 C10.8828097,12.7999385 10.8408097,13.1225538 10.8049065,13.3683231 C10.7690032,13.6140923 10.7513903,13.7615538 10.7541,13.8107077 C10.7683258,14.0786308 10.8577452,14.2579385 11.0230355,14.3486308 C11.1883258,14.4386308 11.3874871,14.4780923 11.6198419,14.4656308 C11.8433903,14.4538615 12.0906484,14.4054 12.3643258,14.3216308 C12.6366484,14.2378615 12.8920355,14.1444 13.1304871,14.0419385 C13.4061968,13.9180154 13.6866484,13.7837077 13.9711645,13.6397077 C13.7753903,13.2319385 13.6263581,12.7009385 13.5247452,12.0446308 C13.4231323,11.3890154 13.3533581,10.6745538 13.3133903,9.90055385 C13.2876484,9.39516923 13.2680032,8.91401538 13.2544548,8.45709231 C13.240229,8.00086154 13.2321,7.55363077 13.2293903,7.11609231 C13.5511645,7.12855385 13.8201,7.28570769 14.0348419,7.58755385 C14.2489065,7.8894 14.4351968,8.28747692 14.5916806,8.78109231 C14.7488419,9.27470769 14.8836484,9.83201538 14.9981323,10.4523231 C15.1126161,11.0726308 15.2304871,11.7054 15.3503903,12.3499385 C15.470971,12.9951692 15.6051,13.6265538 15.7534548,14.2454769 C15.9018097,14.8644 16.0847129,15.4085538 16.3041968,15.8793231 C16.5230032,16.3500923 16.7919387,16.7260154 17.1130355,17.0070923 C17.4341323,17.2881692 17.822971,17.4169385 18.2788742,17.3927077 C18.6277452,17.3740154 18.9908419,17.1974769 19.3681645,16.8644769" id="Fill-9" fill="#FFFFFF" mask="url(#mask-2)"></path>
                </g>
                <g id="Group-14" transform="translate(24.000000, 17.000000)">
                    <mask id="mask-4" fill="white">
                        <use xlink:href="#path-3"></use>
                    </mask>
                    <g id="Clip-13"></g>
                    <path d="M12.95,1.42850769 C12.5913333,1.00689231 12.132,0.676661538 11.5733333,0.437815385 C11.0133333,0.199661538 10.332,0.0805846154 9.52933333,0.0805846154 C8.64866667,0.0805846154 7.81,0.231507692 7.012,0.534738462 C6.21266667,0.837969231 5.474,1.2402 4.796,1.74143077 C4.116,2.24266154 3.502,2.81935385 2.95266667,3.46943077 C2.40266667,4.11950769 1.934,4.7952 1.54666667,5.49512308 C1.15933333,6.19504615 0.860666667,6.89012308 0.65,7.58035385 C0.44,8.27058462 0.334666667,8.90889231 0.334666667,9.49458462 C0.334666667,9.8622 0.38,10.2021231 0.470666667,10.5150462 C0.561333333,10.8279692 0.700666667,11.0958923 0.886666667,11.3195077 C1.07333333,11.5424308 1.31,11.7168923 1.59733333,11.8408154 C1.88333333,11.9647385 2.22266667,12.0270462 2.61533333,12.0270462 C2.854,12.0270462 3.046,11.9848154 3.18866667,11.9003538 C3.332,11.8158923 3.442,11.7120462 3.51933333,11.5874308 C3.59533333,11.4635077 3.648,11.3292 3.676,11.1852 C3.70533333,11.0412 3.71933333,10.9048154 3.71933333,10.7753538 C3.71933333,10.7061231 3.71666667,10.6445077 3.71266667,10.5891231 C3.70733333,10.5344308 3.70066667,10.4832 3.69066667,10.4326615 C3.68133333,10.3835077 3.676,10.3385077 3.676,10.2990462 C3.16933333,10.2796615 2.80133333,10.1328923 2.57266667,9.85943077 C2.34266667,9.58666154 2.228,9.23635385 2.228,8.8092 C2.228,8.45196923 2.30666667,8.05735385 2.464,7.62535385 C2.62266667,7.19335385 2.85133333,6.75858462 3.15333333,6.32173846 C3.454,5.88489231 3.81733333,5.46327692 4.24266667,5.05550769 C4.66866667,4.64843077 5.14866667,4.28566154 5.68466667,3.96789231 C6.22066667,3.65012308 6.80533333,3.39743077 7.442,3.20843077 C8.07733333,3.02012308 8.754,2.92596923 9.47133333,2.92596923 C9.81533333,2.92596923 10.1306667,2.97789231 10.418,3.08173846 C10.7053333,3.18627692 10.956,3.34966154 11.1713333,3.57327692 C11.3866667,3.79689231 11.5533333,4.08766154 11.6733333,4.44489231 C11.7933333,4.80281538 11.8526667,5.23412308 11.8526667,5.74089231 C11.8526667,6.35704615 11.736,7.01404615 11.5013333,7.71466154 C11.2666667,8.41458462 10.9386667,9.11243077 10.5186667,9.80750769 C10.098,10.5025846 9.594,11.1678923 9.00533333,11.8027385 C8.41733333,12.4389692 7.76933333,12.9997385 7.062,13.4864308 C6.87066667,13.3078154 6.71266667,13.0987385 6.58866667,12.8605846 C6.464,12.6224308 6.366,12.3545077 6.29466667,12.0568154 C6.22266667,11.7584308 6.17466667,11.4406615 6.15133333,11.1035077 C6.12666667,10.7656615 6.11533333,10.4132769 6.11533333,10.0456615 C6.11533333,9.86635385 6.12266667,9.56866154 6.13666667,9.15189231 C6.15133333,8.73443077 6.17,8.29481538 6.194,7.83373846 C6.218,7.37196923 6.23733333,6.94273846 6.25133333,6.54535385 C6.26533333,6.14796923 6.27266667,5.88004615 6.27266667,5.74089231 C6.27266667,5.49235385 6.20866667,5.32135385 6.07933333,5.22650769 C5.95,5.13304615 5.79,5.08527692 5.59866667,5.08527692 C5.40733333,5.08527692 5.20133333,5.12058462 4.982,5.18981538 C4.762,5.25973846 4.556,5.33381538 4.36533333,5.41273846 C4.13533333,5.51243077 3.91066667,5.61627692 3.69066667,5.72635385 C3.86333333,6.14312308 3.98,6.63466154 4.04266667,7.20027692 C4.104,7.76658462 4.14333333,8.35781538 4.15733333,8.97258462 C4.17133333,9.58943077 4.17866667,10.1972769 4.17866667,10.7975077 C4.17866667,11.3984308 4.2,11.9377385 4.24266667,12.4140462 C4.28666667,12.8910462 4.36533333,13.2759692 4.48,13.5681231 C4.59466667,13.8609692 4.78133333,14.0077385 5.04,14.0077385 C5.336,14.0077385 5.65666667,13.9634308 6,13.8741231 C6.34466667,13.7848154 6.622,13.7045077 6.832,13.6352769 C6.17266667,14.0624308 5.47133333,14.4030462 4.73066667,14.6557385 C3.99,14.9091231 3.232,15.0358154 2.458,15.0358154 L2.22066667,15.0358154 C2.13933333,15.0358154 2.056,15.0302769 1.96933333,15.0205846 C1.94066667,15.1299692 1.92133333,15.2317385 1.91266667,15.3258923 C1.90266667,15.4207385 1.898,15.5176615 1.898,15.6166615 C1.898,15.9441231 1.96466667,16.2542769 2.09866667,16.5478154 C2.232,16.8406615 2.41933333,17.0933538 2.658,17.3072769 C2.89733333,17.5205077 3.17933333,17.6894308 3.50466667,17.8133538 C3.82933333,17.9379692 4.17866667,18.0002769 4.55133333,18.0002769 C5.30666667,18.0002769 6.06533333,17.7967385 6.82466667,17.3889692 C7.58533333,16.9818923 8.31466667,16.4384308 9.01266667,15.7578923 C9.71066667,15.0780462 10.3633333,14.2888154 10.97,13.3895077 C11.5773333,12.4908923 12.1033333,11.5528154 12.5486667,10.5738923 C12.9926667,9.59635385 13.342,8.61050769 13.5953333,7.61773846 C13.8486667,6.62427692 13.9753333,5.6862 13.9753333,4.80281538 C13.9753333,4.12712308 13.894,3.50196923 13.732,2.92596923 C13.5693333,2.34996923 13.3086667,1.85081538 12.95,1.42850769" id="Fill-12" fill="#FFFFFF" mask="url(#mask-4)"></path>
                </g>
                <path d="M47.3830828,24.363255 C47.0876576,23.8619547 46.8313935,23.3178691 46.6149774,22.7288591 C46.3978742,22.1412752 46.1855803,21.5636745 45.9787827,20.995344 C45.7719851,20.4277265 45.5528209,19.8957634 45.32129,19.4001678 C45.0897591,18.9038591 44.8115099,18.4973993 44.4858552,18.1800755 C45.0574685,17.955453 45.5672486,17.6659396 46.0165697,17.3136745 C46.4645167,16.9599832 46.841012,16.574203 47.1467426,16.1549077 C47.4524733,15.7356124 47.6860653,15.2984899 47.8488927,14.8428272 C48.01172,14.3878775 48.0927902,13.950755 48.0927902,13.5314597 C48.0927902,13.1834732 48.0357662,12.8561661 47.9230925,12.5495386 C47.8097317,12.2429111 47.6345377,11.9740772 47.3975105,11.74375 C47.1618574,11.5134228 46.860936,11.3322987 46.4961203,11.1996644 C46.1313046,11.0663171 45.7032816,11 45.2099903,11 C44.7373101,11 44.2838668,11.089849 43.8496605,11.2681208 C43.4168283,11.4478188 42.9901794,11.670302 42.571775,11.9355705 C42.1526835,12.2022651 41.7390883,12.4910654 41.3296153,12.8026846 C40.9215163,13.1150168 40.5120433,13.4038171 40.1025703,13.6690856 C39.6937844,13.9350671 39.277441,14.1575503 38.8535403,14.3365352 C38.4303265,14.5155201 37.9968073,14.6053691 37.5529825,14.6053691 C37.0507598,14.6053691 36.528613,14.4620386 35.9865422,14.1753775 C35.4444714,13.8894295 34.8625525,13.3931208 34.2421597,12.6871644 C33.8478015,13.035151 33.5420708,13.4166527 33.3256547,13.8302433 C33.1092386,14.2452601 33,14.6467282 33,15.0346477 C33,15.2706795 33.0453443,15.4903104 33.1332848,15.6949664 C33.2219124,15.8989094 33.3579454,16.0778943 33.5400097,16.2319211 C33.722074,16.3852349 33.9591012,16.5078859 34.2497171,16.5998742 C34.540333,16.6918624 34.8872858,16.7382131 35.2912625,16.7382131 C35.8532574,16.7382131 36.4097559,16.664052 36.9621322,16.5157299 C37.5138215,16.3674077 38.0503961,16.1805789 38.5732299,15.9552433 C39.0953767,15.7306208 39.5962253,15.4903104 40.0737148,15.2343121 C40.5518914,14.9790268 40.9998383,14.7380034 41.4182428,14.5133809 C41.8373343,14.2887584 42.2165778,14.1019295 42.5573472,13.9528943 C42.8967426,13.8052852 43.1852974,13.7304111 43.4216376,13.7304111 C43.6675962,13.7304111 43.8558438,13.8231124 43.9836324,14.0070889 C44.111421,14.1910654 44.1753152,14.5083893 44.1753152,14.9583473 C44.1753152,15.2756711 44.1292839,15.6001258 44.03516,15.9324245 C43.9417232,16.2647232 43.8063773,16.5720638 43.6284352,16.8530201 C43.4511801,17.1346896 43.2423214,17.3799916 42.9997979,17.5896393 C42.7586486,17.7992869 42.4900178,17.9397651 42.1945926,18.0110738 C42.2145167,17.7864513 42.2241351,17.5668205 42.2241351,17.3514681 L42.2241351,16.7075503 C42.2241351,16.4308725 42.1554316,16.2419044 42.0173375,16.1399329 C41.8792435,16.0379614 41.7067976,15.985906 41.5,15.985906 C41.3028209,15.985906 41.0932751,16.0222735 40.8713628,16.0935822 C40.6494504,16.165604 40.4405917,16.2419044 40.2434125,16.3239094 C40.0166909,16.426594 39.7899693,16.533557 39.5632477,16.6462248 C39.7013417,16.9735319 39.7947785,17.3514681 39.8442451,17.7814597 C39.8937116,18.2107383 39.9184449,18.6614094 39.9184449,19.132047 C39.9184449,19.4900168 39.9088264,19.875797 39.8882153,20.2901007 C39.8689783,20.7044044 39.8463062,21.1187081 39.8222599,21.5322987 C39.7975267,21.9466023 39.7755415,22.3459312 39.7556175,22.7288591 C39.7356935,23.1132131 39.725388,23.4483641 39.725388,23.7343121 C39.725388,24.2356124 39.7727934,24.6399329 39.8669172,24.9465604 C39.960354,25.2531879 40.1403573,25.4065017 40.4062399,25.4065017 C40.6130375,25.4065017 40.8713628,25.3779782 41.1819027,25.3223574 C41.4931296,25.2660235 41.7906159,25.196854 42.0764226,25.114849 C42.4116958,25.032844 42.7613967,24.9358641 43.1262124,24.8239094 C42.6926932,24.4659396 42.4068865,23.9846057 42.2687924,23.3813339 C42.1306984,22.7780621 42.0619948,22.1077601 42.0619948,21.371854 C42.0619948,21.1978607 42.0640559,20.995344 42.0695522,20.7657299 C42.0736744,20.5354027 42.0812318,20.2972315 42.0915373,20.0519295 C42.1011558,19.8066275 42.1107743,19.5663171 42.1210799,19.3309983 C42.1306984,19.0956795 42.1410039,18.8810403 42.1506224,18.6863674 C42.2289444,18.7583893 42.3203201,18.8197148 42.4233754,18.870344 C42.5278047,18.9216862 42.6329211,18.9530621 42.7421597,18.9630453 C42.9881183,18.9630453 43.2052215,19.0928272 43.3920951,19.3538171 C43.5789686,19.614807 43.7438571,19.957802 43.8874475,20.3820889 C44.0303508,20.8063758 44.1656967,21.289849 44.2934853,21.8317953 C44.4212738,22.3737416 44.5524976,22.9263842 44.6850954,23.488297 C44.8190672,24.0516359 44.9619706,24.6035654 45.1144924,25.1462248 C45.2670142,25.6874581 45.4470175,26.1680789 45.6538151,26.5880872 C45.8606127,27.0073826 46.0997009,27.3475252 46.3703928,27.607802 C46.6410847,27.869505 46.9598691,28 47.3239977,28 C47.6688894,28 48.0611866,27.8716443 48.499515,27.6163591 C48.9371565,27.3603607 49.4380052,26.9410654 50,26.3577601 C49.3885386,26.2450923 48.8739492,26.0104866 48.4548577,25.6525168 C48.0357662,25.2938339 47.679195,24.8645554 47.3830828,24.363255" id="Fill-15" fill="#FFFFFF"></path>
                <path d="M26.7923038,7.62171021 C26.8811833,7.32210512 26.9919511,7.05410672 27.1252704,6.81573959 C27.2579264,6.57803093 27.4137972,6.38509842 27.5922196,6.23694206 C27.7706419,6.08878569 27.9702892,6.00911049 28.1911615,5.99791645 C28.2833574,5.99330715 28.3656041,6.04664344 28.4352486,6.1585838 C28.504893,6.27052416 28.5446898,6.41868053 28.5539757,6.60305289 C28.5632616,6.77557275 28.5387202,6.96257901 28.479025,7.16209624 C28.4193298,7.36095501 28.3165214,7.55454599 28.1692732,7.74089377 C28.0220251,7.92790003 27.8210512,8.09449363 27.5663516,8.2400161 C27.3123154,8.38619705 26.9946042,8.49221116 26.6138815,8.55805843 C26.6437291,8.23343138 26.702761,7.9213153 26.7923038,7.62171021 M25.0836943,5.6732894 C24.7248598,6.15463296 24.4476087,6.69194671 24.2512778,7.28523064 C24.0556102,7.87917305 23.9740267,8.48694338 24.0071907,9.10920011 C24.0463243,9.86973611 24.1909193,10.5064792 24.4389861,11.020088 C24.6870528,11.5323798 24.9994577,11.937999 25.3755375,12.2362871 C25.7522806,12.5345753 26.1681572,12.7413357 26.6218408,12.8565684 C27.0761877,12.9718011 27.529208,13.0172358 27.9822283,12.9941892 C28.3768799,12.9737766 28.7576027,12.9072708 29.1243966,12.7959889 C29.4905272,12.684707 29.812218,12.5464278 30.0894691,12.3818096 C30.3653936,12.2178499 30.5829495,12.0334775 30.7408101,11.8286925 C30.8986708,11.6239075 30.9722949,11.4118792 30.9603558,11.1932663 C30.9464269,10.9279018 30.8303529,10.7033626 30.6108072,10.5176733 C30.3912615,10.3333009 30.0602848,10.2286038 29.6165504,10.2055572 C29.4872108,10.6276382 29.2869002,10.9595085 29.0142921,11.1985341 C28.7410207,11.4382182 28.4538204,11.5653034 28.1526912,11.5817652 C27.8973284,11.5942762 27.6731397,11.5481831 27.4814518,11.4428275 C27.2897639,11.3374718 27.1305766,11.1866816 27.0038901,10.9904567 C26.8772036,10.7948903 26.781028,10.5690342 26.7153633,10.3122298 C26.6490353,10.0560839 26.6085752,9.7782084 26.5926565,9.47794484 C26.84006,9.52337946 27.0801673,9.55432768 27.3136419,9.57078949 C27.5471165,9.58790978 27.7686521,9.59054368 27.9775853,9.58000811 C28.4995867,9.55235226 28.9539336,9.44567967 29.3399626,9.25801495 C29.7253283,9.07035022 30.044366,8.83395851 30.297739,8.54949829 C30.5504487,8.26503807 30.7348406,7.94962963 30.8502513,7.6026145 C30.9656621,7.25559937 31.0147448,6.90331646 30.9961729,6.54576577 C30.9776011,6.20006758 30.8986708,5.86951427 30.7600452,5.55278889 C30.6207564,5.23672198 30.4177927,4.96148038 30.1498276,4.72706408 C29.8805359,4.49198932 29.5542021,4.30630001 29.1688363,4.17065463 C28.7828073,4.03435077 28.3350933,3.97969753 27.8243676,4.00669492 C27.3017029,4.03303382 26.8042428,4.19765201 26.3313241,4.49989099 C25.8584054,4.8014715 25.4425288,5.1926043 25.0836943,5.6732894" id="Fill-17" fill="#FFFFFF"></path>
            </g>
        </g>
    </g>
</svg>