<?xml version="1.0" encoding="utf-8"?>
<!-- Generator: Adobe Illustrator 21.1.0, SVG Export Plug-In . SVG Version: 6.00 Build 0)  -->
<!DOCTYPE svg PUBLIC "-//W3C//DTD SVG 1.1//EN" "http://www.w3.org/Graphics/SVG/1.1/DTD/svg11.dtd">
<svg version="1.1" id="Layer_1" xmlns="http://www.w3.org/2000/svg" xmlns:xlink="http://www.w3.org/1999/xlink" x="0px" y="0px"
	 viewBox="0 0 261 117" style="enable-background:new 0 0 261 117;" xml:space="preserve">
<style type="text/css">
	.st0{fill:#1D71B8;}
	.st1{fill:#1993D8;}
	.st2{fill:#15A7E8;}
	.st3{fill:#0BB8F4;}
	.st4{fill:#3C3C3B;}
	.st5{fill:#FFFFFF;}
</style>
<g>
	<g>
		<path class="st0" d="M22.7,56c-1.1-1.2-4.8-3-7.7-2.9c-2.9,0.1-3,3.6-1.9,4.2c1.2,0.6,2.4,2.7,4.5,5.3c2.1,2.5,5.2,3.4,6.2,1.6
			C25.7,60.8,23.7,57.1,22.7,56z"/>
		<path class="st1" d="M48.2,39.7c0,1.2,1,3.9,2.3,4.1c1.3,0.3,3.6,0.1,4.5-1.9c1-2,0.1-5-0.5-6.1c-0.7-1-1.2-2.2-0.1-3.4
			c1-1.3,1.5-3.1,1.2-4.7c-0.3-1.6,0-7.7,0-9.3s-0.7-4.1-3.4-3.8c-2.7,0.3-3.2,7.1-3,10c0.1,2.9,1.3,6.6,1,8.1
			C49.8,34.2,48.1,36.7,48.2,39.7z"/>
		<path class="st2" d="M62.4,47.8c1.9,0.5,3.4-0.5,4.8-1.9c1.4-1.3,2.4-6.2,2.9-8.4c0.5-2.1,0-3.7,2-6.5c2-2.7,2-6.6,1.7-8.4
			c-0.3-1.9-3.3-0.9-5.6,0.7s-1.5,7.6-1.9,10.3c-0.4,2.7-4.6,6.6-5.3,7.9c-0.7,1.3-0.5,2.7,0,3.9C61.6,46.4,60.7,47.2,62.4,47.8z"/>
		<path class="st3" d="M81.3,38.6c-1.7-0.2-2.4,1.3-3.2,2.4c-0.8,1-1.7,2.8-1.9,3.6c-0.1,0.8-1.3,1.9-1.7,3.3
			c-0.4,1.5-0.4,4.4,1,3.9c1.3-0.5,2.5-1.6,3-2.5c0.5-1,0.5-1.9,1.3-2.1c0.8-0.3,3.3-2.8,3.6-4C83.6,41.9,84.1,39,81.3,38.6z"/>
		<path class="st3" d="M72,54c-0.4,0.7-1.9,3,0,2.1c1.9-1,1.8-1.6,2.3-3S72.7,52.6,72,54z"/>
		<path class="st0" d="M70.1,60.8c-0.9-2.3-2.5-3.8-3.7-5.1c-1.6-1.7-3-3.2-5.7-2.5c-2.7,0.7-4.7-3.4-7.8-4.1
			c-3.2-0.7-6.2,0.8-8.2-2s0.4-4.2-1.2-6.4s-2.5-4.5-3-6.9c-0.5-2.4-1.3-4.5-1.6-6.5c-0.3-2,0.1-5.9-2.1-6.7c-2.2-1-4.2-0.4-5.2,1
			c-1,1.5-0.5,6.2,0,7.8c0.5,1.6,0.7,5.3,1.5,7c0.8,1.7,1.2,4.7,2.5,7.4c1.3,2.7,3.3,3.4,2.9,5c-0.4,1.6-1.2,4.2-0.1,7.1
			c1,2.9,0.7,5.6-0.5,6.7c-0.6,0.6-2,1.6-3.4,2.8c-0.5-0.7-1.8-1.9-4-1.1c-2.9,1-4.6,2.2-5.5,3.4c-0.4,0.3-0.7,0.8-0.9,1.5
			c-0.5,1.3-0.2,2.4-0.1,2.8c0.4,3.4,2.2,8.2,4.8,12.9c1.9,4.2,4.4,8.7,7.8,12.4c1.9,2,4,2.8,6.1,2.7c0,0,0,0,0,0
			c8.9,2,21.4-7.4,27.2-18.3l0,0c1.8-3.2,2.9-6.8,2.9-10.7C72.7,67.3,71.8,63.8,70.1,60.8z"/>
	</g>
</g>
<g>
	<path class="st4" d="M85.1,66.6c0-0.5,0.3-0.8,0.8-0.8h0.7c0.5,0,0.8,0.3,0.8,0.8v1.1c0,0.4-0.1,0.7-0.1,0.7h0
		c0.5-1.1,1.9-2.9,4.6-2.9c2.9,0,4.2,1.6,4.2,4.7v7c0,0.5-0.3,0.8-0.8,0.8h-0.7c-0.5,0-0.8-0.3-0.8-0.8v-6.5c0-1.7-0.3-3.1-2.3-3.1
		c-2.4,0-4.1,2-4.1,4.5v5c0,0.5-0.3,0.8-0.8,0.8h-0.7c-0.5,0-0.8-0.3-0.8-0.8V66.6z"/>
	<path class="st4" d="M104.6,65.5c3.4,0,5.2,2.4,5.2,5.8c0,0.4-0.3,0.8-0.8,0.8h-8.1c0.1,2.6,2,4.1,4.2,4.1c1.3,0,2.4-0.6,2.9-1
		c0.5-0.2,0.8-0.2,1.1,0.3l0.2,0.4c0.2,0.4,0.2,0.8-0.2,1.1c-0.7,0.5-2.2,1.3-4.1,1.3c-3.8,0-6.4-2.8-6.4-6.4
		C98.5,68,101.1,65.5,104.6,65.5z M107.5,70.6c-0.1-2.1-1.3-3.2-3-3.2c-1.8,0-3.2,1.2-3.6,3.2H107.5z"/>
	<path class="st4" d="M117.7,65.5c3.4,0,5.2,2.4,5.2,5.8c0,0.4-0.3,0.8-0.8,0.8H114c0.1,2.6,2,4.1,4.2,4.1c1.3,0,2.4-0.6,2.9-1
		c0.5-0.2,0.8-0.2,1.1,0.3l0.2,0.4c0.2,0.4,0.2,0.8-0.2,1.1c-0.7,0.5-2.2,1.3-4.1,1.3c-3.8,0-6.4-2.8-6.4-6.4
		C111.6,68,114.2,65.5,117.7,65.5z M120.6,70.6c-0.1-2.1-1.3-3.2-3-3.2c-1.8,0-3.2,1.2-3.6,3.2H120.6z"/>
	<path class="st4" d="M130.2,65.5c2.8,0,3.8,2.1,3.8,2.1h0c0,0-0.1-0.4-0.1-0.8v-5c0-0.5,0.3-0.8,0.8-0.8h0.7c0.5,0,0.8,0.3,0.8,0.8
		v15.4c0,0.5-0.3,0.8-0.8,0.8h-0.6c-0.5,0-0.8-0.3-0.8-0.7v-0.7c0-0.3,0-0.6,0-0.6h0c0,0-1,2.3-4,2.3c-3.3,0-5.4-2.6-5.4-6.4
		C124.7,68,127,65.5,130.2,65.5z M130.5,76.2c1.8,0,3.5-1.3,3.5-4.4c0-2.2-1.1-4.3-3.5-4.3c-1.9,0-3.5,1.6-3.5,4.3
		C127.1,74.5,128.5,76.2,130.5,76.2z"/>
	<path class="st4" d="M139,75.8l0.2-0.3c0.3-0.4,0.6-0.4,1.1-0.2c0.6,0.4,1.6,1,3,1c1.2,0,2.1-0.6,2.1-1.6c0-2.4-6.3-1.6-6.3-5.7
		c0-2.3,2-3.5,4.4-3.5c1.7,0,2.8,0.6,3.4,0.9c0.4,0.2,0.5,0.6,0.3,1.1l-0.2,0.4c-0.2,0.4-0.6,0.5-1.1,0.3c-0.5-0.3-1.3-0.7-2.5-0.7
		c-1.2,0-2,0.5-2,1.5c0,2.4,6.3,1.6,6.3,5.7c0,2.1-1.8,3.6-4.4,3.6c-2,0-3.4-0.8-4.1-1.3C138.8,76.6,138.8,76.2,139,75.8z"/>
	<path class="st4" d="M150,66.7c0-0.6,0.3-1,1-1h0.9c0.6,0,1,0.4,1,1v0.7c0,0.3,0,0.6,0,0.6h0c0.6-1.2,2.1-2.6,4-2.6
		c1.8,0,3.1,0.9,3.6,2.5h0c0.6-1.3,2.3-2.5,4.2-2.5c2.5,0,4,1.4,4,4.7v6.9c0,0.7-0.4,1-1,1h-1c-0.7,0-1-0.3-1-1v-6.3
		c0-1.4-0.3-2.5-1.7-2.5c-2.1,0-3.1,2.1-3.1,4.3v4.5c0,0.7-0.3,1-1,1h-1.1c-0.6,0-1-0.3-1-1v-6.3c0-1.3-0.2-2.5-1.6-2.5
		c-2.2,0-3.2,2.2-3.2,4.3v4.5c0,0.7-0.3,1-1,1H151c-0.6,0-1-0.3-1-1V66.7z"/>
	<path class="st4" d="M171.4,66.7c0-0.6,0.4-1,1-1h1c0.7,0,1,0.4,1,1v6.2c0,1.5,0.4,2.5,1.9,2.5c2.2,0,3.4-1.9,3.4-4.1v-4.6
		c0-0.6,0.3-1,1-1h1c0.6,0,1,0.4,1,1v10.2c0,0.7-0.4,1-1,1h-0.9c-0.6,0-1-0.3-1-1v-0.7c0-0.3,0-0.6,0-0.6h0
		c-0.6,1.2-2.2,2.6-4.3,2.6c-2.6,0-4.3-1.3-4.3-4.7V66.7z"/>
	<path class="st4" d="M185.4,75.6l0.3-0.4c0.4-0.5,0.8-0.6,1.4-0.2c0.6,0.3,1.5,0.8,2.7,0.8c1.1,0,1.7-0.5,1.7-1.2
		c0-2-6.1-1.2-6.1-5.5c0-2.4,2.1-3.7,4.7-3.7c1.6,0,2.8,0.5,3.4,0.9c0.6,0.3,0.6,0.8,0.4,1.3l-0.2,0.4c-0.3,0.6-0.7,0.6-1.3,0.4
		c-0.5-0.2-1.3-0.6-2.3-0.6c-1.1,0-1.7,0.4-1.7,1.2c0,2,6.1,1.2,6.1,5.4c0,2.2-1.8,3.8-4.7,3.8c-2,0-3.3-0.7-4.1-1.2
		C185,76.7,185,76.1,185.4,75.6z"/>
	<path class="st4" d="M197.3,68.3h-0.6c-0.6,0-1-0.3-1-1v-0.4c0-0.6,0.3-1,1-1h0.7v-2.5c0-0.6,0.4-1,1-1h1c0.6,0,1,0.4,1,1v2.5h1.8
		c0.6,0,1,0.4,1,1v0.4c0,0.7-0.4,1-1,1h-1.8V73c0,1.8,1.1,2.2,2,2.3c0.7,0.1,1,0.3,1,1v0.7c0,0.7-0.4,1-1.2,1
		c-2.2,0-4.8-1.2-4.8-4.5V68.3z"/>
	<path class="st4" d="M206.1,67.2h-1c-0.4,0-0.6-0.2-0.6-0.6v-0.2c0-0.4,0.2-0.6,0.6-0.6h1v-0.5c0-3.8,2.9-4.5,4.1-4.5h0.3
		c0.4,0,0.6,0.2,0.6,0.6v0.3c0,0.4-0.2,0.6-0.6,0.6c-1,0-2.6,0.3-2.6,3v0.4h6.3c0.4,0,0.6,0.2,0.6,0.6v10.9c0,0.4-0.2,0.6-0.6,0.6
		h-0.5c-0.4,0-0.6-0.2-0.6-0.6V67.2h-5.3v10.1c0,0.4-0.2,0.6-0.6,0.6h-0.5c-0.4,0-0.6-0.2-0.6-0.6V67.2z M213,62.5v-0.9
		c0-0.4,0.2-0.6,0.6-0.6h0.6c0.4,0,0.6,0.2,0.6,0.6v0.9c0,0.4-0.2,0.6-0.6,0.6h-0.6C213.2,63.1,213,62.9,213,62.5z"/>
	<path class="st4" d="M218.4,61.7c0-0.4,0.2-0.6,0.6-0.6h0.5c0.4,0,0.6,0.2,0.6,0.6v13.1c0,1.5,0.7,1.7,1.2,1.8
		c0.3,0,0.5,0.2,0.5,0.5v0.4c0,0.4-0.2,0.6-0.6,0.6c-1,0-2.8-0.3-2.8-3V61.7z"/>
	<path class="st4" d="M224.3,66.5c0-0.4,0.2-0.6,0.6-0.6h0.4c0.4,0,0.6,0.2,0.6,0.6v1.4c0,0.5-0.1,0.9-0.1,0.9h0
		c0.6-1.6,2.5-3.1,4.4-3.1c2.2,0,3.4,1,3.7,3h0c0.7-1.5,2.4-3,4.4-3c2.9,0,4,1.7,4,4.7v7.1c0,0.4-0.2,0.6-0.6,0.6h-0.4
		c-0.4,0-0.6-0.2-0.6-0.6v-6.7c0-2-0.4-3.6-2.6-3.6c-2.4,0-4.1,2.5-4.1,5v5.2c0,0.4-0.2,0.6-0.6,0.6h-0.5c-0.4,0-0.6-0.2-0.6-0.6
		v-6.7c0-1.8-0.3-3.6-2.5-3.6c-2.5,0-4.1,2.6-4.1,5v5.2c0,0.4-0.2,0.6-0.6,0.6h-0.5c-0.4,0-0.6-0.2-0.6-0.6V66.5z"/>
</g>
<g id="Your_Icon_8_">
	<path class="st5" d="M53,58.3c7.9,0,14.3,6.4,14.3,14.3c0,7.9-6.4,14.3-14.3,14.3c-7.9,0-14.3-6.4-14.3-14.3
		C38.7,64.7,45.1,58.3,53,58.3L53,58.3z M53,61.9c-5.9,0-10.7,4.8-10.7,10.7c0,5.9,4.8,10.7,10.7,10.7c5.9,0,10.7-4.8,10.7-10.7
		C63.7,66.7,58.9,61.9,53,61.9z"/>
	<path class="st5" d="M53,64.4c-4.5,0-8.2,3.7-8.2,8.2c0,4.5,3.7,8.2,8.2,8.2c4.5,0,8.2-3.7,8.2-8.2C61.2,68,57.5,64.4,53,64.4z
		 M48,74c-0.4-0.6-0.8-1.3-0.9-2c-0.3-2.4,1.5-4.6,4-5c1.1-0.1,2.2,0.1,3.1,0.7c-1.3,0.5-2.6,1.4-3.7,2.5C49.3,71.4,48.5,72.7,48,74
		z M51.1,71.6c0,0.1-0.5-0.1-0.5-0.5c0-0.5,0.4-0.9,0.9-0.9c0.4,0,0.6,0.5,0.5,0.5 M53.2,74.1c-0.9,0.1-1.6-0.5-1.8-1.3
		c-0.1-0.9,0.5-1.6,1.3-1.8c0.9-0.1,1.6,0.5,1.8,1.3C54.6,73.2,54,74,53.2,74.1z M57.4,77.7c-0.4,0-0.6-0.3-0.6-0.6s0.3-0.6,0.6-0.6
		c0.4,0,0.6,0.3,0.6,0.6S57.8,77.7,57.4,77.7z"/>
</g>
<path d="M36.5,65.8"/>
</svg>
