<?xml version="1.0" encoding="utf-8"?>
<!-- Generator: Adobe Illustrator 21.1.0, SVG Export Plug-In . SVG Version: 6.00 Build 0)  -->
<!DOCTYPE svg PUBLIC "-//W3C//DTD SVG 1.1//EN" "http://www.w3.org/Graphics/SVG/1.1/DTD/svg11.dtd">
<svg version="1.1" id="Layer_1" xmlns="http://www.w3.org/2000/svg" xmlns:xlink="http://www.w3.org/1999/xlink" x="0px" y="0px"
	 viewBox="0 0 506 514" style="enable-background:new 0 0 506 514;" xml:space="preserve">
<g>
	<path d="M1.7,256C2,116.7,115.1,5.2,252.7,5.4c139,0.2,252.4,113.9,250.7,253.9C501.9,396.7,388.7,509,248.9,507.1
		C113.5,505.2,2,394.7,1.7,256z M252.6,19.6c-130.2,0-235.8,105.4-236.6,235c-0.8,131.7,105.3,236.5,232.9,238.3
		c130.9,1.9,238.6-103,240.4-233.3C491,127.1,383.8,19.6,252.6,19.6z"/>
	<path d="M252.4,386.4c-71.9,0-131.1-59.3-129.7-132.6c1.4-70,59-127.9,131.4-127.2c71,0.7,129.1,58.7,128.4,131.1
		C381.9,329.4,323.3,386.5,252.4,386.4z M252.5,361.6c58.1,0,105.2-46.9,105.3-105c0.1-57.9-47-105.2-104.8-105.3
		c-58.4-0.1-104.6,47-105.4,103.6C146.7,313.7,194.4,361.7,252.5,361.6z"/>
	<path d="M289.1,80.1c0-13.9,10.8-24.7,24.5-24.7c14.1,0,25.5,11.1,25.5,24.8c0,13.7-10.9,24.6-24.5,24.6
		C300.6,104.8,289.1,93.8,289.1,80.1z M313.8,94.3c7.7,0,14.1-6.7,14.1-14.8c0-7.6-6.1-13.7-13.6-13.7c-7.7,0-14.1,6.7-14.1,14.8
		C300.3,88.2,306.3,94.2,313.8,94.3z"/>
	<path d="M189.7,454.4c-14.8-0.5-25.6-11.6-25.3-26c0.4-13.3,11.8-23.8,25.5-23.4c13.7,0.4,25.1,11.9,24.7,24.9
		C214.1,444,203.1,454.9,189.7,454.4z M175.8,430.2c0,7.8,5.9,13.8,13.6,13.8c7.6,0,14-6.7,14-14.7c0-7.7-6-13.8-13.6-13.8
		C182.1,415.5,175.8,422.1,175.8,430.2z"/>
	<path d="M89.5,253.2c-13.6-1.6-27-3.3-40.5-4.9c0.4-3.4,0.7-6.6,1.2-9.9c0.6-4,0.9-8.2,1.9-12.1c1.6-5.9,5.3-10,11.7-10.9
		c6.3-0.8,11.9,2.2,14.8,7.9c0.2,0.4,0.4,0.7,0.7,1.2c2.5-1.5,4.9-2.9,7.3-4.3c2.4-1.4,4.8-2.8,7.5-4.4c-0.5,4.1-0.9,7.9-1.4,11.7
		c-0.1,0.5-0.7,1-1.2,1.2c-3.4,2-6.7,3.9-10.2,5.8c-1.1,0.6-1.6,1.3-1.7,2.5c-0.1,1.4-0.3,2.9-0.5,4.5c3.9,0.5,7.7,1,11.7,1.5
		C90.3,246.4,89.9,249.7,89.5,253.2z M70,240.5c0.2-3.4,0.7-6.8,0.6-10.1c-0.1-2.7-2.1-4.6-4.4-4.9c-2.2-0.3-4.6,1-5.4,3.6
		c-0.9,3.2-1.3,6.6-1.9,10.1C62.8,239.6,66.2,240.1,70,240.5z"/>
	<path d="M424.5,285.2c-4.9,2.9-9.7,5.7-14.8,8.7c0.5-4.1,1-7.9,1.5-11.7c0.1-0.5,0.7-0.9,1.2-1.2c3.3-1.9,6.5-3.8,9.9-5.6
		c1.2-0.7,2-1.4,1.9-2.9c0-1.3,0.3-2.6,0.5-4.2c-3.9-0.5-7.7-1-11.7-1.5c0.4-3.4,0.8-6.6,1.2-10.1c13.5,1.6,26.9,3.2,40.5,4.9
		c-0.5,4.2-0.9,8.3-1.5,12.4c-0.4,3-0.6,6.1-1.4,9c-2.9,11.2-15,15.3-23.3,7.9c-0.9-0.8-1.6-1.7-2.3-2.6
		C425.6,287.3,425.1,286.3,424.5,285.2z M433.9,269.3c-0.3,2.5-0.7,4.8-0.9,7.1c-0.1,1.4,0,2.8,0.4,4.1c0.6,2,2,3.4,4.1,3.6
		c2.2,0.3,3.8-0.7,4.9-2.5c0.5-0.9,0.9-1.9,1.1-2.9c0.4-2.6,0.7-5.3,1.1-8.2C441,270.1,437.5,269.7,433.9,269.3z"/>
	<path d="M419.1,344c4.8,0.6,8.2-2.2,8.5-6.9c0.1-1.7-0.6-3-2.1-3.8c-1.5-0.8-2.8-0.3-3.8,0.8c-1.9,2.1-3.6,4.3-5.4,6.4
		c-1.2,1.4-2.4,2.7-3.8,4c-7.6,7-17.4,0.5-18.6-6.3c-1.4-7.8,1.6-14.1,6.7-19.6c2.6-2.8,5.9-4.6,9.8-4.6c2.1,0,4.3,0.4,6.7,0.7
		c-1.5,3.1-2.8,5.8-4.1,8.5c-0.2,0.4-1,0.8-1.5,0.8c-4.6,0-9.2,4.6-8.8,9.3c0.1,1,0.9,2.3,1.7,2.7c0.8,0.4,2.4,0.1,3.1-0.5
		c1.8-1.8,3.3-3.9,5-5.8c1.5-1.7,2.9-3.5,4.5-5c7.3-6.7,16.6-0.9,18.8,5c3.2,8.8-3.7,22-12.8,24.2c-2.6,0.7-5.6,0.4-8.5-0.8
		C416.2,350.1,417.6,347.1,419.1,344z"/>
	<path d="M86.6,194.7c1.5-3.1,2.9-6,4.3-9c5.5,0.7,8.7-3.2,9.9-8.2c0.4-1.6,0-2.9-1.5-3.8c-1.5-0.9-2.8-0.3-3.8,0.8
		c-2,2.2-3.8,4.7-5.7,6.9c-1.2,1.4-2.4,2.8-3.8,3.9c-3.4,2.9-7.3,3.5-11.5,1.7c-4.4-1.9-7.2-5.1-7.6-9.9c-0.6-8.1,2.7-14.5,9.1-19.3
		c3.7-2.8,8-3.1,12.7-1.3c-0.2,0.5-0.4,1-0.6,1.5c-0.9,1.8-1.8,3.6-2.6,5.4c-0.6,1.5-1.3,2.2-3.2,2c-3.7-0.3-7.5,5.3-6.2,8.8
		c0.8,2.2,3.4,3,5.2,1.5c1.1-0.9,2-2.1,3-3.2c2.2-2.5,4.3-5.2,6.7-7.5c3-2.9,6.7-3.9,10.8-2.4c4.3,1.7,7.1,4.7,7.9,9.3
		c1.3,7.9-3.8,18.3-10.9,22C95,196.2,90.9,196.3,86.6,194.7z"/>
	<path d="M97.8,305.5c-13.4,3.1-26.5,6.1-39.8,9.2c-2.3-10.1-4.6-20-6.9-30.1c2.9-0.7,5.7-1.3,8.7-2c1.6,6.7,3.1,13.3,4.7,20.1
		c2.4-0.5,4.6-1.1,7.1-1.6c-1.3-5.9-2.7-11.7-4-17.6c2.9-0.7,5.6-1.3,8.5-2c1.4,5.9,2.7,11.7,4.1,17.6c2.3-0.5,4.4-1,6.7-1.6
		c-1.5-6.8-3.1-13.4-4.6-20.1c3-0.7,5.7-1.3,8.7-2C93.2,285.5,95.5,295.4,97.8,305.5z"/>
	<path d="M423.6,210.7c-2.3,0.5-4.4,1-6.7,1.6c1.5,6.7,3,13.3,4.6,20.1c-2.9,0.7-5.6,1.3-8.7,2c-2.3-10-4.6-20-7-30.1
		c13.3-3.1,26.4-6.1,39.8-9.2c2.3,10,4.6,20,6.9,30.1c-3,0.7-5.7,1.3-8.7,2c-1.6-6.7-3.1-13.3-4.7-20.1c-2.4,0.5-4.7,1.1-7.1,1.6
		c1.3,5.9,2.7,11.6,4,17.5c-2.8,0.7-5.5,1.3-8.5,2C426.3,222.3,425,216.6,423.6,210.7z"/>
	<path d="M133.4,420.1c-2.7-2.3-5.1-4.4-7.8-6.7c0.5-0.6,0.9-1.1,1.4-1.7c4.3-4.9,8.6-9.8,12.9-14.8c2.2-2.5,3.8-5.3,3.1-8.8
		c-1.1-5.6-7.2-8.6-12.2-5.9c-1.5,0.8-2.8,1.9-4,3.2c-4.4,5-8.8,10-13.1,15c-0.4,0.5-0.8,0.9-1.3,1.4c-2.6-2.2-5.1-4.4-7.7-6.7
		c3.9-4.5,7.8-9,11.7-13.4c1.3-1.5,2.6-3.1,4-4.5c8.1-8.2,18-8.4,26.5-0.7c7.9,7.2,8.9,16.8,2.2,25.3
		C144.1,408.1,138.7,413.9,133.4,420.1z"/>
	<path d="M370.3,89.6c2.7,2.4,5.2,4.5,7.8,6.8c-2.9,3.4-5.8,6.7-8.6,9.9c-1.9,2.2-3.9,4.4-5.8,6.6c-0.9,1.2-1.8,2.5-2.4,3.9
		c-1.5,3.5-0.7,6.9,2,9.3c2.9,2.7,6.4,3.2,9.8,1.3c1.6-0.9,3-2.3,4.3-3.7c4.6-5.2,9.2-10.5,13.9-15.9c2.6,2.2,5.1,4.4,7.6,6.6
		c-0.1,0.3-0.1,0.5-0.2,0.6c-5.2,5.9-10.2,12-15.6,17.7c-5.1,5.4-11.5,7.9-18.8,5c-7.7-3.1-13.2-8.4-14-17.2
		c-0.4-4.3,0.9-8.2,3.5-11.5C359.1,102.5,364.7,96.2,370.3,89.6z"/>
	<path d="M330.4,442.4c-3.4,1-6.5,2.1-9.7,2.9c-0.6,0.2-1.5-0.2-2-0.6c-3.8-3.6-7.6-7.2-11.4-10.9c-0.7-0.6-1.3-1.2-2.2-2.1
		c-0.6,2.4-1.1,4.6-1.6,6.7c-0.9,3.9-1.8,7.7-2.6,11.6c-0.2,1-0.6,1.6-1.7,1.8c-3.1,0.8-6.1,1.8-9.5,2.8c1-4.4,1.9-8.6,2.8-12.7
		c1.3-5.9,2.7-11.9,3.9-17.9c0.2-0.9,0.2-1.9-0.1-2.8c-0.9-3.4-2-6.8-3.1-10.3c3.3-1,6.5-2,9.8-3c1,3.2,2,6.3,2.8,9.4
		c0.5,1.7,1.4,3,2.7,4.2c6.8,6.4,13.6,12.9,20.4,19.4C329.4,441.3,329.8,441.8,330.4,442.4z"/>
	<path d="M173.3,67.4c3.5-1.1,6.8-2.1,10.1-3c0.5-0.1,1.3,0.4,1.8,0.9c4.1,3.9,8.2,7.9,12.3,11.8c0.3,0.3,0.6,0.5,1.2,1
		c0.8-3.7,1.6-7.3,2.4-10.8c0.6-2.6,1.1-5.1,1.7-7.7c0.1-0.5,0.5-1.2,0.9-1.4c3.2-1.1,6.5-2,10.1-3.1c-0.5,2.3-0.9,4.4-1.4,6.4
		c-1.8,7.9-3.6,15.8-5.3,23.8c-0.2,1.1-0.2,2.3,0.1,3.4c0.9,3.4,2,6.7,3,10.2c-3.2,1-6.4,2-9.8,3c-1-3.4-2-6.8-3.1-10.1
		c-0.3-1-0.9-2-1.7-2.7c-7.1-6.9-14.3-13.7-21.4-20.5C174,68.2,173.8,67.9,173.3,67.4z"/>
	<path d="M95,369.2c-2.7,1.6-5.2,3.1-7.9,4.7c-6.2-10.4-12.3-20.7-18.5-31.1c2.7-1.6,5.2-3.1,7.9-4.7c2.2,3.7,4.4,7.3,6.6,11.1
		c9.1-5.4,18.1-10.7,27.3-16.1c1.8,3,3.5,5.8,5.2,8.8c-9.1,5.4-18.1,10.7-27.2,16.2C90.6,361.7,92.7,365.4,95,369.2z"/>
	<path d="M435,167.1c-2.7,1.6-5.2,3.1-7.9,4.7c-2.2-3.7-4.3-7.3-6.6-11.1c-9.1,5.4-18.1,10.7-27.3,16.1c-1.7-2.9-3.4-5.8-5.2-8.8
		c9.1-5.4,18.1-10.7,27.3-16.1c-2.2-3.7-4.3-7.4-6.6-11.2c2.7-1.6,5.2-3.1,7.9-4.7C422.7,146.3,428.8,156.6,435,167.1z"/>
	<path d="M347.3,385.1c6,8.8,11.9,17.4,17.9,26.1c3.6-2.5,7.1-4.8,10.7-7.3c1.7,2.5,3.4,4.9,5.2,7.6c-10,6.8-19.8,13.6-29.9,20.4
		c-1.7-2.5-3.4-4.9-5.2-7.6c3.5-2.4,7-4.8,10.7-7.3c-5.9-8.7-11.8-17.4-17.9-26.2C341.6,388.9,344.4,387,347.3,385.1z"/>
	<path d="M147,92.8c6,8.8,11.9,17.4,17.9,26.1c-2.8,1.9-5.5,3.8-8.4,5.8c-5.9-8.7-11.9-17.3-17.9-26.1c-3.6,2.4-7.1,4.8-10.7,7.3
		c-1.7-2.5-3.4-5-5.2-7.5c10-6.8,19.9-13.6,29.9-20.4c1.8,2.6,3.4,5,5.2,7.6C154.1,87.9,150.6,90.3,147,92.8z"/>
	<path d="M408.2,383.3c-2.3,2.7-4.4,5.1-6.7,7.7c-10.3-8.9-20.5-17.7-30.9-26.7c2.2-2.6,4.4-5.1,6.7-7.8
		C387.6,365.4,397.8,374.3,408.2,383.3z"/>
	<path d="M133.1,145.5c-1.7,1.9-3.2,3.7-4.7,5.4c-0.6,0.7-1.3,1.5-2,2.3c-10.3-8.9-20.5-17.7-30.9-26.7c2.2-2.6,4.4-5.1,6.7-7.8
		C112.5,127.7,122.8,136.5,133.1,145.5z"/>
	<path d="M263.2,444c0,5.9-4.7,10.6-10.6,10.6c-5.8,0-10.6-4.8-10.6-10.7c0-5.9,4.7-10.5,10.6-10.6C258.6,433.4,263.2,438,263.2,444
		z"/>
	<path d="M263.2,72.1c0,6-4.6,10.6-10.6,10.5c-5.9,0-10.6-4.8-10.5-10.6c0.1-5.9,4.7-10.5,10.7-10.5
		C258.6,61.5,263.2,66.2,263.2,72.1z"/>
</g>
</svg>
