<?xml version="1.0" encoding="utf-8"?>
<!-- Generator: Adobe Illustrator 21.1.0, SVG Export Plug-In . SVG Version: 6.00 Build 0)  -->
<!DOCTYPE svg PUBLIC "-//W3C//DTD SVG 1.1//EN" "http://www.w3.org/Graphics/SVG/1.1/DTD/svg11.dtd">
<svg version="1.1" id="Layer_1" xmlns="http://www.w3.org/2000/svg" xmlns:xlink="http://www.w3.org/1999/xlink" x="0px" y="0px"
	 viewBox="0 0 218 130" style="enable-background:new 0 0 218 130;" xml:space="preserve">
<style type="text/css">
	.st0{fill:#231F20;}
	.st1{fill:#00ADEE;}
	.st2{fill-rule:evenodd;clip-rule:evenodd;fill:#00ADEE;}
	.st3{fill-rule:evenodd;clip-rule:evenodd;fill:#0054A5;}
	.st4{fill-rule:evenodd;clip-rule:evenodd;fill:#00A69C;}
	.st5{fill-rule:evenodd;clip-rule:evenodd;fill:url(#SVGID_1_);}
	.st6{fill-rule:evenodd;clip-rule:evenodd;fill:#FFFFFF;}
</style>
<path class="st0" d="M66.1,97.9c0,3.1-1.2,5.9-3.5,8.2c-2.4,2.3-5.2,3.4-8.5,3.4c-3.3,0-6-1.1-8.4-3.4c-2.3-2.3-3.5-5-3.5-8.2V87.4
	l8.2-8.2v18.7c0,1,0.4,1.9,1.2,2.6c0.8,0.7,1.7,1.1,2.7,1.1c1,0,1.9-0.3,2.7-1c0.8-0.7,1.2-1.6,1.2-2.6V79.2h8.1v4V97.9z"/>
<path class="st0" d="M62,86.9l0.9-7.7h29.9l-3.6,7.7H62z M69.4,87l8.2-7.7V87v22.1h-8.2V87z"/>
<path class="st0" d="M94,90.6c2.9,0,5.2,0.9,7,2.6c1.8,1.7,2.7,3.9,2.7,6.5c0,2.5-0.9,4.7-2.7,6.6c-1.8,1.9-3.9,2.8-6.5,2.8h-7.1
	h-4.6v-7.4l10.9,0.1c0.5,0,0.9-0.2,1.2-0.6c0.3-0.4,0.5-0.9,0.5-1.4c0-1.1-0.7-1.6-2.2-1.6c-2.9,0-5.3-1-7.2-2.9
	c-1.9-1.9-2.9-4.3-2.9-7c0-2.4,1-4.5,2.9-6.3c1.9-1.8,4.1-2.7,6.6-2.7h18.4l-7.8,7.7H92.5c-0.5,0-0.9,0.1-1.2,0.4
	c-0.4,0.2-0.5,0.6-0.5,1.1c0,0.8,0.3,1.4,0.9,1.7C92.3,90.5,93.1,90.6,94,90.6z"/>
<path class="st0" d="M129.6,97.9c0,3.1-1.2,5.9-3.5,8.2c-2.4,2.3-5.2,3.4-8.5,3.4c-3.2,0-6-1.1-8.4-3.4c-2.3-2.3-3.5-5-3.5-8.2V87.4
	l8.2-8.2v18.7c0,1,0.4,1.9,1.2,2.6c0.8,0.7,1.7,1.1,2.7,1.1c1,0,1.9-0.3,2.7-1c0.8-0.7,1.2-1.6,1.2-2.6V79.2h8.1v4V97.9z"/>
<path class="st0" d="M131.5,87.4l8.1-8.2V109h-8.1V87.4z M147.5,79.2c3,0,5.4,0.8,7.2,2.4c1.8,1.6,2.7,3.9,2.7,7
	c0,2.7-0.9,4.9-2.7,6.7c-1.8,1.8-4.1,2.7-7,2.7h-0.6c-0.2,0-0.5,0-0.7-0.1c-0.2-0.1-0.4-0.1-0.5-0.1c-0.1,0-0.1-0.1-0.1-0.1l0.2-0.2
	l0.5-0.2l-4.9-3.8l3.7,0c1.2,0,2.1-0.3,2.8-0.9c0.6-0.6,1-1.4,1-2.5c0-1-0.3-1.7-0.9-2.3c-0.6-0.6-1.5-0.8-2.9-0.8h-5.7v-7.7H147.5z
	 M157.2,109.2l-15.8-15.8l9.7,0l6.1,6.2L157.2,109.2z"/>
<path class="st0" d="M183.8,86.9h-9.4c-2.1,0-4,0.7-5.5,2.2c-1.6,1.5-2.3,3.3-2.3,5.4c0,1.9,0.7,3.6,2,5c1.3,1.4,2.9,2.1,4.7,2.1
	h3.3v7.4h-3.7c-4,0-7.3-1.4-10-4.3c-2.7-2.9-4.1-6.3-4.1-10.3c0-4.2,1.6-7.8,5-10.8c3.3-3,7.2-4.4,11.7-4.4h16.1L183.8,86.9z
	 M176.5,109.1V90.5h7.3v18.5H176.5z"/>
<path class="st0" d="M185.7,87.4l8.2-8.2V87v22.1h-8.2V87.4z M191.1,90.6h13.4V98h-10.7L191.1,90.6z M191.6,101.6h12.9v7.4h-10.7
	L191.6,101.6z M191.8,86.9l2-7.7h18.3l-7.7,7.7H191.8z"/>
<path class="st0" d="M116.3,79.2 M122.9,84.8l0.7-5.6h13.1l-9.5,9.5L122.9,84.8z"/>
<path class="st0" d="M38.1,102.7c0.4-0.7,0.8-1.5,1.1-2.4c0.1-0.2,0.1-0.4,0.2-0.6c0-0.1,0.1-0.3,0.1-0.4c0.5-1.7,0.8-3.7,0.6-6.1
	c-0.1-1.9-0.5-3.7-1.1-5.3c0-0.1-0.1-0.3-0.1-0.4l8.3-8.3H24.9l0,0c0,0,0,0,0,0c-4.1,0-7.7,1.4-10.7,4.1c-3,2.7-4.6,6.5-4.6,11.3
	c0,4.8,1.5,8.6,4.5,11.3c3,2.7,6.6,4,10.8,4c4.1,0,7.7-1.4,10.7-4.1c0.2-0.2,0.4-0.4,0.5-0.6c0,0,0,0,0,0s0.6-0.5,1.4-1.6
	c0.1-0.1,0.2-0.2,0.2-0.4C37.9,103.1,38,102.9,38.1,102.7z M30.1,100.1c-1.5,1.3-3.2,2-5.3,2c-2,0-3.8-0.7-5.2-2
	c-1.5-1.3-2.2-3.2-2.2-5.5c0-2.4,0.7-4.3,2.2-5.6c1.5-1.3,3.2-1.9,5.3-1.9c2,0,3.7,0.7,5.2,2c1.5,1.3,2.2,3.2,2.2,5.5
	C32.2,96.9,31.5,98.8,30.1,100.1z"/>
<path class="st0" d="M36.7,91"/>
<path class="st1" d="M101.6,123.8h3.8v1.9h-6.2v-10.3h2.4V123.8z"/>
<path class="st1" d="M112.8,115.4v1.9h-2.9v8.4h-2.4v-8.4h-2.9v-1.9H112.8z"/>
<path class="st1" d="M123.1,120.5c0,0.7-0.1,1.4-0.4,2.1s-0.6,1.2-1.1,1.6c-0.5,0.5-1,0.8-1.7,1.1c-0.7,0.3-1.4,0.4-2.2,0.4h-4
	v-10.3h4c0.8,0,1.5,0.1,2.2,0.4c0.7,0.3,1.2,0.6,1.7,1.1c0.5,0.5,0.8,1,1.1,1.6S123.1,119.8,123.1,120.5z M120.7,120.5
	c0-0.5-0.1-1-0.2-1.4c-0.1-0.4-0.3-0.8-0.6-1c-0.2-0.3-0.5-0.5-0.9-0.7c-0.4-0.2-0.8-0.2-1.2-0.2h-1.6v6.6h1.6
	c0.5,0,0.9-0.1,1.2-0.2s0.7-0.4,0.9-0.7c0.2-0.3,0.4-0.6,0.6-1S120.7,121,120.7,120.5z"/>
<path class="st2" d="M119.4,49.3c-3.8,1.8-14.4-0.1-16.4-5.3c-3.9-10.2-10-30.4-24.9-30.4c-5.4,9.8-0.8,22.7,6.6,30.1
	C91.2,50.2,109.4,57.6,119.4,49.3L119.4,49.3z"/>
<path class="st3" d="M130.4,44c-12.8,9-19.4,4.5-32.2-0.6C89.3,39.7,80.5,41,71.5,43c0,17.2,30.4,20,41.1,14.8
	C117,55.6,130.1,48.8,130.4,44L130.4,44z"/>
<path class="st4" d="M135.2,27.3c0,12.4-3.9,23.8-6,35.8C145,61.4,148.7,35,135.2,27.3L135.2,27.3z"/>
<linearGradient id="SVGID_1_" gradientUnits="userSpaceOnUse" x1="125.5847" y1="12.6209" x2="134.9185" y2="27.2878">
	<stop  offset="0" style="stop-color:#008ED3"/>
	<stop  offset="1" style="stop-color:#008DAF"/>
</linearGradient>
<path class="st5" d="M114.3,16.5c12.9-0.9,28-2.6,35,12c3.2,6.7-4.4,14.5-8.7,7.4C133.3,23.7,129.7,16.5,114.3,16.5L114.3,16.5z"/>
<path class="st2" d="M104.5,30.8c-1.3-15.6,11.1-26.4,25.8-25.9c6.8,0.2,8.7,9.8,3.3,11.7C123.6,19.8,108.3,18,104.5,30.8
	L104.5,30.8z"/>
<path class="st4" d="M135.7,39.3c-12.2,10.1-32.1,15.2-36.8,28.5C115.1,72.6,139.6,56.7,135.7,39.3L135.7,39.3z"/>
<path class="st6" d="M121,17.8c8.7,0,15.8,7.2,15.8,16c0,8.8-7.1,16-15.8,16c-8.7,0-15.8-7.2-15.8-16C105.2,25,112.2,17.8,121,17.8
	L121,17.8z"/>
<path class="st1" d="M126.8,39.3c0.3-0.4,0.5-0.9,0.6-1.3c0-0.1,0.1-0.2,0.1-0.3c0-0.1,0.1-0.2,0.1-0.3c0.3-1,0.4-2.1,0.3-3.5
	c-0.1-1.1-0.3-2.1-0.6-3c0-0.1-0.1-0.2-0.1-0.2l4.7-4.7h-12.6l0,0c0,0,0,0,0,0c-2.3,0-4.4,0.8-6.1,2.3c-1.7,1.5-2.6,3.7-2.6,6.4
	c0,2.7,0.9,4.9,2.6,6.4c1.7,1.5,3.7,2.3,6.1,2.3c2.3,0,4.4-0.8,6.1-2.3c0.1-0.1,0.2-0.2,0.3-0.3c0,0,0,0,0,0s0.3-0.3,0.8-0.9
	c0-0.1,0.1-0.1,0.1-0.2C126.6,39.5,126.7,39.4,126.8,39.3z M122.2,37.8c-0.8,0.7-1.8,1.1-3,1.1c-1.1,0-2.1-0.4-3-1.1
	c-0.8-0.8-1.3-1.8-1.3-3.1c0-1.4,0.4-2.4,1.2-3.1c0.8-0.7,1.8-1.1,3-1.1c1.1,0,2.1,0.4,3,1.1c0.8,0.8,1.3,1.8,1.3,3.1
	C123.4,36,123,37,122.2,37.8z"/>
<path class="st1" d="M126,32.6"/>
</svg>
