<?xml version="1.0" encoding="utf-8"?>
<!-- Generator: Adobe Illustrator 21.1.0, SVG Export Plug-In . SVG Version: 6.00 Build 0)  -->
<!DOCTYPE svg PUBLIC "-//W3C//DTD SVG 1.1//EN" "http://www.w3.org/Graphics/SVG/1.1/DTD/svg11.dtd">
<svg version="1.1" id="Layer_1" xmlns="http://www.w3.org/2000/svg" xmlns:xlink="http://www.w3.org/1999/xlink" x="0px" y="0px"
	 viewBox="0 0 407 100" style="enable-background:new 0 0 407 100;" xml:space="preserve">
<style type="text/css">
	.st0{fill:#202021;}
	.st1{fill:#2BB680;}
</style>
<path class="st0" d="M9.1,21.3H15v7h0.2c1-1.4,2.1-2.7,3.4-3.7c1.3-1,2.7-1.8,4.1-2.5c1.4-0.7,2.9-1.1,4.4-1.4
	c1.5-0.3,3-0.4,4.3-0.4c3.3,0,6.3,0.6,9,1.7c2.7,1.1,5.1,2.6,7,4.6c2,2,3.5,4.3,4.6,7c1.1,2.7,1.7,5.6,1.7,8.8
	c0,3.2-0.6,6.1-1.7,8.8c-1.1,2.7-2.6,5-4.6,7c-2,2-4.3,3.5-7,4.6c-2.7,1.1-5.7,1.7-9,1.7c-1.4,0-2.8-0.1-4.3-0.4
	c-1.5-0.3-3-0.8-4.4-1.4c-1.4-0.7-2.8-1.5-4.1-2.5c-1.3-1-2.4-2.2-3.4-3.7H15v32.7H9.1V21.3z M47.3,42.2c0-2.3-0.4-4.5-1.1-6.5
	c-0.7-2-1.8-3.8-3.2-5.3c-1.4-1.5-3-2.7-5-3.5c-1.9-0.9-4.1-1.3-6.6-1.3s-4.7,0.4-6.7,1.3c-2,0.9-3.8,2-5.3,3.5
	c-1.5,1.5-2.7,3.3-3.5,5.3c-0.8,2-1.3,4.2-1.3,6.5c0,2.3,0.4,4.5,1.3,6.5c0.8,2,2,3.8,3.5,5.3c1.5,1.5,3.2,2.7,5.3,3.5
	c2,0.9,4.3,1.3,6.7,1.3s4.6-0.4,6.6-1.3c1.9-0.9,3.6-2,5-3.5c1.4-1.5,2.4-3.2,3.2-5.3C46.9,46.8,47.3,44.6,47.3,42.2z"/>
<path class="st0" d="M61.7,34.4c0-1.8,0-3.7-0.1-5.6c-0.1-1.9-0.2-4.4-0.2-7.4h5.8v7.8h0.2c0.4-1.1,1-2.2,1.8-3.3
	c0.8-1,1.7-2,2.8-2.8c1.1-0.8,2.4-1.5,3.8-2c1.5-0.5,3.1-0.8,5-0.8c1.7,0,3.1,0.2,4.4,0.5l-1.2,5.8c-0.8-0.3-1.9-0.4-3.4-0.4
	c-2.3,0-4.2,0.4-5.8,1.3c-1.6,0.9-3,2-4,3.3c-1.1,1.3-1.9,2.8-2.4,4.3c-0.5,1.6-0.8,3-0.8,4.5v23.6h-5.9V34.4z"/>
<path class="st0" d="M128.8,42.2c0,3.2-0.6,6.1-1.7,8.8c-1.1,2.7-2.6,5-4.6,7s-4.3,3.5-7,4.6c-2.7,1.1-5.7,1.7-9,1.7
	c-3.2,0-6.2-0.6-8.9-1.7c-2.7-1.1-5.1-2.6-7-4.6c-2-2-3.5-4.3-4.6-7c-1.1-2.7-1.7-5.6-1.7-8.8c0-3.2,0.6-6.1,1.7-8.8
	c1.1-2.7,2.6-5,4.6-7c2-2,4.3-3.5,7-4.6c2.7-1.1,5.7-1.7,8.9-1.7c3.3,0,6.3,0.6,9,1.7c2.7,1.1,5.1,2.6,7,4.6s3.5,4.3,4.6,7
	C128.2,36.2,128.8,39.1,128.8,42.2z M122.3,42.2c0-2.3-0.4-4.5-1.1-6.5c-0.7-2-1.8-3.8-3.2-5.3c-1.4-1.5-3-2.7-5-3.5
	c-1.9-0.9-4.1-1.3-6.6-1.3c-2.4,0-4.6,0.4-6.6,1.3c-1.9,0.9-3.6,2-4.9,3.5c-1.3,1.5-2.4,3.3-3.1,5.3c-0.7,2-1.1,4.2-1.1,6.5
	c0,2.3,0.4,4.5,1.1,6.5c0.7,2,1.8,3.8,3.1,5.3c1.3,1.5,3,2.7,4.9,3.5c1.9,0.9,4.1,1.3,6.6,1.3c2.4,0,4.6-0.4,6.6-1.3
	c1.9-0.9,3.6-2,5-3.5c1.4-1.5,2.4-3.2,3.2-5.3C121.9,46.8,122.3,44.6,122.3,42.2z"/>
<path class="st0" d="M199.4,31.2c-0.9-1.7-2.1-3.1-3.6-4.1c-1.5-1-3.3-1.5-5.5-1.5c-1,0-2,0.1-3.1,0.4c-1,0.2-2,0.6-2.8,1.1
	c-0.8,0.5-1.5,1.1-2,1.9c-0.5,0.8-0.8,1.7-0.8,2.9c0,2,0.7,3.4,2.1,4.3c1.4,0.9,3.4,1.7,6.2,2.3l6,1.4c2.9,0.7,5.4,2,7.3,4
	c1.9,2,2.9,4.5,2.9,7.5c0,2.3-0.5,4.2-1.4,5.9c-0.9,1.6-2.1,3-3.7,4c-1.5,1-3.3,1.8-5.2,2.3c-2,0.5-4,0.7-6,0.7
	c-3.2,0-6.2-0.6-9-1.8c-2.8-1.2-5.1-3.3-7.1-6.3l5.1-3.5c1.2,1.9,2.7,3.4,4.5,4.6c1.8,1.1,4,1.7,6.5,1.7c1.2,0,2.4-0.1,3.6-0.4
	c1.2-0.3,2.3-0.7,3.2-1.3c0.9-0.6,1.7-1.3,2.2-2.2c0.6-0.9,0.9-1.9,0.9-3.1c0-2.1-0.8-3.6-2.3-4.5c-1.6-0.9-3.4-1.7-5.6-2.2
	l-5.7-1.3c-0.7-0.2-1.7-0.5-2.9-0.9c-1.2-0.4-2.4-1-3.6-1.9c-1.2-0.8-2.2-1.9-3-3.3c-0.8-1.3-1.3-3-1.3-5c0-2.1,0.4-4,1.3-5.6
	c0.9-1.6,2-2.9,3.5-3.9c1.5-1,3.1-1.8,5-2.3c1.8-0.5,3.8-0.8,5.7-0.8c2.9,0,5.6,0.6,8.1,1.7c2.5,1.1,4.4,3.1,5.8,5.8L199.4,31.2z"/>
<path class="st0" d="M234.3,26.7h-12.1v24.7c0,1.6,0.1,2.8,0.4,3.8c0.3,1,0.7,1.7,1.3,2.3c0.5,0.5,1.2,0.9,1.9,1.1
	c0.7,0.2,1.6,0.3,2.5,0.3c1,0,2.1-0.1,3.1-0.4c1.1-0.3,2.1-0.7,3-1.2l0.3,5.5c-2.2,1-4.9,1.5-8,1.5c-1.1,0-2.3-0.1-3.5-0.4
	c-1.2-0.3-2.3-0.9-3.4-1.7c-1-0.8-1.8-2-2.5-3.4c-0.7-1.4-1-3.3-1-5.6V26.7h-8.9v-5.4h8.9V9.5h5.9v11.8h12.1V26.7z"/>
<path class="st0" d="M243.8,43.9c0.2,2.1,0.7,4.1,1.5,5.9c0.8,1.8,1.9,3.4,3.3,4.8c1.4,1.3,3,2.4,4.7,3.2c1.8,0.8,3.7,1.2,5.8,1.2
	c3.2,0,5.9-0.7,8.2-2.2c2.3-1.5,4-3.1,5.2-5.1l4.6,3.8c-2.5,3.2-5.3,5.4-8.3,6.8c-3,1.4-6.2,2.1-9.7,2.1c-3.1,0-6-0.6-8.6-1.7
	c-2.7-1.1-4.9-2.6-6.8-4.6c-1.9-2-3.4-4.3-4.5-7c-1.1-2.7-1.7-5.6-1.7-8.8c0-3.2,0.5-6.1,1.6-8.8c1.1-2.7,2.6-5,4.5-7
	c1.9-2,4.1-3.5,6.7-4.6c2.6-1.1,5.3-1.7,8.3-1.7c3.2,0,6,0.6,8.5,1.7c2.5,1.1,4.6,2.6,6.3,4.5c1.7,1.9,3,4.1,3.9,6.6
	c0.9,2.5,1.3,5.2,1.3,8.1v2.7H243.8z M272.2,39c0-4-1.2-7.2-3.6-9.7c-2.4-2.5-5.7-3.7-10-3.7c-1.9,0-3.8,0.4-5.5,1.1
	c-1.8,0.7-3.4,1.7-4.7,3c-1.3,1.3-2.4,2.7-3.2,4.3c-0.8,1.6-1.2,3.3-1.2,5H272.2z"/>
<path class="st0" d="M287.4,34.4c0-1.8,0-3.7-0.1-5.6c-0.1-1.9-0.2-4.4-0.2-7.4h5.8v7.8h0.2c0.4-1.1,1-2.2,1.8-3.3
	c0.8-1,1.7-2,2.8-2.8c1.1-0.8,2.4-1.5,3.8-2c1.5-0.5,3.1-0.8,5-0.8c1.7,0,3.1,0.2,4.4,0.5l-1.2,5.8c-0.8-0.3-1.9-0.4-3.4-0.4
	c-2.3,0-4.2,0.4-5.8,1.3c-1.6,0.9-3,2-4,3.3c-1.1,1.3-1.9,2.8-2.4,4.3c-0.5,1.6-0.8,3-0.8,4.5v23.6h-5.9V34.4z"/>
<g>
	<path class="st1" d="M388.1,9.1c-4.9-3.4-10.4-5.3-16.3-5.9c-0.4,0-0.7-0.2-1.1-0.3h-5.9c-2.1,0.4-4.3,0.7-6.4,1.3
		c-11.3,3.1-19.6,9.7-23.5,21c-4.3,12.5,0.8,26.2,12.3,33.9v-41h4.6v5.4h0.1c0.7-1.1,1.6-2.1,2.6-2.9c1-0.8,2.1-1.4,3.2-1.9
		c1.1-0.5,2.3-0.9,3.4-1.1c1.2-0.2,2.3-0.3,3.4-0.3c2.5,0,4.9,0.4,7,1.3c2.1,0.9,3.9,2.1,5.5,3.6c1.5,1.5,2.7,3.3,3.6,5.4
		c0.9,2.1,1.3,4.4,1.3,6.8c0,2.5-0.4,4.7-1.3,6.8c-0.9,2.1-2.1,3.9-3.6,5.4c-1.5,1.5-3.3,2.7-5.5,3.6c-2.1,0.9-4.4,1.3-7,1.3
		c-1.1,0-2.2-0.1-3.4-0.3c-1.2-0.2-2.3-0.6-3.4-1.1c-1.1-0.5-2.2-1.2-3.2-1.9c-1-0.8-1.9-1.7-2.6-2.9h-0.1v16.6
		c4.5,2.2,9.4,3.3,14.5,3.5c0.4,0,0.8,0,1.4,0.1v12.5h0.3c0.4-0.3,0.8-0.6,1.3-0.9c10.1-5.7,19.1-12.7,25.8-22.3
		c4.5-6.5,7.2-13.6,6.9-21.6C401.5,22.8,396.5,14.9,388.1,9.1z"/>
	<path class="st1" d="M355.3,43.6c1.2,1.2,2.5,2.1,4.1,2.7c1.6,0.7,3.3,1,5.2,1c1.9,0,3.6-0.3,5.1-1c1.5-0.7,2.8-1.6,3.9-2.7
		c1.1-1.2,1.9-2.5,2.5-4.1c0.6-1.6,0.9-3.3,0.9-5.1c0-1.8-0.3-3.5-0.9-5.1c-0.6-1.6-1.4-2.9-2.5-4.1c-1.1-1.2-2.4-2.1-3.9-2.7
		c-1.5-0.7-3.2-1-5.1-1c-1.9,0-3.6,0.3-5.2,1c-1.6,0.7-2.9,1.6-4.1,2.7c-1.2,1.2-2.1,2.5-2.7,4.1c-0.7,1.6-1,3.3-1,5.1
		c0,1.8,0.3,3.5,1,5.1C353.2,41.1,354.1,42.5,355.3,43.6z"/>
</g>
<circle class="st1" cx="367.7" cy="90" r="3.8"/>
<g>
	<polygon class="st1" points="146.4,32.8 137.3,21.3 130.9,21.3 143.2,36.8 	"/>
	<polygon class="st1" points="155.1,51.7 164.2,63.3 170.5,63.2 158.3,47.7 	"/>
</g>
<polygon class="st0" points="137.2,63.3 130.9,63.2 164.2,21.3 170.5,21.3 "/>
</svg>
