<?xml version="1.0" encoding="utf-8"?>
<!-- Generator: Adobe Illustrator 21.1.0, SVG Export Plug-In . SVG Version: 6.00 Build 0)  -->
<!DOCTYPE svg PUBLIC "-//W3C//DTD SVG 1.1//EN" "http://www.w3.org/Graphics/SVG/1.1/DTD/svg11.dtd">
<svg version="1.1" id="Layer_1" xmlns="http://www.w3.org/2000/svg" xmlns:xlink="http://www.w3.org/1999/xlink" x="0px" y="0px"
	 viewBox="0 0 256 110" style="enable-background:new 0 0 256 110;" xml:space="preserve">
<style type="text/css">
	.st0{fill:#25A9E0;}
	.st1{fill:#1B75BB;}
	.st2{fill:#FFFFFF;}
	.st3{opacity:0.7;fill:#1B75BB;}
	.st4{fill:#DF8026;}
	.st5{fill:#6D6E70;}
	.st6{fill:#6D6E70;stroke:#FFFFFF;stroke-width:2;stroke-miterlimit:10;}
	.st7{fill:#4D4D4D;}
</style>
<path class="st0" d="M232.5,73.2c-2.2,0-3.3-1.7-3.9-3.9"/>
<path class="st1" d="M232.8,72.6c2.2-0.1,2.9-0.8,3.1-2.2c0.2-1.3-1.3,0-2,0.2c-0.7,0.2-2.4-1.7-3.7-1.4c-1.2,0.3-0.5,1-0.5,1
	S230.6,72.7,232.8,72.6"/>
<path class="st0" d="M228.6,69.3c-0.6-2.1,1.8-3.9,3.9-3.9c2.2,0,3.9-0.9,3.9,3.9c-0.2,4.1-1.8,3.9-3.9,3.9"/>
<path class="st2" d="M233.5,65.8c0,0,2.4-0.5,2.4,2.5C235.9,68.3,235.3,66.2,233.5,65.8z"/>
<path class="st1" d="M232.8,72.6c2.2-0.1,2.9-0.8,3.1-2.2c0.2-1.3-1.3,0-2,0.2c-0.7,0.2-2.4-1.7-3.7-1.4c-1.2,0.3-0.5,1-0.5,1
	S230.6,72.7,232.8,72.6"/>
<path class="st0" d="M228.6,69.3c-0.6-2.1,1.8-3.9,3.9-3.9c2.2,0,3.9-0.9,3.9,3.9c-0.2,4.1-1.8,3.9-3.9,3.9"/>
<path class="st0" d="M186.4,33.9c3.4,1,2.6,2.2,2.4,3.8c-0.2,1.6-1.6,2.6-3.1,2.1c-1.5-0.5-2.3-2.1-2.4-3.8
	C183.1,32.9,184.9,33.4,186.4,33.9z"/>
<path class="st2" d="M183.7,36.2c0,0-0.4-3.2,2.6-2.1C186.3,34.2,184.2,33.8,183.7,36.2z"/>
<path class="st1" d="M184.7,38.7c0,0,2.9,1.9,3.7-1.4c0.2-1-1.2,0.3-1.8,0.5C186.2,38.1,184,37.8,184.7,38.7z"/>
<path class="st0" d="M224.2,90.1c-0.9-0.8-0.5-2,0.2-3.4c0.7-1.3,2.5-1.4,3.4-0.6c0.9,0.8,2,1-0.2,3.4
	C225.6,91.5,225,90.9,224.2,90.1"/>
<path class="st2" d="M227.9,86.7c0,0,1.2,0.6-0.1,2.1C227.7,88.8,228.4,87.6,227.9,86.7z"/>
<path class="st3" d="M224.4,87.6c0,0-0.8,1.5,0.2,2.3c0.9,0.7,1.5,0.6,2.2,0c0.7-0.6-0.5-0.5-0.9-0.6c-0.4-0.2-0.2-1.7-0.8-2
	C224.4,87,224.4,87.6,224.4,87.6z"/>
<path class="st0" d="M208.7,88.5c2.6-2.3,3-0.9,4,0.3c1,1.2,0.9,3-0.3,4c-1.2,1-2.8,0.7-4-0.3C206.2,90.7,207.6,89.5,208.7,88.5z"/>
<path class="st2" d="M208.9,92.3c0,0-2.4-1.6,0-3.5C208.9,88.8,207.5,90.3,208.9,92.3z"/>
<path class="st1" d="M211.1,93c0,0,3-1.3,1.2-4.1c-0.6-0.8-0.5,1.2-0.6,1.8C211.5,91.3,210.1,93,211.1,93z"/>
<path class="st0" d="M131.1,100.2c-2.2,0-3.3-1.7-3.9-3.9c-0.6-2.1,1.8-3.9,3.9-3.9c2.2,0,3.9-0.9,3.9,3.9
	C134.9,100.3,133.3,100.2,131.1,100.2"/>
<path class="st2" d="M132.1,92.8c0,0,2.4-0.5,2.4,2.5C134.5,95.3,133.9,93.2,132.1,92.8z"/>
<path class="st4" d="M128.3,97.3c0,0,0.8,2.5,3,2.4c2.2-0.1,2.9-0.8,3.1-2.2c0.2-1.3-1.3,0-2,0.2c-0.7,0.2-2.4-1.7-3.7-1.4
	C127.5,96.5,128.3,97.3,128.3,97.3z"/>
<path class="st0" d="M144,31c-2.2,0-3.3-1.7-3.9-3.9c-0.6-2.1,1.8-3.9,3.9-3.9c2.2,0,3.9-0.9,3.9,3.9C147.8,31.2,146.2,31,144,31"/>
<circle class="st0" cx="243.5" cy="42.1" r="2.9"/>
<circle class="st0" cx="222.4" cy="99.1" r="2.6"/>
<path class="st0" d="M164.7,24c-2.2,0-3.9-1.8-3.9-3.9s1.8-3.9,3.9-3.9c2.2,0,3.9,1.8,3.9,3.9S166.9,24,164.7,24"/>
<circle class="st0" cx="122" cy="104.3" r="2.9"/>
<circle class="st0" cx="200.3" cy="39" r="2.6"/>
<path class="st0" d="M136.6,22.3c2.1,1.8,1,2.2,0.2,3.2c-0.8,0.9-2.2,1-3.2,0.2c-0.9-0.8-0.9-2.1-0.2-3.2
	C134.6,20.6,135.7,21.5,136.6,22.3z"/>
<circle class="st0" cx="224.9" cy="54.4" r="2.2"/>
<path class="st0" d="M16.4,36.6c0-0.8-0.1-1.3-0.2-1.6c-0.1-0.3-0.2-0.7-0.2-0.9c0-0.4,0.2-0.7,0.6-1c0.4-0.3,0.9-0.4,1.5-0.4
	c1.3,0,2.4,0.3,3.2,1c0.8,0.7,1.2,1.5,1.2,2.5v26.2c1-0.2,2.1-0.5,3.3-0.9c1.2-0.4,2.4-1,3.6-1.8c1.2-0.7,2.4-1.6,3.5-2.7
	c1.1-1.1,2.1-2.3,3-3.8c0.9-1.4,1.6-3.1,2.1-4.9c0.5-1.8,0.8-3.9,0.8-6.1c0-1.5-0.3-3.1-0.8-4.7c-0.5-1.6-1.3-3.1-2.4-4.4
	c-1.1-1.3-2.4-2.4-4.1-3.3c-1.7-0.9-3.7-1.3-6-1.3c-3.1,0-5.7,0.5-8,1.5c-2.2,1-4.1,2.4-5.6,4.1c-1.5,1.7-2.5,3.7-3.2,5.9
	C8.3,42.1,8,44.4,8,46.8c0,1.8,0.2,3.3,0.5,4.5c0.3,1.2,0.6,2.2,1,3c0.4,0.8,0.7,1.3,1,1.7c0.3,0.4,0.5,0.6,0.5,0.6
	c0.4-0.1,0.8-0.1,0.9,0.2c0.2,0.2,0.3,0.5,0.3,0.9c0,0.4-0.1,0.9-0.4,1.6c-0.2,0.7-0.6,1.4-1,2.1c-0.4,0.6-0.9,1.1-1.4,1.4
	c-0.5,0.3-1.1,0.3-1.7-0.2c-0.3-0.3-0.8-0.8-1.4-1.6c-0.7-0.8-1.3-1.8-1.9-3c-0.6-1.3-1.2-2.8-1.7-4.6c-0.5-1.8-0.7-3.9-0.7-6.2
	c0-3.7,0.6-7.1,1.7-10.1c1.1-3,2.8-5.6,4.9-7.8c2.1-2.2,4.6-3.9,7.5-5s6.2-1.8,9.7-1.8c2.9,0,5.6,0.5,8,1.4c2.4,1,4.5,2.3,6.2,4.1
	c1.7,1.7,3.1,3.8,4,6.2c0.9,2.4,1.4,5,1.4,7.9c0,2.7-0.4,5.3-1.2,7.7c-0.8,2.4-1.9,4.6-3.3,6.6c-1.4,2-3,3.7-4.8,5.3
	c-1.8,1.5-3.8,2.8-5.9,3.8c1.3,0.8,2.4,1.7,3.3,2.8c0.9,1.1,1.6,2.2,2.2,3.5c0.6,1.2,1.1,2.5,1.6,3.9c0.5,1.4,0.9,2.7,1.4,4
	c0.5,1.3,1,2.6,1.6,3.8c0.6,1.2,1.4,2.3,2.3,3.3c0.1,0.1,0.2,0.2,0.4,0.3c0.2,0.1,0.3,0.1,0.5,0.2c0.2,0.1,0.3,0.1,0.4,0.2
	c0.1,0.1,0.2,0.2,0.2,0.4c0,0.4-0.2,0.8-0.7,1.3c-0.4,0.5-1,0.9-1.6,1.4c-0.6,0.4-1.2,0.8-1.8,1.1c-0.6,0.3-1.1,0.4-1.4,0.4
	c-0.4,0-0.7-0.2-1.1-0.5c-1.3-1.5-2.3-3-3.1-4.6c-0.7-1.6-1.3-3.2-1.8-4.8c-0.5-1.6-1-3.1-1.4-4.6c-0.4-1.5-1-2.9-1.6-4.1
	C28.9,72,28.1,70.9,27,70c-1.1-0.9-2.5-1.7-4.3-2.2V79c0,0.7-0.2,1.2-0.7,1.4c-0.4,0.3-1,0.4-1.6,0.4c-0.5,0-0.9-0.1-1.4-0.2
	c-0.5-0.1-0.9-0.3-1.3-0.5c-0.4-0.2-0.7-0.5-0.9-0.7c-0.2-0.3-0.4-0.6-0.4-0.9V36.6z"/>
<path class="st0" d="M70.3,75.5c0.8,0,1.5-0.3,2.1-0.9c0.6-0.6,1.1-1.3,1.5-2.2c0.4-0.9,0.8-1.8,1.1-2.8c0.3-1,0.5-2,0.7-2.8
	c0.2-0.8,0.4-1.4,0.8-1.8c0.4-0.4,0.7-0.6,1.2-0.6c0.3,0,0.6,0.1,1,0.3c0.3,0.2,0.6,0.5,0.9,0.8c0.3,0.3,0.5,0.7,0.7,1.1
	c0.2,0.4,0.3,0.8,0.3,1.2c0,0.1,0,0.1,0,0.2c0,0.1,0,0.2-0.1,0.4C80,69.7,79.6,71,79,72.5c-0.6,1.5-1.3,2.8-2.3,4
	c-0.9,1.2-2,2.2-3.3,3.1c-1.3,0.8-2.8,1.2-4.5,1.2c-1.4,0-2.6-0.3-3.7-0.9c-1-0.6-1.9-1.4-2.5-2.4c-0.8,0.9-1.8,1.7-2.9,2.3
	c-1.1,0.6-2.5,1-4,1c-1.6,0-2.9-0.3-4.1-0.9c-1.2-0.6-2.2-1.5-3-2.6c-0.8-1.1-1.4-2.4-1.8-3.8c-0.4-1.5-0.6-3.1-0.6-4.8
	c0-3.3,0.5-6.3,1.6-9c1.1-2.7,2.5-4.9,4.3-6.8c1.8-1.9,3.8-3.3,6.1-4.3c2.3-1,4.7-1.5,7.1-1.5c1.1,0,2,0.3,2.7,0.9
	c0.7,0.6,1,1.4,1,2.5c0,0.7-0.1,1.2-0.2,1.4c-0.1,0.3-0.4,0.4-0.8,0.4c-0.4,0-0.7,0-1.1-0.1c-0.4-0.1-0.8-0.1-1.2-0.1
	c-1.5,0-3.1,0.3-4.6,1c-1.6,0.7-3,1.7-4.2,3.1c-1.3,1.4-2.3,3.1-3.1,5.2c-0.8,2.1-1.2,4.6-1.2,7.5c0,2.1,0.4,3.7,1.2,4.9
	c0.8,1.1,1.9,1.7,3.3,1.7c1.1,0,2-0.4,2.7-1.2c0.7-0.8,1.3-1.8,1.8-2.9V59c0-0.4,0-0.7-0.1-1c0-0.3-0.1-0.5-0.1-0.7
	c0-0.2-0.1-0.3-0.1-0.5c0-0.1,0-0.3,0-0.4c0-0.4,0.2-0.7,0.6-1c0.4-0.2,0.9-0.4,1.5-0.4c1.3,0,2.4,0.3,3.2,1
	c0.8,0.7,1.2,1.5,1.2,2.5v13.2c0,0.4,0.1,0.9,0.2,1.3c0.1,0.4,0.3,0.8,0.5,1.2c0.2,0.4,0.5,0.6,0.8,0.9
	C69.5,75.4,69.9,75.5,70.3,75.5z"/>
<path class="st0" d="M82.1,71.8c0,0.2,0,0.5,0,0.9c0,0.4,0.1,0.8,0.2,1.2c0.1,0.4,0.3,0.8,0.6,1.1c0.3,0.3,0.7,0.5,1.2,0.5
	c0.8,0,1.5-0.3,2.1-0.9c0.6-0.6,1.1-1.3,1.5-2.2c0.4-0.9,0.8-1.8,1.1-2.8c0.3-1,0.5-2,0.7-2.8c0.2-0.8,0.4-1.4,0.7-1.8
	c0.3-0.4,0.7-0.6,1.1-0.6c0.4,0,0.8,0.1,1.1,0.3c0.4,0.2,0.7,0.5,1,0.9c0.3,0.4,0.5,0.8,0.7,1.3c0.1,0.5,0.2,0.9,0.1,1.3
	c-0.4,1.3-0.8,2.7-1.4,4.2c-0.6,1.5-1.3,2.8-2.2,4c-0.9,1.2-2,2.2-3.3,3.1c-1.3,0.8-2.8,1.2-4.5,1.2c-1.1,0-2-0.2-2.9-0.6
	c-0.8-0.4-1.5-0.9-2.1-1.6c-0.6-0.7-1-1.5-1.3-2.4c-0.3-0.9-0.5-1.9-0.5-2.9V51.9c0-0.8-0.1-1.3-0.2-1.6c-0.1-0.3-0.2-0.7-0.2-0.9
	c0-0.4,0.2-0.7,0.6-1c0.4-0.2,0.9-0.4,1.5-0.4c1.3,0,2.4,0.3,3.2,1c0.8,0.7,1.2,1.5,1.2,2.5V71.8z"/>
<path class="st0" d="M89.9,51.9c0-0.8-0.1-1.3-0.2-1.6c-0.1-0.3-0.2-0.7-0.2-0.9c0-0.4,0.2-0.7,0.6-1c0.4-0.2,0.9-0.4,1.5-0.4
	c1.3,0,2.4,0.3,3.2,1c0.8,0.7,1.2,1.5,1.2,2.5v3.6c0.5-1.1,1.1-2.2,1.8-3.1c0.6-1,1.3-1.8,2.1-2.5c0.7-0.7,1.5-1.3,2.4-1.7
	c0.8-0.4,1.8-0.6,2.8-0.6c1.3,0,2.4,0.2,3.3,0.7c0.9,0.5,1.5,1.1,2,1.9c0.5,0.8,0.8,1.7,1,2.6c0.2,1,0.3,1.9,0.3,2.8v16.6
	c0,0.2,0,0.5,0,0.9c0,0.4,0.1,0.8,0.2,1.2c0.1,0.4,0.3,0.8,0.6,1.1c0.3,0.3,0.7,0.5,1.2,0.5c0.8,0,1.5-0.3,2.1-0.9
	c0.6-0.6,1.1-1.3,1.5-2.2c0.4-0.9,0.8-1.8,1.1-2.8c0.3-1,0.5-2,0.7-2.8c0.2-0.8,0.4-1.4,0.8-1.8c0.4-0.4,0.7-0.6,1.1-0.6
	c0.3,0,0.6,0.1,1,0.3c0.3,0.2,0.6,0.5,0.9,0.8c0.3,0.3,0.5,0.7,0.7,1.1c0.2,0.4,0.3,0.8,0.3,1.2c0,0.1,0,0.1,0,0.2
	c0,0.1,0,0.2-0.1,0.4c-0.3,1.3-0.8,2.7-1.4,4.2c-0.6,1.5-1.3,2.8-2.3,4c-0.9,1.2-2,2.2-3.3,3.1c-1.3,0.8-2.8,1.2-4.5,1.2
	c-1.1,0-2-0.2-2.8-0.6c-0.8-0.4-1.5-0.9-2.1-1.6c-0.6-0.7-1-1.5-1.3-2.4c-0.3-0.9-0.5-1.9-0.5-2.9V57c0-0.6,0-1.2,0-1.8
	c0-0.5-0.1-1-0.2-1.4c-0.1-0.4-0.3-0.8-0.5-1c-0.2-0.2-0.5-0.4-0.9-0.4c-0.6,0-1.3,0.4-2.1,1.2c-0.8,0.8-1.7,1.8-2.5,3.1
	c-0.8,1.3-1.5,2.7-2.1,4.2c-0.6,1.6-1,3.2-1.2,4.8v11.7c0,0.4,0,0.8,0,1.2c0,0.4-0.1,0.8-0.2,1.1c-0.1,0.3-0.4,0.6-0.7,0.8
	c-0.3,0.2-0.7,0.3-1.3,0.3c-0.4,0-0.8,0-1.3-0.1c-0.5-0.1-0.9-0.3-1.3-0.5c-0.4-0.2-0.7-0.6-0.9-1.1c-0.2-0.5-0.4-1.1-0.4-1.8V51.9z
	"/>
<path class="st5" d="M127.9,41.8c0-0.6,0-1-0.1-1.2c-0.1-0.3-0.1-0.5-0.1-0.7c0-0.3,0.2-0.5,0.5-0.7c0.3-0.2,0.7-0.3,1.1-0.3
	c1,0,1.8,0.3,2.4,0.8c0.6,0.5,0.9,1.1,0.9,1.9v19.6c0.8-0.1,1.6-0.4,2.5-0.7c0.9-0.3,1.8-0.8,2.7-1.3c0.9-0.6,1.8-1.2,2.6-2
	c0.8-0.8,1.6-1.7,2.3-2.8c0.7-1.1,1.2-2.3,1.6-3.6c0.4-1.4,0.6-2.9,0.6-4.6c0-1.1-0.2-2.3-0.6-3.5c-0.4-1.2-1-2.3-1.8-3.3
	c-0.8-1-1.8-1.8-3.1-2.5c-1.3-0.6-2.8-1-4.5-1c-2.3,0-4.3,0.4-6,1.1c-1.7,0.8-3.1,1.8-4.2,3.1c-1.1,1.3-1.9,2.7-2.4,4.4
	c-0.5,1.6-0.8,3.3-0.8,5.1c0,1.3,0.1,2.4,0.3,3.4s0.5,1.7,0.7,2.2c0.3,0.6,0.5,1,0.8,1.3c0.2,0.3,0.4,0.4,0.4,0.5
	c0.3-0.1,0.6-0.1,0.7,0.1c0.1,0.2,0.2,0.4,0.2,0.7c0,0.3-0.1,0.7-0.3,1.2c-0.2,0.5-0.4,1.1-0.7,1.5c-0.3,0.5-0.7,0.8-1.1,1.1
	c-0.4,0.2-0.8,0.2-1.3-0.1c-0.2-0.2-0.6-0.6-1.1-1.2c-0.5-0.6-1-1.3-1.5-2.3c-0.5-0.9-0.9-2.1-1.3-3.4c-0.4-1.3-0.6-2.9-0.6-4.6
	c0-2.8,0.4-5.3,1.3-7.6c0.9-2.3,2.1-4.2,3.6-5.9c1.6-1.6,3.5-2.9,5.6-3.8c2.2-0.9,4.6-1.3,7.3-1.3c2.2,0,4.2,0.4,6,1.1
	c1.8,0.7,3.3,1.7,4.6,3c1.3,1.3,2.3,2.8,3,4.6c0.7,1.8,1.1,3.8,1.1,5.9c0,2.1-0.3,4-0.9,5.8c-0.6,1.8-1.4,3.4-2.4,4.9
	c-1,1.5-2.2,2.8-3.6,4c-1.4,1.2-2.9,2.1-4.4,2.8c1,0.6,1.8,1.3,2.5,2.1c0.7,0.8,1.2,1.7,1.7,2.6c0.5,0.9,0.9,1.9,1.2,2.9
	c0.3,1,0.7,2,1,3c0.4,1,0.8,1.9,1.2,2.9c0.4,0.9,1,1.7,1.7,2.5c0.1,0.1,0.2,0.2,0.3,0.2c0.1,0,0.3,0.1,0.4,0.1
	c0.1,0,0.2,0.1,0.3,0.2c0.1,0.1,0.1,0.2,0.1,0.3c0,0.3-0.2,0.6-0.5,1c-0.3,0.4-0.7,0.7-1.2,1c-0.4,0.3-0.9,0.6-1.4,0.8
	c-0.5,0.2-0.8,0.3-1,0.3c-0.3,0-0.6-0.1-0.8-0.4c-1-1.1-1.7-2.3-2.3-3.5c-0.5-1.2-1-2.4-1.4-3.6c-0.4-1.2-0.7-2.3-1-3.4
	s-0.7-2.1-1.2-3.1c-0.5-0.9-1.1-1.8-1.9-2.5c-0.8-0.7-1.9-1.2-3.3-1.6v8.3c0,0.5-0.2,0.9-0.5,1.1c-0.3,0.2-0.7,0.3-1.2,0.3
	c-0.4,0-0.7,0-1.1-0.1c-0.4-0.1-0.7-0.2-1-0.4c-0.3-0.2-0.5-0.3-0.7-0.5c-0.2-0.2-0.3-0.4-0.3-0.7V41.8z"/>
<path class="st5" d="M144.4,83.7c-0.4,0-0.8-0.2-1.1-0.5c-1-1.2-1.8-2.4-2.4-3.6c-0.6-1.2-1-2.4-1.4-3.6c-0.4-1.2-0.7-2.3-1-3.5
	c-0.3-1.1-0.7-2.1-1.2-3c-0.5-0.9-1.1-1.7-1.8-2.3c-0.6-0.5-1.4-1-2.4-1.3v7.6c0,0.9-0.4,1.3-0.7,1.5c-0.7,0.4-1.7,0.5-2.6,0.2
	c-0.4-0.1-0.7-0.2-1.1-0.4c-0.3-0.2-0.6-0.4-0.8-0.6c-0.3-0.3-0.4-0.6-0.4-1V41.8c0-0.7-0.1-1-0.1-1.1c-0.1-0.3-0.2-0.6-0.2-0.9
	c0-0.3,0.1-0.8,0.7-1.2c0.4-0.2,0.9-0.4,1.4-0.4c1.1,0,2,0.3,2.7,0.9c0.7,0.6,1.1,1.4,1.1,2.3v19c0.6-0.1,1.2-0.3,1.8-0.6
	c0.9-0.3,1.8-0.8,2.6-1.3c0.9-0.5,1.7-1.2,2.6-2c0.8-0.8,1.5-1.7,2.2-2.7c0.6-1,1.1-2.2,1.5-3.5c0.4-1.3,0.6-2.8,0.6-4.4
	c0-1.1-0.2-2.2-0.5-3.4c-0.4-1.1-0.9-2.2-1.7-3.1c-0.8-0.9-1.7-1.7-2.9-2.3c-1.2-0.6-2.6-0.9-4.3-0.9c-2.2,0-4.2,0.4-5.8,1.1
	c-1.6,0.7-2.9,1.7-4,2.9c-1,1.2-1.8,2.6-2.3,4.2c-0.5,1.6-0.8,3.2-0.8,4.9c0,1.3,0.1,2.4,0.3,3.2c0.2,0.9,0.5,1.6,0.7,2.1
	c0.3,0.5,0.5,0.9,0.7,1.2c0.1,0.1,0.2,0.2,0.2,0.2c0.5,0,0.8,0.2,0.9,0.4c0.2,0.3,0.3,0.6,0.3,1c0,0.3-0.1,0.8-0.3,1.4
	c-0.2,0.6-0.5,1.1-0.8,1.7c-0.4,0.5-0.8,1-1.2,1.2c-0.6,0.3-1.2,0.3-1.8-0.2c-0.3-0.3-0.7-0.7-1.2-1.2c-0.5-0.6-1-1.4-1.5-2.4
	c-0.5-1-0.9-2.2-1.3-3.5c-0.4-1.4-0.6-3-0.6-4.8c0-2.8,0.4-5.4,1.3-7.8c0.9-2.3,2.1-4.4,3.8-6c1.6-1.7,3.6-3,5.8-3.9
	c2.2-0.9,4.8-1.4,7.5-1.4c2.2,0,4.3,0.4,6.2,1.1c1.9,0.7,3.5,1.8,4.8,3.1c1.3,1.3,2.4,3,3.1,4.8c0.7,1.8,1.1,3.9,1.1,6.1
	c0,2.1-0.3,4.1-0.9,5.9c-0.6,1.8-1.5,3.5-2.5,5.1c-1.1,1.5-2.3,2.9-3.7,4.1c-1.2,1-2.4,1.8-3.7,2.5c0.7,0.5,1.3,1.1,1.8,1.7
	c0.7,0.8,1.3,1.7,1.7,2.7c0.5,0.9,0.9,1.9,1.2,3c0.3,1,0.7,2,1,3c0.3,1,0.7,1.9,1.2,2.8c0.4,0.9,1,1.7,1.6,2.3c0,0,0.1,0.1,0.1,0.1
	l0.4,0.1c0.2,0.1,0.3,0.1,0.5,0.2c0.2,0.2,0.3,0.4,0.3,0.7c0,0.4-0.2,0.9-0.6,1.3c-0.4,0.4-0.8,0.8-1.2,1.1c-0.5,0.3-1,0.6-1.4,0.9
	C145.1,83.5,144.7,83.7,144.4,83.7z M132,64.5l0.6,0.2c1.4,0.4,2.6,1,3.5,1.7c0.8,0.7,1.5,1.6,2.1,2.6c0.5,1,0.9,2,1.3,3.2
	c0.3,1.1,0.7,2.2,1,3.4c0.4,1.2,0.8,2.3,1.4,3.5c0.5,1.2,1.3,2.3,2.2,3.3c0.2,0.2,0.3,0.2,0.4,0.2c0.1,0,0.3,0,0.8-0.3
	c0.4-0.2,0.9-0.5,1.3-0.8c0.4-0.3,0.8-0.6,1.1-1c0.3-0.3,0.3-0.5,0.4-0.6c0,0-0.1,0-0.1-0.1l-0.4-0.1c-0.2-0.1-0.4-0.2-0.5-0.4
	c-0.7-0.7-1.3-1.6-1.8-2.6c-0.5-0.9-0.9-1.9-1.2-2.9c-0.4-1-0.7-2-1-3c-0.3-1-0.7-1.9-1.2-2.9c-0.4-0.9-1-1.7-1.6-2.5
	c-0.6-0.8-1.4-1.4-2.3-1.9l-0.9-0.5l0.9-0.4c1.5-0.7,3-1.6,4.3-2.7c1.3-1.1,2.5-2.4,3.5-3.9c1-1.4,1.8-3.1,2.4-4.8
	c0.6-1.7,0.9-3.6,0.9-5.6c0-2.1-0.3-4-1-5.7c-0.7-1.7-1.6-3.2-2.9-4.5c-1.2-1.2-2.7-2.2-4.5-2.9c-1.7-0.7-3.7-1-5.8-1
	c-2.6,0-5,0.4-7.1,1.3c-2.1,0.9-4,2.1-5.5,3.7c-1.5,1.6-2.7,3.5-3.5,5.7c-0.8,2.2-1.3,4.7-1.3,7.4c0,1.7,0.2,3.2,0.5,4.5
	c0.4,1.3,0.8,2.4,1.2,3.3c0.5,0.9,0.9,1.6,1.4,2.2c0.5,0.5,0.8,0.9,1,1.1c0.2,0.2,0.4,0.2,0.7,0.1c0.3-0.2,0.7-0.5,0.9-0.9
	c0.3-0.4,0.5-0.9,0.7-1.4c0.2-0.6,0.3-0.9,0.3-1.1c0-0.2,0-0.3-0.1-0.4c0,0-0.1,0-0.2,0.1l-0.3,0.1l-0.2-0.2c0,0-0.2-0.2-0.4-0.5
	c-0.3-0.3-0.5-0.8-0.8-1.4c-0.3-0.6-0.5-1.4-0.8-2.3c-0.2-0.9-0.4-2.1-0.4-3.5c0-1.8,0.3-3.6,0.8-5.3c0.5-1.7,1.4-3.2,2.5-4.6
	c1.1-1.3,2.6-2.4,4.3-3.2c1.7-0.8,3.8-1.2,6.2-1.2c1.8,0,3.4,0.3,4.8,1c1.3,0.7,2.4,1.5,3.3,2.6c0.8,1,1.5,2.2,1.9,3.5
	c0.4,1.3,0.6,2.5,0.6,3.7c0,1.7-0.2,3.3-0.6,4.7c-0.4,1.4-1,2.7-1.6,3.8c-0.7,1.1-1.5,2.1-2.3,2.9c-0.9,0.8-1.8,1.5-2.7,2.1
	c-0.9,0.6-1.9,1-2.8,1.4c-0.9,0.3-1.8,0.6-2.6,0.7l-0.6,0.1V41.5c0-0.6-0.2-1.1-0.7-1.5c-0.5-0.4-1.2-0.7-2.1-0.7
	c-0.3,0-0.6,0.1-0.8,0.2c-0.2,0.1-0.2,0.3-0.2,0.3c0,0.2,0,0.3,0.1,0.5c0.1,0.3,0.2,0.8,0.2,1.4v31.4c0,0.1,0,0.2,0.1,0.3
	c0.1,0.2,0.3,0.3,0.6,0.4c0.2,0.1,0.5,0.2,0.8,0.3c0.7,0.2,1.4,0.2,1.8-0.1c0.1,0,0.3-0.2,0.3-0.6V64.5z"/>
<path class="st5" d="M165.2,55.7c0,1.1-0.2,2.3-0.6,3.4c-0.4,1.2-0.9,2.3-1.7,3.3c-0.8,1-1.7,2-2.8,2.8c-1.1,0.8-2.4,1.5-3.8,1.9
	c0.2,0.5,0.5,1,0.8,1.5c0.3,0.5,0.7,0.9,1.2,1.2c0.4,0.3,1,0.6,1.6,0.8c0.6,0.2,1.3,0.3,2.1,0.3c1.2,0,2.2-0.2,3-0.7
	c0.8-0.4,1.5-1,2.1-1.7c0.6-0.7,1-1.5,1.4-2.4c0.4-0.9,0.6-1.8,0.8-2.7c0.1-0.7,0.4-1.1,0.8-1.3c0.4-0.2,0.8-0.3,1.3-0.2
	c0.4,0.1,0.8,0.4,1.1,0.7c0.3,0.4,0.5,0.8,0.4,1.4c-0.1,0.6-0.2,1.3-0.4,2.1c-0.2,0.8-0.5,1.6-0.8,2.4c-0.4,0.8-0.8,1.6-1.4,2.4
	c-0.6,0.8-1.3,1.5-2.1,2.1c-0.8,0.6-1.8,1.1-3,1.5c-1.1,0.4-2.4,0.6-3.9,0.6c-1.4,0-2.7-0.3-4-0.8c-1.3-0.5-2.4-1.3-3.4-2.3
	c-1-1-1.8-2.2-2.4-3.7c-0.6-1.5-0.9-3.1-0.9-5c0-1.9,0.3-3.7,0.8-5.3c0.5-1.6,1.2-3,2.1-4.2c0.9-1.2,1.8-2.1,2.9-2.8
	c1.1-0.7,2.2-1,3.4-1c0.8,0,1.6,0.1,2.3,0.4c0.7,0.3,1.2,0.7,1.7,1.2c0.5,0.5,0.8,1.2,1.1,1.9C165.1,54,165.2,54.8,165.2,55.7z
	 M155.5,62.8c0,0.2,0,0.4,0,0.5c0,0.2,0,0.4,0,0.6c0.7-0.4,1.4-0.8,2-1.3c0.6-0.5,1.1-1.2,1.6-1.9c0.4-0.7,0.8-1.5,1-2.3
	c0.2-0.8,0.4-1.7,0.4-2.6c0-0.7-0.1-1.2-0.3-1.6c-0.2-0.4-0.5-0.6-0.9-0.6c-0.5,0-0.9,0.2-1.3,0.5c-0.4,0.3-0.7,0.8-1,1.3
	c-0.3,0.5-0.5,1.1-0.7,1.8c-0.2,0.7-0.3,1.4-0.5,2c-0.1,0.7-0.2,1.3-0.2,1.9C155.5,61.9,155.5,62.4,155.5,62.8z"/>
<path class="st5" d="M161.2,75.4c-1.4,0-2.8-0.3-4.2-0.8c-1.3-0.6-2.5-1.4-3.6-2.4c-1-1-1.9-2.4-2.5-3.9c-0.6-1.5-0.9-3.3-0.9-5.2
	c0-1.9,0.3-3.8,0.8-5.4c0.5-1.7,1.3-3.1,2.2-4.4c0.9-1.2,1.9-2.2,3.1-2.9c1.2-0.7,2.4-1.1,3.6-1.1c0.9,0,1.7,0.2,2.5,0.5
	c0.7,0.3,1.4,0.8,1.9,1.4c0.5,0.6,0.9,1.3,1.2,2.1c0.3,0.8,0.4,1.7,0.4,2.6c0,1.2-0.2,2.4-0.6,3.6c-0.4,1.2-1,2.4-1.8,3.5
	c-0.8,1.1-1.7,2.1-2.9,2.9c-1,0.8-2.2,1.4-3.4,1.8c0.1,0.3,0.3,0.6,0.5,0.9c0.3,0.4,0.6,0.8,1,1.1c0.4,0.3,0.9,0.5,1.4,0.7
	c0.5,0.2,1.2,0.3,1.9,0.3c1.1,0,2-0.2,2.8-0.6c0.8-0.4,1.4-0.9,2-1.6c0.5-0.7,1-1.5,1.3-2.3c0.3-0.9,0.6-1.8,0.8-2.6
	c0.2-0.8,0.5-1.4,1.1-1.7c0.5-0.3,1.1-0.4,1.7-0.2c0.5,0.1,1,0.4,1.4,0.9c0.4,0.5,0.6,1.1,0.5,1.7c-0.1,0.6-0.2,1.3-0.4,2.1
	c-0.2,0.8-0.5,1.6-0.9,2.5c-0.4,0.8-0.9,1.7-1.5,2.4c-0.6,0.8-1.4,1.5-2.2,2.2c-0.9,0.6-1.9,1.1-3.1,1.5
	C164.1,75.2,162.7,75.4,161.2,75.4z M159.8,50.2c-1.1,0-2.1,0.3-3.1,0.9c-1,0.6-2,1.5-2.8,2.7c-0.8,1.1-1.5,2.5-2,4.1
	c-0.5,1.6-0.8,3.3-0.8,5.1c0,1.8,0.3,3.4,0.9,4.8c0.6,1.4,1.3,2.6,2.3,3.6c0.9,1,2,1.7,3.2,2.2c1.2,0.5,2.5,0.8,3.8,0.8
	c1.4,0,2.7-0.2,3.7-0.5c1.1-0.4,2-0.8,2.8-1.4c0.8-0.6,1.5-1.2,2-2c0.6-0.7,1-1.5,1.4-2.3c0.4-0.8,0.6-1.5,0.8-2.3
	c0.2-0.8,0.3-1.4,0.4-2c0-0.4,0-0.7-0.3-1c-0.3-0.3-0.5-0.5-0.9-0.6c-0.3-0.1-0.6,0-0.9,0.1c-0.3,0.1-0.5,0.5-0.6,1
	c-0.2,0.9-0.5,1.9-0.8,2.8c-0.4,0.9-0.9,1.8-1.5,2.6c-0.6,0.8-1.4,1.4-2.3,1.9c-0.9,0.5-2,0.7-3.2,0.7c-0.8,0-1.6-0.1-2.2-0.3
	c-0.6-0.2-1.2-0.5-1.7-0.9c-0.5-0.4-0.9-0.8-1.3-1.3c-0.3-0.5-0.6-1-0.8-1.6l-0.2-0.5l0.5-0.2c1.4-0.4,2.6-1,3.7-1.8
	c1.1-0.8,2-1.7,2.7-2.7c0.7-1,1.3-2.1,1.6-3.2c0.4-1.1,0.5-2.2,0.5-3.3c0-0.8-0.1-1.6-0.3-2.3c-0.2-0.7-0.5-1.3-1-1.7
	c-0.4-0.5-0.9-0.9-1.5-1.1C161.2,50.3,160.5,50.2,159.8,50.2z M155.1,64.7v-0.8c0-0.2,0-0.3,0-0.5c0-0.2,0-0.4,0-0.6
	c0-0.4,0-0.9,0-1.6c0-0.6,0.1-1.3,0.2-2c0.1-0.7,0.3-1.4,0.5-2.1c0.2-0.7,0.4-1.3,0.7-1.9c0.3-0.6,0.7-1.1,1.1-1.4
	c0.5-0.4,1-0.6,1.6-0.6c0.6,0,1,0.3,1.4,0.8c0.3,0.5,0.4,1,0.4,1.8c0,0.9-0.1,1.9-0.4,2.7c-0.2,0.9-0.6,1.7-1.1,2.4
	c-0.5,0.7-1,1.4-1.6,2c-0.6,0.6-1.4,1.1-2.1,1.4L155.1,64.7z M159.2,54.2c-0.4,0-0.7,0.1-1,0.4c-0.3,0.3-0.6,0.7-0.9,1.2
	c-0.3,0.5-0.5,1.1-0.7,1.7c-0.2,0.7-0.3,1.3-0.4,2c-0.1,0.7-0.2,1.3-0.2,1.9c0,0.6,0,1.1,0,1.5c0,0.1,0,0.2,0,0.3
	c0.4-0.3,0.9-0.6,1.2-0.9c0.6-0.5,1.1-1.1,1.5-1.8c0.4-0.7,0.7-1.4,0.9-2.2c0.2-0.8,0.3-1.6,0.3-2.5c0-0.6-0.1-1-0.3-1.3
	C159.6,54.2,159.4,54.2,159.2,54.2z"/>
<path class="st5" d="M176.6,75.5c-0.7,0-1.3-0.1-1.8-0.2c-0.5-0.2-0.8-0.4-1.1-0.7v19.5c0,0.5-0.1,1-0.3,1.3
	c-0.2,0.3-0.5,0.6-0.8,0.8c-0.3,0.2-0.7,0.3-1,0.4c-0.4,0.1-0.7,0.1-1,0.1c-0.6,0-1-0.2-1.1-0.5c-0.2-0.3-0.2-0.7-0.2-1.1V53.2
	c0-0.4,0-0.8-0.1-1c-0.1-0.3-0.1-0.5-0.2-0.6c-0.1-0.1-0.1-0.3-0.2-0.4c-0.1-0.1-0.1-0.2-0.1-0.3c0-0.1,0.1-0.2,0.2-0.3
	c0.1-0.1,0.3-0.1,0.5-0.2c0.2-0.1,0.4-0.1,0.6-0.1c0.2,0,0.4,0,0.7,0c1,0,1.7,0.3,2.3,0.8c0.6,0.5,0.9,1.1,0.9,1.8
	c0.6-0.9,1.4-1.7,2.3-2.3c0.9-0.6,2-0.9,3.2-0.9c1.2,0,2.2,0.3,3.1,0.8c0.9,0.5,1.6,1.3,2.2,2.2c0.6,0.9,1,2.1,1.3,3.4
	c0.3,1.3,0.4,2.7,0.4,4.2c0,1.7-0.1,3.3-0.4,4.8c-0.3,1.5-0.7,2.8-1.1,3.9c1-0.1,1.8-0.2,2.5-0.4c0.6-0.2,1.2-0.5,1.6-0.9
	c0.4-0.4,0.8-0.8,1.1-1.4c0.3-0.5,0.7-1.2,1-1.9c0.3-0.6,0.5-1,0.7-1.2c0.2-0.3,0.4-0.4,0.7-0.4c0.3,0,0.5,0.1,0.8,0.2
	c0.3,0.2,0.5,0.4,0.7,0.6c0.2,0.2,0.4,0.5,0.5,0.7c0.1,0.3,0.2,0.5,0.2,0.7c0,0.7-0.2,1.5-0.7,2.3c-0.5,0.9-1.2,1.7-2.2,2.5
	c-1,0.8-2.2,1.4-3.7,2c-1.5,0.5-3.2,0.8-5.2,0.8c-0.8,0.9-1.8,1.6-2.8,2C178.8,75.2,177.7,75.5,176.6,75.5z M177.7,53.7
	c-0.4,0-0.8,0.1-1.2,0.4c-0.4,0.3-0.8,0.6-1.1,1c-0.4,0.4-0.7,1-0.9,1.6c-0.3,0.6-0.5,1.3-0.7,2v13c0.4-0.6,1.1-1.1,2.1-1.4
	c1-0.3,2.2-0.6,3.5-0.7c0.4-0.5,0.7-1.2,0.9-1.9c0.3-0.7,0.5-1.5,0.7-2.3c0.2-0.8,0.3-1.5,0.4-2.3c0.1-0.7,0.1-1.4,0.1-2
	c0-1.4-0.1-2.5-0.3-3.5c-0.2-1-0.5-1.7-0.8-2.3c-0.4-0.6-0.8-1-1.2-1.3C178.7,53.8,178.2,53.7,177.7,53.7z"/>
<path class="st5" d="M170.6,97.2c-0.8,0-1.3-0.3-1.6-0.7c-0.2-0.4-0.3-0.8-0.3-1.4V53.2c0-0.4,0-0.7-0.1-0.9
	c-0.1-0.2-0.1-0.4-0.2-0.5c-0.1-0.1-0.1-0.2-0.1-0.3c-0.1-0.2-0.2-0.4-0.2-0.6c0-0.2,0.1-0.4,0.4-0.7c0.2-0.1,0.4-0.2,0.6-0.3
	c0.2-0.1,0.5-0.1,0.7-0.1c1.4-0.2,2.5,0.1,3.4,0.9c0.4,0.3,0.6,0.7,0.8,1.1c0.5-0.6,1.1-1.1,1.7-1.6c1-0.7,2.1-1,3.5-1
	c1.3,0,2.4,0.3,3.3,0.9c0.9,0.6,1.7,1.4,2.3,2.4c0.6,1,1.1,2.2,1.4,3.5c0.3,1.3,0.4,2.8,0.4,4.3c0,1.7-0.2,3.4-0.4,4.9
	c-0.2,1.2-0.5,2.3-0.9,3.3c0.6-0.1,1.1-0.2,1.6-0.3c0.6-0.2,1.1-0.5,1.5-0.8c0.4-0.3,0.7-0.8,1-1.3c0.3-0.5,0.6-1.2,1-1.8
	c0.3-0.6,0.5-1,0.7-1.3c0.4-0.5,0.8-0.6,1.1-0.6c0.3,0,0.7,0.1,1,0.3c0.3,0.2,0.6,0.4,0.8,0.7c0.2,0.3,0.4,0.6,0.6,0.9
	c0.2,0.3,0.2,0.6,0.2,0.9c0,0.8-0.3,1.6-0.8,2.6c-0.5,0.9-1.3,1.8-2.3,2.6c-1,0.8-2.3,1.5-3.8,2.1c-1.5,0.5-3.2,0.8-5.2,0.8
	c-0.8,0.8-1.8,1.5-2.9,2c-1.1,0.5-2.3,0.8-3.4,0.8c-0.8,0-1.5-0.1-2-0.3c-0.1-0.1-0.3-0.1-0.4-0.2v18.6c0,0.6-0.1,1.2-0.4,1.6
	c-0.3,0.4-0.6,0.7-1,1c-0.4,0.2-0.8,0.4-1.2,0.5C171.3,97.2,170.9,97.2,170.6,97.2z M169.2,51c0.1,0.1,0.1,0.2,0.2,0.4
	c0.1,0.2,0.2,0.4,0.2,0.7c0.1,0.3,0.1,0.7,0.1,1.2v41.9c0,0.4,0.1,0.7,0.2,0.9c0.1,0.2,0.8,0.3,1.6,0.1c0.3-0.1,0.6-0.2,0.9-0.3
	c0.3-0.2,0.5-0.4,0.6-0.6c0.2-0.3,0.2-0.6,0.2-1.1l0-35.5c0.2-0.7,0.4-1.5,0.7-2.1c0.3-0.7,0.6-1.2,1-1.7c0.4-0.5,0.8-0.9,1.3-1.1
	c1-0.6,2.2-0.6,3.2,0c0.5,0.3,1,0.8,1.4,1.5c0.4,0.6,0.7,1.5,0.9,2.5c0.2,1,0.3,2.2,0.3,3.6c0,0.6,0,1.3-0.1,2
	c-0.1,0.8-0.2,1.5-0.4,2.3c-0.2,0.8-0.4,1.6-0.7,2.3c-0.3,0.8-0.6,1.4-1,2l-0.1,0.2l-0.2,0c-1.3,0.1-2.5,0.3-3.4,0.6
	c-0.9,0.3-1.5,0.7-1.9,1.2l-0.9,1.3l0.9,0.9c0.2,0.2,0.5,0.4,0.9,0.5c0.4,0.1,1,0.2,1.6,0.2c1,0,2-0.2,3-0.7c1-0.5,1.9-1.1,2.7-1.9
	l0.1-0.2h0.2c1.9,0,3.6-0.3,5-0.8c1.4-0.5,2.6-1.2,3.5-1.9c0.9-0.7,1.6-1.5,2-2.3c0.4-0.8,0.6-1.5,0.6-2.1c0-0.1,0-0.3-0.1-0.5
	c-0.1-0.2-0.2-0.4-0.4-0.6c-0.2-0.2-0.4-0.4-0.6-0.5c-0.2-0.1-0.4-0.2-0.5-0.2c-0.1,0-0.2,0-0.3,0.2c-0.2,0.2-0.4,0.6-0.6,1.2
	c-0.4,0.7-0.7,1.4-1,1.9c-0.3,0.6-0.8,1.1-1.2,1.5c-0.5,0.4-1.1,0.8-1.8,1c-0.7,0.2-1.6,0.4-2.6,0.4l-0.8,0l0.3-0.7
	c0.4-1.1,0.8-2.4,1.1-3.8c0.3-1.5,0.4-3.1,0.4-4.7c0-1.4-0.1-2.8-0.4-4.1c-0.3-1.2-0.7-2.3-1.2-3.2c-0.5-0.9-1.2-1.6-2-2.1
	c-0.8-0.5-1.7-0.7-2.8-0.7c-1.2,0-2.1,0.3-2.9,0.8c-0.8,0.6-1.5,1.3-2.1,2.2l-0.8,1.2l-0.1-1.5c0-0.6-0.3-1-0.8-1.5
	c-0.6-0.5-1.5-0.7-2.6-0.6c-0.2,0-0.4,0.1-0.6,0.1C169.3,51,169.2,51,169.2,51z M174.2,58.8v11.7c0.4-0.3,0.9-0.5,1.4-0.7
	c1-0.3,2.1-0.6,3.4-0.7c0.3-0.5,0.5-1,0.7-1.6c0.3-0.7,0.5-1.5,0.6-2.2c0.2-0.8,0.3-1.5,0.4-2.2c0.1-0.7,0.1-1.4,0.1-1.9
	c0-1.3-0.1-2.5-0.3-3.4c-0.2-0.9-0.5-1.6-0.8-2.2c-0.3-0.5-0.7-0.9-1-1.1c-0.7-0.4-1.5-0.5-2.2,0c-0.4,0.2-0.7,0.5-1,0.9
	c-0.3,0.4-0.6,0.9-0.9,1.5C174.6,57.5,174.4,58.1,174.2,58.8z"/>
<path class="st5" d="M204.7,55.7c0,1.1-0.2,2.3-0.6,3.4c-0.4,1.2-0.9,2.3-1.7,3.3c-0.8,1-1.7,2-2.8,2.8c-1.1,0.8-2.4,1.5-3.8,1.9
	c0.2,0.5,0.5,1,0.8,1.5c0.3,0.5,0.7,0.9,1.2,1.2c0.4,0.3,1,0.6,1.6,0.8c0.6,0.2,1.3,0.3,2.1,0.3c1.2,0,2.2-0.2,3-0.7
	c0.8-0.4,1.5-1,2.1-1.7c0.6-0.7,1-1.5,1.4-2.4c0.4-0.9,0.6-1.8,0.8-2.7c0.1-0.7,0.4-1.1,0.8-1.3c0.4-0.2,0.8-0.3,1.3-0.2
	c0.4,0.1,0.8,0.4,1.1,0.7c0.3,0.4,0.5,0.8,0.4,1.4c-0.1,0.6-0.2,1.3-0.4,2.1c-0.2,0.8-0.5,1.6-0.8,2.4c-0.4,0.8-0.8,1.6-1.4,2.4
	c-0.6,0.8-1.3,1.5-2.1,2.1c-0.8,0.6-1.8,1.1-3,1.5c-1.1,0.4-2.4,0.6-3.9,0.6c-1.4,0-2.7-0.3-4-0.8c-1.3-0.5-2.4-1.3-3.4-2.3
	c-1-1-1.8-2.2-2.4-3.7c-0.6-1.5-0.9-3.1-0.9-5c0-1.9,0.3-3.7,0.8-5.3c0.5-1.6,1.2-3,2.1-4.2c0.9-1.2,1.8-2.1,2.9-2.8
	c1.1-0.7,2.2-1,3.4-1c0.8,0,1.6,0.1,2.3,0.4c0.7,0.3,1.2,0.7,1.7,1.2c0.5,0.5,0.8,1.2,1.1,1.9C204.5,54,204.7,54.8,204.7,55.7z
	 M195,62.8c0,0.2,0,0.4,0,0.5c0,0.2,0,0.4,0,0.6c0.7-0.4,1.4-0.8,2-1.3c0.6-0.5,1.1-1.2,1.6-1.9c0.4-0.7,0.8-1.5,1-2.3
	c0.2-0.8,0.4-1.7,0.4-2.6c0-0.7-0.1-1.2-0.3-1.6c-0.2-0.4-0.5-0.6-0.9-0.6c-0.5,0-0.9,0.2-1.3,0.5c-0.4,0.3-0.7,0.8-1,1.3
	c-0.3,0.5-0.5,1.1-0.7,1.8c-0.2,0.7-0.3,1.4-0.5,2s-0.2,1.3-0.2,1.9C195,61.9,195,62.4,195,62.8z"/>
<path class="st5" d="M200.7,75.4c-1.4,0-2.8-0.3-4.2-0.8c-1.3-0.6-2.5-1.4-3.6-2.4c-1-1-1.9-2.4-2.5-3.9c-0.6-1.5-0.9-3.3-0.9-5.2
	c0-1.9,0.3-3.8,0.8-5.4c0.5-1.7,1.3-3.1,2.2-4.4c0.9-1.2,1.9-2.2,3.1-2.9c1.2-0.7,2.4-1.1,3.6-1.1c0.9,0,1.7,0.2,2.5,0.5
	c0.7,0.3,1.4,0.8,1.9,1.4c0.5,0.6,0.9,1.3,1.2,2.1c0.3,0.8,0.4,1.7,0.4,2.6c0,1.2-0.2,2.4-0.6,3.6c-0.4,1.2-1,2.4-1.8,3.5
	c-0.8,1.1-1.7,2.1-2.9,2.9c-1,0.8-2.2,1.4-3.4,1.8c0.1,0.3,0.3,0.6,0.5,0.9c0.3,0.4,0.6,0.8,1,1.1c0.4,0.3,0.9,0.5,1.4,0.7
	c0.5,0.2,1.2,0.3,1.9,0.3c1.1,0,2-0.2,2.8-0.6c0.8-0.4,1.4-0.9,2-1.6c0.5-0.7,1-1.5,1.3-2.3c0.3-0.9,0.6-1.8,0.8-2.6
	c0.2-0.8,0.5-1.4,1.1-1.7c0.5-0.3,1.1-0.4,1.7-0.2c0.5,0.1,1,0.4,1.4,0.9c0.4,0.5,0.6,1.1,0.5,1.7c-0.1,0.6-0.2,1.3-0.4,2.1
	c-0.2,0.8-0.5,1.6-0.9,2.5c-0.4,0.8-0.9,1.7-1.5,2.4c-0.6,0.8-1.4,1.5-2.2,2.2c-0.9,0.6-1.9,1.1-3.1,1.5
	C203.6,75.2,202.2,75.4,200.7,75.4z M199.2,50.2c-1.1,0-2.1,0.3-3.1,0.9c-1,0.6-2,1.5-2.8,2.7c-0.8,1.1-1.5,2.5-2,4.1
	c-0.5,1.6-0.8,3.3-0.8,5.1c0,1.8,0.3,3.4,0.9,4.8c0.6,1.4,1.3,2.6,2.3,3.6c0.9,1,2,1.7,3.2,2.2c1.2,0.5,2.5,0.8,3.8,0.8
	c1.4,0,2.7-0.2,3.7-0.5c1.1-0.4,2-0.8,2.8-1.4c0.8-0.6,1.5-1.2,2-2c0.6-0.7,1-1.5,1.4-2.3c0.4-0.8,0.6-1.5,0.8-2.3
	c0.2-0.8,0.3-1.4,0.4-2c0-0.4,0-0.7-0.3-1c-0.3-0.3-0.5-0.5-0.9-0.6c-0.3-0.1-0.6,0-0.9,0.1c-0.3,0.1-0.5,0.5-0.6,1
	c-0.2,0.9-0.5,1.9-0.8,2.8c-0.4,0.9-0.9,1.8-1.5,2.6c-0.6,0.8-1.4,1.4-2.3,1.9c-0.9,0.5-2,0.7-3.2,0.7c-0.8,0-1.6-0.1-2.2-0.3
	c-0.6-0.2-1.2-0.5-1.7-0.9c-0.5-0.4-0.9-0.8-1.3-1.3c-0.3-0.5-0.6-1-0.8-1.6l-0.2-0.5l0.5-0.2c1.4-0.4,2.6-1,3.7-1.8
	c1.1-0.8,2-1.7,2.7-2.7c0.7-1,1.3-2.1,1.6-3.2c0.4-1.1,0.5-2.2,0.5-3.3c0-0.8-0.1-1.6-0.3-2.3c-0.2-0.7-0.5-1.3-1-1.7
	c-0.4-0.5-0.9-0.9-1.5-1.1C200.7,50.3,200,50.2,199.2,50.2z M194.5,64.7v-0.8c0-0.2,0-0.3,0-0.5c0-0.2,0-0.4,0-0.6
	c0-0.4,0-0.9,0-1.6c0-0.6,0.1-1.3,0.2-2c0.1-0.7,0.3-1.4,0.5-2.1c0.2-0.7,0.4-1.3,0.7-1.9c0.3-0.6,0.7-1.1,1.1-1.4
	c0.5-0.4,1-0.6,1.6-0.6c0.6,0,1,0.3,1.4,0.8c0.3,0.5,0.4,1,0.4,1.8c0,0.9-0.1,1.9-0.4,2.7c-0.2,0.9-0.6,1.7-1.1,2.4
	c-0.5,0.7-1,1.4-1.6,2c-0.6,0.6-1.4,1.1-2.1,1.4L194.5,64.7z M198.7,54.2c-0.4,0-0.7,0.1-1,0.4c-0.3,0.3-0.6,0.7-0.9,1.2
	c-0.3,0.5-0.5,1.1-0.7,1.7c-0.2,0.7-0.3,1.3-0.4,2c-0.1,0.7-0.2,1.3-0.2,1.9c0,0.6,0,1.1,0,1.5c0,0.1,0,0.2,0,0.3
	c0.4-0.3,0.9-0.6,1.2-0.9c0.6-0.5,1.1-1.1,1.5-1.8c0.4-0.7,0.7-1.4,0.9-2.2c0.2-0.8,0.3-1.6,0.3-2.5c0-0.6-0.1-1-0.3-1.3
	C199,54.2,198.9,54.2,198.7,54.2z"/>
<path class="st5" d="M221.7,64.5c0.1-0.6,0.3-1,0.5-1.3c0.2-0.3,0.5-0.4,0.8-0.4c0.3,0,0.6,0,0.9,0.2c0.3,0.2,0.5,0.4,0.8,0.7
	c0.2,0.3,0.4,0.6,0.5,0.9c0.1,0.3,0.1,0.7,0,1c-0.3,0.8-0.7,1.7-1.2,2.8c-0.5,1.1-1.2,2.1-1.9,3c-0.8,1-1.7,1.8-2.8,2.4
	c-1.1,0.7-2.3,1-3.6,1c-1.2,0-2.2-0.2-3-0.6c-0.9-0.4-1.6-0.9-2.2-1.6c-0.6-0.7-1-1.5-1.3-2.5c-0.3-1-0.5-2-0.5-3.2V39.6
	c0-1.1,0.1-2.1,0.4-3.1c0.3-0.9,0.7-1.8,1.2-2.4c0.5-0.7,1.1-1.2,1.7-1.6c0.7-0.4,1.4-0.6,2.1-0.6c0.9,0,1.6,0.2,2.2,0.5
	c0.6,0.3,1.1,0.7,1.5,1.3c0.4,0.5,0.7,1.1,0.9,1.8c0.2,0.7,0.4,1.4,0.5,2.1c0.1,0.7,0.2,1.4,0.2,2.1c0,0.7,0,1.3,0,1.9
	c0,1.5-0.1,3-0.4,4.6c-0.3,1.6-0.6,3.2-1,4.8c-0.4,1.6-0.9,3.1-1.4,4.5c-0.5,1.4-1,2.7-1.4,3.8s-0.9,2-1.2,2.7
	c-0.4,0.7-0.6,1.1-0.7,1.2v3.5c0,1.2,0.3,2.2,0.8,3c0.5,0.8,1.3,1.2,2.4,1.2c0.7,0,1.3-0.2,1.9-0.6c0.6-0.4,1.1-0.9,1.6-1.6
	c0.5-0.6,0.8-1.3,1.2-2.1C221.4,65.9,221.6,65.2,221.7,64.5z M213.2,55.4c0.2-0.4,0.4-1,0.6-1.7c0.2-0.7,0.4-1.5,0.6-2.3
	c0.2-0.8,0.4-1.7,0.5-2.6c0.2-0.9,0.3-1.8,0.4-2.7c0.1-0.9,0.2-1.7,0.3-2.5c0.1-0.8,0.1-1.4,0.1-2c0-2-0.1-3.5-0.4-4.4
	c-0.3-0.9-0.7-1.4-1.2-1.4c-0.2,0-0.3,0.1-0.4,0.2c-0.1,0.2-0.2,0.4-0.3,0.6c-0.1,0.2-0.1,0.5-0.2,0.8c0,0.3,0,0.5,0,0.8V55.4z"/>
<path class="st5" d="M215.7,75.4c-1.2,0-2.3-0.2-3.2-0.6c-0.9-0.4-1.7-1-2.4-1.7c-0.6-0.7-1.1-1.6-1.4-2.7c-0.3-1-0.5-2.2-0.5-3.4
	V39.6c0-1.2,0.1-2.2,0.4-3.2c0.3-1,0.7-1.9,1.2-2.6c0.5-0.7,1.2-1.3,1.9-1.7c0.7-0.4,1.5-0.6,2.4-0.6c1,0,1.8,0.2,2.5,0.5
	c0.7,0.4,1.2,0.8,1.7,1.4c0.4,0.6,0.8,1.2,1,2c0.2,0.7,0.4,1.4,0.5,2.2c0.1,0.7,0.2,1.5,0.2,2.2c0,0.7,0,1.3,0,1.9
	c0,1.5-0.1,3.1-0.4,4.7c-0.3,1.6-0.6,3.2-1.1,4.8c-0.4,1.6-0.9,3.1-1.4,4.5c-0.5,1.4-1,2.7-1.4,3.8c-0.5,1.1-0.9,2.1-1.2,2.8
	c-0.3,0.7-0.5,1-0.7,1.2v3.3c0,1.1,0.2,2,0.7,2.7c0.4,0.6,1.1,0.9,2,0.9c0.6,0,1.1-0.2,1.6-0.5c0.5-0.4,1-0.9,1.5-1.5
	c0.4-0.6,0.8-1.3,1.1-2c0.3-0.7,0.5-1.4,0.6-2c0.1-0.7,0.4-1.2,0.7-1.5c0.3-0.4,0.7-0.6,1.1-0.6c0.4,0,0.8,0,1.2,0.3
	c0.3,0.2,0.7,0.5,0.9,0.8c0.3,0.3,0.4,0.7,0.6,1.1c0.1,0.4,0.2,0.9,0.1,1.3c-0.3,0.9-0.7,1.8-1.2,2.9c-0.5,1.1-1.2,2.2-2,3.1
	c-0.8,1-1.8,1.8-2.9,2.5C218.5,75,217.2,75.4,215.7,75.4z M214.1,32.5c-0.7,0-1.3,0.2-1.9,0.5c-0.6,0.3-1.1,0.8-1.6,1.4
	c-0.5,0.6-0.8,1.4-1.1,2.3c-0.3,0.9-0.4,1.9-0.4,2.9V67c0,1.1,0.1,2.2,0.4,3.1c0.3,0.9,0.7,1.7,1.2,2.3c0.5,0.6,1.2,1.1,2,1.5
	c0.8,0.4,1.8,0.5,2.8,0.5c1.3,0,2.4-0.3,3.4-0.9c1-0.6,1.9-1.4,2.6-2.3c0.8-0.9,1.4-1.9,1.9-2.9c0.5-1.1,0.9-2,1.2-2.8
	c0-0.2,0-0.4,0-0.7c-0.1-0.3-0.2-0.5-0.4-0.8c-0.2-0.2-0.4-0.4-0.6-0.5c-0.2-0.1-0.3-0.1-0.5-0.1c-0.2,0-0.4,0.1-0.6,0.3
	c-0.1,0.1-0.3,0.4-0.4,1c-0.1,0.7-0.4,1.4-0.7,2.2c-0.3,0.8-0.7,1.5-1.2,2.2c-0.5,0.7-1.1,1.2-1.7,1.7c-0.7,0.5-1.4,0.7-2.2,0.7
	c-1.3,0-2.2-0.5-2.8-1.4c-0.6-0.9-0.8-1.9-0.8-3.2v-3.7l0.2-0.2c0,0,0.2-0.2,0.6-1.1c0.4-0.7,0.8-1.6,1.2-2.7
	c0.5-1.1,0.9-2.4,1.4-3.8c0.5-1.4,1-2.9,1.4-4.5c0.4-1.5,0.8-3.1,1-4.7c0.3-1.6,0.4-3.1,0.4-4.5c0-0.6,0-1.2,0-1.9
	c0-0.7-0.1-1.4-0.2-2.1c-0.1-0.7-0.2-1.4-0.5-2c-0.2-0.6-0.5-1.2-0.8-1.7c-0.3-0.5-0.8-0.8-1.3-1.1
	C215.6,32.6,214.9,32.5,214.1,32.5z M212.7,57.5V38.3c0-0.2,0-0.5,0-0.8c0-0.3,0.1-0.6,0.2-0.9c0.1-0.3,0.2-0.5,0.4-0.7
	c0.3-0.4,0.6-0.4,0.8-0.4c0.7,0,1.3,0.6,1.6,1.7c0.3,1,0.5,2.5,0.5,4.5c0,0.6,0,1.2-0.1,2c-0.1,0.8-0.2,1.6-0.3,2.5
	c-0.1,0.9-0.3,1.8-0.4,2.7c-0.2,0.9-0.3,1.8-0.5,2.7c-0.2,0.9-0.4,1.6-0.6,2.3c-0.2,0.7-0.4,1.3-0.7,1.7L212.7,57.5z M214.1,36.4
	c-0.1,0.2-0.2,0.3-0.2,0.5c-0.1,0.2-0.1,0.4-0.1,0.7c0,0.3,0,0.5,0,0.7v14c0.1-0.3,0.2-0.6,0.2-1c0.2-0.8,0.4-1.7,0.5-2.6
	c0.2-0.9,0.3-1.8,0.4-2.7c0.1-0.9,0.2-1.7,0.3-2.5c0.1-0.8,0.1-1.4,0.1-1.9c0-1.9-0.1-3.4-0.4-4.2C214.6,36.8,214.4,36.5,214.1,36.4
	z"/>
<path class="st0" d="M85.3,30.7L80,20.3c0,0-4.3,8.5-5.2,10.1c-0.9,1.6-1,2.1-1,3.9c0,2.1,2.1,5.8,6.1,5.8h0c3.9,0,5.7-2.8,6.1-4.9
	C86.6,32.7,85.3,30.7,85.3,30.7z M80.8,39.1c-0.3,0-0.6,0.1-0.9,0.1h0c-3.3,0-4.9-3.1-4.9-4.8c0-1.5,0.1-1.9,0.8-3.2
	c0.7-1.4,4.2-8.5,4.2-8.5l1.4,2.8c-0.8,1.6-2.8,5.7-3.3,6.7c-0.6,1.2-0.7,1.5-0.7,2.8C77.3,36.3,78.5,38.6,80.8,39.1z"/>
<path class="st6" d="M252.3,26.4c-0.1-0.8-0.4-1.4-0.8-2c-0.5-0.7-0.9-1.1-1.5-1.3c-4-1.8-8-3.4-11.9-4.9c-10.1-3.8-20-6.6-29.9-8.6
	c-3.7-0.8-7.4-1.4-11.1-1.9c-29.7-4.3-58.7-0.9-87,10.5c-3.7,1.4-7.5,3.1-11.1,4.9c-1,0.3-1.6,1.1-2,2.3c-0.5,1.1-0.5,2.2-0.1,3.3
	l4,12.9c1.5-0.6,3.2-0.9,4.9-0.9c0.9,0,1.8,0.1,2.6,0.3l-3.4-11.1c2.5-1.1,4.9-2.2,7.4-3.2c27.3-10.9,55.3-14.3,83.9-10.2
	c3.6,0.6,7.2,1.1,10.7,1.9c9.6,1.9,19.2,4.6,28.9,8.3h-0.1c2.6,1,5.4,2.1,8.1,3.2l-21.2,68.5c-0.7-0.3-1.5-0.6-2.2-0.9
	c-0.1,0-0.2,0-0.3,0c-0.2-0.1,0.1,0-0.5-0.2c-0.1-0.1-0.2-0.1-0.2-0.1c-0.5-0.2-0.9-0.3-1.2-0.4c-6.3-2.2-12.5-4-18.6-5.2
	c-0.9-0.2-1.8-0.4-2.6-0.6c-7.2-1.4-14.2-2.2-21.2-2.4h-0.6c-6.1-0.1-12.2,0.2-18.2,1.1c-5.7,0.8-11.4,2-16.9,3.6
	c-4.8,1.3-9.6,3-14.2,5l-4.4-14.4c-2,1.4-4.4,2.4-7,2.6l5.8,18.9c0.3,1.2,0.9,2,1.9,2.5c0.9,0.4,1.8,0.4,2.7,0.1
	c5.6-2.5,11.2-4.6,16.8-6.2h0.1c10.8-3.2,21.8-4.6,33-4.5h0.7c6.7,0.1,13.6,0.9,20.4,2.3c6.8,1.2,13.7,3.2,20.8,5.7c0,0,0,0,0.1,0
	c0.1,0,0.1,0,0.2,0.1c0.1,0,0.3,0,0.4,0.1c0.3,0.1,0.5,0.1,0.7,0.2c0,0,0,0,0.1,0.1c1.7,0.6,3.6,1.3,5.3,2.1
	c0.9,0.3,1.8,0.3,2.8-0.1c0.9-0.6,1.5-1.4,1.9-2.5l23.8-76.7C252.3,28,252.3,27.2,252.3,26.4z"/>
<path class="st2" d="M145,23.7c0,0,2.4-0.5,2.4,2.5C147.4,26.1,146.8,24.1,145,23.7z"/>
<path class="st2" d="M133.7,22.8c0,0,1-2.1,2.8-0.4C136.4,22.5,135.1,21.5,133.7,22.8z"/>
<path class="st0" d="M155.8,38.8c2.1,2.1,1,2.7,0.2,3.8c-0.8,1.1-2.2,1.2-3.2,0.3c-0.9-1-0.9-2.5-0.2-3.8
	C153.8,36.8,154.8,37.9,155.8,38.8z"/>
<path class="st2" d="M152.8,39.5c0,0,1-2.5,2.8-0.5C155.6,39,154.2,37.9,152.8,39.5z"/>
<path class="st0" d="M128.1,86.3c2.1,1.8,1,2.2,0.2,3.2c-0.8,0.9-2.2,1-3.2,0.2c-0.9-0.8-0.9-2.1-0.2-3.2
	C126.1,84.6,127.1,85.5,128.1,86.3z"/>
<path class="st2" d="M125.2,86.8c0,0,1-2.1,2.8-0.4C127.9,86.5,126.5,85.5,125.2,86.8z"/>
<path class="st0" d="M124.5,24.4c2.6-2.3,3-0.9,4,0.3c1,1.2,0.9,3-0.3,4c-1.2,1-2.8,0.7-4-0.3C122,26.5,123.4,25.4,124.5,24.4z"/>
<path class="st2" d="M124.7,28.1c0,0-2.4-1.6,0-3.5C124.7,24.6,123.3,26.1,124.7,28.1z"/>
<path class="st0" d="M137.8,90.4c-1.6,0-2.4-1.5-2.9-3.4c-0.5-1.8,1.3-3.4,2.9-3.4c1.6,0,2.9-0.8,2.9,3.4
	C140.5,90.5,139.4,90.4,137.8,90.4"/>
<path class="st2" d="M138.4,84c0,0,1.8-0.5,1.8,2.1C140.2,86.1,139.8,84.4,138.4,84z"/>
<path class="st0" d="M113.9,36.4c-2.2,0-3.3-1.7-3.9-3.9c-0.6-2.1,1.8-3.9,3.9-3.9c2.2,0,3.9-0.9,3.9,3.9
	C117.6,36.5,116.1,36.4,113.9,36.4"/>
<path class="st2" d="M114.8,29c0,0,2.4-0.5,2.4,2.5C117.2,31.5,116.7,29.4,114.8,29z"/>
<path class="st0" d="M166.3,45.3c-1.7,0-2.6-1.7-3.1-3.9c-0.5-2.1,1.4-3.9,3.1-3.9c1.7,0,3.1-0.9,3.1,3.9
	C169.3,45.4,168,45.3,166.3,45.3"/>
<path class="st2" d="M167.1,37.9c0,0,1.9-0.5,1.9,2.5C169,40.4,168.5,38.3,167.1,37.9z"/>
<path class="st3" d="M164.1,42.4c0,0,0.7,2.5,2.4,2.4c1.8-0.1,2.3-0.8,2.5-2.2c0.2-1.3-1.1,0-1.6,0.2c-0.6,0.2-1.9-1.7-2.9-1.4
	C163.5,41.6,164.1,42.4,164.1,42.4z"/>
<path class="st0" d="M192.4,33.1c-1.7,0-2.6-1.7-3.1-3.9c-0.5-2.1,1.4-3.9,3.1-3.9c1.7,0,3.1-0.9,3.1,3.9
	C195.3,33.2,194.1,33.1,192.4,33.1"/>
<path class="st2" d="M193.1,25.7c0,0,1.9-0.5,1.9,2.5C195,28.2,194.6,26.1,193.1,25.7z"/>
<path class="st3" d="M190.1,30.1c0,0,0.7,2.5,2.4,2.4c1.8-0.1,2.3-0.8,2.5-2.2c0.2-1.3-1.1,0-1.6,0.2c-0.6,0.2-1.9-1.7-2.9-1.4
	C189.5,29.4,190.1,30.1,190.1,30.1z"/>
<path class="st0" d="M212.2,83.1c-0.9-0.8-0.5-2,0.2-3.4c0.7-1.3,2.5-1.4,3.4-0.6c0.9,0.8,2,1-0.2,3.4
	C213.6,84.5,213,83.9,212.2,83.1"/>
<path class="st2" d="M215.9,79.7c0,0,1.2,0.6-0.1,2.1C215.7,81.8,216.4,80.6,215.9,79.7z"/>
<path class="st3" d="M212.4,80.6c0,0-0.8,1.5,0.2,2.3c0.9,0.7,1.5,0.6,2.2,0c0.7-0.6-0.5-0.5-0.9-0.6c-0.4-0.2-0.2-1.7-0.8-2
	C212.4,80,212.4,80.6,212.4,80.6z"/>
<path class="st0" d="M155.6,20.8c2.1,1.8,1,2.2,0.2,3.2c-0.8,0.9-2.2,1-3.2,0.2c-0.9-0.8-0.9-2.1-0.2-3.2
	C153.6,19.1,154.6,20,155.6,20.8z"/>
<path class="st3" d="M152.3,23.2c0,0,1.4,2.2,3.3,0.4c0.6-0.6-1-0.2-1.5-0.3S152.2,22.4,152.3,23.2z"/>
<path class="st0" d="M153.8,22.3c-0.1,0-1.6-1-1.6-1s1.5-2.7,1.6-3.1c0-0.4,0.8-0.1,1,0.5s-0.1,1.3,0.7,2"/>
<path class="st0" d="M194.6,41.6c2.1,1.8,1,2.2,0.2,3.2c-0.8,0.9-2.2,1-3.2,0.2c-0.9-0.8-0.9-2.1-0.2-3.2
	C192.6,39.8,193.7,40.8,194.6,41.6z"/>
<path class="st3" d="M191.4,44c0,0,1.4,2.2,3.3,0.4c0.6-0.6-1-0.2-1.5-0.3C192.7,44.1,191.3,43.2,191.4,44z"/>
<path class="st0" d="M192.8,43.1c-0.1,0-1.6-1-1.6-1s1.5-2.7,1.6-3.1c0-0.4,0.8-0.1,1,0.5s-0.1,1.3,0.7,2"/>
<path class="st2" d="M154.1,18.5c0,0,0.6,0.1,0.5,1s0.4,1.1,0.4,1.2c0.1,0.1-0.7-0.5-0.7-1.2C154.3,18.7,154.1,18.5,154.1,18.5z"/>
<path class="st0" d="M160.7,30.6c-0.1-0.9-0.2-2.1-0.4-2.5c-0.3-0.6-0.5-3-0.5-3s-0.8,1.8-1.4,2.4c-0.1,0.1-0.3,0.4-0.5,0.7l0,0
	c0,0-2,2.2-2,3c0,0,0,0,0,0c0,0.2-0.1,0.4-0.1,0.5c0,1.4,1.2,2,2.6,2.6c1.3,0.5,2.6-1.1,2.6-2.6C160.9,31.3,160.9,31,160.7,30.6z"/>
<path class="st2" d="M159.6,26.7c0,0,0,1.1,0.2,1.4c0.2,0.3,0.4,1.6,0.4,1.6c0,0.1-1-1.4-1.1-1.7S159.4,26.4,159.6,26.7z"/>
<path class="st0" d="M149.8,85.5c2.1,1.8,1,2.2,0.2,3.2c-0.8,0.9-2.2,1-3.2,0.2c-0.9-0.8-0.9-2.1-0.2-3.2
	C147.8,83.8,148.9,84.7,149.8,85.5z"/>
<path class="st2" d="M146.9,86c0,0,1-2.1,2.8-0.4C149.6,85.6,148.2,84.7,146.9,86z"/>
<path class="st0" d="M162.7,81.1c2.1,3.5,2.1,4-1.2,4.6c-1.8,0.4-3.7,0.4-4.6-1.2c-0.9-1.6-0.2-3.4,1.2-4.6
	C160.7,77.7,161.7,79.5,162.7,81.1z"/>
<path class="st2" d="M158.2,80.4c0,0,2.4-2.5,4.1,0.8C162.3,81.2,160.8,79.2,158.2,80.4z"/>
<path class="st1" d="M133.4,24.7c0,0,1.4,2.2,3.3,0.4c0.6-0.6-1-0.2-1.5-0.3C134.7,24.8,133.3,23.9,133.4,24.7z"/>
<path class="st1" d="M152.6,41.7c0,0,1.4,2.6,3.3,0.5c0.6-0.7-1-0.3-1.5-0.3C153.9,41.9,152.4,40.7,152.6,41.7z"/>
<path class="st0" d="M187.3,21.9c-0.9-1-0.9-2.5-0.2-3.8c1.2-2.3,2.2-1.2,3.2-0.3c2.1,2.1,1,2.7,0.2,3.8
	C189.7,22.7,188.3,22.8,187.3,21.9"/>
<path class="st2" d="M187.3,18.4c0,0,1-2.5,2.8-0.5C190.1,18,188.7,16.9,187.3,18.4z"/>
<path class="st1" d="M187,20.7c0,0,1.4,2.6,3.3,0.5c0.6-0.7-1-0.3-1.5-0.3C188.4,20.8,186.9,19.7,187,20.7z"/>
<path class="st0" d="M200.4,33c-0.7-0.7-0.6-1.8-0.2-2.6c0.8-1.6,1.6-0.9,2.2-0.2c1.4,1.5,0.7,1.9,0.2,2.6
	C202,33.6,201,33.7,200.4,33"/>
<path class="st2" d="M200.4,30.6c0,0,0.7-1.8,1.9-0.3C202.3,30.3,201.3,29.5,200.4,30.6z"/>
<path class="st1" d="M200.2,32.2c0,0,1,1.8,2.3,0.4c0.4-0.5-0.7-0.2-1-0.2C201.1,32.3,200.1,31.5,200.2,32.2z"/>
<path class="st0" d="M236.7,33.7c-0.7-0.7-0.6-1.8-0.2-2.6c0.8-1.6,1.6-0.9,2.2-0.2c1.4,1.5,0.7,1.9,0.2,2.6
	C238.4,34.3,237.4,34.4,236.7,33.7"/>
<path class="st2" d="M236.7,31.3c0,0,0.7-1.8,1.9-0.3C238.7,31,237.7,30.2,236.7,31.3z"/>
<path class="st1" d="M236.5,32.8c0,0,1,1.8,2.3,0.4c0.4-0.5-0.7-0.2-1-0.2C237.4,33,236.5,32.2,236.5,32.8z"/>
<path class="st0" d="M225.9,37.3c-1-1-0.9-2.6-0.2-3.9c1.2-2.4,2.3-1.3,3.3-0.3c2.1,2.2,1.1,2.7,0.2,3.9
	C228.3,38.2,226.8,38.3,225.9,37.3"/>
<path class="st2" d="M225.9,33.8c0,0,1-2.6,2.8-0.5C228.7,33.3,227.3,32.2,225.9,33.8z"/>
<path class="st1" d="M225.6,36.1c0,0,1.4,2.7,3.4,0.5c0.6-0.7-1-0.3-1.5-0.3C226.9,36.3,225.5,35.1,225.6,36.1z"/>
<path class="st0" d="M201.5,24.5c-1.4-0.2-2.3-1.6-2.6-3.1c-0.5-2.8,1.1-2.5,2.5-2.2c3.1,0.5,2.6,1.6,2.6,3.1
	C204.1,23.7,202.9,24.7,201.5,24.5"/>
<path class="st2" d="M199.3,21.5c0,0-0.7-2.8,2.1-2.1C201.4,19.4,199.5,19.3,199.3,21.5z"/>
<path class="st1" d="M200.5,23.6c0,0,2.8,1.4,3.2-1.6c0.1-1-1,0.4-1.5,0.7C201.7,22.9,199.8,22.9,200.5,23.6z"/>
<path class="st0" d="M178.6,35.2c1.2,2.7,0.1,2.9-1.1,3.6c-1.1,0.8-2.5,0.4-3.1-0.8c-0.5-1.2,0-2.7,1.1-3.6
	C177.4,32.6,178,34,178.6,35.2z"/>
<path class="st2" d="M175.6,34.8c0,0,1.8-2,2.7,0.5C178.3,35.3,177.4,33.8,175.6,34.8z"/>
<path class="st1" d="M174.6,36.8c0,0,0.4,2.9,2.9,1.6c0.8-0.4-0.8-0.6-1.3-0.8C175.7,37.4,174.8,35.9,174.6,36.8z"/>
<path class="st0" d="M170.5,25.1c2.6,2.7,1.3,3.4,0.3,4.8c-1,1.4-2.8,1.6-4,0.3c-1.2-1.2-1.1-3.2-0.3-4.8
	C168,22.5,169.3,23.9,170.5,25.1z"/>
<path class="st2" d="M166.8,25.9c0,0,1.3-3.2,3.5-0.6C170.3,25.3,168.5,23.9,166.8,25.9z"/>
<path class="st1" d="M166.4,28.7c0,0,1.7,3.3,4.2,0.7c0.8-0.9-1.3-0.4-1.9-0.4C168.1,28.9,166.3,27.5,166.4,28.7z"/>
<path class="st0" d="M206,77.6c2.1,2.1,1,2.7,0.2,3.8c-0.8,1.1-2.2,1.2-3.2,0.3c-0.9-1-0.9-2.5-0.2-3.8
	C204,75.6,205.1,76.7,206,77.6z"/>
<path class="st2" d="M203.1,78.3c0,0,1-2.5,2.8-0.5C205.9,77.8,204.5,76.7,203.1,78.3z"/>
<path class="st1" d="M202.8,80.5c0,0,1.4,2.6,3.3,0.5c0.6-0.7-1-0.3-1.5-0.3C204.1,80.7,202.7,79.5,202.8,80.5z"/>
<path class="st0" d="M225.3,76.6c3.6,1.5,2.7,2.7,2.3,4.4c-0.4,1.8-2,2.7-3.7,2c-1.6-0.7-2.4-2.6-2.3-4.4
	C221.8,75.2,223.6,76,225.3,76.6z"/>
<path class="st2" d="M222.1,78.9c0,0-0.1-3.6,3.1-2C225.2,76.9,222.9,76.3,222.1,78.9z"/>
<path class="st1" d="M223,81.8c0,0,3.1,2.4,4.3-1.1c0.4-1.1-1.4,0.2-2,0.4C224.6,81.3,222.3,80.7,223,81.8z"/>
<path class="st1" d="M124.9,88.7c0,0,1.4,2.2,3.3,0.4c0.6-0.6-1-0.2-1.5-0.3C126.2,88.8,124.8,87.9,124.9,88.7z"/>
<path class="st1" d="M126.9,28.8c0,0,3-1.3,1.2-4.1c-0.6-0.8-0.5,1.2-0.6,1.8C127.3,27.2,125.9,28.8,126.9,28.8z"/>
<path class="st1" d="M141.2,28.1c0,0,0.8,2.5,3,2.4s2.9-0.8,3.1-2.2s-1.3,0-2,0.2c-0.7,0.2-2.4-1.7-3.7-1.4
	C140.4,27.4,141.2,28.1,141.2,28.1z"/>
<path class="st0" d="M212.9,26.9c-0.6-2.1,1.8-3.9,3.9-3.9c2.2,0,3.9-0.9,3.9,3.9c-0.2,4.1-1.8,3.9-3.9,3.9"/>
<path class="st0" d="M216.8,30.8c-2.2,0-3.3-1.7-3.9-3.9"/>
<path class="st2" d="M217.7,23.5c0,0,2.4-0.5,2.4,2.5C220.1,26,219.6,23.9,217.7,23.5z"/>
<path class="st1" d="M217,30.3c2.2-0.1,2.9-0.8,3.1-2.2c0.2-1.3-1.3,0-2,0.2c-0.7,0.2-2.4-1.7-3.7-1.4c-1.2,0.3-0.5,1-0.5,1
	S214.8,30.4,217,30.3"/>
<path class="st0" d="M212.9,26.9c-0.6-2.1,1.8-3.9,3.9-3.9c2.2,0,3.9-0.9,3.9,3.9c-0.2,4.1-1.8,3.9-3.9,3.9"/>
<path class="st2" d="M217.7,23.5c0,0,2.4-0.5,2.4,2.5C220.1,26,219.6,23.9,217.7,23.5z"/>
<path class="st1" d="M217,30.3c2.2-0.1,2.9-0.8,3.1-2.2c0.2-1.3-1.3,0-2,0.2c-0.7,0.2-2.4-1.7-3.7-1.4c-1.2,0.3-0.5,1-0.5,1
	S214.8,30.4,217,30.3"/>
<path class="st0" d="M220.9,54.4c-0.6-2.1,1.8-3.9,3.9-3.9c2.2,0,3.9-0.9,3.9,3.9c-0.2,4.1-1.8,3.9-3.9,3.9"/>
<path class="st0" d="M224.9,58.3c-2.2,0-3.3-1.7-3.9-3.9"/>
<path class="st2" d="M225.8,51c0,0,2.4-0.5,2.4,2.5C228.2,53.4,227.7,51.4,225.8,51z"/>
<path class="st1" d="M225.1,57.8c2.2-0.1,2.9-0.8,3.1-2.2c0.2-1.3-1.3,0-2,0.2c-0.7,0.2-2.4-1.7-3.7-1.4c-1.2,0.3-0.5,1-0.5,1
	S222.9,57.9,225.1,57.8"/>
<path class="st0" d="M220.9,54.4c-0.6-2.1,1.8-3.9,3.9-3.9c2.2,0,3.9-0.9,3.9,3.9c-0.2,4.1-1.8,3.9-3.9,3.9"/>
<path class="st2" d="M225.8,51c0,0,2.4-0.5,2.4,2.5C228.2,53.4,227.7,51.4,225.8,51z"/>
<path class="st1" d="M225.1,57.8c2.2-0.1,2.9-0.8,3.1-2.2c0.2-1.3-1.3,0-2,0.2c-0.7,0.2-2.4-1.7-3.7-1.4c-1.2,0.3-0.5,1-0.5,1
	S222.9,57.9,225.1,57.8"/>
<path class="st0" d="M179.5,28.5c-2.2,0-3.3-1.7-3.9-3.9c-0.6-2.1,1.8-3.9,3.9-3.9c2.2,0,3.9-0.9,3.9,3.9
	C183.2,28.7,181.6,28.5,179.5,28.5"/>
<path class="st2" d="M180.4,21.1c0,0,2.4-0.5,2.4,2.5C182.8,23.6,182.2,21.5,180.4,21.1z"/>
<path class="st1" d="M176.6,25.6c0,0,0.8,2.5,3,2.4c2.2-0.1,2.9-0.8,3.1-2.2c0.2-1.3-1.3,0-2,0.2c-0.7,0.2-2.4-1.7-3.7-1.4
	C175.8,24.9,176.6,25.6,176.6,25.6z"/>
<path class="st1" d="M135.7,87.8c0,0,0.6,2.1,2.2,2c1.6-0.1,2.2-0.7,2.3-1.9c0.2-1.1-1,0-1.5,0.1c-0.5,0.1-1.8-1.5-2.7-1.2
	C135.1,87.2,135.7,87.8,135.7,87.8z"/>
<path class="st1" d="M111.1,33.4c0,0,0.8,2.5,3,2.4c2.2-0.1,2.9-0.8,3.1-2.2c0.2-1.3-1.3,0-2,0.2c-0.7,0.2-2.4-1.7-3.7-1.4
	C110.3,32.7,111.1,33.4,111.1,33.4z"/>
<path class="st1" d="M156.2,31.4c0,0-0.2,1.3,1,2s2.1,1,3.1-0.3s0.1-0.8-0.4-0.9s-1.9-0.5-2.3-0.8S156.4,30.9,156.2,31.4z"/>
<path class="st1" d="M146.6,87.9c0,0,1.4,2.2,3.3,0.4c0.6-0.6-1-0.2-1.5-0.3C147.9,88,146.5,87.1,146.6,87.9z"/>
<path class="st0" d="M199,88.2c-2.7,0.1-2.3-0.9-2.3-2.2c0-1.2,0.9-2.3,2.2-2.3c1.2,0,2,1,2.3,2.2C201.6,88.1,200.2,88.2,199,88.2z"
	/>
<path class="st2" d="M200.8,85.9c0,0,0.7,2.2-1.8,2.1C199,88,200.6,87.7,200.8,85.9z"/>
<path class="st1" d="M199.7,84.3c0,0-2.5-0.7-2.7,1.9c-0.1,0.8,0.9-0.5,1.3-0.8C198.6,85.1,200.3,84.8,199.7,84.3z"/>
<path class="st0" d="M180.2,81.1c2.1,1.8,1,2.2,0.2,3.2c-0.8,0.9-2.2,1-3.2,0.2c-0.9-0.8-0.9-2.1-0.2-3.2
	C178.2,79.3,179.3,80.3,180.2,81.1z"/>
<path class="st2" d="M177.3,81.6c0,0,1-2.1,2.8-0.4C180.1,81.2,178.7,80.3,177.3,81.6z"/>
<path class="st1" d="M177,83.5c0,0,1.4,2.2,3.3,0.4c0.6-0.6-1-0.2-1.5-0.3C178.3,83.6,176.9,82.7,177,83.5z"/>
<path class="st0" d="M220.7,87.6c1.5,1.3,0.7,1.6,0.2,2.3c-0.6,0.7-1.6,0.7-2.3,0.2c-0.7-0.6-0.6-1.5-0.2-2.3
	C219.3,86.4,220,87.1,220.7,87.6z"/>
<path class="st2" d="M218.6,88c0,0,0.7-1.5,2-0.3C220.6,87.7,219.6,87.1,218.6,88z"/>
<path class="st1" d="M218.4,89.4c0,0,1,1.6,2.4,0.3c0.4-0.4-0.7-0.2-1.1-0.2C219.3,89.4,218.3,88.8,218.4,89.4z"/>
<path class="st1" d="M159.9,84.2c-0.2-0.1-0.4-0.1-0.5-0.2c-0.7-0.3-2.3-2.3-2.5-1.1c0,0,0.9,3.6,4.3,2.3c0.8-0.2,1.8-0.5,2.1-0.9
	C163.9,83.8,161.2,84.4,159.9,84.2z"/>
<path class="st2" d="M85,33.7c0,0,0.5,3.6-2.8,4.5C79,39.1,85.3,34.9,85,33.7z"/>
<polygon class="st2" points="206.3,44.4 200.9,38.8 184.6,22.2 179.2,16.7 178.4,21.6 182.1,25.3 198.3,41.9 201.9,45.7 "/>
<polygon class="st2" points="167.1,12.2 196.6,42.5 164.2,16.1 "/>
<ellipse transform="matrix(0.1426 -0.9898 0.9898 0.1426 129.4906 173.0188)" class="st2" cx="164.6" cy="11.8" rx="12.3" ry="11.1"/>
<ellipse transform="matrix(0.1427 -0.9898 0.9898 0.1427 129.4648 173.0131)" class="st2" cx="164.6" cy="11.8" rx="6.1" ry="5.5"/>
<polygon class="st7" points="206.5,45.9 201.1,40.4 184.8,23.8 179.4,18.2 179.6,21.8 183.3,25.5 199.5,42.1 203.2,45.8 "/>
<polygon class="st7" points="168.3,12.4 197.8,42.7 165.4,16.2 "/>
<ellipse transform="matrix(0.1427 -0.9898 0.9898 0.1427 129.2261 172.9643)" class="st7" cx="164.5" cy="11.9" rx="9.5" ry="8.5"/>
<ellipse transform="matrix(0.1426 -0.9898 0.9898 0.1426 129.2406 172.9648)" class="st2" cx="164.5" cy="11.9" rx="4.7" ry="4.2"/>
<path class="st0" d="M190.1,83.4c-2.2,0-3.3-1.7-3.9-3.9c-0.6-2.1,1.8-3.9,3.9-3.9c2.2,0,3.9-0.9,3.9,3.9
	C193.8,83.6,192.3,83.4,190.1,83.4"/>
<path class="st2" d="M191,76.1c0,0,2.4-0.5,2.4,2.5C193.5,78.5,192.9,76.5,191,76.1z"/>
<path class="st1" d="M187.3,80.5c0,0,0.8,2.5,3,2.4s2.9-0.8,3.1-2.2c0.2-1.3-1.3,0-2,0.2c-0.7,0.2-2.4-1.7-3.7-1.4
	C186.5,79.8,187.3,80.5,187.3,80.5z"/>
<path class="st0" d="M230.8,42.7c2.7,0.8,2.1,1.7,1.9,3c-0.2,1.3-1.3,2-2.5,1.7c-1.2-0.4-1.9-1.7-1.9-3
	C228.2,41.9,229.6,42.3,230.8,42.7z"/>
<path class="st2" d="M228.7,44.5c0,0-0.3-2.5,2.1-1.6C230.8,42.9,229.1,42.6,228.7,44.5z"/>
<path class="st1" d="M229.5,46.5c0,0,2.3,1.5,3-1.1c0.2-0.8-1,0.2-1.4,0.4C230.7,46,229,45.8,229.5,46.5z"/>
</svg>
