<?xml version="1.0" encoding="utf-8"?>
<!-- Generator: Adobe Illustrator 21.1.0, SVG Export Plug-In . SVG Version: 6.00 Build 0)  -->
<!DOCTYPE svg PUBLIC "-//W3C//DTD SVG 1.1//EN" "http://www.w3.org/Graphics/SVG/1.1/DTD/svg11.dtd">
<svg version="1.1" id="Layer_1" xmlns="http://www.w3.org/2000/svg" xmlns:xlink="http://www.w3.org/1999/xlink" x="0px" y="0px"
	 viewBox="0 0 363 195" style="enable-background:new 0 0 363 195;" xml:space="preserve">
<style type="text/css">
	.st0{fill:#F29100;}
	.st1{fill:#12182A;}
	.st2{fill:#FFFFFF;stroke:#FFFFFF;stroke-width:0.8578;stroke-miterlimit:10;}
</style>
<path class="st0" d="M156.9,154.9c-5.4,4.2-11.4,8.2-18.2,11.9c-8,4.5-12.5,7.3-22.3,11.9c-4.2,2-8.7,3.2-13,4.5h241.5
	c7.8,0,14.2-6.3,14.2-14.2v0c0-7.8-6.3-14.2-14.2-14.2H156.9z"/>
<path class="st1" d="M77.1,43.1c4.9-2.5,11.4-5.4,19.3-8.8c8-3.4,16.6-6.6,25.9-9.5c9.3-2.9,19-5.4,29-7.5c10-2.1,19.4-3.1,28.3-3.1
	c8.9,0,16.9,1.4,24,4.2c7.1,2.8,12.4,7.5,16,14.1c1.5,2.9,1.9,5.8,0.9,8.5c-0.9,2.7-2.7,5.3-5.2,7.6c-2.5,2.4-5.6,4.6-9.1,6.5
	c-3.6,1.9-7.2,3.6-10.9,5.1c-3.7,1.5-7.2,2.6-10.4,3.4c-3.2,0.8-5.7,1.2-7.4,1.2c-3.9,0.2-7.2-0.3-10-1.3c-2.8-1-4.9-2.2-6.3-3.5
	c-1.4-1.3-1.9-2.6-1.6-3.8c0.3-1.2,1.6-2,3.9-2.3c1.9-0.3,4.4-0.9,7.8-1.7c3.3-0.8,6.9-1.9,10.7-3.1c3.8-1.2,7.5-2.7,11.2-4.3
	c3.7-1.6,6.9-3.2,9.6-4.9c2.7-1.6,4.6-3.3,5.7-5c1.1-1.7,0.9-3.3-0.5-4.9c-3.2-3.2-8.3-5-15.1-5.2c-6.8-0.2-14.7,0.7-23.6,2.8
	c-9,2.1-18.6,5.1-29,9C130,40.5,119.5,45,109,50.1c-10.5,5.1-20.7,10.5-30.5,16.3C68.8,72.2,59.9,78,52.1,83.9
	c-7.9,5.9-14.4,11.6-19.5,17.1c-5.1,5.6-8.1,10.5-9,14.8c-0.6,2.9,0.2,4.6,2.3,5.1c2.2,0.5,4.8,0.4,7.9-0.1c3.1-0.5,6.2-1.3,9.4-2.4
	c3.2-1.1,5.4-1.8,6.8-2.1c6-1.5,12.3-3.3,18.9-5.2c6.6-1.9,13.2-3.7,19.8-5.3c6.6-1.6,13.2-3,19.8-4.2c6.6-1.2,13-1.7,19.3-1.5
	c3.7,0.2,7.8,1.3,12.2,3.4c4.4,2.1,8.3,4.8,11.6,8.2c3.3,3.4,5.6,7.3,6.8,11.7c1.2,4.4,0.5,9-2.1,13.8c-2.9,5.1-7.5,10.2-13.5,15.3
	c-6.1,5.1-13.2,9.9-21.2,14.4c-8,4.5-16.6,8.5-25.7,11.9c-9.1,3.5-18.1,6.2-27,8.1c-8.9,1.9-17.3,2.9-25.1,3
	c-7.9,0.1-14.6-1.1-20.2-3.6c-4-1.9-7.5-4.7-10.3-8.5c-2.9-3.8-4.7-7.8-5.7-12c-0.9-4.2-0.6-8.3,0.9-12.3c1.5-3.9,4.6-7.1,9.3-9.4
	c1.5-0.6,3.2-0.6,5.1,0c1.9,0.6,3.4,1.5,4.7,2.7c1.3,1.2,2.2,2.4,2.5,3.7c0.4,1.3,0,2.4-1.3,3.1c-5.6,3.6-9.2,6.6-10.9,9.3
	c-1.7,2.6-2,4.8-0.9,6.5c1.1,1.7,3.2,3,6.5,3.8c3.2,0.8,7,1.3,11.3,1.3c4.3,0,8.9-0.3,13.7-0.9c4.8-0.6,9.3-1.6,13.7-3
	c13.1-4,26.1-9.1,38.8-15.4c12.7-6.3,24.9-14.7,36.5-25.4c5.7-5.2,8.5-9.1,8.2-11.5c-0.2-2.4-2.5-3.7-6.7-4.1
	c-4.2-0.3-10,0.2-17.3,1.4c-7.3,1.2-15,2.7-23.3,4.5c-8.3,1.8-16.6,3.6-24.9,5.4c-8.3,1.9-15.6,3.2-21.8,4.2
	c-2.9,0.5-6.1,0.7-9.6,0.6c-3.5-0.1-6.9-0.4-10.2-0.9c-3.3-0.5-6.5-1.4-9.5-2.5c-3-1.2-5.5-2.7-7.5-4.5c-6-5.4-8.3-11.5-6.7-18.3
	c1.5-6.8,5.5-13.7,11.9-20.8c6.4-7.1,14.7-14.1,24.8-21.1C55.1,55.2,65.8,48.9,77.1,43.1z"/>
<path class="st1" d="M240.1,111.5c2.2-2,3.9-2.5,5.2-1.5c1.3,1,0.9,2.8-1.3,5.4c-1.2,1.4-2.9,3.4-5.1,6.1c-2.2,2.7-4.4,5.4-6.7,8.2
	c-2.3,2.8-4.6,5.3-6.9,7.4c-2.3,2.2-4.2,3.4-5.8,3.7c-2,0.5-4.8,0.2-8.5-0.9c-3.6-1.1-6.8-2.7-9.4-4.9c-2,1.4-3.9,2.7-5.8,4.1
	c-1.9,1.3-3.7,2.3-5.6,2.9c-1.7,0.3-3.8,0.2-6.3-0.2c-2.5-0.5-4.9-1.3-7.3-2.7c-2.4-1.3-4.5-2.9-6.4-4.7c-1.9-1.9-3.1-4-3.7-6.5
	c-0.6-2.6,0-5.8,2-9.4c1.9-3.6,4.3-7.1,7.1-10.3c2.8-3.2,5.7-6.1,8.7-8.5c3-2.4,5.4-3.7,7.1-3.8c1.1-0.2,2.4-0.1,4.1,0.2
	c1.6,0.3,3.2,0.9,4.9,1.6c1.6,0.8,3.1,1.7,4.4,2.8c1.3,1.1,2.2,2.3,2.7,3.7c2.2-1.9,4-2.7,5.6-2.5c1.2,0.3,2.5,0.7,3.9,1.2
	c1.4,0.5,2.7,1,3.8,1.6c1.2,0.6,2.1,1.4,2.9,2.3c0.8,0.9,1.1,1.9,0.9,3c0,1.2-0.6,2.9-1.9,5c-1.2,2.1-2.5,4.2-3.9,6.4
	c-1.4,2.2-2.5,4.1-3.5,5.8c-0.9,1.7-1.1,2.8-0.5,3.2c0.5,0.3,1.5,0,3.1-1c1.6-1,3.6-2.4,5.9-4.2c2.3-1.8,4.9-3.8,7.8-6.1
	C234.5,116.6,237.4,114.1,240.1,111.5z M182,133.7c1.7,0.9,3.8,0.4,6.4-1.5c2.5-1.9,5-4.4,7.3-7.3c2.3-2.9,4.3-5.9,5.9-9
	c1.6-3.1,2.4-5.4,2.4-6.9c-0.6-1.4-1.7-1.8-3.2-1.2c-1.5,0.6-3.2,1.8-5.1,3.5c-1.9,1.7-3.7,3.8-5.7,6.3c-1.9,2.5-3.6,4.8-5,7.1
	c-1.4,2.2-2.4,4.2-3.1,6C181.2,132.4,181.2,133.4,182,133.7z"/>
<path class="st1" d="M286,111.5c3.6-2.2,5.7-2.8,6.5-1.9c0.8,0.9-0.1,2.6-2.5,5.1c-2.6,2.5-5.4,5-8.3,7.5c-2.9,2.5-5.8,4.9-8.7,7.2
	c-2.9,2.2-5.7,4.1-8.5,5.7c-2.8,1.5-5.3,2.5-7.6,3c-2,0.3-4.3,0.3-6.9,0.1c-2.6-0.2-5.1-0.9-7.4-2c-2.3-1.1-4.2-2.6-5.8-4.5
	c-1.5-1.9-2.3-4.4-2.3-7.5c0-1.9,1.4-5.7,4.3-11.6c2.9-5.9,6.6-12.7,11.3-20.4c4.7-7.7,10-15.9,16-24.7c5.9-8.7,12.1-16.9,18.5-24.7
	c6.4-7.7,12.7-14.4,18.9-20.2c6.2-5.7,11.8-9.4,16.9-11.1c1.5-0.6,3.7-0.8,6.5-0.7c2.8,0.2,5.5,0.7,8.1,1.5c2.6,0.9,4.9,2.1,6.8,3.7
	c1.9,1.6,2.9,3.5,2.9,5.7c0,2.5-1.4,5.9-4.2,10.2c-2.8,4.3-6.5,9.1-11.1,14.5c-4.6,5.3-10,11-16,17.1c-6,6.1-12.4,12.2-19,18.2
	c-6.6,6-13.3,11.8-19.9,17.3c-6.6,5.5-12.8,10.3-18.5,14.5c-1.7,2.3-3.1,4.5-4.2,6.5c-0.9,1.7-1.7,3.4-2.2,5
	c-0.5,1.6-0.4,2.7,0.3,3.4c0.5,0.5,2.3,0,5.6-1.4c3.2-1.4,6.8-3.1,10.8-5.1c3.9-2,7.8-4.1,11.6-6.1
	C281.5,113.7,284.3,112.2,286,111.5z M332.8,23c-0.6-0.8-2-0.3-4.3,1.4c-2.2,1.7-5,4.2-8.2,7.6c-3.2,3.4-6.8,7.4-10.7,11.9
	c-3.9,4.6-7.8,9.2-11.8,14c-9.4,11.4-19.9,24.6-31.5,39.6c2-1.5,5.2-4.2,9.5-8.1c4.3-3.9,9.1-8.4,14.2-13.5
	c5.2-5.2,10.5-10.6,16-16.2c5.5-5.6,10.3-11,14.6-16c4.2-5,7.6-9.4,10-13.2C333,26.7,333.7,24.2,332.8,23z"/>
<path class="st1" d="M294.7,102.5c-1.1,0.8-2.2,0.9-3.3,0.3c-1.1-0.5-1.5-1.6-1.3-3.1c0.1-0.7,0.6-2.1,1.4-4.2
	c0.8-2.1,1.7-4.3,2.8-6.6c1-2.3,2.1-4.4,3.3-6.2c1.1-1.9,2.1-2.9,2.9-3.1c0.8-0.1,1.7,0,2.8,0.4c1.1,0.4,2.1,0.9,3.1,1.6
	c1,0.7,1.8,1.5,2.4,2.3c0.6,0.8,0.8,1.5,0.7,2.1c0,0.7-0.6,1.8-1.9,3.4c-1.3,1.6-2.7,3.4-4.4,5.2c-1.7,1.8-3.4,3.5-5,5
	C296.5,101.1,295.3,102,294.7,102.5z"/>
<path class="st1" d="M319.1,111.5c3.2-0.5,6.3-0.5,9.1-0.1c2.9,0.4,5.4,1,7.6,2c2.2,0.9,4,2.2,5.3,3.7c1.3,1.5,2,3.3,2,5.3
	c0,2-0.7,4.4-2,7.2c-1.3,2.8-3,5.5-5.1,8.1c-2.1,2.6-4.5,5-7.2,7.2c-2.7,2.2-5.3,3.6-7.8,4.2c-2.6,0.6-5.2,0.5-7.6-0.2
	c-2.5-0.8-4.7-1.9-6.6-3.5c-1.9-1.5-3.5-3.3-4.7-5.2c-1.2-1.9-1.9-3.7-1.9-5.2c0-1.1,0.4-2.3,1.3-3.7c0.9-1.4,2-2.7,3.4-4.1
	c1.4-1.3,2.9-2.5,4.6-3.7c1.7-1.2,3.4-2.1,5.1-2.9c2.6-1.2,4.2-1.3,4.6-0.1s-0.1,2.6-1.6,4.3c-0.5,0.5-1.2,1.3-2.2,2.4
	c-1,1.2-2,2.3-3,3.5c-1,1.2-1.9,2.3-2.5,3.4c-0.7,1.1-0.8,1.9-0.3,2.3c0.8,0.6,2.1,0.3,4.1-1c1.9-1.3,3.9-3,5.8-5.1
	c1.9-2.1,3.6-4.2,5.1-6.3c1.5-2.1,2.1-3.7,2-4.7c-0.3-1.1-1.4-1.6-3.2-1.5c-1.9,0.1-3.9,0.2-6.3,0.2c-2.3,0.1-4.7-0.1-7.1-0.5
	c-2.4-0.4-4.2-1.5-5.4-3.4c-1.4-2-2-4.3-1.7-6.8c0.2-2.5,1-5,2.2-7.3c1.2-2.3,2.8-4.3,4.7-5.9c1.9-1.6,3.8-2.6,5.7-2.9
	c1.2-0.2,2.5,0.1,3.9,0.7c1.4,0.6,2.7,1.4,3.8,2.4c1.2,1,2.1,2.1,2.9,3.4c0.8,1.2,1.2,2.4,1.2,3.5c0,2.2-1,3.9-3,5.3
	C322.2,107.8,320.5,109.5,319.1,111.5z"/>
<path class="st2" d="M162.6,163.7h8.6v1.3H164v4.3h6.5v1.2H164v5.2h-1.4V163.7z"/>
<path class="st2" d="M191.1,163.7h1.4v12h-1.4V163.7z"/>
<path class="st2" d="M216.3,165h-4v-1.3h9.4v1.3h-4v10.8h-1.4V165z"/>
<path class="st2" d="M241.4,163.7h1.3l7.6,9.6v-9.6h1.3v12h-1.1l-7.8-9.8v9.8h-1.3V163.7z"/>
<path class="st2" d="M272.1,163.7h8.7v1.2h-7.3v4.1h6.6v1.2h-6.6v4.2h7.4v1.2h-8.8V163.7z"/>
<path class="st2" d="M304.9,175.9c-1,0-1.8-0.2-2.6-0.5c-0.8-0.3-1.6-0.8-2.3-1.4l0.8-1c0.6,0.6,1.3,1,1.9,1.3
	c0.6,0.3,1.4,0.4,2.2,0.4c0.8,0,1.5-0.2,1.9-0.6c0.5-0.4,0.7-0.9,0.7-1.5v0c0-0.3,0-0.5-0.1-0.7c-0.1-0.2-0.3-0.4-0.5-0.6
	c-0.2-0.2-0.5-0.3-1-0.5c-0.4-0.1-0.9-0.3-1.6-0.4c-0.7-0.1-1.3-0.3-1.8-0.5c-0.5-0.2-0.9-0.4-1.3-0.7c-0.3-0.3-0.6-0.6-0.7-1
	c-0.2-0.4-0.2-0.8-0.2-1.3v0c0-0.5,0.1-0.9,0.3-1.3c0.2-0.4,0.5-0.7,0.8-1c0.4-0.3,0.8-0.5,1.3-0.7c0.5-0.2,1-0.2,1.6-0.2
	c0.9,0,1.6,0.1,2.3,0.4c0.7,0.2,1.3,0.6,1.9,1.1l-0.8,1c-0.6-0.5-1.1-0.8-1.7-1c-0.6-0.2-1.2-0.3-1.8-0.3c-0.8,0-1.4,0.2-1.9,0.6
	c-0.5,0.4-0.7,0.8-0.7,1.4v0c0,0.3,0,0.5,0.1,0.8c0.1,0.2,0.3,0.4,0.5,0.6c0.2,0.2,0.6,0.4,1,0.5c0.4,0.2,1,0.3,1.6,0.4
	c1.3,0.3,2.3,0.7,3,1.2c0.6,0.5,1,1.2,1,2.2v0c0,0.5-0.1,1-0.3,1.4c-0.2,0.4-0.5,0.8-0.8,1.1c-0.4,0.3-0.8,0.5-1.3,0.7
	C306.1,175.8,305.5,175.9,304.9,175.9z"/>
<path class="st2" d="M333.1,175.9c-1,0-1.8-0.2-2.6-0.5c-0.8-0.3-1.6-0.8-2.3-1.4l0.8-1c0.6,0.6,1.3,1,1.9,1.3
	c0.6,0.3,1.4,0.4,2.2,0.4c0.8,0,1.5-0.2,1.9-0.6c0.5-0.4,0.7-0.9,0.7-1.5v0c0-0.3,0-0.5-0.1-0.7c-0.1-0.2-0.3-0.4-0.5-0.6
	c-0.2-0.2-0.5-0.3-1-0.5c-0.4-0.1-0.9-0.3-1.6-0.4c-0.7-0.1-1.3-0.3-1.8-0.5c-0.5-0.2-0.9-0.4-1.3-0.7c-0.3-0.3-0.6-0.6-0.7-1
	c-0.2-0.4-0.2-0.8-0.2-1.3v0c0-0.5,0.1-0.9,0.3-1.3c0.2-0.4,0.5-0.7,0.8-1c0.4-0.3,0.8-0.5,1.3-0.7c0.5-0.2,1-0.2,1.6-0.2
	c0.9,0,1.6,0.1,2.3,0.4c0.7,0.2,1.3,0.6,1.9,1.1l-0.8,1c-0.6-0.5-1.1-0.8-1.7-1c-0.6-0.2-1.2-0.3-1.8-0.3c-0.8,0-1.4,0.2-1.9,0.6
	c-0.5,0.4-0.7,0.8-0.7,1.4v0c0,0.3,0,0.5,0.1,0.8c0.1,0.2,0.3,0.4,0.5,0.6c0.2,0.2,0.6,0.4,1,0.5c0.4,0.2,1,0.3,1.6,0.4
	c1.3,0.3,2.3,0.7,3,1.2c0.6,0.5,1,1.2,1,2.2v0c0,0.5-0.1,1-0.3,1.4c-0.2,0.4-0.5,0.8-0.8,1.1c-0.4,0.3-0.8,0.5-1.3,0.7
	C334.2,175.8,333.7,175.9,333.1,175.9z"/>
</svg>
