<?xml version="1.0" encoding="utf-8"?>
<!-- Generator: Adobe Illustrator 21.1.0, SVG Export Plug-In . SVG Version: 6.00 Build 0)  -->
<!DOCTYPE svg PUBLIC "-//W3C//DTD SVG 1.1//EN" "http://www.w3.org/Graphics/SVG/1.1/DTD/svg11.dtd">
<svg version="1.1" id="Layer_1" xmlns="http://www.w3.org/2000/svg" xmlns:xlink="http://www.w3.org/1999/xlink" x="0px" y="0px"
	 viewBox="0 0 154 142" style="enable-background:new 0 0 154 142;" xml:space="preserve">
<style type="text/css">
	.st0{fill:#283D5E;}
	.st1{fill:#7EBC60;stroke:#5FA947;stroke-width:3;stroke-miterlimit:10;}
	.st2{opacity:0.5;fill:#5FA949;}
	.st3{opacity:0.25;fill:#FFFFFF;}
	.st4{fill:#EA862C;stroke:#DC7217;stroke-width:3;stroke-miterlimit:10;}
	.st5{opacity:0.6;fill:#DC7217;}
	.st6{opacity:0.12;fill:#FFFFFF;}
	.st7{fill:#FFFFFF;stroke:#FFFFFF;stroke-width:7;stroke-miterlimit:10;}
	.st8{fill:#3BA8DF;stroke:#0895BD;stroke-width:3;stroke-miterlimit:10;}
	.st9{opacity:0.4;fill:#0391B8;}
	.st10{opacity:0.16;fill:#FFFFFF;}
</style>
<path class="st0" d="M18.3,128.4c0-1-0.3-1.8-0.9-2.4c-0.6-0.7-1.4-1.3-2.4-1.8c-1-0.6-2-1.1-3-1.7c-1.1-0.6-2.1-1.3-3-2.2
	c-1-0.9-1.7-1.9-2.4-3.1c-0.6-1.2-0.9-2.8-0.9-4.6c0-3.2,0.9-5.6,2.6-7.4c1.7-1.7,4.3-2.6,7.6-2.6c2,0,3.9,0.2,5.7,0.6
	c1.8,0.4,3.2,1,4.2,1.6l-1.9,6.3c-0.9-0.4-1.9-0.7-3.1-1.1c-1.2-0.3-2.4-0.5-3.6-0.5c-2.2,0-3.3,0.9-3.3,2.8c0,0.9,0.3,1.6,0.9,2.1
	c0.6,0.6,1.4,1.1,2.4,1.7c1,0.5,2,1.1,3,1.7c1.1,0.6,2.1,1.3,3,2.2c1,0.9,1.7,2,2.4,3.2c0.6,1.3,0.9,2.8,0.9,4.7
	c0,3.1-1,5.7-2.9,7.6c-1.9,1.9-4.7,2.9-8.5,2.9c-1.9,0-3.7-0.2-5.5-0.7c-1.8-0.5-3.2-1-4.3-1.8l2.2-6.5c1,0.5,2.1,1,3.3,1.4
	c1.2,0.4,2.6,0.6,3.9,0.6c1,0,1.9-0.2,2.6-0.7C18,130.3,18.3,129.5,18.3,128.4z"/>
<path class="st0" d="M50.3,135c-1.1,1-2.7,1.8-4.6,2.5c-2,0.6-4,1-6.1,1c-2.4,0-4.4-0.4-6.1-1.2c-1.7-0.8-3.1-2-4.2-3.5
	c-1.1-1.5-1.9-3.4-2.4-5.6c-0.5-2.2-0.8-4.7-0.8-7.5c0-6.1,1.2-10.7,3.6-13.6c2.4-2.9,5.8-4.4,10.1-4.4c1.5,0,2.9,0.2,4.2,0.6
	c1.4,0.4,2.6,1.2,3.6,2.2c1.1,1,1.9,2.4,2.6,4.1c0.7,1.7,1,3.9,1,6.4c0,1-0.1,2.1-0.2,3.2c-0.1,1.1-0.3,2.4-0.5,3.7H33.9
	c0.1,2.8,0.7,5,1.8,6.5c1.1,1.5,2.9,2.2,5.3,2.2c1.5,0,2.8-0.2,4-0.7c1.2-0.5,2.1-0.9,2.8-1.4L50.3,135z M39.6,109.4
	c-1.8,0-3.1,0.7-3.9,2.1c-0.9,1.4-1.4,3.3-1.5,5.8h9.5c0.1-2.6-0.1-4.6-0.8-5.9C42.2,110.1,41.1,109.4,39.6,109.4z"/>
<path class="st0" d="M50.4,103.4h3.7V97l8.1-2.5v8.9h6.6v7.2h-6.6v14.9c0,2,0.2,3.3,0.6,4.2c0.4,0.8,1.1,1.2,2.1,1.2
	c0.7,0,1.3-0.1,1.8-0.2c0.5-0.1,1.1-0.3,1.8-0.6l1,6.5c-1,0.5-2.2,0.9-3.5,1.3c-1.3,0.3-2.7,0.5-4.2,0.5c-2.6,0-4.5-0.8-5.8-2.2
	c-1.3-1.5-1.9-4-1.9-7.6v-17.9h-3.7V103.4z"/>
<path class="st0" d="M66.4,103.4h3.7V97l8.1-2.5v8.9h6.6v7.2h-6.6v14.9c0,2,0.2,3.3,0.6,4.2c0.4,0.8,1.1,1.2,2.1,1.2
	c0.7,0,1.3-0.1,1.8-0.2c0.5-0.1,1.1-0.3,1.8-0.6l1,6.5c-1,0.5-2.2,0.9-3.5,1.3c-1.3,0.3-2.7,0.5-4.2,0.5c-2.6,0-4.5-0.8-5.8-2.2
	c-1.3-1.5-1.9-4-1.9-7.6v-17.9h-3.7V103.4z"/>
<path class="st0" d="M93.8,126.5c0,1.6,0.2,2.7,0.5,3.4c0.3,0.7,0.8,1,1.6,1c0.4,0,0.8,0,1.3-0.1c0.4-0.1,0.9-0.2,1.5-0.5l0.7,6.5
	c-0.5,0.4-1.5,0.7-2.8,1c-1.3,0.3-2.7,0.5-4,0.5c-2.3,0-4-0.6-5.1-1.7c-1.1-1.1-1.7-3.1-1.7-5.8v-41h8.1V126.5z"/>
<path class="st0" d="M121.7,135c-1.1,1-2.7,1.8-4.6,2.5c-2,0.6-4,1-6.1,1c-2.4,0-4.4-0.4-6.1-1.2c-1.7-0.8-3.1-2-4.2-3.5
	c-1.1-1.5-1.9-3.4-2.4-5.6c-0.5-2.2-0.8-4.7-0.8-7.5c0-6.1,1.2-10.7,3.6-13.6c2.4-2.9,5.8-4.4,10.1-4.4c1.5,0,2.9,0.2,4.2,0.6
	c1.4,0.4,2.6,1.2,3.6,2.2c1.1,1,1.9,2.4,2.6,4.1c0.7,1.7,1,3.9,1,6.4c0,1-0.1,2.1-0.2,3.2c-0.1,1.1-0.3,2.4-0.5,3.7h-16.7
	c0.1,2.8,0.7,5,1.8,6.5c1.1,1.5,2.9,2.2,5.3,2.2c1.5,0,2.8-0.2,4-0.7c1.2-0.5,2.1-0.9,2.8-1.4L121.7,135z M111,109.4
	c-1.8,0-3.1,0.7-3.9,2.1c-0.9,1.4-1.4,3.3-1.5,5.8h9.5c0.1-2.6-0.1-4.6-0.8-5.9C113.6,110.1,112.5,109.4,111,109.4z"/>
<path class="st0" d="M148.9,125.5c0,1.9,0,3.8,0.1,5.7c0,1.9,0.2,4,0.5,6.3h-5.7l-1.1-4h-0.3c-1.5,3.2-4.2,4.8-8.1,4.8
	c-3.5,0-6.2-1.4-8.1-4.1c-2-2.7-3-7.2-3-13.3c0-6,1.1-10.6,3.2-13.7c2.1-3.1,5.3-4.7,9.5-4.7c1.1,0,2,0.1,2.7,0.2
	c0.7,0.1,1.4,0.4,2.1,0.7V89.8h8.1V125.5z M136.2,131c1.2,0,2.2-0.3,2.9-0.9c0.7-0.6,1.3-1.5,1.6-2.7v-16.1c-0.5-0.4-1-0.7-1.5-0.9
	c-0.6-0.2-1.3-0.3-2.2-0.3c-1.8,0-3.2,0.8-4.1,2.5c-0.9,1.6-1.4,4.5-1.4,8.7c0,3.1,0.4,5.5,1.1,7.2C133.5,130.1,134.6,131,136.2,131
	z"/>
<g>
	<path class="st1" d="M139.6,40.9l-3.9-3.4c-0.1-0.1-0.3-0.5-0.3-0.7v-6.5c0-1.7-1.4-3.1-3.1-3.1h-3.1c-1.4,0-2.5,0.9-2.9,2.1
		l-6-5.2c-0.6-0.5-1.4-0.8-2.2-0.8c-0.8,0-1.6,0.3-2.2,0.8L96.6,40.9c-1.3,1.1-1,2.3-0.8,2.6c0.1,0.3,0.7,1.5,2.4,1.5h2.6l3.4,16.7
		c0,1.7,1.4,3.1,3.1,3.1h6.1v-9.4h9.4v9.4h6.1c1.7,0,3.1-1.4,3.1-3.1l3.4-16.3V45h2.6c1.7,0,2.2-1.1,2.4-1.5
		C140.5,43.2,140.8,42,139.6,40.9z"/>
	<path class="st2" d="M125.1,60.9v1.3c0,0,2.2,0,3.3,0c1.1,0,1.5-1,1.8-2.6c0.3-1.6,1.2-5.4,1.2-5.4s-0.3-1-1.2,2.4
		C129.1,60,126.9,60.9,125.1,60.9z"/>
	<path class="st2" d="M106.1,60.4c0,0,0.1,2,1.7,2c1.6,0,3.1,0,3.1,0v-3.2c0,0-0.5,0-0.6,1.4C110.2,61.9,107.5,62.5,106.1,60.4z"/>
	<path class="st3" d="M123.2,30c0,0-1.2-1.1-2.9-2.8c-1.7-1.7-2.9-0.9-3.7-0.2c-0.1,0.1-0.3,0.3-0.5,0.5c-0.2,0.2-0.4,0.4-0.6,0.5
		l0,0L98.6,42c0,0,0,0-0.1,0.1c-0.9,0.9,0.2,1.1,0.2,1.1s2.7,0,3.2,0c0.1,0,0.1,0.1,0.2,0.1c0.2,0.3,0.4,1.2,0.5,1.7
		c0,0.1,0,0.3,0.1,0.4l0,0l0,0c0.3,1.8,0.7,4.2,0.7,4.3c0.2,0.9,0.3,1.7,0.4,2c0.1,0.9,2.3,3.2,2.2-1.4c-0.1-2.8,0-4.8,0.2-6.5
		c0.3-1.2,0.4-3.1,1.6-5.6c1.3-2.8,4.8-5.6,7.2-7.3c2.7-1.7,5.3-1.4,6.3-1.2c1.5,0.3,2.3,0.9,2.3,0.9L123.2,30z"/>
	
		<ellipse transform="matrix(3.120034e-02 -0.9995 0.9995 3.120034e-02 96.0305 160.6271)" class="st3" cx="130.9" cy="30.8" rx="0.8" ry="2.2"/>
	<path class="st4" d="M59,40.9l-3.9-3.4c-0.1-0.1-0.3-0.5-0.3-0.7v-6.5c0-1.7-1.4-3.1-3.1-3.1h-3.1c-1.4,0-2.5,0.9-2.9,2.1l-6-5.2
		c-0.6-0.5-1.4-0.8-2.2-0.8c-0.8,0-1.6,0.3-2.2,0.8L16.1,40.9c-1.3,1.1-1,2.3-0.8,2.6c0.1,0.3,0.7,1.5,2.4,1.5h2.6l3.4,16.7
		c0,1.7,1.4,3.1,3.1,3.1h6.1v-9.4h9.4v9.4h6.1c1.7,0,3.1-1.4,3.1-3.1l3.4-16.3V45h2.6c1.7,0,2.2-1.1,2.4-1.5
		C60,43.2,60.3,42,59,40.9z"/>
	<path class="st5" d="M44.5,60.9v1.3c0,0,2.2,0,3.3,0c1.1,0,1.5-1,1.8-2.6c0.3-1.6,1.2-5.4,1.2-5.4s-0.3-1-1.2,2.4
		C48.6,60,46.3,60.9,44.5,60.9z"/>
	<path class="st5" d="M25.5,60.4c0,0,0.1,2,1.7,2c1.6,0,3.1,0,3.1,0v-3.2c0,0-0.5,0-0.6,1.4C29.7,61.9,27,62.5,25.5,60.4z"/>
	<path class="st6" d="M42.1,30.3c0,0-1.1-1-2.7-2.6c-1.6-1.6-2.7-0.8-3.5-0.2c-0.1,0.1-0.3,0.2-0.5,0.4c-0.2,0.1-0.4,0.3-0.6,0.5
		l0,0l-15.5,13c0,0,0,0-0.1,0.1c-0.8,0.8,0.2,1,0.2,1s2.5,0,3,0c0.1,0,0.1,0.1,0.2,0.1c0.2,0.3,0.4,1.1,0.5,1.5c0,0.1,0,0.3,0.1,0.4
		l0,0l0,0c0.3,1.7,0.7,3.9,0.7,4c0.2,0.9,0.3,1.6,0.3,1.8c0.1,0.9,2.2,3,2.1-1.3c-0.1-2.6,0-4.5,0.2-6c0.3-1.1,0.4-2.9,1.5-5.2
		c1.2-2.6,4.4-5.1,6.7-6.7c2.5-1.6,4.9-1.3,5.8-1.1c1.4,0.3,2.1,0.8,2.1,0.8L42.1,30.3z"/>
	
		<ellipse transform="matrix(3.119964e-02 -0.9995 0.9995 3.119964e-02 18.009 80.1322)" class="st3" cx="50.3" cy="30.8" rx="0.8" ry="2.2"/>
	<path class="st7" d="M114.7,33l-6.5-5.7c-0.2-0.2-0.5-0.8-0.5-1.1v-11c0-2.9-2.4-5.2-5.2-5.2h-5.2c-2.3,0-4.2,1.5-5,3.5L82.1,4.8
		c-1-0.9-2.3-1.3-3.6-1.3s-2.6,0.5-3.6,1.3L42.2,33c-2.1,1.9-1.6,3.9-1.4,4.4c0.2,0.6,1.1,2.5,4,2.5h4.5L55,68
		c0,2.9,2.4,5.2,5.2,5.2h10.3V51.6h15.8v21.6h10.3c2.9,0,5.2-2.4,5.2-5.2l5.7-27.6v-0.6h4.5c2.8,0,3.8-1.9,4-2.5
		C116.3,36.8,116.8,34.8,114.7,33z"/>
	<path class="st8" d="M114.7,32.7l-6.5-5.7c-0.2-0.2-0.5-0.8-0.5-1.1V15c0-2.9-2.4-5.2-5.2-5.2h-5.2c-2.3,0-4.2,1.5-5,3.5L82.1,4.5
		c-1-0.9-2.3-1.3-3.6-1.3s-2.6,0.5-3.6,1.3L42.2,32.7c-2.1,1.9-1.6,3.9-1.4,4.4c0.2,0.6,1.1,2.5,4,2.5h4.5L55,67.7
		c0,2.9,2.4,5.2,5.2,5.2h10.3V57.1h15.8V73h10.3c2.9,0,5.2-2.4,5.2-5.2l5.7-27.6v-0.6h4.5c2.8,0,3.8-1.9,4-2.5
		C116.3,36.6,116.8,34.6,114.7,32.7z"/>
	<path class="st9" d="M88.8,67.8v2.8c0,0,4.8,0,7.2,0s3.2-2.1,3.8-5.6s2.5-11.6,2.5-11.6s-0.6-2.1-2.7,5.2S92.6,67.8,88.8,67.8z"/>
	<path class="st9" d="M57,66.1c0,0,0.2,4.6,4,4.6s7.3,0,7.3,0v-7.5c0,0-1.2,0-1.4,3.2C66.6,69.6,60.3,70.9,57,66.1z"/>
	<path class="st10" d="M87,14.4c0,0-2.1-1.9-4.9-4.8s-4.9-1.5-6.3-0.4c-0.2,0.2-0.5,0.4-0.9,0.8c-0.3,0.3-0.7,0.6-1.1,0.9l0,0
		L45.6,34.5c0,0,0,0-0.1,0.1c-1.4,1.5,0.4,1.9,0.4,1.9s4.6,0,5.4,0c0.1,0.1,0.3,0.2,0.4,0.2c0.4,0.6,0.7,2,0.9,2.8
		c0,0.2,0.1,0.5,0.1,0.7v0l0,0c0.5,3,1.2,7.1,1.2,7.2c0.3,1.6,0.5,2.8,0.6,3.3c0.2,1.6,4,5.4,3.8-2.4c-0.1-4.7,0-8.1,0.3-10.9
		c0.5-2,0.7-5.3,2.7-9.5c2.2-4.7,8-9.4,12.1-12.2c4.6-2.9,8.9-2.4,10.6-2.1c2.5,0.6,3.8,1.4,3.8,1.4L87,14.4z"/>
	
		<ellipse transform="matrix(3.125057e-02 -0.9995 0.9995 3.125057e-02 82.921 113.5683)" class="st10" cx="100" cy="14" rx="1.3" ry="3.8"/>
</g>
</svg>
