<?xml version="1.0" encoding="utf-8"?>
<!-- Generator: Adobe Illustrator 21.1.0, SVG Export Plug-In . SVG Version: 6.00 Build 0)  -->
<!DOCTYPE svg PUBLIC "-//W3C//DTD SVG 1.1//EN" "http://www.w3.org/Graphics/SVG/1.1/DTD/svg11.dtd">
<svg version="1.1" id="Layer_1" xmlns="http://www.w3.org/2000/svg" xmlns:xlink="http://www.w3.org/1999/xlink" x="0px" y="0px"
	 viewBox="0 0 352 172" style="enable-background:new 0 0 352 172;" xml:space="preserve">
<style type="text/css">
	.st0{fill:#96131F;}
	.st1{fill:#620000;}
	.st2{fill:#231F20;}
	.st3{fill:#2D2D2D;}
	.st4{fill:#E6E7E8;}
	.st5{fill:#F4F5F5;}
	.st6{fill:#D0D2D3;}
	.st7{fill:#6D6E70;}
	.st8{fill:#BBBDBF;}
	.st9{fill:#A6A8AB;}
	.st10{fill:none;stroke:#404041;stroke-width:0.5;stroke-miterlimit:10;}
	.st11{fill:#808184;}
	.st12{fill:#929497;}
	.st13{fill:#FFFFFF;stroke:#000000;stroke-miterlimit:10;}
</style>
<path class="st0" d="M14.9,139c0,0-5.5-1-6.8,1.7c-1.2,2.8,0,20.1,0,20.1s4.9,10,15.4,4.3c0,0-0.3-12.6,0.3-14.2"/>
<path class="st0" d="M38.4,141.3l-2.3,12.8l0.3,9.6c0,0-1.4,5.2,4.6,4.7s10.6-1,10.9-9.8c0.2-8.8,2.1-21.2-4.6-19.4"/>
<path class="st1" d="M9.9,140.2c0,0-1.5-0.4-1.6,2.7c-0.1,3.1-0.5,21.6,6.6,22.3C22,166,23,165,23,163c0.1-2,0.7,2.9,0.7,2.9
	l-0.8,1.2l-12.4,0.2c0,0-1.4-1.6-1.6-1.9c0-0.1-2.1-10.4-2.1-10.4l-0.2-12.1c0,0,0.6-4.7,2.9-3.6"/>
<path class="st1" d="M51.2,142c0,0-0.5-2-1.4-3c0,0.1-0.1,0.2-0.2,0.3c0,0.1-0.1,0.2-0.1,0.3c-0.2,0.3-0.3,0.7-0.4,1.1
	c0.2,0.4,0.3,0.9,0.4,1.6c0.4,3.1,2.9,21.4-4.1,22.9s-8,0.7-8.3-1.3s-0.4,3-0.4,3l0.9,1.1l12.3-1.2c0,0,1.2-1.8,1.3-2.1
	s1.1-10.7,1.1-10.7L51.2,142z"/>
<path class="st2" d="M9.6,138.5c0,0-2.8,0.1-2.9,2.5s-1.4,11.1,1.8,24.3c1,3.7,8.4,2.5,11.9,2.6c1.2,0,4.3-0.1,3.9-2.9
	c-0.4-2.8-1-9.6-1-10.2c0-0.6-0.7-0.2-0.7-0.2s0.4,8.1,0.6,9.9c0.2,1.8-1.4,2.5-6.8,2.2s-7,0.7-7.9-5s-1.6-19.1-1.1-20.3
	s1.8-2.9,2.7-1.3"/>
<path class="st2" d="M51.6,140.6c-0.2-1.5-1.4-2.1-2.3-2.2c0,0,0,0,0,0.1c-0.1,0.3-0.3,0.6-0.4,0.9c0.7,0,1.5,1,1.9,1.8
	c0.6,1.2,0.9,14.6,0.4,20.4c-0.4,5.7-2.1,4.9-7.5,5.6c-5.3,0.7-7,0.1-6.9-1.7s-0.2-9.9-0.2-9.9s-0.7-0.4-0.6,0.2
	c0.1,0.6,0,7.5-0.2,10.3s2.8,2.7,4.1,2.6c3.5-0.4,11,0.2,11.7-3.6C53.8,151.5,51.8,142.9,51.6,140.6z"/>
<path class="st3" d="M8.7,133.2c0,0,0.8,23.4,21.1,22.3c20.2-1.1,19.6-17,19.6-17l0.5-4.6l-1.6-2.4c0,0-1.9-2.5-2-4
	s-0.3-2.8-0.3-2.8l-5.4-1.2l-5.3-0.5l-3.9-0.1l-4,0.3l-4,0.5l-3.8,0.6l-1.9,0.5l-0.4,0.7l-0.6,1.1l-0.7,1l-1.3,1.3
	c0,0-2.3,2-3.8,1.7c-1.4-0.2-3.3,1.7-2.4,2.2"/>
<rect x="82.3" y="120.2" class="st0" width="265.3" height="46"/>
<path class="st2" d="M136.7,86c0.1,7.5-1.8,13.9-5.9,19.3c-2.6,3.6-6.4,6.2-11.2,7.7c-2.6,0.8-5.6,1.2-9,1.2
	c-6.4,0-11.6-1.6-15.8-4.7c-3.5-2.6-6.3-6.1-8.3-10.5s-3.2-9.5-3.6-15.3l15.5-1.1c0.7,6.3,2.4,10.8,5,13.7c1.9,2.1,4.2,3.1,6.7,3
	c3.6-0.1,6.4-1.9,8.5-5.3c1.1-1.7,1.6-4,1.6-7.1c0-4.5-2-8.9-6.1-13.4c-3.2-3-8-7.6-14.5-13.7c-5.4-5.2-9.2-9.9-11.4-14
	c-2.4-4.7-3.6-9.7-3.6-15.2c0-9.8,3.3-17.3,9.9-22.3c4.1-3,9.1-4.6,15.1-4.6c5.8,0,10.8,1.3,14.9,3.9c3.2,2,5.8,4.8,7.8,8.4
	s3.2,7.8,3.6,12.5l-15.6,2.8c-0.5-4.4-1.7-7.9-3.8-10.3c-1.5-1.8-3.6-2.7-6.5-2.7c-3,0-5.2,1.3-6.8,4c-1.3,2.1-1.9,4.8-1.9,7.9
	c0,4.9,2.1,10,6.4,15.1c1.6,1.9,4,4.2,7.2,6.9c3.8,3.2,6.3,5.4,7.5,6.6c4,4,7.1,8,9.3,11.9c1,1.8,1.9,3.5,2.5,5.1
	C135.8,79.5,136.6,83,136.7,86z"/>
<path class="st2" d="M156.7,78.7v34.2h-16.3V4.9h16.3v38.5l19.9-38.5H194l-22.3,44l26.1,63.9h-19.1L161.6,69L156.7,78.7z"/>
<path class="st2" d="M220.2,88.1l-4,24.8h-16.9L217.6,5H240l18.1,107.8H241L237.2,88L220.2,88.1L220.2,88.1z M228.7,29.7l-6,42.5h12
	L228.7,29.7z"/>
<path class="st2" d="M264.1,21.4h-17.3V5h50.8v16.4h-17.2v91.5h-16.3V21.4z"/>
<path class="st2" d="M301,112.9V4.9h46.3v16.4h-30v29.4h21.9V67h-21.9v29.4h30v16.4L301,112.9L301,112.9z"/>
<path class="st4" d="M112.7,140.7v-13.3h3.7v32.7h-3.7v-16H96v16h-3.7v-32.7H96v13.3H112.7z"/>
<path class="st4" d="M173.8,150.8l-3.9,9.2h-4l15-34.3l14.7,34.3h-4l-3.8-9.2H173.8z M180.9,134.3l-5.6,13.1h11.1L180.9,134.3z"/>
<path class="st4" d="M264.2,160.1h-4.5l-9.9-14.4h-0.9v14.4h-3.7v-32.7h5.3c3.8,0,5.9,0.5,7.8,1.8c2.3,1.5,3.6,4.3,3.6,7.4
	c0,5-3.3,8.5-8.2,8.9L264.2,160.1z M251.2,142.5c4.6,0,7.2-2.1,7.2-6c0-2-0.9-3.8-2.4-4.7c-1.2-0.7-2.7-1-4.9-1h-2.2v11.7H251.2z"/>
<path class="st4" d="M313.6,127.4h6.7c5.2,0,8.9,1.2,12,3.8c3.7,3.1,5.7,7.5,5.7,12.6s-2,9.4-5.8,12.6c-3.2,2.7-6.6,3.8-11.9,3.8
	h-6.7L313.6,127.4L313.6,127.4z M320.4,156.7c8.3,0,13.8-5.1,13.8-13s-5.5-13-13.8-13h-3.2v25.9h3.2V156.7z"/>
<path class="st5" d="M58.7,48.4l0.5-5.2l-3.6-3.4l-3.9-2.3l-2.6-0.1l-7.4-4.9l0.1-1.7l2.7-0.9l4.3-1.7l1-2l0.8-2.5l0.2-3.6L50.1,17
	l-3.3-7.4c0,0-3.1-3.8-3.4-4.2c-0.2-0.2-0.9-0.6-1.7-0.9c-0.4,0.2-0.9,0.3-1.5,0.3c-0.5,0-1-0.1-1.4-0.3c-0.9,0.3-1.7,0.6-1.7,0.6
	L23.6,4.5L21.5,5c-0.4,0.6-1,1.2-1.8,1.4l-4.3,9l-2,7.3l1.4,4.2l2.1,2.3l5,1.7l1.1,1.4l-7.9,4.6l-3.6,1.3c0,0-5.5,4.9-5.7,5.2
	c-0.3,0.3-0.2,3.6-0.2,3.9s1.5,4.5,1.5,4.5l1.7,4l0.2,1l-1.3,8.4l0.1,7.4l0.6,6.8l-0.5,1.2l-0.5,3.9l-0.8,3.4L9,94.4l-0.3,8.4
	c0,0,0.3,5.4-0.1,13.6C8.2,124.7,8.5,130,8.5,130l2.3,1.3c0.4-0.5,0.9-1,1.5-1.4c0-0.7,0-1.5,0.1-2.2c1.8-9.3,14.5-7.3,21.2-7.2
	c1.6,0,2.9,0.5,3.9,1.2c3.9-0.1,7.8-0.9,11,2.3c1.6,1.7,2.4,3.9,2.7,6.3c0.1-1.4-0.2-2.4-0.2-2.4s-0.6-1.9-1-2.4s-0.3-2.1-0.3-2.1
	l-0.2-2l-0.3-3.3l0.6-3.5l0.4-1.2l-0.4-2.1v-1.8l0.7-5.3l-0.5-2.8l0.2-3.3l1.3-2.4l2.4-13.3l-1-2.1l0.2-6.5l0.3-2.6l2.5-4.5L57.7,56
	l-0.9-2.7l0.5-0.9L58.7,48.4z"/>
<path class="st0" d="M52.6,80.9c0,0,2.2,0.6,2.2,3.2c0,2.7-2.3,13.6-4.7,13.7"/>
<path class="st0" d="M8.3,99C8.3,99,8.4,99,8.3,99c0.2,0,0.3,0,0.5,0l0,0v-7.4l-0.2-0.3L8.1,90l0.2-2.2l0.5-0.9L9,85.7l0.2-1.3
	l-0.5-0.6c0,0-0.2-0.3-0.4-0.6S8,81.6,8,81.6L8.3,80c0,0-0.5,0-1,0.1C5.5,80.5,5.8,85,5.8,85s-0.2,7.9,1.3,12.1c0.3,1,0.6,1.6,0.8,2
	C8,99.1,8.1,99,8.3,99z"/>
<path class="st6" d="M48.2,65c-0.4-1.3,0.3-6.5-15.8-9.8C16.4,52,14.6,59,14,60.9c-0.6,1.8-1,20.6-1,20.6c14,4.1,22.4,5.5,27.4,5.7
	c1.8-1.2,4.7-1.5,6.5-1.4c0.1,0,0.2,0,0.3,0l1.1-6.5C48.2,79.3,48.6,66.4,48.2,65z"/>
<path class="st6" d="M45.9,112.1c0,0-0.8-2.4,0.6-3.6c1.3-1.1-9.1,1.1-9.3,2"/>
<path class="st6" d="M45.9,116.4l-0.1,0.2l-0.4,0.3l0.1,1.1l-3.8-0.8C41.7,117.3,42.7,116.4,45.9,116.4z"/>
<polyline class="st6" points="36.3,114.2 28.5,112.4 25.5,113.7 33.5,115.2 "/>
<path class="st6" d="M24,117.1l-8.5-1.4c0,0,1.7,2.6,1.6,3.1"/>
<path class="st6" d="M14.8,112.5c0.6-1.4-0.6-3.9-0.6-3.9l7,2"/>
<path class="st6" d="M47.1,103.6l-6.6-1.4l6.4-2.8C46.9,99.5,46.7,102.1,47.1,103.6z"/>
<polyline class="st6" points="43.1,95.7 46.4,96.3 47.5,95.8 47.1,94.3 "/>
<path class="st6" d="M38.9,98.8l-4.1-0.5l-5.6,1l1.2,0.5C30.4,99.8,38,99.3,38.9,98.8z"/>
<polyline class="st6" points="30.4,89.5 22.4,87.7 17.8,89.2 26.5,92 33.4,89.9 "/>
<polyline class="st6" points="36.2,94.4 34.4,93.8 40.3,91.3 45.5,91.4 36.9,94.2 "/>
<path class="st6" d="M23,101.1c0,0-2.2-0.6-2.2-0.7c0,0-2.7,0.5-2.9,0.6c-0.2,0.1-0.3,0.4-0.3,0.4s1.7,0.1,1.8,0.1c0.1,0,2,0,2,0"/>
<path class="st6" d="M40.5,105.5l-7.9-1.7c0,0-14.2,1.4-18,0.9l-0.1,1.2l12.2,2.8c0,0,12-3.1,12.7-2.9"/>
<path class="st7" d="M12.6,130.1c0.1,0,0.1,0,0.2,0l0,0c1-0.9,5-4.7,5.1-7.6c-1.1,0.4-2.2,0.8-3.4,0.9c-0.1,0-0.2,0-0.3,0
	c-0.7,0.2-1.6-0.2-1.9-0.8c-0.2-0.3-0.2-0.7-0.1-1.1c0-0.1,0-0.1,0.1-0.2c0-0.2,0-0.5,0.2-0.7c0.3-0.4,0.8-0.7,1.3-0.7
	c0.4-0.2,0.9-0.4,1.3-0.5c0.6-0.2,1.2-0.4,1.8-0.5c-0.6-1.5-1.2-2.7-1.4-3.1h-0.1c-0.6,0-1-0.2-1.5-0.5c-0.3-0.3-0.6-0.8-0.5-1.2
	c0-0.4,0-0.4,0.2-0.8c0.1-0.1,0.2-0.3,0.2-0.3c0.2-0.2,0.5-0.4,0.7-0.4c0.1,0,0.3-0.1,0.4-0.1c0-0.6-0.2-3.2-0.9-3.8
	c-0.1,0-0.1,0-0.2,0c-0.5-0.1-0.9-0.2-1.4-0.4c-0.7-0.4-0.9-1.2-0.5-1.9c0.4-0.7,1.2-0.9,1.9-0.5l0,0c0.2,0.1,0.4,0.1,0.6,0.1v-0.1
	c0,0-0.1-3.8-0.5-4c-0.1,0-0.1-0.1-0.2-0.3h-0.1c-0.3,0-0.7,0-1,0c-0.4,0.3-0.9,0.3-1.4,0.1c-0.3,0-0.5,0-0.8,0.1
	c0.1,10,0.5,24.3,1.7,27.2L12.6,130.1z"/>
<path class="st7" d="M12.6,98.5c0.3,0,0.5-0.1,0.8,0c0-0.1,0-0.1,0-0.2c-0.2,0-0.4,0-0.6-0.1c-0.7-0.3-1.5-0.5-2.2-0.6
	c0,0.4,0,0.9,0,1.4c0.3,0,0.7,0,1-0.1C11.9,98.8,12.3,98.6,12.6,98.5z"/>
<path class="st7" d="M13.5,93.8l-0.2-1.5l-2.6-0.6c0,0,0,1.2,0,3.2c0.9,0.2,1.9,0.3,2.8,0.7C13.4,94.7,13.5,93.8,13.5,93.8z"/>
<path class="st7" d="M48.3,90.6L48.3,90.6c0.1-0.1,0.2-0.2,0.4-0.3c-0.1,0.1-0.1,0.1-0.2,0.2c0.1-0.1,0.3-0.2,0.4-0.3
	c0-0.3,0-0.5-0.1-0.7V89l-1.5-0.1l0.1,1.8C47.7,90.7,48,90.6,48.3,90.6z"/>
<path class="st7" d="M48.5,93.3c-0.1,0.2-0.3,0.3-0.4,0.4c-0.2,0.1-0.4,0.3-0.6,0.4c0,0,0,0,0.1,0c-0.1,0.1-0.3,0.2-0.5,0.2l0.1,0.3
	l0.2,1.2c0,0,0,0,0.1,0c0.2-0.1,0.3-0.1,0.5-0.2c0.3-0.4,0.6-0.7,1-0.9c0-0.5,0-1.1,0-1.5C48.8,93.3,48.6,93.3,48.5,93.3z"/>
<path class="st7" d="M48.1,98.7c-0.1,0-0.1,0.1-0.2,0.1c-0.1,0.1-0.2,0.1-0.3,0.2c0,0,0,0-0.1,0.1c-0.2,0.2-0.5,0.3-0.7,0.4
	c0,0.6,0,3.9,0.4,4.3c0.1,0.1,0.1,0.2,0.1,0.3c0.2-0.1,0.4-0.1,0.6-0.1c0.2,0,0.5,0.1,0.7,0.1c0.1-2,0.1-3.9,0.2-5.7
	c-0.2,0.1-0.3,0.2-0.5,0.3C48.2,98.6,48.1,98.7,48.1,98.7z"/>
<path class="st7" d="M46.6,108.2c0,0.1-0.1,0.2-0.1,0.2l-0.8,1.7l-0.3,1.4l0.2,0.4v0.3c0.1,0,0.2-0.1,0.4-0.1c0.8,0,1.6-0.1,2.3,0
	c0.1-1.3,0.1-2.7,0.2-4C47.9,108.2,47.3,108.2,46.6,108.2L46.6,108.2z"/>
<path class="st7" d="M45.7,116.4l-0.3,0.6c0,0-0.2,0.8,0.1,1.2l0,0c0.1,0,0.2,0,0.2,0c0.9,0.1,1.6,0.4,2.4,0.8
	c0-0.9,0.1-1.8,0.1-2.7c-0.7,0.1-1.4,0.1-2.2,0.1C45.9,116.4,45.8,116.4,45.7,116.4z"/>
<path class="st7" d="M46,122.8c0,0-0.7,5,1.4,7.8c0,0,0.1-2.8,0.3-6.9C47.1,123.3,46.5,123,46,122.8C46,122.7,46,122.8,46,122.8z"/>
<path class="st7" d="M47.8,89.6l0.8-0.3c0,0,0.5-5.9-1.3-6c0,0-0.2,5.2,0,6.2"/>
<polyline class="st7" points="14.3,117.9 16,118.7 17.1,118.6 16.6,117.2 15.6,115.9 "/>
<path class="st7" d="M15.4,126.3c0.1,0,1.3-0.4,1.3-0.4l-0.7,1.3l-1.8,1.5l-0.3-0.1"/>
<polyline class="st7" points="46.6,123.8 47.1,122.8 48.2,123.3 47.8,124.4 "/>
<path class="st8" d="M16.4,37.3c0,0,16.8-5.9,8.1-8s-13.3-4.4-2.4-21.5c1.2-2.4,5-0.3,11.4-0.8c6.5-0.5,11.4-1.4,14,9.2
	c2.5,10.6-1.6,11.5-6.9,12.4c-5.3,0.8-1.7,6.5,6.7,8.9C47.3,37.6,27.1,40.5,16.4,37.3z"/>
<path class="st9" d="M19.5,37.7c0,0,13.7-7.9,7.8-9.9s-9.4-1.9-2-18c0.8-2.3,3.4-0.3,7.8-0.8c4.4-0.4,7.8-1.3,9.5,8.7
	s-1.2,9.2-4.9,10c-3.6,0.8,0.1,8.4,5.8,10.7C43.5,38.4,26.8,40.6,19.5,37.7z"/>
<line class="st10" x1="30.3" y1="123.1" x2="30.3" y2="155.5"/>
<path class="st10" d="M20,124.3c0,0,0.7,23.8-4.6,24.6"/>
<path class="st10" d="M41.6,123.9c0,0-0.7,23.8,4.6,24.6"/>
<path class="st10" d="M18,124.7c0,0,0.1,18.4-5.8,19.7"/>
<path class="st10" d="M16.8,126.3c0,0-0.9,14.8-6.5,13.7"/>
<path class="st10" d="M15.3,128.1c0,0-2.2,8.7-5.7,8.1"/>
<path class="st10" d="M13.7,129.5c0,0-2.8,4-4.5,3.8"/>
<path class="st10" d="M22.5,123.8c0,0,0.8,23.3-2.7,28.5"/>
<path class="st10" d="M25.2,123.4c0,0,1,24.1-2,30.6"/>
<path class="st10" d="M27.4,123.1c0,0,1.7,24.4-0.7,31.8"/>
<path class="st10" d="M43.5,124.2c0,0-0.8,18.7,4.6,20.8"/>
<path class="st10" d="M45.3,124.6c0,0-0.8,13,3.9,16.2"/>
<path class="st10" d="M46.5,128.9c0,0,0.2,5.3,2.7,6.9"/>
<path class="st10" d="M38.4,123.5c0,0-1.4,21.3,3.9,28.3"/>
<path class="st10" d="M35.5,123.1c0,0-1.7,24.1,2.7,30.8"/>
<path class="st10" d="M32.6,122.9c0,0-1,28.1,1.8,32.2"/>
<path class="st1" d="M9.1,98.8c-0.1-0.8-0.2-1.6,0-2.4c-2.5-3.5-2.3-12.1-2.2-13.8C7,80.5,8,80.8,8,80.8l-0.2-0.7
	c-1.6-0.7-2,2.5-2,2.5l0.1,8.3c0,0,1.4,7,1.5,7.2s1.1,1.3,1.1,1.3h0.2C8.7,99.2,8.9,99,9.1,98.8z"/>
<path class="st1" d="M50,95.4c2.7-2.8,3.6-10.5,3.8-12c0.2-1.9-0.7-1.8-0.7-1.8l0.3-0.6c1.5-0.4,1.5,2.5,1.5,2.5l-1.2,7.4
	c0,0-2.2,6.1-2.3,6.2s-1.1,1-1.1,1L49.6,98C49.8,97.2,50.1,96.3,50,95.4z"/>
<path class="st2" d="M6.2,81.7c0.3-0.6,1.2-1.4,2-1.4c0-0.1,0-0.2,0.1-0.3c0-0.1,0.1-0.3,0.2-0.4l-0.1-0.1c0,0-2.8,0.1-2.9,1.8
	C5.4,83,4,89.1,7.2,98.4c0.2,0.6,0.9,1.1,1.6,1.4c0-0.3,0-0.8,0.1-1.1c-0.6-0.5-1.2-1.3-1.5-2.8C6.5,91.9,5.7,82.5,6.2,81.7z"/>
<path class="st2" d="M54.4,82.6c-0.3-0.6-1-1.4-1.8-1.4c0-0.1,0-0.2,0-0.2c0-0.1-0.1-0.2-0.1-0.3l0.1-0.1c0,0,2.8,0.4,2.7,1.9
	s0.6,6.9-3.4,14.7c-0.3,0.5-0.8,0.7-1.5,0.9c0-0.3,0-0.5-0.1-0.8c0.7-0.4,1.2-1,1.6-2.2C53.1,91.5,54.7,83.4,54.4,82.6z"/>
<path class="st11" d="M57,52.5c0,0,1.6-6,0.9-8c-0.7-2-4.7-5.9-7.7-5.9s-5.2,0.7-13.7,0.5c0,0,12.7-1.6,14.2-1.5s6.8,2.8,8.5,5.3
	C59.2,42.9,60.1,49.9,57,52.5z"/>
<path class="st11" d="M7.6,52.5c0,0-1.6-6-0.9-8s4.7-5.9,7.7-5.9s5.2,0.7,13.7,0.5c0,0-12.7-1.6-14.2-1.5s-6.8,2.8-8.5,5.3
	C5.4,42.9,4.5,49.9,7.6,52.5z"/>
<path class="st7" d="M16.9,37.5c0,0,8.9-2.8,30.4,0.1C47.3,37.6,32.1,40.3,16.9,37.5z"/>
<path class="st8" d="M11.7,130.4c0.1-0.1,0.2-0.1,0.3-0.1l-0.5-0.4c-4.1-2-2.2-16-1.6-18.9c0.5-2.9-0.9-9.9-0.9-9.9l-0.2,6.2
	c0,0-0.6,6.8-1.3,14.5c-0.7,7.8,0.6,10.5,0.6,10.5C8.7,130.6,10.8,130.4,11.7,130.4z"/>
<path class="st12" d="M49.6,104.3c0.1,0,0.3,0.1,0.4,0.2c0.2,0.1,0.4,0.2,0.5,0.3l-0.1-1.3l-0.6-5.3c0,0-1.4,3.8-0.5,5.4
	C49.5,103.9,49.6,104.1,49.6,104.3z"/>
<path class="st12" d="M48.8,112.1c0.4,0.1,0.8,0.1,1.2,0.2c-0.2-0.5-0.6-1.1-0.6-1.1l0.7-3.2h-1.2c-0.3,1.3-0.6,2.6-0.3,3.8
	C48.7,111.9,48.7,112,48.8,112.1z"/>
<path class="st12" d="M51.6,128.2c-0.9-2-1.7-3-1.7-3l-0.5-0.9v-0.2c-0.2-0.1-0.4-0.2-0.6-0.4l0,0c0.1,1.1,0.2,2.2,0.7,2.9
	c0.9,1.6,1.8,4.5,1.2,5.7C51.2,131.6,52.2,129.6,51.6,128.2z"/>
<path class="st12" d="M49.2,119.1l0.2-1l0.2-1.4c-0.4-0.1-0.7-0.2-1-0.3c-0.1,1-0.3,1.9-0.1,2.8c0.2,0,0.5,0,0.7,0.2
	C49.2,119.4,49.2,119.1,49.2,119.1z"/>
<path class="st12" d="M55.3,55.4c0,0,1,4.7,0.8,6.4s-2.8,8.5-3.9,9.2c-1.1,0.7,1.4,6.8-0.3,10.8l1-1.4l0.2-3.5l0.4-3.3l-0.1-1.4
	c0,0,5-9,4.3-13.5c-0.8-4.5-1.1-4.3-1.1-4.3"/>
<path class="st2" d="M32.2,38.5c0,0,9.7,0.2,15.9-1.2s11.1,5.3,11.1,5.3s2,5.4-5.3,16.3c-3.1,4.9-2.7,9.2-2.7,9.2l-0.5-0.4
	c0,0-0.2-5.4,2.7-9.1c2.8-3.8,6.9-14,5.1-15.9c-1.8-1.8-4.8-5.7-10.1-4.8s-13.4,1.3-16.3,1"/>
<path class="st2" d="M32.4,38.5c0,0-9.7,0.2-15.9-1.2C10.2,36,5.3,42.6,5.3,42.6S3.4,48,10.7,59c3.1,4.9,2.7,9.2,2.7,9.2l0.5-0.4
	c0,0,0.2-5.4-2.7-9.1c-2.8-3.8-6.9-14-5.1-15.9C7.9,41,11,37.1,16.2,38c5.3,0.9,13.4,1.3,16.3,1"/>
<path class="st2" d="M43.1,32.8c-1.6-1.8,2.2-2,5-3.6s4.4-5.9,2.3-11.7C48.3,11.8,46,4.4,41.9,4.3c-1.5,0-2.7,0.1-3.8,0.2
	c-0.2,0.1-0.4,0.2-0.7,0.2c-2.5,0-5,0.3-7.5,0.2c-0.3,0-0.5-0.1-0.7-0.2c-2.3,0-3.7-0.5-6.5-0.4c-4.2,0.1-6.5,7.5-8.5,13.3
	c-2.1,5.8-0.5,10,2.3,11.7c2.8,1.6,6.6,1.7,5,3.6c-1.6,1.8-6.2,4-6.2,4L15,37.4l1.2-0.1l4.5-2.2c8.5-4.9,0.9-4.6-3.1-6.2
	s-2.8-8-2.3-10.2s5-13.9,8-13.5c4.9,0.8,7.9,0.7,9.3,0.5c1.4,0.2,4.3,0.4,9.3-0.5c3-0.3,7.5,11.3,8,13.5s1.7,8.5-2.3,10.2
	c-4,1.6-11.7,1.4-3.1,6.2l4.5,2.2l1.2,0.1l-0.3-0.5C49.4,36.9,44.8,34.7,43.1,32.8z"/>
<path class="st2" d="M8.9,55.4c0,0-1.5,8-1.4,12.7s0.7,7.5,1,10.3s-1.7,2-0.1,5.8h0.2L8.8,86c0,0-1.5,2.1-0.6,5.2l0.4,0.3v3.4
	c0,0,0.2,11.4-0.4,16.9S5.9,130.9,8,133.5l0.4,0.5c0,0,1.3,22.2,20.5,22.2s20.6-13.9,20.6-18.4s2.8-6.1,2.3-8.7
	c-0.5-2.6-1.8-4.7-1.8-4.7s0.2-3.5-0.3-4.5c-0.6-1,0.2-2.9,0.2-2.9s1-4,0.3-5.1c-0.7-1,0.2-3.7,0.2-3.7s0.8-3.8,0.2-4.9
	c-0.6-1-0.6-2-0.6-2s1.7-17.1,2.5-19.7c0.8-2.7,0.9-4.4,1-7.5s7.4-12.5,3.2-20.8L56,54.5c0,0,3.1,9.9-2.9,17.2
	c-1.4,1.9,0.6,5.8-1,9.3s-2.9,18.9-2.9,20.5s1.6,2.2,0.3,6.8c-1.3,4.5,1,2.6-0.8,9.4c-0.6,3.3,1.1,3.5,0.4,6.9c0,0,4,5.2,0.2,9.1
	c-0.8,1,2.4,21.4-20.5,21.4c-14.8,0-20-16.5-19.7-21.6c0.1-2.5-2.8,1.7-1.3-13.2c1.6-14.9,1-29.6,1-29.6s-1.9-1.5,0.3-4.9L9,83.6
	c0,0-1.4-0.6-1-2.3c0.4-1.7,0.8-2.7,0.3-6.1C8,72,7.1,64.6,9.4,56.5"/>
<path class="st2" d="M12.1,60.5c0,0-10.4-24.8,11.8-16.8c8.3,3.1,19.4,1.4,25.1,0.2s9.6,2.6,4.9,15.1c0,0,5-15.4-5.1-13.2
	c-10,2.3-16.6,3.5-26.8-0.3C11.7,41.7,7.4,45.1,12.1,60.5z"/>
<path class="st2" d="M13.5,76c0,0-1-8.8,0.5-16.1s9.4-6.2,15.8-5.5c6.4,0.6,19.7,1.8,19.2,12s-0.9,13.3-0.9,13.3s0.3-9.7-0.3-13.3
	c-0.7-3.6-2.4-10-17.7-10.9C14.9,54.7,13.6,56.2,13.5,76z"/>
<path class="st2" d="M18.5,122.4c0,0-1.4,6.3-6.5,8c-2.9,1-3.9,1.5-2.7,2.5s-1.2-0.4-1.2-0.4L8,132c0,0,0.5-1.9,4.1-1.8
	c0.7,0.1,5.1-3.7,5.7-7.5"/>
<path class="st2" d="M46,123.2c0,0-1.1,5.8,4.1,10l-0.3,0.7h-0.2C49.6,133.9,44.6,129,46,123.2z"/>
<path class="st2" d="M45.8,125c0,0-12.3-4.3-28.7,0l0.3-0.4c0,0,15-4.2,28.3,0.1"/>
<path class="st2" d="M49.5,125c0,0-1-4.3-34.1-9.2v-0.3c0,0,29.8,3.7,34.3,8.7"/>
<path class="st2" d="M44.6,122c0,0-11.1-4.5-30.1,1.7l-1.4,0.1l1.2-0.4C14.3,123.3,30.5,116.8,44.6,122z"/>
<path class="st2" d="M41.5,86.9c-14.8-0.3-32.8-7.4-32.8-7.4l-0.3,0.4C27.3,86.6,37.8,87.1,41.5,86.9L41.5,86.9z"/>
<path class="st2" d="M33.9,89.8c-13.2-1.3-24.6-6.1-24.6-6.1H9L8.7,84C20.2,88.2,29.1,89.5,33.9,89.8C33.8,89.9,33.8,89.9,33.9,89.8
	z"/>
<path class="st2" d="M9.4,85.9c0,0,9.9,4.2,18.1,6.2c0,0-14-3.4-18.4-5.9"/>
<path class="st2" d="M8.2,91.1l0.9-0.3c0,0,15.6,5.2,20.1,5.4c0,0-6.7-0.4-20.6-4.8"/>
<path class="st2" d="M13.4,68.8c0,0-0.2,12.1-0.4,12.5l0.4,0.3c0,0,0.7-10.2,0.4-13.7"/>
<path class="st2" d="M13,85.2c0,0,0.2,2.1-0.1,2.4c-0.2,0.3,0.5,0.4,0.5,0.4l-0.1-2.7"/>
<path class="st2" d="M13.3,92.7c0,0,0.5,1.8,0.4,2.4c-0.1,0.5-0.3,0.5-0.3,0.5s-0.1-2.8-0.4-3"/>
<path class="st2" d="M48.2,79.1c0,0,2.6-8.2,2.6-11.6l0.5,0.7c0,0-1.3,6.9-3.1,11.6c0,0-0.6,4.4-0.8,6s0.2,4.9,0.2,4.9l-0.3,0.2
	C47.2,90.9,46.6,82.8,48.2,79.1z"/>
<path class="st2" d="M16.3,127"/>
<path class="st2" d="M49.2,119.1c0,0-20.3-6.5-34.4-6.6l-0.5,0.4c0,0,4.3-1.8,34.9,6.6"/>
<path class="st2" d="M50.4,104.8c0,0-0.3-1.5-4-0.8c-3.8,0.8-19.1,3.9-19.8,4.5l0.6,0.1c0,0,22.7-6,23.3-3.5"/>
<path class="st2" d="M50.1,107.7c0,0-10.4,0.6-13.7,2.7l0.7,0.2c0,0,2.5-2.1,13.4-2.4"/>
<path class="st2" d="M49.8,112.2c0,0,0.3-2-17.3,2.9l1.1,0.2c0,0,13.6-4.3,16.3-2.6"/>
<path class="st2" d="M49.7,116.1c0,0-6.8,0.1-8.8,0.9l0.8,0.2c0,0,4.6-1.2,8.1-0.6"/>
<path class="st2" d="M47.2,112.1c0,0-25.3-4.3-34-6.5c0,0-0.5,0.3,0.4,0.5c0.9,0.1,22.4,5.1,32.6,6.4"/>
<path class="st2" d="M36,114.3c0,0-13.5-3.1-23.2-5.8c0,0-0.3-0.3-0.1-0.3c0.2,0.1,21.1,5.5,24.1,5.9"/>
<polyline class="st2" points="28.7,112.6 25.1,113.8 24.7,113.7 28.2,112.3 "/>
<path class="st2" d="M20.4,110.6c0,0-3.3,0.8-5.9,2l0.1,0.2h0.8c0,0,2.8-1.8,6.2-2"/>
<path class="st2" d="M13.5,120.5c0,0,6.9-3.4,12-3.2l-1.6-0.3c0,0-3.6-0.2-10.9,2.8"/>
<path class="st2" d="M17.8,89.3c0,0,2.7-1.1,5.1-1.1S22.1,88,22.1,88s-2.1,0.3-4.7,1.1"/>
<polyline class="st2" points="13.9,85.9 13.3,86.2 13.3,86 13.8,85.8 "/>
<path class="st2" d="M13.4,95.5c0,0-3.6-0.5-3.5-1c0.1-0.4-0.6,0.1-1,0.6c-0.3,0.5-0.3,2.4,1.4,2.9c1.6,0.4,23.6,6.8,29.5,7.6l1-0.3
	c0,0-28.3-7.3-29.9-7.7c0,0-2.4-0.1-1.7-2.4l0.4-0.4c0,0,1.7,0.6,3.9,1.1c2.1,0.5,34.4,8.3,34.4,8.3l0.8-0.3L13.4,95.5z"/>
<path class="st2" d="M49.8,98c0,0-6.9,3.9-9.4,4.3l-0.6-0.3c0,0,5-1.4,9.9-4.7"/>
<path class="st2" d="M30.5,99.6c0,0,12.4,0.3,19.8-6.1V94C50.3,94,43.1,100.4,30.5,99.6z"/>
<path class="st2" d="M50.6,89.4c0,0-24.1,9.1-32.4,7.6l2,0.3c0,0,8.5,0.8,30.8-7.6"/>
<path class="st2" d="M36.5,94.2L21,90.5l5.3,1.7l9.7,2.3C36.2,94.4,36.3,94.3,36.5,94.2z"/>
<path class="st2" d="M50.8,92.7c0,0-14.3,6.6-21.9,6.7l-1-0.3c0,0,9.9-0.3,22.8-6.9"/>
<path class="st2" d="M14.3,101.7c-0.1,0.1-0.3,0.1-0.4,0.1c0,0.2,0.1,0.3,0.2,0.5c0.9,2.6,0.3,3.7,0.3,3.7l0.5,0.1
	c0,0,0.4-1.7-0.1-3.3C14.6,102.5,14.5,102.1,14.3,101.7z"/>
<path class="st2" d="M14.6,108.9c0,0,0.8,2.3,0.6,3.3l-0.5,0.3c0,0,0.6-0.8-0.6-3.6"/>
<path class="st2" d="M17.2,118.9c0,0,0-0.1,0-0.2c0-0.4-1-2.4-1.4-3c-0.1,0-0.2,0-0.3,0l-0.2,0.2c1.2,1,1.4,2.6,1.5,3.2
	C17,118.9,17.1,118.9,17.2,118.9z"/>
<polyline class="st2" points="47.2,93.9 47.6,95.7 47.3,96.1 46.7,94.2 "/>
<path class="st2" d="M47,99.2c0,0-0.3,3.1,0.3,4.4l-0.3,0.3c0,0-0.5-2.5-0.4-4"/>
<path class="st2" d="M46.3,108.3c0,0-1.3,2.3-1,3.5s0.5,0.3,0.5,0.3S45,110.4,47,108"/>
<path class="st2" d="M45.3,116.6c0,0-0.6,1,0.3,1.7c0,0-0.6-1.5,0.3-1.6"/>
<path class="st2" d="M23.6,117.1"/>
<path class="st2" d="M26.5,91.8l6.5-2l1.5,0.1c0,0-6.6,1.6-7.5,2.3"/>
<path class="st2" d="M47.2,85.4L47.2,85.4c0-0.1-3.6,0.1-6.2,1.3L32.8,90l0.4,0.3c0.1,0,0.1,0,0.2,0c1.2-0.5,9.9-4.4,13.7-4.4
	c0,0,0,0,0.1,0C47.2,85.7,47.2,85.6,47.2,85.4z"/>
<path class="st2" d="M47.2,89.1c0,0-6.3,1.3-13.1,4.6c-0.1,0.1-0.2,0.1-0.3,0.2l0.6,0.1c0,0,9.5-4.3,12.9-4.6"/>
<path class="st2" d="M40,91.5l5.8-0.2h0.5c0,0-1.2-0.2-5.8,0"/>
<polyline class="st2" points="35,98.3 38.9,99 39.4,98.7 35.6,98.1 "/>
<polyline class="st2" points="42.4,96 42.9,95.8 46.3,96.4 46.5,96.2 43.3,95.6 "/>
<path class="st2" d="M20.7,100.4c0,0-8.8,1.6-9.9,1.3c-1-0.2-1.2-1.3-0.3-2.2c0.9-0.9,4.1-0.8,4.1-0.8l-0.9-0.2c0,0-3.1-0.4-3.9,1
	c-0.9,1.4,0.3,2.6,0.8,2.7s10.7-1.5,10.7-1.5"/>
<path class="st2" d="M33.5,104c0,0-14.8,1.3-18.7,0.8v-0.5c0,0,5.4,0.9,17.4-0.9"/>
<path class="st2" d="M23.1,101.5c0,0-4.2,0.3-7.6,0.1c0,0,1.3-0.3,1.4-0.4c0.2-0.1,5.3,0,5.3,0"/>
<path class="st2" d="M10.9,86.8c0.1,0,0.1,0.1,0.2,0.1c0-0.7,0-1.5,0.1-2.3l-0.6-0.1c0,0,0,0.8-0.1,2.1
	C10.6,86.7,10.8,86.7,10.9,86.8z"/>
<path class="st2" d="M10.4,91.9c0,0.9,0,2,0,3c0.2,0,0.4,0,0.6,0.1c0-1,0-2,0-3.1C10.8,92,10.6,92,10.4,91.9z"/>
<path class="st2" d="M10.3,97.8c0,0.4,0,0.9,0,1.4c0.1,0,0.3-0.1,0.5-0.1h0.1c0-0.4,0-0.7,0-1.1C10.7,98,10.5,97.9,10.3,97.8z"/>
<path class="st2" d="M10.9,101.9C10.9,101.9,10.8,101.9,10.9,101.9c-0.3,0-0.4,0-0.6-0.1c0.1,10.7,0.5,23.4,2,28.3l0.5-0.1
	C12.8,130,10.9,125.2,10.9,101.9z"/>
<path class="st2" d="M48.9,90.4c0-1.1,0-1.8,0-1.8L48.3,89c0,0.3,0,0.8,0.1,1.5C48.6,90.5,48.7,90.4,48.9,90.4z"/>
<path class="st2" d="M48.4,93.6c0,0.5,0,1,0,1.6c0.1-0.1,0.3-0.1,0.5-0.1c0-0.6,0-1.1,0-1.7C48.7,93.5,48.5,93.5,48.4,93.6z"/>
<path class="st2" d="M48.4,98.3C48.4,98.3,48.3,98.3,48.4,98.3c-0.1,1.8-0.2,3.7-0.2,5.8c0.2,0,0.3,0,0.5,0c0-2,0.1-4,0.1-5.8
	C48.7,98.3,48.5,98.3,48.4,98.3z"/>
<path class="st2" d="M48.1,108.2L48.1,108.2c-0.1,1.3-0.1,2.6-0.1,3.9c0.2-0.1,0.4-0.1,0.6,0c0-1.3,0.1-2.6,0.1-3.9
	C48.5,108.2,48.3,108.2,48.1,108.2z"/>
<path class="st2" d="M48.4,116.3c0,0-0.5,0.1-0.2,0c-0.1,0-0.3,0-0.4,0c0,0.9-0.1,1.8-0.1,2.6c0.2,0,0.4,0.1,0.6,0.2
	C48.4,118.2,48.4,117.2,48.4,116.3C48.5,116.3,48.4,116.3,48.4,116.3z"/>
<path class="st2" d="M47.6,123.3c-0.1,4.2-0.2,7.1-0.2,7.1l0.5,0.3c0.1-0.8,0.3-3.5,0.4-7.2C48.1,123.5,47.8,123.4,47.6,123.3z"/>
<path class="st2" d="M26.2,4.9l0.3-0.3c0,0,6.9,0.6,11.7,0l1.1,0.9c0,0-3.8,1-13.6,0"/>
<path class="st2" d="M48.6,89.1l0.3-0.3c0,0,0.1-5.6-1.4-5.8l-0.2,1.1c0,0,0.9,0.1,1,5"/>
<path class="st2" d="M13.4,105.7v-0.2c0,0-0.9-0.1-1.3,0.4c-0.4,0.5-0.5,2,0.8,2.5l0.1-0.2c0,0-1.5-0.8-0.6-2.1
	c0.5-0.2,0.9-0.3,1.6-0.1"/>
<path class="st2" d="M14.9,112.7l-0.4-0.1c0,0-1.4,0.4-1.1,1.9c0.3,1.5,2,1.5,2.2,1.2l-0.1-0.2c0,0-1.7,0.1-1.9-1s0.9-1.8,2.3-1.7"
	/>
<path class="st2" d="M13.6,119.9l-0.2-0.3c0,0-1.6,0.5-1.5,1.9s0.7,2.8,2.8,2.1l-0.1-0.4c0,0-2.5,0.4-2.1-2.1c0.1-0.4,1-0.7,1.5-1"
	/>
<path class="st13" d="M8.7,133.2"/>
</svg>
