<?xml version="1.0" encoding="utf-8"?>
<!-- Generator: Adobe Illustrator 21.1.0, SVG Export Plug-In . SVG Version: 6.00 Build 0)  -->
<!DOCTYPE svg PUBLIC "-//W3C//DTD SVG 1.1//EN" "http://www.w3.org/Graphics/SVG/1.1/DTD/svg11.dtd">
<svg version="1.1" id="Layer_1" xmlns="http://www.w3.org/2000/svg" xmlns:xlink="http://www.w3.org/1999/xlink" x="0px" y="0px"
	 viewBox="0 0 189 63" style="enable-background:new 0 0 189 63;" xml:space="preserve">
<style type="text/css">
	.st0{fill:#BE1E2D;}
	.st1{fill:#8BC53F;}
	.st2{fill:#F6921E;}
	.st3{fill:#FAAF40;}
</style>
<path class="st0" d="M68.6,49.5c-0.1,0.2-0.2,0.3-0.3,0.4c-1-0.6-1.9-1-2.9-1c-1.1,0-1.6,0.3-1.6,0.8c0,0.4,0.3,0.7,0.9,1
	c1,0.5,1.7,0.8,2,0.9c0.8,0.5,1.3,1.1,1.3,1.9c-0.1,1.3-1,2-2.6,2c-1,0-1.9-0.4-2.8-1.3c0-0.1,0.1-0.3,0.3-0.5
	c0.1,0,0.2-0.2,0.3-0.3c0.8,0.7,1.5,1,2.2,1c0.8,0,1.2-0.3,1.3-0.9c0-0.4-0.3-0.8-0.9-1.1c-0.2-0.1-0.8-0.3-1.8-0.8
	c-1-0.4-1.5-1-1.5-1.9c0-0.7,0.4-1.2,1-1.5c0.5-0.3,1.1-0.4,2-0.4c1.3,0,2.4,0.4,3.4,1.2C68.8,49.2,68.7,49.3,68.6,49.5z"/>
<path class="st0" d="M71,55.5c-0.3,0-0.5,0-0.6,0c-0.2-0.6-0.3-1.8-0.4-3.7C70,50.5,70,49.4,70,48.6c0-0.2,0-0.3,0-0.5
	c0.2-0.1,0.4-0.1,0.5-0.1c0.3,0,0.5,0,0.6,0c0.1,0.6,0.2,1.8,0.3,3.3c0.1,1.5,0.1,2.7,0.1,3.5v0.5C71.4,55.4,71.2,55.5,71,55.5z
	 M80.9,53.9c-0.2,1-0.4,1.5-0.5,1.6c-0.5,0-0.9-0.1-1-0.2c0.2-1.8,0.4-2.9,0.4-3.5c0-0.5-0.1-0.8-0.2-1.2C79.3,50.2,79,50,78.7,50
	c-0.6,0-1.4,0.6-2.6,1.9c-0.7-1.8-1.5-2.7-2.2-2.7c-0.5,0-1.1,0.3-1.6,0.9c-0.1,0-0.1-0.2-0.3-0.4c-0.1-0.2-0.2-0.4-0.2-0.5
	c0.6-0.8,1.3-1.3,2.1-1.3c1,0,1.8,0.8,2.5,2.2c0.8-0.9,1.5-1.4,2.3-1.4c0.8,0,1.5,0.4,1.9,1.1c0.3,0.5,0.5,1.2,0.5,2
	C81.1,52.6,81,53.3,80.9,53.9z"/>
<path class="st0" d="M87.7,49c-0.1,0.2-0.2,0.3-0.2,0.4C87,49.1,86.6,49,86.1,49c-0.8,0-1.4,0.3-2,1c-0.4,0.5-0.6,1.1-0.6,1.9
	c0,0.7,0.2,1.3,0.7,1.8c0.5,0.5,1,0.8,1.7,0.8c0.3,0,0.6,0,1-0.2c0.2,0.3,0.3,0.6,0.3,0.9c-0.3,0.2-0.8,0.3-1.3,0.3
	c-1.1,0-2-0.3-2.7-1.1c-0.7-0.8-1-1.6-1-2.7c0-1,0.3-1.9,1-2.7c0.7-0.8,1.7-1.2,2.9-1.3c0.7,0,1.3,0.2,1.8,0.5
	C87.9,48.6,87.9,48.8,87.7,49z M89.5,53.7c-0.4,0.6-0.9,0.9-1.4,1.1c-0.1-0.2-0.2-0.4-0.3-0.5c0-0.1-0.1-0.2-0.2-0.4
	c0.3-0.2,0.6-0.5,0.9-0.9c0.3-0.4,0.4-0.8,0.4-1.2c0-0.8-0.3-1.5-0.8-2.1c0.2-0.3,0.5-0.6,0.8-0.7c0.8,0.8,1.3,1.7,1.3,2.9
	C90.1,52.5,89.9,53.1,89.5,53.7z"/>
<path class="st0" d="M96.6,49c-0.1,0.2-0.2,0.3-0.2,0.4C95.9,49.1,95.4,49,95,49c-0.8,0-1.4,0.3-2,1c-0.4,0.5-0.6,1.1-0.6,1.9
	c0,0.7,0.2,1.3,0.7,1.8c0.5,0.5,1,0.8,1.7,0.8c0.3,0,0.6,0,1-0.2c0.2,0.3,0.3,0.6,0.3,0.9c-0.3,0.2-0.8,0.3-1.3,0.3
	c-1.1,0-2-0.3-2.7-1.1c-0.7-0.8-1-1.6-1-2.7c0-1,0.3-1.9,1-2.7c0.7-0.8,1.7-1.2,2.9-1.3c0.7,0,1.3,0.2,1.8,0.5
	C96.8,48.6,96.7,48.8,96.6,49z M98.3,53.7c-0.4,0.6-0.9,0.9-1.4,1.1c-0.1-0.2-0.2-0.4-0.3-0.5c0-0.1-0.1-0.2-0.2-0.4
	c0.3-0.2,0.6-0.5,0.9-0.9c0.2-0.4,0.4-0.8,0.4-1.2c0-0.8-0.3-1.5-0.8-2.1c0.2-0.3,0.4-0.6,0.8-0.7c0.8,0.8,1.3,1.7,1.3,2.9
	C98.9,52.5,98.7,53.1,98.3,53.7z"/>
<path class="st0" d="M105.5,49c-0.1,0.2-0.2,0.3-0.2,0.4c-0.5-0.2-0.9-0.4-1.4-0.4c-0.8,0-1.4,0.3-1.9,1c-0.4,0.5-0.6,1.1-0.6,1.9
	c0,0.7,0.2,1.3,0.7,1.8c0.5,0.5,1,0.8,1.7,0.8c0.3,0,0.6,0,1-0.2c0.2,0.3,0.3,0.6,0.3,0.9c-0.3,0.2-0.8,0.3-1.3,0.3
	c-1.1,0-2-0.3-2.6-1.1c-0.7-0.8-1-1.6-1-2.7c0-1,0.3-1.9,1-2.7c0.7-0.8,1.7-1.2,2.9-1.3c0.7,0,1.3,0.2,1.8,0.5
	C105.7,48.6,105.6,48.8,105.5,49z M107.2,53.7c-0.4,0.6-0.9,0.9-1.4,1.1c-0.1-0.2-0.2-0.4-0.3-0.5c0-0.1-0.1-0.2-0.2-0.4
	c0.3-0.2,0.6-0.5,0.9-0.9c0.2-0.4,0.4-0.8,0.4-1.2c0-0.8-0.3-1.5-0.8-2.1c0.2-0.3,0.5-0.6,0.8-0.7c0.8,0.8,1.3,1.7,1.3,2.9
	C107.8,52.5,107.6,53.1,107.2,53.7z"/>
<path class="st0" d="M111.9,48c1.2,0,2,0.1,2.5,0.2c0,0.2,0,0.3,0,0.5c0,0.2,0,0.4,0,0.5c-0.1,0-0.4,0.1-0.9,0.1c-0.5,0-1.1,0-1.7,0
	c-0.1,2.5-0.2,4.1-0.2,4.8c0,0.2,0.1,0.3,0.3,0.3c0.1,0,0.3,0,0.6,0c0.4-0.1,0.8-0.2,1.1-0.2c0.1,0.1,0.1,0.3,0.1,0.5
	c0,0.1,0,0.2,0,0.4c-0.7,0.4-1.4,0.5-2.2,0.5c-0.5,0-0.8-0.1-1-0.4c-0.1-0.2-0.2-0.5-0.2-0.9c0-1,0.1-2.7,0.2-4.9
	c-0.6,0-1.2,0-1.7-0.1c0-0.1-0.1-0.2-0.1-0.5c0-0.2,0-0.4,0.1-0.5c0.6-0.1,1.3-0.1,1.8-0.1c0.1-1.4,0.2-2.8,0.3-4.1
	c0.2,0,0.6,0,1.2,0.1C112,45.4,112,46.7,111.9,48z"/>
<path class="st0" d="M117.1,55.3c-0.1,0.1-0.3,0.1-0.6,0.1c-0.3,0-0.5,0-0.6,0c-0.1-0.3-0.2-2.5-0.2-6.8c0-3.2,0-4.9,0.1-5.1
	c0.1,0,0.3,0,0.6,0c0.1,0,0.3,0,0.6,0.1c0,0.2,0,1.8,0.1,4.6c0,2.7,0,4.3,0,4.8C117.1,54.4,117.1,55.2,117.1,55.3z M122.8,55.4
	c-0.4,0-0.8-0.1-1-0.3c0.3-1.4,0.5-2.5,0.5-3.3c0-0.9-0.1-1.5-0.4-1.9c-0.3-0.4-0.8-0.7-1.6-0.7c-0.6,0-1.3,0.2-2.2,0.6
	c-0.2-0.2-0.3-0.6-0.3-0.9c0.7-0.6,1.6-0.9,2.6-0.9c1.1,0,1.9,0.4,2.5,1.1c0.5,0.7,0.8,1.6,0.8,2.7
	C123.5,53.5,123.2,54.7,122.8,55.4z"/>
<path class="st0" d="M126.9,45.3c-0.2,0-0.5-0.1-0.9-0.2c-0.4-0.2-0.7-0.3-0.8-0.4c0.1-0.4,0.2-0.8,0.5-1.1c0.2,0,0.4,0.1,0.8,0.2
	c0.4,0.2,0.7,0.3,0.8,0.4C127.2,44.4,127.1,44.8,126.9,45.3z M126.8,55.4c-0.1,0.1-0.3,0.1-0.6,0.1c-0.3,0-0.5,0-0.6-0.1
	c-0.1-0.2-0.2-1.6-0.2-4.1c0-2,0-3.1,0.1-3.3c0.1,0,0.3-0.1,0.6-0.1c0.3,0,0.5,0,0.6,0.1c0.1,0.3,0.1,1.5,0.1,3.7
	C126.9,53.9,126.8,55.2,126.8,55.4z"/>
<path class="st0" d="M136.5,52.1c-0.8,0.3-2.8,0.5-6.2,0.6c0.4,1.1,1.3,1.7,2.7,1.7c0.6,0,1.3-0.1,2-0.4c0.2,0.2,0.3,0.5,0.4,1
	c-0.8,0.4-1.6,0.7-2.4,0.7c-1.3,0-2.4-0.4-3.1-1c-0.7-0.6-1-1.5-1-2.5c0-1.1,0.3-2,0.8-2.7c0.8-0.9,1.8-1.4,3-1.4
	c1.1,0,2,0.3,2.7,0.9c0.7,0.7,1.1,1.6,1.1,2.7C136.5,51.8,136.5,52,136.5,52.1z M134.8,50c-0.5-0.6-1.2-0.9-2.1-0.9
	c-0.7,0-1.3,0.3-1.8,0.8c-0.4,0.4-0.7,1-0.7,1.8c0.6,0,2.3-0.2,5-0.4C135.2,50.8,135.1,50.4,134.8,50z"/>
<path class="st0" d="M143.9,49.5c-0.1,0.2-0.2,0.3-0.3,0.4c-1-0.6-1.9-1-2.9-1c-1.1,0-1.6,0.3-1.6,0.8c0,0.4,0.3,0.7,0.9,1
	c1,0.5,1.7,0.8,2,0.9c0.8,0.5,1.3,1.1,1.3,1.9c-0.1,1.3-1,2-2.6,2c-1,0-2-0.4-2.8-1.3c0-0.1,0.1-0.3,0.3-0.5c0.1,0,0.2-0.2,0.3-0.3
	c0.8,0.7,1.5,1,2.2,1c0.8,0,1.2-0.3,1.3-0.9c0-0.4-0.3-0.8-0.9-1.1c-0.2-0.1-0.8-0.3-1.8-0.8c-1-0.4-1.5-1-1.5-1.9
	c0-0.7,0.4-1.2,1-1.5c0.4-0.3,1.1-0.4,2-0.4c1.3,0,2.4,0.4,3.4,1.2C144.1,49.2,144,49.3,143.9,49.5z"/>
<g id="Layer_1_2_">
	<g>
		<g>
			<g>
				<path class="st1" d="M96.3,22.2c-1.1,0.3-2.1,0.3-3.2,0.1c-0.1,0-0.3-0.1-0.5-0.1c-0.9-0.1-2.5-1.2-3.1-1.9
					c-0.6-0.8-1.2-1.6-1.5-2.7c-0.5-1.9-0.4-3.8,0.3-5.7c0.3-0.8,0.6-1.4,1.1-2c0.5-0.7,1.2-1.3,2-1.9c0.8-0.5,1.6-0.9,2.5-1.3
					c0.7-0.3,1.4-0.5,2.1-0.8c0.3-0.1,0.5-0.2,0.8-0.3c1.8-0.7,3.2-1.4,4.4-2.4c0.1-0.1,0.1-0.1,0.1-0.1l1-0.6l0.2,1.1
					c0,0.1,0,0.2,0,0.3c0,0.2,0.1,0.4,0.1,0.6c0,0.2,0.1,0.4,0.1,0.6c0.1,0.7,0.2,1.4,0.2,2.1c0.3,2.8,0.3,4.9,0,6.9
					c-0.1,0.9-0.3,1.7-0.5,2.5c-0.3,0.9-0.8,1.8-1.6,2.7c-1,1.1-2.1,1.9-3.4,2.5C97.2,22,96.7,22.1,96.3,22.2z M92.9,20.6L92.9,20.6
					l0.2,0c0.2,0,0.3,0.1,0.4,0.1c0.8,0.2,1.7,0.1,2.5-0.1c0.3-0.1,0.7-0.2,1-0.3c1.1-0.5,2-1.1,2.8-2.1c0.7-0.8,1.1-1.5,1.3-2.2
					c0.2-0.7,0.4-1.4,0.5-2.2c0.2-1.9,0.2-3.9,0-6.5c-0.1-0.7-0.1-1.4-0.2-2.1c0-0.1,0-0.2,0-0.3c-1.1,0.7-2.4,1.4-3.8,1.9
					c-0.3,0.1-0.5,0.2-0.8,0.3c-0.7,0.2-1.4,0.5-2,0.8c-0.8,0.3-1.5,0.7-2.2,1.2c-0.7,0.5-1.2,0.9-1.6,1.5c-0.3,0.5-0.6,1-0.9,1.7
					c-0.6,1.7-0.7,3.2-0.3,4.8c0.2,0.8,0.7,1.5,1.2,2.2C91.3,19.9,92.5,20.6,92.9,20.6z"/>
			</g>
		</g>
		<g>
			<path class="st1" d="M90.5,20.1C90.5,20.1,90.6,20.1,90.5,20.1c0.3-0.4,0.4-0.8,0.7-1.2c0.4-0.8,1-1.4,1.5-2.1
				c1.3-1.6,2.7-3,4.1-4.4c0.1-0.1,0.2-0.2,0.3-0.3c0,0,0,0,0,0c-2.3,2.6-4.2,5.5-5.8,8.6"/>
		</g>
		<g>
			<path class="st1" d="M91.4,21.1c-0.7,1.2-1.2,2.9-1.2,2.9c-0.1,0.5-0.5,0.8-0.8,0.8c-0.3,0-1-0.4-0.8-0.8c0,0,0.9-2.3,1.6-3.8"/>
		</g>
	</g>
</g>
<path class="st2" d="M29,42.3c-0.8,0-1.3,0-1.5,0c-0.4-1.5-0.8-4.8-1-9.9c-0.1-3.5-0.2-6.4-0.2-8.8c0-0.5,0-0.9,0-1.4
	c0.5-0.2,1-0.3,1.4-0.3c0.8,0,1.3,0.1,1.6,0.1c0.3,1.7,0.5,4.8,0.8,9c0.1,4.1,0.2,7.2,0.2,9.4v1.5C30,42.2,29.6,42.3,29,42.3z
	 M55.8,37.9c-0.5,2.6-1,4.1-1.3,4.3c-1.5,0-2.3-0.2-2.7-0.6c0.7-4.9,1-8,1-9.4c0-1.2-0.2-2.3-0.6-3.2c-0.7-1-1.5-1.5-2.4-1.6
	c-1.6,0.1-3.9,1.7-7.1,5.1c-1.9-4.8-4-7.2-6.1-7.2c-1.5,0-2.9,0.8-4.4,2.5c-0.1-0.1-0.4-0.5-0.7-1.1c-0.3-0.6-0.5-1.1-0.5-1.4
	c1.6-2.3,3.5-3.4,5.8-3.5c2.7,0,5,2,6.8,6c2-2.5,4.1-3.8,6.2-3.8c2.2,0,3.9,1,5.2,2.9c0.9,1.5,1.3,3.3,1.3,5.4
	C56.3,34.6,56.1,36.4,55.8,37.9z"/>
<path class="st3" d="M72,24.6c-0.2,0.5-0.4,0.8-0.6,1c-1.3-0.6-2.5-1-3.7-1c-2.1,0-3.9,0.9-5.3,2.7c-1.1,1.5-1.7,3.1-1.7,5
	c0,1.8,0.6,3.5,1.8,5c1.3,1.4,2.8,2,4.6,2c0.9,0,1.7-0.1,2.6-0.4c0.5,0.7,0.7,1.6,0.8,2.5c-0.9,0.6-2.1,0.9-3.4,0.9
	c-3,0-5.3-0.9-7.2-2.9c-1.9-2-2.8-4.5-2.8-7.2c0-2.8,0.9-5.2,2.6-7.3c2-2.2,4.6-3.3,7.8-3.4c1.9,0,3.6,0.5,5,1.5
	C72.5,23.7,72.3,24.2,72,24.6z M76.7,37.4c-1.1,1.6-2.4,2.6-3.9,3.1c-0.4-0.6-0.6-1-0.7-1.2C72,39,71.8,38.6,71.4,38
	c0.9-0.6,1.7-1.4,2.5-2.5c0.7-1,1-2.1,1-3.3c0-2.1-0.7-4-2.2-5.8c0.5-0.9,1.2-1.6,2.1-1.9c2.3,2,3.4,4.6,3.4,7.8
	C78.3,34.2,77.7,35.9,76.7,37.4z"/>
<path class="st3" d="M91.6,24.6c-0.2,0.5-0.4,0.8-0.6,1c-1.3-0.6-2.5-1-3.7-1c-2.1,0-3.9,0.9-5.3,2.7c-1.1,1.5-1.7,3.1-1.7,5
	c0,1.8,0.6,3.5,1.8,5c1.3,1.4,2.8,2,4.6,2c0.9,0,1.7-0.1,2.6-0.4c0.5,0.7,0.7,1.6,0.8,2.5c-0.9,0.6-2.1,0.9-3.4,0.9
	c-3,0-5.3-0.9-7.2-2.9c-1.9-2-2.8-4.5-2.8-7.2c0-2.8,0.9-5.2,2.6-7.3c2-2.2,4.6-3.3,7.8-3.4c1.9,0,3.6,0.5,5,1.5
	C92.1,23.7,91.9,24.2,91.6,24.6z M96.3,37.4c-1.1,1.6-2.4,2.6-3.9,3.1c-0.4-0.6-0.6-1-0.7-1.2C91.6,39,91.4,38.6,91,38
	c0.9-0.6,1.7-1.4,2.5-2.5c0.7-1,1-2.1,1-3.3c0-2.1-0.7-4-2.2-5.8c0.5-0.9,1.2-1.6,2.1-1.9c2.3,2,3.4,4.6,3.4,7.8
	C97.9,34.2,97.3,35.9,96.3,37.4z"/>
<path class="st3" d="M111.2,24.6c-0.2,0.5-0.4,0.8-0.6,1c-1.3-0.6-2.5-1-3.7-1c-2.1,0-3.9,0.9-5.3,2.7c-1.1,1.5-1.7,3.1-1.7,5
	c0,1.8,0.6,3.5,1.8,5c1.3,1.4,2.8,2,4.6,2c0.9,0,1.7-0.1,2.6-0.4c0.5,0.7,0.7,1.6,0.8,2.5c-0.9,0.6-2.1,0.9-3.4,0.9
	c-3,0-5.3-0.9-7.2-2.9c-1.9-2-2.8-4.5-2.8-7.2c0-2.8,0.9-5.2,2.6-7.3c2-2.2,4.6-3.3,7.8-3.4c1.9,0,3.6,0.5,5,1.5
	C111.7,23.7,111.5,24.2,111.2,24.6z M115.9,37.4c-1.1,1.6-2.4,2.6-3.9,3.1c-0.4-0.6-0.6-1-0.7-1.2c-0.1-0.2-0.3-0.6-0.7-1.2
	c0.9-0.6,1.7-1.4,2.5-2.5c0.7-1,1-2.1,1-3.3c0-2.1-0.7-4-2.2-5.8c0.5-0.9,1.2-1.6,2.1-1.9c2.3,2,3.4,4.6,3.4,7.8
	C117.5,34.2,117,35.9,115.9,37.4z"/>
<path class="st3" d="M111.2,24.6c-0.2,0.5-0.4,0.8-0.6,1c-1.3-0.6-2.5-1-3.7-1c-2.1,0-3.9,0.9-5.3,2.7c-1.1,1.5-1.7,3.1-1.7,5
	c0,1.8,0.6,3.5,1.8,5c1.3,1.4,2.8,2,4.6,2c0.9,0,1.7-0.1,2.6-0.4c0.5,0.7,0.7,1.6,0.8,2.5c-0.9,0.6-2.1,0.9-3.4,0.9
	c-3,0-5.3-0.9-7.2-2.9c-1.9-2-2.8-4.5-2.8-7.2c0-2.8,0.9-5.2,2.6-7.3c2-2.2,4.6-3.3,7.8-3.4c1.9,0,3.6,0.5,5,1.5
	C111.7,23.7,111.5,24.2,111.2,24.6z M115.9,37.4c-1.1,1.6-2.4,2.6-3.9,3.1c-0.4-0.6-0.6-1-0.7-1.2c-0.1-0.2-0.3-0.6-0.7-1.2
	c0.9-0.6,1.7-1.4,2.5-2.5c0.7-1,1-2.1,1-3.3c0-2.1-0.7-4-2.2-5.8c0.5-0.9,1.2-1.6,2.1-1.9c2.3,2,3.4,4.6,3.4,7.8
	C117.5,34.2,117,35.9,115.9,37.4z"/>
<path class="st2" d="M124.2,22.1c3.2,0,5.5,0.1,6.9,0.4c0,0.4,0,0.9,0.1,1.3c0,0.6,0,1-0.1,1.3c-0.3,0.1-1.2,0.2-2.6,0.3
	c-1.5,0.1-3,0.1-4.6,0.1c-0.3,6.7-0.5,11-0.5,12.9c0,0.5,0.2,0.7,0.8,0.7c0.1,0,0.7-0.1,1.6-0.1c1.2-0.2,2.2-0.4,3-0.5
	c0.2,0.3,0.3,0.8,0.3,1.5c0,0.2,0,0.5,0,1c-1.8,1-3.8,1.4-6.1,1.4c-1.3,0-2.2-0.3-2.7-1.1c-0.4-0.5-0.6-1.4-0.6-2.5
	c0-2.8,0.1-7.3,0.5-13.3c-1.7,0-3.3-0.1-4.7-0.4c-0.1-0.2-0.1-0.7-0.1-1.4c0-0.5,0-1,0.1-1.4c1.7-0.1,3.4-0.2,4.9-0.2
	c0.3-3.9,0.6-7.6,0.9-11.1c0.7,0,1.7,0.1,3.2,0.2C124.5,14.8,124.4,18.5,124.2,22.1z"/>
<path class="st2" d="M133.8,41.9c-0.2,0.2-0.7,0.3-1.6,0.3c-0.9,0-1.4,0-1.6,0c-0.4-0.7-0.5-6.9-0.5-18.5c0-8.6,0-13.2,0.2-13.8
	c0.2,0,0.8-0.1,1.6-0.1c0.3,0,0.8,0.1,1.6,0.2c0,0.7,0,4.8,0.2,12.4c0,7.4,0.1,11.7,0.1,13C133.9,39.4,133.8,41.6,133.8,41.9z
	 M149.3,42.2c-1.2,0-2.1-0.2-2.8-0.8c0.8-3.9,1.3-6.9,1.3-9c0-2.3-0.4-4-1.2-5.2c-0.9-1.2-2.3-1.8-4.3-1.8c-1.6,0-3.6,0.5-6.1,1.6
	c-0.4-0.7-0.7-1.5-0.9-2.6c1.9-1.6,4.3-2.4,7.1-2.5c3,0.1,5.2,1.1,6.8,3c1.4,1.8,2.1,4.3,2.1,7.4C151.2,36.8,150.5,40.1,149.3,42.2z
	"/>
<path class="st2" d="M29,16.6c-0.3,0.5-0.6,0.9-1.1,1c-5-3.1-9.4-4.6-13.2-4.6c-5,0.1-7.7,1.8-7.9,5c0.1,1.6,1.2,3.1,3.5,4.4
	c1,0.6,3.9,1.9,8.7,3.8c4.2,1.9,6.4,4.6,6.4,8.1c-0.2,5.2-3.8,7.9-10.6,8.1c-4.5-0.1-8.3-2-11.4-5.9c0.1-0.4,0.3-0.9,0.8-1.3
	c0.2-0.2,0.6-0.5,1.3-0.8c2.7,3.1,5.8,4.6,9.3,4.6c4.5,0,6.7-1.6,6.9-4.8c0-2.4-1.8-4.3-5.4-5.7c-4.2-1.6-7-2.8-8.5-3.8
	c-3.1-1.8-4.7-4.1-4.7-6.8c0.4-5.4,4.2-8.2,11.5-8.2c2.1,0,4.6,0.5,7.5,1.5c3,1.1,5.4,2.5,7.3,4.1C29.6,15.7,29.4,16.1,29,16.6z"/>
<g>
	<g>
		<path class="st3" d="M162.2,54.6c0.5-0.6,0.7-1.2,0.7-1.9c0.1-0.1,0.1-0.2,0.2-0.3c0.3-0.8,0.3-1.7,0.2-2.5c0-0.3-0.1-0.5-0.3-0.7
			c0.1-0.1,0.1-0.3,0.2-0.4c0,0,0-0.1,0-0.1c0.8,0.8,1.4,1.7,1.6,2.8c0.3,1.4-0.1,2.8-1.1,4.1c-0.5,0.6-1,1-1.7,1.2
			c-0.4-0.3-0.8-0.7-1-1.2C161.5,55.3,161.9,54.9,162.2,54.6z"/>
		<path class="st3" d="M162,56.9L162,56.9c-0.6-0.5-0.9-0.8-1.1-1.3l-0.1-0.1l0.1-0.1c0.4-0.3,0.8-0.6,1.1-1
			c0.4-0.6,0.6-1.1,0.6-1.8v-0.1l0-0.1c0.1-0.1,0.1-0.2,0.1-0.2c0.3-0.8,0.3-1.7,0.2-2.4c0-0.2-0.1-0.4-0.3-0.5l-0.1-0.1l0.1-0.1
			c0.1-0.1,0.1-0.2,0.1-0.4c0,0,0,0,0-0.1l0-0.4l0.3,0.2c0.8,0.8,1.4,1.8,1.7,2.9c0.3,1.5,0,2.9-1.1,4.3
			C163.3,56.3,162.7,56.7,162,56.9L162,56.9z M161.3,55.6c0.2,0.3,0.4,0.6,0.8,0.9c0.5-0.2,1-0.6,1.5-1.1c1-1.3,1.4-2.6,1-3.9
			c-0.2-0.9-0.7-1.7-1.3-2.4c0,0,0,0.1-0.1,0.1c0.2,0.2,0.3,0.4,0.3,0.7c0.1,0.7,0.1,1.7-0.3,2.6c0,0.1-0.1,0.2-0.2,0.3
			c0,0.7-0.3,1.4-0.7,2C162.1,55,161.7,55.4,161.3,55.6z"/>
	</g>
	<g>
		<path class="st3" d="M153.3,49.2c1-1.1,2.1-1.9,3.5-2.2c-0.1,0.1-0.3,0.2-0.3,0.4c-0.1,0.3-0.1,0.6-0.2,0.9
			c-0.7,0.1-1,0.7-0.8,1.2c-0.3,0.2-0.5,0.4-0.7,0.7c-0.4,0.5-0.7,1.2-0.8,1.9c-0.2,0-0.4,0-0.7,0c-0.4,0-0.7-0.1-1-0.2
			C152.3,50.9,152.6,50,153.3,49.2z"/>
		<path class="st3" d="M153.8,52.3c-0.1,0-0.3,0-0.6-0.1c0,0,0,0,0,0c-0.4,0-0.7-0.1-1-0.2l-0.1-0.1l0-0.1c0-0.9,0.3-1.9,1-2.8
			c1-1.2,2.2-1.9,3.6-2.3l0.8-0.2l-0.7,0.5c-0.1,0.1-0.2,0.2-0.2,0.3c0,0.2-0.1,0.4-0.1,0.6l-0.1,0.4l-0.1,0c-0.3,0-0.5,0.2-0.6,0.3
			c-0.1,0.2-0.1,0.4-0.1,0.6l0,0.1l-0.1,0.1c-0.3,0.2-0.5,0.4-0.7,0.6c-0.4,0.5-0.6,1.1-0.8,1.9l0,0.1l-0.1,0
			C153.9,52.3,153.9,52.3,153.8,52.3z M152.5,51.7c0.2,0.1,0.5,0.2,0.8,0.2c0.3,0,0.4,0.1,0.6,0.1c0,0,0,0,0,0
			c0.1-0.8,0.4-1.4,0.8-1.9c0.2-0.2,0.4-0.4,0.7-0.6c-0.1-0.3,0-0.6,0.1-0.8c0.2-0.3,0.4-0.4,0.7-0.5l0-0.2c0-0.2,0.1-0.4,0.1-0.6
			c0,0,0,0,0-0.1c-1.1,0.4-2.1,1.1-2.9,2C152.8,50.1,152.5,50.9,152.5,51.7z"/>
	</g>
	<g>
		<path class="st3" d="M153.9,53c0.4,1.2,1.1,2.1,2.1,2.8c0.6,0.4,1.2,0.5,2,0.6c0.8,0,1.5-0.1,2.1-0.3c0.2,0.3,0.3,0.6,0.3,0.7
			c0.1,0.1,0.2,0.3,0.3,0.7c-0.7,0.5-1.7,0.8-2.9,0.8c-1.1,0-2.1-0.3-3-0.8c-1.6-1-2.4-2.3-2.7-4C152.7,53.1,153.3,52.9,153.9,53z"
			/>
		<path class="st3" d="M157.9,58.3L157.9,58.3c-1.1,0-2.2-0.3-3.1-0.9c-1.6-1-2.5-2.4-2.7-4.1l0-0.1l0.1-0.1
			c0.5-0.3,1.1-0.4,1.8-0.4l0.1,0l0,0.1c0.3,1.1,1,2,2,2.7c0.5,0.3,1.1,0.5,1.9,0.5c0.8,0,1.5-0.1,2-0.3l0.2-0.1l0.2,0.5
			c0.1,0.2,0.1,0.3,0.2,0.3c0.1,0.1,0.2,0.3,0.4,0.7l0.1,0.1l-0.1,0.1C160,58.1,159,58.3,157.9,58.3L157.9,58.3z M152.5,53.4
			c0.2,1.6,1.1,2.8,2.6,3.7c0.8,0.5,1.8,0.8,2.9,0.8c1,0,1.9-0.2,2.6-0.7c-0.1-0.2-0.2-0.4-0.3-0.5c-0.1-0.1-0.1-0.2-0.2-0.4
			l-0.1-0.2c-0.6,0.2-1.2,0.3-2,0.3c-0.8,0-1.5-0.2-2.1-0.6c-1-0.7-1.7-1.6-2.1-2.8C153.3,53.1,152.8,53.2,152.5,53.4z"/>
	</g>
	<g>
		<path class="st3" d="M164.7,52.1c0,0-1.6-11.9-8.1-12.9c0,0,1.2,6.6-3.3,9.9l1.6,0.9c0,0,4.8-3.7,3.7-8.2c0,0,4.7,4.7,4.3,8.9"/>
		<path class="st3" d="M164.5,52.2c0-0.1-1.7-11.4-7.7-12.7c0.1,0.5,0.2,1.9,0,3.5c-0.3,2.6-1.4,4.8-3.2,6.1l1.2,0.7
			c0.7-0.5,4.5-3.9,3.5-7.9l-0.1-0.6l0.5,0.5c0.2,0.2,4.8,4.8,4.3,9.1l-0.4,0c0.3-3.3-2.7-7.1-3.8-8.3c0.5,4.3-3.8,7.7-3.9,7.7
			l-0.1,0.1l-1.9-1.1l0.2-0.2c4.4-3.2,3.3-9.7,3.3-9.7l0-0.3l0.3,0c2.7,0.4,5,2.8,6.6,6.9c1.2,3.1,1.6,6.1,1.6,6.1L164.5,52.2z"/>
	</g>
	<g>
		<path class="st3" d="M163.5,50.7l-0.6-1.2c0,0,0.5,4.2-1.5,6c0,0,0.6,0.5,0.7,0.4c0.1-0.1,1.6-3.1,1.6-3.1"/>
		<path class="st3" d="M162,56c-0.1,0-0.4-0.1-0.8-0.4l-0.2-0.1l0.2-0.1c1.9-1.6,1.5-5.8,1.5-5.8l-0.1-1l1.1,2.1l-0.3,0.2l-0.2-0.4
			c0,1.3-0.1,3.7-1.5,5.1c0.1,0.1,0.3,0.2,0.4,0.2c0.2-0.3,1-1.9,1.5-3l0.3,0.2c-1.5,3-1.6,3.1-1.6,3.1C162.2,55.9,162.1,56,162,56z
			"/>
	</g>
	<g>
		<path class="st3" d="M161.1,42.9h0.5c0,0,3,3.7,3.3,9.2l-0.5-0.2"/>
		<path class="st3" d="M165.1,52.4l-0.8-0.3l0.1-0.3l0.2,0.1c-0.4-4.9-2.8-8.2-3.2-8.7h-0.4v-0.4h0.6l0.1,0.1c0,0,3.1,3.8,3.4,9.3
			L165.1,52.4z"/>
	</g>
</g>
<g>
	<path class="st1" d="M180.8,37c-0.6-0.9-1.3-1.5-2.2-1.8c-0.1-0.1-0.2-0.3-0.3-0.4c-0.9-0.8-2-1.2-3.1-1.5c-0.3-0.1-0.7-0.1-1,0.1
		c-0.1-0.2-0.3-0.3-0.5-0.4c0,0-0.1,0-0.1-0.1c1.4-0.7,2.8-1,4.3-0.8c2,0.3,3.6,1.4,4.8,3.3c0.6,0.9,0.9,1.8,0.8,2.7
		c-0.7,0.4-1.3,0.7-1.9,0.7C181.5,38.2,181.2,37.5,180.8,37z"/>
	<path class="st1" d="M169.7,46c-1-1.8-1.5-3.6-1.3-5.5c0.1,0.2,0.2,0.4,0.4,0.6c0.3,0.2,0.7,0.4,1.1,0.6c-0.2,1,0.5,1.6,1.2,1.6
		c0.1,0.4,0.3,0.8,0.5,1.2c0.5,0.8,1.2,1.4,2.1,1.9c0,0.2-0.2,0.5-0.4,0.9c-0.2,0.5-0.4,0.8-0.7,1.1C171.5,48.1,170.5,47.3,169.7,46
		z"/>
	<path class="st1" d="M175,47c1.7,0.1,3.2-0.4,4.6-1.4c0.7-0.6,1.3-1.3,1.6-2.3c0.4-1,0.5-2,0.5-2.8c0.5-0.1,0.9-0.1,1-0.1
		c0.2-0.1,0.5-0.1,1.1-0.1c0.3,1.2,0.2,2.6-0.3,4.1c-0.5,1.4-1.4,2.6-2.5,3.4c-2,1.6-4.2,2.1-6.4,1.6C174.5,48.5,174.6,47.8,175,47z
		"/>
	<path class="st1" d="M178.9,32.6c0,0-16.1-3.4-20.4,4.5c0,0,9.1,1.5,11.3,8.9l1.8-1.6c0,0-2.5-7.9-8.9-8.6c0,0,8.3-3.9,13.6-1.4"/>
	<path class="st1" d="M176.4,33.5l-1.9,0.2c0,0,5.7,1.3,7,4.7c0,0,0.9-0.6,0.8-0.8c-0.1-0.2-3.3-3.5-3.3-3.5"/>
	<path class="st1" d="M165.3,33l0.2-0.6c0,0,6.2-2.2,13.5,0l-0.5,0.5"/>
</g>
<g>
	<g>
		<path class="st0" d="M168.2,17.2c-0.8,0-1.4,0.1-2,0.5c-0.1,0-0.2,0-0.3,0c-0.8,0.2-1.5,0.7-2.2,1.2c-0.2,0.2-0.3,0.4-0.4,0.6
			c-0.2,0-0.3,0-0.5,0.1c0,0-0.1,0-0.1,0c0.2-1.1,0.6-2.1,1.4-2.9c1-1.1,2.3-1.5,4-1.4c0.8,0,1.4,0.3,2,0.6c0,0.6-0.2,1-0.4,1.4
			C169.2,17.4,168.7,17.3,168.2,17.2z"/>
		<path class="st0" d="M162.6,20.1l0-0.3c0.2-1.1,0.6-2.2,1.4-3c1-1.1,2.4-1.6,4.1-1.5c0.8,0,1.5,0.3,2.1,0.7l0.1,0.1l0,0.1
			c0,0.6-0.2,1.1-0.4,1.5l-0.1,0.1l-0.1-0.1c-0.5-0.2-1-0.3-1.4-0.3c-0.7,0-1.3,0.1-1.8,0.5l-0.1,0l-0.1,0c-0.1,0-0.2,0-0.3,0
			c-0.9,0.2-1.6,0.8-2.1,1.2c-0.2,0.1-0.3,0.3-0.3,0.5l0,0.1l-0.2,0c-0.1,0-0.3,0-0.4,0.1L162.6,20.1z M167.7,15.7
			c-1.4,0-2.6,0.5-3.4,1.4c-0.6,0.7-1.1,1.5-1.2,2.5c0,0,0.1,0,0.1,0c0.1-0.2,0.2-0.4,0.4-0.6c0.6-0.5,1.3-1,2.3-1.3
			c0.1,0,0.2,0,0.3,0c0.6-0.4,1.2-0.6,2-0.5c0.5,0,0.9,0.1,1.4,0.3c0.2-0.3,0.3-0.7,0.3-1.1c-0.5-0.3-1.1-0.5-1.8-0.6
			C168,15.7,167.8,15.7,167.7,15.7z"/>
	</g>
	<g>
		<path class="st0" d="M168.8,27.6c-1.5-0.1-2.8-0.7-3.8-1.6c0.2,0.1,0.4,0.1,0.5,0c0.3-0.1,0.5-0.2,0.8-0.4c0.5,0.5,1.1,0.4,1.5,0
			c0.3,0.1,0.6,0.2,1,0.2c0.7,0,1.4-0.1,2.1-0.4c0.1,0.1,0.2,0.3,0.4,0.6c0.2,0.3,0.3,0.6,0.4,0.9C170.8,27.5,169.9,27.7,168.8,27.6
			z"/>
		<path class="st0" d="M169.2,27.8c-0.1,0-0.2,0-0.3,0c-1.5-0.1-2.8-0.7-3.9-1.6l-0.6-0.6l0.8,0.2c0.2,0.1,0.3,0.1,0.4,0
			c0.2-0.1,0.4-0.2,0.5-0.2l0.4-0.2l0.1,0.1c0.3,0.4,0.9,0.3,1.2,0l0.1-0.1l0.1,0c0.3,0.1,0.6,0.2,0.9,0.2c0.6,0,1.3-0.1,2-0.4
			l0.1-0.1l0.1,0.1c0.1,0.1,0.3,0.4,0.4,0.7c0.2,0.3,0.3,0.6,0.4,1l0,0.1l-0.1,0.1C171,27.6,170.2,27.8,169.2,27.8z M165.6,26.2
			c0.9,0.7,2,1.1,3.3,1.2c0.1,0,0.2,0,0.3,0c0.9,0,1.6-0.2,2.2-0.6c0-0.3-0.1-0.5-0.3-0.7c-0.1-0.2-0.2-0.4-0.3-0.5
			c-0.7,0.3-1.3,0.4-2,0.4c-0.3,0-0.6-0.1-0.9-0.2c-0.4,0.4-1.1,0.5-1.6,0.1l-0.2,0.1C166,26.1,165.8,26.1,165.6,26.2
			C165.6,26.2,165.6,26.2,165.6,26.2z"/>
	</g>
	<g>
		<path class="st0" d="M171.6,24.9c0.8-1,1.1-2.1,1.1-3.3c0-0.7-0.2-1.3-0.6-1.9c-0.5-0.6-0.9-1.2-1.5-1.5c0.2-0.3,0.3-0.5,0.4-0.7
			c0-0.1,0.2-0.4,0.4-0.7c0.8,0.3,1.6,1,2.3,1.9c0.6,0.9,0.9,1.9,1,2.9c0.1,1.9-0.5,3.3-1.8,4.5C172.3,25.9,171.9,25.5,171.6,24.9z"
			/>
		<path class="st0" d="M172.9,26.3l-0.1-0.1c-0.5-0.2-1-0.6-1.3-1.2l-0.1-0.1l0.1-0.1c0.7-0.9,1.1-2,1.1-3.2c0-0.6-0.2-1.2-0.6-1.8
			c-0.4-0.6-0.9-1.1-1.4-1.5l-0.1-0.1l0.3-0.5c0.1-0.2,0.1-0.3,0.2-0.3c0-0.1,0.2-0.3,0.4-0.7l0.1-0.1l0.1,0.1c0.9,0.3,1.7,1,2.3,2
			c0.6,1,1,2,1,3C174.9,23.5,174.3,25.1,172.9,26.3L172.9,26.3z M171.8,25c0.3,0.4,0.6,0.7,1,0.9c1.2-1.1,1.7-2.5,1.6-4.2
			c0-1-0.4-1.9-1-2.8c-0.6-0.8-1.3-1.4-2-1.8c-0.1,0.2-0.2,0.4-0.3,0.5c0,0.1-0.1,0.2-0.2,0.4l-0.1,0.2c0.5,0.4,0.9,0.9,1.4,1.5
			c0.4,0.7,0.7,1.3,0.7,2C173,22.9,172.6,24,171.8,25z"/>
	</g>
	<g>
		<path class="st0" d="M164.8,16.5c0,0-8.8,8.1-6,14c0,0,4.8-4.8,10-2.9l-0.2-1.8c0,0-5.7-1.8-8.8,1.6c0,0,1.2-6.6,4.9-8.6"/>
		<path class="st0" d="M158.7,30.8l-0.1-0.2c-1.2-2.5-0.5-5.7,1.9-9.4c1.8-2.7,4.1-4.8,4.1-4.8l0.3,0.3c-0.1,0.1-8.4,7.9-6,13.5
			c0.4-0.4,1.4-1.3,2.9-2c2.4-1.2,4.7-1.5,6.9-0.9l-0.1-1.4c-0.8-0.2-5.8-1.4-8.5,1.6l-0.4,0.5l0.1-0.6c0.1-0.3,1.3-6.7,5-8.7
			l0.2,0.3c-2.9,1.6-4.3,6.2-4.7,7.9c3.2-2.9,8.5-1.2,8.6-1.2l0.1,0l0.2,2.2l-0.3-0.1c-5.1-1.8-9.8,2.8-9.9,2.9L158.7,30.8z"/>
	</g>
	<g>
		<path class="st0" d="M164.2,18.4l-0.6,1.2c0,0,3.2-2.8,5.8-2.1c0,0,0-0.8-0.1-0.8c-0.1-0.1-3.4,0.5-3.4,0.5"/>
		<path class="st0" d="M163,20.4l1.1-2.1l0.3,0.2l-0.2,0.4c1.1-0.8,3.1-2,5-1.7c0-0.2,0-0.3,0-0.4c-0.3,0-2.2,0.3-3.3,0.5l-0.1-0.4
			c3.3-0.5,3.5-0.5,3.5-0.5c0.1,0,0.3,0.1,0.2,1l0,0.2l-0.2-0.1c-2.4-0.6-5.6,2.1-5.6,2.1L163,20.4z"/>
	</g>
	<g>
		<path class="st0" d="M159.3,24.8l-0.3-0.4c0,0,1.3-4.6,5.7-8l0.1,0.5"/>
		<path class="st0" d="M159.1,24.9l-0.3-0.5l0-0.1c0,0,1.3-4.7,5.7-8.1l0.2-0.2l0.2,0.8l-0.4,0.1l0-0.2c-3.8,3.1-5.1,7-5.3,7.6
			l0.2,0.3L159.1,24.9z"/>
	</g>
</g>
</svg>
