<?xml version="1.0" encoding="utf-8"?>
<!-- Generator: Adobe Illustrator 21.1.0, SVG Export Plug-In . SVG Version: 6.00 Build 0)  -->
<!DOCTYPE svg PUBLIC "-//W3C//DTD SVG 1.1//EN" "http://www.w3.org/Graphics/SVG/1.1/DTD/svg11.dtd">
<svg version="1.1" id="Layer_1" xmlns="http://www.w3.org/2000/svg" xmlns:xlink="http://www.w3.org/1999/xlink" x="0px" y="0px"
	 viewBox="0 0 201 214" style="enable-background:new 0 0 201 214;" xml:space="preserve">
<style type="text/css">
	.st0{stroke:#FFFFFF;stroke-width:2;stroke-miterlimit:10;}
	.st1{stroke:#000000;stroke-width:0.5;stroke-miterlimit:10;}
	.st2{fill-rule:evenodd;clip-rule:evenodd;}
	.st3{fill-rule:evenodd;clip-rule:evenodd;fill:none;stroke:#000000;stroke-miterlimit:10;}
</style>
<g>
	<path d="M42.9,158.6l3.1-3.1l-3.2-3.2l2.7-2.7l-0.8-0.8c-0.1,0.1-0.2,0.3-0.3,0.4l0.4,0.4l-2.7,2.7l3.2,3.2l-0.5,0.5l0,0l-2.8,2.8
		l2.8,2.8l-2.8,2.8l2.3,2.3c0.4,0.3,0.8,0.6,1.1,1l0.3-0.3l-3-3l2.8-2.8l-2.8-2.8L42.9,158.6L42.9,158.6z"/>
	<path d="M39.9,158.6l3.1-3.1l-3.2-3.2l0.4-0.4c-0.3,0.1-0.6,0.2-0.9,0.2l-0.2,0.2l3.2,3.2l-0.5,0.5l0,0l-2.8,2.8l2.8,2.8l-1.9,1.9
		c0.1,0.1,0.3,0.2,0.4,0.3l2.2-2.2l-2.8-2.8L39.9,158.6L39.9,158.6z"/>
	<path d="M45.9,158.6l3.1-3.1l-3.2-3.2l2.7-2.7l-1.9-1.9c-0.3,0-0.5-0.1-0.8-0.1l2,2l-2.7,2.7l3.2,3.2l-0.5,0.5l0,0l-2.8,2.8
		l2.8,2.8l-2.8,2.8l3,3l-1.5,1.5c0.2,0,0.4,0,0.7,0c0,0,0.1,0,0.1,0l1.5-1.5l-3-3l2.8-2.8l-2.8-2.8L45.9,158.6L45.9,158.6z"/>
	<path d="M48.9,158.6l3.1-3.1l-3.2-3.2l2.7-2.7l-2-2c-0.2,0-0.4,0.1-0.6,0.1l1.9,1.9l-2.7,2.7l3.2,3.2l-0.5,0.5l0,0l-2.8,2.8
		l2.8,2.8l-2.8,2.8l3,3l-1.7,1.7c0.2,0,0.4,0.1,0.6,0.1l1.8-1.8l-3-3l2.8-2.8l-2.8-2.8L48.9,158.6L48.9,158.6z"/>
	<path d="M51.9,158.6l3.1-3.1l-3.2-3.2l2.7-2.7l-2.7-2.7l0.1-0.1c-0.2,0.1-0.4,0.2-0.6,0.3l2.5,2.5l-2.7,2.7l3.2,3.2l-0.5,0.5l0,0
		l-2.8,2.8l2.8,2.8l-2.8,2.8l3,3l-2.5,2.5c0.2,0.1,0.3,0.2,0.5,0.2l2.7-2.7l-3-3l2.8-2.8l-2.8-2.8L51.9,158.6L51.9,158.6z"/>
	<path d="M54.9,158.6l3.1-3.1l-3.2-3.2l2.7-2.7l-2.7-2.7l0.7-0.7c-0.2,0-0.4-0.1-0.6-0.1l-0.8,0.8l2.7,2.7l-2.7,2.7l3.2,3.2
		l-0.5,0.5l0,0l-2.8,2.8l2.8,2.8l-2.8,2.8l3,3l-2.8,2.8l1.6,1.6c0.2,0,0.4-0.1,0.6-0.1l-1.5-1.5l2.8-2.8l-3-3l2.8-2.8l-2.8-2.8
		L54.9,158.6L54.9,158.6z"/>
	<path d="M57.9,158.6l3.1-3.1l-3.2-3.2l2.7-2.7l-2.7-2.7l0.3-0.3c-0.2-0.1-0.3-0.2-0.4-0.3l-0.6,0.6l2.7,2.7l-2.7,2.7l3.2,3.2
		l-0.5,0.5l0,0l-2.8,2.8l2.8,2.8l-2.8,2.8l3,3l-2.8,2.8l1.5,1.5c0.3,0,0.6,0.1,0.8,0.1l-1.6-1.6l2.8-2.8l-3-3l2.8-2.8l-2.8-2.8
		L57.9,158.6L57.9,158.6z"/>
	<path d="M60.9,158.6l3.1-3.1l-3.2-3.2l2.7-2.7l-1.9-1.9c-0.3,0-0.6-0.1-0.8-0.1l2,2l-2.7,2.7l3.2,3.2l-0.5,0.5l0,0l-2.8,2.8
		l2.8,2.8l-2.8,2.8l3,3l-2.8,2.8l2.7,2.7l-0.1,0.1c0.1,0.1,0.3,0.2,0.4,0.3l0.4-0.4l-2.7-2.7l2.8-2.8l-3-3l2.8-2.8l-2.8-2.8
		L60.9,158.6L60.9,158.6z"/>
	<path d="M63.9,158.6l3.1-3.1l-3.2-3.2l2.7-2.7l-2-2c-0.2,0-0.4,0.1-0.6,0.1l1.9,1.9l-2.7,2.7l3.2,3.2l-0.5,0.5l0,0l-2.8,2.8
		l2.8,2.8l-2.8,2.8l3,3l-2.8,2.8l2.6,2.6c0.2-0.1,0.4-0.1,0.6-0.1l-2.5-2.5l2.8-2.8l-3-3l2.8-2.8l-2.8-2.8L63.9,158.6L63.9,158.6z"
		/>
	<path d="M66.9,158.6l3.1-3.1l-3.2-3.2l2.7-2.7l-2.6-2.6c-0.2,0.1-0.3,0.1-0.5,0.2l2.4,2.4l-2.7,2.7l3.2,3.2l-0.5,0.5l0,0l-2.8,2.8
		l2.8,2.8l-2.8,2.8l3,3l-2.8,2.8l2.2,2.2c0.2,0,0.3,0,0.5,0c0.1,0,0.1,0,0.2,0l-2.2-2.2l2.8-2.8l-3-3l2.8-2.8l-2.8-2.8L66.9,158.6
		L66.9,158.6z"/>
	<path d="M69.9,158.6l3.1-3.1l-3.2-3.2l2.7-2.7l-2.7-2.7l0.4-0.4c-0.1-0.1-0.3-0.2-0.4-0.3l-0.7,0.7l2.7,2.7l-2.7,2.7l3.2,3.2
		l-0.5,0.5l0,0l-2.8,2.8l2.8,2.8l-2.8,2.8l3,3l-2.8,2.8l2.6,2.6c0.2,0.1,0.5,0.2,0.7,0.2l0.1-0.1l-2.7-2.7l2.8-2.8l-3-3l2.8-2.8
		l-2.8-2.8L69.9,158.6L69.9,158.6z"/>
	<path d="M72.9,158.6l3.1-3.1l-3.2-3.2l2.7-2.7l-1.7-1.7c-0.3-0.1-0.6-0.1-0.9-0.2l1.9,1.9l-2.7,2.7l3.2,3.2l-0.5,0.5l0,0l-2.8,2.8
		l2.8,2.8l-2.8,2.8l3,3l-2.8,2.8l2.6,2.6c0.1-0.1,0.3-0.2,0.5-0.2l-2.4-2.4l2.8-2.8l-3-3l2.8-2.8l-2.8-2.8L72.9,158.6L72.9,158.6z"
		/>
	<path d="M75.9,158.6l3.1-3.1l-3.2-3.2l2.7-2.7l-0.5-0.5c-0.4-0.3-0.8-0.7-1.2-1.1c-0.2,0-0.4,0-0.6,0l1.6,1.6l-2.7,2.7l3.2,3.2
		l-0.5,0.5l0,0l-2.8,2.8l2.8,2.8l-2.8,2.8l3,3l-2.8,2.8l1.8,1.8c0.2,0,0.4-0.1,0.6-0.1l-1.6-1.6l2.8-2.8l-3-3l2.8-2.8l-2.8-2.8
		L75.9,158.6L75.9,158.6z"/>
	<path d="M78.9,158.6l3.1-3.1l-3.2-3.2l1.9-1.9c-0.2-0.1-0.4-0.1-0.5-0.2l-2.1,2.1l3.2,3.2l-0.5,0.5l0,0l-2.8,2.8l2.8,2.8l-2.8,2.8
		l3,3l-2.8,2.8l1.4,1.4c0,0,0,0,0,0c0.2,0,0.5,0,0.7,0l-1.4-1.4l2.8-2.8l-3-3l2.8-2.8l-2.8-2.8L78.9,158.6L78.9,158.6z"/>
	<path d="M81.9,158.6l3.1-3.1l-3.2-3.2l1.5-1.5c-0.2,0-0.5,0-0.7,0l-1.6,1.6l3.2,3.2l-0.5,0.5l0,0l-2.8,2.8l2.8,2.8l-2.8,2.8l3,3
		l-2.8,2.8l1.2,1.2c0.1-0.1,0.3-0.2,0.5-0.3l-1-1l2.8-2.8l-3-3l2.8-2.8l-2.8-2.8L81.9,158.6L81.9,158.6z"/>
	<path d="M84.9,158.6l3.1-3.1l-3.2-3.2l1.6-1.6c-0.1-0.1-0.2-0.2-0.3-0.2c-0.1,0-0.2,0-0.2,0.1l-1.8,1.8l3.2,3.2l-0.5,0.5l0,0
		l-2.8,2.8l2.8,2.8l-2.8,2.8l3,3l-2.8,2.8l0.3,0.3c0.2-0.1,0.4-0.1,0.6-0.1l-0.2-0.2l2.8-2.8l-3-3l2.8-2.8l-2.8-2.8L84.9,158.6
		L84.9,158.6z"/>
	<path d="M87.9,158.6l3.1-3.1l-3.2-3.2l0.5-0.5c-0.2-0.1-0.3-0.1-0.5-0.2l-0.7,0.7l3.2,3.2l-0.5,0.5l0,0l-2.8,2.8l2.8,2.8l-2.8,2.8
		l3,3l-2.5,2.5c0.2,0,0.5,0,0.8,0l2.5-2.5l-3-3l2.8-2.8l-2.8-2.8L87.9,158.6L87.9,158.6z"/>
	<path d="M90.9,158.6l3.1-3.1l-3.1-3.1c-0.3,0-0.6-0.1-0.8-0.1l3.2,3.2l-0.5,0.5l0,0l-2.8,2.8l2.8,2.8l-2.8,2.8l3,3l-2.6,2.6
		c0.2,0,0.4,0.1,0.5,0.1c0.1-0.1,0.2-0.1,0.3-0.2l2.5-2.5l-3-3l2.8-2.8l-2.8-2.8L90.9,158.6L90.9,158.6z"/>
	<path d="M93.9,158.6l3.1-3.1l-2.4-2.4c-0.3-0.1-0.6-0.1-0.9-0.2l2.7,2.7l-0.5,0.5l0,0l-2.8,2.8l2.8,2.8l-2.8,2.8l3,3l-1.3,1.3
		c0.3,0,0.5-0.1,0.8-0.1l1.2-1.2l-3-3l2.8-2.8l-2.8-2.8L93.9,158.6L93.9,158.6z"/>
	<path d="M96.9,158.6l3.1-3.1l-2.3-2.3c-0.2,0-0.4,0-0.7,0l2.3,2.3l-0.5,0.5l0,0l-2.8,2.8l2.8,2.8l-2.8,2.8l3,3l-1.3,1.3
		c0.2,0,0.4,0.1,0.6,0.1l1.4-1.4l-3-3l2.8-2.8l-2.8-2.8L96.9,158.6L96.9,158.6z"/>
	<path d="M99.9,158.6l3.1-3.1l-2.8-2.8c-0.1,0-0.2-0.1-0.3-0.1c-0.1,0-0.2,0.1-0.4,0.1l2.7,2.7l-0.5,0.5l0,0l-2.8,2.8l2.8,2.8
		l-2.8,2.8l3,3l-2,2c0.2,0.1,0.3,0.1,0.5,0.2l2.2-2.2l-3-3l2.8-2.8l-2.8-2.8L99.9,158.6L99.9,158.6z"/>
	<path d="M102.9,158.6l3.1-3.1l-2.6-2.6c-0.2,0-0.4,0-0.7,0l2.5,2.5l-0.5,0.5l0,0l-2.8,2.8l2.8,2.8l-2.8,2.8l3,3l-2.8,2.8l0.1,0.1
		c0.2,0,0.4-0.1,0.6-0.1l0,0l2.8-2.8l-3-3l2.8-2.8l-2.8-2.8L102.9,158.6L102.9,158.6z"/>
	<path d="M105.9,158.6l3.1-3.1l-3.1-3.1c-0.2,0.1-0.4,0.1-0.5,0.2l2.9,2.9l-0.5,0.5l0,0l-2.8,2.8l2.8,2.8l-2.8,2.8l3,3l-2.8,2.8
		c0.2,0,0.5,0,0.7,0.1l0,0l2.8-2.8l-3-3l2.8-2.8l-2.8-2.8L105.9,158.6L105.9,158.6z"/>
	<path d="M108.9,158.6l3.1-3.1l-2.8-2.8c-0.2,0-0.4,0-0.7,0l2.8,2.8l-0.5,0.5l0,0l-2.8,2.8l2.8,2.8l-2.8,2.8l3,3l-2.8,2.8l1.2,1.2
		c0.2,0,0.4,0,0.7,0l-1.2-1.2l2.8-2.8l-3-3l2.8-2.8l-2.8-2.8L108.9,158.6L108.9,158.6z"/>
	<path d="M111.9,158.6l3.1-3.1l-3.2-3.2l0,0c-0.2,0.1-0.4,0.1-0.6,0.2l3.1,3.1l-0.5,0.5l0,0l-2.8,2.8l2.8,2.8l-2.8,2.8l3,3l-2.8,2.8
		l1.4,1.4c0.3,0.1,0.7,0.2,1,0.3l-1.6-1.6l2.8-2.8l-3-3l2.8-2.8l-2.8-2.8L111.9,158.6L111.9,158.6z"/>
	<path d="M114.9,158.6l3.1-3.1l-2.8-2.8c-0.3,0-0.6-0.1-0.8-0.1l2.9,2.9l-0.5,0.5l0,0l-2.8,2.8l2.8,2.8l-2.8,2.8l3,3l-2.8,2.8
		l1.7,1.7c0.2,0,0.3,0,0.5,0c0.1,0,0.1,0,0.2,0l-1.7-1.7l2.8-2.8l-3-3l2.8-2.8l-2.8-2.8L114.9,158.6L114.9,158.6z"/>
	<path d="M117.9,158.6l3.1-3.1l-2.9-2.9c-0.2,0-0.4,0.1-0.6,0.1l2.8,2.8l-0.5,0.5l0,0l-2.8,2.8l2.8,2.8l-2.8,2.8l3,3l-2.8,2.8
		l1.9,1.9c0.2-0.1,0.3-0.1,0.5-0.2l-1.7-1.7l2.8-2.8l-3-3l2.8-2.8l-2.8-2.8L117.9,158.6L117.9,158.6z"/>
	<path d="M120.9,158.6l3.1-3.1l-2.6-2.6c-0.4-0.1-0.7-0.2-1-0.3l2.9,2.9l-0.5,0.5l0,0l-2.8,2.8l2.8,2.8l-2.8,2.8l3,3l-2.8,2.8
		l1.3,1.3c0.2,0,0.4,0,0.6-0.1l-1.2-1.2l2.8-2.8l-3-3l2.8-2.8l-2.8-2.8L120.9,158.6L120.9,158.6z"/>
	<path d="M123.9,158.6l3.1-3.1l-2.3-2.3c-0.2,0-0.4,0-0.7,0l2.3,2.3l-0.5,0.5l0,0l-2.8,2.8l2.8,2.8l-2.8,2.8l3,3l-2.8,2.8l1.3,1.3
		c0.3,0,0.6,0.1,0.9,0.2l-1.4-1.4l2.8-2.8l-3-3l2.8-2.8l-2.8-2.8L123.9,158.6L123.9,158.6z"/>
	<path d="M126.9,158.6l3.1-3.1l-2.7-2.7c-0.1,0-0.1,0-0.2,0c-0.1,0-0.3,0.1-0.5,0.1l2.6,2.6l-0.5,0.5l0,0l-2.8,2.8l2.8,2.8l-2.8,2.8
		l3,3l-2.8,2.8l0.5,0.5c0.1-0.1,0.3-0.2,0.4-0.3l-0.1-0.1l2.8-2.8l-3-3l2.8-2.8l-2.8-2.8L126.9,158.6L126.9,158.6z"/>
	<path d="M132.5,161.6l-2.8-2.8l0.2-0.2l0,0l2-2c-0.2-0.1-0.3-0.2-0.5-0.3l-2.4,2.4l2.8,2.8l-2.8,2.8l3,3l-1.4,1.4
		c0.3-0.1,0.5-0.1,0.8-0.1l1.3-1.3l-3-3L132.5,161.6z"/>
</g>
<path class="st0" d="M106.1,171.6c0-0.2-0.3-1.6,0.9-3.2c1.8-2.3,5.7-3.5,11.6-3.6c6.5-0.1,8-1.7,8-2.2c0-0.6-1.5-1.7-3.8-1.7
	c-14.2,0.4-18.4-5.6-18.6-5.8l1.7-1.1l-0.8,0.6l0.8-0.6c0,0.1,3.9,5.4,16.9,4.9c0,0,0,0,0,0c3.2,0,5.8,1.6,5.8,3.7
	c0,1.5-1.3,4-9.9,4.2c-6.9,0.2-9.3,1.8-10.1,2.8c-0.7,0.8-0.6,1.5-0.6,1.6L106.1,171.6z"/>
<path class="st0" d="M82.4,171.9c-0.5,0-0.9-0.5-1.1-0.8l0,0c-0.3-0.5-1.1-1.6-3.2-4.5c-4.6-6.4-17.1-8.1-22.7-4.6
	c-3.2,2-5.3,2.5-6.6,1.6c-1.5-1-1.6-3.3-1.2-6.4c0.6-4.9,0-7.8,0-7.9l2-0.4c0,0.1,0.7,3.3,0,8.6c-0.4,3.2-0.1,4.2,0.3,4.4
	c0.2,0.1,1.2,0.4,4.5-1.6c6.5-4,20.2-2.1,25.4,5.2c1.6,2.3,2.6,3.6,3.1,4.5l0,0c0,0,0.2,0.2,0.2,0.3l-0.1,0c0.5,1,0.3,1.1-0.1,1.4
	C82.8,171.8,82.6,171.9,82.4,171.9z"/>
<path class="st1" d="M106.1,171.6c0-0.2-0.3-1.6,0.9-3.2c1.8-2.3,5.7-3.5,11.6-3.6c6.5-0.1,8-1.7,8-2.2c0-0.6-1.5-1.7-3.8-1.7
	c-14.2,0.4-18.4-5.6-18.6-5.8l1.7-1.1l-0.8,0.6l0.8-0.6c0,0.1,3.9,5.4,16.9,4.9c0,0,0,0,0,0c3.2,0,5.8,1.6,5.8,3.7
	c0,1.5-1.3,4-9.9,4.2c-6.9,0.2-9.3,1.8-10.1,2.8c-0.7,0.8-0.6,1.5-0.6,1.6L106.1,171.6z"/>
<path class="st1" d="M82.4,171.9c-0.5,0-0.9-0.5-1.1-0.8l0,0c-0.3-0.5-1.1-1.6-3.2-4.5c-4.6-6.4-17.1-8.1-22.7-4.6
	c-3.2,2-5.3,2.5-6.6,1.6c-1.5-1-1.6-3.3-1.2-6.4c0.6-4.9,0-7.8,0-7.9l2-0.4c0,0.1,0.7,3.3,0,8.6c-0.4,3.2-0.1,4.2,0.3,4.4
	c0.2,0.1,1.2,0.4,4.5-1.6c6.5-4,20.2-2.1,25.4,5.2c1.6,2.3,2.6,3.6,3.1,4.5l0,0c0,0,0.2,0.2,0.2,0.3l-0.1,0c0.5,1,0.3,1.1-0.1,1.4
	C82.8,171.8,82.6,171.9,82.4,171.9z"/>
<g>
	<path class="st2" d="M38.8,154c0.3-0.1,0.5-0.1,0.8-0.1C39.4,153.9,39.1,153.9,38.8,154z"/>
	<path class="st2" d="M130.6,154.7c-0.3-0.1-0.6-0.2-0.9-0.3C130,154.5,130.3,154.6,130.6,154.7z"/>
	<path class="st2" d="M162.4,40.2C147.8,13,112.6,0.4,84.7,14.1C77,7.1,66.8,3.2,55.6,4c-24,1.7-43.4,23.9-43.4,49.7
		c0,2,0.1,4,0.4,5.9C-7.1,79,16.4,111.9,39.5,115c-2.4,13.9-4,28.2-4.8,42.8c0.1,0,0.1,0.1,0.2,0.1c0.5-1.8,1.7-3.3,3.7-3.9
		c0,0,0,0,0,0C49.3,54.6,68,113.8,94.9,72.3C82,80.9,44.3,86,31,54.6c1.5,12.1,5.9,20.3,16.5,25.8c-13,39.5-48.3-3.8-34.3-16.6
		c0.8,3.6,1.9,6.9,3.4,10.1c-1.2-3.5-2-7.3-2.4-11.3l0.1-0.1c-0.6-3.1,0.2-1.6-0.4-4.7l0-0.2c0-26,18.8-48.5,42-50.2
		c9.7-0.7,18.7,2.4,25.8,8.1c-2.9,1.6-5.7,3.6-8.4,5.9c-5.8,4.9-10.8-0.3-14.4-6.8c3.1,10.4,9.7,14.1,15.5,9.7
		c27.3-20.6,64.4-15.1,82.4,14c-0.3-0.1-0.7-0.2-1-0.3c-14.4-4-28.5-2.2-39.5,3.7c10.1-3.7,22.3-4.5,34.6-1.4
		c27.1,6.7,44.9,29.3,39.6,50.4c-5.2,21.1-31.5,32.8-58.6,26c-10.8-2.7-20.1-7.9-27.1-14.5c22,29.8,25.7,10.1,26.2,52.7
		c-0.1,0-0.2-0.1-0.3-0.1c2.1,0.9,3.2,2.7,3.5,4.6c1.3-0.8,1.8-1.4,1.5-1.7c-6.2-55.1,43.5-13.5,60.2-63.2
		C203,73.4,186.1,49.7,162.4,40.2z"/>
	<path class="st2" d="M39.8,153.8c0.3,0,0.7,0,1.1,0C40.5,153.8,40.2,153.8,39.8,153.8z"/>
	<path class="st2" d="M130.8,154.8c-0.1,0-0.2-0.1-0.2-0.1C130.7,154.8,130.7,154.8,130.8,154.8z"/>
	<path class="st2" d="M38.6,154c0.1,0,0.2,0,0.3-0.1C38.7,154,38.6,154,38.6,154z"/>
	<path class="st2" d="M39.7,153.9c0.1,0,0.1,0,0.2,0C39.8,153.8,39.7,153.8,39.7,153.9z"/>
</g>
<path class="st3" d="M39.7,164.8c0,0-12.1-8.7,8.5-16c20.5-7.3,42.7,6,46.6,6.7c3.9,0.7,39.4-10,39.7,6.7c0.3,16.7-27,8.7-37.5,8
	C86.6,169.4,58.9,181.1,39.7,164.8z"/>
<path class="st2" d="M125.4,155.3c0,0-17-1.5-29.8,3c0,0-40.5-20.8-59.4,0c0,0,2.2-12.6,31.4-11.7c9.2,1.2,26.7,8.2,26.7,8.2
	s37.2-7.3,39.3,3.5"/>
<path class="st2" d="M35,152.4l-0.3,5.4c0,0,1.8,16.1,37.9,15.7c0,0-39.9-6.4-30.4-20.1"/>
<path class="st2" d="M40.8,158.3c0,0-1.4-13,36.6-6.8l4-0.1l-13.1-3.5H53.6c0,0-13.8,0.9-14.6,10.3"/>
<path class="st2" d="M103.2,156.3c0,0,31.2-6.5,31.3,9.8c0,0,1.7-3.1,1.3-8.4l-3.2-1.5l-6.5-1.1l-9-0.9"/>
<path class="st2" d="M49.9,167c0,0,10.5,9,43.3,0c6.8-1.8,26.6,7.3,36.9,0c3.5-2.8,3-7.3,0.4-8.7l5.3,1.2c0,0,1.3,14.3-16.3,13.2
	c-17.6-1.2-21.5-3.2-29-2C83,171.9,57,178.7,49.9,167z"/>
<path class="st2" d="M38.4,154.1c0,0,11.2-21.6,56.2-1.7c0,0,38.3-7.7,39,4.9c0,0-17.8-7.8-38.2,0c0,0-23.6-18.9-55.7-4.2"/>
<path d="M17.4,200.3c-0.5-0.6-1-1-1.8-1c-0.8,0-1.5,0.6-1.5,1.4c0,2.1,4.9,1.2,4.9,5.3c0,2.5-1.5,4.2-4,4.2c-1.7,0-2.9-1-3.8-2.4
	l1.5-1.5c0.3,0.9,1.2,1.8,2.2,1.8c1,0,1.6-0.8,1.6-1.8c0-1.3-1.2-1.6-2.1-2c-1.6-0.7-2.7-1.4-2.7-3.3c0-2,1.5-3.7,3.6-3.7
	c1.1,0,2.6,0.5,3.3,1.4L17.4,200.3z"/>
<path d="M30.3,203.7c0-3.4,2.5-6.4,6.1-6.4c3.6,0,6.1,3,6.1,6.4c0,3.5-2.5,6.5-6.1,6.5C32.8,210.1,30.3,207.2,30.3,203.7z
	 M32.8,203.6c0,1.9,1.6,4.2,3.6,4.2s3.6-2.4,3.6-4.2c0-2-1.5-4-3.6-4C34.3,199.6,32.8,201.6,32.8,203.6z"/>
<path d="M56.7,207.7h3.4v2.1h-5.8v-12.2h2.4V207.7z"/>
<path d="M74,199.6v2.7h3.8v2.1H74v3.3h3.9v2.1h-6.3v-12.2h6.3v2.1H74z"/>
<path d="M113.8,200.8c-0.7-0.8-1.7-1.3-2.7-1.3c-2.3,0-3.6,2.1-3.6,4.2c0,2.1,1.4,4.1,3.6,4.1c1,0,2-0.5,2.7-1.3v2.8
	c-0.9,0.4-1.8,0.7-2.8,0.7c-3.4,0-6-3-6-6.3c0-3.5,2.5-6.5,6-6.5c1,0,1.9,0.3,2.7,0.7V200.8z"/>
<path d="M132.9,202.4v-4.8h2.4v12.2h-2.4v-5.5h-4.4v5.5h-2.4v-12.2h2.4v4.8H132.9z"/>
<path d="M150.2,199.6v2.7h3.8v2.1h-3.8v3.3h3.9v2.1h-6.3v-12.2h6.3v2.1H150.2z"/>
<path d="M168.8,199.6v2.7h3.5v2.1h-3.5v5.4h-2.4v-12.2h6.1v2.1H168.8z"/>
<path d="M190.5,200.3c-0.5-0.6-1-1-1.8-1c-0.8,0-1.5,0.6-1.5,1.4c0,2.1,4.9,1.2,4.9,5.3c0,2.5-1.5,4.2-4,4.2c-1.7,0-2.9-1-3.8-2.4
	l1.5-1.5c0.3,0.9,1.2,1.8,2.2,1.8c1,0,1.6-0.8,1.6-1.8c0-1.3-1.2-1.6-2.1-2c-1.6-0.7-2.7-1.4-2.7-3.3c0-2,1.5-3.7,3.6-3.7
	c1.1,0,2.6,0.5,3.3,1.4L190.5,200.3z"/>
<path class="st2" d="M37.1,130.9l5.6-5.6c0,0-5,21.3,12.2,19.3v2c0,0-17.8,7.3-17.8,11.7"/>
</svg>
