<?xml version="1.0" encoding="utf-8"?>
<!-- Generator: Adobe Illustrator 21.1.0, SVG Export Plug-In . SVG Version: 6.00 Build 0)  -->
<!DOCTYPE svg PUBLIC "-//W3C//DTD SVG 1.1//EN" "http://www.w3.org/Graphics/SVG/1.1/DTD/svg11.dtd">
<svg version="1.1" id="Layer_1" xmlns="http://www.w3.org/2000/svg" xmlns:xlink="http://www.w3.org/1999/xlink" x="0px" y="0px"
	 viewBox="0 0 141 75" style="enable-background:new 0 0 141 75;" xml:space="preserve">
<style type="text/css">
	.st0{fill:#231F20;}
	.st1{stroke:#000000;stroke-width:0.5;stroke-miterlimit:10;}
</style>
<path class="st0" d="M46.9,44.1c0-0.2,0.1-0.4,0.3-0.5c0.2-0.1,0.4-0.2,0.6-0.3c0.2,0,0.5,0,0.8,0c0.3,0,0.5,0.2,0.7,0.3
	c0.2,0.2,0.3,0.4,0.4,0.7c0.1,0.3,0.1,0.7,0,1.2c-0.1,0.7-0.4,1.3-0.7,1.9c-0.3,0.6-0.8,1.1-1.3,1.6c-0.5,0.5-1.1,0.8-1.8,1.1
	c-0.7,0.3-1.4,0.4-2.3,0.4c-0.5,0-0.9,0-1.3-0.1c-0.4,0-0.8-0.1-1.2-0.3c-0.6,1.1-1.4,1.9-2.4,2.6c-1,0.7-2.2,1-3.6,1
	c-1.3,0-2.4-0.2-3.3-0.7c-0.9-0.5-1.7-1.2-2.3-2c-0.6-0.9-1-1.8-1.3-3c-0.3-1.1-0.4-2.3-0.4-3.6c0-1.8,0.2-3.5,0.6-4.9
	c0.4-1.5,0.9-2.7,1.5-3.7c0.6-1,1.1-1.8,1.7-2.3c0.6-0.5,1-0.8,1.3-0.8c0.3,0,0.6,0.1,0.9,0.4c0.3,0.3,0.5,0.6,0.6,1
	c0.1,0.4,0.2,0.8,0.1,1.2c-0.1,0.4-0.2,0.7-0.6,0.9c-0.2,0.3-0.4,0.7-0.7,1.1s-0.5,0.9-0.8,1.5c-0.2,0.6-0.4,1.4-0.6,2.2
	c-0.2,0.9-0.2,1.9-0.2,3.2c0,1.1,0.1,2,0.3,2.8c0.2,0.8,0.4,1.4,0.8,2c0.3,0.5,0.7,0.9,1.1,1.2c0.4,0.3,0.9,0.4,1.4,0.4
	c0.7,0,1.3-0.2,1.8-0.5c0.5-0.3,0.9-0.8,1.2-1.4c-1.2-1-2.1-2.3-2.7-3.8c-0.6-1.6-0.9-3.2-0.9-5c0-0.8,0.1-1.5,0.3-2.2
	s0.4-1.3,0.8-1.9c0.3-0.5,0.8-1,1.3-1.3c0.5-0.3,1.1-0.5,1.8-0.5c0.6,0,1.1,0.2,1.7,0.6c0.5,0.4,1,1,1.4,1.8
	c0.4,0.7,0.7,1.6,0.9,2.7c0.2,1,0.3,2.1,0.3,3.3c0,0.9-0.1,1.8-0.2,2.8c-0.1,0.9-0.3,1.8-0.5,2.6c0.2,0.1,0.3,0.1,0.5,0.1
	c0.2,0,0.3,0,0.5,0c0.5,0,1-0.1,1.4-0.3c0.4-0.2,0.8-0.5,1.1-0.8c0.3-0.3,0.5-0.7,0.7-1.1C46.7,45,46.8,44.5,46.9,44.1z M37.3,39.4
	c0,1.1,0.2,2.2,0.5,3.2c0.3,1,0.8,1.9,1.4,2.6c0.1-0.8,0.1-1.6,0.1-2.3c0-0.8,0-1.6,0-2.4c0-0.7-0.1-1.3-0.2-1.9
	c-0.1-0.5-0.2-0.9-0.4-1.2c-0.2-0.3-0.4-0.5-0.6-0.5C37.6,37.1,37.3,37.8,37.3,39.4z"/>
<path class="st0" d="M60.6,53.7c-0.6,0-1.1-0.1-1.6-0.3c-0.5-0.2-0.9-0.4-1.2-0.7c-0.4-0.3-0.6-0.7-0.9-1.1
	c-0.2-0.4-0.4-0.9-0.5-1.4c-0.6,1.1-1.3,1.9-2.1,2.6c-0.8,0.7-1.8,1-2.9,1c-0.8,0-1.6-0.2-2.2-0.5c-0.7-0.3-1.2-0.8-1.7-1.5
	c-0.5-0.6-0.8-1.4-1-2.3c-0.2-0.9-0.4-1.9-0.4-3c0-1.3,0.1-2.6,0.3-4c0.2-1.3,0.4-2.5,0.6-3.6c0.3-1.3,0.6-2.5,0.9-3.6
	c0.1-0.2,0.1-0.4,0.2-0.6c0-0.2,0.1-0.4,0.3-0.6c0.1-0.2,0.4-0.3,0.7-0.4c0.3-0.1,0.8-0.2,1.5-0.2c0.6,0,1,0.1,1.2,0.3
	c0.2,0.2,0.2,0.5,0.2,0.8c0,0.3-0.1,0.6-0.3,0.9c-0.2,0.3-0.3,0.6-0.3,0.8c-0.2,0.9-0.4,1.8-0.6,2.5c-0.2,0.8-0.3,1.5-0.5,2.3
	c-0.1,0.8-0.2,1.6-0.3,2.4c-0.1,0.8-0.1,1.8-0.1,2.8c0,1.4,0.2,2.4,0.6,3.1c0.4,0.7,1,1,1.7,1c0.5,0,1-0.2,1.4-0.6
	c0.4-0.4,0.8-0.9,1.2-1.5c0.3-0.6,0.7-1.3,0.9-2.1c0.3-0.8,0.5-1.6,0.6-2.5v-8.1c0-0.4,0-0.6-0.1-0.9c-0.1-0.2-0.1-0.4-0.2-0.5
	c-0.1-0.1-0.1-0.2-0.2-0.3c-0.1-0.1-0.1-0.2-0.1-0.3c0-0.1,0-0.2,0.1-0.2c0.1-0.1,0.2-0.1,0.4-0.2c0.2,0,0.3-0.1,0.5-0.1
	c0.2,0,0.4,0,0.5,0c0.8,0,1.5,0.2,2,0.6c0.5,0.4,0.7,0.9,0.7,1.5v12.7c0,0.1,0,0.3,0,0.5c0,0.3,0.1,0.5,0.1,0.8
	c0.1,0.3,0.2,0.5,0.4,0.7c0.2,0.2,0.4,0.3,0.8,0.3c0.5,0,0.9-0.2,1.3-0.5c0.4-0.4,0.7-0.8,1-1.3c0.3-0.5,0.5-1.1,0.7-1.7
	c0.2-0.6,0.3-1.2,0.4-1.8c0.1-0.5,0.3-0.9,0.5-1.1c0.2-0.2,0.5-0.4,0.7-0.4c0.2,0,0.4,0.1,0.6,0.2c0.2,0.1,0.4,0.3,0.6,0.5
	c0.2,0.2,0.3,0.4,0.4,0.7c0.1,0.2,0.2,0.5,0.2,0.7c0,0,0,0.1,0,0.1c0,0,0,0.1,0,0.2c-0.2,0.8-0.5,1.7-0.9,2.6
	c-0.4,0.9-0.8,1.8-1.4,2.5c-0.6,0.8-1.3,1.4-2.1,1.9C62.7,53.5,61.7,53.7,60.6,53.7z"/>
<path class="st0" d="M76,45.1c0.1-0.5,0.2-0.8,0.5-1.1c0.2-0.2,0.4-0.3,0.7-0.4c0.2,0,0.5,0,0.7,0.2c0.2,0.1,0.5,0.3,0.6,0.5
	c0.2,0.2,0.3,0.5,0.4,0.8c0.1,0.3,0.1,0.6,0,0.8c-0.2,0.7-0.6,1.4-1,2.3c-0.4,0.9-1,1.7-1.6,2.5c-0.7,0.8-1.4,1.5-2.3,2
	c-0.9,0.6-1.9,0.8-3,0.8c-1,0-1.8-0.2-2.5-0.5c-0.7-0.3-1.3-0.8-1.8-1.3c-0.5-0.6-0.9-1.3-1.1-2.1c-0.3-0.8-0.4-1.7-0.4-2.7V24.4
	c0-0.9,0.1-1.8,0.4-2.6c0.2-0.8,0.6-1.5,1-2c0.4-0.6,0.9-1,1.5-1.3c0.6-0.3,1.1-0.5,1.8-0.5c0.7,0,1.4,0.1,1.9,0.4
	c0.5,0.3,0.9,0.6,1.2,1.1c0.3,0.4,0.6,0.9,0.8,1.5c0.2,0.6,0.3,1.2,0.4,1.7c0.1,0.6,0.1,1.2,0.1,1.8c0,0.6,0,1.1,0,1.6
	c0,1.2-0.1,2.5-0.3,3.8c-0.2,1.3-0.5,2.7-0.9,4c-0.4,1.3-0.7,2.6-1.1,3.7c-0.4,1.2-0.8,2.3-1.2,3.2c-0.4,0.9-0.7,1.7-1,2.3
	c-0.3,0.6-0.5,0.9-0.6,1V47c0,1,0.2,1.8,0.6,2.5c0.4,0.6,1.1,1,2,1c0.6,0,1.1-0.2,1.6-0.5c0.5-0.3,0.9-0.8,1.3-1.3
	c0.4-0.5,0.7-1.1,1-1.7C75.7,46.2,75.9,45.6,76,45.1z M68.9,37.5c0.2-0.3,0.4-0.8,0.5-1.4c0.2-0.6,0.3-1.2,0.5-1.9
	c0.2-0.7,0.3-1.4,0.4-2.2c0.1-0.8,0.2-1.5,0.3-2.2c0.1-0.7,0.2-1.4,0.2-2.1c0.1-0.6,0.1-1.2,0.1-1.6c0-1.7-0.1-2.9-0.4-3.6
	c-0.2-0.8-0.6-1.2-1-1.2c-0.1,0-0.2,0.1-0.3,0.2c-0.1,0.1-0.2,0.3-0.2,0.5c-0.1,0.2-0.1,0.4-0.1,0.7c0,0.2,0,0.5,0,0.6V37.5z"/>
<path class="st1" d="M2.3,44.4c0-6.9,5.8-11.4,11.9-9.7c0.6-1.8,1.2-3.5,1.8-5c-2.5-3.3-6-8.8-6.7-13.3C8.5,11,10.8,5.8,14.1,2.5
	c7.6,6.5,8.5,16.4,5,25c5.4,6.8,7.6,11.2,7.7,16.5c0.1,6.4-4.6,12.3-12.1,12.3c-1.4,0-2.6-0.2-3.8-0.5c-0.3,6.4,1.3,12.5,2.5,12.8
	c0.5,0.1,0.6-0.2,0.4-0.4c-1.4-1.5-0.3-5.2,2.7-5.2c2.4,0,3.7,2,3.7,4.1c0,2.2-1.6,4.4-4.9,4.4c-3.5,0-7-7.2-6.3-16.5
	C4.6,52.9,2.3,48.2,2.3,44.4z M17.5,15.8c-0.8-4-2.6-6.6-4.5-9c-1.6,2.4-2,6.7-0.8,9.8c1.2,3.2,2.8,5.6,5.4,8.9
	C18.3,22.6,18.3,19.7,17.5,15.8z M24.4,44.9c0-5.1-2.9-8.7-6.9-13.4c-0.5,1.3-1,2.6-1.5,3.9c3.9,2.2,5.8,7.9,3,11.6l-1.2-0.4
	c1-3.7-0.4-6.8-2.9-8c-1.9,5.8-3.4,11.6-3.8,15c1.2,0.6,2.4,1,3.6,1C20.1,54.5,24.4,50.3,24.4,44.9z M9.4,52.2
	c0.7-4.1,2.2-9.4,3.8-14.3c-4.6-0.8-7.4,2.8-7.4,7.3C5.7,47.8,7.3,50.5,9.4,52.2z"/>
<path class="st0" d="M27.3,60.7h1.6v2.1c0.2-0.3,0.5-0.6,0.7-0.9c0.3-0.3,0.6-0.5,0.9-0.8c0.3-0.2,0.7-0.4,1.1-0.5s0.9-0.2,1.3-0.2
	c0.6,0,1.2,0.1,1.9,0.4c0.6,0.2,1.2,0.6,1.6,1.1c0.5,0.5,0.9,1,1.1,1.7c0.3,0.7,0.4,1.5,0.4,2.3v0c0,0.9-0.1,1.6-0.4,2.3
	c-0.3,0.7-0.7,1.3-1.1,1.7c-0.5,0.5-1,0.8-1.6,1.1c-0.6,0.3-1.2,0.4-1.9,0.4c-0.5,0-0.9-0.1-1.4-0.2c-0.4-0.1-0.8-0.3-1.1-0.5
	c-0.3-0.2-0.6-0.4-0.9-0.7c-0.3-0.3-0.5-0.6-0.7-0.9v5.3h-1.6V60.7z M32.7,70.1c0.5,0,1-0.1,1.4-0.3c0.5-0.2,0.9-0.5,1.2-0.8
	c0.3-0.3,0.6-0.8,0.8-1.3c0.2-0.5,0.3-1.1,0.3-1.7v0c0-0.6-0.1-1.2-0.3-1.7c-0.2-0.5-0.5-0.9-0.8-1.3c-0.3-0.4-0.7-0.6-1.2-0.8
	s-0.9-0.3-1.4-0.3c-0.5,0-1,0.1-1.4,0.3c-0.5,0.2-0.9,0.5-1.2,0.8c-0.4,0.4-0.7,0.8-0.9,1.3c-0.2,0.5-0.3,1.1-0.3,1.7v0
	c0,0.6,0.1,1.2,0.3,1.7c0.2,0.5,0.5,0.9,0.9,1.3c0.4,0.4,0.8,0.6,1.2,0.8C31.7,70,32.2,70.1,32.7,70.1z"/>
<path class="st0" d="M39.5,60.7h1.6v2.8c0.2-0.4,0.4-0.8,0.7-1.2c0.3-0.4,0.6-0.7,1-1c0.4-0.3,0.8-0.5,1.2-0.6
	c0.4-0.1,0.9-0.2,1.4-0.2v1.7h-0.1c-0.6,0-1.1,0.1-1.6,0.3s-1,0.5-1.3,0.9s-0.7,0.9-0.9,1.5c-0.2,0.6-0.3,1.3-0.3,2.1v4.2h-1.6V60.7
	z"/>
<path class="st0" d="M51.2,71.6c-0.8,0-1.5-0.1-2.2-0.4c-0.7-0.3-1.3-0.7-1.7-1.2c-0.5-0.5-0.9-1.1-1.1-1.7
	c-0.3-0.7-0.4-1.4-0.4-2.1v0c0-0.8,0.1-1.5,0.4-2.1c0.3-0.7,0.7-1.3,1.1-1.8c0.5-0.5,1.1-0.9,1.8-1.2c0.7-0.3,1.4-0.4,2.2-0.4
	c0.8,0,1.5,0.1,2.2,0.4c0.7,0.3,1.3,0.7,1.8,1.2c0.5,0.5,0.9,1.1,1.1,1.7c0.3,0.7,0.4,1.4,0.4,2.1v0c0,0.8-0.1,1.5-0.4,2.1
	c-0.3,0.7-0.7,1.3-1.2,1.8c-0.5,0.5-1.1,0.9-1.8,1.2C52.8,71.4,52,71.6,51.2,71.6z M51.3,70.2c0.6,0,1.1-0.1,1.6-0.3
	c0.5-0.2,0.9-0.5,1.2-0.9c0.3-0.4,0.6-0.8,0.8-1.3c0.2-0.5,0.3-1,0.3-1.6v0c0-0.6-0.1-1.1-0.3-1.6c-0.2-0.5-0.5-0.9-0.8-1.3
	c-0.4-0.4-0.8-0.7-1.3-0.9c-0.5-0.2-1-0.3-1.6-0.3c-0.6,0-1.1,0.1-1.6,0.3c-0.5,0.2-0.9,0.5-1.2,0.9c-0.3,0.4-0.6,0.8-0.8,1.3
	c-0.2,0.5-0.3,1-0.3,1.6v0c0,0.6,0.1,1.1,0.3,1.6c0.2,0.5,0.5,0.9,0.8,1.3s0.8,0.7,1.2,0.9C50.2,70.1,50.7,70.2,51.3,70.2z"/>
<path class="st0" d="M62.7,71.6c-0.6,0-1.3-0.1-1.9-0.4c-0.6-0.2-1.1-0.6-1.6-1.1c-0.5-0.5-0.9-1-1.2-1.7c-0.3-0.7-0.4-1.5-0.4-2.3
	v0c0-0.9,0.1-1.6,0.4-2.3c0.3-0.7,0.7-1.3,1.2-1.7c0.5-0.5,1-0.8,1.6-1.1c0.6-0.3,1.2-0.4,1.9-0.4c0.5,0,0.9,0.1,1.4,0.2
	s0.8,0.3,1.1,0.5s0.6,0.4,0.9,0.7c0.3,0.3,0.5,0.6,0.7,0.9v-6.4h1.6v15h-1.6v-2.1c-0.2,0.3-0.5,0.6-0.7,0.9
	c-0.3,0.3-0.6,0.5-0.9,0.8s-0.7,0.4-1.1,0.5C63.6,71.5,63.1,71.6,62.7,71.6z M62.9,70.1c0.5,0,1-0.1,1.4-0.3
	c0.5-0.2,0.9-0.5,1.2-0.8c0.4-0.4,0.6-0.8,0.9-1.3c0.2-0.5,0.3-1.1,0.3-1.7v0c0-0.6-0.1-1.2-0.3-1.7c-0.2-0.5-0.5-0.9-0.9-1.3
	c-0.4-0.4-0.8-0.6-1.2-0.8c-0.5-0.2-0.9-0.3-1.4-0.3c-0.5,0-1,0.1-1.5,0.3c-0.5,0.2-0.8,0.5-1.2,0.8s-0.6,0.8-0.8,1.3
	c-0.2,0.5-0.3,1.1-0.3,1.7v0c0,0.6,0.1,1.2,0.3,1.7c0.2,0.5,0.5,0.9,0.8,1.3c0.3,0.4,0.7,0.6,1.2,0.8C62,70.1,62.4,70.1,62.9,70.1z"
	/>
<path class="st0" d="M74.3,71.6c-0.6,0-1.2-0.1-1.7-0.3s-0.9-0.5-1.3-0.9s-0.6-0.8-0.8-1.3c-0.2-0.5-0.3-1.1-0.3-1.7v-6.6h1.6v6.2
	c0,1,0.3,1.8,0.8,2.3c0.5,0.6,1.2,0.9,2.2,0.9c0.5,0,0.9-0.1,1.3-0.2c0.4-0.2,0.7-0.4,1-0.7s0.5-0.6,0.7-1.1
	c0.2-0.4,0.2-0.9,0.2-1.4v-6.1h1.6v10.6h-1.6v-1.8c-0.4,0.6-0.8,1.1-1.4,1.5C76,71.4,75.2,71.6,74.3,71.6z"/>
<path class="st0" d="M86.4,71.6c-0.8,0-1.5-0.1-2.2-0.4c-0.7-0.3-1.2-0.7-1.7-1.2c-0.5-0.5-0.9-1.1-1.1-1.8
	c-0.3-0.7-0.4-1.4-0.4-2.1v0c0-0.8,0.1-1.5,0.4-2.1c0.3-0.7,0.7-1.3,1.1-1.8c0.5-0.5,1.1-0.9,1.7-1.2c0.7-0.3,1.4-0.4,2.2-0.4
	c0.5,0,1,0,1.4,0.1c0.4,0.1,0.8,0.2,1.1,0.4c0.3,0.2,0.7,0.4,0.9,0.6c0.3,0.2,0.6,0.5,0.8,0.7l-1,1.1c-0.4-0.4-0.9-0.8-1.4-1.1
	c-0.5-0.3-1.1-0.5-1.8-0.5c-0.5,0-1,0.1-1.5,0.3c-0.5,0.2-0.9,0.5-1.2,0.9c-0.3,0.4-0.6,0.8-0.8,1.3c-0.2,0.5-0.3,1-0.3,1.6v0
	c0,0.6,0.1,1.1,0.3,1.6c0.2,0.5,0.5,0.9,0.8,1.3c0.3,0.4,0.8,0.7,1.2,0.9c0.5,0.2,1,0.3,1.5,0.3c0.7,0,1.3-0.2,1.8-0.5
	c0.5-0.3,1-0.7,1.4-1.1l1,0.9c-0.5,0.6-1.1,1.1-1.8,1.5S87.4,71.6,86.4,71.6z"/>
<path class="st0" d="M95.4,71.5c-0.4,0-0.8-0.1-1.2-0.2c-0.4-0.1-0.7-0.3-1-0.5c-0.3-0.2-0.5-0.6-0.6-0.9s-0.2-0.8-0.2-1.4v-6.4H91
	v-1.4h1.5v-3.2H94v3.2h3.4v1.4H94v6.2c0,0.7,0.2,1.1,0.5,1.4c0.3,0.3,0.8,0.4,1.3,0.4c0.3,0,0.5,0,0.8-0.1s0.5-0.1,0.8-0.3v1.4
	c-0.3,0.2-0.6,0.3-0.9,0.3C96.2,71.5,95.8,71.5,95.4,71.5z"/>
<path class="st0" d="M98.8,56.7h1.8v1.7h-1.8V56.7z M98.9,60.7h1.6v10.6h-1.6V60.7z"/>
<path class="st0" d="M107.5,71.6c-0.8,0-1.5-0.1-2.2-0.4c-0.7-0.3-1.3-0.7-1.7-1.2c-0.5-0.5-0.9-1.1-1.1-1.7
	c-0.3-0.7-0.4-1.4-0.4-2.1v0c0-0.8,0.1-1.5,0.4-2.1c0.3-0.7,0.7-1.3,1.1-1.8c0.5-0.5,1.1-0.9,1.8-1.2c0.7-0.3,1.4-0.4,2.2-0.4
	c0.8,0,1.5,0.1,2.2,0.4c0.7,0.3,1.3,0.7,1.8,1.2c0.5,0.5,0.9,1.1,1.1,1.7c0.3,0.7,0.4,1.4,0.4,2.1v0c0,0.8-0.1,1.5-0.4,2.1
	c-0.3,0.7-0.7,1.3-1.2,1.8c-0.5,0.5-1.1,0.9-1.8,1.2C109.1,71.4,108.3,71.6,107.5,71.6z M107.6,70.2c0.6,0,1.1-0.1,1.6-0.3
	c0.5-0.2,0.9-0.5,1.2-0.9c0.3-0.4,0.6-0.8,0.8-1.3c0.2-0.5,0.3-1,0.3-1.6v0c0-0.6-0.1-1.1-0.3-1.6c-0.2-0.5-0.5-0.9-0.8-1.3
	c-0.4-0.4-0.8-0.7-1.3-0.9c-0.5-0.2-1-0.3-1.6-0.3c-0.6,0-1.1,0.1-1.6,0.3c-0.5,0.2-0.9,0.5-1.2,0.9c-0.3,0.4-0.6,0.8-0.8,1.3
	c-0.2,0.5-0.3,1-0.3,1.6v0c0,0.6,0.1,1.1,0.3,1.6c0.2,0.5,0.5,0.9,0.8,1.3s0.8,0.7,1.2,0.9C106.5,70.1,107,70.2,107.6,70.2z"/>
<path class="st0" d="M114.5,60.7h1.6v1.8c0.4-0.6,0.8-1.1,1.4-1.5c0.6-0.4,1.3-0.6,2.2-0.6c0.6,0,1.2,0.1,1.7,0.3
	c0.5,0.2,0.9,0.5,1.3,0.9c0.3,0.4,0.6,0.8,0.8,1.3c0.2,0.5,0.3,1.1,0.3,1.7v6.6h-1.6v-6.2c0-1-0.3-1.8-0.8-2.3
	c-0.5-0.6-1.2-0.9-2.2-0.9c-0.5,0-0.9,0.1-1.3,0.2c-0.4,0.2-0.7,0.4-1,0.7s-0.5,0.6-0.7,1.1c-0.2,0.4-0.2,0.9-0.2,1.4v6.1h-1.6V60.7
	z"/>
<path class="st0" d="M129.2,71.5c-0.8,0-1.5-0.1-2.3-0.4c-0.8-0.3-1.5-0.7-2.1-1.1l0.8-1.1c0.6,0.4,1.2,0.8,1.8,1
	c0.6,0.2,1.2,0.3,1.9,0.3c0.6,0,1.2-0.2,1.6-0.5c0.4-0.3,0.6-0.7,0.6-1.2v0c0-0.3-0.1-0.5-0.2-0.7s-0.3-0.4-0.6-0.5
	s-0.5-0.3-0.9-0.4s-0.7-0.2-1-0.3c-0.4-0.1-0.8-0.3-1.2-0.4c-0.4-0.1-0.8-0.3-1.1-0.5c-0.3-0.2-0.6-0.5-0.8-0.8
	c-0.2-0.3-0.3-0.7-0.3-1.2v0c0-0.5,0.1-0.9,0.3-1.2c0.2-0.4,0.4-0.7,0.7-1c0.3-0.3,0.7-0.5,1.1-0.6c0.4-0.1,0.9-0.2,1.4-0.2
	c0.7,0,1.3,0.1,2,0.3c0.7,0.2,1.3,0.5,1.8,0.9l-0.7,1.2c-0.5-0.3-1-0.6-1.5-0.7c-0.5-0.2-1.1-0.3-1.6-0.3c-0.6,0-1.1,0.1-1.5,0.4
	c-0.4,0.3-0.6,0.7-0.6,1.1v0c0,0.2,0.1,0.5,0.2,0.6s0.4,0.3,0.6,0.5s0.5,0.3,0.9,0.4c0.3,0.1,0.7,0.2,1,0.3c0.4,0.1,0.8,0.3,1.2,0.4
	c0.4,0.2,0.8,0.3,1.1,0.6c0.3,0.2,0.6,0.5,0.8,0.8c0.2,0.3,0.3,0.7,0.3,1.2v0c0,0.5-0.1,1-0.3,1.3c-0.2,0.4-0.5,0.7-0.8,1
	c-0.3,0.3-0.7,0.5-1.2,0.6C130.3,71.5,129.8,71.5,129.2,71.5z"/>
<path class="st0" d="M134.3,69.2h1.9v2.2h-1.9V69.2z"/>
<path class="st0" d="M13.9,68.3c-1.5-0.2-2.3-6.5-2.7-10.1l-0.8,5.8c0.3,6.3,5.1,5.9,5.1,5.9S15.9,68.5,13.9,68.3z"/>
</svg>
