<?xml version="1.0" encoding="utf-8"?>
<!-- Generator: Adobe Illustrator 21.1.0, SVG Export Plug-In . SVG Version: 6.00 Build 0)  -->
<!DOCTYPE svg PUBLIC "-//W3C//DTD SVG 1.1//EN" "http://www.w3.org/Graphics/SVG/1.1/DTD/svg11.dtd">
<svg version="1.1" id="Layer_1" xmlns="http://www.w3.org/2000/svg" xmlns:xlink="http://www.w3.org/1999/xlink" x="0px" y="0px"
	 viewBox="0 0 153 156" style="enable-background:new 0 0 153 156;" xml:space="preserve">
<style type="text/css">
	.st0{fill:#1D1D1B;}
	.st1{fill:#FFFFFF;}
	.st2{fill:#F8B133;}
	.st3{fill:#FFFFFF;stroke:#FFFFFF;stroke-width:0.407;stroke-miterlimit:10;}
</style>
<g id="XMLID_492_">
	<path id="XMLID_500_" class="st0" d="M39.2,35.9c-21.9,21.9-21.9,57.4,0,79.3c21.9,21.9,57.4,21.9,79.3,0s21.9-57.4,0-79.3
		S61,14,39.2,35.9z"/>
	<path id="XMLID_499_" class="st1" d="M31.1,56.9c0.2-0.5,0.4-1,0.6-1.5c0.2-0.5,0.4-1,0.6-1.5c0.4-1,0.9-1.9,1.3-2.8
		c0.5-0.9,0.9-1.7,1.3-2.5c0.9-1.6,1.8-3,2.7-4.3c0.4-0.6,0.8-1.2,1.2-1.7c0.4-0.5,0.8-1,1.1-1.4c0.7-0.9,1.2-1.5,1.6-1.9
		c0.4-0.4,0.6-0.7,0.6-0.7s-0.2,0.2-0.6,0.6c-0.2,0.2-0.5,0.4-0.8,0.7c-0.2,0.1-0.3,0.3-0.5,0.5c-0.2,0.2-0.3,0.4-0.5,0.6
		c-0.4,0.4-0.8,0.8-1.2,1.3c-0.4,0.5-0.9,1-1.4,1.6c-0.5,0.6-0.9,1.2-1.5,1.9c-0.5,0.7-1,1.4-1.5,2.2c-0.5,0.8-1,1.6-1.5,2.5
		c-0.2,0.4-0.5,0.9-0.7,1.4c-0.2,0.5-0.5,0.9-0.7,1.4c-0.9,1.9-1.7,4.1-2.5,6.3c-0.7,2.3-1.2,4.6-1.6,7.1c-0.3,2.4-0.5,4.9-0.6,7.5
		c0,2.5,0.2,5,0.6,7.5c0.4,2.4,1,4.8,1.6,7.1c0.7,2.2,1.5,4.4,2.5,6.3c0.2,0.5,0.5,1,0.7,1.4c0.2,0.5,0.5,0.9,0.7,1.4
		c0.5,0.9,1,1.7,1.5,2.5c0.5,0.8,1,1.5,1.5,2.2c0.5,0.7,1,1.3,1.5,1.9c0.5,0.6,0.9,1.1,1.4,1.6c0.4,0.5,0.9,0.9,1.2,1.3
		c0.2,0.2,0.4,0.4,0.5,0.6c0.2,0.2,0.3,0.3,0.5,0.5c0.3,0.3,0.6,0.5,0.8,0.7c0.4,0.4,0.6,0.6,0.6,0.6s-0.2-0.2-0.6-0.7
		c-0.4-0.4-1-1.1-1.6-1.9c-0.3-0.4-0.7-0.9-1.1-1.4c-0.4-0.5-0.8-1.1-1.2-1.7c-0.8-1.2-1.8-2.7-2.7-4.3c-0.5-0.8-0.9-1.7-1.3-2.5
		c-0.4-0.9-0.9-1.8-1.3-2.8c-0.2-0.5-0.4-1-0.6-1.5c-0.2-0.5-0.4-1-0.6-1.5c-0.4-1-0.7-2.1-1-3.2c-0.6-2.2-1.1-4.5-1.4-6.9
		c-0.3-2.4-0.5-4.8-0.5-7.2c0-2.4,0.2-4.9,0.5-7.2c0.4-2.4,0.8-4.7,1.4-6.9C30.4,59,30.7,57.9,31.1,56.9z"/>
	<path id="XMLID_498_" class="st1" d="M116.9,42.6c-0.3-0.3-0.6-0.5-0.8-0.7c-0.4-0.4-0.6-0.6-0.6-0.6s0.2,0.2,0.6,0.7
		c0.4,0.4,1,1.1,1.6,1.9c0.3,0.4,0.7,0.9,1.1,1.4c0.4,0.5,0.8,1.1,1.2,1.7c0.9,1.2,1.8,2.7,2.7,4.3c0.5,0.8,0.9,1.7,1.3,2.5
		c0.4,0.9,0.9,1.8,1.3,2.8c0.2,0.5,0.4,1,0.6,1.5c0.2,0.5,0.4,1,0.6,1.5c0.4,1,0.7,2.1,1,3.2c0.6,2.2,1.1,4.5,1.4,6.9
		c0.3,2.4,0.5,4.8,0.5,7.2c0,2.4-0.2,4.9-0.5,7.2c-0.4,2.4-0.8,4.7-1.4,6.9c-0.3,1.1-0.6,2.2-1,3.2c-0.2,0.5-0.4,1-0.6,1.5
		c-0.2,0.5-0.4,1-0.6,1.5c-0.4,1-0.9,1.9-1.3,2.8c-0.5,0.9-0.9,1.7-1.3,2.5c-0.9,1.6-1.8,3-2.7,4.3c-0.4,0.6-0.8,1.2-1.2,1.7
		c-0.4,0.5-0.8,1-1.1,1.4c-0.7,0.9-1.2,1.5-1.6,1.9c-0.4,0.4-0.6,0.7-0.6,0.7s0.2-0.2,0.6-0.6c0.2-0.2,0.5-0.4,0.8-0.7
		c0.2-0.1,0.3-0.3,0.5-0.5c0.2-0.2,0.3-0.4,0.5-0.6c0.4-0.4,0.8-0.8,1.2-1.3c0.4-0.5,0.9-1.1,1.4-1.6c0.5-0.6,0.9-1.2,1.5-1.9
		c0.5-0.7,1-1.4,1.5-2.2c0.5-0.8,1-1.6,1.5-2.5c0.2-0.4,0.5-0.9,0.7-1.4c0.2-0.5,0.5-0.9,0.7-1.4c0.9-1.9,1.7-4.1,2.5-6.3
		c0.7-2.3,1.2-4.6,1.6-7.1c0.3-2.4,0.5-5,0.6-7.5c0-2.5-0.2-5-0.6-7.5c-0.4-2.4-1-4.8-1.6-7.1c-0.7-2.2-1.5-4.4-2.5-6.3
		c-0.2-0.5-0.5-1-0.7-1.4c-0.2-0.5-0.5-0.9-0.7-1.4c-0.5-0.9-1-1.7-1.5-2.5c-0.5-0.8-1-1.5-1.5-2.2c-0.5-0.7-1-1.3-1.5-1.9
		c-0.5-0.6-0.9-1.1-1.4-1.6c-0.4-0.5-0.9-0.9-1.2-1.3c-0.2-0.2-0.4-0.4-0.5-0.6C117.2,42.9,117.1,42.8,116.9,42.6z"/>
	<path id="XMLID_493_" class="st2" d="M110,9l-7.2,7.2c-23.1-9.3-50.5-4.6-69.2,14.1C14.9,49,10.2,76.4,19.5,99.5l-7.2,7.2
		c-5.3,5.3-5.3,14,0,19.4l15.9,15.9c5.3,5.3,14,5.3,19.4,0l7.2-7.2c23.1,9.3,50.5,4.6,69.2-14.1c18.7-18.7,23.4-46.1,14.1-69.2
		l7.2-7.2c5.3-5.3,5.3-14,0-19.4L129.4,9C124.1,3.7,115.4,3.7,110,9z M41.8,136.3c-2.2,2.2-5.7,2.2-7.8,0L18,120.4
		c-2.2-2.2-2.2-5.7,0-7.8l5.2-5.2c2.8,4.8,6.2,9.4,10.3,13.5c4.1,4.1,8.7,7.5,13.5,10.3L41.8,136.3z M119.4,116.1
		c-22.4,22.4-58.7,22.4-81.1,0c-22.4-22.4-22.4-58.7,0-81.1c22.4-22.4,58.7-22.4,81.1,0C141.7,57.4,141.7,93.7,119.4,116.1z
		 M139.6,30.7c2.2,2.2,2.2,5.7,0,7.8l-5.2,5.2c-2.8-4.8-6.2-9.4-10.3-13.5c-4.1-4.1-8.7-7.5-13.5-10.3l5.2-5.2
		c2.2-2.2,5.7-2.2,7.8,0L139.6,30.7z"/>
</g>
<path id="XMLID_489_" class="st1" d="M61.7,78.1h-4.1l-3.1-5.7v5.7H51V52.9h8.6l1.6,17.1L58,71.1L61.7,78.1z M57.4,67.6l-1-11.2
	h-1.8v12.1L57.4,67.6z"/>
<path id="XMLID_486_" class="st1" d="M66.8,57.5h-3.6v-4.6h3.6V57.5z M66.8,78.1h-3.6V60.9h3.6V78.1z"/>
<path id="XMLID_483_" class="st1" d="M80.1,78.1H69.3v-3.5h7.3v-2.2l-7.3-2.2l1.6-17.1h9.2V78.1z M76.6,68.8V56.5h-2.5l-1,11.2
	L76.6,68.8z"/>
<path id="XMLID_481_" class="st1" d="M93.7,61v17.1h-3.4V63.4l-3.9-1.2v15.8l-3.6,0V52.9h3.6v5.8L93.7,61z"/>
<path id="XMLID_479_" class="st1" d="M106.6,78.1l-10.2,0V52.9h3.6v5.9l6.6-2v3.5l-6.6,2.1v12.2h3.1v-5.3l3.6-1.3V78.1z"/>
<path id="XMLID_477_" class="st1" d="M60.6,105.5l-9.6,0v-7.7l3.6-1.2v5.4h2.5v-6.2L51,92.4v-12l9.6,0V88l-3.6,1.1V84h-2.5v6.3
	l6.1,3.5V105.5z"/>
<path id="XMLID_474_" class="st1" d="M73.2,97.5l-6.6,2.2v5.8H63V80.4h8.6L73.2,97.5z M69.5,95.1l-1-11.2h-1.8V96L69.5,95.1z"/>
<path id="XMLID_471_" class="st1" d="M78.7,84.9h-3.6v-4.6h3.6V84.9z M78.7,105.5h-3.6V88.3h3.6V105.5z"/>
<path id="XMLID_469_" class="st1" d="M91,105.5l-10.2,0V80.4H91v10.1h-3.6v-6.6h-3.1V102H91V105.5z"/>
<path id="XMLID_466_" class="st1" d="M104.1,97.5l-7.3,2.2v2.3h7.3v3.5H93.2V80.4h9.2L104.1,97.5z M100.3,95l-1.1-11.2h-2.5v12.3
	L100.3,95z"/>
<g id="XMLID_619_">
	<path id="XMLID_620_" class="st3" d="M71.9,46.1v4.4h-0.4v-4.4h-1.7v-0.3h3.7v0.3H71.9z"/>
	<path id="XMLID_622_" class="st3" d="M80,50.5v-2.2h-3v2.2h-0.4v-4.7H77V48h3v-2.2h0.4v4.7H80z"/>
	<path id="XMLID_624_" class="st3" d="M83.8,50.5v-4.7h3.4v0.3h-3V48h2.7v0.3h-2.7v1.9h3.1v0.3H83.8z"/>
</g>
</svg>
