<?xml version="1.0" encoding="utf-8"?>
<!-- Generator: Adobe Illustrator 21.1.0, SVG Export Plug-In . SVG Version: 6.00 Build 0)  -->
<!DOCTYPE svg PUBLIC "-//W3C//DTD SVG 1.1//EN" "http://www.w3.org/Graphics/SVG/1.1/DTD/svg11.dtd">
<svg version="1.1" id="Layer_1" xmlns="http://www.w3.org/2000/svg" xmlns:xlink="http://www.w3.org/1999/xlink" x="0px" y="0px"
	 viewBox="0 0 325 231" style="enable-background:new 0 0 325 231;" xml:space="preserve">
<style type="text/css">
	.st0{fill:#0A3B59;}
</style>
<path class="st0" d="M117.9,38c0.7,4.8-3,7.7-11.2,8.8c-14.2,2-23.9,3.9-28.8,5.9c-9.6,17.6-17,33-22.2,46.2
	c-4.3,10.7-6.4,18.5-6.4,23.5c0,3.9,1.5,5.9,4.5,5.9c3.6,0,8.2-3,14-8.9c5.8-6,9.8-13.2,14.3-20.4c2.4-3.9,7.2-10.3,9.4-10.3
	c2.8-0.4,0.2,6.7,0.2,10.3c0,7.5-4.9,16.5-14.8,27.1C67.1,136.7,58,142,49.8,142c-4.5,0-8.3-1.7-11.5-5.1c-3.2-3.4-4.8-7.9-4.8-13.7
	c0-8.6,3.1-19.9,9.3-34c4.6-10.4,10-20.5,16-30.3c-3.7,1.4-6.6,2.1-8.5,2.1c-4.1,0-6.1-2.1-6.1-6.4c0-3.4,2.5-5.7,7.6-6.9
	c5.1-1.2,10.3-2.5,15.6-3.7c8.9-14.4,15.6-24.1,20-29.1c4.4-5.1,8.5-7.6,12-7.6c2.7-0.4,4,1.2,4,4.8c0,2.9-1.9,6.9-5.6,12
	c-5.5,7.7-8.7,12.3-9.6,13.9c4.3-1.1,8.2-2,11.8-2.7c3.6-0.7,6.9-1.1,9.9-1.1C115.3,34.3,117.9,35.5,117.9,38z"/>
<path class="st0" d="M49.8,145.3c-5.4,0-10.1-2.1-13.9-6.1c-3.8-4-5.7-9.4-5.7-16c0-9.1,3.1-20.7,9.6-35.4c3.6-8,7.6-15.9,12-23.5
	c-0.5,0.1-1,0.1-1.5,0.1c-5.9,0-9.5-3.6-9.5-9.7c0-3.5,1.8-8.1,10.2-10.2c4.7-1.1,9.4-2.3,14.3-3.4c8.7-14,15.1-23.3,19.6-28.4
	c5.1-5.8,9.8-8.6,14.3-8.7c0.3,0,0.6,0,0.9,0c1.6,0,6.7,0.6,6.7,8.2c0,3.6-2,8.2-6.2,14c-2,2.7-3.6,5-4.8,6.7
	c1.2-0.3,2.4-0.5,3.6-0.8c3.8-0.8,7.3-1.1,10.5-1.1c9.1,0,11.2,3.6,11.4,6.8c0.3,2.6-0.3,4.9-1.7,6.8c-2.2,2.9-6.3,4.7-12.4,5.5
	c-12.9,1.8-21.9,3.5-27,5.3c-9.2,17-16.4,32-21.4,44.7c-4.1,10.3-6.2,17.8-6.2,22.3c0,2.5,0.6,2.5,1.2,2.5c1.5,0,4.9-1,11.6-7.9
	c4.5-4.6,7.8-10.1,11.4-15.9c0.8-1.3,1.6-2.6,2.5-4c3.3-5.3,8-11.5,11.9-11.8l0.5,0c1.3,0,2.5,0.5,3.3,1.5c1.7,2.1,1.2,5,0.6,8.5
	c-0.2,1.4-0.5,2.7-0.5,3.6c0,8.4-5.1,18.1-15.7,29.4C68.7,139.7,59.1,145.3,49.8,145.3z M66.9,52.2l-5.2,8.4
	c-5.9,9.6-11.3,19.7-15.8,29.9c-6,13.6-9.1,24.6-9.1,32.7c0,4.9,1.3,8.6,3.9,11.4c2.6,2.7,5.5,4,9.1,4c7.2,0,15.5-5,24.7-14.8
	c9.2-9.9,13.9-18.3,13.9-24.8c0-1.1,0.2-2.4,0.4-3.6c-1.2,1.5-2.6,3.4-3.8,5.4c-0.8,1.3-1.6,2.6-2.4,3.9
	c-3.6,5.9-7.3,11.9-12.3,17.1c-6.6,6.8-11.8,10-16.4,10c-1.8,0-7.9-0.7-7.9-9.2c0-5.5,2.2-13.6,6.7-24.7
	c5.2-13.2,12.7-28.9,22.3-46.6l0.6-1.1l1.1-0.4c5.3-2.1,15-4.1,29.6-6.1c5.5-0.7,7.4-2.2,8-2.9c0.3-0.4,0.6-0.9,0.4-2.1l0-0.2
	c-0.4-0.2-1.6-0.7-4.7-0.7c-2.8,0-5.9,0.3-9.2,1c-3.5,0.7-7.4,1.6-11.6,2.6l-7.4,1.9l3.7-6.7c0.6-1.1,2.3-3.8,9.8-14.2
	c4.3-6,5-8.9,5-10.1c0-0.8-0.1-1.2-0.1-1.5l-0.5,0c-1.8,0-4.8,1.1-9.5,6.4C85.7,22,79.1,31.6,70.3,45.8l-0.7,1.2l-1.4,0.3
	c-5.3,1.2-10.5,2.5-15.6,3.7c-5.1,1.2-5.1,3.1-5.1,3.7c0,2.6,0.7,3,2.8,3c1.1,0,3.2-0.3,7.4-1.9L66.9,52.2z"/>
<path class="st0" d="M168.8,81.3c0,3.7-4.1,8.3-12.4,13.6c-8.3,5.3-15.5,8-21.5,8c-4.1,0-7.3-1-9.6-2.9c-2.3-1.9-3.5-5.1-3.5-9.5
	c0-1.8,0.1-3.2,0.3-4.2c-7.7,7.7-15.1,16.6-22.4,26.7c-7.8,10.9-12.2,18.8-13.1,23.8c-1.1,3.6-2.7,6.4-4.9,8.4
	c-2.2,2-4.6,3.1-7.1,3.1c-3.7,0-5.6-1.8-5.6-5.3c0-7.1,6.6-22.9,19.9-47.3c13.3-24.4,23-36.6,29.3-36.6c2.3,0,3.6,0.8,4,2.4
	c0,1.6-3.6,7.5-10.7,17.6c-3.9,5.5-6.6,10.1-8,13.6c8.4-7.5,16.7-15,25.1-22.4C139,61.5,146.2,57,150.1,57c3.6,0,5.3,1.2,5.3,3.5
	c0,2.1-1.2,4.5-3.7,6.9c-5.2,4.5-9,8.2-11.4,11.2c-2.4,3-3.4,5.3-3.1,6.9c0.2,1.8,1.6,2.7,4.3,2.7c3,0,6.3-0.8,9.8-2.3
	c3.5-1.5,6.4-3.5,8.7-6c2.1-1.8,3.8-2.7,5.1-2.7C167.6,77,168.8,78.3,168.8,81.3z"/>
<path class="st0" d="M74.5,151.7c-5.6,0-9-3.2-9-8.7c0-7.7,6.6-23.7,20.3-48.9c18.5-34,26.9-38.3,32.2-38.3c5.5,0,6.9,3.5,7.3,5
	l0.1,0.7c0,1.5-0.6,3.8-7,13.4l7.9-7.1c14.9-12.6,20.6-14.2,23.9-14.2c8.1,0,8.7,5.2,8.7,6.8c0,3-1.6,6.2-4.7,9.3
	c-5.2,4.5-8.8,8.1-11.1,10.9c-2,2.6-2.4,3.8-2.4,4.1c0.2,0,0.5,0.1,1,0.1c2.6,0,5.4-0.7,8.4-2c3-1.3,5.6-3.1,7.6-5.2l0.3-0.3
	c2.7-2.3,4.9-3.4,7-3.4c0.3,0,0.7-0.1,1-0.1c3.1,0,6.3,1.9,6.3,7.4c0,5.1-4.4,10.3-14,16.4c-8.9,5.8-16.5,8.5-23.3,8.5
	c-4.9,0-8.8-1.2-11.8-3.7c-2.3-1.9-3.7-4.6-4.3-8c-5.6,6.1-11.1,13-16.5,20.4c-9.3,13-12,19.3-12.5,22.4l-0.1,0.4
	c-1.2,4.1-3.2,7.5-5.9,9.9C81,150.4,77.9,151.7,74.5,151.7z M118.1,62.5c-1.7,0-8.7,2.5-26.3,34.9C75.6,127,72.3,138.5,72.3,143
	c0,1.4,0.1,2,2.3,2c1.6,0,3.2-0.7,4.8-2.2c1.7-1.6,3.1-3.9,4-6.8c1.1-5.5,5.5-13.7,13.6-24.9c7.4-10.2,15-19.4,22.8-27.1l7.4-7.4
	l-1.8,10.3c-0.1,0.8-0.2,2.1-0.2,3.6c0,3.3,0.8,5.6,2.3,6.9c1.7,1.4,4.2,2.1,7.5,2.1c5.4,0,12-2.5,19.7-7.5
	c10.1-6.5,10.9-9.9,10.9-10.8c0-0.3,0-0.5,0-0.7l-0.4,0c0,0-0.8,0.1-2.8,1.8c-2.6,2.8-5.8,5-9.6,6.6c-3.9,1.7-7.6,2.5-11.1,2.5
	c-6.2,0-7.4-3.9-7.6-5.5c-0.5-2.7,0.7-5.7,3.8-9.6c2.6-3.2,6.4-7,11.8-11.7c1.5-1.6,2.5-3.1,2.6-4.3c-0.3-0.1-0.9-0.2-2-0.2
	c-1.4,0-6.1,1.2-19.5,12.6L95,104.8l5.3-13.2c1.5-3.8,4.3-8.5,8.4-14.3c6.2-8.9,8.6-13,9.6-14.8C118.2,62.5,118.1,62.5,118.1,62.5z"
	/>
<path class="st0" d="M218.9,63.7c0,2.7-0.6,5.3-1.9,8c1.1,0.7,1.6,2,1.6,3.7c0,3.6-2.8,11.3-8.3,23.2c-5.5,11.9-8.3,19.9-8.3,24
	c0,5.9,2.1,9.9,6.4,12c4.3,2.1,6.4,5,6.4,8.5c0,1.6-0.7,2.9-2.1,3.7c-1.4,0.9-3.3,1.3-5.6,1.3c-4.3,0-8-1.5-11.2-4.5
	c-3.9-3.7-5.9-8.7-5.9-15c0-1.1,0.2-2.6,0.7-4.5c0.4-2,0.8-3.4,0.9-4.3c-8.9,15-18,22.4-27.2,22.4c-8.2,0-12.8-5.7-13.9-17.1
	c0-13.7,5.8-28.9,17.4-45.7c12.5-18,24.8-27,37.1-27c4.3,0,7.7,0.9,10.2,2.8C217.7,57.4,218.9,60.1,218.9,63.7z M208.5,73.8
	c-1.2-4.6-3.7-6.9-7.2-6.9c-6.2,0-13.8,6.7-22.7,20.2c-8.9,13.4-13.4,24.3-13.4,32.5c0,3.6,1.2,5.9,3.5,6.9
	c3.9,1.2,9.2-3.3,15.8-13.6C192.5,99.8,200.5,86.8,208.5,73.8z"/>
<path class="st0" d="M207.2,151.7c-5.1,0-9.7-1.8-13.5-5.5c-3.7-3.6-6-8.1-6.7-13.5c-7.2,8.8-14.7,13.1-22.5,13.1
	c-7,0-15.7-3.5-17.2-20.1c0-14.7,6-30.7,17.9-47.9C178.2,59,191.6,49.4,205,49.4c5,0,9.1,1.2,12.2,3.5c3.3,2.5,5.1,6.2,5.1,10.8
	c0,2.5-0.4,4.9-1.3,7.4c0.6,1.1,1.1,2.5,1.1,4.4c0,2.6-0.9,8-8.6,24.6c-6.6,14.2-8,20.2-8,22.6c0,6.1,2.6,8.1,4.6,9
	c6.8,3.4,8.3,8.2,8.3,11.5c0,2.7-1.3,5.1-3.7,6.6C212.6,151.1,210.1,151.7,207.2,151.7z M198.8,101.6l-3.8,19.1
	c-0.2,0.9-0.5,2.4-0.9,4.4c-0.5,2.1-0.6,3.2-0.6,3.8c0,5.3,1.6,9.4,4.8,12.5c2.6,2.4,5.5,3.6,8.9,3.6c1.7,0,3-0.3,3.8-0.8
	c0.5-0.3,0.6-0.6,0.6-0.9c0-1.4-0.5-3.5-4.6-5.6c-3.8-1.9-8.3-6-8.3-15c0-4.7,2.7-12.8,8.6-25.4c6.9-15,8-20.1,8-21.8
	c0-0.8-0.2-1-0.2-1l-2.4-1.6l1.2-2.6c1-2.2,1.6-4.4,1.6-6.6c0-3.3-1.4-4.7-2.4-5.5c-1.9-1.4-4.6-2.1-8.1-2.1
	c-11.1,0-22.6,8.6-34.4,25.5c-11.1,16.1-16.8,30.8-16.8,43.8c1.2,12.3,6.6,13.8,10.6,13.8c8,0,16.2-7,24.4-20.8L198.8,101.6z
	 M170,130C170,130,170,130,170,130c-0.8,0-1.6-0.1-2.3-0.4l-0.4-0.1c-2.5-1.1-5.4-3.8-5.4-10c0-8.9,4.5-20.2,13.9-34.3
	c9.7-14.6,18-21.7,25.5-21.7c3,0,8.2,1.2,10.4,9.4l0.4,1.4l-24.8,40.2C180.6,125.1,175.1,130,170,130z M201.3,70.2
	c-2.8,0-9.2,2.4-19.9,18.7c-8.5,12.8-12.8,23.1-12.8,30.6c0,2.6,0.8,3.5,1.3,3.8c1.1,0,4.6-0.9,11.8-12.2l23.2-37.7
	C203.7,70.2,202.1,70.2,201.3,70.2z"/>
<path class="st0" d="M295.7,73.3c0,10.5-6,24-17.9,40.6c-13.4,18.5-26.2,27.8-38.5,27.8c-4.6,0-8.3-1.6-11-4.8
	c-9.6,19.6-18,38.9-25.1,58c-7.1,19.1-12.9,28.6-17.4,28.6c-2.8,0-4.3-1.8-4.3-5.3c0-6.4,3.7-18.3,11.2-35.8
	c4.6-10.9,11.9-26.2,21.9-45.9c4.5-8.9,9-17.8,13.6-26.7c10-19.4,20-38.8,30.2-58.2c3.6-6.1,6.9-9.1,9.9-9.1c3.9,0,5.9,1.4,5.9,4.3
	c0,2.1-1.2,5.3-3.5,9.6c-1.1,2.1-3.3,5.9-6.7,11.2c7.1-5.7,13.7-8.5,19.8-8.5C291.8,58.9,295.7,63.7,295.7,73.3z M281,77.6
	c0-3.9-1.3-5.9-3.8-5.9c-5.5,0-12.1,4.7-19.7,14c-7.6,9.4-15.9,22.9-24.8,40.7c2,2,4.5,2.9,7.5,2.9c7.9,0,16.7-6.6,26.3-19.9
	C276.2,96.2,281,85.6,281,77.6z"/>
<path class="st0" d="M185.9,226.8c-1.8,0-7.6-0.6-7.6-8.7c0-6.9,3.8-19.1,11.5-37.1c4.6-10.9,12-26.4,22-46.1
	c4.5-9,9.1-18,13.6-26.8c9.6-18.7,19.8-38.3,30.2-58.2c4.4-7.5,8.4-10.9,12.8-10.9c8.5,0,9.2,5.8,9.2,7.6c0,2.7-1.2,6.2-3.8,11.1
	c3.5-1.4,6.8-2.1,10.1-2.1c5.6,0,15.1,2.3,15.1,17.8c0,11.3-6.1,25.2-18.5,42.6c-14.2,19.6-27.6,29.2-41.2,29.2
	c-3.8,0-7.1-0.9-9.9-2.7c-8.7,18.1-16.5,36.1-23.1,53.7C196.3,223.1,190.4,226.8,185.9,226.8z M185.3,220c0,0,0.2,0.1,0.6,0.1
	c0.2,0,4.7-1,14.2-26.4c7.1-19.1,15.6-38.7,25.2-58.3l2.3-4.6l3.3,4c2,2.4,4.8,3.6,8.4,3.6c11.1,0,23.1-8.9,35.8-26.4
	C286.6,96,292.4,83,292.4,73.3c0-9.8-4.3-11.1-8.4-11.1c-5.3,0-11.2,2.6-17.7,7.8l-15.6,12.5l10.7-16.9c3.3-5.2,5.5-8.9,6.5-10.9
	c2.7-5,3.1-7.2,3.1-8.1c0-0.4-0.1-0.5-0.1-0.5c0,0-0.5-0.5-2.5-0.5c-0.4,0-2.8,0.4-7,7.4c-10.3,19.7-20.5,39.3-30.1,58.1
	c-4.6,8.8-9.1,17.7-13.6,26.7c-9.9,19.6-17.2,35-21.8,45.8c-9.1,21.1-11,30.4-11,34.5C185,219.4,185.2,219.9,185.3,220L185.3,220z
	 M240.2,132.7c-3.9,0-7.3-1.3-9.9-3.9l-1.7-1.7l1.1-2.2c9-18,17.5-31.9,25.2-41.3c8.4-10.3,15.7-15.3,22.3-15.3
	c1.7,0,7.1,0.7,7.1,9.2c0,8.8-5,19.9-15.1,33.9C258.8,125.8,249.3,132.7,240.2,132.7z M236.9,125.4c0.9,0.4,2,0.6,3.3,0.6
	c6.7,0,14.7-6.2,23.6-18.5c9.2-12.6,13.9-22.7,13.9-30c0-2-0.4-2.6-0.4-2.6l0,0.1c-3.1,0-8.5,2.2-17.2,12.8
	C253.1,96.5,245.3,109.1,236.9,125.4z"/>
<path class="st0" d="M12.6,205.4c21.4-1.2,42.9-6.7,64.1-10c28.1-4.4,56.5-7.9,84.8-10.8c25.6-2.7,51.2-4.6,76.9-5.9
	c12.2-0.6,24.5-1.1,36.8-1.2c11.5-0.1,25.5,2.7,36.2-1.7c4.4-1.8,7.2-9.1,1.5-11.6c-9-4-17.9-2.6-27.6-2.3
	c-13.8,0.4-27.7,1.1-41.5,1.9c-27.5,1.6-54.9,4.3-82.2,7.5c-25.9,3-51.8,6.8-77.5,11.2c-23.8,4-49.8,7.1-72.3,16.1
	C8.3,199.9,8.4,205.7,12.6,205.4L12.6,205.4z"/>
</svg>
