<?xml version="1.0" encoding="utf-8"?>
<!-- Generator: Adobe Illustrator 21.1.0, SVG Export Plug-In . SVG Version: 6.00 Build 0)  -->
<!DOCTYPE svg PUBLIC "-//W3C//DTD SVG 1.1//EN" "http://www.w3.org/Graphics/SVG/1.1/DTD/svg11.dtd">
<svg version="1.1" id="Layer_1" xmlns="http://www.w3.org/2000/svg" xmlns:xlink="http://www.w3.org/1999/xlink" x="0px" y="0px"
	 viewBox="0 0 230 111" style="enable-background:new 0 0 230 111;" xml:space="preserve">
<path d="M59,20.4l1.4,0.3c0.2,0,0.3-0.1,0.3-0.3l1.4,0.3h0.3c0.4,0,0.8-0.1,1.1-0.3c0.3,0.2,1.4,0.4,3.3,0.6l0.6-0.3
	c0.3,0.2,0.8,0.3,1.7,0.3v0.6h-0.3c-0.2,0-0.3-0.1-0.3-0.3c-0.4,0.2-0.6,0.3-0.8,0.3c-0.9,0-2-0.1-3.3-0.3c-1,0.2-2,0.3-3,0.3v0.3
	h2.5v0.6l-3.9,0.3v0.3c0.6,0,0.8,0.2,0.8,0.6c1.2,0,2.8-0.1,4.7-0.3c3.5,0.2,5.2,0.4,5.2,0.6v0.6l0.8-0.6l0.3,0.6v0.3h-0.5
	c-0.2,0-1.2-0.2-3-0.5c-0.4,0.2-0.6,0.3-0.8,0.3V24l-0.6,0.3h-3L63.1,24v0.5h4.7c0.2,0,0.3,0.1,0.3,0.3l0.6-0.3l2.5,0.6
	c0-0.2,0.1-0.3,0.3-0.3l0.3,0.6c0.4-0.2,0.6-0.3,0.8-0.3l1.4,0.3c-0.2,0.4-0.3,0.6-0.3,0.8l-1.9-0.3c0,0.3-0.2,0.6-0.5,0.8
	c-2-0.4-4.3-0.6-6.9-0.6h-3v-0.6h-0.6l0.3,0.6c-1.2,0-2.1,0.1-2.8,0.3v-0.3l-0.6,0.3h-1.9l-1.4,0.3c0-0.2-0.1-0.3-0.3-0.3L53.7,27
	c0.2,0,0.5,0.1,0.8,0.3c0-0.2,0.1-0.3,0.3-0.3v0.3l0.6-0.3c0.2,0,0.3,0.1,0.3,0.3c0.2,0,0.3-0.1,0.3-0.3c0.7,0.2,1.4,0.3,1.9,0.3
	v0.3c0,0.4-0.3,0.6-0.8,0.6c-0.2,0-0.3-0.1-0.3-0.3l-1.4,0.3h-0.8v0.5l2.8-0.3h2.2L59.3,27l0.8,0.6c0-0.2,0.1-0.3,0.3-0.3v0.3
	l-0.6,0.8h0.8v-0.6h0.3c0,0.4,0.3,0.6,0.8,0.6c0,0.7-0.6,1.2-1.9,1.4V30c-1.9-0.2-3-0.4-3.3-0.5c0,0.4-0.2,0.5-0.5,0.5h-0.3
	c-0.2,0-0.3-0.1-0.3-0.3c-1.2,0.2-2.2,0.6-2.8,1.4l-0.3-0.6c0.2,0,0.3-0.1,0.3-0.3h-2.8v0.6h0.6v0.5c-2.5,0.2-4.3,0.3-5.5,0.3h-0.8
	l0.3-0.6h-0.8l0.3,0.6l-0.5,0.3h-4.7c-0.2,0-0.3-0.1-0.3-0.3c-0.6,0.4-1.1,0.6-1.4,0.6v-0.3c-1.5,0.4-5.1,1-11,1.9v0.8h0.6
	c0.5,0,1.3-0.2,2.5-0.6v0.3c0.3-0.2,2-0.5,5-0.8v0.3c0.4-0.2,1.4-0.4,3-0.6v0.6l-3.3,0.6v-0.3c-2.5,0.4-4.2,0.7-5.2,1.1L27.9,35
	c-0.7,0.4-2.1,0.7-4.1,1.1v-0.3c-0.9,0.3-1.4,0.8-1.4,1.4h-0.8v-0.6c-1,0.9-1.7,1.4-2.2,1.4l-0.3-0.6c-0.6,0-3.5,0.8-8.5,2.5H10
	v-0.6c2.8-1.1,4.3-1.7,4.4-1.7v-0.3h-0.6c-0.4,0.2-0.6,0.3-0.8,0.3c0-0.4-0.2-0.6-0.6-0.6c0,0.9-1.2,1.5-3.6,1.7v-0.3L9.2,38
	c-0.9,0-1.4-0.9-1.7-2.8c-0.7,0-1.1-0.8-1.1-2.5c0.4-0.2,0.6-0.3,0.8-0.3c0-0.4-0.4-0.6-1.1-0.6v-0.3l0.5-0.8v-0.3H6.1L6.4,30
	c-0.4,0-0.6-0.2-0.6-0.5c2.9-2.8,11-5.1,24.2-6.9c0,0.2,0.1,0.3,0.3,0.3c0-0.4,1.1-0.7,3.3-0.8l0.5,0.3l1.7-0.6
	c0.3,0.2,0.7,0.3,1.1,0.3l1.9-0.6v0.3l4.7-0.3c0.2,0,0.3,0.1,0.3,0.3c0.8-0.4,2-0.5,3.6-0.5H48l0.6,0.3c0-0.4,0.2-0.6,0.6-0.6
	c0.2,0,0.3,0.1,0.3,0.3l0.6-0.3h0.3c0.2,0,0.3,0.1,0.3,0.3l0.5-0.3h1.9c0.2,0,0.3,0.1,0.3,0.3c0.7-0.4,1.7-0.6,3-0.6H57v0.6h1.4
	C58.4,20.7,58.6,20.4,59,20.4 M26.8,40.3c2.8,2.3,5,3.8,6.4,4.3v1.9l0.9-0.6h0.3l2.8,3.7c-0.2,1.1-0.3,1.9-0.3,2.4h-0.6v-0.6h-0.3
	v1.2h0.6c-0.1,1.3-0.5,2.3-1.2,3l0.6,1h-0.3L35,56.2l-3.1,13.2l0.3,0.6l-0.6,1.5c0.2,0.4,0.3,0.7,0.3,0.9c-0.6,1.9-0.9,3.7-0.9,5.2
	v0.6h-0.3l-0.9-0.6l-0.3,0.6v0.3l1.2,0.3v0.6l-0.5-0.3h-0.3l-1.2,5.5h-0.6l-0.3-1.2h-0.3V84H27c-0.4,0-0.6-0.3-0.6-0.9
	c-0.4,0-0.6,0.3-0.6,0.9h-0.6c0-0.8-0.3-1.2-0.9-1.2H24v0.6h-0.3v-1.2c0-0.2,0.1-0.3,0.3-0.3c-0.2-0.4-0.3-0.8-0.3-1.2h-0.6
	c0,0.4-0.5,0.8-1.5,1.2l-0.3-1.5h0.5V81h0.3v-1.2l-1.2-0.3v1.9c0,0.4-0.2,0.6-0.6,0.6L20,81.3h0.3c-1-1.4-1.5-3-1.5-4.9v-4.6
	c0.1-4.1,0.3-6.1,0.6-6.1c0-0.2-0.1-0.3-0.3-0.3c2.8-15,4.8-23.2,6.1-24.8C25.9,40.6,26.4,40.5,26.8,40.3 M19.3,37.4h0.6v-0.3h-0.6
	V37.4z M20.2,37.2h0.6v-0.3h-0.6V37.2z M20.9,76.1h0.3v-0.6h-0.3V76.1z M20.9,78.5h0.3V77h-0.3V78.5z M22.2,77h0.3v-0.6h-0.3V77z
	 M24.3,82.5h0.3v-0.6h-0.3V82.5z M24.9,82.8l0.6,0.3c0.4,0,0.6-0.2,0.6-0.6l-0.6-0.3C25.1,82.3,24.9,82.5,24.9,82.8 M25.5,79.8
	c0,0.5-0.1,0.9-0.3,1.2h0.6v-1.2H25.5z M27,67.8h0.6v-0.9H27V67.8z M28.4,24.5H29V24C28.6,24,28.4,24.2,28.4,24.5 M29.8,24v0.3h0.3
	c0.4-0.2,0.6-0.3,0.8-0.3v-0.3h-0.3C30.3,23.9,30,24,29.8,24 M30.1,74.3h0.3v-1h-0.3V74.3z M30.9,24.5c0,0.4,0.2,0.6,0.5,0.6v-0.6
	H30.9z M32,23.7c0.2,0.4,0.3,0.6,0.3,0.8c0.4,0,0.5-0.2,0.5-0.5v-0.3H32z M32.9,58.3h0.3v-1.2h-0.3V58.3z M33.2,66.9h0.3v0.6h-0.3
	V66.9z M33.8,64.1h0.3v1.5h-0.6L33.8,64.1z M34.7,60.2c0.4,0.2,0.7,0.3,1,0.3v0.6c-0.6,0-1,0.5-1,1.5h-0.6c0-0.2,0.1-0.3,0.3-0.3
	l-0.3-0.6L34.7,60.2z M34.2,23.7h0.6v-0.3h-0.6V23.7z M34.5,24.2H35V24h-0.6V24.2z M35.6,24.5h0.6v-0.3h-0.6V24.5z M36.2,49.1
	L35.9,51c0.4,0,0.6-0.3,0.6-1v-0.9H36.2z M36.7,23.1v0.6c0.2-0.2,0.9-0.3,1.9-0.3v-0.3H36.7z M38.3,27.8h0.6v-0.3h-0.6V27.8z
	 M43.3,23.1h1.1v-0.3h-1.1V23.1z M46,32.8l-3.9,0.6c-0.4,0-1.4,0.1-3,0.3V33C39.4,33,44.4,32.9,46,32.8 M43.6,27.3l0.3,0.6
	c0.3-0.2,0.7-0.3,1.1-0.3v-0.3H43.6z M44.7,31.4h0.3v-0.5h-0.3V31.4z M45.2,23.1h0.3v-0.5h-0.3V23.1z M45.2,31.1h0.6v-0.3h-0.6V31.1
	z M45.8,22v1.1c0.9,0,1.5-0.4,1.7-1.1h-0.8v0.6H46V22H45.8z M46,27c0,0.4,0.2,0.6,0.5,0.6V27H46z M46.6,23.4c0,0.4,0.2,0.6,0.6,0.6
	v-0.6H46.6z M46.6,32.8h1.9l-4.1,0.6H43C42.6,33.3,46.6,33.1,46.6,32.8 M46.9,27.3H48V27h-1.1V27.3z M47.4,22.6l0.3,0.5
	c-0.2,0-0.3,0.1-0.3,0.3c0.2,0,0.3,0.1,0.3,0.3c-0.2,0-0.3,0.1-0.3,0.3h1.1L48,22.9c0.2,0,0.3-0.1,0.3-0.3H47.4z M47.4,30.6v0.3
	c0.5,0,0.8,0.1,0.8,0.3l0.6-0.3l0.5,0.3l0.3-0.6H47.4z M48.5,22.3v0.6h1.1v-0.3C49.2,22.6,48.8,22.5,48.5,22.3 M48.8,24h0.6v-0.6
	h-0.6V24z M50.2,26.7c0,0.4,0.2,0.5,0.5,0.5v-0.5H50.2z M50.4,22.3v0.3h2.8c0,0.3,0.3,0.6,0.8,0.8l0.6-0.3c0.4,0.2,0.6,0.3,0.8,0.3
	c0-0.4-0.2-0.6-0.6-0.6h-0.3L54,23.1l-0.3-0.5c0.2,0,0.3-0.1,0.3-0.3c-0.9,0-1.4-0.2-1.4-0.6v-0.3L50.4,22.3z M51.5,23.7h0.8v-0.3
	h-0.8V23.7z M51.5,27h0.6v-0.3h-0.6V27z M52.1,28.6h0.6v-0.3h-0.6V28.6z M52.9,28.1v0.5c0.3-0.2,0.7-0.3,1.1-0.3v-0.6
	C53.7,28,53.3,28.1,52.9,28.1 M53.5,25.1h0.3v-0.6h-0.3V25.1z M54.3,22.3v0.3c0.4,0,0.5-0.2,0.5-0.6v-0.3
	C54.5,21.8,54.3,22,54.3,22.3 M55.1,21.8V22c0.7,0,1.4,0.3,2.2,0.8h0.3c0-0.3-0.6-0.7-1.7-1.4C55.6,21.7,55.3,21.8,55.1,21.8
	 M55.4,29.2h1.4v-0.3h-1.4V29.2z M56,22.6c0.2,0.4,0.3,0.6,0.3,0.8h0.6v-0.6C56.6,22.9,56.3,22.8,56,22.6 M57,29.2h1.1v-0.3H57V29.2
	z M57.9,22c0-0.2-0.1-0.3-0.3-0.3V22c0.3,0.7,0.6,1.1,0.8,1.1c0-0.7,0.7-1.1,2.2-1.4h0.3v-0.3h-1.4C58.9,21.8,58.4,22,57.9,22
	 M59,23.4h0.6v-0.6C59.2,22.9,59,23.1,59,23.4 M59.3,24.5h0.6V24h-0.6V24.5z M60.1,24.5h0.3V24h-0.3V24.5z M60.9,27h0.8v0.6
	c-0.2,0-0.5,0.1-0.8,0.3V27z M61.2,24.5H62v-0.8C61.7,23.7,61.5,24,61.2,24.5 M61.5,25.1v0.3h1.4v-0.3c-0.4,0-0.6-0.1-0.6-0.3
	C61.9,25,61.6,25.1,61.5,25.1 M65,26.7c1.1,0.2,1.7,0.4,1.7,0.5l0.6-0.3h0.6v0.6h-1.7l-1.7-0.3l-0.6,0.3l-0.6-0.3
	c-0.3,0.2-0.7,0.3-1.1,0.3V27h1.1L65,26.7z M63.1,25.3h0.6v-0.3h-0.6V25.3z M63.1,28.9h0.8v0.6h-0.8V28.9z M66.4,25.3h0.3v-0.6h-0.3
	V25.3z M66.4,25.9h3.3v-0.3h-3.3V25.9z M69.2,28.1l0.3,0.5h-2.2v-0.3C68.3,28.4,68.9,28.3,69.2,28.1 M69.2,27l2.5,0.3v0.6h-0.5
	c-0.2,0-0.3-0.1-0.3-0.3l-0.6,0.3l-1.9-0.3C68.3,27.2,68.6,27,69.2,27 M70.3,28.1c0.3,0,1.1,0.2,2.5,0.5v0.3h-1.9
	c-0.2,0-0.3-0.1-0.3-0.3L70,28.9h-0.6C69.4,28.6,69.7,28.4,70.3,28.1 M70.5,20.9h0.6v0.5h-0.6V20.9z M70.5,25.3v0.8h0.8
	C71.4,25.9,71.1,25.6,70.5,25.3 M72.2,27.5h0.6v0.3h-0.6V27.5z M73.8,24h0.6v0.3h-0.6V24z"/>
<path d="M100.3,51.3c-0.9-2.9-1.5-4.4-1.9-4.4c-0.5-1-1.7-2.4-3.6-4.1L94.1,43c0-0.6-0.7-1.6-2.2-3c0,0.4,0.1,0.8,0.3,1.1v0.3
	c-0.2,0-0.8-0.6-1.9-1.9h-0.5l0.8,1.1h-0.3c-1-0.9-2.2-1.5-3.6-2L87,38c-0.2,0-0.5,0.1-0.8,0.3h-0.3V38h0.6v-0.3
	c-0.2,0-0.5-0.1-0.8-0.3l-0.6,0.3h-0.6l0.3-0.6v-0.3h-0.3c-0.3,0-0.5,0.2-0.6,0.6l-0.6-0.3h-0.5v0.6h-0.6c-0.4,0-0.8-0.1-1.1-0.3
	L79.8,38c-0.3,0-0.5-0.2-0.6-0.5c-0.5,0.3-0.8,0.6-0.8,0.8v0.3c0.5,0,1.1,0.2,1.7,0.6l1.1-0.3l0.8,0.6l0.6-0.3
	c0,0.4,0.5,0.6,1.4,0.6c0,0.2-0.1,0.3-0.3,0.3c4.8,2.6,7.2,5,7.2,7.2c0,3.1-1.3,5.9-3.9,8.3c0,0.4-1,1.7-3,3.9
	c-0.9,0.5-1.4,1-1.7,1.4c-3.3,1.8-5,3.3-5,4.4c-0.2,0-0.3-0.1-0.3-0.3c-2,0-3.8,1.1-5.6,3.3h0.5v0.3h-0.3c-0.3-0.2-0.7-0.3-1.1-0.3
	L69.3,69c0,0.2,0.1,0.3,0.3,0.3v0.6h-0.3v-0.3h-1.1v0.3H69v0.3l-0.3,0.6h0.5c0.6,0,1.7-0.6,3.6-1.7v0.3C71.6,70,71,70.8,71,71.7h0.6
	c0-0.4,0.4-0.8,1.1-1.1h0.3v0.3l-0.3,0.6c-3.5,2.1-5.9,3.2-7.2,3.3v-0.6c-0.2,0-0.3,0.1-0.3,0.3c-0.3,0-0.5-0.2-0.5-0.5v-0.6h0.5
	l-0.3-0.6v-0.3c0.2,0,0.5-0.1,0.8-0.3c0,0.2,0.1,0.3,0.3,0.3v-0.3h1.1V72l-0.3-0.6c1.2,0,1.8-0.3,1.9-0.8h-0.3l-0.6,0.3
	c0-0.2-0.1-0.3-0.3-0.3l0.6-0.8h-0.6l-0.8,0.5l0.3,0.6v0.3h-0.6L66,70.9c0,0.7-0.6,1.2-1.7,1.4v-0.6c-0.2,0-0.5,0.1-0.8,0.3
	c-1.1,0-2.4-0.7-3.9-2.2c-0.5,0-1.1,0.2-1.7,0.5L57.7,69h-0.3l-0.6,0.3v-0.6h-1.1c-0.2,0-0.6,0.6-1.4,1.7c-1.2,4.6-2.7,6.9-4.5,6.9
	v0.3c0,0.4,0.3,0.6,0.8,0.6c0,0.3-0.5,0.7-1.7,1.1v-0.3c-1.3,0.4-1.9,0.6-1.9,0.8c-3.3,0.5-5,1.1-5,1.7c0.2,0,0.3,0.1,0.3,0.3
	l-0.8,1.1h0.6c0.3,0.7,0.6,1.1,1.1,1.1c0,0.2-0.1,0.3-0.3,0.3c0.2,0.8,0.6,1.3,1.1,1.4c1,0,2.5,0.5,4.4,1.4c0,0.2-0.1,0.3-0.3,0.3
	c0,0.2,0.1,0.3,0.3,0.3c0,0.5-0.2,1.4-0.6,2.8c0.2,0,0.3,0.1,0.3,0.3c-0.2,0-0.5,0.9-0.8,2.8c0.3,0,0.6,0.8,0.8,2.5
	c-0.2,0-0.3,0.1-0.3,0.3v0.3c0.1,0.4,0.6,0.7,1.4,1.1l-0.3,0.6v0.3c0.4,0,0.5,0.5,0.5,1.4h0.6V99h0.3c0.4,0,0.5,0.2,0.5,0.5
	c0.2,0,0.3-0.1,0.3-0.3c2.1,1.5,3.1,2.6,3.1,3.4h0.3c0.4,0,0.5-0.3,0.5-0.9h0.6c0,0.2,0.1,0.5,0.3,0.9c0.7-0.4,1.1-1.2,1.1-2.3
	c1.3-0.6,1.9-1.8,1.9-3.6l0.5,0.3h0.3c0-0.4,0.3-1.1,0.8-2.2l-0.3-0.6l0.8-0.8c0-0.9,0.9-3.4,2.8-7.7c2.5-1,3.9-1.7,4.1-2.2
	c0.2,0,0.3,0.1,0.3,0.3l0.6-0.3l-0.3-0.6c-0.6,0-1.7,0.5-3.6,1.4h-0.5v-1.4c1.8-0.5,2.8-1.1,2.8-1.7c-0.3,0-1,0.2-2.2,0.6h-0.3v-0.3
	c1.4-1.1,2.3-1.7,2.8-1.7v0.6h0.3c0.4-0.4,1-0.6,1.7-0.6v-0.5h-0.3l-0.5,0.3l-0.3-0.6l1.4-0.3c0.2,0,0.3,0.2,0.3,0.6h0.5v-0.3
	l-0.3-0.6c1.7,0,2.5-0.3,2.5-0.8c0.4,0,0.6,0.2,0.6,0.6c-0.8,0.1-1.2,0.4-1.2,0.8v0.6l1.4,0.3v-0.3l-0.6-0.8h1.2
	c0-0.2-0.1-0.3-0.3-0.3c0-0.2,0.1-0.3,0.3-0.3L74,77.8v-0.8c1.3,0,2.1-0.3,2.2-0.8c0.3,0.2,0.6,0.3,0.8,0.3v0.6
	c-1.1,0-1.7,0.2-1.7,0.6v0.3c0.4,0,0.6,0.2,0.6,0.6c0.6-0.6,1.2-0.8,1.7-0.8l-0.3-1.4c0.5,0,1.2-0.2,1.9-0.6l0.6,0.3
	c0.7-0.4,1.1-0.6,1.1-0.8v-0.3c-0.2,0-0.5,0.1-0.8,0.3h-0.3c0-0.2,0.1-0.3,0.3-0.3l-0.3-0.6h0.6v-0.3l-0.3-0.6
	c0.4,0,0.8-0.1,1.1-0.3c0.2,0.4,0.3,0.6,0.3,0.8l1.1-0.6l0.6,0.3c0-0.4,0.4-0.6,1.1-0.6L84,72.5c-0.9,0-1.4,0.1-1.7,0.3V72
	c2-1.1,3.2-1.7,3.6-1.7l-0.3-0.5h0.3l0.6,0.3c0.3-0.6,0.6-0.8,0.8-0.8h0.3v0.6l-1.7,0.8v0.6c0.4,0,0.6,0.2,0.6,0.5H87
	c0-0.2-0.1-0.5-0.3-0.8l0.3-0.6c0.2,0,0.3,0.1,0.3,0.3c1,0,2.2-0.7,3.6-2.2v-0.3c-0.2,0-0.5,0.1-0.8,0.3h-0.6
	c0.2-0.4,0.3-0.6,0.3-0.8l0.5,0.3h0.6v-0.3c0-0.3-0.2-0.5-0.6-0.5H90l-1.1,0.8l0.3,0.6c-0.2,0-0.5,0.1-0.8,0.3
	c0-0.2-0.1-0.3-0.3-0.3c-0.3,0-0.5,0.2-0.6,0.5c-0.4-0.2-1.2-0.4-2.5-0.5v0.3l0.3,0.6l-3,2.5l-0.8-0.5h-0.3l0.3,0.5
	c0,0.2-0.6,0.6-1.7,1.1v-0.3l0.3-0.6h-0.8c-0.5,0.4-0.8,0.6-1.1,0.6v0.3h1.1v0.3c-0.7,0.9-1.1,1.4-1.4,1.4v-0.5h-0.3l-0.8,0.5h-0.3
	v-0.3c0-0.3,0.2-0.5,0.6-0.6l-0.3-0.6c0.2,0,0.8-0.3,1.7-0.8c1-1,2.4-1.9,4.1-2.8c1,0.2,1.5,0.3,1.7,0.3c0.1-1.4,1.1-2.7,2.8-3.9
	v0.3c1,0,1.7-0.4,1.9-1.1v-0.3h-0.5v-0.3l1.1-1.1l0.6,0.3c1.1-1,1.7-1.6,1.7-1.7h-0.8c0.3-0.5,0.6-0.8,0.8-0.8v0.8h0.3
	c0.4,0,0.5-0.5,0.5-1.4c0.2,0,0.3,0.1,0.3,0.3c0.4,0,0.6-0.2,0.6-0.6v-0.3h-0.6c1.9-3.4,2.8-5.7,2.8-6.9l0.6,0.3h0.3l0.3-1.4v-0.3
	h-0.6c0.4-1.3,0.6-2.4,0.6-3.3l-0.3-1.4h-0.3V48c-0.6-0.7-1.2-2.1-1.7-4.1v-0.3H95c0,0.3,0.2,0.8,0.5,1.4c1.3,0.8,1.9,1.8,1.9,3v2.5
	H97V51c0.2,0,0.5-0.1,0.8-0.3h0.3v1.1c0,0.4-0.2,0.6-0.6,0.6v-1.1h-0.3c0,0.6-0.1,1.1-0.3,1.4l0.6,0.3c0,0.2-0.1,0.3-0.3,0.3
	l0.3,1.7c-1,2.6-1.7,3.9-2.2,3.9c-0.8,2.5-3.6,5.7-8.3,9.4h0.3c1.7-1.1,3.7-2.5,5.8-4.4v0.6c-0.6,0-0.9,0.4-1.1,1.1
	c0.2,0,0.3,0.1,0.3,0.3c-0.6,0.2-1,0.3-1.1,0.3V67c0.2,0,0.5,0.1,0.8,0.3l1.1-0.8c4.8-5.2,7.2-9.3,7.2-12.2l-0.3-0.6
	c0.2,0,0.3-0.1,0.3-0.3v-1.7l-0.3-0.6H100.3z M44.7,84.7l-0.6-0.3l0.3-0.5l0.6,0.3L44.7,84.7z M50.8,79.7c-0.9,0.5-2.2,0.9-3.9,1.1
	h-0.5v-0.3l4.4-1.4V79.7z M78.7,74.5h0.8c0,0.4-0.6,0.7-1.7,1.1h-0.3C78,74.8,78.4,74.5,78.7,74.5z M66.5,79.1h-0.3v-0.6h0.8
	C67.1,79,66.9,79.1,66.5,79.1z M67.4,78.9l0.3-1.4h0.6c0,0.2,0.1,0.5,0.3,0.8C68.5,78.6,68.1,78.7,67.4,78.9z M68.5,74.7
	c-0.2,0-0.5,0.1-0.8,0.3c0.3-0.6,0.6-0.8,0.8-0.8V74.7z M69.6,75.8H69c0-0.3,0.4-0.5,1.1-0.8h0.3C70.1,75.6,69.9,75.8,69.6,75.8z
	 M73.2,75.6l-0.3,0.6c0.2,0,0.3,0.1,0.3,0.3h-0.6c0-0.2-0.1-0.5-0.3-0.8v-0.3h0.8V75.6z M74.6,71.7c-0.2,0-0.5,0.1-0.8,0.3h-0.3
	v-0.3c0.3,0,0.6-0.2,1.1-0.5V71.7z M74,70.3v-1.1h0.3c0,0.4,0.1,0.8,0.3,1.1H74z M74.6,68.7c-0.6,0-1.1,0.1-1.4,0.3v-0.5l1.4-0.3
	V68.7z M76.3,67.6c-0.3,0-0.8,0.3-1.4,0.8v-0.3c0-0.3,0.4-0.6,1.1-0.8h0.3V67.6z M76.3,67v-0.3c0.3,0,1.1-0.4,2.2-1.1v0.5
	c-0.9,0.1-1.4,0.4-1.4,0.8H76.3z M77.1,68.7h-0.3l0.3-1.1h0.3c0,0.2,0.1,0.5,0.3,0.8L77.1,68.7z M78.2,68.7h-0.3v-1.1l0.6,0.3
	C78.3,68.2,78.2,68.5,78.2,68.7z M82.6,65.7l-1.4-0.3l0.3-0.6l1.1,0.3V65.7z M79.8,65.4l0.6,0.8l-0.3,0.6h0.3
	c-0.1,0.4-0.6,0.7-1.4,1.1c-0.3,0-0.5-0.2-0.6-0.6V67c0.9,0,1.4-0.3,1.4-0.8c-0.3,0-0.6-0.2-1.1-0.5c1-1.2,2.2-2.2,3.6-3
	c0,0.4,0.1,0.8,0.3,1.1C80.7,64.5,79.8,65,79.8,65.4z M83.7,62.4h-0.3c0.2-0.4,0.3-0.6,0.3-0.8h0.6L83.7,62.4z M90.6,58.7
	c0.2,0,0.5-0.1,0.8-0.3v0.3l-0.3,0.6C90.8,59.3,90.7,59.1,90.6,58.7z M91.4,60.4h-0.3c0.3-0.8,0.6-1.2,0.8-1.2h0.5
	C92.1,60,91.7,60.4,91.4,60.4z M95,61.3l-0.3,1.1h-0.6C94.5,61.6,94.8,61.3,95,61.3z M95.3,62.9h-0.6l2.2-3.4L96.7,59l1.1-0.8
	c0-0.2-0.1-0.3-0.3-0.3c1.1-2.7,1.7-5.2,1.7-7.7h0.3c0,1.2,0.1,2.3,0.3,3.3C99.7,55.9,98.3,59.1,95.3,62.9z"/>
<rect x="43.4" y="83.3" width="0.6" height="0.3"/>
<rect x="44.5" y="79.4" width="0.6" height="0.5"/>
<path d="M45.3,84.2c0,0.4,0.2,0.6,0.6,0.6v-0.6H45.3z"/>
<rect x="45.6" y="78.9" width="0.6" height="0.6"/>
<rect x="46.7" y="49.6" width="0.6" height="0.6"/>
<rect x="47.8" y="81.7" width="0.3" height="0.6"/>
<rect x="48.3" y="81.7" width="0.6" height="0.3"/>
<rect x="53.6" y="93" width="0.3" height="0.6"/>
<rect x="54.4" y="98.8" width="0.6" height="0.3"/>
<path d="M55.3,100.7v0.3c0,0.4,0.2,0.6,0.6,0.6v-0.3C55.8,100.9,55.6,100.7,55.3,100.7"/>
<rect x="61.9" y="87.2" width="0.3" height="0.6"/>
<rect x="65.4" y="73.9" width="0.6" height="0.3"/>
<rect x="66" y="83.1" width="0.6" height="0.3"/>
<rect x="66.8" y="76.7" width="0.6" height="0.3"/>
<line x1="67.9" y1="89.1" x2="67.9" y2="88.5"/>
<rect x="69.9" y="69.2" width="0.3" height="0.6"/>
<path d="M71,82.2v0.6h-0.6C70.5,82.4,70.7,82.2,71,82.2"/>
<rect x="71.5" y="72.5" width="0.8" height="0.3"/>
<rect x="71.5" y="82" width="0.6" height="0.3"/>
<rect x="71.8" y="74.2" width="0.6" height="0.3"/>
<rect x="73.8" y="73.1" width="0.3" height="0.6"/>
<path d="M74.9,71.2h0.6v-0.6C75.1,70.7,74.9,70.8,74.9,71.2"/>
<rect x="74.9" y="75" width="0.3" height="0.6"/>
<path d="M75.1,69.8h0.3c0.4,0,0.6-0.2,0.6-0.6h-0.3C75.3,69.3,75.1,69.5,75.1,69.8"/>
<rect x="75.7" y="72.3" width="0.6" height="0.3"/>
<rect x="78.2" y="70.9" width="0.6" height="0.3"/>
<rect x="80.9" y="61.8" width="0.6" height="0.3"/>
<path d="M83.1,38.5c0,0.4,0.2,0.6,0.6,0.6h0.6L84,38.5h0.6v-0.3h-0.3C83.9,38.5,83.5,38.5,83.1,38.5"/>
<rect x="83.7" y="64.3" width="0.3" height="0.5"/>
<rect x="85.9" y="59.5" width="0.3" height="0.6"/>
<path d="M86.4,40.8v0.3c0.2,0,0.5,0.1,0.8,0.3h0.3v-0.3c-0.2,0-0.5-0.1-0.8-0.3H86.4z"/>
<path d="M87,72.3h0.5c0,0.4-0.2,0.6-0.5,0.6h-0.6C86.5,72.5,86.7,72.3,87,72.3"/>
<rect x="87.3" y="64" width="0.6" height="0.6"/>
<rect x="87.5" y="57.6" width="0.6" height="0.3"/>
<rect x="88.9" y="40.3" width="0.6" height="0.3"/>
<rect x="88.9" y="59.5" width="0.3" height="0.9"/>
<path d="M90.3,57.1v0.5c0.4,0,0.6-0.2,0.6-0.5H90.3z"/>
<rect x="91.1" y="57.9" width="0.6" height="0.3"/>
<rect x="91.9" y="57.1" width="0.6" height="0.3"/>
<rect x="93.3" y="57.1" width="0.3" height="0.5"/>
<path d="M93.9,63.7c0,0.4-0.2,0.6-0.5,0.6v0.5l0.5-0.3c0,0.2,0.1,0.3,0.3,0.3v-1.1H93.9z"/>
<path d="M93.6,62.6v0.6c0.4,0,0.6-0.2,0.6-0.6H93.6z"/>
<path d="M95,57.6v0.3c0,0.4-0.2,0.6-0.6,0.6v-0.3C94.5,57.8,94.7,57.6,95,57.6"/>
<rect x="96.1" y="53.8" width="0.3" height="0.6"/>
<path d="M113.9,38c0.4,1.4,1,2.3,1.8,2.6c0.1-0.9,0.4-1.4,0.9-1.4h0.3l-0.6,1.7c0.4,0,0.7,0.3,0.7,1l1-0.7h1v0.3l-0.9,1.7v0.3h0.7
	c0.1-1.1,0.4-1.7,0.9-1.7h0.3l0.1,0.3l-0.3,0.7h0.3c0.4-0.2,0.8-0.4,1.3-0.4c0,0.3-0.5,2-1.4,5c0.4,1,0.7,2,0.7,3h-0.3l0.4,0.7
	l-1.8,4.7l0.7,0.2v0.5c0,1-0.3,1.5-0.8,1.6l0.3,0.7v0.7c0,0.2-0.1,0.2-0.2,0.2l0.3,0.7v0.2c0,0.9-0.3,1.4-0.9,1.4l0.3,0.7l0.1,0.7
	c0,0.4-0.2,0.7-0.7,0.7c0-0.2-0.1-0.2-0.2-0.2h-0.1c0,0.4-0.2,0.9-0.6,1.7h0.3l0.7-0.4v0.7c-0.4,3.4-0.8,5-1.1,5l0.3,0.7l-0.6,1h0.7
	l-0.3,0.7c0,0.2,0.1,0.3,0.3,0.3c-0.3,0.8-0.5,1.5-0.5,2.1v0.2h0.3l-0.3,0.7l0.2,4h-0.3c-0.4,0-0.7-0.7-0.7-2.2h-0.3l0.2,3.3
	l0.7-0.3l0.3-0.1v0.3l0.5,3.3l-0.7-0.3l0.1,0.3c0.1,0.5,0.7,1.2,2.1,2.2c0.5,1.1,0.7,1.9,0.7,2.3c-0.4,0-0.6,0.2-0.6,0.5v0.2
	c-1.6-0.1-2.4-0.2-2.4-0.5l-0.7,0.3c-1.5-1-2.7-1.5-3.5-1.5h-0.1c0,0.4-0.2,0.7-0.7,0.7h-0.3c-0.9,0-1.3-0.2-1.3-0.6
	c-0.9,0.2-1.3,0.5-1.3,0.7c-0.3,0-1.3-0.8-3.1-2.5l-0.7,0.3h-0.3c-0.1-0.4-0.8-1.7-2.2-3.8l0.3-1.7h-0.1c-0.6,0-1-0.7-1.1-2.2
	l-0.1-1.3l0.2-2l-0.3-0.7l0.2-2l-0.1-1.7h0.7v-0.7h-0.7l-0.1-1h0.7v0.7l0.3-0.1V69l-0.7,0.1c0.4-0.6,0.8-2.8,1.3-6.7
	c3-15.6,5.8-23.4,8.5-23.5l0.7,0.2L113.9,38z M102.8,82.6h0.7v-0.3h-0.7V82.6z M105.3,85.8h0.3v-0.7h-0.3V85.8z M112.1,63.3l0.7-0.1
	v-0.7C112.3,62.7,112.1,62.9,112.1,63.3 M114.1,56l0.1,0.7l0.3-0.1l-0.1-0.7L114.1,56z M114.4,55.2h0.3l0.3-1.7
	c-0.4,0-0.6,0.3-0.6,0.8V55.2z M114.9,52.6l0.1,0.7h0.3l-0.1-0.7H114.9z M116.1,48.9V49c0,0.6-0.3,1.4-0.8,2.6v0.3h0.3l0.9-2.7
	l-0.1-0.3H116.1z M116,75h0.3v-1H116V75z M117.2,45.6l0.1,0.3l0.7-0.1l-0.1-1C117.4,44.9,117.2,45.2,117.2,45.6 M117.2,66.7h0.3v-1
	h-0.3V66.7z M117.9,44.5h0.3v-0.7h-0.3V44.5z M118.1,41.5l0.1,0.7h0.3l-0.1-0.7H118.1z M119.1,49.8l0.7-0.1l-0.1-0.7
	C119.3,49.1,119.1,49.4,119.1,49.8 M120.3,47h0.3l0.1,0.7h-0.3L120.3,47z M120.9,45.4l0.3-0.1l0.1,0.7l-0.3,0.1L120.9,45.4z"/>
<path d="M152.9,31.1v0.3l0.6-0.3h4.1c0.5,0,0.9,0.1,1.2,0.3c0.4-0.2,0.7-0.3,0.9-0.3c3.2,0.6,6.3,2.2,9.4,5h-0.3l-0.6-0.3V36
	c0.9,1.5,1.6,2.5,2.2,2.8l-0.3,0.6c0.8,1.4,1.2,2.7,1.2,3.7v3.1c0,0.4-0.2,0.6-0.6,0.6c0-0.2-0.1-0.5-0.3-0.9c0.2-0.4,0.3-0.7,0.3-1
	v-0.6h-0.3v2.5h0.3v0.6l-0.6-0.3h-0.3v0.6h1l-0.3,1.5h-0.6v-0.3c0.2-0.4,0.3-0.7,0.3-1h-0.3c-1,0.3-1.5,0.7-1.6,1.2
	c0.2,0,0.3,0.1,0.3,0.3c-0.6,0-1.1,0.4-1.6,1.2h0.3c-0.2,1.1-0.8,1.8-1.9,2.2l-0.6-0.3l-0.3,0.6v0.3h0.6v0.3
	c-1.8,2.7-4.1,5.2-6.8,7.5l-0.6-0.3h-0.3v0.6h0.6v1c-0.6,0-1.1,0.4-1.5,1.2v0.3h0.6c0.8,0,4.2-3.4,10.3-10.3c-0.2,0-0.3-0.1-0.3-0.3
	c0.4,0,1.5-1.4,3.2-4.1l1.2-1.2l0.3,1.2l-0.6-0.3c-0.2,0.3-0.3,1-0.3,1.9L170,51c-2.5,4-4.1,6.1-4.7,6.2v0.3h0.3
	c0.4-0.2,0.7-0.3,1-0.3c-0.4,1-0.8,1.5-1.2,1.6v-0.3l0.3-0.6h-0.3c-1.7,2.1-2.9,3.2-3.4,3.2v0.3h1c0-0.3,0.3-0.6,0.9-0.9v0.3
	c-2.1,2.5-3.6,3.7-4.3,3.7c0-0.2-0.1-0.3-0.3-0.3l-0.3,0.6c0.2,0,0.5,0.1,0.9,0.3c0.2,0,1-0.5,2.2-1.5h0.3v0.3c0,0.6-0.4,1-1.2,1
	v0.3l5.2,2.8c6.2,3.5,9.4,6.7,9.4,9.6V78c-0.8,1.7-3,3.8-6.5,6.5v0.3h1c0,0.4-0.2,0.6-0.6,0.6l-0.7-0.3c-0.8,0-2,0.7-3.4,2.2
	c0.2,0.4,0.3,0.7,0.3,0.9H165v-0.9h-0.6c-0.3,0-0.6,0.3-0.9,0.9c0.2,0,0.3,0.1,0.3,0.3h-0.6l-0.6-0.3c-0.6,1.5-0.9,2.3-0.9,2.5
	l-0.6-0.3v0.3l-0.7-0.3h-0.6c-4,1.9-6.3,2.8-6.8,2.8v-0.3c-1.2,0.3-1.9,0.7-1.9,1.2l-0.6-0.3c0,0.8-0.9,1.3-2.8,1.5
	c0,0.3-1.2,0.7-3.7,1.2v1.9c0,0.3-0.4,0.6-1.2,1l-0.6-1c0.6,0,0.9-0.2,0.9-0.6h-0.6c-0.4,0.2-0.7,0.3-0.9,0.3v-0.3l-1.2,0.6h-1v0.3
	h-0.9l-1-0.6c0,0.2-0.1,0.5-0.3,0.9c-0.8-0.1-1.2-0.3-1.2-0.6c-1.1,0.4-2,0.9-2.8,1.6v-0.6h-0.3v0.3c0.2,0.4,0.3,0.7,0.3,1l1.9-0.6
	c0.4,0.2,0.7,0.3,1,0.3v0.7h-1.3l-0.6-0.3l-0.3,0.6c-0.4-0.2-0.7-0.3-1-0.3l-0.6,0.3c-1.3-0.4-2.2-0.8-2.8-1.2l-0.6,0.3
	c-0.8-0.3-1.2-0.9-1.2-1.9c-0.8,0-1.8,0.5-2.8,1.6v-0.6l0.3-0.6c8.7,4.9-7.1-1.2-3.4-1.2V97h0.6v-0.3c-0.5,0-1.1-0.3-1.9-0.9
	c0,0.2-0.1,0.3-0.3,0.3c0-0.1-0.4-1-1.2-2.5l0.6-0.3c1.1,0.2,2,0.3,2.5,0.3c0-0.2,0.1-0.3,0.3-0.3c0,0.5,0.4,0.8,1.2,0.9v0.3h0.3
	c0-0.8,0.5-1.2,1.6-1.2v0.3l0.6-0.3l0.6,0.3c0.7-0.4,1.2-0.6,1.6-0.6c0,0.2,0.1,0.3,0.3,0.3l0.3-0.6v-0.3h-0.3l-0.6,0.3l-0.3-0.7
	v-0.9h-0.7v-0.6c0-0.5,0.1-0.9,0.3-1.2c-0.2-1.1-0.4-1.6-0.6-1.6l0.3-1.5v-1c0-4.3,2-15.2,5.9-32.6l1.2-1.2l1,0.6h0.3l0.7-0.3
	c1.8,1,2.8,1.7,2.8,2.2l0.6-0.3h0.3c0,0.2,0.1,0.6,0.3,1l0.6-0.3h0.3v0.6h1.5c0.4,0,0.7,0.6,1,1.9l0.6-0.3c0.3,0,0.8,0.7,1.6,2.1
	c-0.4,0.1-0.6,0.3-0.6,0.7c0.4,0.4,0.6,1.2,0.6,2.5c0.6-0.8,1.4-1.2,2.5-1.2v0.3l1.2-1.9v0.6h0.3c0.3,0,0.6-0.3,1-1
	c0-0.2-0.1-0.3-0.3-0.3l6.3-7.4c1.5-0.4,3.1-2.8,5-7.2c1.1-1.5,1.8-2.9,1.9-4.1v-0.6c0-0.8-1.4-1.5-4.1-2.2h-3.4V36
	c-6.8,1.2-10.3,2.2-10.3,2.8l-3.2,1.5l-0.6-0.3H141v0.3h1c-2.7,1.6-4.8,2.9-6.2,4.1c0,1-0.7,1.7-2.2,2.2l-1.6-1h-0.3v0.6
	c-1,0-1.7-0.7-2.2-2.1l-0.6,0.3c-0.4-0.2-0.7-0.3-0.9-0.3c0,0.2-0.1,0.3-0.3,0.3c0-0.2-0.1-0.3-0.3-0.3c0.2-1.1,0.5-1.6,0.9-1.6
	c0.4,0,0.6,0.4,0.6,1.2h0.6c-0.4-0.7-0.6-1.3-0.6-1.9c3.7-2.3,5.6-3.6,5.6-4.1c0.7-0.4,1.3-0.6,1.9-0.6l0.3,0.6
	c4.2-2.1,6.6-3.1,7.2-3.1c0.4,0.2,0.7,0.3,1,0.3c0-0.7,1.1-1.3,3.4-1.6v0.3c1.1-0.6,1.9-1,2.2-1v-0.3h-1.2c-0.4,0.2-0.7,0.3-1,0.3
	v-0.3C148.2,32.3,149.8,31.8,152.9,31.1 M119.9,95.1h0.6v-0.6C120.1,94.6,119.9,94.8,119.9,95.1 M120.3,96.7h0.3v1l-0.6,0.3v-0.3
	C120.1,97.2,120.3,96.9,120.3,96.7 M121.5,98.2h0.9c0,6.1,6.1,0.6,1.2,0.6v0.6C127.9,100.3,121.5,103.4,121.5,98.2 M122.1,94.8
	l0.6,0.3v-1C122.3,94.3,122.1,94.5,122.1,94.8 M124.6,92.3h0.3v0.6h-0.3V92.3z M128.7,94.2v-0.3l-0.6,0.3h-1c-0.2,0-0.3-0.1-0.3-0.3
	c-0.3,0.2-0.7,0.3-1.2,0.3v0.6l3.8,0.3c0-0.4,0.2-0.9,0.6-1.6h-0.3L128.7,94.2z M125.8,92.3h0.6v0.3h-0.6V92.3z M126.5,99.1
	c0.4,0.1,0.6,0.3,0.6,0.6v0.6h-0.3l-0.6-0.3C126.3,99.7,126.5,99.4,126.5,99.1 M128,89.2v0.3l0.3,0.6h-0.6v0.6h1.2
	c0-0.6,0.1-0.9,0.3-0.9c-0.2-0.4-0.3-0.7-0.3-1C128.5,89.1,128.2,89.2,128,89.2 M128.7,88.3h0.6v-0.9h-0.6V88.3z M129.9,90.1h0.3
	v-0.6h-0.3V90.1z M129.9,95.8V96c0.4-0.2,0.8-0.3,1.2-0.3v-0.6h-0.6C130.1,95.2,129.9,95.4,129.9,95.8 M130.2,94.2v0.3
	c0.4-0.2,0.7-0.3,1-0.3v-0.6h-0.3C130.4,93.6,130.2,93.8,130.2,94.2 M130.5,92.7h0.3v-1h-0.3V92.7z M130.5,100.1v0.3l1.5,0.3
	l0.3-0.6H130.5z M131.4,85.5v0.9c0.4,0,0.6-0.2,0.6-0.6L131.4,85.5z M131.8,93.9h0.6v-0.3h-0.6V93.9z M131.8,95.4h0.6v-0.3h-0.6
	V95.4z M133,40.4h0.9v-0.3H133V40.4z M133,88.6h0.3V88H133V88.6z M133,91.1c0,0.4,0.3,0.6,0.6,0.6v-0.6H133z M133,93.6h0.3v-0.6H133
	V93.6z M134.2,93.9v0.6c0.4-0.2,0.7-0.3,0.9-0.3v-0.3H134.2z M135.5,89.2h0.3v-0.6h-0.3V89.2z M135.5,97.9h1v-0.3h-1V97.9z
	 M136.4,95.8h0.6v-0.3h-0.6V95.8z M137.9,36h0.6c0,0.3-0.3,0.6-0.9,1h-1v-0.3C137,36.7,137.4,36.4,137.9,36 M139.5,42.9h0.6
	c-1.1,1.2-2.1,1.9-2.8,1.9C137.3,44.5,138.1,43.9,139.5,42.9 M138.9,99.5h0.3v0.3c0,0.4-0.2,0.6-0.6,0.6h-1.2v-0.6L138.9,99.5z
	 M138.3,95.8h0.6v-0.6h-0.6V95.8z M142.6,86.1l-0.3,1.2h-0.9c-0.2,0-0.3-0.1-0.3-0.3c-0.4,0.2-0.7,0.3-0.9,0.3v0.3h0.6v0.6h-0.3
	l-0.9-0.6l-0.3,0.6v0.3l0.6-0.3v0.3l-0.3,0.6c0.5,0.4,0.9,0.6,1.2,0.6v0.3c-1.1,0-1.8,0.5-2.2,1.6h0.3c0-0.4,0.3-0.6,0.6-0.6
	l0.6,0.3c0.6-0.2,0.9-0.4,0.9-0.6l0.6,0.3c0.5-0.4,0.9-0.6,1.2-0.6v-0.3c0-0.4-0.2-0.6-0.6-0.6l-0.6,0.3l-0.3-0.6
	c0.2-0.4,0.3-0.8,0.3-1.2h0.3l0.6,0.3l0.3-0.6h-0.3l0.6-1.5H142.6z M138.6,93.6c1.6-0.4,2.6-0.6,3.1-0.6v-0.6h-0.9
	C139.3,92.9,138.6,93.3,138.6,93.6 M139.2,99.1h1.2c0,0.4-0.2,0.6-0.6,0.6C139.4,99.8,139.2,99.6,139.2,99.1 M141.4,34.8
	c-0.2,0.6-0.8,1-1.9,1v-0.6C139.7,35.1,140.3,35,141.4,34.8 M159.1,70c0,0.6-1,1.3-3.1,1.9v-0.3c-1.7,0.6-2.9,1-3.4,1v-0.3
	c-2,1.7-3.5,2.8-4.7,3.4c0,0.6-0.8,1.3-2.5,1.9l-0.6-0.3c-1.1,0-1.6,0.4-1.6,1.2h-0.3l-0.6-0.3l-0.6,1h1.2v0.3
	c0,2.3-0.3,3.4-0.9,3.4l-0.6-0.3c-0.4,1-0.8,2.4-1.2,4.1c0.2,0,0.3,0.1,0.3,0.3c8.8-3.9,15.1-7.4,19-10.3c2-1.4,3.3-2.7,4.1-3.8
	l-0.6-0.3l0.3-0.6v-0.6c0-0.3-0.4-0.6-1.2-1v0.3C161.4,70.4,160.5,70.1,159.1,70 M141.7,79.6c0,0.4-0.2,0.9-0.6,1.5
	c0.2,0.4,0.3,0.7,0.3,1h0.3l0.6-2.2L141.7,79.6z M141.4,94.2v0.3h0.9l0.3-0.6h-0.3C141.9,94.1,141.6,94.2,141.4,94.2 M141.4,98.9
	h0.6v0.6h-0.6V98.9z M142,96h0.6v-0.3H142V96z M142.6,33.9h0.9c0,0.4-0.2,0.6-0.6,0.6h-0.3V33.9z M142.9,41h0.6v0.3h-0.6V41z
	 M142.9,93.6v0.3h1.3v0.6c0,0.6-0.4,0.9-1.3,0.9v0.3h1c0.3,0,0.6-0.3,1-1v-0.3l-0.3-1.6C144,93.4,143.5,93.6,142.9,93.6 M143.2,89.2
	l0.3,0.6c-0.2,0-0.3,0.1-0.3,0.3c0.4,0.1,0.6,0.3,0.6,0.6v0.3l-0.3,0.6l1.9-0.3v-0.3c-0.8,0-1.2-0.3-1.2-1c0-0.6-0.2-0.9-0.7-0.9
	H143.2z M143.9,37.3v0.6c0.4,0,0.6-0.2,0.6-0.6H143.9z M153.5,83.9c0,0.3-1.4,1.1-4.1,2.5V87l-0.6-0.3l-0.9,0.6
	c0-0.4-0.4-0.6-1.2-0.6c0-0.6,0.4-0.9,1.2-1v-0.3h-1c-0.4,0.2-0.7,0.3-0.9,0.3v1.9h-0.6c0-1-0.5-1.5-1.6-1.5l0.3,0.6
	c-0.2,0.1-0.3,0.8-0.3,2.1l1.2,0.6c1.5-0.3,2.2-0.8,2.2-1.5l0.6,0.3c0.8-0.6,1.7-0.9,2.8-0.9l-0.3-0.6c1.3-0.4,2.7-1.1,4.1-2.2h0.3
	v-0.6h-0.3l-0.6,0.3C153.8,84,153.7,83.9,153.5,83.9 M144.5,97.6h1v0.6h-1V97.6z M145.1,92.7v0.9c0.4,0,0.6-0.2,0.6-0.6v-0.3H145.1z
	 M145.1,94.5v0.3h1c0.4-0.2,0.8-0.3,1.2-0.3v-0.3H147L145.1,94.5z M145.7,32.9h0.6v0.6h-0.6V32.9z M145.7,90.1v1
	c1-0.3,1.5-0.7,1.6-1.2h-0.6C146.3,90,146,90.1,145.7,90.1 M146.3,37h0.3c1-0.3,1.5-0.6,1.5-1h-0.6C146.8,36.4,146.3,36.7,146.3,37
	 M146.3,86.8c0.4,0.2,0.7,0.3,1,0.3v0.6H147c-0.4,0-0.6-0.2-0.6-0.6V86.8z M146.3,92v1h0.3c0.4,0,0.6-0.2,0.6-0.6l-0.6-0.3H146.3z
	 M147,64.3h0.3v-0.6H147V64.3z M147.6,35.4h0.6v-0.3h-0.6V35.4z M147.6,63.4l0.6,0.3h0.3v-1.2C148.2,62.5,147.9,62.8,147.6,63.4
	 M147.6,90.1h0.3v-0.6h-0.3V90.1z M147.9,93.6v0.3h0.9c1.4-0.6,2.2-1,2.5-1v-0.6h-0.9C149.5,93.2,148.7,93.6,147.9,93.6 M148.2,85.8
	v0.3h1c0-0.4,0.3-0.6,0.9-0.6v-0.3h-0.3C149.1,85.6,148.6,85.8,148.2,85.8 M149.2,62.2c0,0.2-0.1,0.5-0.3,0.9h0.6v-0.9H149.2z
	 M148.8,91.7V92h0.3c0.3,0,0.6-0.3,0.9-0.9h-0.6C149,91.1,148.8,91.3,148.8,91.7 M151,34.2c0,0.8-0.4,1.2-1.2,1.2v0.3l3.1-0.6
	c0-0.4-0.2-0.6-0.6-0.6c0,0.2-0.1,0.3-0.3,0.3c0-0.4-0.2-0.6-0.6-0.6H151z M151.6,59.4c0,0.8-0.6,1.8-1.9,2.8h0.3
	c1.2-0.7,2-1.4,2.5-2.2v-0.3C152.4,59.7,152.1,59.6,151.6,59.4 M150.1,64.3v0.3h0.3c0.8-0.6,1.3-1,1.5-1v-0.9
	C150.7,63.5,150.1,64,150.1,64.3 M150.1,88.6h0.3V88h-0.3V88.6z M150.4,91.1c0.1,0,0.8,0.1,1.9,0.3l0.3-0.6c-0.2,0-0.3-0.1-0.3-0.3
	c0.4,0,0.6-0.2,0.6-0.6c-0.2,0-0.3-0.1-0.3-0.3C151.3,89.9,150.5,90.4,150.4,91.1 M150.4,92h0.3v-0.6h-0.3V92z M151,95.4h0.6V96H151
	V95.4z M151.3,32.6h0.6v-0.3h-0.6V32.6z M151.3,87.6c0.1,0.4,0.3,0.6,0.6,0.6l0.3-0.6v-0.3C151.8,87.6,151.5,87.6,151.3,87.6
	 M154.7,90.7h-0.3v-0.6h-0.6l0.3,0.6v0.3l-0.6-0.3h-0.3c0,0.8-0.5,1.2-1.6,1.2c0-0.2-0.1-0.3-0.3-0.3c0.2,0.4,0.3,0.7,0.3,1
	c2.1-1.1,3.3-1.6,3.7-1.6c0.1,0.4,0.3,0.6,0.6,0.6l1.9-2.2h-0.3C156.3,89.9,155.3,90.3,154.7,90.7 M151.6,83.3h0.6V83h-0.6V83.3z
	 M153.8,94.5v0.6c-0.4,0-0.6,0.1-0.6,0.3c-0.4-0.2-0.7-0.3-1-0.3v-0.3L153.8,94.5z M152.6,83.6h0.6v-0.3h-0.6V83.6z M153.2,87.4h0.6
	v-0.6h-0.6V87.4z M153.2,89.2v0.6h0.6c0.4,0,0.6-0.2,0.6-0.6H153.2z M153.8,34.5v0.3h1.9l-0.3-0.6C155,34.4,154.5,34.5,153.8,34.5
	 M154.1,61.2h0.6v-0.3h-0.6V61.2z M154.5,57.2h0.6c0.8-0.5,1.5-1.3,2.1-2.5v-0.3C157,54.4,156.1,55.3,154.5,57.2 M154.7,86.4h1
	c0-0.2,0.1-0.5,0.3-0.9h-0.3C155.4,85.5,155.1,85.8,154.7,86.4 M155.1,81.5v0.9h0.6v-0.3C155.7,81.7,155.5,81.5,155.1,81.5
	 M155.1,84.3v0.3c0.3,0,0.6-0.3,0.9-1h-0.3C155.3,83.7,155.1,83.9,155.1,84.3 M155.4,58.4h0.3v-0.6h-0.3V58.4z M156.3,61.6h0.3v-0.6
	h-0.3V61.6z M156.3,70.6v0.6h0.3c0.4-0.2,0.7-0.3,1-0.3v-0.3H156.3z M156.3,83.6c0.8-0.3,1.2-0.6,1.2-0.9h-0.3
	C156.9,82.7,156.6,83,156.3,83.6 M156.9,57.2h0.3v-0.6h-0.3V57.2z M157.8,92v0.7h-0.6C157.3,92.2,157.5,92,157.8,92 M157.8,56.3h0.3
	v-0.6h-0.3V56.3z M157.8,82.1V83c1.5-0.7,2.2-1.2,2.2-1.5v-0.3h-0.3C158.9,81.8,158.3,82.1,157.8,82.1 M158.2,88h0.6v-0.3h-0.6V88z
	 M159.4,55.3c0,0.4-0.2,0.6-0.6,0.6v0.3h0.6l0.3-0.6v-0.3H159.4z M158.8,84.6h0.3v-0.6h-0.3V84.6z M159.1,88.3v0.6
	c1.9,0,3.8-1.1,5.6-3.4c-0.2,0-1.9,0.9-5.3,2.8H159.1z M159.7,91.1v0.6h-0.6C159.2,91.3,159.4,91.1,159.7,91.1 M159.4,70.6h0.3
	l1.6,0.6c0.4-0.2,0.8-0.3,1.2-0.3c-0.2,0.4-0.3,0.8-0.3,1.2h-0.3C160.2,71.5,159.4,71,159.4,70.6 M159.7,57.2h0.6v-0.3h-0.6V57.2z
	 M161.6,49.1v0.3c0.2,0,0.5,0.1,0.9,0.3v-0.6H161.6z M161.9,50.7h0.3V50h-0.3V50.7z M163.8,61.8v0.3c0,0.3-0.3,0.6-0.9,0.9h-0.3
	C162.5,62.8,162.9,62.3,163.8,61.8 M162.9,55.3l0.6,0.3v-1C163.1,54.8,162.9,55,162.9,55.3 M163.5,50v0.7c0.2,0,0.3,0.1,0.3,0.3
	c-0.2,0-0.3,0.1-0.3,0.3h1.2v-0.6c-0.6,0-1-0.2-1-0.7H163.5z M163.8,88.6h0.3v0.6h-0.3V88.6z M164.4,52.6h0.3v-0.6h-0.3V52.6z
	 M165,54.4h0.6v0.3H165V54.4z M166.6,50l-0.3,0.7V51h0.3c0-0.2,0.1-0.6,0.3-1H166.6z M166.6,44.8h0.3v-0.6h-0.3V44.8z M168.1,82.3
	c0,1.1-0.2,1.6-0.6,1.6h-0.6v0.6h0.6c0.5-0.4,0.9-0.6,1.2-0.6v-1C168.7,82.6,168.5,82.3,168.1,82.3 M167.8,55.3h0.3
	c0,0.4-0.2,0.6-0.6,0.6h-0.3C167.2,55.5,167.4,55.3,167.8,55.3 M168.1,43.5c-0.2,1.1-0.3,1.7-0.3,1.9v0.3h0.3c0-0.6,0.2-1.3,0.6-2.1
	H168.1z M168.7,46.3h0.3v-0.6h-0.3V46.3z M169.4,44.2c0,0.2-0.1,0.5-0.3,0.9v0.3h0.3c0-0.2,0.1-0.6,0.3-1v-0.3H169.4z M169.1,83h0.3
	v-0.6h-0.3V83z M169.4,81.1c0.2,0.4,0.3,0.8,0.3,1.2c1.2,0,2-0.6,2.5-1.9c-0.2-0.4-0.3-0.8-0.3-1.2
	C170.8,80.5,169.9,81.1,169.4,81.1 M171.3,47.5h0.3c0.4,0.1,0.6,0.3,0.6,0.6v0.3h-0.9V47.5z M171.9,45.7h0.6V46
	c0,0.4-0.2,0.6-0.6,0.6h-0.3C171.8,46.2,171.9,45.9,171.9,45.7 M172.5,43.8h0.3v0.6h-0.3V43.8z M175.2,79.3h0.6v0.3
	c0,0.4-0.2,0.6-0.6,0.6V79.3z"/>
<path d="M74.3,37.9l-0.1-0.3l0.7,0.1l0.3-0.1c-3.8-1.6-7.3-2.1-10.5-1.6c-0.2,0.1-0.4,0.2-0.8,0.6c-0.4-0.1-0.8,0-1.3,0.1L58.9,38
	l-0.5,0.5l-0.1-0.3c-2.7,1.7-4,2.7-3.9,3l0.1,0.3c0.2-0.1,0.5-0.3,0.8-0.6l1.2-0.4l0.1,0.3c-0.3,0.1-0.9,0.7-1.8,1.6l-0.1-0.3
	c-2,1-2.9,1.9-2.7,2.6c-0.2,0.1-0.6,0.1-1,0c-0.5,0.2-2.4,1.9-5.7,5.3l-0.5-0.5c-0.4,0.1-0.8,0.4-1.1,0.8c0,0.1,0,0.3,0,0.4
	c0.1-0.4,0,0.5,0,0.6c0,0.4,0,0.7,0,1.1c0,0.1,0,0.3,0,0.4c0.1,0,0.2,0,0.2,0c2.1,0,3.1,1.7,3.1,3.3c1-1.5,2.4-3.3,4.2-5.4l-0.9,0.3
	l-0.1-0.3l0.6-0.2l0.7,0.1l2.5-2.5c-0.2-0.6,2.5-2.5,8-5.6c0.2-0.2,0.4-0.3,0.7-0.4c0,0,0.1,0,0.1-0.1l0,0c0.1,0,0.3-0.1,0.4-0.1
	c4.7-1,9.5-1.3,14.3-1.5l0-0.5C76.6,39.6,75.6,39,74.3,37.9z M52,47.6L51.8,47l0.6-0.2C52.6,47.2,52.4,47.5,52,47.6z M54.4,45.8
	l-0.3,0.1c-0.1-0.3,0.2-0.7,0.9-1.3l0.6-0.2C55.6,44.8,55.3,45.2,54.4,45.8z M56.9,43.6l-0.1-0.3c0.8-0.3,1-0.8,0.8-1.6l0.3-0.1
	c0.4-0.1,0.7,0,0.8,0.4c0.2-0.1,0.3-0.2,0.2-0.4c0.4-0.1,0.7,0,0.8,0.4L56.9,43.6z M60.4,41.4l-0.1-0.3c0.6-0.2,1.1-0.5,1.3-0.8
	l0.5,0.5L60.4,41.4z"/>
<rect x="45" y="47" width="0.9" height="0.3"/>
<rect x="54" y="102.6" width="0.6" height="0.3"/>
<rect x="54.9" y="47.9" width="0.6" height="0.3"/>
<rect x="59" y="70.6" width="0.3" height="0.6"/>
<rect x="59.6" y="42" width="0.6" height="0.3"/>
<rect x="59.6" y="96.4" width="0.3" height="0.6"/>
<rect x="63.3" y="39.2" width="0.6" height="0.3"/>
<path d="M67.1,91.2v0.3c0.3,0,0.6-0.3,0.9-1h-0.3C67.3,90.6,67.1,90.8,67.1,91.2"/>
<rect x="70.2" y="94.5" width="0.6" height="0.3"/>
<rect x="70.8" y="90.8" width="0.3" height="0.6"/>
<rect x="75.8" y="95.5" width="0.3" height="0.6"/>
<path d="M79.8,62.2h0.3c0,0.4-0.2,0.6-0.6,0.6h-0.3C79.3,62.4,79.5,62.2,79.8,62.2"/>
<rect x="81.1" y="89.2" width="0.3" height="0.6"/>
<path d="M206.6,55c0.9,0.3,1.4,0.6,1.4,0.8l0.6-0.1l0.8,0.1c0.9,0.2,1.6,0.6,2.1,1.2l-0.3,0.5l-0.1,0.3l0.5,0.1l-0.1-0.6l0.6,0.1
	v0.1c0,0.6,0.8,1.4,2.3,2.5c0,0.3,0.8,1.8,2.5,4.5l-0.3,0.5c0,0.2,0.1,0.5,0.1,0.7v0.4c-0.2,0-0.4-0.1-0.6-0.1c-0.2,0-0.4,0-0.5,0.1
	c-0.3-0.2-0.5-0.4-0.7-0.4l-0.1,0.3l0.1,0.6l-0.9,0.3l-0.4-0.3h-0.1c-0.1,0-0.2,0.1-0.3,0.2l-1-0.5h-2.7l-0.1-0.5h0.1
	c0.1,0,0.2-0.1,0.3-0.2l-0.5-0.1c-0.3,0.1-0.5,0.1-0.7,0.1h-0.1l0.2,0.6c-3.6,0.6-5.7,1.1-6.2,1.7v-0.3l-5.8,2.5l-0.2-0.1v-0.2
	c0.3-0.3,0.4-0.6,0.4-0.8l-0.8,0.3V68l-1.2,0.3l-1.4-0.6c-1.1,0.3-1.7,0.5-1.7,0.7l-0.5,2.3c-0.4,1.7-0.6,3.4-0.6,5.2l0.6-0.1
	c0,0.3,0.1,0.5,0.4,0.6l0.8,0.2l0.9-0.3l-0.1,0.2c2.2-0.6,4.6-1.1,7-1.4c0.3,0,0.7,0.1,1.1,0.1c0.8,0,1.8-0.1,3-0.3l0.1-0.3
	l-0.8-0.1l-6.8,0.5l-0.4-0.3c-0.1,0.3-0.3,0.4-0.5,0.4h-0.1l-0.6-0.1l0.1-0.5l0.5,0.1l-0.1-0.6l1,0.2l0.1-0.3l1.2,0.3
	c0.8-0.1,1.6-0.5,2.4-1.1h0.4c0.4,0,0.9,0,1.7-0.1v0.1c0,0.1,0.1,0.2,0.2,0.2c0-0.2,0.3-0.3,0.7-0.3c0.3,0,0.7,0,1.2,0.1v0.3
	l0.2,0.1l0.2-0.8l0.2,0.1l-0.1,0.6l0.8,0.1c0.1-0.6,1.4-0.9,3.7-0.9h1l1,0.5c0.2-0.1,0.7-0.1,1.3-0.1c1.1,0,2.9,0.1,5.2,0.4
	c0,0.5,0.4,0.9,1.1,1.2c0.2,0,0.4-0.1,0.6-0.1c0.2,0,0.4,0,0.6,0.1l0.2,0.1c1.5,1.7,2.2,2.8,2.2,3.5V78c0.6,0.1,1,0.6,1.2,1.6
	c-0.3,0.2-0.6,0.3-1,0.3c-0.1,0-0.3,0-0.4-0.1v0.3l1.5,0.3c-0.2,1-1,1.5-2.2,1.5c-0.4,0-0.8,0-1.3-0.1l-0.1,0.3l1.3,0.3l-0.1,0.2
	l-0.3,0.5c0.1,0,0.2,0.1,0.2,0.3v0.1h-0.8c-3.4,0-7.4,0.3-11.9,0.8v-0.3c-6.3,0.6-13,2.1-20.1,4.4c0,0.2-0.4,0.4-1.2,0.6h-0.2v-0.3
	c0-0.3,0.2-0.4,0.6-0.4c0.1,0,0.2,0,0.3,0.1l0.1-0.3l-1.3-0.3L187,88c0.2,0.6,0.3,1,0.3,1.2v0.1l-1.7,0.7c-0.3-0.2-0.6-0.4-0.8-0.4
	c0,0.2,0.1,0.3,0.2,0.3c0,0.3-1.3,1.2-3.7,2.7v-0.1c0-0.1-0.1-0.2-0.2-0.3c0.2-0.9,1.2-2.1,3.1-3.6l-0.5-0.1c0,0.2-1.2,1.1-3.5,2.8
	l-0.1,0.6l0.6-0.1h0.3c0,0.2-0.5,0.6-1.4,1.4c-0.6-0.2-0.8-0.5-0.8-0.9v-0.1l-0.6-0.1h-0.1c-0.2,0-0.4,0.1-0.5,0.4l0.5,0.1l-0.1,0.5
	c0,0.3-0.2,0.4-0.5,0.4h-0.1l-0.3-0.1c0.1-0.3,0.1-0.6,0.1-0.8c0-0.5-0.2-0.8-0.6-0.9c-0.4,0.1-0.6,0.1-0.8,0.1l0.1-0.6
	c1.3-1.4,2.7-2.9,4.3-4.4l-0.8-0.1c-0.1,0.6-0.9,1.4-2.3,2.4l-0.1,0.6l-0.5-0.1l0.1-0.5l2.7-2.7l0.1-0.3l-0.8-0.1l0.1-0.5h0.1
	c0.6,0,1.1-0.5,1.5-1.6h0.2c0.4,0,0.7-0.3,0.8-0.8c0.3,0,0.4,0.2,0.4,0.5c0,0.1,0,0.3-0.1,0.4l0.9-0.4l-0.1,0.5l0.6,0.1
	c0-0.3,0.2-0.4,0.5-0.4h0.1v-0.1c0-0.1-0.1-0.2-0.2-0.2c0.5-0.6,0.8-1.1,0.9-1.7l0.5,0.1l-0.1,0.8l0.5,0.1c0-0.3,0.4-0.6,1-0.9
	l-0.1-0.6h0.1c0.3,0,0.4-0.1,0.5-0.4l-0.5-0.1c-1.2,0.6-2.1,0.9-2.8,0.9H183l1.8-1c0-0.2-0.1-0.3-0.1-0.5c0-0.2,0-0.4,0.1-0.5
	l-0.6,0.1c0-0.2-0.1-0.3-0.2-0.3l0.3-0.5l0.1-0.3l-0.6-0.1l0.1-0.6l0.3-0.4c-0.5-0.1-1.3-1.4-2.4-3.7c-0.5-0.1-0.8-0.7-0.8-1.8v-0.8
	c-0.6-0.1-0.8-1.2-0.8-3.2c0-0.7,0-1.6,0.1-2.6l0.3,0.1l-0.2-0.5l0.4-1.8c1.6-4.9,2.8-7.3,3.5-7.3h0.1l-0.1-0.5
	c1.5-1.7,3.1-2.5,5-2.5c0.5,0,0.9,0,1.4,0.1l-0.1,0.8l0.9-0.3l-0.1,0.3l-0.3,0.4l-0.1,0.3l0.3,0.1l1-1.1l0.5,0.1l-0.1,0.3
	c-0.4,0.5-0.7,0.9-0.8,1.2l0.6-0.1h0.3l-0.1,0.8h0.4c0.2,0,0.4-0.2,0.5-0.6l0.8,0.1l-0.1,0.8l0.9-0.3c-0.1,0.4-0.1,0.7-0.1,1
	c0,0.2,0,0.3,0.1,0.3c0.8-0.1,1.3-0.4,1.4-0.8c-0.1,0-0.2-0.1-0.2-0.3c0.2,0,0.3,0.1,0.5,0.1c0.4,0,0.6-0.1,0.7-0.4
	c0.3,0.3,0.5,0.4,0.7,0.4c0.2,0,0.4-0.1,0.6-0.1h0.2l-0.1-0.6c1.5-0.4,3.5-0.6,5.8-0.6C205.3,54.9,205.9,54.9,206.6,55 M180.5,82.4
	c0.3,0.1,0.4,0.3,0.4,0.6V83l-2.2,1.4l-0.2-0.1v-0.2C179.4,83,180.1,82.4,180.5,82.4 M178.5,89.2l-0.1,0.3h0.1
	c0.3,0,0.4-0.1,0.5-0.4l0.1-0.3C178.8,88.8,178.6,88.9,178.5,89.2 M179,91.1v0.1c0,0.3,0.1,0.4,0.4,0.5l0.1-0.5L179,91.1z
	 M180.1,92.9l0.6,0.1l-0.1,0.5l-0.5-0.1L180.1,92.9z M180.3,89.8l-0.1,0.8l0.3,0.1l0.1-0.8L180.3,89.8z M181,89.2l-0.1,0.5l0.3,0.1
	l0.1-0.6H181z M181.9,88.5l-0.1,0.5l0.5,0.1V89C182.3,88.7,182.1,88.6,181.9,88.5 M182.2,91l-0.1,0.6l0.3,0.1l0.1-0.6L182.2,91z
	 M182.8,87.9L183,88c1.7-0.6,2.7-1.1,3-1.5v-0.3C183.9,87.1,182.9,87.6,182.8,87.9 M183.2,90.1c0,0.2,0.1,0.4,0.1,0.6V91l0.3,0.1
	l0.1-0.8L183.2,90.1z M184,53.5l0.3,0.1l-0.1,0.3c-0.1,0.3-0.3,0.4-0.5,0.4h-0.1l-0.3-0.1l0.1-0.3C183.5,53.7,183.7,53.5,184,53.5
	L184,53.5z M183.7,84.6l-0.1,0.5h0.1c0.2,0,0.4-0.1,0.5-0.4L183.7,84.6z M184.1,83.9l-0.1,0.5l0.2,0.1l0.1-0.5L184.1,83.9z
	 M184.4,89l-0.1,0.6l0.3,0.1l0.1-0.5L184.4,89z M187.2,52.1l-0.1,0.8c-1.1,0.4-1.9,0.6-2.2,0.6h-0.1
	C185.3,52.9,186.1,52.4,187.2,52.1 M184.9,88.1l-0.1,0.3c1.1-0.4,1.8-0.7,1.9-1v-0.3C185.9,87.2,185.3,87.5,184.9,88.1 M185,88.6
	l-0.1,0.6l0.3,0.1l0.1-0.6L185,88.6z M186.3,48.9l0.6,0.1l-0.1,0.3c-0.1,0.3-0.3,0.4-0.5,0.4h-0.1L186.3,48.9z M187.2,47.3l0.5,0.1
	c0,0.2-0.3,0.4-0.9,0.6l-0.5-0.1C186.3,47.6,186.6,47.4,187.2,47.3 M186.9,87.4l0.3,0.1c0.2,0,0.3-0.1,0.3-0.2l0.5,0.3l0.3,0.1
	l0.1-0.3l-0.6-0.1l0.1-0.5l0.2,0.1c0.3,0,0.5,0.3,0.6,0.9c0.2,0,0.4-0.1,0.6-0.1h0.2c-0.2-0.5-0.3-0.9-0.3-1.2c0-0.1,0-0.3,0.1-0.4
	c0.2,0,0.3,0.1,0.5,0.1c0.2,0,0.4,0,0.6-0.1c0.3,0.2,0.5,0.4,0.7,0.4l-0.1-0.6l0.1-0.3c0.1,0,0.2,0.1,0.3,0.1c0.3,0,0.5-0.1,0.5-0.4
	l-0.5-0.3C188.5,86,187,86.8,186.9,87.4 M187.4,48.4l0.3,0.1l-0.1,0.6l-0.2-0.1L187.4,48.4z M199.2,47l0.1,0.6
	c0.1,0,0.2,0.1,0.3,0.1c0.3,0,0.5-0.2,0.6-0.7l0.8,0.2c-3.1,1.6-5.8,2.6-8.1,2.9l-5.2,2.1h-0.2l0.5-1.2c-0.1,0-0.2-0.2-0.2-0.3
	l0.9-0.3l-0.1,0.3c-0.2,0.3-0.4,0.5-0.4,0.7l0.3,0.1c1.2-0.3,2.6-0.9,4.3-1.8c2.7-0.7,4.7-1.4,6.1-2.2l-0.3-0.1
	c-0.5,0.2-0.9,0.3-1.2,0.3h-0.2l0.1-0.5c0.2,0,0.5-0.1,0.8-0.1C198.5,46.9,198.8,47,199.2,47 M187.9,85.2l-0.1,0.3l0.5,0.1l0.1-0.3
	L187.9,85.2z M190.8,46.2l-0.1,0.5h-0.1c-0.2,0-0.6,0.1-1,0.3l-0.3-0.1l0.1-0.3C189.5,46.4,189.9,46.2,190.8,46.2 M190,84.1
	l-0.1,0.3c0.2,0,0.4,0.1,0.8,0.4l0.1-0.6L190,84.1z M190.2,43.6l0.3,0.1c0.3,0.1,0.4,0.3,0.4,0.6v0.1l-0.8-0.1L190.2,43.6z
	 M191.3,47.8c0.3,0.1,0.4,0.3,0.4,0.5v0.1h-1.3C190.4,48.2,190.7,48,191.3,47.8 M191.4,47l0.3,0.1c0,0.2-0.3,0.4-0.9,0.6v-0.3
	C190.9,47.2,191.1,47,191.4,47L191.4,47z M191.3,43.8l0.6,0.1c-0.1,0.3-0.3,0.4-0.5,0.4h-0.1L191.3,43.8z M191.5,86l-0.1,0.2
	l0.5,0.1l0.1-0.3L191.5,86z M192.6,45.5l-0.1,0.5l-0.5-0.1c0.1-0.3,0.3-0.4,0.5-0.4H192.6z M192.9,65.8c-0.6,1.1-0.9,1.8-0.9,1.9
	c0.3,0,0.7-0.6,1.4-1.9L192.9,65.8z M192.7,48.6l-0.1,0.6l-0.5-0.1C192.2,48.8,192.4,48.6,192.7,48.6L192.7,48.6z M194.1,74.5
	l0.2,0.1l-0.1,0.5l-0.8-0.1c0.1-0.3,0.3-0.4,0.5-0.4H194.1z M195.7,44.7l0.2,0.1l-0.1,0.3l-2.2,0.3l0.1-0.5L195.7,44.7z M193.6,76.6
	v0.3l0.5,0.1l0.1-0.3L193.6,76.6z M193.8,45.7l1.3,0.3c0,0.3-0.3,0.5-0.9,0.6c-0.3,0-0.4-0.2-0.4-0.4V45.7z M194,39.9h0.3l-0.1,0.6
	l-0.3-0.1L194,39.9z M195.1,41.1c0,0.3-0.4,0.5-1,0.6l0.1-0.3c0.1-0.2,0.3-0.3,0.5-0.3H195.1z M195,46.7l0.5,0.1l-0.1,0.3l-0.5-0.1
	L195,46.7z M195,47.8l0.6,0.1l-0.1,0.2l-0.5-0.1V47.8z M196.5,40.4l0.8,0.2l-1,0.8c-0.3-0.2-0.5-0.4-0.7-0.4
	C195.7,40.8,196,40.6,196.5,40.4 M195.9,42.2l0.6,0.1l-0.1,0.5l-0.5-0.1L195.9,42.2z M196.4,67.3l-0.1,0.2l0.5,0.1l0.1-0.3
	L196.4,67.3z M197.1,44.5c0.3,0.1,0.4,0.3,0.4,0.5v0.1l-0.6-0.1L197.1,44.5z M197.2,46.2l0.8,0.1l-0.1,0.5l-0.8-0.1L197.2,46.2z
	 M197.7,67l-0.1,0.3l0.6,0.1v-0.2L197.7,67z M199,40.1l-0.1,0.3c0,0.3-0.2,0.4-0.5,0.4h-0.1l-0.5-0.1l0.1-0.5
	C198,40.2,198.3,40.1,199,40.1 M216.4,35.7l0.6,0.1c0.1,0,0.2,0.1,0.2,0.3v0.1c0.4-0.1,0.6-0.1,0.8-0.1c2.7,1.2,4,2.4,4,3.7
	c0,0.1,0,0.2-0.1,0.3c1.2,0.9,1.8,1.6,1.8,1.9l-0.1,0.3l-0.5-0.1l0.3,0.9l-0.6,0.1l-0.4-0.3c-0.1,0.2-0.4,0.5-1,0.8l0.8,0.2
	l-0.1,0.5c-2.6,0.2-3.9,0.3-4.1,0.3c-0.4-0.1-0.6-0.4-0.6-0.8v-0.2l-0.2-0.1l-0.1,0.6l-1.7-0.6l-0.1,0.2l0.1,0.6l-0.6,0.1l-1.7-0.6
	l0.1-0.8l0.5,0.3h0.1c0.2,0,0.4-0.1,0.5-0.4l0.1-0.3c-0.2,0-0.3,0.1-0.3,0.2l-0.5-0.3l-0.5-0.1L213,43l-1.5-0.3l-0.1,0.6l1.2,0.3
	l-0.1,0.2c0,0.3-0.2,0.4-0.3,0.4h-0.2l-0.3-0.1l-0.5-0.3c0,0.3-0.2,0.4-0.4,0.4h-0.2l-0.3-0.1l0.1-0.5c-0.2,0-0.5,0.1-0.7,0.1h-0.4
	l0.2,0.6c-0.1,0.3-0.8,0.5-2,0.6h-0.3l0.1-0.3l0.5,0.1l0.1-0.5l-0.8-0.1c-0.1,0.4-0.3,0.6-0.5,0.6h-0.1l-0.3-0.1
	c-0.3,0-0.4-0.2-0.4-0.4v-0.1c0.3-0.1,0.5-0.1,0.7-0.1h0.1l0.1-0.3l-0.1-0.6h0.1c0.1,0,0.2-0.1,0.2-0.2l-0.5-0.1
	c-0.1,0-0.2-0.1-0.3-0.1c-0.4,0-0.6,0.2-0.7,0.7l-0.3-0.1c-0.1,0-0.2-0.2-0.2-0.3c-1.4,0.1-2.2,0.3-2.2,0.6l0.2,0.1h0.8
	c0.4,0,0.8,0,1.1,0.1l0.3,1.4l-1.3-0.3l0.2-0.8h-0.1c-0.3,0-0.4,0.1-0.5,0.4l-0.1,0.2l0.1,0.6c-0.5,0.2-0.9,0.3-1.2,0.3
	c-0.1,0-0.3,0-0.4-0.1l-0.1-0.6c0.2,0,0.4-0.1,0.6-0.1c0.2,0,0.5,0,0.8,0.1l0.1-0.5l-0.3-0.1l-1.9,0.1l-1.2-0.5l-1.4-0.1
	c1.8-0.8,3.1-1.2,4.1-1.2c0.2,0,0.3,0,0.5,0.1l0.1-0.3v-0.1c0-0.1-0.1-0.2-0.2-0.2l0.3-0.5l0.1-0.8h-0.2c-1.1,0-1.7,0.3-1.8,0.9
	l-1.2-0.5c-0.1,0.3-0.5,0.5-1.2,0.5h-0.3l0.1-0.3c0.2-0.2,0.4-0.6,0.4-1l0.5,0.3c1.5-0.2,2.5-0.4,3.1-0.7l-0.1-0.6
	c0.6-0.6,1.1-1,1.6-1h0.2l-0.2-0.5c0.1-0.3,0.3-0.4,0.6-0.4h0.1l0.5,0.1l-0.1,0.5l-0.5-0.1l-0.1,0.6c0.7-0.1,1.1-0.3,1.2-0.6
	c-0.1,0-0.1-0.1-0.1-0.2V38l0.2,0.1l0.5,0.3l1.6-1.2l-0.3-0.1c-0.2,0-0.4-0.1-0.6-0.1c-0.5,0-0.7,0.2-0.8,0.6h-0.2
	c-0.1,0-0.2-0.1-0.2-0.3v-0.1h-0.1c-0.3,0-0.7,0.2-1.4,0.5c-0.3-0.2-0.5-0.4-0.7-0.4c0.1-0.5,1.8-0.9,5-1.1c0.3,0.3,0.5,0.4,0.7,0.4
	c0-0.2,0.3-0.5,0.7-0.9l-1-0.2c0-0.2,0.3-0.4,0.9-0.6l0.8,0.1l-0.1,0.3c-0.2,0.3-0.4,0.6-0.4,0.8c0.6-0.2,1-0.3,1.4-0.3
	c0.2,0,0.3,0,0.5,0.1c0,0.4,0.1,0.6,0.4,0.6l0.1-0.8l-0.8-0.1l0.1-0.5C214.1,35.3,215.5,35.5,216.4,35.7 M199.1,76.1v0.3l0.5,0.1
	l0.1-0.3L199.1,76.1z M199.9,39.8l0.8,0.1l-0.1,0.6l-0.8-0.2L199.9,39.8z M200.2,42.2l0.6,0.1l-0.1,0.6l-0.5-0.1L200.2,42.2z
	 M200.4,45.2l0.8,0.1c0,0.3-0.2,0.4-0.5,0.4h-0.1l-0.3-0.1L200.4,45.2z M202.9,45.7c0.6,0.3,1.3,0.6,2,0.7c0,0.2-0.8,0.6-2.3,1.1
	l-0.5-0.3c-0.2,0-0.5,0.1-0.7,0.1H201l1.2-0.8c-0.1,0-0.2-0.2-0.2-0.3C202.6,46,202.9,45.9,202.9,45.7 M201.9,43.1
	c-0.1,0.3-0.3,0.6-0.8,1l0.6,0.1c0.2,0,0.4-0.1,0.5-0.1h0.2v-0.1C202.4,43.7,202.2,43.4,201.9,43.1 M201.8,46l-0.1,0.5l-0.5-0.1
	c0.1-0.3,0.2-0.4,0.4-0.4H201.8z M201.5,37.1l0.6,0.1l-0.1,0.5l-0.5-0.1L201.5,37.1z M202.3,83.7v0.3l0.5,0.1c1.2,0,1.9-0.3,2.1-0.9
	l0.4,0.3l0.3,0.1c0-0.2-0.1-0.4-0.1-0.6v-0.2c-0.6,0-1.2,0.3-2.1,0.9L202.3,83.7z M202.8,37.1l0.8,0.1l-0.2,0.8
	C203.2,38,203,37.7,202.8,37.1 M203.1,39.9l-0.1,0.2l0.6,0.1l0.1-0.8h-0.1C203.3,39.5,203.1,39.6,203.1,39.9 M203.5,41.3v0.3l1,0.5
	c0-0.2,0.2-0.3,0.6-0.3c0.1,0,0.3,0,0.6,0.1l0.1-0.6l-0.8-0.1c-0.3,0.2-0.6,0.3-1,0.3C203.8,41.3,203.7,41.3,203.5,41.3 M203.9,39.8
	l0.3,0.1h0.1c0.2,0,0.4-0.1,0.5-0.4l-0.3-0.1C204.1,39.3,203.9,39.5,203.9,39.8 M205,39.5l-0.1,0.5c0.2,0,0.4-0.1,0.6-0.1h0.2
	l0.1-0.6c-0.3,0.1-0.5,0.1-0.7,0.1H205z M206.5,45.1h0.3l1.2,0.5l-0.1,0.5c-1,0.2-1.7,0.3-2.3,0.3c-0.3,0-0.5,0-0.7-0.1l0.1-0.5
	c0.2,0,0.3,0.1,0.5,0.1C206.1,45.9,206.4,45.7,206.5,45.1 M205.3,44.3l0.8,0.2c0,0.3-0.2,0.4-0.5,0.4h-0.1l-0.2-0.1L205.3,44.3z
	 M205.9,82l-0.1,0.3l0.8,0.1l0.1-0.3L205.9,82z M205.9,83l-0.1,0.6h0.1c0.2,0,0.4-0.1,0.5-0.4L205.9,83z M206.6,40.6l-0.1,0.8
	l0.2,0.1l0.2-0.8L206.6,40.6z M206.9,35.3l0.5,0.1l-0.1,0.6l-0.5-0.1L206.9,35.3z M207.5,43.1l-0.1,0.6l0.3,0.1l0.1-0.6L207.5,43.1z
	 M208.1,37.2l-0.1,0.2l0.5,0.1l0.1-0.3L208.1,37.2z M208.2,82.2l-0.1,0.5l1,0.2l0.1-0.2L208.2,82.2z M208.6,45.5l1,0.2
	c-0.1,0.3-0.3,0.4-0.5,0.4H209l-0.6-0.1L208.6,45.5z M209.4,83l-0.1,0.3l0.5,0.1v-0.2L209.4,83z M209.4,42.2v0.3l0.8,0.1l0.3-0.4
	l-0.3-0.1c-0.2,0-0.4,0.1-0.6,0.1H209.4z M210.2,82.9l-0.1,0.2l0.6,0.1V83L210.2,82.9z M210.9,42l-0.1,0.5h0.2
	c0.2,0,0.3-0.1,0.4-0.4L210.9,42z M211,42.8l-0.1,0.8h0.2l0.2-0.8H211z M211.1,40.7V41l0.5,0.1l0.1-0.2L211.1,40.7z M212.1,45.2
	l0.5,0.1l-0.1,0.3l-0.5-0.1L212.1,45.2z M212.5,42l-0.1,0.5l0.3,0.1l0.1-0.6L212.5,42z M213.7,82.6l-0.1,0.5l0.2,0.1l0.1-0.5
	L213.7,82.6z M214.5,43.8l0.5,0.1l0.1-0.5C214.8,43.4,214.6,43.5,214.5,43.8 M216.2,44.4v0.3c-0.1,0.2-0.3,0.3-0.6,0.3h-0.3
	l-0.5-0.1v-0.2h0.2C215.4,44.7,215.8,44.6,216.2,44.4 M215.4,66.4l0.5,0.1l-0.1,0.6l-0.5-0.1L215.4,66.4z M218.3,43.3l-0.1,0.3
	l0.5,0.1l0.1-0.2L218.3,43.3z M219.3,43.7l-0.1,0.2l0.5,0.1l0.1-0.3L219.3,43.7z M222,41.9v0.3l0.5,0.1l0.1-0.2L222,41.9z"/>
<path d="M68.5,36.6H69v0.6c-0.2,0-0.3-0.1-0.3-0.3c-1.4,0.7-2.2,1.1-2.5,1.1L66,37.4l-0.6,0.3h-0.8v-0.6l1.4-0.3
	c0.2,0,0.3,0.1,0.3,0.3C67,36.8,67.7,36.6,68.5,36.6"/>
<path d="M69,37.2c-0.2,0-0.3-0.1-0.3-0.3c-1.4,0.7-2.2,1.1-2.5,1.1L66,37.4l-0.5,0.3h-0.8v-0.6l1.4-0.3c0.2,0,0.3,0.1,0.3,0.3
	c0.7-0.4,1.4-0.6,2.2-0.6H69"/>
<path d="M66.3,37.2c0.7-0.4,1.4-0.6,2.2-0.6H69"/>
<path d="M62.1,37.9c-0.2,0.1-0.3,0-0.3-0.1c-1.1,1-1.9,1.5-2.1,1.6L59.3,39l-0.5,0.4L58,39.6l-0.1-0.4l1.3-0.6
	c0.2-0.1,0.3,0,0.3,0.1"/>
<path d="M101.9,98.5c0.3,0,0.8-0.3,1.3-0.7l-0.3-0.5l-0.5,0.3l-1.1,0.1v-0.1c0-0.3,0.2-0.5,0.5-0.6c-0.1-0.9-0.6-1.4-1.3-1.5
	c-0.8,0.6-1.9,1.7-3.2,3.2l-0.8,0.1c-0.3,0-0.5,0.1-0.8,0.1c-4.4,0-1.2,4.2-6.9-3.9l0.2-0.6h-0.3c-1.1-1.8-1.9-2.8-2.3-2.8v-0.1
	c0-0.1,0.1-0.2,0.2-0.3c-1.6-2.5-2.4-3.9-2.5-4.4l0.2-0.6h-0.1c-0.4,0-0.8-0.6-1.2-1.8c0.2,0,0.3-0.1,0.3-0.3L83.2,84
	c-0.1-0.1-0.1-0.2-0.2-0.3c-4.4-0.6-8.8-0.2-12,3.1c-0.9,1-1.6,2-2.3,3.2c4.1,8.6,0.4,6.9,3.6,9.4c1.5,2.6,4.7,4.8,9.6,6.7l0.6-0.3
	c0,0.2,1.5,0.5,4.3,0.8c3.6-1.1,5.6-1.7,5.9-1.8c0,0.1,0.1,0.2,0.2,0.2h0.3c0.6-1,1-1.5,1.2-1.5v0.3l1.4-0.5l0.6,0.2
	c1.7-0.5,2.5-1.1,2.5-2.1v-0.1H99c0.1,0,0.2,0.1,0.2,0.2c1-0.1,1.5-0.5,1.5-1.2v-0.1h0.3l0.1,0.5l0.5-0.1v-0.2c0-0.6,0.3-0.9,1-1
	v-0.3l-0.6,0.1L101.9,98.5z"/>
<path d="M73,91.7l0.1,1.1l0.8-0.1c-0.5-0.4-0.7-0.8-0.7-1L73,91.7z"/>
<path d="M69.4,91.8l0.1,0.6l0.6-0.1c0-0.3-0.2-0.5-0.5-0.5H69.4z"/>
<polygon points="71,93.1 71,93.5 71.3,93.5 71.2,93 "/>
<path d="M79.7,98.6l-8.2-7.9c0.8,1.2,1.3,1.8,1.7,1.8L73.1,92C72.7,91.2,80.4,98.9,79.7,98.6"/>
<polygon points="71.6,94.3 71.7,94.8 72,94.8 71.9,94.3 "/>
<polygon points="74.7,91.5 74.7,91.8 75.2,91.7 75.2,91.4 "/>
<path d="M74.7,92.3c1.1,2.1,2.1,3.4,3,3.8l0.5-0.9h-0.3c-0.8,0-1.5-0.6-2.1-1.7c0.3,0,0.5-0.2,0.5-0.5v-0.1h-0.1
	c-0.3,0-0.5-0.3-0.6-0.8L74.7,92.3z"/>
<polygon points="76.3,93.5 76.3,93.7 76.9,93.7 76.9,93.4 "/>
<path d="M121,94.5c8.7,4.9-7.1-1.2-3.4-1.2"/>
<path d="M119.7,95.1c4.3,0.8-2.1,3.9-2.1-1.2"/>
<path d="M118.5,93.9c0,6.1,6.1,0.6,1.2,0.6"/>
<path d="M116,26.1c-2.7-1.8-5-4.9-5-8.3c0-0.1,0-0.9,0-1c0.1-0.9,0.8-2,0.8-2.8c0-0.1-0.2-0.2-0.3-0.2h0.4c1.1-2.4,3.6-2.8,4.3-4.1
	h-0.4V9.6l0.1-0.1c0,0,0,0,0,0c0-0.3-1.2-0.2-1.2-0.4c0-0.1,0.1-0.2,0.1-0.2c-0.4-0.1-1-0.2-1.3-0.2c-0.1,0-0.1,0-0.1,0l-0.2,0
	c0,0,0,0-0.1,0c0,0-0.2-0.1-0.2-0.2c0.4,0,0.7,0,1-0.1c-0.1,0-0.5-0.4-0.4-0.5l-0.1,0l-0.1,0c0,0,0,0,0,0l-0.7,0.3
	c0.1-0.2,0.2-0.2,0.2-0.4c0.1,0,0.2,0,0.2-0.1l-0.1,0c0,0,0,0,0-0.1c0-0.1,0.5-0.2,0.7-0.4h-0.1c-0.2,0-0.2,0.2-0.4,0.2
	c0-0.4,0.5-0.5,0.5-0.7l0,0.1c0,0,0,0,0.1,0l0.1-0.1l-0.2-0.2c0.2,0,0.5,0.1,0.5-0.1c0,0,0-0.2-0.1-0.2c-0.1,0-0.1,0-0.1,0l-0.2,0v0
	c0.2-0.1,0.7-0.5,0.5-0.8c0.2-0.1,0.9-0.9,1-0.9l0.1,0.1l0.2-0.1c0.2,0,0.7,0,0.8,0c0.2-0.3,0.7-0.4,1.1-0.4c-0.2,0-0.5,0-0.7-0.1
	l0.1,0c0,0,0.5-0.1,0.7-0.1c0.2,0,0.5,0.1,0.5,0.1l0,0.1h0.6l0.1,0.1l-0.1,0h-0.4c-0.2,0-0.1,0.1-0.1,0.2h1.1
	c-0.1,0-0.2-0.2-0.2-0.2h0.4l-0.1,0h0.2v0.1l-0.1,0.1c0,0,0,0,0,0c0.3,0.1,0.5,0.1,0.9,0.1c0.1,0,0.2,0,0.2,0l0.1-0.1h-0.3l0.1-0.1
	h-0.2V4.1c0.2,0,0.7,0,0.7,0.2c0.5,0,0.9-0.1,1.4-0.1l0.1,0.1l-0.1,0c0,0,0,0,0.1,0h0l0.2,0c0,0,0.2,0,0.3,0.1h0.7l-0.1,0
	c1.4,0,2.7,1.2,3.9,1.2h0.1l-0.2-0.1l0.1-0.1l-0.1,0l-0.1,0H127c-0.1,0-0.2,0-0.2,0c0-0.1,0.1-0.1,0.1-0.1v0c0.5,0,0.2,0,0.8,0.1
	c-0.1,0-0.2,0-0.2,0.2h0.1c0,0.1,0.4,0.4,0.5,0.4h0.1V5.8h0.1c0.3,0.1,0.5,0.4,0.8,0.5c0,0,0.1,0,0.1,0c0.8,0.4,1.8,2.8,1.8,3.6
	c0,0.2-0.5,0.3-0.6,0.3c0,0,0,0.1,0.1,0.1c0,0,0.1-0.1,0.2-0.1v0.5h0v-0.5c0.2,0.1,0.5,0.3,0.5,0.5c0,0.5,0,0.7,0,1
	c0,0.1-0.1,0.4,0,0.4c0.1,0.7,0.1,1.3,0.1,2c0,0.2,0,0.9,0,1.1c-0.1,0.5-0.2,1.5-0.6,1.8l0,0l0.2,0v0c0,0.2-0.4,1.3-0.6,1.4
	l-0.1-0.1l-0.1,0.1c0,0,0,0,0-0.1c0,0,0.2-0.2,0.3-0.3h-0.1c0-0.2,0.2-0.4,0.2-0.6h-0.1c0-0.1,0.1-0.2,0.1-0.3
	c-0.1,0-0.3,0.2-0.3,0.2l0,0c-0.1,0,0,0.2-0.2,0.3l0.1,0.1c0,0-0.1,0.2-0.1,0.2V18h0c0,0.4-0.5,0.9-0.5,1.3h0
	c-0.1,0.4-0.2,0.6-0.5,1l0.1,0.1c0,0,0,0,0,0c-0.3,0.5-0.2,0.5-0.2,1.1l-0.1-0.1c0,0,0-0.5,0-0.5c-0.4,0.3-0.6,0.9-1,1.3
	c-1,1-3,1.8-3.7,3c0.1,0.1,0.2,0.1,0.2,0.1c0,0.2-0.3,0.5-0.3,0.5c0-0.2,0.1-0.2,0.1-0.4l-0.1-0.1c0,0.1,0,0.2,0,0.2
	c-0.1,0-0.1,0-0.1,0l-0.1,0h0c0,0.3-2.1,1.1-2.4,1.1h-0.1c-0.1,0-0.9-0.2-1-0.2c0,0,0,0,0,0c-0.5,0-1.1,0.5-1.8,0.5
	C117.5,26.9,116.9,26.6,116,26.1L116,26.1z M112.3,8.6c-0.1,0-0.1-0.1,0-0.1C112.3,8.5,112.3,8.6,112.3,8.6z M112.3,8.7
	C112.3,8.6,112.3,8.6,112.3,8.7C112.3,8.7,112.3,8.7,112.3,8.7z M112.4,8.8c0,0,0-0.1,0-0.1C112.5,8.7,112.5,8.8,112.4,8.8z
	 M112.6,8.9c-0.1,0-0.1-0.2,0-0.2C112.6,8.7,112.6,8.9,112.6,8.9z M112.7,4.8L112.7,4.8L112.7,4.8L112.7,4.8L112.7,4.8z M112.6,8.6
	C112.6,8.5,112.7,8.5,112.6,8.6C112.7,8.7,112.6,8.7,112.6,8.6z M112.7,4.3c-0.1,0-0.1-0.2,0-0.2S112.8,4.3,112.7,4.3z M112.7,8.3
	c-0.1,0-0.1-0.2,0-0.2S112.8,8.3,112.7,8.3z M112.7,8.9c-0.1,0-0.1-0.1,0-0.1S112.8,8.9,112.7,8.9z M112.8,8.5c0,0,0-0.1,0-0.1
	C112.9,8.4,112.9,8.5,112.8,8.5z M112.8,8.7c0,0,0-0.1,0-0.1C112.9,8.6,112.9,8.7,112.8,8.7z M113.2,6.7L113.2,6.7L113.2,6.7
	L113.2,6.7z M113.2,7.1C113.3,7.1,113.3,7.1,113.2,7.1C113.3,7,113.1,7.1,113.2,7.1z M113.3,6.6c0-0.1,0.1-0.1,0.1,0
	C113.5,6.7,113.3,6.7,113.3,6.6z M113.4,7.1c0,0,0-0.1,0-0.1C113.3,6.9,113.3,7.1,113.4,7.1z M113.5,6.5
	C113.5,6.5,113.5,6.4,113.5,6.5C113.6,6.4,113.6,6.5,113.5,6.5z M113.6,8.8C113.6,8.7,113.7,8.7,113.6,8.8
	C113.7,8.9,113.6,8.9,113.6,8.8z M113.8,9.4C113.8,9.4,113.8,9.4,113.8,9.4l0.2,0.1c0,0-0.1,0-0.1,0C113.8,9.5,113.7,9.5,113.8,9.4
	L113.8,9.4z M113.8,6.4C113.7,6.4,113.7,6.3,113.8,6.4C113.8,6.3,113.8,6.4,113.8,6.4z M113.8,5.9C113.8,5.8,113.9,5.8,113.8,5.9
	C113.9,6,113.8,6,113.8,5.9z M113.9,6.6c0,0,0-0.2,0-0.2C113.8,6.5,113.8,6.6,113.9,6.6z M114,8.5c0.1,0,0.1-0.1,0-0.1
	C114,8.4,114,8.5,114,8.5z M114.3,8.7c0,0,0-0.2,0-0.2C114.2,8.5,114.2,8.7,114.3,8.7z M114.4,8.7C114.4,8.7,114.4,8.7,114.4,8.7
	C114.4,8.6,114.4,8.6,114.4,8.7z M114.4,9.4c0,0,0.1,0,0.1,0C114.5,9.5,114.4,9.5,114.4,9.4z M114.7,9.7
	C114.7,9.6,114.7,9.6,114.7,9.7C114.7,9.7,114.7,9.7,114.7,9.7z M114.9,9.4c0,0,0.1,0,0.2,0.1h-0.1C115,9.5,114.9,9.5,114.9,9.4
	L114.9,9.4z M115.4,9.4c0,0,0.1,0.1,0.2,0.1l0.1,0.1h-0.1C115.4,9.6,115.4,9.6,115.4,9.4L115.4,9.4z M115.4,4.3
	c-0.1,0-0.1-0.1,0-0.1C115.5,4.2,115.5,4.3,115.4,4.3z M116.7,3.9c-0.3,0.2-0.9,0.2-1.1,0.2h-0.1l0.2-0.2c0,0,0.5,0,0.7,0
	C116.5,3.9,116.6,3.9,116.7,3.9z M115.7,9.8c0,0,0-0.1,0-0.1C115.8,9.7,115.8,9.8,115.7,9.8z M116,4.3L116,4.3L116,4.3L116,4.3z
	 M116.2,4.3c0-0.1,0.3-0.1,0.3,0C116.4,4.3,116.3,4.3,116.2,4.3z M116.4,9.9c0.1,0,0.1-0.2,0-0.2C116.3,9.7,116.3,9.9,116.4,9.9z
	 M116.5,3.2c0,0,0-0.1,0-0.1C116.6,3.1,116.6,3.2,116.5,3.2z M117.6,4.1c0.1,0,0.2,0,0.3,0C117.9,4,117.5,4,117.6,4.1z M122,21.1
	L122,21.1c0.1,0.1,0.2,0,0.4,0c0.4-0.3,0.8-0.8,0.8-1.3c-0.1,0-0.1,0-0.1,0.1v-0.1c0-0.3,0.2-0.5,0.2-0.9h0.1c0.1,0,0.1-1.8,0.1-2
	c0-0.1,0-0.2,0-0.2l0-0.1c0,0,0-0.1,0-0.2c0-0.2,0-0.1,0-0.4c-0.2,0-0.2-0.2-0.2-0.3v0l0.2,0v-0.2l-0.2,0c-0.2-0.3-0.1-0.9-0.2-1.2
	l-0.4,0.1l-0.1-0.1c0.2,0,0.4-0.2,0.5-0.4c-0.1-0.5-0.1-1.1-0.6-1.4c-0.1,0.1,0,0.1,0,0.1h-0.2c0,0,0.1,0,0-0.1
	c0-0.1,0.1-0.1,0.2-0.1c-0.4-0.3-0.8-0.9-1.1-1.2c-0.1,0-0.2,0-0.2,0c-0.2,0-0.2,0.4-0.2,0.5v0.1l0,0.3c0,0.3-0.4,0.6-0.6,0.8
	c-0.9,1.3-2.5,3-2.5,4.8c0,1.6,2.2,3.4,3.8,3.4c0.3,0,0.4-0.2,0.5-0.4c0,0,0,0.1,0,0.2L122,21.1z M118,4.1C118,4.2,118,4.2,118,4.1
	C118,4.1,118,4.1,118,4.1z M118.8,4.4l0.2,0L118.8,4.4L118.8,4.4z M118.9,4.1c-0.1,0-0.1-0.1,0-0.1C118.9,4,118.9,4.1,118.9,4.1z
	 M119,4c-0.1,0-0.1-0.1,0-0.1C119.1,3.9,119.1,4,119,4z M119.1,4.4c0,0.1,0.2,0.1,0.2,0C119.2,4.4,119.1,4.4,119.1,4.4z M119.5,17.9
	c-0.1,0-0.1-0.1,0-0.1C119.6,17.8,119.6,17.9,119.5,17.9z M119.7,4.2c0,0,0-0.1,0-0.1C119.8,4.1,119.8,4.2,119.7,4.2z M120.6,4.4
	h0.1l-0.1-0.1L120.6,4.4z M120.8,26.7c0,0,0-0.1,0-0.1C120.8,26.6,120.8,26.7,120.8,26.7z M120.9,12.4L120.9,12.4L120.9,12.4
	L120.9,12.4z M121,12.2c-0.1,0-0.1-0.1,0-0.1C121.1,12.1,121.1,12.2,121,12.2z M121,12.4C120.9,12.4,120.9,12.4,121,12.4
	C121.1,12.4,121.1,12.4,121,12.4z M121.2,12.5L121.2,12.5L121.2,12.5L121.2,12.5C121.1,12.5,121.1,12.5,121.2,12.5z M121.2,12.4
	c0-0.2,0.2-0.2,0.3-0.2C121.5,12.4,121.3,12.4,121.2,12.4z M121.4,12.6c-0.1,0-0.1-0.2,0-0.2C121.5,12.4,121.5,12.6,121.4,12.6z
	 M121.5,12.7C121.5,12.6,121.6,12.6,121.5,12.7C121.6,12.8,121.5,12.8,121.5,12.7z M121.8,12.4c0,0-0.1-0.1-0.1-0.2
	C121.7,12.2,121.8,12.3,121.8,12.4z M121.7,14c-0.1,0-0.1-0.1,0-0.1C121.8,13.9,121.8,14,121.7,14z M121.8,12.6L121.8,12.6
	L121.8,12.6L121.8,12.6z M121.9,29.2c-0.1,0-0.1-0.2,0-0.2C122,29.1,122,29.2,121.9,29.2z M122,29.3c0,0,0-0.1,0-0.1
	C122,29.1,122,29.3,122,29.3z M122.1,12.6c-0.1,0-0.1-0.1,0-0.1C122.2,12.5,122.2,12.6,122.1,12.6z M122.2,15.6
	C122.2,15.6,122.2,15.5,122.2,15.6C122.3,15.5,122.3,15.6,122.2,15.6z M122.4,12.8c-0.1,0-0.1-0.1,0-0.1
	C122.4,12.7,122.4,12.8,122.4,12.8z M122.5,12.8c-0.1,0-0.1-0.1,0-0.1C122.6,12.6,122.6,12.8,122.5,12.8z M122.5,14.1
	c-0.1,0-0.1-0.2,0-0.2C122.6,14,122.6,14.1,122.5,14.1z M122.6,17.2c-0.1,0-0.1-0.2,0-0.2C122.7,17,122.7,17.2,122.6,17.2z
	 M122.8,4.2C122.8,4.1,122.9,4.1,122.8,4.2C122.9,4.3,122.8,4.3,122.8,4.2z M123.1,26c-0.1,0-0.1-0.2,0-0.2
	C123.1,25.8,123.1,26,123.1,26z M123.1,35.3c-0.1,0-0.1-0.2,0-0.2C123.1,35.2,123.1,35.3,123.1,35.3z M123.3,25.9
	c-0.1,0-0.1-0.1,0-0.1C123.3,25.8,123.3,25.9,123.3,25.9z M123.3,19.6c0.1,0,0.1-0.1,0-0.1C123.3,19.5,123.3,19.6,123.3,19.6z
	 M123.3,25.6C123.3,25.7,123.4,25.7,123.3,25.6C123.4,25.6,123.3,25.6,123.3,25.6z M123.4,16.5C123.3,16.5,123.3,16.5,123.4,16.5
	C123.4,16.5,123.4,16.5,123.4,16.5z M123.4,19.2C123.4,19.2,123.4,19.2,123.4,19.2C123.3,19.2,123.3,19.2,123.4,19.2z M123.4,15.8
	C123.5,15.8,123.5,15.8,123.4,15.8C123.4,15.8,123.4,15.8,123.4,15.8z M123.4,19.4c0,0,0-0.1,0-0.1
	C123.4,19.3,123.4,19.4,123.4,19.4z M123.5,18.8c0.1,0,0.1-0.1,0-0.1C123.4,18.7,123.4,18.8,123.5,18.8z M123.5,19.2
	C123.5,19.2,123.5,19.2,123.5,19.2c0.1-0.1,0.2-0.2,0.2-0.4C123.6,19,123.5,19.1,123.5,19.2z M123.6,18.6c0.1,0,0.1-0.1,0-0.1
	C123.5,18.5,123.5,18.6,123.6,18.6z M123.6,18.8c0,0,0-0.1,0-0.1C123.6,18.7,123.6,18.8,123.6,18.8z M123.6,5.5
	C123.6,5.5,123.7,5.5,123.6,5.5C123.7,5.4,123.6,5.4,123.6,5.5z M123.8,35.2c-0.1,0-0.1-0.1,0-0.1C123.8,35,123.8,35.2,123.8,35.2z
	 M123.8,35.3c-0.1,0-0.1-0.2,0-0.2C123.8,35.2,123.8,35.3,123.8,35.3z M124,17.4c0,0,0-0.1,0-0.1C123.9,17.3,123.9,17.4,124,17.4z
	 M124,17.3c0.1,0,0.1-0.1,0-0.1C124,17.2,124,17.3,124,17.3z M124.5,25.8L124.5,25.8c0,0.3-0.2,0.3-0.4,0.3V26
	C124.3,26,124.3,26,124.5,25.8z M124.2,25.9c0,0,0-0.1,0-0.1C124.3,25.8,124.3,25.9,124.2,25.9z M124.3,25.9c0,0,0-0.1,0-0.1
	C124.4,25.8,124.4,25.9,124.3,25.9z M124.3,5.7C124.3,5.8,124.4,5.8,124.3,5.7C124.4,5.7,124.3,5.7,124.3,5.7z M124.6,25.7
	c-0.1,0-0.1-0.1,0-0.1C124.7,25.6,124.7,25.7,124.6,25.7z M124.7,5.8C124.7,5.8,124.7,5.8,124.7,5.8C124.7,5.7,124.7,5.7,124.7,5.8z
	 M124.8,25.8c0,0.1,0,0.1-0.1,0.1v-0.1H124.8z M124.8,24.6c0,0,0-0.1,0-0.1C124.7,24.5,124.7,24.6,124.8,24.6z M125,5.9L125,5.9
	l-0.2-0.1L125,5.9z M125,5C125,5.1,125.1,5.1,125,5C125.1,5,125,5,125,5z M125.1,4.5c0-0.1,0.2-0.1,0.2,0
	C125.3,4.6,125.1,4.6,125.1,4.5z M125.2,6L125.2,6L125.2,6L125.2,6z M125.3,24.5c0,0.1-0.1,0.1-0.1,0.1h-0.1l0.1-0.1L125.3,24.5z
	 M125.2,5.1C125.2,5.2,125.2,5.2,125.2,5.1C125.2,5.1,125.2,5.1,125.2,5.1z M125.2,25.6C125.2,25.6,125.2,25.6,125.2,25.6
	C125.2,25.7,125.2,25.7,125.2,25.6z M125.3,6.1c0.1,0,0.1-0.2,0-0.2C125.3,6,125.3,6.1,125.3,6.1z M125.3,4.6
	C125.3,4.5,125.4,4.5,125.3,4.6C125.4,4.6,125.3,4.6,125.3,4.6z M125.5,25.8c-0.1,0-0.1-0.2,0-0.2C125.5,25.6,125.5,25.8,125.5,25.8
	z M125.6,4.6c-0.1,0-0.1-0.1,0-0.1C125.7,4.5,125.7,4.6,125.6,4.6z M125.6,5.5c0.1,0,0.1-0.1,0-0.1C125.5,5.4,125.5,5.5,125.6,5.5z
	 M125.6,34.3c-0.1,0-0.1-0.2,0-0.2C125.7,34.1,125.7,34.3,125.6,34.3z M125.7,5.3c0.1,0,0.1-0.2,0-0.2
	C125.7,5.1,125.7,5.3,125.7,5.3z M125.7,6.1C125.7,6.2,125.8,6.2,125.7,6.1C125.8,6,125.7,6,125.7,6.1z M125.8,6.2
	c0.1,0,0.1-0.1,0-0.1C125.8,6.1,125.8,6.2,125.8,6.2z M125.8,5.3C125.8,5.3,125.9,5.3,125.8,5.3C125.9,5.2,125.8,5.2,125.8,5.3z
	 M125.9,35c-0.1,0-0.1-0.1,0-0.1C126,34.9,126,35,125.9,35z M126,5.4c0.1,0,0.1-0.1,0-0.1C126,5.3,126,5.4,126,5.4z M126.6,4.8
	c0,0.1-0.1,0.1-0.1,0.1c-0.1,0-0.1,0-0.1,0s-0.2,0-0.2-0.1H126.6z M126.2,5.5c0.1,0,0.1-0.1,0-0.1C126.2,5.3,126.2,5.5,126.2,5.5z
	 M126.3,23.6C126.3,23.6,126.3,23.5,126.3,23.6C126.4,23.5,126.4,23.6,126.3,23.6z M126.3,5.5c0,0.1,0.2,0.1,0.2,0
	C126.5,5.4,126.3,5.4,126.3,5.5z M126.8,5.8L126.8,5.8c-0.1-0.1-0.1-0.1-0.3-0.1h-0.1C126.5,5.8,126.7,5.8,126.8,5.8z M126.5,5
	c0,0,0-0.1,0-0.1C126.4,4.8,126.4,5,126.5,5z M126.5,5.6c0.1,0,0.1-0.2,0-0.2C126.5,5.5,126.5,5.6,126.5,5.6z M126.6,23.4
	c0.1,0,0.1,0,0.1,0.1C126.6,23.6,126.5,23.5,126.6,23.4C126.5,23.4,126.5,23.4,126.6,23.4z M126.7,5C126.7,5,126.7,5,126.7,5
	C126.7,5.1,126.7,5.1,126.7,5z M127,23.4l-0.2,0c0,0,0,0,0,0l0.1-0.2c0,0,0,0,0,0C126.9,23.4,127,23.4,127,23.4z M126.9,6.1
	c0.1,0,0.1-0.2,0-0.2C126.9,6,126.9,6.1,126.9,6.1z M127,23.6c-0.1,0-0.1-0.1,0-0.1C127,23.5,127,23.6,127,23.6z M127,6L127,6L127,6
	L127,6z M127.1,5.8c0.1,0,0.1-0.2,0-0.2C127,5.7,127,5.8,127.1,5.8z M127.2,6c0,0,0-0.1,0-0.1C127.1,5.9,127.1,6,127.2,6z
	 M127.2,4.9c0,0,0-0.1,0-0.1C127.3,4.8,127.3,4.9,127.2,4.9z M127.2,23.4c0,0,0-0.1,0-0.1C127.3,23.3,127.3,23.4,127.2,23.4z
	 M127.2,6.6L127.2,6.6L127.2,6.6L127.2,6.6z M127.3,25.1C127.2,25.1,127.2,25.1,127.3,25.1c0-0.1,0.2-0.2,0.2-0.2c0,0,0,0,0.1,0
	C127.5,25,127.4,25.1,127.3,25.1z M127.3,6.2L127.3,6.2L127.3,6.2L127.3,6.2z M127.4,5.9c0,0,0-0.1,0-0.1
	C127.3,5.8,127.3,5.9,127.4,5.9z M127.4,6.4c0,0,0-0.1,0-0.1C127.3,6.2,127.3,6.4,127.4,6.4z M127.4,6.7c0,0,0-0.1,0-0.1
	C127.3,6.6,127.3,6.7,127.4,6.7z M127.4,23.3c-0.1,0-0.1-0.2,0-0.2C127.4,23.1,127.4,23.3,127.4,23.3z M127.4,6.8
	c0,0,0.2,0.2,0.2,0.2l0.1-0.1c0,0-0.2,0-0.2-0.2l0.1-0.1L127.4,6.8L127.4,6.8z M127.4,5.6c0.1,0,0.1-0.2,0-0.2
	C127.4,5.5,127.4,5.6,127.4,5.6z M127.4,25.2c0,0,0-0.1,0-0.1C127.5,25.1,127.5,25.2,127.4,25.2z M127.5,5.8L127.5,5.8L127.5,5.8
	c-0.1-0.1-0.1-0.1-0.1-0.1C127.4,5.8,127.5,5.8,127.5,5.8z M127.5,23.1c0,0,0-0.1,0-0.1C127.6,23,127.6,23.1,127.5,23.1z M127.5,6.4
	l0.2-0.1h-0.2V6.4z M127.6,5c-0.1,0-0.1-0.1,0-0.1C127.7,4.9,127.7,5,127.6,5z M127.7,5.3c-0.1,0-0.1-0.2,0-0.2
	C127.7,5.1,127.7,5.3,127.7,5.3z M127.7,6.6c0,0,0-0.1,0-0.1C127.6,6.4,127.6,6.6,127.7,6.6z M127.7,6.4
	C127.7,6.4,127.7,6.4,127.7,6.4C127.7,6.2,127.6,6.4,127.7,6.4z M127.7,5.8C127.7,5.9,127.7,5.9,127.7,5.8
	C127.7,5.8,127.7,5.8,127.7,5.8z M127.7,6.9L127.7,6.9L127.7,6.9L127.7,6.9z M127.8,5.6C127.7,5.6,127.7,5.6,127.8,5.6L127.8,5.6
	C127.8,5.5,127.8,5.5,127.8,5.6L127.8,5.6z M127.9,6.3L127.9,6.3c0-0.2,0-0.2-0.1-0.2c-0.1,0-0.1,0-0.1,0L127.9,6.3z M128.4,8
	L128.4,8c0.1-0.3-0.4-0.7-0.6-0.7h-0.1c0.2,0.2,0.5,0.2,0.5,0.4l-0.1,0.1C128.2,7.8,128.4,7.9,128.4,8z M127.8,6.4
	c0.1,0,0.1-0.1,0-0.1C127.7,6.3,127.7,6.4,127.8,6.4z M127.8,6.6c0.1,0,0.1-0.1,0-0.1C127.7,6.4,127.7,6.6,127.8,6.6z M127.8,7.2
	c0.1,0,0.1-0.1,0-0.1C127.7,7.1,127.7,7.2,127.8,7.2z M127.9,7.1c0,0,0-0.1,0-0.1C127.8,6.9,127.8,7.1,127.9,7.1z M127.9,6.6
	c0.1,0,0.1-0.2,0-0.2C127.9,6.5,127.9,6.6,127.9,6.6z M128,7.6C128.1,7.6,128.1,7.6,128,7.6C127.9,7.6,127.9,7.6,128,7.6z M128,5.7
	C127.9,5.7,128.1,5.5,128,5.7C128.1,5.7,128.1,5.7,128,5.7z M128,24.5C127.9,24.5,128.1,24.4,128,24.5
	C128.1,24.5,128.1,24.5,128,24.5z M128.2,6.6l0.3-0.2c0-0.1-0.3-0.2-0.4-0.2c-0.1,0-0.1,0-0.1,0C128.1,6.5,128.3,6.4,128.2,6.6z
	 M128.1,5.7L128.1,5.7L128.1,5.7L128.1,5.7z M128.1,24.3l0.1-0.2C128.2,24.2,128.2,24.3,128.1,24.3z M128.3,6.7c0.1,0,0.1-0.1,0-0.1
	C128.2,6.6,128.2,6.7,128.3,6.7z M128.3,24C128.3,24,128.3,24,128.3,24l0.1-0.2L128.3,24z M128.7,6.3L128.7,6.3
	c0-0.2-0.1-0.3-0.3-0.3l0,0.1C128.4,6.2,128.6,6.3,128.7,6.3z M128.4,6.7h0.1V6.6L128.4,6.7z M128.4,21.8c0,0,0-0.1,0-0.1
	C128.5,21.7,128.5,21.8,128.4,21.8z M128.4,23.6c0,0,0-0.1,0-0.1C128.5,23.5,128.5,23.6,128.4,23.6z M128.5,7.5c0,0,0-0.1,0-0.1
	C128.4,7.4,128.4,7.5,128.5,7.5z M128.5,23.4C128.4,23.4,128.4,23.4,128.5,23.4C128.6,23.4,128.6,23.4,128.5,23.4z M128.6,8.2V8.1h0
	L128.6,8.2z M128.6,5.4c0,0,0-0.1,0-0.1C128.6,5.3,128.6,5.4,128.6,5.4z M128.6,6.9L128.6,6.9C128.6,6.9,128.6,6.9,128.6,6.9
	L128.6,6.9C128.6,6.9,128.6,6.9,128.6,6.9z M128.9,22L128.9,22c-0.1,0.4-0.3,1.1-0.3,1.1l-0.1,0.1c0,0,0-0.1,0-0.1
	c0-0.3,0.2-0.8,0.3-1.1C128.9,21.9,128.9,22,128.9,22z M128.6,6.6c0.1,0,0.1-0.2,0-0.2C128.6,6.5,128.6,6.6,128.6,6.6z M128.6,6.7
	c0.1,0,0.1-0.1,0-0.1C128.6,6.6,128.6,6.7,128.6,6.7z M128.6,7.6C128.7,7.6,128.7,7.6,128.6,7.6C128.6,7.6,128.6,7.6,128.6,7.6z
	 M128.7,5.8c-0.1,0-0.1-0.2,0-0.2C128.8,5.7,128.8,5.8,128.7,5.8z M128.7,7.1L128.7,7.1V7V7.1z M128.8,7.4c0.1,0,0.1-0.1,0-0.1
	C128.7,7.3,128.7,7.4,128.8,7.4z M128.8,6.7L128.8,6.7L128.8,6.7L128.8,6.7z M128.8,6.4c0.1,0,0.1-0.1,0-0.1
	C128.8,6.3,128.8,6.4,128.8,6.4z M128.9,7.3L128.9,7.3L128.9,7.3L128.9,7.3z M128.9,8.9L128.9,8.9L128.9,8.9L128.9,8.9z M128.9,6.9
	c0.1,0,0.1-0.1,0-0.1C128.9,6.7,128.9,6.9,128.9,6.9z M128.9,11.2c0.1,0,0.1-0.1,0-0.1C128.9,11.1,128.9,11.2,128.9,11.2z
	 M129.1,9.2c0.1,0,0.1-0.1,0.1-0.2V8.9c0,0.1-0.2,0.2-0.3,0.2C129.1,9,129.1,9.1,129.1,9.2z M129,10.5
	C129.1,10.5,129.1,10.4,129,10.5C128.9,10.4,128.9,10.5,129,10.5z M129,11.3c0,0,0-0.1,0-0.1C128.9,11.2,128.9,11.3,129,11.3z
	 M129,10.7C129.1,10.7,129.1,10.7,129,10.7C129.1,10.5,128.9,10.7,129,10.7z M129,10.8L129,10.8L129,10.8L129,10.8z M129.1,6.8
	c0.1,0,0.1-0.2,0-0.2C129,6.7,129,6.8,129.1,6.8z M129.1,11.1c0.1,0,0.1-0.1,0-0.1C129,11,129,11.1,129.1,11.1z M129.1,11.6
	C129.1,11.6,129.1,11.5,129.1,11.6C129,11.5,129,11.6,129.1,11.6z M129.3,8L129.3,8V7.8c-0.1-0.1-0.2-0.3-0.2-0.3h-0.1
	C129.1,7.7,129.3,7.9,129.3,8z M129.1,6.9c0.1,0,0.1-0.1,0-0.1S129.1,6.9,129.1,6.9z M129.1,7.4c0.1,0,0.1-0.1,0-0.1
	S129.1,7.4,129.1,7.4z M129.1,8.4c0.1,0,0.1-0.1,0-0.1S129.1,8.4,129.1,8.4z M129.1,8.7c0.1,0,0.1-0.2,0-0.2S129.1,8.7,129.1,8.7z
	 M129.1,10.5c0.1,0,0.1-0.1,0-0.1S129.1,10.5,129.1,10.5z M129.1,11.7c0.1,0,0.1-0.1,0-0.1S129.1,11.7,129.1,11.7z M129.2,8.9
	c0,0,0-0.2,0-0.2C129.1,8.7,129.1,8.9,129.2,8.9z M129.2,20.7c-0.1,0-0.1-0.2,0-0.2C129.3,20.6,129.3,20.7,129.2,20.7z M130.2,8.7
	l0.1,0c0-0.5-0.7-1.5-1.1-1.7v0.1c0,0.4,0.9,0.9,0.9,1.4L130,8.7c0,0,0,0,0.1,0l0.1-0.1V8.7z M129.4,9.6l0,0.1c0,0,0.1-0.2,0.1-0.2
	l-0.2-0.1c0.1-0.1,0.1-0.1,0.2-0.1c0.1,0,0.1,0,0.2,0.1v0c0-0.2-0.3-0.2-0.2-0.4c0,0-0.2,0.2-0.2,0.2l-0.1,0.1c0,0.1,0,0.1,0,0.1
	L129.4,9.6z M129.2,10.8l0,0.1l0.1-0.2L129.2,10.8L129.2,10.8z M129.3,11.1l0.1,0.1c0.1,0,0.1,0,0.1,0l0,0c0,0,0,0,0-0.1l-0.1-0.1
	L129.3,11.1C129.3,11.1,129.3,11.1,129.3,11.1z M129.3,19.6L129.3,19.6L129.3,19.6L129.3,19.6z M129.4,20.4c0,0-0.1,0-0.2,0v0H129.4
	z M129.3,9c0.1,0,0.1-0.1,0-0.1C129.3,8.9,129.3,9,129.3,9z M129.5,8.9V8.6h-0.1C129.5,8.7,129.4,8.9,129.5,8.9z M129.5,10
	C129.5,10.1,129.5,10.1,129.5,10C129.5,10,129.5,10,129.5,10z M129.5,8.3c0,0,0-0.1,0-0.1C129.5,8.2,129.5,8.3,129.5,8.3z
	 M129.7,19.4c-0.1,0.1-0.2,0.2-0.2,0.3c0,0,0,0,0-0.1C129.5,19.5,129.5,19.4,129.7,19.4L129.7,19.4z M129.6,10.2
	c0.1,0,0.1-0.2,0-0.2C129.5,10,129.5,10.2,129.6,10.2z M129.6,10.7c0.1,0,0.1-0.2,0-0.2C129.5,10.5,129.5,10.7,129.6,10.7z M129.8,9
	c0,0,0.1-0.2,0.1-0.2c0-0.1-0.1-0.4-0.3-0.4h-0.1C129.8,8.4,129.5,8.9,129.8,9z M129.6,9.7C129.6,9.7,129.6,9.7,129.6,9.7L129.6,9.7
	L129.6,9.7z M129.7,10.9c0.1,0,0.1-0.2,0-0.2S129.6,10.9,129.7,10.9z M129.7,19.7c-0.1,0-0.1-0.1,0-0.1S129.7,19.7,129.7,19.7z
	 M129.7,10.1c0,0,0-0.1,0-0.1C129.7,10,129.7,10.1,129.7,10.1z M129.7,12c0,0,0-0.1,0-0.1C129.7,11.9,129.7,12,129.7,12z
	 M129.8,11.7L129.8,11.7L129.8,11.7L129.8,11.7z M129.8,9.5c0.1,0,0.1-0.1,0-0.1C129.7,9.4,129.7,9.5,129.8,9.5z M129.8,9.8
	c0.1,0,0.1-0.1,0-0.1C129.7,9.7,129.7,9.8,129.8,9.8z M129.8,19.1c0,0,0-0.1,0-0.1C129.8,19,129.8,19.1,129.8,19.1z M129.8,9.9
	L129.8,9.9L129.8,9.9L129.8,9.9z M129.8,18.8L129.8,18.8L129.8,18.8L129.8,18.8z M129.8,18.9C129.8,18.8,129.8,18.8,129.8,18.9
	C129.8,19,129.8,19,129.8,18.9z M129.8,9.2c0.1,0,0.1-0.1,0-0.1C129.8,9.1,129.8,9.2,129.8,9.2z M129.8,12.8
	C129.9,12.8,129.9,12.7,129.8,12.8C129.8,12.7,129.8,12.8,129.8,12.8z M129.8,19.2C129.8,19.2,129.9,19.1,129.8,19.2
	C129.9,19.2,129.9,19.2,129.8,19.2z M129.9,10.8C130,10.8,130,10.7,129.9,10.8C129.8,10.7,129.8,10.8,129.9,10.8z M129.9,11
	c0,0,0-0.1,0-0.1C129.8,10.9,129.8,11,129.9,11z M130,9.9C130,9.9,130,9.9,130,9.9c0,0,0.1-0.1,0.1-0.2c0-0.2-0.1-0.5-0.2-0.5
	c0,0.2,0,0.3,0,0.5c0.1,0,0.1,0,0.1,0L130,9.9z M130,9.1c0.1,0,0.1-0.1,0-0.1C129.9,9,129.9,9.1,130,9.1z M130,11.7
	c0.1,0,0.1-0.2,0-0.2C129.9,11.5,129.9,11.7,130,11.7z M130,12c0.1,0,0.1-0.1,0-0.1C129.9,11.9,129.9,12,130,12z M130,12.3
	c0.1,0,0.1-0.1,0-0.1C129.9,12.2,129.9,12.3,130,12.3z M130,13.4c0.1,0,0.1-0.2,0-0.2C129.9,13.3,129.9,13.4,130,13.4z M130,13.5
	c0.1,0,0.1-0.1,0-0.1C129.9,13.4,129.9,13.5,130,13.5z M130,18.4c0,0,0-0.1,0-0.1C130,18.3,130,18.4,130,18.4z M130,18.9
	c0,0,0-0.1,0-0.1C130,18.8,130,18.9,130,18.9z M130.1,10.8C130.2,10.8,130.2,10.8,130.1,10.8l0.2-0.1c-0.1-0.1-0.2-0.4-0.2-0.6h0.1
	c0-0.1,0-0.1-0.1-0.1c0,0-0.1,0-0.1,0L130.1,10.8z M130,11.4C130,11.5,130,11.5,130,11.4C130,11.4,130,11.4,130,11.4z M130.3,18.6
	H130H130.3L130.3,18.6z M130,8.6c0,0,0-0.1,0-0.1C130,8.5,130,8.6,130,8.6z M130,12.4c0,0,0-0.2,0-0.2C130,12.2,130,12.4,130,12.4z
	 M130,16.2c0,0,0-0.1,0-0.1C130,16.1,130,16.2,130,16.2z M130,18.5c-0.1,0-0.1-0.1,0-0.1C130.1,18.4,130.1,18.5,130,18.5z M130.1,11
	c0.1,0,0.1-0.1,0-0.1C130,10.9,130,11,130.1,11z M130.1,16c0.1,0,0.1-0.2,0-0.2C130,15.8,130,16,130.1,16z M130.2,19L130.2,19
	c-0.1-0.1-0.1-0.3,0-0.3V19z M130.2,11.3L130.2,11.3v-0.2V11.3z M130.2,11.9c0-0.1,0-0.3,0-0.4c0,0,0,0,0,0c0-0.1,0-0.1-0.1-0.1
	C130.2,11.5,130.2,11.7,130.2,11.9z M130.3,12.7v-0.5c0,0-0.1,0.2-0.1,0.2C130.2,12.5,130.2,12.7,130.3,12.7z M130.2,9.9
	c0,0,0-0.1,0-0.1C130.2,9.8,130.2,9.9,130.2,9.9z M130.2,12.9c0,0,0-0.2,0-0.2C130.2,12.8,130.2,12.9,130.2,12.9z M130.2,16.3
	C130.3,16.3,130.3,16.2,130.2,16.3C130.2,16.2,130.2,16.3,130.2,16.3z M130.2,16.6c0,0,0-0.1,0-0.1
	C130.2,16.5,130.2,16.6,130.2,16.6z M130.3,12.1V12h0L130.3,12.1z M130.3,13.7c0,0,0-0.1,0-0.2c0-0.1,0-0.2,0-0.4v0.2
	C130.2,13.4,130.2,13.5,130.3,13.7z M130.2,17.2C130.2,17.2,130.2,17.2,130.2,17.2l0.1-0.1L130.2,17.2z M130.3,9.5
	c0.1,0,0.1-0.1,0-0.1C130.2,9.4,130.2,9.5,130.3,9.5z M130.3,14c0.1,0,0.1-0.1,0-0.1C130.2,13.8,130.2,14,130.3,14z M130.4,16.1
	l0.1-0.1v-0.1h-0.2L130.4,16.1z M130.3,16.9L130.3,16.9c0.2,0,0.3-0.1,0.3-0.2c0-0.1,0-0.2-0.1-0.2l0.1,0h0.1v0.2
	c0.1,0,0.1-0.4,0.1-0.4l0-0.1l0-0.1l0-0.1c-0.1,0-0.2,0.1-0.3,0.2h0.1c0,0.1-0.1,0.2-0.2,0.2L130.3,16.9z M130.4,8.9
	c0.1,0,0.1-0.2,0-0.2C130.3,8.7,130.3,8.9,130.4,8.9z M130.4,16.3C130.4,16.3,130.4,16.2,130.4,16.3
	C130.3,16.2,130.3,16.3,130.4,16.3z M130.4,17.6c-0.1,0-0.1-0.1,0-0.1C130.4,17.5,130.4,17.6,130.4,17.6z M130.4,17.7
	c-0.1,0-0.1-0.1,0-0.1C130.4,17.6,130.4,17.7,130.4,17.7z M130.4,18.3c0.1,0,0.1-0.1,0-0.1C130.3,18.2,130.3,18.3,130.4,18.3z
	 M130.4,10c0,0,0.1,0,0.1,0c0-0.4,0-0.2-0.1-0.5V10z M130.4,11l0-0.1c0-0.1,0-0.1,0-0.1c0-0.1,0-0.3,0-0.4c0,0.1-0.1,0.2-0.1,0.3
	C130.4,10.7,130.4,10.9,130.4,11z M130.4,15.7c0,0,0-0.1,0-0.1C130.4,15.6,130.4,15.7,130.4,15.7z M130.4,16.7c-0.1,0-0.1-0.1,0-0.1
	C130.5,16.6,130.5,16.7,130.4,16.7z M130.5,11.7v-0.5c0.1,0,0.1-0.1,0.1-0.2c-0.2,0-0.2,0.1-0.2,0.3
	C130.4,11.4,130.4,11.5,130.5,11.7z M130.4,12.1L130.4,12.1L130.4,12.1L130.4,12.1z M130.4,12.4L130.4,12.4l0-0.2L130.4,12.4z
	 M130.5,15.6c0.1,0,0.1-0.1,0-0.1C130.4,15.4,130.4,15.6,130.5,15.6z M130.5,12.8L130.5,12.8L130.5,12.8L130.5,12.8L130.5,12.8z
	 M130.5,14.4c0.1,0,0.1-0.1,0.1-0.2v0L130.5,14.4z M130.5,14.5c0,0,0-0.1,0-0.1C130.5,14.4,130.5,14.5,130.5,14.5z M130.5,14.7
	c0,0,0-0.2,0-0.2C130.5,14.5,130.5,14.7,130.5,14.7z M130.5,10.4C130.6,10.4,130.6,10.4,130.5,10.4
	C130.6,10.3,130.5,10.4,130.5,10.4z M130.6,10.5c0.1,0,0.1-0.1,0-0.1C130.5,10.4,130.5,10.5,130.6,10.5z M130.6,13.1
	c0.1,0,0.1-0.2,0-0.2C130.5,12.9,130.5,13.1,130.6,13.1z M130.6,15.9C130.7,15.9,130.7,15.8,130.6,15.9
	C130.5,15.8,130.5,15.9,130.6,15.9z M130.6,17c0.1,0,0.1-0.1,0-0.1C130.5,16.9,130.5,17,130.6,17z M130.6,12
	C130.7,12,130.7,12,130.6,12C130.7,11.9,130.5,12,130.6,12z M130.6,14.9c0,0,0.2,0,0.2,0C130.7,14.9,130.6,14.9,130.6,14.9z
	 M130.7,11.8c0.1,0,0.1-0.1,0-0.1S130.6,11.8,130.7,11.8z M130.7,12.2C130.7,12.2,130.7,12.1,130.7,12.2
	C130.6,12.1,130.6,12.2,130.7,12.2z M130.7,11.4L130.7,11.4l0.1-0.2h-0.1V11.4z M130.7,10c0,0,0-0.1,0-0.1
	C130.7,9.9,130.7,10,130.7,10z M130.7,15.4c0,0,0-0.1,0-0.1h0V15.4z M130.8,11.7c0.1,0,0.1-0.1,0-0.1
	C130.7,11.6,130.7,11.7,130.8,11.7z M130.8,11.9c0.1,0,0.1-0.1,0-0.1C130.7,11.8,130.7,11.9,130.8,11.9z M130.8,14.9
	c0.1,0,0.1-0.1,0-0.1C130.7,14.7,130.7,14.9,130.8,14.9z M130.8,15.1c0.1,0,0.1-0.1,0-0.1C130.7,14.9,130.7,15.1,130.8,15.1z
	 M130.8,15.2c0.1,0,0.1-0.1,0-0.1C130.7,15.1,130.7,15.2,130.8,15.2z M130.8,16.6c0.1,0,0.1-0.1,0-0.1
	C130.7,16.5,130.7,16.6,130.8,16.6z M130.8,17.5c0,0,0-0.2,0-0.2C130.9,17.3,130.9,17.5,130.8,17.5z M131,14.9L131,14.9L131,14.9
	l0.1-0.1v-1.2c-0.1,0-0.2,0.8-0.2,1C130.9,14.7,130.9,14.8,131,14.9z M131,15.7c0.1,0,0.1-0.2,0-0.3C130.9,15.3,130.9,15.8,131,15.7
	z M131,17c0,0,0-0.2,0-0.2C131.1,16.8,131.1,17,131,17z M131.1,9.6L131.1,9.6L131.1,9.6L131.1,9.6z M131,15c0,0.1,0,0.2,0,0.3h0.1
	L131,15L131,15z M131.1,10.2c-0.1,0-0.1-0.1,0-0.1C131.1,10.1,131.1,10.2,131.1,10.2z M131.1,13.5c0.1,0,0.1-0.2,0-0.2
	C131.1,13.3,131.1,13.5,131.1,13.5z M131.4,17.7C131.3,17.7,131.3,17.7,131.4,17.7C131.4,17.7,131.4,17.7,131.4,17.7z"/>
<path d="M90.8,47.1l7.5-0.3c0,0-14.2-22.5-46.1-5.2C52.2,41.6,81.7,32.3,90.8,47.1z"/>
<path d="M79.6,35.5c0,0-13.6-2.6-27,5.1c0,0.4-0.1,0.9-0.4,1.3c4.9-2.7,12.4-4.6,23.8-3.6c29.8,2.5,18.8,13,18.8,13L89.1,54
	l11.2-0.6C100.3,53.5,103.3,40.1,79.6,35.5z"/>
<path d="M91.9,57.1L86,56.9c0,0,6.1-7.8,2.5-11.6s-9.4-6.8-17.5-6.6s5.8-2.4,5.8-2.4l12.7,4.2l8.3,6.3l2.2,6.9l-0.3,2.1L98.3,59
	l-5-0.5l-3-0.8"/>
<path d="M92.2,41.4l-3.7,4c0,0-7-5.5-14.4-4.8S71,38.7,71,38.7l6.1-1.6"/>
<g>
	<path d="M48.4,53.4l-0.6,0.8c0.3,0.2,0.3,0.4,0.2,0.6"/>
	<path d="M44.7,51l-0.9,1.3l0.8,0.3L44,52.9c0.1,0.1,0.1,0.1,0,0.3l-0.1-0.1l-0.2-0.6l-0.3,0.5l0.3,0.2l-0.1,0.2
		c-0.2-0.1-0.4,0-0.6,0.3c-0.4-0.3-0.3-0.8,0.1-1.6l-0.1-0.1c0.9-1,1.4-1.6,1.6-1.7"/>
	<path d="M47.4,55.4l0.7-0.7l-2.5-2.9l-0.1,0.4l-0.1-0.1c-0.2,0.4-0.5,1-1,1.7l0.4,0l-0.2,0.3L44.3,54l-1.2,1.7
		c-0.6,0.9-1.3,1.7-1.9,2.5c-0.2,0.4-0.5,0.7-0.8,1c0,0.1,0.1,0.2,0.1,0.2c0.1,0.3,0.2,0.6,0.3,0.8l0.1,0c0.1-0.1,0.1-0.2,0-0.3
		l1.3-1.2l0.1-0.4c0.1,0.1,0.2,0,0.2-0.1l1.9-2.7l0.3,0.2l-0.4,0.2L43,57.8L43,58.2l-0.1-0.1c-0.1,0.1-0.1,0.3-0.2,0.6
		c-0.9,0.9-1.4,1.4-1.5,1.5l-0.2,0.3l0.1,0.1l0.4,0l0.1-0.7l0.3,0.2c0.1,0.1,0.9-0.9,2.4-2.8c0.7-1.2,1.3-2.1,1.7-2.8
		c0.2,0.1,0.4,0,0.6-0.3l0.1,0.1l-1.4,2.3l0.3,0.2l1-1.4l0.1,0.1c-0.4,0.6-0.8,1.2-1.1,1.8c-0.6,0.7-1.1,1.3-1.5,1.8
		c-0.1,0.1-0.1,0.3-0.2,0.6c-0.1-0.1-0.2,0-0.2,0.1l-0.1,0.2l0.3,0.2c0.3-0.5,0.6-0.8,0.8-0.9l0.1-0.4c0.8-1,1.4-1.6,1.6-1.7
		c0-0.2,0.1-0.5,0.3-0.7l0.1-0.2l0.7-0.7C47.3,55.6,47.3,55.6,47.4,55.4z"/>
	<polyline points="44.4,50.6 44,51.2 44.1,51.3 44.6,50.7 	"/>
	<path d="M47.8,53.4c-0.5-0.1-0.8-0.1-0.9,0.1c0.3,0.2,0.3,0.8-0.2,1.7l-0.1,0.2l0.1,0.1l0.6-0.8c0.1-0.5,0.2-0.8,0.4-1.1"/>
	<path d="M46.5,53.7L46.3,54l0.3,0.2C46.7,54,46.7,53.8,46.5,53.7"/>
	<rect x="45.7" y="53.6" transform="matrix(0.5729 -0.8197 0.8197 0.5729 -24.4301 60.58)" width="0.4" height="0.3"/>
	<rect x="45.5" y="54" transform="matrix(0.5729 -0.8197 0.8197 0.5729 -24.8732 60.5223)" width="0.2" height="0.3"/>
	<path d="M44,53.6L43.7,54l-0.3-0.2c0.1-0.1,0.1-0.3,0.2-0.6L44,53.6z"/>
	<path d="M45.1,54.6l-0.3,0.5l0.4,0.3C45.3,55.2,45.3,54.9,45.1,54.6"/>
	<path d="M44.7,54.6l-0.1-0.1L44,55.2l0.1,0.1c0.1-0.2,0.3-0.3,0.4-0.2C44.6,54.8,44.7,54.7,44.7,54.6"/>
	<rect x="43.7" y="55.5" transform="matrix(0.5729 -0.8197 0.8197 0.5729 -26.8346 59.7226)" width="0.4" height="0.2"/>
	<rect x="42.6" y="57.3" transform="matrix(0.5729 -0.8197 0.8197 0.5729 -28.877 59.5339)" width="0.2" height="0.3"/>
	<rect x="40.6" y="58" transform="matrix(0.5729 -0.8197 0.8197 0.5729 -29.7989 59.0264)" width="2.3" height="0.2"/>
	<rect x="42.7" y="61.1" transform="matrix(0.5729 -0.8197 0.8197 0.5729 -31.8944 61.3175)" width="0.4" height="0.3"/>
</g>
<path d="M61.8,37.7L58.9,38c0,0-12.6,3-17.2,13.3l1.9-1.1l-2.5,8l4.4-6.4"/>
</svg>
