<?xml version="1.0" encoding="utf-8"?>
<!-- Generator: Adobe Illustrator 21.1.0, SVG Export Plug-In . SVG Version: 6.00 Build 0)  -->
<!DOCTYPE svg PUBLIC "-//W3C//DTD SVG 1.1//EN" "http://www.w3.org/Graphics/SVG/1.1/DTD/svg11.dtd">
<svg version="1.1" id="Layer_1" xmlns="http://www.w3.org/2000/svg" xmlns:xlink="http://www.w3.org/1999/xlink" x="0px" y="0px"
	 viewBox="0 0 266 208" style="enable-background:new 0 0 266 208;" xml:space="preserve">
<style type="text/css">
	.st0{fill:#1D1D1B;stroke:#1D1D1B;stroke-width:2;stroke-miterlimit:10;}
	.st1{fill:#1D1D1B;}
	.st2{fill-rule:evenodd;clip-rule:evenodd;}
	.st3{fill-rule:evenodd;clip-rule:evenodd;fill:none;stroke:#D9D9D9;stroke-miterlimit:10;}
</style>
<path class="st0" d="M15.9,176.1c-1.1,0-2.1-0.2-2.9-0.5s-1.6-0.9-2.2-1.5c-0.6-0.6-1.1-1.4-1.4-2.3c-0.3-0.9-0.5-1.9-0.5-3v-11.3
	h2.7v10.6c0,1.7,0.4,3,1.3,4c0.9,1,2.1,1.5,3.7,1.5c0.8,0,1.5-0.1,2.2-0.4c0.7-0.3,1.2-0.7,1.7-1.2c0.5-0.5,0.9-1.1,1.1-1.8
	c0.3-0.7,0.4-1.5,0.4-2.3v-10.4h2.7v18.2h-2.7v-3.2c-0.6,1-1.4,1.8-2.4,2.5S17.4,176.1,15.9,176.1z"/>
<path class="st0" d="M30.9,157.4h2.7v3.2c0.6-1,1.4-1.8,2.4-2.5s2.3-1,3.8-1c1.1,0,2.1,0.2,2.9,0.5c0.9,0.4,1.6,0.9,2.2,1.5
	c0.6,0.6,1.1,1.4,1.4,2.3c0.3,0.9,0.5,1.9,0.5,3v11.3h-2.7V165c0-1.7-0.4-3-1.3-4c-0.9-1-2.1-1.5-3.7-1.5c-0.8,0-1.5,0.1-2.2,0.4
	c-0.7,0.3-1.3,0.7-1.7,1.2c-0.5,0.5-0.9,1.1-1.1,1.8s-0.4,1.5-0.4,2.3v10.4h-2.7V157.4z"/>
<path class="st0" d="M60.9,176.1c-1.3,0-2.6-0.3-3.7-0.8c-1.1-0.5-2.1-1.2-3-2c-0.8-0.9-1.5-1.9-2-3c-0.5-1.2-0.7-2.4-0.7-3.6v-0.1
	c0-1.3,0.2-2.5,0.7-3.7c0.5-1.2,1.1-2.2,2-3c0.8-0.9,1.8-1.6,3-2.1c1.1-0.5,2.4-0.8,3.7-0.8c0.9,0,1.7,0.1,2.4,0.2
	c0.7,0.2,1.4,0.4,1.9,0.7c0.6,0.3,1.1,0.6,1.6,1c0.5,0.4,1,0.8,1.4,1.3l-1.8,1.9c-0.7-0.8-1.5-1.4-2.4-1.9c-0.9-0.5-1.9-0.8-3.2-0.8
	c-0.9,0-1.8,0.2-2.6,0.5c-0.8,0.4-1.5,0.9-2.1,1.5c-0.6,0.6-1,1.4-1.4,2.2c-0.3,0.9-0.5,1.8-0.5,2.8v0.1c0,1,0.2,1.9,0.5,2.8
	c0.3,0.9,0.8,1.6,1.4,2.3c0.6,0.6,1.3,1.2,2.1,1.5c0.8,0.4,1.7,0.5,2.7,0.5c1.2,0,2.2-0.3,3.1-0.8c0.9-0.5,1.7-1.2,2.5-1.9l1.7,1.6
	c-0.9,1-2,1.9-3.1,2.5C64,175.8,62.6,176.1,60.9,176.1z"/>
<path class="st0" d="M81.1,176.1c-1.4,0-2.6-0.3-3.8-0.8c-1.2-0.5-2.2-1.2-3-2c-0.8-0.9-1.5-1.9-2-3c-0.5-1.1-0.7-2.4-0.7-3.7v-0.1
	c0-1.3,0.2-2.5,0.7-3.7c0.5-1.2,1.1-2.2,2-3s1.9-1.6,3-2.1c1.2-0.5,2.4-0.8,3.8-0.8c1.4,0,2.6,0.3,3.8,0.8c1.2,0.5,2.2,1.2,3,2
	c0.8,0.9,1.5,1.9,2,3c0.5,1.1,0.7,2.4,0.7,3.7v0.1c0,1.3-0.2,2.5-0.7,3.7c-0.5,1.2-1.1,2.2-2,3c-0.8,0.9-1.9,1.6-3,2.1
	C83.8,175.9,82.5,176.1,81.1,176.1z M81.2,173.7c1,0,1.9-0.2,2.7-0.6c0.8-0.4,1.5-0.9,2.1-1.5c0.6-0.6,1-1.4,1.4-2.2
	c0.3-0.8,0.5-1.8,0.5-2.7v-0.1c0-1-0.2-1.9-0.5-2.8c-0.3-0.9-0.8-1.6-1.4-2.3c-0.6-0.6-1.3-1.2-2.2-1.5c-0.8-0.4-1.7-0.6-2.7-0.6
	c-1,0-1.9,0.2-2.7,0.6c-0.8,0.4-1.5,0.9-2.1,1.5c-0.6,0.6-1,1.4-1.4,2.2c-0.3,0.9-0.5,1.8-0.5,2.7v0.1c0,1,0.2,1.9,0.5,2.8
	c0.3,0.9,0.8,1.6,1.4,2.2s1.3,1.1,2.1,1.5C79.3,173.5,80.2,173.7,81.2,173.7z"/>
<path class="st0" d="M95.6,157.4h2.7v3.2c0.6-1,1.4-1.8,2.4-2.5s2.3-1,3.8-1c1.1,0,2.1,0.2,2.9,0.5c0.9,0.4,1.6,0.9,2.2,1.5
	c0.6,0.6,1.1,1.4,1.4,2.3c0.3,0.9,0.5,1.9,0.5,3v11.3h-2.7V165c0-1.7-0.4-3-1.3-4c-0.9-1-2.1-1.5-3.7-1.5c-0.8,0-1.5,0.1-2.2,0.4
	c-0.7,0.3-1.3,0.7-1.7,1.2c-0.5,0.5-0.9,1.1-1.1,1.8s-0.4,1.5-0.4,2.3v10.4h-2.7V157.4z"/>
<path class="st0" d="M125,176.1c-1.1,0-2.2-0.2-3.2-0.6c-1-0.4-2-1-2.8-1.9c-0.8-0.8-1.5-1.8-2-3s-0.7-2.5-0.7-4v-0.1
	c0-1.5,0.2-2.8,0.7-4c0.5-1.2,1.2-2.2,2-3c0.8-0.8,1.8-1.4,2.8-1.9c1-0.4,2.1-0.7,3.2-0.7c0.8,0,1.6,0.1,2.3,0.3
	c0.7,0.2,1.3,0.5,1.9,0.8c0.6,0.4,1.1,0.8,1.5,1.2c0.5,0.5,0.9,1,1.2,1.5v-11h2.7v25.8H132V172c-0.4,0.5-0.8,1.1-1.3,1.6
	c-0.5,0.5-1,0.9-1.5,1.3c-0.6,0.4-1.2,0.7-1.9,0.9C126.6,176,125.8,176.1,125,176.1z M125.5,173.6c0.8,0,1.7-0.2,2.5-0.5
	c0.8-0.3,1.5-0.8,2.1-1.4c0.6-0.6,1.1-1.4,1.5-2.2c0.4-0.9,0.5-1.8,0.5-2.9v-0.1c0-1.1-0.2-2-0.5-2.9c-0.4-0.9-0.9-1.6-1.5-2.2
	c-0.6-0.6-1.3-1.1-2.1-1.4c-0.8-0.3-1.6-0.5-2.5-0.5c-0.9,0-1.7,0.2-2.5,0.5c-0.8,0.3-1.5,0.8-2,1.4s-1,1.3-1.4,2.2
	c-0.3,0.9-0.5,1.9-0.5,3v0.1c0,1.1,0.2,2.1,0.5,2.9c0.3,0.9,0.8,1.6,1.4,2.2c0.6,0.6,1.3,1.1,2,1.4
	C123.8,173.5,124.6,173.6,125.5,173.6z"/>
<path class="st0" d="M140.8,150.4h3.1v3h-3.1V150.4z M141,157.4h2.7v18.2H141V157.4z"/>
<path class="st0" d="M156.2,176c-0.7,0-1.4-0.1-2-0.3s-1.2-0.5-1.6-0.9c-0.5-0.4-0.8-0.9-1.1-1.6s-0.4-1.4-0.4-2.4v-11h-2.5v-2.4
	h2.5v-5.5h2.7v5.5h5.8v2.4h-5.8v10.6c0,1.1,0.3,1.9,0.8,2.4c0.6,0.4,1.3,0.7,2.2,0.7c0.5,0,0.9,0,1.3-0.1c0.4-0.1,0.9-0.2,1.3-0.5
	v2.3c-0.5,0.3-1,0.5-1.5,0.6S156.8,176,156.2,176z"/>
<path class="st0" d="M164.4,150.4h3.1v3h-3.1V150.4z M164.6,157.4h2.7v18.2h-2.7V157.4z"/>
<path class="st0" d="M181.9,176.1c-1.4,0-2.6-0.3-3.8-0.8c-1.2-0.5-2.2-1.2-3-2c-0.8-0.9-1.5-1.9-2-3c-0.5-1.1-0.7-2.4-0.7-3.7v-0.1
	c0-1.3,0.2-2.5,0.7-3.7c0.5-1.2,1.1-2.2,2-3s1.9-1.6,3-2.1c1.2-0.5,2.4-0.8,3.8-0.8c1.4,0,2.6,0.3,3.8,0.8c1.2,0.5,2.2,1.2,3,2
	c0.8,0.9,1.5,1.9,2,3c0.5,1.1,0.7,2.4,0.7,3.7v0.1c0,1.3-0.2,2.5-0.7,3.7c-0.5,1.2-1.1,2.2-2,3c-0.8,0.9-1.9,1.6-3,2.1
	C184.6,175.9,183.3,176.1,181.9,176.1z M182,173.7c1,0,1.9-0.2,2.7-0.6c0.8-0.4,1.5-0.9,2.1-1.5c0.6-0.6,1-1.4,1.4-2.2
	c0.3-0.8,0.5-1.8,0.5-2.7v-0.1c0-1-0.2-1.9-0.5-2.8c-0.3-0.9-0.8-1.6-1.4-2.3c-0.6-0.6-1.3-1.2-2.2-1.5c-0.8-0.4-1.7-0.6-2.7-0.6
	c-1,0-1.9,0.2-2.7,0.6c-0.8,0.4-1.5,0.9-2.1,1.5c-0.6,0.6-1,1.4-1.4,2.2c-0.3,0.9-0.5,1.8-0.5,2.7v0.1c0,1,0.2,1.9,0.5,2.8
	c0.3,0.9,0.8,1.6,1.4,2.2s1.3,1.1,2.1,1.5C180.1,173.5,181,173.7,182,173.7z"/>
<path class="st0" d="M196.4,157.4h2.7v3.2c0.6-1,1.4-1.8,2.4-2.5s2.3-1,3.8-1c1.1,0,2.1,0.2,2.9,0.5c0.9,0.4,1.6,0.9,2.2,1.5
	c0.6,0.6,1.1,1.4,1.4,2.3c0.3,0.9,0.5,1.9,0.5,3v11.3h-2.7V165c0-1.7-0.4-3-1.3-4c-0.9-1-2.1-1.5-3.7-1.5c-0.8,0-1.5,0.1-2.2,0.4
	c-0.7,0.3-1.3,0.7-1.7,1.2c-0.5,0.5-0.9,1.1-1.1,1.8s-0.4,1.5-0.4,2.3v10.4h-2.7V157.4z"/>
<path class="st0" d="M219.8,167.7c0.1,1,0.3,1.8,0.7,2.6c0.4,0.8,0.9,1.4,1.4,1.9c0.6,0.5,1.2,0.9,2,1.2c0.7,0.3,1.5,0.4,2.3,0.4
	c1.3,0,2.4-0.2,3.3-0.7c0.9-0.5,1.7-1.1,2.5-1.9l1.7,1.5c-0.9,1-2,1.9-3.1,2.5c-1.2,0.6-2.6,0.9-4.4,0.9c-1.2,0-2.4-0.2-3.5-0.7
	c-1.1-0.5-2.1-1.1-2.9-1.9c-0.8-0.8-1.5-1.8-2-3c-0.5-1.2-0.7-2.5-0.7-3.9c0-1.3,0.2-2.6,0.7-3.7c0.4-1.2,1-2.2,1.8-3
	c0.8-0.9,1.7-1.5,2.8-2c1.1-0.5,2.2-0.7,3.5-0.7c1.3,0,2.5,0.3,3.6,0.8c1.1,0.5,2,1.2,2.7,2.1c0.7,0.9,1.3,1.9,1.7,3.1
	c0.4,1.2,0.6,2.4,0.6,3.8c0,0.1,0,0.3,0,0.4c0,0.2,0,0.3,0,0.5H219.8z M231.5,165.4c-0.1-0.8-0.2-1.6-0.5-2.3s-0.7-1.4-1.1-1.9
	c-0.5-0.6-1.1-1-1.8-1.3c-0.7-0.3-1.5-0.5-2.4-0.5c-0.8,0-1.5,0.2-2.2,0.5c-0.7,0.3-1.3,0.7-1.8,1.3c-0.5,0.5-0.9,1.2-1.3,1.9
	c-0.3,0.7-0.6,1.6-0.7,2.4H231.5z"/>
<path class="st0" d="M246.7,176.1c-1.1,0-2.2-0.2-3.2-0.6c-1-0.4-2-1-2.8-1.9c-0.8-0.8-1.5-1.8-2-3s-0.7-2.5-0.7-4v-0.1
	c0-1.5,0.2-2.8,0.7-4c0.5-1.2,1.2-2.2,2-3c0.8-0.8,1.8-1.4,2.8-1.9c1-0.4,2.1-0.7,3.2-0.7c0.8,0,1.6,0.1,2.3,0.3
	c0.7,0.2,1.3,0.5,1.9,0.8c0.6,0.4,1.1,0.8,1.5,1.2c0.5,0.5,0.9,1,1.2,1.5v-11h2.7v25.8h-2.7V172c-0.4,0.5-0.8,1.1-1.3,1.6
	c-0.5,0.5-1,0.9-1.5,1.3c-0.6,0.4-1.2,0.7-1.9,0.9C248.3,176,247.5,176.1,246.7,176.1z M247.2,173.6c0.8,0,1.7-0.2,2.5-0.5
	c0.8-0.3,1.5-0.8,2.1-1.4c0.6-0.6,1.1-1.4,1.5-2.2c0.4-0.9,0.5-1.8,0.5-2.9v-0.1c0-1.1-0.2-2-0.5-2.9c-0.4-0.9-0.9-1.6-1.5-2.2
	c-0.6-0.6-1.3-1.1-2.1-1.4c-0.8-0.3-1.6-0.5-2.5-0.5c-0.9,0-1.7,0.2-2.5,0.5c-0.8,0.3-1.5,0.8-2,1.4s-1,1.3-1.4,2.2
	c-0.3,0.9-0.5,1.9-0.5,3v0.1c0,1.1,0.2,2.1,0.5,2.9c0.3,0.9,0.8,1.6,1.4,2.2c0.6,0.6,1.3,1.1,2,1.4
	C245.5,173.5,246.3,173.6,247.2,173.6z"/>
<path class="st1" d="M96.3,186.6h1.6v2.9c0.2-0.5,0.4-0.9,0.7-1.2c0.3-0.4,0.6-0.7,1-1c0.4-0.3,0.8-0.5,1.2-0.6
	c0.5-0.1,0.9-0.2,1.5-0.2v1.8h-0.1c-0.6,0-1.2,0.1-1.7,0.3s-1,0.5-1.4,1c-0.4,0.4-0.7,0.9-0.9,1.6c-0.2,0.6-0.3,1.4-0.3,2.2v4.4
	h-1.6V186.6z"/>
<path class="st1" d="M117.9,197.8c-0.8,0-1.6-0.2-2.3-0.5c-0.7-0.3-1.3-0.7-1.8-1.2c-0.5-0.5-0.9-1.1-1.2-1.8
	c-0.3-0.7-0.4-1.4-0.4-2.2v0c0-0.8,0.1-1.5,0.4-2.2c0.3-0.7,0.7-1.3,1.2-1.8c0.5-0.5,1.1-0.9,1.8-1.2c0.7-0.3,1.5-0.5,2.3-0.5
	c0.8,0,1.6,0.2,2.3,0.5s1.3,0.7,1.8,1.2c0.5,0.5,0.9,1.1,1.2,1.8c0.3,0.7,0.4,1.4,0.4,2.2v0c0,0.8-0.1,1.5-0.4,2.2
	c-0.3,0.7-0.7,1.3-1.2,1.8c-0.5,0.5-1.1,0.9-1.8,1.2C119.5,197.7,118.7,197.8,117.9,197.8z M117.9,196.4c0.6,0,1.1-0.1,1.6-0.3
	c0.5-0.2,0.9-0.5,1.3-0.9c0.4-0.4,0.6-0.8,0.8-1.3c0.2-0.5,0.3-1.1,0.3-1.6v0c0-0.6-0.1-1.1-0.3-1.7c-0.2-0.5-0.5-1-0.9-1.4
	s-0.8-0.7-1.3-0.9c-0.5-0.2-1-0.3-1.6-0.3c-0.6,0-1.1,0.1-1.6,0.3c-0.5,0.2-0.9,0.5-1.3,0.9c-0.3,0.4-0.6,0.8-0.8,1.3
	c-0.2,0.5-0.3,1.1-0.3,1.6v0c0,0.6,0.1,1.1,0.3,1.7c0.2,0.5,0.5,1,0.8,1.3c0.4,0.4,0.8,0.7,1.3,0.9
	C116.8,196.2,117.4,196.4,117.9,196.4z"/>
<path class="st1" d="M139.6,197.8c-0.8,0-1.6-0.2-2.3-0.5c-0.7-0.3-1.3-0.7-1.8-1.2c-0.5-0.5-0.9-1.1-1.2-1.8
	c-0.3-0.7-0.4-1.4-0.4-2.2v0c0-0.8,0.1-1.5,0.4-2.2c0.3-0.7,0.7-1.3,1.2-1.8c0.5-0.5,1.1-0.9,1.8-1.2c0.7-0.3,1.5-0.5,2.3-0.5
	c0.8,0,1.6,0.2,2.3,0.5s1.3,0.7,1.8,1.2c0.5,0.5,0.9,1.1,1.2,1.8c0.3,0.7,0.4,1.4,0.4,2.2v0c0,0.8-0.1,1.5-0.4,2.2
	c-0.3,0.7-0.7,1.3-1.2,1.8c-0.5,0.5-1.1,0.9-1.8,1.2C141.2,197.7,140.4,197.8,139.6,197.8z M139.7,196.4c0.6,0,1.1-0.1,1.6-0.3
	c0.5-0.2,0.9-0.5,1.3-0.9c0.4-0.4,0.6-0.8,0.8-1.3c0.2-0.5,0.3-1.1,0.3-1.6v0c0-0.6-0.1-1.1-0.3-1.7c-0.2-0.5-0.5-1-0.9-1.4
	s-0.8-0.7-1.3-0.9c-0.5-0.2-1-0.3-1.6-0.3c-0.6,0-1.1,0.1-1.6,0.3c-0.5,0.2-0.9,0.5-1.3,0.9c-0.3,0.4-0.6,0.8-0.8,1.3
	c-0.2,0.5-0.3,1.1-0.3,1.6v0c0,0.6,0.1,1.1,0.3,1.7c0.2,0.5,0.5,1,0.8,1.3c0.4,0.4,0.8,0.7,1.3,0.9
	C138.6,196.2,139.1,196.4,139.7,196.4z"/>
<path class="st1" d="M160,197.8c-0.4,0-0.8-0.1-1.2-0.2c-0.4-0.1-0.7-0.3-1-0.5s-0.5-0.6-0.6-1c-0.2-0.4-0.2-0.9-0.2-1.4v-6.6h-1.5
	v-1.4h1.5v-3.3h1.6v3.3h3.5v1.4h-3.5v6.4c0,0.7,0.2,1.1,0.5,1.4c0.3,0.3,0.8,0.4,1.3,0.4c0.3,0,0.5,0,0.8-0.1
	c0.2-0.1,0.5-0.1,0.8-0.3v1.4c-0.3,0.2-0.6,0.3-0.9,0.3C160.8,197.7,160.4,197.8,160,197.8z"/>
<path class="st1" d="M176.6,197.8c-0.8,0-1.6-0.1-2.4-0.4c-0.8-0.3-1.5-0.7-2.1-1.2l0.8-1.2c0.6,0.5,1.2,0.8,1.9,1
	c0.6,0.2,1.3,0.4,1.9,0.4c0.7,0,1.2-0.2,1.6-0.5s0.6-0.7,0.6-1.3v0c0-0.3-0.1-0.5-0.2-0.7c-0.1-0.2-0.3-0.4-0.6-0.5
	c-0.3-0.1-0.5-0.3-0.9-0.4c-0.3-0.1-0.7-0.2-1-0.3c-0.4-0.1-0.9-0.3-1.3-0.4s-0.8-0.3-1.2-0.6c-0.3-0.2-0.6-0.5-0.8-0.8
	s-0.3-0.8-0.3-1.3v0c0-0.5,0.1-0.9,0.3-1.3c0.2-0.4,0.4-0.7,0.8-1c0.3-0.3,0.7-0.5,1.2-0.6c0.5-0.1,1-0.2,1.5-0.2
	c0.7,0,1.4,0.1,2.1,0.3c0.7,0.2,1.3,0.5,1.9,0.9l-0.7,1.2c-0.5-0.3-1-0.6-1.6-0.8c-0.6-0.2-1.1-0.3-1.6-0.3c-0.6,0-1.2,0.2-1.5,0.5
	c-0.4,0.3-0.6,0.7-0.6,1.1v0c0,0.3,0.1,0.5,0.2,0.7c0.2,0.2,0.4,0.4,0.6,0.5c0.3,0.1,0.6,0.3,0.9,0.4c0.3,0.1,0.7,0.2,1.1,0.3
	c0.4,0.1,0.8,0.3,1.3,0.4c0.4,0.2,0.8,0.4,1.1,0.6c0.3,0.2,0.6,0.5,0.8,0.9c0.2,0.3,0.3,0.8,0.3,1.2v0c0,0.5-0.1,1-0.3,1.4
	c-0.2,0.4-0.5,0.7-0.8,1c-0.3,0.3-0.8,0.5-1.2,0.6C177.6,197.7,177.1,197.8,176.6,197.8z"/>
<path class="st2" d="M76.8,78.2c-0.8-0.7-1.6-1.3-2.3-1.9c0.6-0.7,1.4-1.3,1.9-2.1c0.4-0.6,0.6-1.3,0.8-2c0.2-0.9,0.4-1.7,0.6-2.9
	c-1.3-1.7-0.4-5.1,2.3-6.7c-0.4-1.1-2.8-1.3-1.3-3.4c0.6-0.9-0.5-2.7,1.5-3.2c0.3-0.1,0.4-2.1,0.1-3.1c-0.8-2.7,0.5-4.7,3.5-5.1
	c-1-1.9-1.3-3.6,1.3-4.5c0.5-0.2,0.7-1.4,1.1-2.1c0.3-0.6,0.6-1.2,1-1.8c0.2-0.2,0.7-0.4,0.7-0.6c-0.9-3.3,1.7-2.8,3.5-3.5
	c0.8-0.3,1.8-1.9,1.7-2.8c-0.4-2.7,0.7-3.4,3.2-3.2c0.5,0.1,1.1-0.2,1.2-0.8c0.7-0.8,1.7-1.4,2-2.3c0.9-2.2,2.9-1.6,4.4-2
	c1.1-0.2,2.1-0.2,2.2-1.7c0-0.3,0.7-0.8,1.1-0.9c3.5-0.1,6-2.3,9-3.6c2.5-1.1,5.1-2.9,8.3-2c0.8,0.2,1.9-0.4,3-0.6
	c2.1-3.3,2.2-3.3,5.1-0.2c0.9-1.8,2.2-2.5,4-1.1c0.2,0.2,0.7,0,1.1,0c1-0.1,2-0.2,3.6-0.4c1.5-1.8,1.8-1.8,4.2,0.5
	c1.6-1.4,2.6-1.8,4.4,0.4c1.9,2.4,5.1,3.1,8.2,2c0.2-0.1,0.6-0.2,0.7-0.1c3,1.9,6.9,0.1,9.8,1.9c1.1,0.7,1.6,2.4,2.4,3.8
	c4.5,0,7.4,2.9,10,6.4c0.3,0.4,0.5,1,0.8,1c2.4,0.3,2.5,1.9,2,3.8c1.5,0.9,3,1.8,4.5,2.8c0.2,0.1,0.4,0.4,0.4,0.6
	c-0.9,3.6,2.1,5.1,3.8,7.5c1.1,1.5,1.3,3.6,2,5.5c3.5,0.2,5,7.4,3.6,11.8c1.7,1.3,2.4,2.7,1.3,4.9c-0.5,1.1-0.3,3.4,0.5,4.1
	c2.4,2.2,1,3.9-0.2,6c1.5,1.4,1,2.9,0.9,4.8c-0.2,3.4-2.5,5.6-3.3,8.5c-1,3.7-2.4,7.4-2.8,11.2c-0.2,2.6-0.8,4.7-2.3,6.8
	c-0.6,0.8,0,2.4,0,3.6c0.2,3.4,0.1,3.4-3.3,3.8c-0.9,4-1.1,4.2-5,4.3c-0.2,2-1,3-3.4,2.7c-1-0.2-2.2,1-3.5,1.6
	c0.6,1.9,0.3,3.4-2.3,3.3c-0.3,0-0.9,0.3-1,0.6c-0.8,2.5-2.6,2.3-4.5,1.7c0.1,0.3,0.2,0.5,0.2,0.8c-1.1,0.5-2.3,0.9-3.4,1.4
	c-0.3,0.1-0.7,0.1-0.8,0.3c-1.6,2.1-4.2,2.6-6.5,3.5c-0.5,0.2-1.5,0.1-1.7-0.3c-1.2-1.8-2.5-3.6-3.3-5.5c-0.6-1.4-0.4-3-0.6-4.5
	c-0.2-2.3,0.4-4.1,2.2-5.9c4.2-4.1,6.4-9.3,7.5-15.1c4.6,0.3,5.5-3.4,6.8-6.5c0.7-1.9,1-3.9,1.7-5.8c1-2.8,0.3-5.2-1.3-7.7
	c-0.6-1-0.5-2.5-0.8-4.4c-0.6-0.3-1.9-0.8-3.1-1.6c-0.7-0.5-1.6-1.2-1.7-2c-0.8-3.5-3.4-4.4-6.3-4.7c-1.9-0.2-3.5-0.5-4.5-2.3
	c-0.1-0.3-0.4-0.6-0.7-0.6c-2.3-0.2-4.7-0.1-7-0.4c-1.9-0.2-3.8-0.9-5.7-1c-1.3-0.1-2.8,0.2-3.8,0.9c-1.9,1.2-3.7,1.4-5.8,0.7
	c-0.9-0.3-2.6-0.3-3.1,0.2c-1.6,2-3.7,2.2-5.8,2c-1.7,2.3-3.8,3.5-6.5,4.5c-2,0.7-3.9,1.3-5.9,1.9c-1.1,0.3-2,2.8-2.2,4.4
	c-0.3,2.2,0.6,4.7-1.7,6.5c-0.3,0.3-0.2,1.3-0.1,1.9c0.7,2.8,1.4,5.5,2.2,8.3c0.9,3.2,2,6.3,6.1,5.6c1.7,4.1,3.1,8,4.8,11.8
	c0.8,1.8,2.1,3.5,3.4,5c2.9,3.5,2.7,7.1-0.7,10.1c-1.9,1.6-4.1,3-5.8,4.3c-1-0.4-1.8-0.6-2.3-1c-1-0.9-1.8-2.1-2.9-3
	c-0.7-0.6-1.5-0.9-2.4-1.3c-1.1-0.5-2.2-0.8-3.5-1.3c-1-0.5-2.1-1.1-3.1-1.6c-2-1-3.5-3-6.1-2.7c-0.6,0.1-1.3-1.2-1.7-2.1
	c-3.2-0.7-6.2-6.3-4.9-8.2c-0.2-1.6-0.2-2.6-0.4-3.6c-0.2-0.7-0.6-1.5-1.1-2.1c-1.6-1.8-3.4-3.4-5-5.1c-1-1.2-2.2-2.4-2.7-3.8
	c-0.3-0.9,0.6-2.2,1.1-3.5c-0.8-0.4-2-1-3.4-1.7c0.7-1.4,1.3-2.6,2-4.1c-1.8-0.6-2.7-1.3-1.7-3.8c0.6-1.4,1.5-4.2-1.1-5.8
	C76.5,80.4,76.8,79.1,76.8,78.2z"/>
<path class="st2" d="M193.9,35.9c0,0-0.1,0.1-0.2,0.2c-5.4,4.6-10.8,9.2-16.2,13.8c-0.1,0.1-0.3,0.2-0.4,0.3c-0.2,0.1-0.3,0.1-0.5,0
	c-0.1-0.1-0.1-0.3,0-0.5c0.1-0.2,0.3-0.3,0.5-0.5c1.8-1.6,3.6-3.2,5.3-4.7c3.5-3.1,7-6.3,10.5-9.4c0.1-0.1,0.2-0.1,0.2-0.2
	c0-0.1,0-0.1-0.1-0.1c-0.3-0.4-0.3-0.4-0.7-0.1c-3.8,3.1-7.5,6.2-11.3,9.4c-1.8,1.5-3.5,3-5.3,4.5c-0.1,0.1-0.2,0.2-0.4,0.2
	c-0.1,0-0.3,0-0.4-0.1c-0.1-0.1,0-0.3,0-0.4c0-0.1,0.2-0.2,0.3-0.3c3.4-3,6.8-6,10.2-9c2.1-1.8,4.1-3.7,6.2-5.6
	c0.1-0.1,0.2-0.2,0.1-0.4c-0.1-0.1-0.1-0.2-0.2-0.3c-0.1,0.1-0.2,0.1-0.3,0.2c-5.7,4.7-11.3,9.5-17,14.2c-0.2,0.1-0.3,0.2-0.5,0.1
	c-0.2-0.1-0.3-0.3-0.1-0.5c0.1-0.1,0.2-0.3,0.4-0.4c3.3-2.8,6.5-5.7,9.8-8.5c2.2-2,4.4-4,6.6-5.9c0.2-0.2,0.2-0.4-0.1-0.6
	c-0.1,0-0.2,0-0.2,0.1c-1.1,0.9-2.3,1.9-3.4,2.8c-4.3,3.6-8.6,7.2-12.9,10.8c-0.3,0.2-0.6,0.5-0.9,0.7c-0.2,0.1-0.4,0.2-0.6,0
	c-0.2-0.2-0.1-0.4,0.1-0.5c0.1-0.2,0.3-0.3,0.4-0.4c3.4-3,6.8-6,10.3-9c2-1.8,4.1-3.6,6.1-5.4c0.2-0.1,0.2-0.2,0-0.4
	c-0.1-0.2-0.2-0.2-0.4,0c-2.2,1.8-4.4,3.6-6.6,5.5c-3.5,2.9-7,5.8-10.4,8.7c-0.1,0.1-0.2,0.2-0.4,0.2c-0.1,0-0.4,0-0.4-0.1
	c-0.1-0.1,0-0.3,0-0.4c0.1-0.2,0.2-0.3,0.4-0.4c4-3.5,8-7,11.9-10.5c1.5-1.3,3-2.7,4.5-4c0,0,0.1-0.1,0.1-0.1
	c-0.2-0.4-0.3-0.4-0.6-0.1c-2.6,2.2-5.3,4.3-7.9,6.5c-3,2.5-6,5-9,7.5c-0.1,0.1-0.2,0.2-0.3,0.2c-0.2,0.1-0.4,0-0.5-0.1
	c-0.1-0.2-0.1-0.3,0.1-0.5c0.8-0.7,1.6-1.4,2.4-2.2c4.8-4.2,9.5-8.4,14.3-12.6c0.1-0.1,0.3-0.2,0.1-0.4c-0.2-0.1-0.3-0.3-0.6-0.1
	c-2.4,2.1-4.9,4.1-7.3,6.1c-3.2,2.7-6.5,5.4-9.7,8.1c0,0-0.1,0.1-0.1,0.1c-0.2,0.1-0.4,0.2-0.6,0c-0.2-0.2-0.1-0.4,0-0.6
	c0.1-0.1,0.1-0.2,0.2-0.2c3.5-3.1,7-6.2,10.5-9.3c2-1.7,4-3.5,5.9-5.2c0.1-0.1,0.2-0.1,0.3-0.2c-0.1-0.1-0.2-0.3-0.4-0.3
	c-0.1,0-0.2,0-0.3,0.1c-1.1,0.9-2.2,1.8-3.2,2.7c-3.5,2.9-7,5.8-10.5,8.6c-1.1,0.9-2.3,1.9-3.4,2.9c-0.2,0.1-0.3,0.2-0.5,0
	c-0.2-0.2-0.2-0.4,0-0.6c0.3-0.3,0.7-0.6,1.1-0.9c3.3-2.8,6.5-5.7,9.8-8.5c1.9-1.7,3.8-3.4,5.7-5.1c0.1-0.1,0.2-0.2,0.3-0.2
	c-0.3-0.4-0.3-0.4-0.7-0.1c-2.2,1.8-4.4,3.7-6.6,5.5c-2,1.6-4,3.2-6,4.8c-1.4,1.1-2.8,2.3-4.2,3.5c-0.2,0.1-0.4,0.2-0.5,0.3
	c-0.1,0-0.3-0.1-0.4-0.2c-0.1-0.1,0-0.3,0.1-0.4c0.6-0.6,1.3-1.2,2-1.8c3.2-2.8,6.5-5.6,9.7-8.4c1.6-1.4,3.3-2.9,4.9-4.3
	c0.1-0.1,0.1-0.1,0.2-0.2c-0.2-0.4-0.3-0.4-0.6-0.1c-4.2,3.4-8.4,6.7-12.5,10.1c-1.5,1.2-2.9,2.4-4.4,3.6c-0.1,0.1-0.1,0.1-0.2,0.1
	c-0.2,0-0.4,0.1-0.5,0c-0.1-0.1-0.2-0.3-0.1-0.4c0.1-0.2,0.2-0.3,0.3-0.4c5.9-5.1,11.9-10.2,17.8-15.4c1.1-0.9,2.1-1.9,3.2-2.9
	c1.1-1,2.3-1.4,3.8-0.9c0.5,0.2,0.9,0.4,1.4,0.6c1,0.5,2.1,0.9,3.2,1c2.1,0.1,4-0.4,5.7-1.5c1.8-1.2,3.3-2.8,4.2-4.7
	c0.4-0.8,0.6-1.7,0.8-2.6c0.2-1,0.8-1.7,1.6-2.1c0.8-0.4,1.6-0.9,2.4-1.2c0.8-0.4,1.6-0.4,2.3,0.2c1.1,0.8,2.2,1.6,3.1,2.7
	c0.6,0.8,1,1.8,1.4,2.7c0.1,0.3,0.2,0.5,0.3,0.8c0.2,0.7,0.1,1.4-0.3,2c-0.6,0.9-1.2,1.9-2,2.7c-0.6,0.6-1.2,1-2.1,0.9
	c-2.6-0.1-4.7,1-6.5,2.6c-1.4,1.2-2.4,2.6-3.1,4.4c-0.6,1.7-0.8,3.4-0.3,5.2c0.1,0.6,0.2,1.1,0.4,1.7c0.3,1.1,0,2.1-0.8,2.9
	c-0.6,0.7-1.3,1.3-2,1.9c-1.5,1.3-2.9,2.6-4.4,3.8c-2.3,2-4.6,4-6.9,6c-2.5,2.2-5,4.5-7.5,6.7c-0.1,0.1-0.2,0.2-0.3,0.2
	c-0.1,0-0.3,0-0.4-0.1c-0.1-0.1-0.1-0.3-0.1-0.4c0-0.1,0.2-0.3,0.3-0.4c1.8-1.7,3.6-3.3,5.4-4.9c3.1-2.9,6.2-5.8,9.3-8.6
	c0.3-0.2,0.5-0.5,0.8-0.7c0.2-0.2,0.1-0.3,0-0.4c-0.1-0.2-0.2,0-0.3,0.1c-1.6,1.4-3.3,2.8-4.9,4.2c-3.7,3.2-7.4,6.4-11.1,9.6
	c-0.1,0.1-0.3,0.2-0.4,0.3c-0.3,0.1-0.5-0.2-0.4-0.4c0-0.1,0.1-0.2,0.2-0.3c2.1-1.9,4.1-3.7,6.2-5.6c2-1.8,3.9-3.6,5.9-5.4
	c1.2-1.1,2.4-2.2,3.7-3.3c0.4-0.3,0.4-0.3,0.1-0.7C194,36,194,36,193.9,35.9C193.9,35.9,193.9,35.9,193.9,35.9z M208.4,11.8
	c-0.5,0.5-0.6,1.2-0.1,1.8c0.4,0.4,1.1,0.5,1.6,0.1c0.5-0.5,0.6-1.2,0.1-1.7C209.6,11.4,208.8,11.4,208.4,11.8z M182.3,22.3
	c-0.1,0.2,0,0.3,0.1,0.4c0,0,0.2,0,0.2,0C182.5,22.6,182.4,22.5,182.3,22.3z"/>
<g>
	<path class="st3" d="M172.9,44.6c-0.2,0.1-0.3,0.3-0.4,0.4c-0.1,0.2-0.2,0.3-0.1,0.5c0.2,0.2,0.4,0.1,0.6,0
		c0.3-0.2,0.6-0.5,0.9-0.7c4.3-3.6,8.6-7.2,12.9-10.8c0.7-0.6,1.4-1.1,2-1.7c-0.1-0.5-0.3-0.9-0.7-1.2c-1.7,1.5-3.3,3-5,4.4
		C179.8,38.7,176.3,41.6,172.9,44.6z"/>
	<path class="st3" d="M168.7,40.4c-0.1,0.1-0.2,0.1-0.2,0.2c-0.1,0.2-0.2,0.4,0,0.6c0.2,0.2,0.4,0.1,0.6,0c0,0,0.1-0.1,0.1-0.1
		c3.2-2.7,6.5-5.4,9.7-8.1c2.1-1.8,4.2-3.5,6.3-5.3c-0.2-0.4-0.5-0.7-0.7-1.1c-1.7,1.5-3.5,3-5.2,4.6
		C175.7,34.2,172.2,37.3,168.7,40.4z"/>
	<path class="st3" d="M188.4,34.7c0.2-0.5,0.3-0.9,0.4-1.4c-1.6,1.5-3.3,3-4.9,4.4c-3.2,2.9-6.5,5.7-9.8,8.5
		c-0.1,0.1-0.3,0.3-0.4,0.4c-0.1,0.2-0.1,0.4,0.1,0.5c0.2,0.1,0.3,0,0.5-0.1c4.8-4,9.6-8,14.4-12.1
		C188.7,34.9,188.5,34.8,188.4,34.7z"/>
	<path class="st3" d="M164,36.5c0.1,0.1,0.3,0,0.5,0c0.1,0,0.1-0.1,0.2-0.1c1.5-1.2,2.9-2.4,4.4-3.6c4-3.2,7.9-6.4,11.9-9.6
		c-0.4-0.3-0.9-0.5-1.4-0.7c-5.1,4.4-10.2,8.8-15.3,13.2c-0.1,0.1-0.3,0.3-0.3,0.4C163.9,36.2,163.9,36.4,164,36.5z"/>
	<path class="st3" d="M186.5,30.1c-1,0.9-2,1.8-3,2.7c-4,3.5-8,7-11.9,10.5c-0.1,0.1-0.3,0.2-0.4,0.4c-0.1,0.1-0.1,0.3,0,0.4
		c0.1,0.1,0.3,0.1,0.4,0.1c0.1,0,0.3-0.1,0.4-0.2c3.5-2.9,7-5.8,10.4-8.7c1.8-1.5,3.5-2.9,5.3-4.4c-0.2-0.1-0.4-0.2-0.7-0.3
		C186.7,30.6,186.6,30.3,186.5,30.1z"/>
	<path class="st3" d="M192,37.5c-0.3-0.3-0.6-0.5-1-0.8c-2.9,2.6-5.7,5.1-8.6,7.7c-1.8,1.6-3.6,3.2-5.3,4.7
		c-0.2,0.1-0.3,0.3-0.5,0.5c-0.1,0.1-0.1,0.3,0,0.5c0.1,0.2,0.3,0.1,0.5,0c0.1-0.1,0.3-0.2,0.4-0.3C182.3,45.7,187.1,41.6,192,37.5z
		"/>
	<path class="st3" d="M181.2,43.9c3.1-2.6,6.2-5.1,9.2-7.7c-0.3-0.3-0.7-0.5-1-0.8c-1.3,1.1-2.6,2.3-3.8,3.4c-3.4,3-6.8,6-10.2,9
		c-0.1,0.1-0.2,0.2-0.3,0.3c0,0.1-0.1,0.3,0,0.4c0.1,0.1,0.3,0.2,0.4,0.1c0.1,0,0.3-0.1,0.4-0.2C177.6,46.9,179.4,45.4,181.2,43.9z"
		/>
	<path class="st3" d="M192.5,39.8c0.1-0.4,0.2-0.8,0.3-1.2c0.1-0.1-0.1-0.4-0.2-0.6c-0.8,0.7-1.5,1.4-2.3,2.1
		c-2,1.8-3.9,3.6-5.9,5.4c-2.1,1.9-4.1,3.7-6.2,5.6c-0.1,0.1-0.2,0.2-0.2,0.3c-0.1,0.3,0.1,0.5,0.4,0.4c0.2,0,0.3-0.2,0.4-0.3
		c3.7-3.2,7.4-6.4,11.1-9.6C190.8,41.3,191.6,40.6,192.5,39.8z"/>
	<path class="st3" d="M192.8,42.1c-0.2-0.4-0.3-0.9-0.3-1.4c-2.5,2.3-4.9,4.6-7.4,6.8c-1.8,1.7-3.6,3.3-5.4,4.9
		c-0.1,0.1-0.2,0.2-0.3,0.4c0,0.1,0,0.3,0.1,0.4c0.1,0.1,0.3,0.1,0.4,0.1c0.1,0,0.2-0.1,0.3-0.2c2.5-2.2,5-4.5,7.5-6.7
		C189.4,45,191.1,43.5,192.8,42.1z"/>
	<path class="st3" d="M177.8,29.6c-3.3,2.8-6.5,5.7-9.8,8.5c-0.4,0.3-0.7,0.6-1.1,0.9c-0.2,0.2-0.2,0.4,0,0.6c0.2,0.2,0.4,0.1,0.5,0
		c1.1-1,2.3-1.9,3.4-2.9c3.5-2.9,7-5.8,10.5-8.6c0.8-0.7,1.7-1.4,2.5-2.1c-0.3-0.4-0.6-0.8-0.9-1.1C181.3,26.5,179.6,28,177.8,29.6z
		"/>
	<path class="st3" d="M185.5,28.3c-4.4,3.9-8.8,7.8-13.2,11.7c-0.8,0.7-1.6,1.4-2.4,2.2c-0.1,0.1-0.2,0.3-0.1,0.5
		c0.1,0.2,0.3,0.3,0.5,0.1c0.1-0.1,0.2-0.1,0.3-0.2c3-2.5,6-5,9-7.5c2.2-1.8,4.4-3.7,6.7-5.5c0,0,0,0,0,0
		C186,29.1,185.7,28.7,185.5,28.3z"/>
	<path class="st3" d="M167.4,35.8c-0.7,0.6-1.3,1.2-2,1.8c-0.1,0.1-0.1,0.3-0.1,0.4c0.1,0.1,0.3,0.2,0.4,0.2c0.2,0,0.4-0.1,0.5-0.3
		c1.4-1.1,2.8-2.3,4.2-3.5c2-1.6,4-3.2,6-4.8c2.1-1.7,4.1-3.4,6.1-5.1c-0.4-0.3-0.8-0.7-1.2-1c-1.4,1.3-2.9,2.5-4.3,3.8
		C173.9,30.2,170.7,33,167.4,35.8z"/>
</g>
<g>
	<path class="st2" d="M172.9,44.6c-0.2,0.1-0.3,0.3-0.4,0.4c-0.1,0.2-0.2,0.3-0.1,0.5c0.2,0.2,0.4,0.1,0.6,0
		c0.3-0.2,0.6-0.5,0.9-0.7c4.3-3.6,8.6-7.2,12.9-10.8c0.7-0.6,1.4-1.1,2-1.7c-0.1-0.5-0.3-0.9-0.7-1.2c-1.7,1.5-3.3,3-5,4.4
		C179.8,38.7,176.3,41.6,172.9,44.6z"/>
	<path class="st2" d="M168.7,40.4c-0.1,0.1-0.2,0.1-0.2,0.2c-0.1,0.2-0.2,0.4,0,0.6c0.2,0.2,0.4,0.1,0.6,0c0,0,0.1-0.1,0.1-0.1
		c3.2-2.7,6.5-5.4,9.7-8.1c2.1-1.8,4.2-3.5,6.3-5.3c-0.2-0.4-0.5-0.7-0.7-1.1c-1.7,1.5-3.5,3-5.2,4.6
		C175.7,34.2,172.2,37.3,168.7,40.4z"/>
	<path class="st2" d="M188.4,34.7c0.2-0.5,0.3-0.9,0.4-1.4c-1.6,1.5-3.3,3-4.9,4.4c-3.2,2.9-6.5,5.7-9.8,8.5
		c-0.1,0.1-0.3,0.3-0.4,0.4c-0.1,0.2-0.1,0.4,0.1,0.5c0.2,0.1,0.3,0,0.5-0.1c4.8-4,9.6-8,14.4-12.1
		C188.7,34.9,188.5,34.8,188.4,34.7z"/>
	<path class="st2" d="M164,36.5c0.1,0.1,0.3,0,0.5,0c0.1,0,0.1-0.1,0.2-0.1c1.5-1.2,2.9-2.4,4.4-3.6c4-3.2,7.9-6.4,11.9-9.6
		c-0.4-0.3-0.9-0.5-1.4-0.7c-5.1,4.4-10.2,8.8-15.3,13.2c-0.1,0.1-0.3,0.3-0.3,0.4C163.9,36.2,163.9,36.4,164,36.5z"/>
	<path class="st2" d="M186.5,30.1c-1,0.9-2,1.8-3,2.7c-4,3.5-8,7-11.9,10.5c-0.1,0.1-0.3,0.2-0.4,0.4c-0.1,0.1-0.1,0.3,0,0.4
		c0.1,0.1,0.3,0.1,0.4,0.1c0.1,0,0.3-0.1,0.4-0.2c3.5-2.9,7-5.8,10.4-8.7c1.8-1.5,3.5-2.9,5.3-4.4c-0.2-0.1-0.4-0.2-0.7-0.3
		C186.7,30.6,186.6,30.3,186.5,30.1z"/>
	<path class="st2" d="M192,37.5c-0.3-0.3-0.6-0.5-1-0.8c-2.9,2.6-5.7,5.1-8.6,7.7c-1.8,1.6-3.6,3.2-5.3,4.7
		c-0.2,0.1-0.3,0.3-0.5,0.5c-0.1,0.1-0.1,0.3,0,0.5c0.1,0.2,0.3,0.1,0.5,0c0.1-0.1,0.3-0.2,0.4-0.3C182.3,45.7,187.1,41.6,192,37.5z
		"/>
	<path class="st2" d="M181.2,43.9c3.1-2.6,6.2-5.1,9.2-7.7c-0.3-0.3-0.7-0.5-1-0.8c-1.3,1.1-2.6,2.3-3.8,3.4c-3.4,3-6.8,6-10.2,9
		c-0.1,0.1-0.2,0.2-0.3,0.3c0,0.1-0.1,0.3,0,0.4c0.1,0.1,0.3,0.2,0.4,0.1c0.1,0,0.3-0.1,0.4-0.2C177.6,46.9,179.4,45.4,181.2,43.9z"
		/>
	<path class="st2" d="M192.5,39.8c0.1-0.4,0.2-0.8,0.3-1.2c0.1-0.1-0.1-0.4-0.2-0.6c-0.8,0.7-1.5,1.4-2.3,2.1
		c-2,1.8-3.9,3.6-5.9,5.4c-2.1,1.9-4.1,3.7-6.2,5.6c-0.1,0.1-0.2,0.2-0.2,0.3c-0.1,0.3,0.1,0.5,0.4,0.4c0.2,0,0.3-0.2,0.4-0.3
		c3.7-3.2,7.4-6.4,11.1-9.6C190.8,41.3,191.6,40.6,192.5,39.8z"/>
	<path class="st2" d="M192.8,42.1c-0.2-0.4-0.3-0.9-0.3-1.4c-2.5,2.3-4.9,4.6-7.4,6.8c-1.8,1.7-3.6,3.3-5.4,4.9
		c-0.1,0.1-0.2,0.2-0.3,0.4c0,0.1,0,0.3,0.1,0.4c0.1,0.1,0.3,0.1,0.4,0.1c0.1,0,0.2-0.1,0.3-0.2c2.5-2.2,5-4.5,7.5-6.7
		C189.4,45,191.1,43.5,192.8,42.1z"/>
	<path class="st2" d="M177.8,29.6c-3.3,2.8-6.5,5.7-9.8,8.5c-0.4,0.3-0.7,0.6-1.1,0.9c-0.2,0.2-0.2,0.4,0,0.6c0.2,0.2,0.4,0.1,0.5,0
		c1.1-1,2.3-1.9,3.4-2.9c3.5-2.9,7-5.8,10.5-8.6c0.8-0.7,1.7-1.4,2.5-2.1c-0.3-0.4-0.6-0.8-0.9-1.1C181.3,26.5,179.6,28,177.8,29.6z
		"/>
	<path class="st2" d="M185.5,28.3c-4.4,3.9-8.8,7.8-13.2,11.7c-0.8,0.7-1.6,1.4-2.4,2.2c-0.1,0.1-0.2,0.3-0.1,0.5
		c0.1,0.2,0.3,0.3,0.5,0.1c0.1-0.1,0.2-0.1,0.3-0.2c3-2.5,6-5,9-7.5c2.2-1.8,4.4-3.7,6.7-5.5c0,0,0,0,0,0
		C186,29.1,185.7,28.7,185.5,28.3z"/>
	<path class="st2" d="M167.4,35.8c-0.7,0.6-1.3,1.2-2,1.8c-0.1,0.1-0.1,0.3-0.1,0.4c0.1,0.1,0.3,0.2,0.4,0.2c0.2,0,0.4-0.1,0.5-0.3
		c1.4-1.1,2.8-2.3,4.2-3.5c2-1.6,4-3.2,6-4.8c2.1-1.7,4.1-3.4,6.1-5.1c-0.4-0.3-0.8-0.7-1.2-1c-1.4,1.3-2.9,2.5-4.3,3.8
		C173.9,30.2,170.7,33,167.4,35.8z"/>
</g>
<path class="st2" d="M193.9,35.9c0,0-0.1,0.1-0.2,0.2c-5.4,4.6-10.8,9.2-16.2,13.8c-0.1,0.1-0.3,0.2-0.4,0.3c-0.2,0.1-0.3,0.1-0.5,0
	c-0.1-0.1-0.1-0.3,0-0.5c0.1-0.2,0.3-0.3,0.5-0.5c1.8-1.6,3.6-3.2,5.3-4.7c3.5-3.1,7-6.3,10.5-9.4c0.1-0.1,0.2-0.1,0.2-0.2
	c0-0.1,0-0.1-0.1-0.1c-0.3-0.4-0.3-0.4-0.7-0.1c-3.8,3.1-7.5,6.2-11.3,9.4c-1.8,1.5-3.5,3-5.3,4.5c-0.1,0.1-0.2,0.2-0.4,0.2
	c-0.1,0-0.3,0-0.4-0.1c-0.1-0.1,0-0.3,0-0.4c0-0.1,0.2-0.2,0.3-0.3c3.4-3,6.8-6,10.2-9c2.1-1.8,4.1-3.7,6.2-5.6
	c0.1-0.1,0.2-0.2,0.1-0.4c-0.1-0.1-0.1-0.2-0.2-0.3c-0.1,0.1-0.2,0.1-0.3,0.2c-5.7,4.7-11.3,9.5-17,14.2c-0.2,0.1-0.3,0.2-0.5,0.1
	c-0.2-0.1-0.3-0.3-0.1-0.5c0.1-0.1,0.2-0.3,0.4-0.4c3.3-2.8,6.5-5.7,9.8-8.5c2.2-2,4.4-4,6.6-5.9c0.2-0.2,0.2-0.4-0.1-0.6
	c-0.1,0-0.2,0-0.2,0.1c-1.1,0.9-2.3,1.9-3.4,2.8c-4.3,3.6-8.6,7.2-12.9,10.8c-0.3,0.2-0.6,0.5-0.9,0.7c-0.2,0.1-0.4,0.2-0.6,0
	c-0.2-0.2-0.1-0.4,0.1-0.5c0.1-0.2,0.3-0.3,0.4-0.4c3.4-3,6.8-6,10.3-9c2-1.8,4.1-3.6,6.1-5.4c0.2-0.1,0.2-0.2,0-0.4
	c-0.1-0.2-0.2-0.2-0.4,0c-2.2,1.8-4.4,3.6-6.6,5.5c-3.5,2.9-7,5.8-10.4,8.7c-0.1,0.1-0.2,0.2-0.4,0.2c-0.1,0-0.4,0-0.4-0.1
	c-0.1-0.1,0-0.3,0-0.4c0.1-0.2,0.2-0.3,0.4-0.4c4-3.5,8-7,11.9-10.5c1.5-1.3,3-2.7,4.5-4c0,0,0.1-0.1,0.1-0.1
	c-0.2-0.4-0.3-0.4-0.6-0.1c-2.6,2.2-5.3,4.3-7.9,6.5c-3,2.5-6,5-9,7.5c-0.1,0.1-0.2,0.2-0.3,0.2c-0.2,0.1-0.4,0-0.5-0.1
	c-0.1-0.2-0.1-0.3,0.1-0.5c0.8-0.7,1.6-1.4,2.4-2.2c4.8-4.2,9.5-8.4,14.3-12.6c0.1-0.1,0.3-0.2,0.1-0.4c-0.2-0.1-0.3-0.3-0.6-0.1
	c-2.4,2.1-4.9,4.1-7.3,6.1c-3.2,2.7-6.5,5.4-9.7,8.1c0,0-0.1,0.1-0.1,0.1c-0.2,0.1-0.4,0.2-0.6,0c-0.2-0.2-0.1-0.4,0-0.6
	c0.1-0.1,0.1-0.2,0.2-0.2c3.5-3.1,7-6.2,10.5-9.3c2-1.7,4-3.5,5.9-5.2c0.1-0.1,0.2-0.1,0.3-0.2c-0.1-0.1-0.2-0.3-0.4-0.3
	c-0.1,0-0.2,0-0.3,0.1c-1.1,0.9-2.2,1.8-3.2,2.7c-3.5,2.9-7,5.8-10.5,8.6c-1.1,0.9-2.3,1.9-3.4,2.9c-0.2,0.1-0.3,0.2-0.5,0
	c-0.2-0.2-0.2-0.4,0-0.6c0.3-0.3,0.7-0.6,1.1-0.9c3.3-2.8,6.5-5.7,9.8-8.5c1.9-1.7,3.8-3.4,5.7-5.1c0.1-0.1,0.2-0.2,0.3-0.2
	c-0.3-0.4-0.3-0.4-0.7-0.1c-2.2,1.8-4.4,3.7-6.6,5.5c-2,1.6-4,3.2-6,4.8c-1.4,1.1-2.8,2.3-4.2,3.5c-0.2,0.1-0.4,0.2-0.5,0.3
	c-0.1,0-0.3-0.1-0.4-0.2c-0.1-0.1,0-0.3,0.1-0.4c0.6-0.6,1.3-1.2,2-1.8c3.2-2.8,6.5-5.6,9.7-8.4c1.6-1.4,3.3-2.9,4.9-4.3
	c0.1-0.1,0.1-0.1,0.2-0.2c-0.2-0.4-0.3-0.4-0.6-0.1c-4.2,3.4-8.4,6.7-12.5,10.1c-1.5,1.2-2.9,2.4-4.4,3.6c-0.1,0.1-0.1,0.1-0.2,0.1
	c-0.2,0-0.4,0.1-0.5,0c-0.1-0.1-0.2-0.3-0.1-0.4c0.1-0.2,0.2-0.3,0.3-0.4c5.9-5.1,11.9-10.2,17.8-15.4c1.1-0.9,2.1-1.9,3.2-2.9
	c1.1-1,2.3-1.4,3.8-0.9c0.5,0.2,0.9,0.4,1.4,0.6c1,0.5,2.1,0.9,3.2,1c2.1,0.1,4-0.4,5.7-1.5c1.8-1.2,3.3-2.8,4.2-4.7
	c0.4-0.8,0.6-1.7,0.8-2.6c0.2-1,0.8-1.7,1.6-2.1c0.8-0.4,1.6-0.9,2.4-1.2c0.8-0.4,1.6-0.4,2.3,0.2c1.1,0.8,2.2,1.6,3.1,2.7
	c0.6,0.8,1,1.8,1.4,2.7c0.1,0.3,0.2,0.5,0.3,0.8c0.2,0.7,0.1,1.4-0.3,2c-0.6,0.9-1.2,1.9-2,2.7c-0.6,0.6-1.2,1-2.1,0.9
	c-2.6-0.1-4.7,1-6.5,2.6c-1.4,1.2-2.4,2.6-3.1,4.4c-0.6,1.7-0.8,3.4-0.3,5.2c0.1,0.6,0.2,1.1,0.4,1.7c0.3,1.1,0,2.1-0.8,2.9
	c-0.6,0.7-1.3,1.3-2,1.9c-1.5,1.3-2.9,2.6-4.4,3.8c-2.3,2-4.6,4-6.9,6c-2.5,2.2-5,4.5-7.5,6.7c-0.1,0.1-0.2,0.2-0.3,0.2
	c-0.1,0-0.3,0-0.4-0.1c-0.1-0.1-0.1-0.3-0.1-0.4c0-0.1,0.2-0.3,0.3-0.4c1.8-1.7,3.6-3.3,5.4-4.9c3.1-2.9,6.2-5.8,9.3-8.6
	c0.3-0.2,0.5-0.5,0.8-0.7c0.2-0.2,0.1-0.3,0-0.4c-0.1-0.2-0.2,0-0.3,0.1c-1.6,1.4-3.3,2.8-4.9,4.2c-3.7,3.2-7.4,6.4-11.1,9.6
	c-0.1,0.1-0.3,0.2-0.4,0.3c-0.3,0.1-0.5-0.2-0.4-0.4c0-0.1,0.1-0.2,0.2-0.3c2.1-1.9,4.1-3.7,6.2-5.6c2-1.8,3.9-3.6,5.9-5.4
	c1.2-1.1,2.4-2.2,3.7-3.3c0.4-0.3,0.4-0.3,0.1-0.7C194,36,194,36,193.9,35.9C193.9,35.9,193.9,35.9,193.9,35.9z M208.4,11.8
	c-0.5,0.5-0.6,1.2-0.1,1.8c0.4,0.4,1.1,0.5,1.6,0.1c0.5-0.5,0.6-1.2,0.1-1.7C209.6,11.4,208.8,11.4,208.4,11.8z M182.3,22.3
	c-0.1,0.2,0,0.3,0.1,0.4c0,0,0.2,0,0.2,0C182.5,22.6,182.4,22.5,182.3,22.3z"/>
<path class="st2" d="M157.4,45.3c11.8,1.6,21.2,10.4,24.1,21.4c3.9-2,8.2-3.1,12.5-3.3c-0.1-0.2-0.2-0.4-0.3-0.6
	c-1.3-2.5-4.1-4.4-2.7-7.9c0.1-0.2-0.1-0.5-0.3-0.7c-1.4-1.1-2.7-2.2-4.1-3.3c0.7-1.8,0.8-3.4-1.5-4c-0.3-0.1-0.5-0.7-0.7-1.1
	c-2-3.8-4.6-7-9-7.6c-0.7-1.5-0.9-3.2-1.9-4.1c-2.7-2.2-6.7-0.8-9.5-3.2c-0.1-0.1-0.5,0-0.7,0c-3.3,0.6-6.3-0.5-7.9-3.1
	c-1.4-2.4-2.6-2.1-4.3-1c-1.8-2.2-2.3-2.6-3.3-1.8c-0.4,7-1,14-1.3,20.9C149.9,45.1,153.6,44.8,157.4,45.3z"/>
</svg>
